<svg id="Capa_1" data-name="Capa 1" xmlns="http://www.w3.org/2000/svg" viewBox="0 0 508.93 504.87"><defs><style>.cls-1{fill:#d7101e;}.cls-15,.cls-17,.cls-2,.cls-4,.cls-6{fill:#fff;}.cls-12,.cls-16,.cls-3,.cls-5{fill:#1d1d1b;}.cls-12,.cls-15,.cls-16,.cls-17,.cls-3,.cls-4,.cls-6{stroke:#1d1d1b;}.cls-12,.cls-16,.cls-17,.cls-3,.cls-4,.cls-6{stroke-miterlimit:10;}.cls-3{stroke-width:6.69px;}.cls-4{stroke-width:1.6px;}.cls-6{stroke-width:0.82px;}.cls-7{fill:#cc692d;}.cls-8{fill:#1589cb;}.cls-9{fill:#b17f4a;}.cls-10{fill:#683c11;}.cls-11{fill:#fffffd;}.cls-12{font-size:53.55px;stroke-width:1.12px;font-family:ArialMT, Arial;}.cls-13{letter-spacing:-0.09em;}.cls-14{letter-spacing:-0.06em;}.cls-15{stroke-linejoin:round;}.cls-15,.cls-16,.cls-17{stroke-width:1.12px;}</style></defs><path class="cls-1" d="M322.87,493.88c.83-.1,1.62-.22,2.44-.31V374H275.1V497.46C291.5,496.84,307.49,495.65,322.87,493.88Z" transform="translate(4.46 2.43)"/><path class="cls-2" d="M375.51,485.21V374h-50.2v119.6C342.87,491.47,359.68,488.66,375.51,485.21Z" transform="translate(4.46 2.43)"/><path class="cls-1" d="M375.54,485.21a405.08,405.08,0,0,0,50.18-14.16V374H375.51V485.21Z" transform="translate(4.46 2.43)"/><path class="cls-1" d="M112.19,482.38c4,1,8.13,1.94,12.3,2.85V374H74.28V471A383.45,383.45,0,0,0,112.19,482.38Z" transform="translate(4.46 2.43)"/><path class="cls-2" d="M164.86,492.32c3.24.44,6.54.84,9.83,1.23V374h-50.2V485.23C137.34,488,150.84,490.4,164.86,492.32Z" transform="translate(4.46 2.43)"/><path class="cls-1" d="M217.53,497.17c2.44.12,4.91.18,7.37.28V374H174.69V493.55C188.54,495.21,202.83,496.45,217.53,497.17Z" transform="translate(4.46 2.43)"/><path class="cls-2" d="M250,498q10.2,0,20.2-.31c1.65-.05,3.27-.14,4.9-.2V374H224.9V497.45C233.17,497.76,241.52,498,250,498Z" transform="translate(4.46 2.43)"/><path class="cls-2" d="M475.93,403.56A206.89,206.89,0,0,1,454,374H425.72v97.08c.83-.3,1.68-.59,2.49-.89,18.5-6.79,34.59-14.64,47.72-23.28A116.46,116.46,0,0,0,500,426.42,193.69,193.69,0,0,1,475.93,403.56Z" transform="translate(4.46 2.43)"/><path class="cls-2" d="M59.52,374H46a206.89,206.89,0,0,1-21.94,29.59h0A193.69,193.69,0,0,1,0,426.42a116.17,116.17,0,0,0,24.07,20.45h0a217.32,217.32,0,0,0,35.45,18.47c4.73,2,9.67,3.87,14.76,5.69V374Z" transform="translate(4.46 2.43)"/><ellipse class="cls-3" cx="254.46" cy="436.2" rx="45.6" ry="47.68"/><path class="cls-4" d="M250,481.44c25.15,0,45.6-21.38,45.6-47.67s-20.45-47.68-45.6-47.68-45.6,21.39-45.6,47.68S224.85,481.44,250,481.44Zm-14.78-3.76a44.84,44.84,0,0,1-20.28-15.25l5.47-4.82L231.94,461l6.92,10.28ZM213.5,435.33l7.69-10.82,9.37,3.5,7.79,22.44L232,459.9l-11.71-3.47Zm26.16,35.24-6.74-10,6.31-9.46,21.31.06,7.63,7.94L261,470.26Zm25.32,7-2.83-7.19,7-10.93,11.51-3.67,5,5.82A45,45,0,0,1,265,477.61Zm21.38-70.68A47.76,47.76,0,0,1,294.5,432l-6.9.61-7.31-9L279.85,410Zm.43,26.43-6.09,21.3L269,458.39l-7.72-8,7.28-21.89,11-3.93Zm-7.58-9.88-11,3.94L250.9,413.3l.08-11.62,10.19-4.12L278.78,410ZM250,387.21a42.56,42.56,0,0,1,12,1.73l-1.61,7.74-10,4-11.71-3.83-.49-8A42.42,42.42,0,0,1,250,387.21Zm-12,10.6,11.91,3.89-.08,11.54L231.1,427l-9.58-3.57L221,410.4Zm-18.06,13.1.52,12.76-7.8,11-7.18-1.72a47.73,47.73,0,0,1,8.31-26.23Z" transform="translate(4.46 2.43)"/><ellipse class="cls-5" cx="255.36" cy="436.2" rx="22.72" ry="23.75"/><polygon class="cls-6" points="265.75 452.79 273.47 460.82 285.16 457.09 291.26 435.79 284.05 426.96 273.04 430.9 265.75 452.79"/><polygon class="cls-6" points="283.68 425.92 283.25 412.43 265.63 399.99 255.44 404.11 255.36 415.73 272.65 429.86 283.68 425.92"/><polygon class="cls-6" points="243.69 453.53 237.38 462.98 244.12 473 265.43 472.69 272.63 461.52 265 453.58 243.69 453.53"/><polygon class="cls-6" points="235.03 430.44 225.66 426.94 217.96 437.76 224.79 458.86 236.51 462.34 242.82 452.89 235.03 430.44"/><polygon class="cls-6" points="235.56 429.46 254.29 415.67 254.38 404.13 242.47 400.24 225.45 412.83 225.98 425.88 235.56 429.46"/><path d="M287.6,432.63l6.9-.61a47.76,47.76,0,0,0-8.14-25.09L279.85,410l.44,13.65Z" transform="translate(4.46 2.43)"/><path d="M269.19,459.49l-7,10.93,2.83,7.19a45,45,0,0,0,20.68-16l-5-5.82Z" transform="translate(4.46 2.43)"/><path d="M220.41,457.61l-5.47,4.82a44.84,44.84,0,0,0,20.28,15.25l3.64-6.37L231.94,461Z" transform="translate(4.46 2.43)"/><path d="M250.43,400.7l10-4,1.61-7.74a42.52,42.52,0,0,0-23.77-.07l.49,8Z" transform="translate(4.46 2.43)"/><path d="M212.66,434.65l7.8-11-.52-12.76-6.15-4.21a47.73,47.73,0,0,0-8.31,26.23Z" transform="translate(4.46 2.43)"/><path class="cls-7" d="M250,133.74c-59.59,0-110-22.88-120-54.4L129.3,77l2.36-.53C167.87,68.29,208.8,64,250,64s82.13,4.33,118.34,12.54l2.36.53L370,79.34C360.05,110.86,309.59,133.74,250,133.74Z" transform="translate(4.46 2.43)"/><path class="cls-5" d="M250,66.19c42.6,0,82.71,4.52,117.85,12.48-9.44,30-58.6,52.84-117.85,52.84S141.59,108.65,132.15,78.67c35.14-8,75.25-12.48,117.85-12.48m0-4.47c-41.37,0-82.46,4.36-118.83,12.6l-4.73,1.07L127.9,80c10.21,32.43,61.56,56,122.1,56s111.89-23.53,122.1-56l1.46-4.62-4.73-1.07c-36.37-8.24-77.46-12.6-118.83-12.6Z" transform="translate(4.46 2.43)"/><path class="cls-8" d="M432.56,125.33c-9.93.62-11.08.38-14.35,1.25a22.5,22.5,0,0,0-7.87,3.39c-1.48,1-2.28,1.91-5.81,6.1-6.34,7.51-6.28,7.69-7.73,9-2.61,2.32-5.27,4.69-9.41,5.37a13.59,13.59,0,0,1-8.83-1.4c-5.51-3.08-6.53-9.18-6.69-10.3-.13-.86-.82-6.13,2.42-10.45,2-2.7,4.78-3.91,9.93-6.18,2.95-1.29,4.22-1.49,6.92-3.09,3.55-2.09,3.17-2.81,5.37-4,5-2.62,12-1.6,17.43-.81a11.93,11.93,0,0,0,5.3-.51c.93-.31,2.59-.87,2.72-1.91s-1.79-2.27-2.2-2.51a8.63,8.63,0,0,0-4.64-1c-4,.11-8,0-12,.07s-5.17,0-6.77.88c-1.83,1-1.81,2.06-3.45,3.61-3.06,2.88-8.27,4.25-12.36,2.65-1.84-.72-4.67-2.51-4.64-4.64,0-2.34,3.55-4.46,4.2-4.85,1.83-1.11,3.27-1.29,3.53-2.43a2.51,2.51,0,0,0-.89-2.21c-1.87-1.68-5.78-.14-7.28.44-10.18,4-21.37,19.38-22.51,21-9.79,13.65-10.64,18-16.55,19.64A52.52,52.52,0,0,1,322.73,144c-2.74-.06-5.74-.35-9.27,1.1a16.6,16.6,0,0,0-5.08,3.31c-5.29,4.88-14.32,9.7-21,13.24-11.69,6.24-23.69,5.37-36.86,4.41-16.62-1.2-23.41-6-25.19-7.27-2.17-1.62-2.12-2-4.89-4.05a55.36,55.36,0,0,0-20.75-9.13c-11.4-2.51-11.72.85-22.36-1.17-11.06-2.11-12.4-6.06-23.54-9.27-5.33-1.54-6.29-1-26.78-1.77-25.54-.95-27.52-1.92-39.57-1.32-10,.5-11.25,1.29-22.51,2.21-8.3.67-15.86.9-22.57.9,1.3,2,2.59,4,3.83,6A222.48,222.48,0,0,1,78.15,250.68c.06,2.25.11,4.5.11,6.77a230.06,230.06,0,0,1-3.3,38.8c25.53-4.13,37.5-4.19,43-2.83l1,.23c3.6.86,5.63,1.18,9.35,1.76,6.86,1.06,10.38,1.58,14.79.88,2-.32,3.06-.71,10.3-3.53l7.2-2.82c5-2,5.44-2.15,6.33-2.48,8.76-3.19,10.71-.66,29.13-2.06,15.09-1.14,17.2-3.1,22.07-.59h0c6,3.1,6.17,7.82,13.44,10.59,4,1.5,4.6.36,12.8,1.54,9.88,1.43,11.29,3.42,16.78,3.75,7.9.48,11.14-3.27,19.64-6.4,9.36-3.44,12-1.3,37.95-1.76,2.65-.05,12-.55,30.68-1.55,11.65-.62-1.13,0,38.18-3.75,5.5-.53,11.94-1.13,18.54-5.3,4.08-2.57,5-4.46,9.27-7.72a45.11,45.11,0,0,1,6.07-3.87,62.37,62.37,0,0,1-12.07-2.55,19.22,19.22,0,0,1-4.3-2c-.08-.05-3.27-2.15-7.8-4.59-6.13-3.3-8.38-3.8-9.27-4-4.26-.82-7.48.2-9.75.68-7.63,1.62-14.47-.73-22.69-3.55-9.88-3.39-17.55-9-26.26-15.45-6.57-4.83-10.34-8.39-15.89-7.94-2.22.18-4.34,1-10.37,1.54-5.72.55-7.27.17-8.17-.88-1.84-2.16-.17-6.21,0-6.62a9.66,9.66,0,0,1,.92-1.65,12.78,12.78,0,0,1,3.94-3.65c6.56-4,7.14-9,26.26-26.7,10.62-9.82,15.92-14.74,21-17,9.21-4.14,11.77-1.73,24.49-5.76a98.82,98.82,0,0,0,25.24-12.56c13.3-8.68,19.95-13,25.09-20.64,1.74-2.59,4.87-7.86,11-10.26,3.35-1.31,7-1.52,6.95-1.76S437,125.06,432.56,125.33ZM176,223.46a7.29,7.29,0,0,1-1.32,4.86c-1.87,2.21-5.22,2.22-7.06,2.2-42-.41-20.28-.38-24.94-.44-6-.07-9.78.29-15-1.76-2.12-.83-5.79-2.32-6-4.64s3.09-4.2,6.4-6.18a40,40,0,0,1,9.93-4.19c9.63-2.66,9.56-1.18,13.47-2.43,3-1,6.42-6.88,13.68-17.65.93-1.38,2.43-3.63,4.63-3.75,2.88-.16,5.15,3.4,5.52,4,1.75,2.74,1.71,5.21,1.76,10.81C177.21,218,176.13,213.15,176,223.46Zm70.62-7.39a25,25,0,0,1-10.59,12c-.6.34-11.62,6.53-19.2,2.2-1.33-.75-1.66-1.32-5.41-3.75-4.1-2.65-6.18-4-7.83-3.75-2.55.34-4.9,2.81-6.95,5-1.35,1.41-2.11,2.53-2.76,2.31s-.52-1.61-.89-4.41a29.06,29.06,0,0,0-1.76-7.17c-1.27-3.06-2.12-2.76-2.54-4.53-.86-3.66,2-8.57,5.85-10.48,3.28-1.62,4.7.22,10.81,0,1,0,13-.58,15.56-6.73.38-.9.19-1,.22-5.08.06-7.72.12-11.64,1.77-14.34a11.66,11.66,0,0,1,7.39-5.19c6.12-1.23,12.05,3.52,14.79,7.95,1.5,2.43,1.6,4.06,2.09,17.32C247.67,211.75,247.68,213.32,246.59,216.07Zm13.68,5.08c-1.41-.14-2.36-1.48-3.42-3s-2.78-3.95-2.09-6.85,3.44-4.39,4.74-5.07,2.78-1.45,4.08-1c2.49.86,3.26,5.38,2.65,8.6C265.57,217.38,262.89,221.39,260.27,221.15Zm15.56,7.94c-2.07,2.6-3.5,4.4-5.29,4.3-1.56-.08-1.51-1.47-4.75-3.42-2-1.21-3-1.26-3.2-2.09-.24-1.21,1.55-2.75,3.2-3.42.52-.21,1.55-.56,6.62.22,4.13.62,4.68,1,4.86,1.54C277.52,227,276.9,227.74,275.83,229.09Zm3.42-5.08c-1,.39-2.56-1.51-5.07-4.63-3-3.75-4.53-5.66-4-7.61a4.39,4.39,0,0,1,4-3.09c3.25.1,4.88,5.82,5.29,7.28C280.35,219.06,280.64,223.49,279.25,224Z" transform="translate(4.46 2.43)"/><path class="cls-9" d="M69.78,315.06l.35-1.39c.06-.25.13-.49.2-.73s.15-.53.21-.8c1.16-4.68,2.2-9.65,3.1-14.75,0-.26.36-2.12.36-2.12l.79-.12c14.93-2.42,26.52-3.64,34.44-3.64a39.43,39.43,0,0,1,9,.83l.94.22c3.61.86,5.62,1.18,9.27,1.74a69.43,69.43,0,0,0,10.57,1.19,23.82,23.82,0,0,0,3.86-.3c1.91-.31,2.9-.68,10.07-3.47,3.12-1.22,5.44-2.12,7.2-2.82,2.14-.83,3.44-1.35,4.3-1.69,1.18-.46,1.54-.61,2.06-.8a26.81,26.81,0,0,1,10.16-1.78c1,0,2,0,3.08.05,1.38,0,2.92.07,4.73.07,3.63,0,7.38-.15,11.46-.46,5.18-.39,8.88-.89,11.58-1.25a44.65,44.65,0,0,1,5.71-.56,10.83,10.83,0,0,1,5.37,1.34l.09,0,0,0a19.76,19.76,0,0,1,6,5.05,16.58,16.58,0,0,0,7.26,5.42,12.32,12.32,0,0,0,4.93.84,57.46,57.46,0,0,1,7.63.65,59.22,59.22,0,0,1,10.54,2.42,22.48,22.48,0,0,0,6.14,1.32c.45,0,.87,0,1.28,0,4.26,0,7.12-1.41,10.75-3.2a69.1,69.1,0,0,1,7.16-3.17,31.09,31.09,0,0,1,12.27-2.08c1.66,0,3.56.05,5.76.11,3.28.09,7.38.2,12.74.2,2.44,0,5,0,7.56-.07s12-.55,30.62-1.54c5.4-.29,5.5-.3,8-.61,3-.37,9.08-1.12,30.1-3.14,5.51-.53,11.7-1.12,18.05-5.13a27.72,27.72,0,0,0,4.82-3.89,48.36,48.36,0,0,1,4.37-3.78c1.07-.81,2.21-1.59,3.41-2.34a55.73,55.73,0,0,1-9.09-2.14,20.28,20.28,0,0,1-4.56-2.13c-.13-.08-3.29-2.16-7.71-4.54-6.18-3.32-8.26-3.72-9-3.86a16.18,16.18,0,0,0-3-.29,23,23,0,0,0-5.31.75l-1,.22a25.68,25.68,0,0,1-5.34.56c-5.89,0-11.48-1.92-17.95-4.15-10-3.44-17.69-9.08-26.56-15.6l-2.53-1.89c-4.7-3.54-7.81-5.88-11.77-5.88a8,8,0,0,0-.84,0,22.17,22.17,0,0,0-2.7.43,73.1,73.1,0,0,1-7.66,1.11c-1.79.17-3.2.26-4.31.26-2.52,0-3.87-.43-4.81-1.53-2.22-2.59-.54-6.94-.18-7.78a11,11,0,0,1,1-1.83,13.62,13.62,0,0,1,4.27-4c2.92-1.78,4.55-3.71,7.5-7.21a195.78,195.78,0,0,1,18.6-19.37c10.7-9.9,16.06-14.86,21.27-17.19a35.16,35.16,0,0,1,11.74-3.07,62.9,62.9,0,0,0,12.86-2.74,97.74,97.74,0,0,0,25-12.43c13.16-8.59,19.76-12.9,24.77-20.32l.4-.61c1.72-2.59,4.48-6.74,9.38-9.27-1.95.12-3.51.19-4.79.26-4,.2-5.18.26-7.38.84a21.59,21.59,0,0,0-7.52,3.22c-1.33.94-2,1.66-5.6,5.91-2.22,2.64-3.66,4.37-4.65,5.56a26,26,0,0,1-3.18,3.53c-2.72,2.41-5.52,4.91-10,5.64a16.64,16.64,0,0,1-2.66.22A13.92,13.92,0,0,1,378,150c-5.7-3.18-7-9.31-7.26-11.11a15.71,15.71,0,0,1,2.64-11.28c2.21-2.94,5.11-4.21,10.38-6.53,1-.45,1.87-.78,2.63-1.07a24.37,24.37,0,0,0,4.16-2,14.91,14.91,0,0,0,3.14-2.32A9.12,9.12,0,0,1,396,114a18.74,18.74,0,0,1,8.79-1.81,64.64,64.64,0,0,1,9.32.89,10.35,10.35,0,0,0,1.31.08,11,11,0,0,0,3.47-.55c1.52-.51,1.91-.82,2-1h0s-.14-.54-1.64-1.38a7,7,0,0,0-3.52-.83h-.53c-1.58,0-3.13.06-4.69.06h-3.82q-1.76,0-3.51,0l-1.31,0c-3,0-3.81.08-4.92.71a4.6,4.6,0,0,0-1.68,1.62,12.6,12.6,0,0,1-1.57,1.83,13.94,13.94,0,0,1-9.36,3.63,11.44,11.44,0,0,1-4.17-.75c-2-.79-5.39-2.87-5.34-5.7,0-2.44,2.59-4.5,4.73-5.79a18.92,18.92,0,0,1,1.75-.91c.65-.31,1.22-.57,1.27-.81a1.49,1.49,0,0,0-.54-1.13,2.45,2.45,0,0,0-1.64-.47,13.8,13.8,0,0,0-4.49,1.12c-9.8,3.85-20.79,18.88-22,20.58-2.87,4-5,7.19-6.65,9.76-4.08,6.22-5.94,9-10.52,10.31a53.41,53.41,0,0,1-13,1.59h-1l-.95,0c-.58,0-1.17,0-1.77,0a14.79,14.79,0,0,0-10.79,4.13c-5.45,5-14.58,9.9-21.24,13.45s-14.07,5.22-23.7,5.22c-4.48,0-9-.33-13.77-.67-11.21-.82-20.36-3.48-25.77-7.5a23.26,23.26,0,0,1-2.18-1.82,27.7,27.7,0,0,0-2.71-2.22,54.65,54.65,0,0,0-20.33-8.94,35.09,35.09,0,0,0-7.61-.95A35.88,35.88,0,0,0,188,146a41.27,41.27,0,0,1-4.12.25,35.55,35.55,0,0,1-6.73-.71,39.38,39.38,0,0,1-12.82-4.74,49.73,49.73,0,0,0-10.82-4.55c-3.66-1-5.1-1.09-13.1-1.3-3.14-.09-7.44-.2-13.27-.42a41.26,41.26,0,0,1-15.37,6,33.07,33.07,0,0,1-5.17.41,31.71,31.71,0,0,1-11-1.94,46.61,46.61,0,0,1-10.7-5.67c-3.83.25-6.23.56-9,.91s-5.8.73-10.89,1.15c-7.41.6-15,.9-22.45.9H41.8l-.33-.5c-3.47-5.28-7.08-10.28-10.72-14.88L30,120l.92-.69c23.72-17.74,58.63-32.18,101-41.77l1-.22.31,1c4.5,14.3,18.58,27.43,39.64,37C194.31,125,221.7,130.39,250,130.39s55.69-5.35,77.14-15.07c21.06-9.55,35.14-22.68,39.64-37l.31-1,1,.22c42.33,9.59,77.24,24,101,41.77l.92.69-.72.9c-28.47,35.9-44.9,82-46.28,129.77-.08,2.59-.11,4.73-.11,6.74,0,2.37,0,4.77.12,7.35,0,.34,0,.68,0,1l0,.82c.05,1.11.09,2.22.15,3.33l0,.4a228.09,228.09,0,0,0,6.23,41.77c.06.27.14.53.21.79l.2.74.35,1.39Z" transform="translate(4.46 2.43)"/><path class="cls-10" d="M367.85,78.67c42.06,9.53,77,24,100.53,41.58-27.78,35-45.09,80.49-46.53,130.43-.06,2.25-.11,4.5-.11,6.77q0,3.71.12,7.39c0,.61.06,1.23.09,1.84,0,1.12.09,2.24.15,3.35,0,.13,0,.26,0,.39a228.68,228.68,0,0,0,6.25,42c.13.51.29,1,.42,1.53H71.21c.13-.51.29-1,.42-1.53,1.2-4.87,2.22-9.82,3.11-14.83.08-.44.15-.89.22-1.33,16.38-2.65,27.18-3.62,34.28-3.62a37.81,37.81,0,0,1,8.76.79l1,.23c3.6.86,5.63,1.18,9.35,1.76a72.75,72.75,0,0,0,10.75,1.2,25.37,25.37,0,0,0,4-.32c2-.32,3.06-.71,10.3-3.53l7.2-2.82c5-2,5.44-2.15,6.33-2.48a25.44,25.44,0,0,1,9.78-1.71c2.12,0,4.53.12,7.81.12,3,0,6.7-.1,11.54-.47,9.72-.74,14.06-1.81,17.21-1.81a9.82,9.82,0,0,1,4.86,1.22h0c6,3.1,6.17,7.82,13.44,10.59,4,1.5,4.6.36,12.8,1.54,9.88,1.43,11.29,3.42,16.78,3.75.46,0,.91,0,1.34,0,7,0,10.3-3.5,18.3-6.44a30.09,30.09,0,0,1,11.88-2c4.09,0,9.5.31,18.49.31,2.28,0,4.8,0,7.58-.07s12-.55,30.68-1.55c11.65-.62-1.13,0,38.18-3.75,5.5-.53,11.94-1.13,18.54-5.3,4.08-2.57,5-4.46,9.27-7.72a45.11,45.11,0,0,1,6.07-3.87,62.37,62.37,0,0,1-12.07-2.55,19.22,19.22,0,0,1-4.3-2c-.08-.05-3.27-2.15-7.8-4.59-6.13-3.3-8.38-3.8-9.27-4a17.16,17.16,0,0,0-3.23-.31,28.61,28.61,0,0,0-6.52,1,24.22,24.22,0,0,1-5.1.53c-5.7,0-11.23-1.9-17.59-4.08-9.88-3.39-17.55-9-26.26-15.45-6.19-4.55-9.9-8-15-8-.3,0-.61,0-.93,0-2.22.18-4.34,1-10.37,1.54-1.77.17-3.14.25-4.21.25-2.4,0-3.34-.4-4-1.13-1.84-2.16-.17-6.21,0-6.62a9.66,9.66,0,0,1,.92-1.65,12.78,12.78,0,0,1,3.94-3.65c6.56-4,7.14-9,26.26-26.7,10.62-9.82,15.92-14.74,21-17,9.21-4.14,11.77-1.73,24.49-5.76a98.82,98.82,0,0,0,25.24-12.56c13.3-8.68,19.95-13,25.09-20.64,1.74-2.59,4.88-7.86,11-10.26,3.35-1.31,7-1.52,6.95-1.76,0-.06-.22-.09-.62-.09-1.05,0-3.4.18-6.62.38-9.93.62-11.08.38-14.35,1.25a22.5,22.5,0,0,0-7.87,3.39c-1.48,1-2.28,1.91-5.81,6.1-6.34,7.51-6.28,7.69-7.73,9-2.61,2.32-5.27,4.69-9.41,5.37a15.73,15.73,0,0,1-2.48.21,12.93,12.93,0,0,1-6.35-1.61c-5.51-3.08-6.53-9.18-6.69-10.3-.13-.86-.82-6.13,2.42-10.45,2-2.7,4.78-3.91,9.93-6.18,2.95-1.29,4.22-1.49,6.92-3.09,3.55-2.09,3.17-2.81,5.37-4a17.77,17.77,0,0,1,8.27-1.68,65.62,65.62,0,0,1,9.16.87,9.53,9.53,0,0,0,1.47.1,12.22,12.22,0,0,0,3.83-.61c.93-.31,2.59-.87,2.72-1.91s-1.79-2.27-2.2-2.51a8.23,8.23,0,0,0-4.06-1h-.58c-1.55,0-3.09,0-4.64,0h-3.81q-1.77,0-3.54,0c-4,.08-5.17,0-6.77.88-1.83,1-1.81,2.06-3.45,3.61a13,13,0,0,1-8.6,3.33,10.43,10.43,0,0,1-3.76-.68c-1.84-.72-4.67-2.51-4.64-4.64,0-2.34,3.55-4.46,4.2-4.85,1.83-1.11,3.27-1.29,3.53-2.43a2.51,2.51,0,0,0-.89-2.21,3.46,3.46,0,0,0-2.38-.76,14.67,14.67,0,0,0-4.9,1.2c-10.18,4-21.37,19.38-22.51,21-9.79,13.65-10.64,18-16.55,19.64A51.62,51.62,0,0,1,323.72,144h-1c-.89,0-1.8-.06-2.75-.06a15.91,15.91,0,0,0-11.6,4.47c-5.29,4.88-14.32,9.7-21,13.24-7.52,4-15.16,5.09-23.17,5.09-4.44,0-9-.33-13.69-.68-16.62-1.2-23.41-6-25.19-7.27-2.17-1.62-2.12-2-4.89-4.05a55.36,55.36,0,0,0-20.75-9.13,36.07,36.07,0,0,0-7.85-1c-3,0-5,.49-8,.49a34.15,34.15,0,0,1-6.52-.68c-11.06-2.11-12.4-6.06-23.54-9.27-5.33-1.54-6.29-1-26.78-1.77h-.21a40.23,40.23,0,0,1-15.24,6A31.09,31.09,0,0,1,96,138a45.07,45.07,0,0,1-10.74-5.76c-8,.5-9.93,1.24-20.3,2.09-8.22.66-15.71.9-22.37.9h-.2q-5.09-7.76-10.78-15c23.52-17.59,58.47-32,100.53-41.58,9.44,30,58.6,52.84,117.85,52.84s108.41-22.86,117.85-52.84M366.34,76l-.62,2c-4.41,14-18.27,26.89-39,36.3-21.31,9.66-48.54,15-76.68,15s-55.37-5.32-76.68-15c-20.77-9.41-34.63-22.3-39-36.3l-.62-2-2,.46c-42.48,9.62-77.53,24.13-101.37,42l-1.84,1.37,1.42,1.8c3.63,4.58,7.22,9.56,10.67,14.8l.66,1h1.4c7.52,0,15.11-.31,22.55-.91,5.12-.42,8.21-.81,10.94-1.16s4.94-.63,8.51-.87a48.73,48.73,0,0,0,10.64,5.58,33,33,0,0,0,11.37,2,34.16,34.16,0,0,0,5.35-.42,42.4,42.4,0,0,0,15.5-6c5.65.21,9.85.32,12.93.4,7.88.21,9.3.25,12.82,1.26a49,49,0,0,1,10.61,4.47A40.49,40.49,0,0,0,177,146.65a36.86,36.86,0,0,0,6.94.72c1.61,0,2.94-.13,4.23-.25a36.77,36.77,0,0,1,3.76-.24,34.19,34.19,0,0,1,7.37.93,53.63,53.63,0,0,1,19.91,8.75,24.52,24.52,0,0,1,2.61,2.14,27.26,27.26,0,0,0,2.27,1.9c4,2.93,11.72,6.65,26.36,7.71,4.8.35,9.33.68,13.85.68,9.82,0,17.29-1.65,24.22-5.35,6.72-3.59,15.92-8.5,21.42-13.57l.06,0a13.6,13.6,0,0,1,10-3.83c.59,0,1.17,0,1.73,0l1,0h1A53.08,53.08,0,0,0,337,144.62c5-1.36,6.92-4.31,11.16-10.77,1.67-2.56,3.76-5.75,6.61-9.72,1.21-1.67,12-16.46,21.52-20.19a12.69,12.69,0,0,1,4.08-1,1.8,1.8,0,0,1,.78.13l-.34.16a17.09,17.09,0,0,0-1.86,1c-2.38,1.43-5.22,3.77-5.27,6.73-.05,3.21,3.23,5.64,6.06,6.75a12.53,12.53,0,0,0,4.57.83,15.18,15.18,0,0,0,4.44-.68c-1,.48-1.75.79-2.74,1.18-.76.29-1.62.62-2.68,1.09-5.26,2.31-8.43,3.71-10.82,6.88-3.59,4.77-3.09,10.48-2.85,12.11.28,1.93,1.67,8.49,7.81,11.93a15.13,15.13,0,0,0,7.44,1.89,18,18,0,0,0,2.84-.24c4.78-.79,7.84-3.51,10.54-5.91a26.83,26.83,0,0,0,3.3-3.65c1-1.19,2.42-2.92,4.64-5.55,3.51-4.16,4.17-4.85,5.4-5.72a20.58,20.58,0,0,1,7.15-3c2.09-.56,3.16-.61,7.16-.81l.69,0a31.34,31.34,0,0,0-6.27,7.32l-.4.6c-4.87,7.23-11.42,11.5-24.45,20a96.8,96.8,0,0,1-24.7,12.3,61.47,61.47,0,0,1-12.66,2.69A36.25,36.25,0,0,0,346.09,174c-5.37,2.41-10.78,7.41-21.57,17.39a196.21,196.21,0,0,0-18.69,19.47c-2.88,3.41-4.47,5.29-7.22,7a14.73,14.73,0,0,0-4.62,4.3,11.81,11.81,0,0,0-1.12,2c-.57,1.34-2.23,5.93.36,9,1.44,1.68,3.56,1.91,5.65,1.91,1.15,0,2.59-.08,4.42-.26a73.43,73.43,0,0,0,7.76-1.13,25.18,25.18,0,0,1,2.58-.41c.25,0,.51,0,.75,0,3.59,0,6.58,2.25,11.1,5.65.8.61,1.64,1.24,2.54,1.9,8.94,6.58,16.65,12.26,26.85,15.76,6.57,2.25,12.24,4.2,18.32,4.2a26.53,26.53,0,0,0,5.57-.58l1-.22a21.3,21.3,0,0,1,5.06-.72,14.78,14.78,0,0,1,2.81.27c1.72.33,4.63,1.59,8.63,3.74,4.28,2.31,7.3,4.28,7.63,4.49a22,22,0,0,0,4.8,2.26,49.81,49.81,0,0,0,6.53,1.69c-.4.28-.78.56-1.15.84a49.68,49.68,0,0,0-4.47,3.86,27,27,0,0,1-4.64,3.76c-6.13,3.86-12.18,4.44-17.51,4.95h-.05c-21,2-27.18,2.77-30.13,3.14-2.51.31-2.61.32-8,.6-18.64,1-28,1.5-30.6,1.55s-5.1.07-7.54.07c-5.34,0-9.42-.11-12.7-.2-2.21-.06-4.12-.11-5.79-.11A32.18,32.18,0,0,0,280,292.21a69.52,69.52,0,0,0-7.27,3.22c-3.64,1.79-6.26,3.08-10.26,3.08l-1.21,0a22.11,22.11,0,0,1-5.88-1.27,59.63,59.63,0,0,0-10.71-2.47,61.91,61.91,0,0,0-7.76-.66,11.17,11.17,0,0,1-4.56-.76,15.45,15.45,0,0,1-6.82-5.12,21.17,21.17,0,0,0-6.34-5.33h0l-.07,0a12,12,0,0,0-5.87-1.46,46.57,46.57,0,0,0-5.86.57c-2.69.36-6.37.86-11.52,1.25-4,.3-7.77.45-11.37.45-1.79,0-3.34,0-4.7-.06-1.1,0-2.14-.05-3.11-.05a27.71,27.71,0,0,0-10.54,1.84c-.53.2-.9.34-2.1.82l-4.28,1.68c-1.76.7-4.08,1.6-7.2,2.82-7.08,2.76-8.05,3.12-9.84,3.41a22.94,22.94,0,0,1-3.69.29,70.6,70.6,0,0,1-10.4-1.18c-3.63-.56-5.62-.87-9.18-1.72l-.19-.05-.74-.18a40.43,40.43,0,0,0-9.3-.86c-8,0-19.64,1.23-34.63,3.66L73,294.3l-.27,1.57-.09.56c0,.25-.08.51-.13.76-.9,5.09-1.93,10-3.08,14.68-.06.26-.13.51-.2.76l-.21.76-.7,2.78h363.3l-.7-2.78-.21-.75c-.07-.26-.14-.51-.2-.77a226.63,226.63,0,0,1-6.19-41.57v-.39c-.06-1.1-.11-2.21-.15-3.32,0-.27,0-.55,0-.82s0-.67-.05-1c-.08-2.51-.12-5-.12-7.32,0-2,0-4.14.11-6.71,1.37-47.55,17.73-93.4,46.05-129.11l1.42-1.8-1.84-1.37c-23.84-17.83-58.89-32.34-101.37-42l-2-.46Zm44.14,34.58c1.29,0,3,0,4.7-.05h.52a6,6,0,0,1,3,.68l.32.19-.46.16a10,10,0,0,1-3.12.5,9.55,9.55,0,0,1-1.14-.07,65.06,65.06,0,0,0-9.49-.9,20.26,20.26,0,0,0-8.86,1.71l.22-.3a3.68,3.68,0,0,1,1.33-1.3c.87-.5,1.51-.52,4.38-.57l1.32,0c1.17,0,2.33,0,3.5,0h3.81Z" transform="translate(4.46 2.43)"/><path class="cls-9" d="M167.57,231.64c-11-.11-17.6-.18-21.49-.24l-4-.07a5.78,5.78,0,0,1-1.44-.15h-.61c-4.58,0-8.2,0-12.83-1.82-2.25-.88-6.44-2.53-6.66-5.6s3.26-5,6.94-7.21a40.83,40.83,0,0,1,10.21-4.31,41.08,41.08,0,0,1,9.95-1.84,11.67,11.67,0,0,0,3.47-.58c2.1-.67,4.91-4.9,9.55-11.91l3.54-5.31c1-1.54,2.76-4.08,5.5-4.24H170c3,0,5.2,2.81,6.27,4.49,1.86,2.91,1.88,5.55,1.94,10.81v.59c.08,7.75-.23,9.66-.55,11.68a45.08,45.08,0,0,0-.55,7.55A8.35,8.35,0,0,1,175.5,229c-2,2.33-5.2,2.6-7.46,2.6Z" transform="translate(4.46 2.43)"/><path class="cls-10" d="M170,189.47c2.79,0,5,3.42,5.33,4,1.75,2.74,1.71,5.21,1.76,10.81.14,13.76-.94,8.89-1.1,19.2a7.29,7.29,0,0,1-1.32,4.86c-1.72,2-4.71,2.21-6.61,2.21h-.45c-42-.41-20.28-.38-24.94-.44-6-.07-9.78.29-15-1.76-2.12-.83-5.79-2.32-6-4.64s3.09-4.2,6.4-6.18a40,40,0,0,1,9.93-4.19c9.63-2.66,9.56-1.18,13.47-2.43,3-1,6.42-6.88,13.68-17.65.93-1.38,2.43-3.63,4.63-3.75H170m0-2.23h-.31c-3.3.18-5.28,3.13-6.35,4.71-1.31,1.95-2.48,3.72-3.56,5.33-4.2,6.34-7.23,10.91-9,11.47a11.07,11.07,0,0,1-3.19.53,41.86,41.86,0,0,0-10.19,1.87,42.21,42.21,0,0,0-10.48,4.43c-3.81,2.27-7.75,4.62-7.48,8.26s4.89,5.57,7.37,6.55c4.82,1.88,8.53,1.89,13.22,1.9h.42a3.92,3.92,0,0,0,.75.12l.86,0c.77,0,2,.05,4,.07,4.29.07,11.53.15,21.49.25H168c2.48,0,6-.31,8.31-3a9.28,9.28,0,0,0,1.85-6.19v-.07a43.22,43.22,0,0,1,.55-7.4c.32-2.07.63-4,.56-11.86v-.59c-.05-5.3-.08-8.22-2.11-11.4-1.19-1.87-3.72-5-7.21-5Z" transform="translate(4.46 2.43)"/><path class="cls-9" d="M223.1,233a13.66,13.66,0,0,1-6.85-1.68,13.47,13.47,0,0,1-1.66-1.13c-.73-.55-1.73-1.31-3.81-2.65-3.34-2.17-5.55-3.6-6.86-3.6l-.21,0c-2.16.29-4.36,2.59-6.29,4.62-.31.32-.58.62-.82.89-.95,1.05-1.63,1.81-2.59,1.81a1.48,1.48,0,0,1-.51-.09c-1.17-.38-1.28-1.58-1.42-3.23-.05-.58-.11-1.28-.22-2.1a28.33,28.33,0,0,0-1.69-6.89,9.2,9.2,0,0,0-1.48-2.54,4.83,4.83,0,0,1-1.12-2.15c-1-4.09,2.05-9.58,6.45-11.74a7,7,0,0,1,3.22-.79,16.17,16.17,0,0,1,2.48.27,26.28,26.28,0,0,0,4.6.42h1c.5,0,12.23-.5,14.57-6,.16-.38.17-.45.15-1.79,0-.66,0-1.56,0-2.86,0-7.68.08-11.91,1.92-14.92a12.79,12.79,0,0,1,8.13-5.7,10.93,10.93,0,0,1,2.22-.22c5.79,0,11.07,4.35,13.73,8.67,1.71,2.76,1.78,4.77,2.27,17.87.53,14.43.55,16.12-.63,19.1a26.24,26.24,0,0,1-11.07,12.58C236.28,229.22,229.75,233,223.1,233Z" transform="translate(4.46 2.43)"/><path class="cls-10" d="M232.26,172c5.38,0,10.35,4.2,12.79,8.15,1.5,2.43,1.6,4.06,2.09,17.32.53,14.33.54,15.9-.55,18.65a25,25,0,0,1-10.59,12c-.45.25-6.64,3.73-12.9,3.73a12.5,12.5,0,0,1-6.3-1.53c-1.33-.75-1.66-1.32-5.41-3.75s-5.87-3.77-7.47-3.77a2.17,2.17,0,0,0-.36,0c-2.55.34-4.9,2.81-6.95,5-1.24,1.29-2,2.34-2.6,2.34a.45.45,0,0,1-.16,0c-.67-.22-.52-1.61-.89-4.41a29.06,29.06,0,0,0-1.76-7.17c-1.27-3.06-2.12-2.76-2.54-4.53-.86-3.66,2-8.57,5.85-10.48a5.94,5.94,0,0,1,2.73-.67c1.74,0,3.55.69,7.08.69l1,0c1,0,13-.58,15.56-6.73.38-.9.19-1,.22-5.08.06-7.72.12-11.64,1.77-14.34a11.66,11.66,0,0,1,7.39-5.19,10.51,10.51,0,0,1,2-.2m0-2.23a11.75,11.75,0,0,0-2.44.25,14,14,0,0,0-8.86,6.21c-2,3.28-2,7.61-2.09,15.49,0,1.32,0,2.23,0,2.88a10.36,10.36,0,0,1,0,1.21s0,0-.05.13c-1.65,3.93-9.6,5.23-13.58,5.37l-.92,0a25.38,25.38,0,0,1-4.42-.41,16.24,16.24,0,0,0-2.66-.28,8.09,8.09,0,0,0-3.72.9c-4.9,2.41-8.12,8.36-7,13a5.87,5.87,0,0,0,1.33,2.59,8,8,0,0,1,1.32,2.27,27.51,27.51,0,0,1,1.61,6.61c.11.79.16,1.46.22,2,.15,1.76.31,3.58,2.18,4.19a2.82,2.82,0,0,0,.86.14c1.46,0,2.37-1,3.42-2.17.24-.27.5-.56.79-.86,1.72-1.81,3.87-4.06,5.64-4.3h.06c1,0,3.42,1.58,6.26,3.42,2,1.32,3,2.06,3.74,2.6a13.76,13.76,0,0,0,9.18,3c6.83,0,13.3-3.62,14-4a26.89,26.89,0,0,0,11.55-13.14c1.27-3.19,1.26-4.91.71-19.55-.49-13.36-.57-15.41-2.43-18.41-2.83-4.59-8.46-9.21-14.68-9.21Z" transform="translate(4.46 2.43)"/><path class="cls-9" d="M260.5,222.27h-.33c-1.93-.19-3.1-1.85-4.23-3.45s-3.07-4.35-2.27-7.74,4-5.11,5.32-5.81a8.33,8.33,0,0,1,3.73-1.26,3.91,3.91,0,0,1,1.23.2c3.35,1.17,4,6.58,3.38,9.87-.75,4-3.67,8.2-6.82,8.2Z" transform="translate(4.46 2.43)"/><path class="cls-10" d="M262.72,205.11a2.55,2.55,0,0,1,.86.15c2.49.86,3.26,5.38,2.65,8.6-.64,3.41-3.19,7.3-5.73,7.3h-.23c-1.41-.14-2.36-1.48-3.42-3s-2.78-3.95-2.09-6.85,3.44-4.39,4.74-5.07a7.51,7.51,0,0,1,3.22-1.14m0-2.23a9.34,9.34,0,0,0-4.25,1.39c-1.48.77-5,2.58-5.89,6.54s1.27,7,2.45,8.64,2.6,3.69,5,3.92l.44,0c3.83,0,7.1-4.73,7.92-9.11.72-3.78-.08-9.73-4.1-11.13a4.8,4.8,0,0,0-1.6-.27Z" transform="translate(4.46 2.43)"/><path class="cls-9" d="M279,225.18c-1.56,0-2.93-1.7-5.67-5.1-3.06-3.79-4.91-6.07-4.18-8.62a5.55,5.55,0,0,1,5-3.9h.12c2.7.09,4.83,2.81,6.34,8.09.64,2.28,1.74,8.41-.91,9.41a1.84,1.84,0,0,1-.66.12Z" transform="translate(4.46 2.43)"/><path class="cls-10" d="M274.09,208.68h.09c3.25.1,4.88,5.82,5.29,7.28.88,3.1,1.17,7.53-.22,8a.65.65,0,0,1-.27.05c-1,0-2.5-1.83-4.8-4.68-3-3.75-4.53-5.66-4-7.61a4.43,4.43,0,0,1,3.89-3.09m0-2.24a6.63,6.63,0,0,0-6,4.71c-.89,3.11,1.1,5.56,4.38,9.63,3,3.67,4.45,5.51,6.54,5.51a3,3,0,0,0,1.06-.19c4.07-1.53,1.85-9.81,1.58-10.75-1.65-5.81-4.13-8.8-7.37-8.9Z" transform="translate(4.46 2.43)"/><path class="cls-9" d="M270.48,234.51a3.55,3.55,0,0,1-2.52-1.39,12.37,12.37,0,0,0-2.74-2.19c-.69-.41-1.27-.69-1.72-.91-.92-.43-1.79-.85-2-1.93-.41-2.08,2.15-4,3.87-4.67a5.35,5.35,0,0,1,2.2-.34,35.61,35.61,0,0,1,5,.49c4.16.64,5.34,1.11,5.74,2.29s-.41,2.42-1.62,3.93c-2.18,2.74-3.76,4.72-6,4.72Z" transform="translate(4.46 2.43)"/><path class="cls-10" d="M267.57,224.2a32.9,32.9,0,0,1,4.84.48c4.13.62,4.68,1,4.86,1.54.25.73-.37,1.52-1.44,2.87-2,2.54-3.43,4.31-5.16,4.31h-.13c-1.56-.08-1.51-1.47-4.75-3.42-2-1.21-3-1.26-3.2-2.09-.24-1.21,1.55-2.75,3.2-3.42a4.1,4.1,0,0,1,1.78-.26m0-2.24a6.36,6.36,0,0,0-2.62.43c-2.13.86-5.09,3.15-4.55,5.92.32,1.63,1.59,2.23,2.62,2.72a16.9,16.9,0,0,1,1.62.86,10.91,10.91,0,0,1,2.52,2,4.57,4.57,0,0,0,3.26,1.72h.25c2.81,0,4.62-2.27,6.91-5.15,1.26-1.58,2.45-3.08,1.8-5s-2.62-2.42-6.63-3a36.66,36.66,0,0,0-5.18-.51Z" transform="translate(4.46 2.43)"/><path class="cls-11" d="M42,376.2l2.08-3.39a215.22,215.22,0,0,0,24.94-59.42l.43-1.68h361l.43,1.68a215.22,215.22,0,0,0,24.94,59.42L458,376.2Z" transform="translate(4.46 2.43)"/><path class="cls-5" d="M428.79,313.94A217.64,217.64,0,0,0,454,374H46a217.64,217.64,0,0,0,25.2-60H428.79m3.47-4.46H67.74l-.85,3.36a213,213,0,0,1-24.69,58.8l-4.15,6.79H462l-4.15-6.79a213,213,0,0,1-24.69-58.8l-.85-3.36Z" transform="translate(4.46 2.43)"/><text class="cls-12" transform="translate(81.96 363.65) scale(0.75 1)">U.D.<tspan class="cls-13" x="107.11" y="0">V</tspan><tspan x="137.91" y="0">. FRONTER</tspan><tspan class="cls-14" x="426.49" y="0">A</tspan></text><path class="cls-15" d="M209,78.67v36.51h18.48V104a9,9,0,0,1,17.91,0v11.16h18.49V78.67Z" transform="translate(4.46 2.43)"/><path class="cls-15" d="M289.92,48.53l-26,30.14v36.51l9.47-9.85v-18c0-6.53,2.07-11.19,4.43-11.83,1.72-.46,4.43-2.44,4.43,4.09V96.12l7.71-8Z" transform="translate(4.46 2.43)"/><path class="cls-15" d="M234.4,49.28h-5.72V72.81h11.89V63.74a5.42,5.42,0,1,1,10.84,0v9.07h10.7V49.28Z" transform="translate(4.46 2.43)"/><path class="cls-15" d="M262.72,48.53l-.61.75V72.81l5.52-6.07V54.93a12.36,12.36,0,0,1,1.45-6.4,2.62,2.62,0,0,1,1.41-1.24c1-.26,2.41-1.26,2.78,1.24a10.8,10.8,0,0,1,.08,1.4V60.44L278,55.36V29.85Z" transform="translate(4.46 2.43)"/><polygon class="cls-15" points="272.09 32.28 272.09 36.67 263.7 47.58 246.03 47.58 246.03 38.78 246.03 35.92 233.14 51.71 238.86 51.71 266.57 51.71 267.18 50.97 282.44 32.28 272.09 32.28"/><polygon class="cls-15" points="252.11 24.05 246.03 24.05 246.03 32.86 246.03 35.92 246.03 38.78 246.03 47.58 263.7 47.58 263.7 38.78 263.7 32.86 263.7 32.28 263.7 24.05 252.11 24.05"/><polygon class="cls-15" points="266.01 20.71 263.7 24.05 263.7 32.28 263.7 32.86 263.7 38.78 263.7 47.58 272.09 36.67 272.09 32.28 272.09 27.86 272.09 20.71 272.09 11.9 266.01 20.71"/><polygon class="cls-15" points="254.42 11.9 246.03 24.05 252.11 24.05 263.7 24.05 266.01 20.71 272.09 11.9 254.42 11.9"/><path class="cls-16" d="M246,58.1a5.53,5.53,0,0,0-5.42,5.64v9.07h10.84V63.74A5.53,5.53,0,0,0,246,58.1Z" transform="translate(4.46 2.43)"/><polygon class="cls-17" points="282.44 50.97 282.44 57.79 277.82 62.88 272.09 69.17 266.57 75.24 255.87 75.24 245.03 75.24 233.14 75.24 233.14 58.33 213.46 81.11 268.34 81.11 294.38 50.97 282.44 50.97"/><path class="cls-16" d="M273.27,48.53c-.37-2.5-1.82-1.5-2.78-1.24a2.62,2.62,0,0,0-1.41,1.24,12.36,12.36,0,0,0-1.45,6.4V66.74l5.72-6.3V49.93A10.8,10.8,0,0,0,273.27,48.53Z" transform="translate(4.46 2.43)"/><path class="cls-15" d="M254.35,2c-3.31,0-6,3.9-6,8.72h0v8a11.6,11.6,0,0,0,2.94,1,13.07,13.07,0,0,0,9.05-1.67V10.75h0C260.35,5.93,257.66,2,254.35,2Z" transform="translate(4.46 2.43)"/><path class="cls-5" d="M254.35,2c3,0,5.48,3.23,5.91,7.44h7.37V29.85H278V48.53h11.94v19c76.55,5.21,141.56,25.11,178.46,52.71-27.78,35-45.09,80.49-46.53,130.43-.06,2.25-.11,4.5-.11,6.77a229.78,229.78,0,0,0,6.63,55C439.86,359,465.56,399,500,426.42,464,468.08,365.64,498,250,498S36.05,468.08,0,426.42C34.44,399,60.14,359,71.63,312.41a229.78,229.78,0,0,0,6.63-55c0-2.27-.05-4.52-.11-6.77-1.44-49.94-18.76-95.42-46.53-130.43C70,91.58,138.63,71.21,219.08,67l9.6-11.1V49.28l12.89-15.79V21.62l6.79-9.83v-1h0c0-4.82,2.68-8.72,6-8.72m0-4.46c-5.77,0-10.31,5.6-10.45,12.82l-6,8.7a4.41,4.41,0,0,0-.79,2.53V31.9L225.22,46.45a4.49,4.49,0,0,0-1,2.83v5L217,62.65c-38.7,2.15-76.21,8.2-108.62,17.51s-59.92,22-79.38,36.51a4.47,4.47,0,0,0-.82,6.35c28,35.33,44.2,80.72,45.56,127.79.07,2.54.11,4.65.11,6.64a225.12,225.12,0,0,1-6.51,53.89c-11,44.8-35.93,84.42-70.07,111.58A4.46,4.46,0,0,0-4.44,426a4.43,4.43,0,0,0,1.07,3.34C15.12,450.7,48.76,469,93.91,482.1c45.67,13.3,99.64,20.33,156.09,20.33s110.42-7,156.09-20.33c45.15-13.15,78.79-31.4,97.28-52.76a4.47,4.47,0,0,0-.59-6.42c-34.14-27.16-59-66.78-70.07-111.58a225.12,225.12,0,0,1-6.51-53.89c0-2,0-4.1.11-6.64,1.36-47.07,17.54-92.46,45.56-127.79a4.47,4.47,0,0,0-.82-6.35c-18.71-14-44.9-26.25-75.76-35.45-30.06-9-64.87-15.11-100.91-17.83V48.53a4.46,4.46,0,0,0-4.46-4.46h-7.48V29.85A4.47,4.47,0,0,0,278,25.38h-5.89V9.47A4.46,4.46,0,0,0,267.63,5h-3.86c-1.67-4.48-5.25-7.44-9.42-7.44Z" transform="translate(4.46 2.43)"/></svg>