<svg id="Capa_1" data-name="Capa 1" xmlns="http://www.w3.org/2000/svg" viewBox="0 0 455.73 452.09"><defs><style>.cls-1{fill:#d7101e;}.cls-18,.cls-2,.cls-20,.cls-4,.cls-6{fill:#fff;}.cls-12,.cls-19,.cls-3,.cls-5{fill:#1d1d1b;}.cls-12,.cls-18,.cls-19,.cls-20,.cls-3,.cls-4,.cls-6{stroke:#1d1d1b;}.cls-12,.cls-19,.cls-20,.cls-3,.cls-4,.cls-6{stroke-miterlimit:10;}.cls-3{stroke-width:5.99px;}.cls-4{stroke-width:1.43px;}.cls-6{stroke-width:0.73px;}.cls-7{fill:#cc692d;}.cls-8{fill:#1589cb;}.cls-9{fill:#b17f4a;}.cls-10{fill:#683c11;}.cls-11{fill:#fffffd;}.cls-12{font-size:47.96px;stroke-width:1px;font-family:MyriadPro-Regular, Myriad Pro;}.cls-13{letter-spacing:-0.03em;}.cls-14{letter-spacing:-0.03em;}.cls-15{letter-spacing:-0.05em;}.cls-16{letter-spacing:0em;}.cls-17{letter-spacing:0.01em;}.cls-18{stroke-linejoin:round;}.cls-18,.cls-19,.cls-20{stroke-width:1px;}</style></defs><path class="cls-1" d="M362.89,638c.74-.08,1.45-.19,2.18-.28V530.64H320.12V641.22C334.8,640.66,349.12,639.6,362.89,638Z" transform="translate(-69.77 -193.58)"/><path class="cls-2" d="M410,630.25V530.64h-45V637.73C380.8,635.85,395.85,633.34,410,630.25Z" transform="translate(-69.77 -193.58)"/><path class="cls-1" d="M410.06,630.25A363.45,363.45,0,0,0,455,617.57V530.64H410v99.61Z" transform="translate(-69.77 -193.58)"/><path class="cls-1" d="M174.24,627.72q5.4,1.34,11,2.55V530.64h-45v86.92A345.11,345.11,0,0,0,174.24,627.72Z" transform="translate(-69.77 -193.58)"/><path class="cls-2" d="M221.4,636.62c2.9.39,5.85.75,8.8,1.1V530.64h-45v99.63C196.76,632.77,208.84,634.9,221.4,636.62Z" transform="translate(-69.77 -193.58)"/><path class="cls-1" d="M268.57,641c2.17.1,4.39.16,6.59.24V530.64h-45V637.72C242.6,639.21,255.4,640.32,268.57,641Z" transform="translate(-69.77 -193.58)"/><path class="cls-2" d="M297.64,641.68q9.14,0,18.09-.28c1.47,0,2.92-.13,4.39-.18V530.64h-45V641.21C282.57,641.49,290.05,641.68,297.64,641.68Z" transform="translate(-69.77 -193.58)"/><path class="cls-2" d="M500,557.14a184.83,184.83,0,0,1-19.65-26.5H455v86.93c.74-.26,1.5-.52,2.23-.79,16.57-6.09,31-13.11,42.73-20.85a104.11,104.11,0,0,0,21.56-18.33A173.37,173.37,0,0,1,500,557.14Z" transform="translate(-69.77 -193.58)"/><path class="cls-2" d="M127.07,530.64H115a185.52,185.52,0,0,1-19.64,26.5h0A173.37,173.37,0,0,1,73.77,577.6a103.86,103.86,0,0,0,21.56,18.32h0a194.42,194.42,0,0,0,31.74,16.54c4.24,1.76,8.66,3.46,13.21,5.1V530.64Z" transform="translate(-69.77 -193.58)"/><ellipse class="cls-3" cx="227.86" cy="390.61" rx="40.84" ry="42.69"/><path class="cls-4" d="M297.64,626.88c22.52,0,40.83-19.15,40.83-42.69s-18.31-42.7-40.83-42.7-40.84,19.16-40.84,42.7S275.12,626.88,297.64,626.88Zm-13.24-3.37a40.16,40.16,0,0,1-18.15-13.65l4.89-4.32,10.32,3.06,6.2,9.21ZM265,585.59l6.89-9.69,8.39,3.13,7,20.1-5.65,8.46-10.49-3.11Zm23.43,31.55-6-9L288,599.7l19.09,0,6.83,7.11-6.45,10Zm22.67,6.31L308.52,617l6.3-9.79,10.31-3.28,4.44,5.2A40.19,40.19,0,0,1,311.05,623.45Zm19.15-63.3a42.69,42.69,0,0,1,7.28,22.47l-6.17.55-6.55-8-.39-12.23Zm.39,23.67-5.46,19.07-10.47,3.34L307.75,599l6.52-19.6,9.86-3.53ZM323.8,575l-9.88,3.53-15.48-12.65.08-10.41,9.12-3.69,15.77,11.14Zm-26.16-32.49A38.2,38.2,0,0,1,308.38,544L306.94,551,298,554.58l-10.49-3.43L287.1,544A38.29,38.29,0,0,1,297.64,542.49ZM286.9,552l10.66,3.48-.07,10.34-16.78,12.34-8.58-3.2-.48-11.69Zm-16.18,11.73.46,11.43-7,9.83-6.43-1.54A42.73,42.73,0,0,1,265.22,560Z" transform="translate(-69.77 -193.58)"/><ellipse class="cls-5" cx="228.67" cy="390.61" rx="20.35" ry="21.27"/><polygon class="cls-6" points="237.97 405.46 244.88 412.65 255.35 409.31 260.81 390.24 254.36 382.33 244.5 385.86 237.97 405.46"/><polygon class="cls-6" points="254.02 381.39 253.64 369.32 237.86 358.18 228.74 361.87 228.67 372.27 244.15 384.93 254.02 381.39"/><polygon class="cls-6" points="218.22 406.12 212.56 414.58 218.6 423.56 237.69 423.28 244.13 413.28 237.3 406.17 218.22 406.12"/><polygon class="cls-6" points="210.46 385.45 202.07 382.32 195.18 392.01 201.29 410.9 211.78 414.01 217.44 405.55 210.46 385.45"/><polygon class="cls-6" points="210.94 384.57 227.71 372.22 227.79 361.89 217.12 358.4 201.88 369.68 202.36 381.36 210.94 384.57"/><path d="M331.31,583.17l6.17-.55a42.69,42.69,0,0,0-7.28-22.47l-5.83,2.76.39,12.23Z" transform="translate(-69.77 -193.58)"/><path d="M314.82,607.22l-6.3,9.79,2.53,6.44a40.19,40.19,0,0,0,18.52-14.31l-4.44-5.2Z" transform="translate(-69.77 -193.58)"/><path d="M271.14,605.54l-4.89,4.32a40.16,40.16,0,0,0,18.15,13.65l3.26-5.7-6.2-9.21Z" transform="translate(-69.77 -193.58)"/><path d="M298,554.58l8.92-3.61,1.44-6.93A38,38,0,0,0,287.1,544l.43,7.17Z" transform="translate(-69.77 -193.58)"/><path d="M264.2,585l7-9.83-.46-11.43-5.5-3.77a42.73,42.73,0,0,0-7.45,23.49Z" transform="translate(-69.77 -193.58)"/><path class="cls-7" d="M297.64,315.52c-53.37,0-98.55-20.48-107.44-48.71l-.65-2.07,2.12-.48c32.43-7.34,69.07-11.23,106-11.23s73.54,3.89,106,11.23l2.11.48-.65,2.07C396.18,295,351,315.52,297.64,315.52Z" transform="translate(-69.77 -193.58)"/><path class="cls-5" d="M297.64,255c38.15,0,74.06,4,105.53,11.18-8.46,26.85-52.47,47.32-105.53,47.32s-97.08-20.47-105.53-47.32C223.58,259.08,259.49,255,297.64,255m0-4c-37.05,0-73.84,3.9-106.41,11.28l-4.24,1,1.31,4.14c9.14,29,55.13,50.11,109.34,50.11S397.83,296.45,407,267.41l1.3-4.14-4.23-1C371.48,254.93,334.68,251,297.64,251Z" transform="translate(-69.77 -193.58)"/><path class="cls-8" d="M461.11,308c-8.89.55-9.92.34-12.84,1.12a20.25,20.25,0,0,0-7,3c-1.32.94-2,1.72-5.21,5.47-5.67,6.72-5.62,6.89-6.91,8-2.35,2.08-4.73,4.2-8.44,4.8a12.11,12.11,0,0,1-7.9-1.25c-4.93-2.76-5.85-8.22-6-9.22a13,13,0,0,1,2.17-9.35c1.82-2.43,4.28-3.51,8.89-5.54,2.64-1.16,3.78-1.34,6.19-2.76,3.18-1.88,2.84-2.52,4.81-3.56,4.46-2.35,10.75-1.43,15.61-.73a10.59,10.59,0,0,0,4.75-.46c.83-.28,2.32-.78,2.43-1.71s-1.6-2-2-2.24a7.68,7.68,0,0,0-4.15-.85c-3.58.09-7.16,0-10.74.06s-4.63,0-6.06.79c-1.64.94-1.62,1.84-3.09,3.23a11.15,11.15,0,0,1-11.07,2.37c-1.65-.64-4.18-2.24-4.15-4.15,0-2.1,3.17-4,3.75-4.35,1.65-1,2.94-1.15,3.17-2.17a2.27,2.27,0,0,0-.8-2c-1.67-1.5-5.18-.13-6.52.4-9.12,3.57-19.13,17.35-20.15,18.77C381.07,318,380.3,321.89,375,323.34a46.55,46.55,0,0,1-12.26,1.38c-2.45-.05-5.13-.3-8.3,1a14.51,14.51,0,0,0-4.54,3c-4.74,4.36-12.83,8.68-18.78,11.85-10.46,5.59-21.2,4.81-33,4-14.89-1.09-21-5.34-22.55-6.52-1.95-1.45-1.91-1.81-4.39-3.63a49.51,49.51,0,0,0-18.58-8.17c-10.21-2.25-10.49.76-20-1.05-9.9-1.89-11.11-5.43-21.08-8.3-4.77-1.38-5.63-.89-24-1.58-22.87-.86-24.65-1.72-35.44-1.19-8.95.45-10.06,1.16-20.15,2-7.43.6-14.2.81-20.21.81,1.16,1.77,2.32,3.56,3.43,5.38a199.35,199.35,0,0,1,28.58,98c.06,2,.1,4,.1,6.06A206.4,206.4,0,0,1,140.9,461c22.86-3.69,33.57-3.75,38.54-2.53l.85.2c3.22.77,5,1.06,8.37,1.58,6.14.95,9.29,1.42,13.24.79,1.8-.29,2.75-.64,9.22-3.16l6.46-2.52c4.48-1.76,4.87-1.93,5.66-2.23,7.85-2.85,9.59-.59,26.09-1.84,13.51-1,15.4-2.78,19.76-.53h0c5.38,2.78,5.53,7,12,9.48,3.55,1.35,4.11.32,11.46,1.38,8.84,1.28,10.1,3.06,15,3.36,7.07.43,10-2.93,17.59-5.73,8.38-3.08,10.74-1.16,34-1.58,2.37,0,10.73-.49,27.46-1.38,10.44-.56-1,0,34.19-3.36,4.93-.48,10.7-1,16.6-4.75,3.66-2.3,4.46-4,8.3-6.91a42.18,42.18,0,0,1,5.44-3.47,55.65,55.65,0,0,1-10.81-2.28,17.31,17.31,0,0,1-3.85-1.8c-.07,0-2.93-1.93-7-4.11-5.49-3-7.51-3.41-8.3-3.56-3.82-.74-6.7.18-8.73.61-6.83,1.45-13-.65-20.32-3.18-8.85-3-15.72-8.09-23.52-13.83-5.88-4.33-9.25-7.52-14.23-7.12-2,.17-3.88.87-9.29,1.39-5.11.49-6.5.15-7.31-.79-1.65-1.93-.15-5.57,0-5.93a8.92,8.92,0,0,1,.82-1.47,11.39,11.39,0,0,1,3.53-3.27c5.88-3.59,6.4-8.08,23.52-23.92,9.51-8.79,14.26-13.19,18.77-15.21,8.25-3.7,10.54-1.55,21.93-5.16A88.48,88.48,0,0,0,429,337c11.91-7.78,17.87-11.67,22.46-18.48,1.57-2.32,4.37-7,9.88-9.19,3-1.17,6.26-1.36,6.23-1.58S465.08,307.75,461.11,308ZM231.35,395.87a6.49,6.49,0,0,1-1.19,4.34c-1.67,2-4.67,2-6.32,2-37.63-.37-18.15-.34-22.33-.4-5.33-.06-8.76.26-13.44-1.58-1.9-.74-5.18-2.07-5.34-4.15s2.76-3.76,5.73-5.53a35.26,35.26,0,0,1,8.9-3.75c8.62-2.39,8.56-1.06,12-2.18,2.7-.86,5.75-6.16,12.25-15.81.84-1.23,2.18-3.25,4.15-3.36,2.58-.14,4.62,3.05,4.94,3.56,1.57,2.45,1.54,4.66,1.59,9.68C232.46,391,231.49,386.63,231.35,395.87Zm63.23-6.62A22.34,22.34,0,0,1,285.1,400c-.54.31-10.4,5.84-17.19,2-1.19-.68-1.49-1.18-4.85-3.36-3.67-2.37-5.53-3.56-7-3.36-2.28.31-4.38,2.52-6.23,4.45-1.2,1.26-1.88,2.27-2.47,2.07s-.46-1.44-.79-4a25.85,25.85,0,0,0-1.58-6.42c-1.13-2.74-1.9-2.47-2.27-4.05-.77-3.28,1.77-7.68,5.24-9.39,2.94-1.45,4.21.19,9.68,0,.9,0,11.61-.52,13.93-6,.34-.8.17-.93.2-4.54.05-6.92.11-10.43,1.58-12.85a10.45,10.45,0,0,1,6.62-4.64c5.48-1.11,10.79,3.15,13.24,7.11,1.35,2.18,1.44,3.64,1.88,15.52C295.55,385.38,295.56,386.79,294.58,389.25Zm12.26,4.54c-1.27-.12-2.11-1.32-3.07-2.67s-2.49-3.53-1.87-6.12,3.08-3.94,4.25-4.55,2.48-1.3,3.65-.89c2.23.78,2.92,4.82,2.37,7.71C311.58,390.42,309.18,394,306.84,393.79Zm13.93,7.11c-1.86,2.33-3.14,3.94-4.74,3.86-1.39-.07-1.35-1.33-4.25-3.06-1.81-1.09-2.72-1.13-2.87-1.88-.21-1.08,1.39-2.46,2.87-3.07.46-.18,1.39-.49,5.93.2,3.69.56,4.19.94,4.34,1.39C322.28,399,321.73,399.7,320.77,400.9Zm3.06-4.54c-.91.34-2.29-1.36-4.54-4.15-2.71-3.36-4.06-5.07-3.56-6.82a3.94,3.94,0,0,1,3.56-2.76c2.91.09,4.37,5.21,4.74,6.52C324.82,391.92,325.07,395.89,323.83,396.36Z" transform="translate(-69.77 -193.58)"/><path class="cls-9" d="M136.26,477.89l.31-1.25.18-.65c.06-.24.13-.47.19-.71,1-4.19,2-8.63,2.77-13.22l.32-1.89.71-.11c13.37-2.16,23.75-3.26,30.85-3.26a35.49,35.49,0,0,1,8.09.74l.84.2c3.22.77,5,1.05,8.3,1.56a63.62,63.62,0,0,0,9.46,1.07,21.46,21.46,0,0,0,3.47-.28c1.7-.27,2.59-.6,9-3.1l6.45-2.52L221,453c1.09-.43,1.42-.56,1.89-.73a23.74,23.74,0,0,1,9.1-1.6c.85,0,1.76,0,2.76.05,1.23,0,2.61.06,4.23.06,3.25,0,6.61-.14,10.26-.42,4.65-.35,8-.79,10.37-1.12a41.1,41.1,0,0,1,5.12-.5,9.71,9.71,0,0,1,4.81,1.21l.06,0A17.61,17.61,0,0,1,275,454.5a15,15,0,0,0,6.5,4.86,11.09,11.09,0,0,0,4.41.74,52.58,52.58,0,0,1,6.84.58,51.81,51.81,0,0,1,9.43,2.18,20.44,20.44,0,0,0,5.51,1.17c.39,0,.78,0,1.15,0,3.8,0,6.37-1.27,9.62-2.87a64.42,64.42,0,0,1,6.41-2.84,27.94,27.94,0,0,1,11-1.85c1.49,0,3.19,0,5.16.1,2.94.07,6.61.17,11.4.17,2,0,4.29,0,6.78-.06,2.34,0,10.63-.48,27.15-1.37h.28c4.82-.26,4.91-.27,7.19-.55,2.64-.33,8.13-1,27-2.81,4.93-.47,10.47-1,16.16-4.59a25.38,25.38,0,0,0,4.32-3.48,41.44,41.44,0,0,1,3.91-3.39c1-.73,2-1.43,3-2.09a50.4,50.4,0,0,1-8.14-1.92A18.34,18.34,0,0,1,436,434.6c-.12-.08-3-1.94-6.91-4.06-5.53-3-7.4-3.34-8-3.46a14.52,14.52,0,0,0-2.7-.26,20.31,20.31,0,0,0-4.76.67l-.87.2a23.08,23.08,0,0,1-4.78.5c-5.27,0-10.28-1.72-16.07-3.71-9-3.09-15.85-8.13-23.78-14-.81-.59-1.56-1.16-2.28-1.7-4.2-3.17-7-5.26-10.53-5.26l-.76,0a24,24,0,0,0-2.42.38,65.49,65.49,0,0,1-6.85,1c-1.6.16-2.87.23-3.86.23-2.26,0-3.47-.38-4.31-1.36-2-2.32-.48-6.22-.16-7a9.16,9.16,0,0,1,.92-1.64,12.14,12.14,0,0,1,3.82-3.56c2.61-1.59,4.07-3.32,6.71-6.45a175,175,0,0,1,16.66-17.35c9.58-8.86,14.38-13.3,19-15.39a31.6,31.6,0,0,1,10.52-2.75,56.56,56.56,0,0,0,11.51-2.45,87.49,87.49,0,0,0,22.36-11.13c11.79-7.69,17.7-11.55,22.19-18.2l.36-.54c1.54-2.32,4-6,8.39-8.31-1.74.11-3.14.17-4.28.23a27.17,27.17,0,0,0-6.62.76,19.24,19.24,0,0,0-6.73,2.88c-1.19.84-1.8,1.48-5,5.29-2,2.36-3.28,3.92-4.17,5a22.45,22.45,0,0,1-2.85,3.16c-2.43,2.16-4.94,4.4-8.93,5.05a14.14,14.14,0,0,1-2.39.2,12.5,12.5,0,0,1-6.17-1.57c-5.09-2.85-6.26-8.33-6.49-9.95A14,14,0,0,1,408.14,310c2-2.64,4.58-3.78,9.29-5.85.93-.41,1.68-.7,2.36-1a23.65,23.65,0,0,0,3.73-1.75,13.77,13.77,0,0,0,2.8-2.08,7.92,7.92,0,0,1,2.05-1.5,16.56,16.56,0,0,1,7.87-1.63,57.42,57.42,0,0,1,8.35.8,8.27,8.27,0,0,0,1.17.07,9.9,9.9,0,0,0,3.11-.49c1.35-.46,1.71-.74,1.77-.9h0s-.13-.49-1.48-1.24a6.37,6.37,0,0,0-3.14-.74h-.48c-1.41,0-2.8.05-4.2.05h-3.41c-1.05,0-2.1,0-3.15,0l-1.18,0c-2.72,0-3.41.07-4.4.64a4.2,4.2,0,0,0-1.51,1.44,10.69,10.69,0,0,1-1.4,1.65,12.5,12.5,0,0,1-8.38,3.25,10.14,10.14,0,0,1-3.73-.68c-1.8-.7-4.83-2.56-4.79-5.1,0-2.19,2.32-4,4.24-5.18a17.54,17.54,0,0,1,1.57-.82c.58-.27,1.08-.51,1.13-.72a1.29,1.29,0,0,0-.48-1,2.13,2.13,0,0,0-1.47-.43,12.14,12.14,0,0,0-4,1c-8.79,3.45-18.62,16.9-19.71,18.42-2.57,3.58-4.44,6.44-5.95,8.74-3.66,5.57-5.32,8.11-9.42,9.23a47.34,47.34,0,0,1-11.63,1.43h-.91l-.86,0c-.51,0-1,0-1.58,0a13.26,13.26,0,0,0-9.66,3.7c-4.88,4.49-13.06,8.86-19,12s-12.6,4.67-21.22,4.67c-4,0-8-.29-12.33-.6-10-.73-18.24-3.11-23.08-6.71a21.52,21.52,0,0,1-1.95-1.63,23,23,0,0,0-2.43-2,48.91,48.91,0,0,0-18.2-8,31,31,0,0,0-6.82-.86,33.76,33.76,0,0,0-3.46.22,36.29,36.29,0,0,1-3.69.22,31.79,31.79,0,0,1-6-.63,35.56,35.56,0,0,1-11.48-4.24,44.47,44.47,0,0,0-9.69-4.08c-3.27-.95-4.56-1-11.73-1.17-2.87-.07-6.67-.17-11.88-.37a37,37,0,0,1-13.76,5.39,29.9,29.9,0,0,1-4.63.36,28.6,28.6,0,0,1-9.84-1.73,42.32,42.32,0,0,1-9.58-5.08c-3.43.23-5.57.5-8,.81s-5.19.66-9.75,1c-6.64.54-13.41.82-20.13.82h-.7l-.3-.45c-3.1-4.73-6.33-9.21-9.6-13.33l-.63-.81.82-.61c21.24-15.89,52.5-28.82,90.4-37.4l.9-.21.27.88c4,12.81,16.64,24.57,35.5,33.11,19.21,8.71,43.74,13.51,69.08,13.51s49.87-4.8,69.08-13.5c18.85-8.55,31.46-20.31,35.49-33.12l.28-.88.9.21c37.9,8.58,69.16,21.51,90.4,37.4l.82.61-.64.81c-25.49,32.14-40.21,73.41-41.45,116.21-.06,2.3-.09,4.22-.09,6,0,2.1,0,4.31.1,6.58,0,.32,0,.63.05.94l0,.71c0,1,.08,2,.14,3v.35a204.43,204.43,0,0,0,5.58,37.41c.06.24.12.48.19.72s.12.43.17.65l.32,1.25Z" transform="translate(-69.77 -193.58)"/><path class="cls-10" d="M403.17,266.21c37.66,8.53,69,21.48,90,37.23-24.87,31.36-40.37,72.08-41.66,116.8-.06,2-.1,4-.1,6.06,0,2.21,0,4.42.11,6.61,0,.56,0,1.11.07,1.66,0,1,.08,2,.14,3,0,.12,0,.24,0,.36a205.24,205.24,0,0,0,5.61,37.59c.11.47.25.92.37,1.38H137.54c.12-.46.25-.91.37-1.38,1.07-4.36,2-8.79,2.79-13.27.07-.4.13-.8.2-1.2,14.66-2.37,24.33-3.24,30.69-3.24a33.84,33.84,0,0,1,7.85.71l.85.2c3.22.77,5,1.06,8.37,1.58a65.78,65.78,0,0,0,9.63,1.08,22.32,22.32,0,0,0,3.61-.29c1.8-.29,2.75-.64,9.22-3.16l6.46-2.52c4.48-1.76,4.87-1.93,5.66-2.23a22.79,22.79,0,0,1,8.76-1.53c1.89,0,4.06.11,7,.11,2.68,0,6-.09,10.34-.42,8.7-.66,12.58-1.62,15.41-1.62a8.75,8.75,0,0,1,4.35,1.09h0c5.38,2.78,5.53,7,12,9.48,3.55,1.35,4.11.32,11.46,1.38,8.84,1.28,10.1,3.06,15,3.36.41,0,.82,0,1.2,0,6.23,0,9.23-3.14,16.39-5.77a26.93,26.93,0,0,1,10.63-1.79c3.66,0,8.51.27,16.56.27,2,0,4.3,0,6.8-.06s10.73-.49,27.46-1.38c10.44-.56-1,0,34.19-3.36,4.93-.48,10.7-1,16.6-4.75,3.66-2.3,4.46-4,8.3-6.91a42.18,42.18,0,0,1,5.44-3.47,55.65,55.65,0,0,1-10.81-2.28,17.31,17.31,0,0,1-3.85-1.8c-.07,0-2.93-1.93-7-4.11-5.49-3-7.51-3.41-8.3-3.56a15.15,15.15,0,0,0-2.89-.28,25.72,25.72,0,0,0-5.84.89,21.85,21.85,0,0,1-4.57.48c-5.11,0-10.06-1.7-15.75-3.66-8.85-3-15.72-8.09-23.52-13.83-5.54-4.08-8.86-7.15-13.39-7.15l-.84,0c-2,.17-3.88.87-9.29,1.39-1.57.15-2.8.22-3.76.22-2.15,0-3-.36-3.55-1-1.65-1.93-.15-5.57,0-5.93a8.92,8.92,0,0,1,.82-1.47,11.39,11.39,0,0,1,3.53-3.27c5.88-3.59,6.4-8.08,23.52-23.92,9.51-8.79,14.26-13.19,18.77-15.21,8.25-3.7,10.54-1.55,21.93-5.16A88.48,88.48,0,0,0,429,337c11.91-7.78,17.87-11.67,22.46-18.48,1.57-2.32,4.37-7,9.88-9.19,3-1.17,6.26-1.36,6.23-1.58,0-.05-.2-.08-.55-.08-.95,0-3.06.16-5.94.34-8.89.55-9.92.34-12.84,1.12a20.25,20.25,0,0,0-7,3c-1.32.94-2,1.72-5.21,5.47-5.67,6.72-5.62,6.89-6.91,8-2.35,2.08-4.73,4.2-8.44,4.8a13.06,13.06,0,0,1-2.22.19,11.5,11.5,0,0,1-5.68-1.44c-4.93-2.76-5.85-8.22-6-9.22a13,13,0,0,1,2.17-9.35c1.82-2.43,4.28-3.51,8.89-5.54,2.64-1.16,3.78-1.34,6.19-2.76,3.18-1.88,2.84-2.52,4.81-3.56a15.91,15.91,0,0,1,7.41-1.51,58.36,58.36,0,0,1,8.2.78,8.39,8.39,0,0,0,1.32.09,10.68,10.68,0,0,0,3.43-.55c.83-.28,2.32-.78,2.43-1.71s-1.6-2-2-2.24a7.38,7.38,0,0,0-3.63-.86h-.52c-1.39,0-2.77,0-4.15,0h-3.42c-1.06,0-2.11,0-3.17,0-3.59.07-4.63,0-6.06.79-1.64.94-1.62,1.84-3.09,3.23a11.58,11.58,0,0,1-7.7,3,9.15,9.15,0,0,1-3.37-.61c-1.65-.64-4.18-2.24-4.15-4.15,0-2.1,3.17-4,3.75-4.35,1.65-1,2.94-1.15,3.17-2.17a2.27,2.27,0,0,0-.8-2,3.1,3.1,0,0,0-2.13-.68A13.14,13.14,0,0,0,410,287c-9.12,3.57-19.13,17.35-20.15,18.77C381.07,318,380.3,321.89,375,323.34a46.34,46.34,0,0,1-11.37,1.39h-.89c-.79,0-1.61-.05-2.46-.05a14.72,14.72,0,0,0-5.84,1,14.51,14.51,0,0,0-4.54,3c-4.74,4.36-12.83,8.68-18.78,11.85-6.73,3.6-13.57,4.56-20.74,4.56-4,0-8-.3-12.26-.6-14.89-1.09-21-5.34-22.55-6.52-1.95-1.45-1.91-1.81-4.39-3.63a49.51,49.51,0,0,0-18.58-8.17,32.36,32.36,0,0,0-7-.88c-2.65,0-4.48.44-7.15.44a31.11,31.11,0,0,1-5.84-.61c-9.9-1.89-11.11-5.43-21.08-8.3-4.77-1.38-5.63-.89-24-1.58h-.19a36.26,36.26,0,0,1-13.64,5.41,28.47,28.47,0,0,1-4.47.35,27.53,27.53,0,0,1-9.5-1.67,40.74,40.74,0,0,1-9.62-5.16c-7.19.45-8.89,1.11-18.17,1.87-7.36.6-14.07.81-20,.81h-.17c-3-4.63-6.25-9.11-9.65-13.4,21.06-15.75,52.35-28.7,90-37.23,8.45,26.85,52.47,47.31,105.53,47.31s97.07-20.46,105.53-47.31m-1.36-2.36-.55,1.76c-3.95,12.53-16.36,24.08-35,32.51-19.08,8.64-43.46,13.41-68.66,13.41s-49.59-4.77-68.67-13.41c-18.59-8.43-31-20-35-32.51l-.55-1.76-1.79.41c-38,8.62-69.43,21.61-90.78,37.58l-1.65,1.23,1.28,1.61c3.25,4.09,6.46,8.55,9.55,13.25l.59.9h1.25c6.74,0,13.54-.28,20.2-.82,4.58-.37,7.35-.72,9.79-1s4.43-.56,7.63-.78a43.1,43.1,0,0,0,9.53,5A29.53,29.53,0,0,0,169.24,323a30.51,30.51,0,0,0,4.78-.38,37.72,37.72,0,0,0,13.88-5.36c5.07.19,8.83.29,11.59.36,7,.19,8.32.22,11.48,1.13a43.4,43.4,0,0,1,9.49,4,36,36,0,0,0,11.77,4.34,32.8,32.8,0,0,0,6.21.65,37.83,37.83,0,0,0,3.79-.23,32.22,32.22,0,0,1,3.36-.21,30.9,30.9,0,0,1,6.6.83A48.1,48.1,0,0,1,270,336a22.44,22.44,0,0,1,2.34,1.93,24.09,24.09,0,0,0,2,1.69c3.54,2.63,10.5,6,23.61,6.91,4.3.31,8.35.6,12.4.6,8.79,0,15.48-1.47,21.68-4.78,6-3.22,14.26-7.61,19.19-12.15l.05,0a13,13,0,0,1,3.9-2.54,12.81,12.81,0,0,1,5.08-.89c.53,0,1.05,0,1.55,0l.87,0h.93a48.15,48.15,0,0,0,11.89-1.46c4.47-1.22,6.2-3.86,10-9.65,1.51-2.29,3.38-5.15,5.93-8.7,1.08-1.5,10.75-14.74,19.26-18.08a11.35,11.35,0,0,1,3.66-.94,1.72,1.72,0,0,1,.7.11l-.31.15a15.89,15.89,0,0,0-1.66.86c-2.13,1.29-4.68,3.38-4.72,6-.05,2.88,2.89,5.05,5.42,6a11.14,11.14,0,0,0,4.1.75,13.82,13.82,0,0,0,4-.61,25.24,25.24,0,0,1-2.46,1c-.68.27-1.45.56-2.4,1-4.71,2.08-7.55,3.33-9.69,6.17a15.09,15.09,0,0,0-2.55,10.84c.25,1.73,1.5,7.6,7,10.68a13.51,13.51,0,0,0,6.66,1.69,16.87,16.87,0,0,0,2.55-.21c4.28-.7,7-3.14,9.43-5.29a25,25,0,0,0,3-3.27c.88-1.07,2.16-2.62,4.15-5,3.14-3.72,3.73-4.35,4.83-5.13a18.44,18.44,0,0,1,6.41-2.73,26.86,26.86,0,0,1,6.41-.72l.62,0a28.15,28.15,0,0,0-5.62,6.55l-.35.54c-4.37,6.48-10.23,10.3-21.9,17.92a86.62,86.62,0,0,1-22.12,11,55.5,55.5,0,0,1-11.34,2.41,32.46,32.46,0,0,0-10.8,2.82c-4.81,2.16-9.65,6.65-19.31,15.58a176.57,176.57,0,0,0-16.74,17.43c-2.58,3.06-4,4.74-6.46,6.24a13.06,13.06,0,0,0-4.14,3.86,10.71,10.71,0,0,0-1,1.81c-.5,1.19-2,5.31.33,8,1.28,1.5,3.19,1.71,5.06,1.71,1,0,2.32-.08,4-.23a69.53,69.53,0,0,0,6.94-1,19.26,19.26,0,0,1,2.31-.37l.68,0c3.21,0,5.89,2,9.93,5.06l2.28,1.7c8,5.89,14.92,11,24.05,14.11,5.88,2,11,3.77,16.4,3.77a23.11,23.11,0,0,0,5-.53c.28-.05.57-.12.88-.19a18.91,18.91,0,0,1,4.54-.65,13.34,13.34,0,0,1,2.51.24,33.13,33.13,0,0,1,7.73,3.36c3.92,2.11,6.72,3.94,6.83,4a19.43,19.43,0,0,0,4.3,2,44.09,44.09,0,0,0,5.84,1.52l-1,.76a42.16,42.16,0,0,0-4,3.45,24.12,24.12,0,0,1-4.16,3.36c-5.49,3.47-10.9,4-15.68,4.44-18.89,1.81-24.39,2.49-27,2.82-2.25.27-2.33.29-7.12.54h-.07c-16.64.89-25,1.34-27.33,1.38s-4.58.06-6.76.06c-4.78,0-8.44-.09-11.37-.17-2-.06-3.69-.1-5.19-.1a28.62,28.62,0,0,0-11.32,1.92,63.46,63.46,0,0,0-6.51,2.88c-3.26,1.6-5.61,2.76-9.19,2.76l-1.08,0a19.68,19.68,0,0,1-5.26-1.13,53.75,53.75,0,0,0-9.6-2.22,54.81,54.81,0,0,0-6.95-.59,9.88,9.88,0,0,1-4.08-.68,13.89,13.89,0,0,1-6.11-4.58,18.69,18.69,0,0,0-5.68-4.78h0l-.07,0a10.62,10.62,0,0,0-5.25-1.31,40.89,40.89,0,0,0-5.25.51c-2.41.33-5.7.77-10.31,1.12-3.63.27-7,.41-10.19.41-1.6,0-3,0-4.21-.06-1,0-1.92-.05-2.78-.05a24.65,24.65,0,0,0-9.44,1.66c-.47.17-.8.3-1.88.73l-3.83,1.51-6.45,2.52c-6.34,2.47-7.21,2.79-8.81,3.05a20.48,20.48,0,0,1-3.3.26,62.15,62.15,0,0,1-9.32-1.06c-3.24-.5-5-.78-8.22-1.54l-.15,0-.68-.16a35.73,35.73,0,0,0-8.33-.77c-7.15,0-17.58,1.1-31,3.27l-1.41.23-.24,1.41-.08.49-.12.69c-.81,4.56-1.73,9-2.76,13.15l-.18.68c-.07.22-.13.45-.19.68l-.63,2.49H460.3l-.63-2.49-.18-.68c-.06-.23-.13-.45-.18-.68a202.73,202.73,0,0,1-5.55-37.23v-.35c-.05-1-.09-2-.13-3,0-.25,0-.5,0-.74s0-.6,0-.9c-.07-2.24-.1-4.45-.1-6.55,0-1.8,0-3.71.09-6,1.23-42.58,15.87-83.64,41.23-115.62l1.28-1.61-1.64-1.23c-21.35-16-52.74-29-90.78-37.58l-1.8-.41Zm39.54,31c1.15,0,2.68,0,4.2-.05H446a5.38,5.38,0,0,1,2.66.62l.29.17-.42.14a8.78,8.78,0,0,1-2.79.44,7.94,7.94,0,0,1-1-.06,58.67,58.67,0,0,0-8.49-.81,18.08,18.08,0,0,0-7.93,1.54l.19-.27a3.15,3.15,0,0,1,1.19-1.16c.79-.45,1.36-.48,3.93-.51l1.18,0c1,0,2.09,0,3.13,0h3.42Z" transform="translate(-69.77 -193.58)"/><path class="cls-9" d="M223.83,403.19c-9.84-.1-15.77-.17-19.25-.22a40.36,40.36,0,0,1-4.76-.19h-.63c-4.1,0-7.34,0-11.49-1.64-2-.79-5.76-2.26-6-5s2.92-4.5,6.21-6.47a43.71,43.71,0,0,1,18.05-5.5,10.72,10.72,0,0,0,3.11-.52c1.88-.6,4.39-4.39,8.55-10.66,1-1.45,2-3,3.18-4.76.93-1.38,2.46-3.66,4.92-3.79H226c2.65,0,4.66,2.52,5.62,4,1.66,2.61,1.68,5,1.73,9.68v.53c.07,6.94-.2,8.65-.49,10.46a40.69,40.69,0,0,0-.49,6.76,7.5,7.5,0,0,1-1.42,5c-1.77,2.09-4.66,2.33-6.68,2.33Z" transform="translate(-69.77 -193.58)"/><path class="cls-10" d="M226,365.43c2.5,0,4.45,3.06,4.77,3.56,1.57,2.45,1.54,4.66,1.59,9.68.12,12.33-.85,8-1,17.2a6.49,6.49,0,0,1-1.19,4.34c-1.54,1.83-4.21,2-5.91,2h-.41c-37.63-.37-18.15-.34-22.33-.4-5.33-.06-8.76.26-13.44-1.58-1.9-.74-5.18-2.07-5.34-4.15s2.76-3.76,5.73-5.53a35.26,35.26,0,0,1,8.9-3.75c8.62-2.39,8.56-1.06,12-2.18,2.7-.86,5.75-6.16,12.25-15.81.84-1.23,2.18-3.25,4.15-3.36H226m0-2h-.28c-2.95.16-4.72,2.8-5.68,4.21l-3.19,4.78c-3.76,5.67-6.48,9.77-8,10.27a9.58,9.58,0,0,1-2.85.47,44.84,44.84,0,0,0-18.51,5.64c-3.41,2-6.94,4.14-6.7,7.4s4.38,5,6.6,5.86c4.32,1.7,7.64,1.7,11.84,1.71h.53a6.46,6.46,0,0,0,1.29.13l3.57.06c3.85.06,10.32.13,19.25.22h.43c2.22,0,5.41-.28,7.44-2.69a8.29,8.29,0,0,0,1.65-5.54v-.06a39.46,39.46,0,0,1,.48-6.63c.3-1.85.57-3.59.5-10.62v-.53c-.05-4.74-.07-7.36-1.89-10.21-1.07-1.67-3.33-4.48-6.46-4.48Z" transform="translate(-69.77 -193.58)"/><path class="cls-9" d="M273.55,404.36a12.3,12.3,0,0,1-6.14-1.5,13.42,13.42,0,0,1-1.48-1c-.65-.49-1.55-1.16-3.41-2.37-3-1.94-5-3.22-6.14-3.22h-.2c-1.93.26-3.9,2.33-5.63,4.15-.27.28-.51.55-.73.79-.85.94-1.46,1.62-2.32,1.62a1.48,1.48,0,0,1-.46-.08c-1-.34-1.14-1.41-1.27-2.89-.05-.52-.1-1.14-.2-1.88a25.43,25.43,0,0,0-1.51-6.17,8.33,8.33,0,0,0-1.33-2.28,4.33,4.33,0,0,1-1-1.92c-.87-3.67,1.83-8.58,5.77-10.52a6.33,6.33,0,0,1,2.88-.7,13.78,13.78,0,0,1,2.22.24,23.45,23.45,0,0,0,4.13.38l.86,0c.44,0,10.94-.44,13-5.41.15-.34.15-.4.13-1.61,0-.58,0-1.39,0-2.56.05-6.87.08-10.66,1.73-13.36a11.47,11.47,0,0,1,7.27-5.1,10.18,10.18,0,0,1,2-.2c5.18,0,9.91,3.9,12.3,7.77,1.53,2.47,1.59,4.27,2,16,.48,12.93.49,14.43-.57,17.1a23.51,23.51,0,0,1-9.91,11.27C285.35,401,279.51,404.36,273.55,404.36Z" transform="translate(-69.77 -193.58)"/><path class="cls-10" d="M281.75,349.74c4.82,0,9.27,3.76,11.45,7.29,1.35,2.18,1.44,3.64,1.88,15.52.47,12.83.48,14.24-.5,16.7A22.34,22.34,0,0,1,285.1,400c-.4.23-5.94,3.34-11.55,3.34a11.19,11.19,0,0,1-5.64-1.37c-1.19-.68-1.49-1.18-4.85-3.36s-5.25-3.38-6.68-3.38l-.33,0c-2.28.31-4.38,2.52-6.23,4.45-1.1,1.16-1.76,2.1-2.32,2.1l-.15,0c-.6-.19-.46-1.44-.79-4a25.85,25.85,0,0,0-1.58-6.42c-1.13-2.74-1.9-2.47-2.27-4.05-.77-3.28,1.77-7.68,5.24-9.39a5.26,5.26,0,0,1,2.44-.6c1.56,0,3.18.62,6.35.62l.89,0c.9,0,11.61-.52,13.93-6,.34-.8.17-.93.2-4.54.05-6.92.11-10.43,1.58-12.85a10.45,10.45,0,0,1,6.62-4.64,9.13,9.13,0,0,1,1.79-.18m0-2a11.35,11.35,0,0,0-2.18.22,12.52,12.52,0,0,0-7.93,5.56c-1.8,2.94-1.83,6.82-1.88,13.87,0,1.18,0,2,0,2.59s0,1,0,1.08a1,1,0,0,1,0,.12c-1.48,3.51-8.6,4.68-12.16,4.8l-.82,0a21.86,21.86,0,0,1-4-.37,14.91,14.91,0,0,0-2.38-.25,7.29,7.29,0,0,0-3.32.81c-4.4,2.16-7.28,7.49-6.3,11.64a5.21,5.21,0,0,0,1.19,2.32,7.15,7.15,0,0,1,1.18,2,24.15,24.15,0,0,1,1.44,5.92c.1.71.15,1.31.2,1.84.14,1.57.28,3.2,1.95,3.75a2.54,2.54,0,0,0,.77.13c1.31,0,2.12-.91,3.06-1.95.21-.24.45-.5.71-.77,1.54-1.62,3.46-3.63,5-3.85h.06c.87,0,3.06,1.42,5.6,3.06,1.83,1.18,2.71,1.85,3.34,2.33a12.81,12.81,0,0,0,1.6,1.09,13.24,13.24,0,0,0,6.63,1.63c6.12,0,11.91-3.24,12.55-3.61A24.11,24.11,0,0,0,296.44,390c1.14-2.86,1.12-4.39.64-17.51-.45-12-.52-13.79-2.18-16.49-2.53-4.1-7.58-8.24-13.15-8.24Z" transform="translate(-69.77 -193.58)"/><path class="cls-9" d="M307,394.8h-.3c-1.72-.17-2.77-1.65-3.78-3.09s-2.75-3.9-2-6.93,3.56-4.58,4.76-5.2a7.49,7.49,0,0,1,3.34-1.14,3.4,3.4,0,0,1,1.11.19c3,1,3.58,5.89,3,8.83-.66,3.55-3.28,7.35-6.11,7.35Z" transform="translate(-69.77 -193.58)"/><path class="cls-10" d="M309,379.43a2.32,2.32,0,0,1,.78.13c2.23.78,2.92,4.82,2.37,7.71-.57,3.05-2.85,6.53-5.13,6.53h-.2c-1.27-.12-2.11-1.32-3.07-2.67s-2.49-3.53-1.87-6.12,3.08-3.94,4.25-4.55a6.69,6.69,0,0,1,2.87-1m0-2a8.42,8.42,0,0,0-3.8,1.24c-1.32.69-4.43,2.31-5.27,5.86s1.14,6.24,2.19,7.73,2.33,3.3,4.51,3.51l.39,0c3.43,0,6.36-4.24,7.1-8.16.64-3.38-.08-8.71-3.68-10a4.62,4.62,0,0,0-1.44-.23Z" transform="translate(-69.77 -193.58)"/><path class="cls-9" d="M323.58,397.4c-1.38,0-2.62-1.52-5.07-4.56-2.74-3.39-4.39-5.44-3.74-7.72a5,5,0,0,1,4.44-3.5h.11c2.42.07,4.33,2.51,5.67,7.24.58,2,1.56,7.53-.81,8.42a1.51,1.51,0,0,1-.59.11Z" transform="translate(-69.77 -193.58)"/><path class="cls-10" d="M319.21,382.62h.08c2.91.09,4.37,5.21,4.74,6.52.79,2.77,1,6.74-.2,7.21a.67.67,0,0,1-.24,0c-.92,0-2.24-1.64-4.3-4.19-2.71-3.36-4.06-5.07-3.56-6.82a4,4,0,0,1,3.48-2.77m0-2a5.93,5.93,0,0,0-5.4,4.21c-.79,2.78,1,5,3.92,8.62,2.66,3.29,4,4.94,5.86,4.94a2.84,2.84,0,0,0,1-.17c3.64-1.37,1.65-8.79,1.41-9.63-1.47-5.2-3.7-7.88-6.6-8Z" transform="translate(-69.77 -193.58)"/><path class="cls-9" d="M316,405.76a3.16,3.16,0,0,1-2.25-1.25,11.12,11.12,0,0,0-2.46-2,17.39,17.39,0,0,0-1.54-.81c-.82-.39-1.6-.76-1.79-1.73-.36-1.87,1.94-3.55,3.47-4.18a4.78,4.78,0,0,1,2-.31,32.74,32.74,0,0,1,4.49.44c3.72.57,4.77,1,5.14,2.05s-.37,2.17-1.45,3.52c-2,2.45-3.37,4.23-5.4,4.23Z" transform="translate(-69.77 -193.58)"/><path class="cls-10" d="M313.37,396.52a31.36,31.36,0,0,1,4.34.43c3.69.56,4.19.94,4.34,1.39.23.65-.32,1.36-1.28,2.56-1.81,2.28-3.07,3.86-4.62,3.86H316c-1.39-.07-1.35-1.33-4.25-3.06-1.81-1.09-2.72-1.13-2.87-1.88-.21-1.08,1.39-2.46,2.87-3.07a4,4,0,0,1,1.59-.23m0-2a5.9,5.9,0,0,0-2.35.38c-1.9.78-4.55,2.83-4.07,5.3a3.49,3.49,0,0,0,2.34,2.44,15.51,15.51,0,0,1,1.46.77,10,10,0,0,1,2.25,1.8,4.12,4.12,0,0,0,2.92,1.54h.23c2.51,0,4.13-2,6.18-4.61,1.13-1.42,2.2-2.76,1.61-4.46S321.6,395.52,318,395a32,32,0,0,0-4.64-.46Z" transform="translate(-69.77 -193.58)"/><path class="cls-11" d="M111.41,532.64l1.86-3a192.87,192.87,0,0,0,22.33-53.2l.39-1.51h323.3l.38,1.51A192.9,192.9,0,0,0,482,529.6l1.86,3Z" transform="translate(-69.77 -193.58)"/><path class="cls-5" d="M457.74,476.89a195,195,0,0,0,22.56,53.75H115a195,195,0,0,0,22.57-53.75h320.2m3.1-4H134.43l-.76,3a190.77,190.77,0,0,1-22.11,52.66l-3.72,6.08H487.43l-3.72-6.08a191.05,191.05,0,0,1-22.1-52.66l-.77-3Z" transform="translate(-69.77 -193.58)"/><text class="cls-12" transform="translate(74.24 325.35) scale(0.9 1)"><tspan class="cls-13">U</tspan><tspan x="29.73" y="0">.</tspan><tspan class="cls-14" x="39.66" y="0">D</tspan><tspan x="69.97" y="0">.</tspan><tspan class="cls-15" x="79.89" y="0">V</tspan><tspan x="104.01" y="0">. F</tspan><tspan class="cls-16" x="147.46" y="0">R</tspan><tspan x="173.4" y="0">ONTE</tspan><tspan class="cls-17" x="285.42" y="0">R</tspan><tspan x="311.46" y="0">A</tspan></text><path class="cls-18" d="M260.92,266.21V298.9h16.56v-10a8,8,0,1,1,16,0v10h16.55V266.21Z" transform="translate(-69.77 -193.58)"/><path class="cls-18" d="M333.38,239.22l-23.32,27V298.9l8.49-8.82V273.93c0-5.84,1.85-10,4-10.58,1.54-.42,4-2.19,4,3.65v14.84l6.9-7.18Z" transform="translate(-69.77 -193.58)"/><path class="cls-18" d="M283.67,239.89h-5.13V261h10.65v-8.12a4.86,4.86,0,1,1,9.71,0V261h9.58V239.89Z" transform="translate(-69.77 -193.58)"/><path class="cls-18" d="M309,239.22l-.55.67V261l4.94-5.43V245a11.09,11.09,0,0,1,1.3-5.73A2.45,2.45,0,0,1,316,238.1c.86-.23,2.15-1.12,2.48,1.12a8.63,8.63,0,0,1,.08,1.25v9.42l4.14-4.56V222.49Z" transform="translate(-69.77 -193.58)"/><polygon class="cls-18" points="243.65 28.91 243.65 32.83 236.14 42.61 220.32 42.61 220.32 34.72 220.32 32.17 208.77 46.3 213.89 46.3 238.71 46.3 239.25 45.64 252.92 28.91 243.65 28.91"/><polygon class="cls-18" points="225.76 21.54 220.32 21.54 220.32 29.43 220.32 32.17 220.32 34.72 220.32 42.61 236.14 42.61 236.14 34.72 236.14 29.43 236.14 28.91 236.14 21.54 225.76 21.54"/><polygon class="cls-18" points="238.21 18.54 236.14 21.54 236.14 28.91 236.14 29.43 236.14 34.72 236.14 42.61 243.65 32.83 243.65 28.91 243.65 24.95 243.65 18.54 243.65 10.66 238.21 18.54"/><polygon class="cls-18" points="227.82 10.66 220.32 21.54 225.76 21.54 236.14 21.54 238.21 18.54 243.65 10.66 227.82 10.66"/><path class="cls-19" d="M294,247.78a5,5,0,0,0-4.85,5.06V261h9.71v-8.12A5,5,0,0,0,294,247.78Z" transform="translate(-69.77 -193.58)"/><polygon class="cls-20" points="252.92 45.64 252.92 51.75 248.78 56.3 243.65 61.94 238.71 67.38 229.12 67.38 219.42 67.38 208.77 67.38 208.77 52.23 191.15 72.63 240.29 72.63 263.61 45.64 252.92 45.64"/><path class="cls-19" d="M318.47,239.22c-.33-2.24-1.62-1.35-2.48-1.12a2.45,2.45,0,0,0-1.27,1.12,11.09,11.09,0,0,0-1.3,5.73v10.58l5.13-5.64v-9.42A8.63,8.63,0,0,0,318.47,239.22Z" transform="translate(-69.77 -193.58)"/><path class="cls-18" d="M301.53,197.58c-3,0-5.36,3.5-5.36,7.81h0v7.15a10.36,10.36,0,0,0,2.63.92,11.64,11.64,0,0,0,8.1-1.49v-6.58h0C306.9,201.08,304.5,197.58,301.53,197.58Z" transform="translate(-69.77 -193.58)"/><path class="cls-5" d="M301.53,197.58c2.7,0,4.91,2.9,5.29,6.66h6.6v18.25h9.27v16.73h10.69v17c68.56,4.66,126.77,22.49,159.81,47.2-24.87,31.36-40.37,72.08-41.66,116.8-.06,2-.1,4-.1,6.06a205.13,205.13,0,0,0,5.94,49.21c10.28,41.71,33.3,77.56,64.14,102.09-32.29,37.31-120.32,64.08-223.87,64.08S106.05,614.91,73.77,577.6c30.84-24.53,53.86-60.38,64.14-102.09a205.64,205.64,0,0,0,5.94-49.21c0-2,0-4.05-.1-6.06-1.29-44.72-16.79-85.44-41.66-116.8,34.33-25.68,95.82-43.92,167.86-47.68l8.59-9.94v-5.93l11.55-14.14V215.12l6.08-8.8v-.93h0c0-4.31,2.4-7.81,5.36-7.81m0-4c-5.16,0-9.23,5-9.36,11.49l-5.37,7.78a4,4,0,0,0-.71,2.27v9.2l-10.64,13a4,4,0,0,0-.9,2.53v4.44L268,251.86c-34.65,1.93-68.25,7.34-97.27,15.68s-53.65,19.66-71.08,32.7a4,4,0,0,0-.73,5.68c25.09,31.64,39.58,72.28,40.8,114.43.06,2.28.09,4.17.09,5.95A202,202,0,0,1,134,474.56c-9.89,40.11-32.17,75.6-62.75,99.92a4,4,0,0,0-.53,5.74c16.56,19.13,46.68,35.47,87.11,47.25,40.9,11.91,89.23,18.21,139.78,18.21s98.88-6.3,139.78-18.21c40.43-11.78,70.55-28.12,87.11-47.25a4,4,0,0,0-.54-5.74c-30.57-24.32-52.85-59.81-62.74-99.92a201.55,201.55,0,0,1-5.83-48.26c0-1.78,0-3.67.1-5.95,1.22-42.15,15.71-82.79,40.8-114.43a4,4,0,0,0,.83-3,4,4,0,0,0-1.57-2.68c-16.75-12.53-40.21-23.51-67.83-31.75-26.93-8-58.1-13.53-90.37-16v-13.3a4,4,0,0,0-4-4h-6.69V222.49a4,4,0,0,0-4-4h-5.27V204.24a4,4,0,0,0-4-4H310c-1.5-4-4.7-6.66-8.44-6.66Z" transform="translate(-69.77 -193.58)"/></svg>