<svg id="Capa_1" data-name="Capa 1" xmlns="http://www.w3.org/2000/svg" viewBox="0 0 371.09 507.48"><defs><style>.cls-1,.cls-9{fill:#fff;}.cls-1,.cls-10,.cls-2,.cls-3,.cls-4,.cls-5,.cls-6,.cls-7,.cls-8{fill-rule:evenodd;}.cls-2{fill:#057c6d;}.cls-3{fill:#0688c7;}.cls-3,.cls-5,.cls-8{stroke:#1d1d1b;}.cls-10,.cls-11,.cls-3,.cls-4,.cls-5,.cls-6,.cls-7,.cls-8,.cls-9{stroke-miterlimit:10;}.cls-3,.cls-4{stroke-width:5.32px;}.cls-4{fill:#9b8b74;}.cls-4,.cls-6{stroke:#1c1a19;}.cls-5{fill:#f6d61a;stroke-width:5.38px;}.cls-10,.cls-6,.cls-7{fill:#010101;}.cls-6{stroke-width:1.53px;}.cls-10,.cls-11,.cls-7,.cls-9{stroke:#010101;}.cls-7{stroke-width:1.42px;}.cls-11,.cls-8{fill:none;}.cls-8{stroke-width:7.09px;}.cls-9{stroke-linecap:round;stroke-width:7.68px;}.cls-10,.cls-11{stroke-width:3.84px;}</style></defs><g id="surface1"><path class="cls-1" d="M256.66,500.06q131.73-4.51,174.61-145.83l-.11-220.41c-54.65,25.39-115.27-1.51-174.5-55.45-69,66.8-131.57,80.78-189.35,58l1.26,212.5C90.33,443,154.64,497.05,256.66,500.06Z" transform="translate(-64.6 3.88)"/><path class="cls-2" d="M371.24,456.93c26.5-25.82,47.85-58.31,60-102.7l-.09-167.7L371.24,231.8Z" transform="translate(-64.6 3.88)"/><path class="cls-2" d="M205.62,493.62a202.92,202.92,0,0,0,83.86,2.94v-203l-83.86,63.32Z" transform="translate(-64.6 3.88)"/><path class="cls-2" d="M124.48,451.66V418.88l-18.15,13A139.55,139.55,0,0,0,124.48,451.66Z" transform="translate(-64.6 3.88)"/><path class="cls-3" d="M68.57,348.83l2.11,8.48L364.82,141.14c-39.09-8.54-74.47-32.21-108.16-62.77-62.5,62-125.61,82-189.35,58Z" transform="translate(-64.6 3.88)"/><path class="cls-4" d="M98.45,284.36l22.2,1.35q4.2,5.46,8,.48h3.78c6.37-.95,10.94-5,11.52-15.95q9.93-9,16.57-11.24l29.33-10.89c10.3-3.4,14.55-5.81,17.36-13.19l1.35-11,3.76-15.58,5.47-10.86-.08-22.31A76.07,76.07,0,0,0,199,154.29l-9.55,7.4-12.8,1.15-2.28,16.24-10.16,20.68-.69,9.68-14.18,15.18L148.23,234l-7.07,9,4.41,9.35c-8,12.34-16.4,20.53-25.5,21.36l-22.29.07C91,274.1,93.05,283.69,98.45,284.36Z" transform="translate(-64.6 3.88)"/><path class="cls-5" d="M106.33,431.85,431.18,186.53l0-52.71c-22.67,10.7-44.78,12.09-66.34,7.32L70.68,357.31C77.81,386.2,89.69,410.8,106.33,431.85Z" transform="translate(-64.6 3.88)"/><path class="cls-6" d="M293.91,213l33.14,41.43L349.42,236l-11.31-15.18,33.42-28.62-8.53-9.7-32.4,27.21-4.09-5.7L360,177.57l-9.14-10.63Z" transform="translate(-64.6 3.88)"/><path class="cls-6" d="M252.57,291.33l9.09-9.25a3.19,3.19,0,0,0,0-4.84L251.4,265.31c-1.22-1.4-2.63-1.25-4,.05l-9.77,8.45,14.88,17.52Zm-48.4-10.86,32.3,39.28,49.38-39c6.58-6.25,7-9.61,1.57-16.08l-17.15-21.41c-6.11-7.28-9.56-6.58-18,.09Z" transform="translate(-64.6 3.88)"/><path class="cls-7" d="M382.28,195.45a4.52,4.52,0,1,1-4.43,4.51A4.47,4.47,0,0,1,382.28,195.45Z" transform="translate(-64.6 3.88)"/><path class="cls-7" d="M296.89,262a4.52,4.52,0,1,1-4.42,4.52A4.47,4.47,0,0,1,296.89,262Z" transform="translate(-64.6 3.88)"/><path class="cls-7" d="M208.84,329a4.52,4.52,0,1,1-4.42,4.52A4.47,4.47,0,0,1,208.84,329Z" transform="translate(-64.6 3.88)"/><path class="cls-6" d="M143.84,381.75h9.73l48.23-37.27L202,336l-28.81-34.79-23,17.71,24.47,29.67L161.26,359.3l-25.88-31.11-20.52,18Z" transform="translate(-64.6 3.88)"/><path class="cls-8" d="M257.52,500.06q131.75-4.51,174.62-145.83L432,133.82c-54.65,25.39-115.27-1.51-174.5-55.45-69,66.8-131.57,80.78-189.35,58l1.27,212.5C91.2,443,155.51,497.05,257.52,500.06Z" transform="translate(-64.6 3.88)"/><path class="cls-1" d="M252-.06c37.29,0,67.52,28.28,67.52,63.17S289.32,126.27,252,126.27,184.51,98,184.51,63.11,214.74-.06,252-.06Z" transform="translate(-64.6 3.88)"/><path class="cls-9" d="M252.22,0c37.29,0,67.52,28.28,67.52,63.17s-30.23,63.16-67.52,63.16S184.7,98,184.7,63.13,214.93,0,252.22,0Z" transform="translate(-64.6 3.88)"/><path class="cls-10" d="M302.42,36.67c7.76,6,12.83,13.73,17.15,21.91-1.91-15.32-7.56-29.16-19.85-40.34C302.21,24.17,304.38,31.77,302.42,36.67Z" transform="translate(-64.6 3.88)"/><path class="cls-10" d="M229.48,3.64c12.89-.15,23,1,27.15,5.19q5.76-6,19-5C259.15-1.39,243.84-1.15,229.48,3.64Z" transform="translate(-64.6 3.88)"/><path class="cls-10" d="M199.19,60q4.17-13.8,16.95-22.78a42.46,42.46,0,0,1-4.67-16.61l-11,2A57.41,57.41,0,0,0,187,46.69l.52,9.8A31.44,31.44,0,0,1,199.19,60Z" transform="translate(-64.6 3.88)"/><path class="cls-10" d="M258.46,23.42a67.75,67.75,0,0,0-19.35,14.52l12.46,25.11,28.72,1a78.67,78.67,0,0,0,5.59-25.21A67.42,67.42,0,0,0,258.46,23.42Z" transform="translate(-64.6 3.88)"/><path class="cls-10" d="M209,83q-5.86,11.94,1.44,25c7.79,4.79,15.79,8.53,24.35,9.38a45.7,45.7,0,0,0,14.47-9.51c-5.84-7.56-10.37-15.12-12-22.68A129.28,129.28,0,0,1,209,83Z" transform="translate(-64.6 3.88)"/><path class="cls-10" d="M290.82,83.83a38.3,38.3,0,0,1-15.91,23.45l10.49,10.86c10.18-5.75,19.06-13.28,25.63-24l-1-12.48A27.28,27.28,0,0,1,290.82,83.83Z" transform="translate(-64.6 3.88)"/><path class="cls-11" d="M199.19,60c.06,7.68,4.05,15.36,9.84,23.05" transform="translate(-64.6 3.88)"/><path class="cls-11" d="M216.14,37.18q14.82-1.84,23,.76" transform="translate(-64.6 3.88)"/><path class="cls-11" d="M251.57,63.05c-3,4.28-8,12.09-14.24,22.33" transform="translate(-64.6 3.88)"/><path class="cls-11" d="M280.29,64.07c7.36,6.88,10,13.4,10.53,19.77" transform="translate(-64.6 3.88)"/><path class="cls-11" d="M319.57,58.58A61.17,61.17,0,0,1,310,81.69" transform="translate(-64.6 3.88)"/><path class="cls-11" d="M285.88,38.86a32,32,0,0,1,16.54-2.19" transform="translate(-64.6 3.88)"/><path class="cls-11" d="M211.47,20.57q6-10,18-16.93" transform="translate(-64.6 3.88)"/><path class="cls-11" d="M256.63,8.83a39.72,39.72,0,0,1,1.83,14.59" transform="translate(-64.6 3.88)"/><path class="cls-11" d="M210.47,108l-4.41,1.24" transform="translate(-64.6 3.88)"/><path class="cls-11" d="M234.82,117.35a19.73,19.73,0,0,1,.16,6.85" transform="translate(-64.6 3.88)"/><path class="cls-11" d="M274.91,107.28c-7.25,2.51-16.28,4.35-25.62.56" transform="translate(-64.6 3.88)"/><path class="cls-11" d="M184.8,59.66a4.62,4.62,0,0,1,2.73-3.17" transform="translate(-64.6 3.88)"/></g></svg>