<svg id="Capa_1" data-name="Capa 1" xmlns="http://www.w3.org/2000/svg" viewBox="0 0 564.08 686.11"><defs><style>.cls-1,.cls-9{fill:#010101;}.cls-2{fill:#fff;}.cls-3{fill:#dfdf49;}.cls-3,.cls-4,.cls-5,.cls-6,.cls-7,.cls-8,.cls-9{fill-rule:evenodd;}.cls-4{fill:#ce352d;}.cls-5{fill:#cd292d;}.cls-6{fill:#4ca856;}.cls-7{fill:#474798;}.cls-8{fill:#ecd239;}</style></defs><path class="cls-1" d="M39.2,77.89H562.69V301.47l-.05.38c-11,87-34.13,164.68-75.68,229.52s-101.71,117-186.51,152.33l-1.6.67-1.61-.67c-84.78-35.36-144.83-87.34-186.47-152.33C69.22,466.54,46.09,388.83,35.06,301.86l-.05-.39V77.89Z" transform="translate(-15.6 -77.89)"/><path class="cls-2" d="M554.3,86.28H43.4V301.19c10.9,85.62,33.65,162,74.42,225.66,40.47,63.17,98.79,113.8,181,148.44C381.1,640.65,439.43,590,479.91,526.85c40.77-63.62,63.51-140,74.39-225.66V86.28Z" transform="translate(-15.6 -77.89)"/><path class="cls-3" d="M423.19,414.88h88q-33.12,93.36-88,154Z" transform="translate(-15.6 -77.89)"/><path class="cls-4" d="M174.55,414.88h-88q33.12,93.36,88,154Z" transform="translate(-15.6 -77.89)"/><path class="cls-5" d="M309.93,414.88h92.39v174.9c-31.16,26.42-61.24,44.64-92.39,56.49Z" transform="translate(-15.6 -77.89)"/><path class="cls-6" d="M288.54,414.88H195.42v174.9c31.16,26.42,62,44.64,93.12,56.49Z" transform="translate(-15.6 -77.89)"/><path class="cls-7" d="M62.14,103.88H535.77v186H62.14Z" transform="translate(-15.6 -77.89)"/><path class="cls-8" d="M62.14,103.88H105.2c11.65,3.91,12.86,20.93-4.2,27.47l90.31-1.27c35.66.87,40,12.22,7.83,32.74C164.86,171,172.44,207,225.23,224c93.84,48.4,258.67,40.69,279.22,65.86H62.14Z" transform="translate(-15.6 -77.89)"/><path class="cls-9" d="M19.21,465.17l55.55,1.93-1.1,31.61-7.07-.24.82-23.75L51,474.15l-.81,23L43,496.93l.8-23L18.93,473l.28-7.86Zm54.18,48.38,2.18,7.6L44.9,529.94a34.61,34.61,0,0,0-7.09,2.63,9.84,9.84,0,0,0-3.17,2.92,15.45,15.45,0,0,0-2.56,6.8,19.74,19.74,0,0,0,.74,7.76q2,7,6.8,10.16a12.22,12.22,0,0,0,10.69,1.54L84.41,552l2.18,7.61-34.34,9.84a19,19,0,0,1-16.31-2.23C31,564,27.57,559,25.61,552.12a28,28,0,0,1-1-11.56,22.5,22.5,0,0,1,4-10.07,15.48,15.48,0,0,1,4.69-4.5,39.18,39.18,0,0,1,9.15-3.56l31-8.88ZM47.67,606.69l47.64-28.62,17.21,28.65-6.06,3.64L93.3,588.46l-14.44,8.68,12.79,21.28-6.16,3.7L72.7,600.84l-14.84,8.91,13.59,22.62-6.13,3.68L47.67,606.69Zm37.57,56,39.3-39.31,11.51,11.52q6,6,6.37,12c.29,4-1.29,7.77-4.71,11.19a14.31,14.31,0,0,1-8,4.46,15.07,15.07,0,0,1-9.13-2,10.82,10.82,0,0,1,.44,3.27,29.7,29.7,0,0,1-.72,5.21l-4.83,23.94-6.8-6.8,3.57-17.05c1.09-5.13,1.43-8.76,1-10.86a10.81,10.81,0,0,0-3.16-5.75l-1.68-1.69L90.88,668.31l-5.64-5.64ZM113.16,646l4.66,4.66c2.62,2.61,5.09,4.07,7.39,4.37s4.53-.61,6.6-2.68,3.06-4.31,2.79-6.51-1.78-4.69-4.53-7.43l-4.67-4.67L113.16,646Zm35.53,71.31,24.9-41.44-17.51-10.52,3.73-6.2L201.6,684.3l-3.73,6.2L180.37,680l-24.9,41.44-6.78-4.07Zm51.74,26.12,18.09-52.55,31.59,10.87-2.29,6.69-24.16-8.31-5.49,15.92,23.48,8.09L239.31,731l-23.48-8.08-5.63,16.37,24.94,8.59-2.33,6.76-32.38-11.14Zm82.11,20.41L262,706.32l8.28.57,14.51,40.76,20.4-38.32,8.17.57L284.6,764l-2.06-.12Zm53.64-2.55-12.51-54.15,32.56-7.52,1.6,6.9-24.9,5.75,3.79,16.41,24.19-5.59,1.62,7-24.19,5.59,3.89,16.87,25.71-5.94,1.6,7-33.36,7.7Zm65.39-19.06-23.49-50.38,6.26-2.91,51.4,23.64L417.5,673.51l7.17-3.34,23.49,50.37-6.42,3-51.3-23.72,18.26,39.13-7.13,3.33Zm85-53.29-33-35.36-14.93,13.93-4.94-5.29L469.38,629l4.93,5.28-14.93,13.93,33,35.36L486.56,689Zm-7-72.73,4.31-6.64L510.61,627a33.64,33.64,0,0,0,6.64,3.62,9.78,9.78,0,0,0,4.28.49,15.49,15.49,0,0,0,6.81-2.53,19.65,19.65,0,0,0,5.38-5.66q3.93-6.06,3.21-11.79a12.27,12.27,0,0,0-5.86-9.07l-29.76-19.33,4.31-6.63,30,19.47a19,19,0,0,1,9,13.76Q545.83,618,540,627a27.77,27.77,0,0,1-8.08,8.33A22.59,22.59,0,0,1,521.74,639a15.57,15.57,0,0,1-6.47-.59,39.39,39.39,0,0,1-8.69-4.57l-27-17.56ZM564.73,574,511.3,558.69,515.78,543q2.33-8.09,7.4-11.39c3.38-2.2,7.42-2.63,12.07-1.3a14.39,14.39,0,0,1,7.79,4.83c1.68,2.22,2.56,5.23,2.64,9a10.89,10.89,0,0,1,2.64-2,28,28,0,0,1,4.91-1.9l23.28-7.38-2.66,9.24-16.64,5.15c-5,1.53-8.36,3-10,4.34a10.84,10.84,0,0,0-3.49,5.55l-.66,2.29,23.87,6.85L564.73,574Zm-28.08-16.35,1.82-6.35c1-3.55,1.09-6.42.24-8.58s-2.72-3.66-5.55-4.47-5.25-.6-7,.71-3.24,3.83-4.3,7.57L520,552.88l16.66,4.78Zm18.67-62.51.3-17.31-20.16,8.43,19.86,8.88Zm23.19,18.74-55.15-25.05.11-5.8,56-23.42-.15,8.23-16.49,6.86-.41,23.67,16.24,7.36-.15,8.15Z" transform="translate(-15.6 -77.89)"/><path class="cls-1" d="M19.79,287.39H579.68V420H15.6V287.39Z" transform="translate(-15.6 -77.89)"/><path class="cls-2" d="M571.29,295.78H24V411.63h547.3V295.78Z" transform="translate(-15.6 -77.89)"/><path class="cls-9" d="M103.88,326.62v32.64q0,12-7.12,18.68t-19.86,6.7q-12.72,0-19.82-6.7T50,359.26V326.62H64.31V358.7q0,6.8,3.25,10.39c2.17,2.41,5.34,3.62,9.46,3.62s7.23-1.2,9.37-3.58,3.22-5.88,3.22-10.43V326.62Zm9.33,50.49a7.11,7.11,0,0,1,2.12-5.16,6.92,6.92,0,0,1,5.17-2.17,7.07,7.07,0,0,1,5.21,2.11,7.14,7.14,0,0,1,2.13,5.23,7,7,0,0,1-2.16,5.13,7.41,7.41,0,0,1-10.36,0,6.91,6.91,0,0,1-2.11-5.15Zm38.46-39v33.93h10.64a15.79,15.79,0,0,0,11.84-4.73,18.63,18.63,0,0,0,0-24.47,15.79,15.79,0,0,0-11.84-4.73Zm-14.26,45.47v-57h21.38q9.18,0,14.23,1.38a27.42,27.42,0,0,1,9.29,4.57,27.14,27.14,0,0,1,8.27,9.84,29.81,29.81,0,0,1-.6,26.52,28.77,28.77,0,0,1-9.91,10.37,25.38,25.38,0,0,1-8.1,3.32,64.36,64.36,0,0,1-13.18,1Zm62.92-6.51a7.11,7.11,0,0,1,2.12-5.16,6.92,6.92,0,0,1,5.17-2.17,7.22,7.22,0,0,1,7.34,7.34,7,7,0,0,1-2.16,5.13,7.41,7.41,0,0,1-10.36,0,6.93,6.93,0,0,1-2.11-5.15Zm68.09-26.86c2.69,0,4.69-.54,6-1.6a6,6,0,0,0,2-4.91,5.91,5.91,0,0,0-2-4.82,8.91,8.91,0,0,0-5.83-1.71h-6.85v13.05h6.77Zm-21.11,33.38v-57h21q11.57,0,17.13,4.19T291,343.65q0,8.88-6,13.28t-17.89,4.4h-5.54v22.29H247.31Zm64.22-20.87h16.83l-8-21.68-8.84,21.68Zm-23.89,20.87,24.86-57H329l22.21,57H336.06L332,372.55H307.41l-4.57,11.08ZM347.26,389c3.5-.11,5.86-.86,7.05-2.2s1.8-4.35,1.8-9V326.62h14.26v51.67q0,12-4,16.78c-2.69,3.21-7.38,4.91-14,5.1L347.26,389Zm51.31-26.21H415.4l-8-21.68Zm-23.89,20.87,24.87-57H416l22.22,57H423.09L419,372.55H394.44l-4.56,11.08ZM463.61,350c2.62,0,4.6-.55,5.88-1.64a6.26,6.26,0,0,0,1.94-5,6.07,6.07,0,0,0-2-4.91,8.86,8.86,0,0,0-5.81-1.69h-6.85V350Zm-21.15,33.63v-57h21.06q11.6,0,17.16,4c3.69,2.68,5.55,6.87,5.55,12.51a13.45,13.45,0,0,1-2.44,8.09,18.81,18.81,0,0,1-7.51,5.68,10,10,0,0,1,3.81,2.59,16.88,16.88,0,0,1,3,4.59l9.1,19.51H476l-7.25-16.41a12.14,12.14,0,0,0-4-5.38,11.71,11.71,0,0,0-6.36-1.47l-.86,0c-.34,0-.62.05-.81.05v23.19Zm70.78-20.87h16.83l-8-21.68Zm-23.89,20.87,24.86-57h16.46l22.21,57H537.76l-4.08-11.08H509.12l-4.57,11.08Z" transform="translate(-15.6 -77.89)"/></svg>