<svg id="Capa_1" data-name="Capa 1" xmlns="http://www.w3.org/2000/svg" viewBox="0 0 410.98 499.89"><defs><style>.cls-1,.cls-9{fill:#010101;}.cls-2{fill:#fff;}.cls-3{fill:#dfdf49;}.cls-3,.cls-4,.cls-5,.cls-6,.cls-7,.cls-8,.cls-9{fill-rule:evenodd;}.cls-4{fill:#ce352d;}.cls-5{fill:#cd292d;}.cls-6{fill:#4ca856;}.cls-7{fill:#474798;}.cls-8{fill:#ecd239;}</style></defs><path class="cls-1" d="M61.43.06H442.84V163l0,.28c-8,63.37-24.87,120-55.14,167.23s-74.1,85.22-135.88,111l-1.17.49-1.18-.49c-61.76-25.76-105.52-63.63-135.86-111S66.45,226.6,58.41,163.23l0-.28V.06Z" transform="translate(-44.23 -0.06)"/><path class="cls-2" d="M436.73,6.17H64.49V162.75C72.43,225.13,89,280.81,118.71,327.16c29.49,46,72,82.92,131.9,108.15C310.53,410.08,353,373.18,382.52,327.16c29.71-46.35,46.28-102,54.21-164.41V6.17Z" transform="translate(-44.23 -0.06)"/><path class="cls-3" d="M341.2,245.58h64.13q-24.12,68-64.13,112.17Z" transform="translate(-44.23 -0.06)"/><path class="cls-4" d="M160,245.58H95.91Q120,313.61,160,357.75Z" transform="translate(-44.23 -0.06)"/><path class="cls-5" d="M258.68,245.58H326V373c-22.71,19.25-44.63,32.52-67.32,41.16Z" transform="translate(-44.23 -0.06)"/><path class="cls-6" d="M243.09,245.58H175.25V373c22.7,19.25,45.15,32.52,67.84,41.16Z" transform="translate(-44.23 -0.06)"/><path class="cls-7" d="M78.15,19H423.22V154.5H78.15Z" transform="translate(-44.23 -0.06)"/><path class="cls-8" d="M78.15,19h31.37c8.48,2.85,9.36,15.25-3.06,20l65.8-.93c26,.64,29.15,8.9,5.7,23.85-25,6-19.45,32.22,19,44.6,68.37,35.26,188.46,29.64,203.44,48H78.15Z" transform="translate(-44.23 -0.06)"/><path class="cls-9" d="M46.87,282.22l40.47,1.41-.81,23-5.15-.18.61-17.3-12-.42-.59,16.78-5.21-.18.59-16.77L46.66,288l.21-5.73Zm39.47,35.25L87.93,323l-22.35,6.4a24.39,24.39,0,0,0-5.16,1.92,7.24,7.24,0,0,0-2.32,2.12,11.35,11.35,0,0,0-1.86,5,14.41,14.41,0,0,0,.54,5.66,12.69,12.69,0,0,0,4.95,7.4,9,9,0,0,0,7.79,1.12l24.85-7.13L96,351l-25,7.17a13.84,13.84,0,0,1-11.88-1.62q-5.37-3.49-7.53-11a20.22,20.22,0,0,1-.72-8.43,16.48,16.48,0,0,1,2.88-7.34,11.23,11.23,0,0,1,3.42-3.27,28.81,28.81,0,0,1,6.67-2.6l22.56-6.47ZM67.6,385.33l34.71-20.85,12.54,20.87L110.44,388l-9.59-15.95-10.52,6.32,9.32,15.51-4.49,2.69-9.32-15.5L75,387.56,84.93,404l-4.47,2.68L67.6,385.33ZM95,426.12l28.64-28.64,8.38,8.39c2.9,2.89,4.44,5.81,4.65,8.74s-.95,5.66-3.44,8.15a10.42,10.42,0,0,1-5.83,3.25,11,11,0,0,1-6.65-1.49,8.35,8.35,0,0,1,.32,2.38,21.27,21.27,0,0,1-.53,3.8L117,448.14,112,443.19l2.6-12.43c.79-3.73,1-6.38.76-7.91a7.81,7.81,0,0,0-2.3-4.19l-1.23-1.22L99.08,430.23,95,426.12ZM115.31,414l3.4,3.39c1.91,1.91,3.71,3,5.39,3.19a5.67,5.67,0,0,0,4.8-2c1.55-1.55,2.24-3.14,2-4.73s-1.3-3.42-3.3-5.42l-3.4-3.4L115.31,414ZM141.2,466l18.14-30.19-12.75-7.66,2.71-4.52,30.45,18.29L177,446.39l-12.76-7.66-18.14,30.19-4.94-3Zm37.7,19,13.18-38.29,23,7.92-1.68,4.87-17.6-6.05-4,11.6,17.1,5.89-1.7,4.95L190.12,470,186,481.92l18.17,6.26-1.7,4.92L178.9,485Zm59.82,14.86-14.94-41.93,6,.41L240.39,488l14.86-27.91,5.95.41-21,39.41-1.51-.09ZM277.8,498l-9.11-39.45,23.73-5.48,1.16,5-18.14,4.19,2.76,12,17.63-4.07,1.17,5.11-17.62,4.07,2.84,12.29,18.72-4.33,1.17,5.08L277.8,498Zm47.65-13.89-17.11-36.7,4.55-2.13,37.45,17.23L337.05,434l5.22-2.44,17.12,36.7-4.67,2.18-37.38-17.29,13.3,28.52-5.19,2.42Zm61.92-38.82-24-25.76-10.88,10.14-3.6-3.85,26-24.22,3.6,3.85L367.56,415.6l24,25.76-4.22,3.93Zm-5.11-53,3.14-4.83,19.5,12.67a24.7,24.7,0,0,0,4.83,2.64,7.17,7.17,0,0,0,3.12.35,11.24,11.24,0,0,0,5-1.84,14.24,14.24,0,0,0,3.92-4.12,12.72,12.72,0,0,0,2.34-8.59A9,9,0,0,0,419.8,382l-21.68-14.08,3.14-4.83,21.83,14.18a13.86,13.86,0,0,1,6.57,10q.88,6.35-3.35,12.89a20.22,20.22,0,0,1-5.88,6.07,16.5,16.5,0,0,1-7.42,2.64,11.24,11.24,0,0,1-4.72-.43,28.92,28.92,0,0,1-6.33-3.33l-19.7-12.8Zm62.06-30.77-38.93-11.16,3.27-11.4q1.69-5.9,5.39-8.3c2.46-1.6,5.41-1.92,8.8-1a10.48,10.48,0,0,1,5.67,3.52,11.07,11.07,0,0,1,1.92,6.55,8.17,8.17,0,0,1,1.93-1.44A21.41,21.41,0,0,1,436,337l16.95-5.38L451,338.32l-12.12,3.75c-3.66,1.11-6.09,2.18-7.3,3.16a7.88,7.88,0,0,0-2.54,4l-.48,1.66,17.39,5-1.6,5.59Zm-20.46-11.91,1.33-4.63c.74-2.58.79-4.68.17-6.25a5.68,5.68,0,0,0-4-3.26q-3.18-.9-5.14.52c-1.3,1-2.35,2.79-3.13,5.51l-1.33,4.63,12.13,3.48Zm13.61-45.55.22-12.61L423,297.6l14.47,6.46Zm16.9,13.66-40.19-18.25.08-4.23,40.8-17.06-.11,6-12,5-.3,17.25,11.83,5.36-.1,5.94Z" transform="translate(-44.23 -0.06)"/><path class="cls-1" d="M47.29,152.7H455.22v96.63h-411V152.7Z" transform="translate(-44.23 -0.06)"/><path class="cls-2" d="M449.1,158.81H50.35v84.4H449.1v-84.4Z" transform="translate(-44.23 -0.06)"/><path class="cls-9" d="M108.55,181.27v23.79q0,8.72-5.18,13.61T88.9,223.55q-9.27,0-14.44-4.88t-5.19-13.61V181.27H79.72v23.38c0,3.3.8,5.83,2.37,7.57S86,214.85,89,214.85s5.27-.86,6.84-2.6,2.34-4.29,2.34-7.6V181.27Zm6.8,36.79a5.18,5.18,0,0,1,1.55-3.76,5.07,5.07,0,0,1,3.76-1.58,5.28,5.28,0,0,1,5.35,5.35,5.08,5.08,0,0,1-1.57,3.74,5.42,5.42,0,0,1-7.55,0,5.12,5.12,0,0,1-1.54-3.76Zm28-28.38V214.4h7.74a11.48,11.48,0,0,0,8.63-3.45,13.57,13.57,0,0,0,0-17.83,11.51,11.51,0,0,0-8.63-3.44ZM133,222.81V181.27h15.57a41.35,41.35,0,0,1,10.37,1,20.56,20.56,0,0,1,12.8,10.5,20.72,20.72,0,0,1-7.67,26.88,18.57,18.57,0,0,1-5.9,2.42,47.39,47.39,0,0,1-9.6.73Zm45.84-4.75a5.17,5.17,0,0,1,1.54-3.76,5.11,5.11,0,0,1,3.77-1.58,5.28,5.28,0,0,1,5.35,5.35,5.06,5.06,0,0,1-1.58,3.74,5.41,5.41,0,0,1-7.54,0,5.06,5.06,0,0,1-1.54-3.76Zm49.61-19.56a6.84,6.84,0,0,0,4.36-1.17,4.37,4.37,0,0,0,1.43-3.58,4.29,4.29,0,0,0-1.49-3.51,6.45,6.45,0,0,0-4.25-1.24h-5v9.5Zm-15.39,24.31V181.27h15.32q8.43,0,12.48,3.06c2.71,2,4.06,5.17,4.06,9.35s-1.44,7.55-4.33,9.68-7.24,3.21-13,3.21h-4v16.24Zm46.79-15.2h12.27l-5.83-15.8-6.44,15.8Zm-17.4,15.2,18.12-41.54h12l16.18,41.54h-11l-3-8.07h-17.9l-3.32,8.07Zm43.44,3.89c2.55-.08,4.27-.62,5.14-1.6s1.31-3.17,1.31-6.53v-37.3h10.39v37.65c0,5.81-1,9.9-2.94,12.23s-5.38,3.58-10.21,3.71l-3.69-8.16Zm37.38-19.09h12.26l-5.82-15.8Zm-17.4,15.2L324,181.27h12l16.19,41.54h-11l-3-8.07h-17.9l-3.33,8.07Zm64.79-24.5a6.52,6.52,0,0,0,4.29-1.2,4.54,4.54,0,0,0,1.41-3.66,4.4,4.4,0,0,0-1.47-3.58,6.46,6.46,0,0,0-4.23-1.23h-5v9.67Zm-15.41,24.5V181.27h15.34q8.46,0,12.5,2.94c2.7,2,4.05,5,4.05,9.12a9.79,9.79,0,0,1-1.78,5.89,13.58,13.58,0,0,1-5.47,4.14,7.26,7.26,0,0,1,2.78,1.89,12.25,12.25,0,0,1,2.15,3.34l6.62,14.22H379.7l-5.28-12a8.85,8.85,0,0,0-2.91-3.92,8.46,8.46,0,0,0-4.63-1.07l-.62,0-.6,0v16.9Zm51.57-15.2h12.26l-5.82-15.8Zm-17.4,15.2,18.11-41.54h12l16.18,41.54h-11l-3-8.07H403.8l-3.32,8.07Z" transform="translate(-44.23 -0.06)"/></svg>