<svg id="Capa_1" data-name="Capa 1" xmlns="http://www.w3.org/2000/svg" viewBox="0 0 394.86 504.39"><defs><style>.cls-1{fill:#fff;}.cls-2{fill:#8e881a;}.cls-3{fill:#7b7807;}.cls-4{fill:#f7e826;}.cls-5{fill:#515102;}.cls-6{fill:#17642d;}.cls-7{font-size:47.7px;}.cls-11,.cls-7{fill:#1d1d1b;font-family:Arial-BoldMT, Arial;font-weight:700;}.cls-8{letter-spacing:-0.04em;}.cls-9{fill:#804412;}.cls-10,.cls-12{fill:none;stroke:#1d1d1b;}.cls-10{stroke-miterlimit:10;stroke-width:3.67px;}.cls-11{font-size:26.91px;}.cls-12{stroke-linejoin:round;stroke-width:5.98px;}</style></defs><path class="cls-1" d="M444.34,331.26c-.58-20.2-5.65-36.6-8.39-45.48-2.25-7.31-3.49-9.76-14.79-37.81H78.84c-11.3,28-12.54,30.5-14.79,37.81A183.17,183.17,0,0,0,56.81,317a51.13,51.13,0,0,1,7.86-1.4,37.37,37.37,0,0,1,8.71,0c7.19.94,12.2,4,20.32,9.68,16.81,11.69,16.4,13,23.71,16.45,9.15,4.28,15.18,4.68,19.35,4.36,3.17-.25,6.89-.54,10.65-2.91,3-1.9,3.76-3.69,7.62-6a32.52,32.52,0,0,1,7.38-3.15,62.08,62.08,0,0,1,19.35-2.66,65.42,65.42,0,0,1,19.84,3.39c2.16.73,6.79,3.12,16,7.86,6.82,3.53,14.06,6.31,20.56,10.4,4.24,2.67,6.33,4.39,9.56,4.12,1.86-.16,4.34-1,10-7.5,9.4-10.75,9.95-16.82,16-18.27a68.89,68.89,0,0,1,7.74-1c3.72-.35,5-.31,7.13-1,1.69-.5,2.27-.93,5.81-2.78,3.08-1.61,5.73-3,8.59-4.23a57.75,57.75,0,0,1,8.95-3.15l2.09-.53a18.67,18.67,0,1,1,28.65,7.07,24.79,24.79,0,0,1,2.83,1.81c4,2.94,4.37,4.55,9,8.77a54.54,54.54,0,0,0,10,7.44c3.11,1.77,4.07,1.87,4.66,1.87,2.66,0,4.94-2,9.49-6,2.92-2.57,4.38-3.86,4.78-4.3,1.47-1.63,2-2.57,3-2.6,1.36,0,1.83,1.59,3.93,3.15a10.48,10.48,0,0,0,5.26,2.05c2.23.12,3.13-1.08,9.19-5.32,5.1-3.57,7-4.47,8.47-5.08a16.57,16.57,0,0,1,5.32-1.57c6.11-.27,9.4,7.46,15.24,12.34a25.29,25.29,0,0,0,10.47,5.06C444.51,338.42,444.42,334.26,444.34,331.26Z" transform="translate(-52.57 1.4)"/><path class="cls-2" d="M349.07,314.73a18.51,18.51,0,0,0,.37-3.57,19,19,0,0,0-.41-3.88l-.11-.5,22.51,6.47L349,315.13Z" transform="translate(-52.57 1.4)"/><path class="cls-3" d="M349.33,307.22l20.41,5.86-20.37,1.71a18.11,18.11,0,0,0,0-7.57m-.82-.87.22,1a18.28,18.28,0,0,1,.41,3.81,17.93,17.93,0,0,1-.37,3.51l-.16.8.81-.07,20.37-1.71,3.32-.28-3.2-.91-20.42-5.87-1-.28Z" transform="translate(-52.57 1.4)"/><path class="cls-2" d="M335.52,293.35a18.69,18.69,0,0,0-4.44-.56,18.39,18.39,0,0,0-2.51.19l-.39,0,2.9-22.66,4.91,23.1Z" transform="translate(-52.57 1.4)"/><path class="cls-3" d="M331.15,272.19l4.44,20.86a18.64,18.64,0,0,0-4.51-.57,17.9,17.9,0,0,0-2.55.2l2.62-20.49m-.15-3.65-.45,3.57-2.63,20.49-.1.79.79-.11a17.74,17.74,0,0,1,2.47-.19,18,18,0,0,1,4.36.56l.95.23-.2-.95-4.44-20.87-.75-3.52Z" transform="translate(-52.57 1.4)"/><path class="cls-2" d="M348.38,305.05a17.76,17.76,0,0,0-1.62-3.41l-.31-.51,13.73,1-11.7,3.19Z" transform="translate(-52.57 1.4)"/><path class="cls-3" d="M347,301.48l11.35.83-9.7,2.64a18.11,18.11,0,0,0-1.65-3.47m-1.13-.7.61,1a17.41,17.41,0,0,1,1.59,3.35l.19.54.55-.15,9.7-2.64L362,302l-3.56-.26-11.35-.83-1.18-.09Z" transform="translate(-52.57 1.4)"/><path class="cls-2" d="M340.08,295.16a17.79,17.79,0,0,0-3.28-1.45l-.35-.12,7.07-12.08L341,294.66l-.76.6Z" transform="translate(-52.57 1.4)"/><path class="cls-3" d="M342.89,283.2l-2.14,11.29-.52.4a18.4,18.4,0,0,0-3.33-1.47l6-10.22m1.26-3.37-1.79,3.06-6,10.22-.38.66.72.23a18.86,18.86,0,0,1,3.22,1.42l.36.2.32-.25.51-.4.18-.15.05-.22,2.14-11.29.66-3.48Z" transform="translate(-52.57 1.4)"/><path class="cls-2" d="M340.08,295.16l-.4-.23,1.52-1.19-.36,1.88Z" transform="translate(-52.57 1.4)"/><path class="cls-3" d="M340.75,294.49l-.13.64-.39-.24.52-.4m.9-1.49-1.28,1-.52.41-.72.56.8.45.21.13.17.1.75.45.16-.86.13-.64.3-1.6Z" transform="translate(-52.57 1.4)"/><path class="cls-2" d="M344.36,298.5a18.34,18.34,0,0,0-3.89-3.11l-.19-.11.19-1,16.06-12.63-11.91,17.08Z" transform="translate(-52.57 1.4)"/><path class="cls-3" d="M355.11,283.2l-10.53,15.08a18.61,18.61,0,0,0-4-3.15l.13-.64,14.36-11.29m2.85-3-3.23,2.53L340.37,294l-.18.15-.05.22L340,295l-.08.42.37.22a18.08,18.08,0,0,1,3.83,3.06l.52.54.42-.62,10.53-15.08,2.35-3.37Z" transform="translate(-52.57 1.4)"/><path class="cls-2" d="M319.27,282l9.28,11-.53.09A18.46,18.46,0,0,0,323,294.7l-.33.17Z" transform="translate(-52.57 1.4)"/><path class="cls-3" d="M319.9,283.2l8.07,9.56a18.4,18.4,0,0,0-5.15,1.67L319.9,283.2m-1.26-2.46.67,2.61,2.91,11.23.19.73.68-.33a18.16,18.16,0,0,1,5-1.62l1.06-.17-.69-.82-8.07-9.57-1.73-2.06Z" transform="translate(-52.57 1.4)"/><path class="cls-2" d="M344,324.17l.37-.38a18.49,18.49,0,0,0,2.83-3.88l.16-.3,11.26,8.17Z" transform="translate(-52.57 1.4)"/><path class="cls-3" d="M347.46,320.06l9.7,7.05L344.58,324a18.73,18.73,0,0,0,2.88-3.94m-.21-.9-.33.61a18.35,18.35,0,0,1-2.78,3.81l-.73.77,1,.25L357,327.7l3,.75-2.53-1.84-9.71-7-.56-.41Z" transform="translate(-52.57 1.4)"/><path class="cls-2" d="M292.93,311.18l20.13-3.53-.07.42a17.82,17.82,0,0,0,.63,8.77l.18.56Z" transform="translate(-52.57 1.4)"/><path class="cls-3" d="M312.69,308a19.09,19.09,0,0,0-.29,3.14,18.46,18.46,0,0,0,.93,5.78l-19.07-5.68L312.69,308m.75-.75-.86.15-18.43,3.24-2.55.45,2.49.74,19.06,5.67,1.12.34-.36-1.11a18,18,0,0,1-.89-5.59,18.49,18.49,0,0,1,.27-3l.15-.86Z" transform="translate(-52.57 1.4)"/><path class="cls-2" d="M305.16,283.44,323,294.67l-.47.25a18.56,18.56,0,0,0-5.2,4.11l-.24.29Z" transform="translate(-52.57 1.4)"/><path class="cls-3" d="M306.4,284.58l16,10.07a18.85,18.85,0,0,0-5.29,4.18L306.4,284.58m-2.48-2.28,2,2.65,10.68,14.25.45.6.49-.56a18.11,18.11,0,0,1,5.11-4.05l.94-.49-.9-.57-15.95-10.06-2.81-1.77Z" transform="translate(-52.57 1.4)"/><path class="cls-2" d="M307.85,297.37l8.53,2.79-.24.34a18.28,18.28,0,0,0-2.27,4.28l-.2.54Z" transform="translate(-52.57 1.4)"/><path class="cls-3" d="M308.65,298l7.24,2.37a18.58,18.58,0,0,0-2.31,4.36L308.65,298M307,296.78l1.12,1.53,4.93,6.73.67.92.4-1.07a17.64,17.64,0,0,1,2.22-4.21l.49-.68-.79-.26-7.23-2.37-1.81-.59Z" transform="translate(-52.57 1.4)"/><path class="cls-4" d="M342.37,326.32a96.36,96.36,0,0,0-9.39-4.21c-6.2-2.57-9.08-3.7-12.47-3.71h0a20.75,20.75,0,0,0-3.29.27c-.9.14-1.87.35-3.06.64l-.5.12-.21-.47c-.26-.6-.5-1.21-.7-1.83a18.94,18.94,0,0,1-1-6,19.87,19.87,0,0,1,.29-3.24,19.45,19.45,0,0,1,3.31-7.95,17.28,17.28,0,0,1,1.23-1.54,19.23,19.23,0,0,1,5.45-4.32l.29-.14.18-.09a19.32,19.32,0,0,1,5.33-1.72l.58-.09a18.49,18.49,0,0,1,2.63-.2,19.51,19.51,0,0,1,4.66.59c.45.12.91.23,1.35.38a18.85,18.85,0,0,1,3.44,1.52l.41.25a19.25,19.25,0,0,1,4.09,3.25,19.58,19.58,0,0,1,2.52,3.3,19.23,19.23,0,0,1,1.7,3.58,18.55,18.55,0,0,1,.67,2.35,18.64,18.64,0,0,1,.05,7.82,19.09,19.09,0,0,1-2,5.44,19.29,19.29,0,0,1-3,4.08,18.78,18.78,0,0,1-2,1.83l-.32.25Z" transform="translate(-52.57 1.4)"/><path class="cls-5" d="M331.08,292.48a18.64,18.64,0,0,1,4.51.57c.44.11.88.23,1.31.37a18.4,18.4,0,0,1,3.33,1.47l.39.24a18.41,18.41,0,0,1,6.4,6.35,18.11,18.11,0,0,1,1.65,3.47,19.11,19.11,0,0,1,.66,2.27,18.11,18.11,0,0,1,0,7.57,18.46,18.46,0,0,1-1.91,5.27,18.73,18.73,0,0,1-2.88,3.94,17,17,0,0,1-1.92,1.78,99.06,99.06,0,0,0-9.45-4.24c-6-2.49-9.11-3.74-12.7-3.75h0a20.16,20.16,0,0,0-3.34.28c-1,.16-2,.38-3.12.64-.25-.57-.48-1.17-.68-1.77a18.46,18.46,0,0,1-.93-5.78,19.09,19.09,0,0,1,.29-3.14,18.54,18.54,0,0,1,3.2-7.7c.37-.51.76-1,1.18-1.49a18.85,18.85,0,0,1,5.29-4.18l.46-.22a18.4,18.4,0,0,1,5.15-1.67l.56-.08a17.9,17.9,0,0,1,2.55-.2m0-1.22a19.8,19.8,0,0,0-2.72.2l-.59.1a19.76,19.76,0,0,0-5.5,1.77l-.16.08-.33.16a19.92,19.92,0,0,0-5.62,4.45c-.46.52-.88,1.06-1.27,1.59a19.79,19.79,0,0,0-2.45,4.64,20.25,20.25,0,0,0-1,3.57,20,20,0,0,0-.3,3.34,19.61,19.61,0,0,0,1,6.16q.31,1,.72,1.89l.42.94,1-.25c1.18-.29,2.14-.49,3-.62a19.43,19.43,0,0,1,3.15-.27c3.32,0,6.16,1.13,12.27,3.66a95.43,95.43,0,0,1,9.33,4.18l.71.4.64-.51a18.94,18.94,0,0,0,2-1.89A19.78,19.78,0,0,0,350.52,307a18.18,18.18,0,0,0-.7-2.42,19.56,19.56,0,0,0-1.75-3.7,20.26,20.26,0,0,0-2.6-3.4,19.94,19.94,0,0,0-4.22-3.36l-.14-.08-.28-.18a20,20,0,0,0-3.55-1.56c-.49-.16-1-.29-1.39-.39a19.76,19.76,0,0,0-4.81-.61Z" transform="translate(-52.57 1.4)"/><path class="cls-6" d="M433.85,338.36c-5.84-4.88-9.13-12.61-15.24-12.34a16.57,16.57,0,0,0-5.32,1.57c-1.5.61-3.37,1.51-8.47,5.08-6.06,4.24-7,5.44-9.19,5.32a10.48,10.48,0,0,1-5.26-2.05c-2.1-1.56-2.57-3.19-3.93-3.15-1,0-1.56,1-3,2.6-.4.44-1.86,1.73-4.78,4.3-4.55,4-6.83,6-9.49,6-.59,0-1.55-.1-4.66-1.87a54.54,54.54,0,0,1-10-7.44c-4.64-4.22-5-5.83-9-8.77a24.79,24.79,0,0,0-2.83-1.81,99.06,99.06,0,0,0-9.45-4.24c-6-2.49-9.11-3.74-12.7-3.75a26.55,26.55,0,0,0-6.5.92l-2.09.53a57.75,57.75,0,0,0-8.95,3.15c-2.86,1.24-5.51,2.62-8.59,4.23-3.54,1.85-4.12,2.28-5.81,2.78-2.17.66-3.41.62-7.13,1a68.89,68.89,0,0,0-7.74,1c-6,1.45-6.57,7.52-16,18.27-5.7,6.5-8.18,7.34-10,7.5-3.23.27-5.32-1.45-9.56-4.12-6.5-4.09-13.74-6.87-20.56-10.4-9.18-4.74-13.81-7.13-16-7.86a65.42,65.42,0,0,0-19.84-3.39A62.08,62.08,0,0,0,162.41,334a32.52,32.52,0,0,0-7.38,3.15c-3.86,2.35-4.61,4.14-7.62,6-3.76,2.37-7.48,2.66-10.65,2.91-4.17.32-10.2-.08-19.35-4.36-7.31-3.41-6.9-4.76-23.71-16.45-8.12-5.64-13.13-8.74-20.32-9.68a37.37,37.37,0,0,0-8.71,0,51.13,51.13,0,0,0-7.86,1.4,138.94,138.94,0,0,0-1.15,14.25c-.35,12.5-.83,44.88,20,75.16C88.58,425.2,104.11,435,113.4,440.93c17.31,11,33.17,15.87,64.06,25.41,26.23,8.09,28.77,7,40.46,12.34A125.15,125.15,0,0,1,250,500a125.15,125.15,0,0,1,32.08-21.32c11.69-5.35,14.23-4.25,40.46-12.34,30.89-9.54,46.75-14.43,64.06-25.41,9.29-5.89,24.82-15.73,37.74-34.51,15.83-23,19.35-47.21,20-63A25.29,25.29,0,0,1,433.85,338.36Z" transform="translate(-52.57 1.4)"/><path class="cls-1" d="M406,209.33a171,171,0,0,1-6.23-28.46H100.28a171,171,0,0,1-6.23,28.46c-.94,3.17-5.37,14.2-14.2,36.12-.34.87-.68,1.7-1,2.52H421.16c-.33-.82-.67-1.65-1-2.52C411.32,223.53,406.89,212.5,406,209.33Z" transform="translate(-52.57 1.4)"/><text class="cls-7" transform="translate(59.4 232.9)">C.D. I’GAR<tspan class="cls-8" x="241.16" y="0">A</tspan></text><path class="cls-1" d="M399.18,152.23c1.89-21.6,8.52-37.29,12.9-47.42a176,176,0,0,1,18.06-32.06L359,1.59a208.41,208.41,0,0,1-62.36,25.47A208.5,208.5,0,0,1,250,32.27a208.5,208.5,0,0,1-46.62-5.21A208.41,208.41,0,0,1,141,1.59L69.86,72.75a176,176,0,0,1,18.06,32.06c4.38,10.13,11,25.82,12.9,47.42a136,136,0,0,1-.54,28.64H399.72A136,136,0,0,1,399.18,152.23Z" transform="translate(-52.57 1.4)"/><circle class="cls-9" cx="198.54" cy="121.37" r="52.26"/><path class="cls-10" d="M278.89,75.71a51.33,51.33,0,0,1-1.16,8.46,68.52,68.52,0,0,1-4.64,14.13c-5.78,12.26-13.71,15.34-22,21.67a88.63,88.63,0,0,0,1.37,12.58c.21,1.38,1.6,6,6.85,15l.49.8A122.73,122.73,0,0,0,302.59,111,52.32,52.32,0,0,0,278.89,75.71Z" transform="translate(-52.57 1.4)"/><path class="cls-10" d="M229.5,82.39a116.8,116.8,0,0,0-13.34-1.26,52.15,52.15,0,0,0-17.1,34.4,84.84,84.84,0,0,1,19.31-2.65c1.64,0,3.17,0,4.62,0,16.32.15,20.95,3.26,28.13,7.12,8.26-6.33,16.19-9.41,22-21.67A119.89,119.89,0,0,0,229.5,82.39Z" transform="translate(-52.57 1.4)"/><path class="cls-10" d="M251.12,67.72a52,52,0,0,0-35,13.41,116.8,116.8,0,0,1,13.34,1.26A119.89,119.89,0,0,1,273.09,98.3a68.52,68.52,0,0,0,4.64-14.13,51.33,51.33,0,0,0,1.16-8.46A52,52,0,0,0,251.12,67.72Z" transform="translate(-52.57 1.4)"/><path class="cls-10" d="M302.59,111a122.73,122.73,0,0,1-42.76,37.37,52.26,52.26,0,0,0,17.33,16.92A52.24,52.24,0,0,0,303.37,120,53.2,53.2,0,0,0,302.59,111Z" transform="translate(-52.57 1.4)"/><path class="cls-10" d="M259.83,148.35l-.49-.8c-5.25-9-6.64-13.62-6.85-15A88.63,88.63,0,0,1,251.12,120c-7.18-3.86-11.81-7-28.13-7.12-.13,2.94-.2,6.43-.14,10.36.1,5.91.26,15.72,2,23,1.07,4.59,4.18,14.31,15,24.74a52.16,52.16,0,0,0,37.29-5.73A52.26,52.26,0,0,1,259.83,148.35Z" transform="translate(-52.57 1.4)"/><path class="cls-10" d="M224.83,146.26c-1.72-7.33-1.88-17.14-2-23-.06-3.93,0-7.42.14-10.36-1.45,0-3,0-4.62,0a84.84,84.84,0,0,0-19.31,2.65c-.12,1.47-.2,2.94-.2,4.44a52.26,52.26,0,0,0,41,51C229,160.57,225.9,150.85,224.83,146.26Z" transform="translate(-52.57 1.4)"/><text class="cls-11" transform="matrix(-0.36, -0.93, 0.93, -0.36, 146.27, 151.61)">C</text><text class="cls-11" transform="translate(138.61 128.65) rotate(-87.71)">A</text><text class="cls-11" transform="translate(140.53 104.55) rotate(-64.53)">B</text><text class="cls-11" transform="matrix(0.76, -0.65, 0.65, 0.76, 151.64, 83.16)">O</text><text class="cls-11" transform="translate(172.81 67.47) rotate(-21.96)"> </text><text class="cls-11" transform="translate(185.06 62.5) rotate(-3.58)">B</text><text class="cls-11" transform="translate(209.42 62.19) rotate(18.25)">L</text><text class="cls-11" transform="matrix(0.76, 0.65, -0.65, 0.76, 229.56, 69.56)">A</text><text class="cls-11" transform="matrix(0.45, 0.89, -0.89, 0.45, 247.41, 85.89)">N</text><text class="cls-11" transform="translate(257.41 107.89) rotate(86.42)">C</text><text class="cls-11" transform="translate(258.13 132.01) rotate(110.12)">O</text><path class="cls-12" d="M64.05,285.78c-2.74,8.88-7.81,25.28-8.39,45.48-.35,12.5-.83,44.88,20,75.16C88.58,425.2,104.11,435,113.4,440.93c17.31,11,33.17,15.87,64.06,25.41,26.23,8.09,28.77,7,40.46,12.34A125.15,125.15,0,0,1,250,500a125.15,125.15,0,0,1,32.08-21.32c11.69-5.35,14.23-4.25,40.46-12.34,30.89-9.54,46.75-14.43,64.06-25.41,9.29-5.89,24.82-15.73,37.74-34.51,20.83-30.28,20.35-62.66,20-75.16-.58-20.2-5.65-36.6-8.39-45.48-2.25-7.31-3.49-9.76-14.79-37.81H78.84C67.54,276,66.3,278.47,64.05,285.78Z" transform="translate(-52.57 1.4)"/><path class="cls-12" d="M406,209.33a171,171,0,0,1-6.23-28.46H100.28a171,171,0,0,1-6.23,28.46c-.94,3.17-5.37,14.2-14.2,36.12-.34.87-.68,1.7-1,2.52H421.16c-.33-.82-.67-1.65-1-2.52C411.32,223.53,406.89,212.5,406,209.33Z" transform="translate(-52.57 1.4)"/><path class="cls-12" d="M399.18,152.23c1.89-21.6,8.52-37.29,12.9-47.42a176,176,0,0,1,18.06-32.06L359,1.59a208.41,208.41,0,0,1-62.36,25.47A208.5,208.5,0,0,1,250,32.27a208.5,208.5,0,0,1-46.62-5.21A208.41,208.41,0,0,1,141,1.59L69.86,72.75a176,176,0,0,1,18.06,32.06c4.38,10.13,11,25.82,12.9,47.42a136,136,0,0,1-.54,28.64H399.72A136,136,0,0,1,399.18,152.23Z" transform="translate(-52.57 1.4)"/></svg>