<svg id="Capa_1" data-name="Capa 1" xmlns="http://www.w3.org/2000/svg" viewBox="0 0 518.25 529.33"><defs><style>.cls-1{fill:#fffffe;}.cls-2{fill:#282e69;}.cls-3{fill:#a1cde7;}.cls-13,.cls-16,.cls-3,.cls-8,.cls-9{stroke:#282e69;}.cls-13,.cls-14,.cls-3,.cls-8,.cls-9{stroke-miterlimit:10;}.cls-3,.cls-8{stroke-width:2.21px;}.cls-4{fill:#f7b282;}.cls-4,.cls-5,.cls-6,.cls-7{stroke:#010101;stroke-linecap:round;stroke-width:1.1px;}.cls-16,.cls-4,.cls-5,.cls-6,.cls-7{stroke-linejoin:round;}.cls-13,.cls-16,.cls-5,.cls-9{fill:none;}.cls-6{fill:#e5e5e4;}.cls-7{fill:#808181;}.cls-14,.cls-8{fill:#fff;}.cls-9{font-size:36.39px;letter-spacing:0.18em;}.cls-13,.cls-9{stroke-width:2.21px;font-family:GillSans-UltraBold, Gill Sans Ultra Bold;font-weight:700;}.cls-10{letter-spacing:0.2em;}.cls-11{letter-spacing:0.16em;}.cls-12{letter-spacing:0.14em;}.cls-13{font-size:34.12px;letter-spacing:0.1em;}.cls-14{stroke:#1d1d1b;stroke-width:1.29px;}.cls-15{fill:#1d1d1b;}.cls-16{stroke-width:5.52px;}</style></defs><path class="cls-1" d="M382.38,370.78v286.8c15.88-2.28,32.22-5.09,49.34-10.33V333.91Z" transform="translate(-38.51 -156.28)"/><path class="cls-1" d="M283.69,444.53V673.94a120.68,120.68,0,0,1,13.95,8.91A114.63,114.63,0,0,1,333,664.91V407.66Z" transform="translate(-38.51 -156.28)"/><path class="cls-1" d="M546.49,446.58c-5.37-25.77-8.26-28.47-16.09-63.69-5.31-23.87-7-36.3-6.44-51.17a135.77,135.77,0,0,1,4.29-29.57,119.74,119.74,0,0,1,18.24-38.66,111,111,0,0,1,7.51-9.32V242.52L481.06,297V625.78a175.45,175.45,0,0,0,26.81-20c9.14-8.28,19.64-17.79,29-34.12C553.37,542.71,553.9,513.91,554,500,554.11,483.17,551.57,471,546.49,446.58Z" transform="translate(-38.51 -156.28)"/><path class="cls-1" d="M78.74,597.7c3,2.91,5.88,5.56,8.66,8.08A179,179,0,0,0,135.67,637v-81.8Z" transform="translate(-38.51 -156.28)"/><path class="cls-1" d="M185,518.28V652.76c13.6,2.9,26.78,4.7,39.69,6.47,3.67.5,6.84.89,9.65,1.21v-179Z" transform="translate(-38.51 -156.28)"/><path class="cls-2" d="M135.67,555.15V637c7.6,3.35,14.22,5.71,19.31,7.49a242.48,242.48,0,0,0,30,8.32V518.28Z" transform="translate(-38.51 -156.28)"/><path class="cls-2" d="M234.35,481.41v179c13,1.51,18.26,1.6,27.89,4.47a110,110,0,0,1,21.45,9V444.53Z" transform="translate(-38.51 -156.28)"/><path class="cls-2" d="M333,407.66V664.91c11.72-3.5,16.89-2.86,37.55-5.68,3.9-.54,7.84-1.08,11.8-1.65V370.78Z" transform="translate(-38.51 -156.28)"/><path class="cls-2" d="M431.72,333.91V647.25c2.84-.87,5.69-1.8,8.58-2.81a206.3,206.3,0,0,0,40.76-18.66V297Z" transform="translate(-38.51 -156.28)"/><path class="cls-3" d="M489.4,163.3c-7.42,2.38-15,4.76-22.79,7.13-8.63,2.63-17.42,5.24-26.31,7.77-13.24,3.77-32,8.92-56.85,8a174.88,174.88,0,0,1-56.85-12.51,184.29,184.29,0,0,1-29-14.61,185.17,185.17,0,0,1-29,14.61,174.93,174.93,0,0,1-56.85,12.51c-24.83,1-43.62-4.19-56.85-8-16.88-4.81-33.42-9.87-49.11-14.9L41.28,232.66v21.51a113.06,113.06,0,0,1,7.51,9.32A119.79,119.79,0,0,1,67,302.15a135.77,135.77,0,0,1,4.29,29.57c.6,14.87-1.12,27.3-6.43,51.17C57,418.11,54.15,420.81,48.79,446.58c-3.81,18.29-6.2,29.73-7.1,41.41-.3,3.9-.44,7.82-.41,12,.09,13.89.62,42.69,17.16,71.64a115.92,115.92,0,0,0,20.3,26L105.15,578l419-313.1L554,242.52v-9.86ZM96,290.78c-3.09-26.7-7.09-39.45-11.8-50-.48-1.09-1-2.15-1.48-3.2s-.93-1.91-1.41-2.85a129.17,129.17,0,0,0,14.39-9.76q2.82-2.19,5.67-4.66a135.13,135.13,0,0,0,15-15.45c1.31-1.58,2.54-3.13,3.71-4.67l.76.33a159.56,159.56,0,0,0,35.19,10.69c16.4,3,14,2.56,21.45,2.27,3.13-.11,12.87,0,24.67,0,14,0,12.49.36,19.66.08a154.59,154.59,0,0,0,50.22-11.05,161.74,161.74,0,0,0,25.24-12.7l.44-.15a163.6,163.6,0,0,0,25.49,12.85,154.64,154.64,0,0,0,50.22,11.05,142.72,142.72,0,0,0,41.84-4.74l-337.22,252A326.07,326.07,0,0,0,96,394.27C102.91,350.57,99.09,317.59,96,290.78Z" transform="translate(-38.51 -156.28)"/><path class="cls-4" d="M238.67,384.42c7.47-4,21.76-14.07,28.38-20.59,3.41-3.37,3.63-5.44,4.72-8.55s1.85-5.28,3.91-7.71,4.29-5.52,7-8.84c3.51-4.34,5.3-4.92,8.59-5.23s9-1.64,9-1.64L330.53,330l16.37,15.71c3.09,1.62,2.94,7.19.52,8.43a5.43,5.43,0,0,1-3.53.48c1.93,1.41.59,6.38-1.18,7.42a6.56,6.56,0,0,1-4.36.74c1.95,2,.25,7-1.54,7.86-1.5.7-2.92.56-4.8.32,1.25,2-.08,6.34-2.9,6.88-1.55.3-4.61-.53-5.47-.8l-35.58,12.91c-3.06.1-5.81,2.82-9.76,6.86Z" transform="translate(-38.51 -156.28)"/><path class="cls-5" d="M332.6,368.39a23,23,0,0,0,.52-2.93" transform="translate(-38.51 -156.28)"/><path class="cls-5" d="M334.12,359.45a9.48,9.48,0,0,0,.52-3.1" transform="translate(-38.51 -156.28)"/><path class="cls-5" d="M334.8,349.92a9.37,9.37,0,0,0,.61-3.89" transform="translate(-38.51 -156.28)"/><path class="cls-5" d="M343.89,354.59a142.11,142.11,0,0,1-26.32-5" transform="translate(-38.51 -156.28)"/><path class="cls-5" d="M338.35,362.75a143.09,143.09,0,0,1-20.18-3.63" transform="translate(-38.51 -156.28)"/><path class="cls-5" d="M332,370.93c-3.49-.42-9.2-2-12.84-2.82" transform="translate(-38.51 -156.28)"/><path class="cls-4" d="M435.26,232.41c-29.47,13-54.57,39.18-76.93,62h0c-6,6.16-19.72,17.12-27.71,21.59-4.12,2.3-6.05,1.83-9.17,1.9s-5.31.1-8.16,1.36c-3,1.32-6.34,2.47-10.17,4-5,2.07-6.14,3.68-7.5,6.87s-3.34,6.45-4.44,8.47-2.22,4.86-1.35,6.85c-.14,1.47-1.22,4.75-1.33,7.93,1.87,2.34,6,1.88,8.22-1.74,3-4.89,2.91-8.48,1.56-9.48a2.55,2.55,0,0,0,2.7-.51,11.35,11.35,0,0,0,3.92-6.1c7.76.49,16.74,3.27,19.65,4.84,4.93,2.66,19.2,3.57,22.35,5.21,1.1-3,4.43-4.88,9.33-7.5,16.49-8.83,45.3-22.44,94.75-56.8a34.12,34.12,0,0,0,13.42-10.44c31.72-16.15,55.07-25.46,77-51.78l-43-46.13C472.94,186.4,440.17,214.09,435.26,232.41Z" transform="translate(-38.51 -156.28)"/><path class="cls-6" d="M289.83,345.53a3.89,3.89,0,0,0,1.6.15c.16,4.82-1.6,8.44-2.93,7.78a24.84,24.84,0,0,1,1.33-7.93Z" transform="translate(-38.51 -156.28)"/><path class="cls-4" d="M315.76,375.38c-1,2.68-1.83,5.9-.3,8,1.4,1.92,5.68,2,7.09-.62.78-1.46,1.05-4.79,1.09-5.74.14-3.31-6.52-5.26-7.88-1.63Z" transform="translate(-38.51 -156.28)"/><path class="cls-4" d="M315.72,379.85c-.48-3.48-6-5.55-8-2.1-1.85,3.21-2.8,6.53-1.63,9.26s6.17,2.57,7.51,1.06c1.12-1.27,1.47-2.74,1.87-4.7a14.69,14.69,0,0,0,.26-3.52Z" transform="translate(-38.51 -156.28)"/><path class="cls-4" d="M306.67,381.68c-.21-3-6.39-4.46-8.06-1.26-1.32,2.54-2.58,5.67-1.62,9.44.61,2.39,5.49,2.7,7,1.27a7.42,7.42,0,0,0,2.09-4.12,20.94,20.94,0,0,0,.59-5.33Z" transform="translate(-38.51 -156.28)"/><path class="cls-4" d="M297.41,385.92c-.6-4.73-6.07-4.68-7.44-2.31a13.85,13.85,0,0,0-1.91,6.31c-.05,3.52,5.43,5.32,7.34,3.31a6.29,6.29,0,0,0,1.59-3.37,14.63,14.63,0,0,0,.42-3.94Z" transform="translate(-38.51 -156.28)"/><path class="cls-7" d="M225.1,453.44c26.13-22.83,44.24-44.13,60.63-59.88l-22.65-29.13c-31.53,22.84-98,58.21-134.88,84.42-22.35,13.86-51.39,34-68.35,49.14L41.62,512c.88,15.37,4.15,37.45,16.82,59.63.83,1.45,1.66,2.83,2.5,4.17,31.62-7.15,66.81-34,94.74-61.39C171.65,502,215,462.24,225.1,453.44Z" transform="translate(-38.51 -156.28)"/><path class="cls-6" d="M317.37,377.91a4,4,0,0,0,4,.56l-.14,1.42a2.91,2.91,0,0,1-3.86-.29Z" transform="translate(-38.51 -156.28)"/><path class="cls-6" d="M308.72,380.34a5.34,5.34,0,0,0,5,1.07l-.52,1.92c-1.27.79-3.15.49-4.85-.95Z" transform="translate(-38.51 -156.28)"/><path class="cls-6" d="M299.54,382.9c2.07,1.81,3.64,1.74,5,1.05l-.52,2.19c-1.27.79-3.16.44-4.87-1Z" transform="translate(-38.51 -156.28)"/><path class="cls-6" d="M290.55,386.18a4.14,4.14,0,0,0,4.89,1.28l-.45,2.21c-1.25.83-3.74,0-4.72-1.62Z" transform="translate(-38.51 -156.28)"/><path class="cls-5" d="M324.82,340.54a25.55,25.55,0,0,0,6.34-6.44" transform="translate(-38.51 -156.28)"/><path class="cls-5" d="M332.38,322.73a23.29,23.29,0,0,1,4.28,8.5,19.76,19.76,0,0,1,4.7,4.38" transform="translate(-38.51 -156.28)"/><path class="cls-5" d="M346.61,345.33a9.54,9.54,0,0,0-1.51-4.61" transform="translate(-38.51 -156.28)"/><path class="cls-5" d="M435.26,232.41A40.81,40.81,0,0,0,433.61,244" transform="translate(-38.51 -156.28)"/><path class="cls-5" d="M253,392.91a3.53,3.53,0,0,0,2.3,4.31,3.29,3.29,0,0,0,4.06-2.44,3.52,3.52,0,0,0-2.3-4.3,3.28,3.28,0,0,0-4.06,2.43Z" transform="translate(-38.51 -156.28)"/><path class="cls-5" d="M242.06,401.19a3.53,3.53,0,0,0,2.3,4.3,3.27,3.27,0,0,0,4.06-2.43,3.53,3.53,0,0,0-2.29-4.31A3.28,3.28,0,0,0,242.06,401.19Z" transform="translate(-38.51 -156.28)"/><path class="cls-5" d="M270.57,374.12C252.93,388.6,231.34,404,208.69,420" transform="translate(-38.51 -156.28)"/><path class="cls-5" d="M219.46,417.27a3.52,3.52,0,0,0,2.3,4.3,3.27,3.27,0,0,0,4.06-2.43,3.53,3.53,0,0,0-2.3-4.31,3.28,3.28,0,0,0-4.06,2.44Z" transform="translate(-38.51 -156.28)"/><path class="cls-5" d="M231.12,409a3.53,3.53,0,0,0,2.3,4.31,3.28,3.28,0,0,0,4.06-2.44,3.52,3.52,0,0,0-2.3-4.3A3.27,3.27,0,0,0,231.12,409Z" transform="translate(-38.51 -156.28)"/><path class="cls-7" d="M277.84,401.41c2.53,2.07,5.43,2.59,7.76.57,2.9-2.52,4.46-11-6.05-24.92-9.2-12.21-17.51-19-22.15-15.8-4.44,3-1.66,8.37-1.66,8.37,1.85-1.36,3.29-2.25,5-3.52,8.92,6.48,20.65,21.3,21.68,30.69Z" transform="translate(-38.51 -156.28)"/><path class="cls-7" d="M203.92,401.13c3.11,12.78,22,40.36,29.3,45.05l4.88-4.47s3.51,6.33.05,10-12.88,1.09-28.19-22.48c-9.11-14-16.32-29.48-10-33.92,4.75-3.32,9.67,2.45,9.67,2.45Z" transform="translate(-38.51 -156.28)"/><path class="cls-5" d="M263.6,384.65a3.53,3.53,0,0,0,2.3,4.31,3.28,3.28,0,0,0,4.06-2.44,3.52,3.52,0,0,0-2.3-4.3,3.27,3.27,0,0,0-4.06,2.43Z" transform="translate(-38.51 -156.28)"/><path class="cls-7" d="M113.78,458.08c17.05,14.64,36.2,47.15,40.06,58.16l-6.55,6.21s7.1,6.26,12.39,2.1,1.45-17.8-17.22-46c-12.24-18.48-26.74-32.11-34-27.59-4,2.48-2.86,9.47-2.27,12.15Z" transform="translate(-38.51 -156.28)"/><path class="cls-7" d="M108,506.54a10,10,0,0,1-9.93,6.86c-15.7-14.28-23.31-27.73-23.31-27.73s4.72-6.78,9.45-7.17Z" transform="translate(-38.51 -156.28)"/><path class="cls-7" d="M94.3,471.3c4.59,4.51,15.72,19.52,22.12,26.85-.7,7-7.38,9.08-8.41,8.39a157.6,157.6,0,0,1-23.79-28s4.41-6,10.08-7.2Z" transform="translate(-38.51 -156.28)"/><path class="cls-7" d="M125.24,490.14a10.58,10.58,0,0,1-8.82,8A167,167,0,0,1,94.3,471.3s5.91-6.92,10.65-7.32Z" transform="translate(-38.51 -156.28)"/><path class="cls-7" d="M113.78,458.08c8.56,6.42,16.28,16.8,21.29,25-1.36,5.83-9.83,7.08-9.83,7.08A279.17,279.17,0,0,1,105,464c1.38-2.48,6.28-5.13,8.83-5.9Z" transform="translate(-38.51 -156.28)"/><path class="cls-5" d="M127.48,486.23a2.82,2.82,0,1,0-2.62-2.83,2.73,2.73,0,0,0,2.62,2.83Z" transform="translate(-38.51 -156.28)"/><path class="cls-5" d="M117.9,493.86a2.81,2.81,0,1,0-2.63-2.83,2.72,2.72,0,0,0,2.63,2.83Z" transform="translate(-38.51 -156.28)"/><path class="cls-5" d="M108.72,501.9a2.81,2.81,0,1,0-2.63-2.84,2.74,2.74,0,0,0,2.63,2.84Z" transform="translate(-38.51 -156.28)"/><path class="cls-8" d="M78.06,460.81l337.22-252a142.72,142.72,0,0,1-41.84,4.74,154.64,154.64,0,0,1-50.22-11.05,163.6,163.6,0,0,1-25.49-12.85l-.44.15a161.74,161.74,0,0,1-25.24,12.7,154.59,154.59,0,0,1-50.22,11.05c-7.17.28-5.71-.08-19.66-.08-11.8,0-21.54-.11-24.67,0-7.4.29-5.05.69-21.45-2.27a159.56,159.56,0,0,1-35.19-10.69l-.76-.33c-1.17,1.54-2.4,3.09-3.71,4.67a135.13,135.13,0,0,1-15,15.45q-2.85,2.47-5.67,4.66a129.17,129.17,0,0,1-14.39,9.76c.48.94.95,1.88,1.41,2.85s1,2.11,1.48,3.2c4.71,10.58,8.71,23.33,11.8,50s6.93,59.79,0,103.49A326.07,326.07,0,0,1,78.06,460.81Z" transform="translate(-38.51 -156.28)"/><text class="cls-9" transform="translate(101.45 89.72) scale(0.94 1)">U<tspan class="cls-10" x="37.86" y="0">.</tspan><tspan class="cls-11" x="59.9" y="0">D</tspan><tspan class="cls-12" x="97.92" y="0">.</tspan></text><text class="cls-13" transform="translate(70.71 128.43) scale(0.94 1)">GÜIMAR</text><path class="cls-14" d="M158.46,305.78l-14-6.49A39.73,39.73,0,0,0,126,314.63l2,15.14,15.82,3.78,14.34-11Z" transform="translate(-38.51 -156.28)"/><path class="cls-14" d="M158.13,322.55l14.3,11.05,14-4.79,1.26-18.45a39.59,39.59,0,0,0-14.11-10.55l-15.12,6Z" transform="translate(-38.51 -156.28)"/><path class="cls-14" d="M119.2,342.45a43.78,43.78,0,0,0,1.72,8.79,43.22,43.22,0,0,0,3.46,8.21l14.11,4.84,10.74-12.88-2.72-8.93-2.72-8.93L128,329.77Z" transform="translate(-38.51 -156.28)"/><path class="cls-14" d="M176.45,364.84l-7.73,13.91a37.16,37.16,0,0,1-23.46-1l-6.77-13.49,10.74-12.88,17.7,0Z" transform="translate(-38.51 -156.28)"/><path class="cls-14" d="M166.93,351.44l5.5-17.84,14-4.79L197.63,343a43.6,43.6,0,0,1-5.61,17.3l-15.57,4.55Z" transform="translate(-38.51 -156.28)"/><path class="cls-15" d="M119.2,342.45,128,329.77l-2-15.14A43.71,43.71,0,0,0,119.2,342.45Z" transform="translate(-38.51 -156.28)"/><path class="cls-15" d="M158.46,305.78l15.12-6a37.13,37.13,0,0,0-27.26-1.19c-.61.21-1.22.43-1.82.67Z" transform="translate(-38.51 -156.28)"/><polygon class="cls-15" points="105.28 177.27 108 186.2 110.72 195.13 128.41 195.16 133.91 177.32 119.61 166.27 105.28 177.27"/><path class="cls-15" d="M124.38,359.45l14.11,4.84,6.77,13.49A40.06,40.06,0,0,1,124.38,359.45Z" transform="translate(-38.51 -156.28)"/><path class="cls-15" d="M176.45,364.84,192,360.29a39.74,39.74,0,0,1-21.45,17.88c-.62.21-1.24.4-1.85.58Z" transform="translate(-38.51 -156.28)"/><path class="cls-15" d="M186.43,328.81,197.63,343A43.86,43.86,0,0,0,196,325.54a42.29,42.29,0,0,0-8.27-15.18Z" transform="translate(-38.51 -156.28)"/><path class="cls-15" d="M158.45,296.58c16.65,0,32.12,11.26,37.51,29,6.7,22-4.67,45.53-25.39,52.63a37.41,37.41,0,0,1-12.14,2c-16.64,0-32.11-11.27-37.51-29-6.69-22,4.68-45.53,25.4-52.62a37.4,37.4,0,0,1,12.13-2m0-2.21h0a39.51,39.51,0,0,0-12.84,2.16c-21.81,7.46-33.83,32.3-26.8,55.36,5.57,18.26,21.49,30.53,39.62,30.53a39.57,39.57,0,0,0,12.85-2.16c21.8-7.47,33.82-32.3,26.8-55.36-5.57-18.26-21.49-30.53-39.63-30.53Z" transform="translate(-38.51 -156.28)"/><path class="cls-16" d="M546.49,446.58c-5.37-25.77-8.26-28.47-16.09-63.69-5.31-23.87-7-36.3-6.44-51.17a135.77,135.77,0,0,1,4.29-29.57,119.74,119.74,0,0,1,18.24-38.66,111,111,0,0,1,7.51-9.32V232.66L489.4,163.3c-7.42,2.38-15,4.76-22.79,7.13-8.63,2.63-17.42,5.24-26.31,7.77-13.24,3.77-32,8.92-56.85,8a174.88,174.88,0,0,1-56.85-12.51,184.29,184.29,0,0,1-29-14.61,185.17,185.17,0,0,1-29,14.61,174.93,174.93,0,0,1-56.85,12.51c-24.83,1-43.62-4.19-56.85-8-16.88-4.81-33.42-9.87-49.11-14.9L41.28,232.66v21.51a113.06,113.06,0,0,1,7.51,9.32A119.79,119.79,0,0,1,67,302.15a135.77,135.77,0,0,1,4.29,29.57c.6,14.87-1.12,27.3-6.43,51.17C57,418.11,54.15,420.81,48.79,446.58c-3.81,18.29-6.2,29.73-7.1,41.41-.3,3.9-.44,7.82-.41,12,.09,13.89.62,42.69,17.16,71.64a115.92,115.92,0,0,0,20.3,26c3,2.91,5.88,5.56,8.66,8.08,26.44,24,53.15,33.61,67.58,38.66,24.6,8.62,47.53,11.76,69.72,14.79,20.66,2.82,25.83,2.18,37.54,5.68a114.8,114.8,0,0,1,35.4,17.94A114.63,114.63,0,0,1,333,664.91c11.72-3.5,16.89-2.86,37.55-5.68,22.18-3,45.11-6.17,69.72-14.79,14.43-5.05,41.14-14.71,67.57-38.66,9.14-8.28,19.64-17.79,29-34.12C553.37,542.71,553.9,513.91,554,500,554.11,483.17,551.57,471,546.49,446.58Z" transform="translate(-38.51 -156.28)"/></svg>