<svg id="Capa_1" data-name="Capa 1" xmlns="http://www.w3.org/2000/svg" viewBox="0 0 572.83 594.82"><defs><style>.cls-1,.cls-2{fill:#fff;}.cls-2,.cls-3,.cls-32,.cls-33,.cls-34,.cls-35,.cls-38,.cls-39{fill-rule:evenodd;}.cls-3{fill:#bb9c0a;}.cls-4{fill:#1d1d1b;}.cls-5{font-size:97.65px;stroke-width:0.32px;font-family:Arial-BoldMT, Arial;font-weight:700;}.cls-34,.cls-5,.cls-6{fill:#eac108;}.cls-10,.cls-11,.cls-12,.cls-13,.cls-14,.cls-15,.cls-16,.cls-17,.cls-18,.cls-19,.cls-20,.cls-21,.cls-22,.cls-23,.cls-24,.cls-25,.cls-26,.cls-27,.cls-28,.cls-29,.cls-30,.cls-31,.cls-32,.cls-33,.cls-34,.cls-35,.cls-36,.cls-37,.cls-38,.cls-39,.cls-5,.cls-6,.cls-7,.cls-8,.cls-9{stroke:#010101;stroke-linecap:round;stroke-linejoin:round;}.cls-31,.cls-32,.cls-33,.cls-34,.cls-35,.cls-36,.cls-37,.cls-38,.cls-39,.cls-6{stroke-width:0.23px;}.cls-10,.cls-11,.cls-12,.cls-13,.cls-14,.cls-15,.cls-16,.cls-17,.cls-18,.cls-19,.cls-20,.cls-21,.cls-22,.cls-23,.cls-24,.cls-25,.cls-26,.cls-27,.cls-28,.cls-29,.cls-30,.cls-31,.cls-7,.cls-8,.cls-9{fill:none;}.cls-7{stroke-width:1.53px;}.cls-8{stroke-width:1.46px;}.cls-9{stroke-width:1.39px;}.cls-10{stroke-width:1.32px;}.cls-11{stroke-width:1.25px;}.cls-12{stroke-width:1.18px;}.cls-13{stroke-width:1.11px;}.cls-14{stroke-width:1.04px;}.cls-15{stroke-width:0.97px;}.cls-16{stroke-width:0.9px;}.cls-17{stroke-width:0.83px;}.cls-18{stroke-width:0.76px;}.cls-19{stroke-width:0.69px;}.cls-20{stroke-width:0.63px;}.cls-21{stroke-width:0.56px;}.cls-22{stroke-width:0.49px;}.cls-23{stroke-width:0.42px;}.cls-24{stroke-width:0.35px;}.cls-25{stroke-width:0.28px;}.cls-26{stroke-width:0.21px;}.cls-27{stroke-width:0.14px;}.cls-28{stroke-width:0.07px;}.cls-29{stroke-width:1.67px;}.cls-30{stroke-width:1.6px;}.cls-32,.cls-36{fill:#e52629;}.cls-33{fill:#e5e5e4;}.cls-35{fill:#03904c;}.cls-37,.cls-39{fill:#010101;}.cls-38{fill:#c87137;}</style></defs><circle class="cls-1" cx="286.41" cy="286.41" r="281.14"/><path class="cls-2" d="M330.53,241.77c99,18,164.84,113.24,146.89,212.23-17.82,98.16-112.91,164.12-212,146.09-99-18-164.83-113.23-147-211.54,17.9-98.84,113-164.79,212.1-146.78Z" transform="translate(-11.22 -134.53)"/><path class="cls-3" d="M331.67,235.16h0a180.92,180.92,0,0,1,33.6,9.31l1.06.43a189.64,189.64,0,0,1,87.07,68.89A187.19,187.19,0,0,1,486,433.35l-12.6-4.82C475,389.34,463.09,352,442,320.89a174.69,174.69,0,0,0-112.76-72.56h0c-4.3-.75-8.73-1.57-12.56-2.15-13.91,9.65-22.17,21.1-24.3,33.66-3.14,12.36-.36,26.66,7.45,42.66,51.85,4.87,87.53,22.05,114.16,48.26,13.54,13.82,24.52,29.79,34.07,48.09l-19.36-7.42a164.66,164.66,0,0,0-24.12-30.89C380,356.15,347,340.18,298.37,335.15c-5.22,7.69-8.77,15.14-10.34,22.46l-12.44-4.76c1.88-8.63,5.89-16.78,11.87-25-8.83-18.36-12-34.91-8.43-50.26,2.07-11.9,8.68-22.23,18-31.87A176.14,176.14,0,0,0,203.48,273l-.08.65s-.13.85-.24,1.52a44.67,44.67,0,0,0-2.54,9.42c-3.1,12.72-5.64,24.95-7.51,36.75l-12.91-4.95c1.67-9.92,3.85-20.19,6.39-30.49a186.66,186.66,0,0,0-24.22,23.67l-13.21-5A191,191,0,0,1,190.29,266a187.59,187.59,0,0,1,141.38-30.81ZM195.19,404.7,180,398.89a140.22,140.22,0,0,1-2.72-19.2c-2.19-20-.8-41.18,2.92-63.35l12.92,5c-3.19,20.27-4.28,39.24-2.6,56.95a126.78,126.78,0,0,0,4.68,26.46Zm169,64.63L350,463.92c-2.23-11.24-6.49-20.79-12.71-28.46-8.75-10.74-20.34-18.18-36.38-22.73-1.37,11.82-3.86,21.59-7.44,29.56l-12.61-4.81c3.81-7.7,6.35-18,7.38-30.81-9.73-13.25-14.27-26.24-14.2-39.26a52,52,0,0,1,1.51-14.56L288,357.61a38.4,38.4,0,0,0-.87,9.17c.47,10.74,3.95,20.54,11.11,31.73,22,4.71,37.73,14.6,49.11,28.13,9,11.36,14.79,25.74,16.8,42.69ZM114.71,373.9a188.73,188.73,0,0,1,34.45-69.42l13.21,5a173,173,0,0,0-34.91,69.25l-12.75-4.88ZM486,433.34a184.69,184.69,0,0,1-2.67,21.7h0a188.24,188.24,0,0,1-18,53l-12.58-4.81a161.6,161.6,0,0,0,8.5-18.6h0c-9.65-28.16-19.82-52.65-32.57-73.21l19.36,7.42A423.65,423.65,0,0,1,468,464.48c.82-4.44,2.19-8,2.86-11.61h0a150.23,150.23,0,0,0,2.62-24.35l12.6,4.82Zm-273.9,5.3-20.58-7.85A122.71,122.71,0,0,1,180,398.9l15.2,5.8a109.16,109.16,0,0,0,16.94,33.94Zm63,24.1-20.41-7.81a29.57,29.57,0,0,0,15.06-4.43,32.47,32.47,0,0,0,11.13-13l12.61,4.81c-4,8.7-9.47,15.07-16.59,19.4a14.41,14.41,0,0,1-1.8,1Zm137.63,52.64-22.89-8.75c-7.23-6.82-16.1-11.79-27.48-15.6a44.62,44.62,0,0,1-2.94,4l-13.19-5c1.81-2.49,3.7-5.08,5.59-7.73a106,106,0,0,0-1.8-18.31l14.15,5.41a81,81,0,0,1,.65,8.36c18.76,5.76,32.3,15,42.2,28.29a56.86,56.86,0,0,1,5.71,9.4ZM110,399.59c.33-4.12,1-8.09,1.67-12.24h0c.87-4.59,1.91-9.14,3-13.45l12.74,4.88c-1,3.48-1.71,7.26-2.47,11h0c-.84,5-1.46,9.85-2,14.75l-13-5ZM465.38,508a193.83,193.83,0,0,1-13.61,22.27l-13.07-5a154.55,154.55,0,0,0,14.1-22.09L465.38,508ZM215.91,473l-12.46-4.78a120.24,120.24,0,0,0,5.76-12.72,113.5,113.5,0,0,1-17.66-24.73l20.58,7.85a90.67,90.67,0,0,0,5.81,7l2.18,1.17c13.65,5.76,25.09,8.55,34.6,8.14l20.41,7.81c-13.57,7.84-31.28,7.23-53.93-1.26-1.73,4.1-3.44,8-5.29,11.54Zm122.41,46.85-13.81-5.29A202,202,0,0,0,346.25,490l13.19,5a224.91,224.91,0,0,1-21.12,24.87ZM109.14,432.18a180.5,180.5,0,0,1,.85-32.59l13,5a178.38,178.38,0,0,0-.07,32.92l-13.82-5.3Zm342.63,98.13a183.43,183.43,0,0,1-21,24.93l-23.5-9c-1.15-13.13-4.57-24-10.85-32.33a63.58,63.58,0,0,0-6.58-7.28l22.89,8.75c4.35,8.91,6.86,19.37,7.44,31.21a168.37,168.37,0,0,0,18.51-21.27l13.06,5Zm-21,24.93a198.53,198.53,0,0,1-25,20.72,188.1,188.1,0,0,1-141.53,30.75h0a176.38,176.38,0,0,1-33.59-9.33l-1.06-.4a190.65,190.65,0,0,1-120.48-164.8L123,437.49a174.69,174.69,0,0,0,11.46,47.88c17.85,10.88,32.61,13.7,45.08,8.26,8.95-3.62,17-12.16,23.95-25.38L215.9,473c-8.55,16.84-18.7,27.74-31.13,33-12.45,5.45-26.08,5.15-40.83-1.37,2.65,5.95,6.31,11.06,9.95,16.31a169,169,0,0,0,29.18,32.85,149.11,149.11,0,0,0,26.18,2.43c9,1,17.53.2,26.1-.59,32.51-3,62.64-16,89.14-41.09l13.82,5.29c-30.07,29.87-64.44,45.08-101.51,49-9.47,1.31-18.58,1.18-28.35,1a8.86,8.86,0,0,0-3.91.1,188,188,0,0,0,62.1,23.58h0a175.36,175.36,0,0,0,131.05-28.22c3.54-2.36,7.25-5.53,10.61-7.92l-.67-.09c.06-3.84-.08-7.6-.35-11.07l23.51,9Z" transform="translate(-11.22 -134.53)"/><path class="cls-4" d="M297.64,139.81c155.26,0,281.13,125.87,281.13,281.13S452.9,702.08,297.64,702.08,16.5,576.21,16.5,420.94,142.37,139.81,297.64,139.81m0,470c104.3,0,188.85-84.55,188.85-188.86S401.94,232.09,297.64,232.09,108.78,316.64,108.78,420.94,193.34,609.8,297.64,609.8m0-475.27A285.54,285.54,0,1,0,409.12,157a284.76,284.76,0,0,0-111.48-22.51Zm0,470c-101.23,0-183.58-82.35-183.58-183.58s82.35-183.57,183.58-183.57,183.58,82.35,183.58,183.57S398.86,604.52,297.64,604.52Z" transform="translate(-11.22 -134.53)"/><path class="cls-4" d="M297.64,702.77a281.83,281.83,0,1,1,199.28-82.55A280,280,0,0,1,297.64,702.77Zm0-470c-103.76,0-188.17,84.41-188.17,188.16s84.41,188.17,188.17,188.17S485.81,524.7,485.81,420.94,401.39,232.78,297.64,232.78Z" transform="translate(-11.22 -134.53)"/><path class="cls-4" d="M297.64,139.81c155.26,0,281.13,125.87,281.13,281.13S452.9,702.08,297.64,702.08,16.5,576.21,16.5,420.94,142.37,139.81,297.64,139.81m0,470c104.3,0,188.85-84.55,188.85-188.86S401.94,232.09,297.64,232.09,108.78,316.64,108.78,420.94,193.34,609.8,297.64,609.8m0-471.37a281.71,281.71,0,1,0,110,22.21,280.62,280.62,0,0,0-110-22.21Zm0,470c-103.38,0-187.48-84.11-187.48-187.49s84.1-187.48,187.48-187.48,187.48,84.11,187.48,187.48S401,608.43,297.64,608.43Z" transform="translate(-11.22 -134.53)"/><text class="cls-5" transform="matrix(0.71, -0.7, 0.7, 0.71, 122.85, 170.57)">A</text><text class="cls-5" transform="translate(166.35 125.92) rotate(-26.7)">R</text><text class="cls-5" transform="translate(221.34 96.79) rotate(-8.7)">U</text><text class="cls-5" transform="translate(282.85 86.09) rotate(9.06)">C</text><text class="cls-5" transform="matrix(0.89, 0.45, -0.45, 0.89, 344.48, 94.58)">A</text><text class="cls-5" transform="translate(400.72 122.46) rotate(44.29)">S</text><text class="cls-5" transform="matrix(0.75, 0.66, -0.66, 0.75, 79, 466.8)">C</text><text class="cls-5" transform="matrix(0.88, 0.47, -0.47, 0.88, 146.26, 520.26)">.</text><text class="cls-5" transform="matrix(0.94, 0.35, -0.35, 0.94, 176.18, 535.62)"> </text><text class="cls-5" transform="matrix(0.99, 0.12, -0.12, 0.99, 216.35, 551.54)">D</text><text class="cls-5" transform="matrix(0.98, -0.18, 0.18, 0.98, 301.31, 559.39)">E</text><text class="cls-5" transform="matrix(0.93, -0.36, 0.36, 0.93, 370.64, 544.48)"> </text><text class="cls-5" transform="translate(393.88 535.55) rotate(-26.51)"> </text><text class="cls-5" transform="translate(430.35 517.67) rotate(-38.46)">F</text><text class="cls-5" transform="translate(474.67 481.12) rotate(-47.11)">.</text><path class="cls-6" d="M346.18,355.5c0,1.95-10.64,5.91-48.54,5.91s-48.55-4-48.55-5.91,10.65-5.91,48.55-5.91S346.18,353.55,346.18,355.5Z" transform="translate(-11.22 -134.53)"/><path class="cls-7" d="M255,353v5.1" transform="translate(-11.22 -134.53)"/><path class="cls-8" d="M256.76,352.54v5.92" transform="translate(-11.22 -134.53)"/><path class="cls-9" d="M258.56,352.27v6.47" transform="translate(-11.22 -134.53)"/><path class="cls-10" d="M260.36,351.93v7.14" transform="translate(-11.22 -134.53)"/><path class="cls-11" d="M262.16,351.63v7.74" transform="translate(-11.22 -134.53)"/><path class="cls-12" d="M264,351.37v8.26" transform="translate(-11.22 -134.53)"/><path class="cls-13" d="M265.76,351.11v8.78" transform="translate(-11.22 -134.53)"/><path class="cls-14" d="M267.56,350.89v9.22" transform="translate(-11.22 -134.53)"/><path class="cls-15" d="M269.36,350.75v9.5" transform="translate(-11.22 -134.53)"/><path class="cls-16" d="M271.16,350.58v9.84" transform="translate(-11.22 -134.53)"/><path class="cls-17" d="M273,350.33v10.34" transform="translate(-11.22 -134.53)"/><path class="cls-18" d="M274.76,350.18v10.64" transform="translate(-11.22 -134.53)"/><path class="cls-19" d="M276.56,350.12v10.76" transform="translate(-11.22 -134.53)"/><path class="cls-20" d="M278.37,350V361" transform="translate(-11.22 -134.53)"/><path class="cls-21" d="M280.17,349.83v11.34" transform="translate(-11.22 -134.53)"/><path class="cls-22" d="M282,349.76v11.48" transform="translate(-11.22 -134.53)"/><path class="cls-23" d="M283.77,349.64v11.72" transform="translate(-11.22 -134.53)"/><path class="cls-24" d="M285.57,349.56v11.88" transform="translate(-11.22 -134.53)"/><path class="cls-25" d="M287.37,349.33v12.34" transform="translate(-11.22 -134.53)"/><path class="cls-26" d="M289.17,349.33v12.34" transform="translate(-11.22 -134.53)"/><path class="cls-27" d="M291,349.33v12.34" transform="translate(-11.22 -134.53)"/><path class="cls-28" d="M292.77,349.33v12.34" transform="translate(-11.22 -134.53)"/><path class="cls-29" d="M251.35,354.18v2.64" transform="translate(-11.22 -134.53)"/><path class="cls-30" d="M253.15,353.52v4" transform="translate(-11.22 -134.53)"/><path class="cls-7" d="M340.32,353v5.1" transform="translate(-11.22 -134.53)"/><path class="cls-8" d="M338.52,352.54v5.92" transform="translate(-11.22 -134.53)"/><path class="cls-9" d="M336.72,352.27v6.47" transform="translate(-11.22 -134.53)"/><path class="cls-10" d="M334.92,351.93v7.14" transform="translate(-11.22 -134.53)"/><path class="cls-11" d="M333.12,351.63v7.74" transform="translate(-11.22 -134.53)"/><path class="cls-12" d="M331.32,351.37v8.26" transform="translate(-11.22 -134.53)"/><path class="cls-13" d="M329.52,351.11v8.78" transform="translate(-11.22 -134.53)"/><path class="cls-14" d="M327.72,350.89v9.22" transform="translate(-11.22 -134.53)"/><path class="cls-15" d="M325.91,350.75v9.5" transform="translate(-11.22 -134.53)"/><path class="cls-16" d="M324.11,350.58v9.84" transform="translate(-11.22 -134.53)"/><path class="cls-17" d="M322.31,350.33v10.34" transform="translate(-11.22 -134.53)"/><path class="cls-18" d="M320.51,350.18v10.64" transform="translate(-11.22 -134.53)"/><path class="cls-19" d="M318.71,350.12v10.76" transform="translate(-11.22 -134.53)"/><path class="cls-20" d="M316.91,350V361" transform="translate(-11.22 -134.53)"/><path class="cls-21" d="M315.11,349.83v11.34" transform="translate(-11.22 -134.53)"/><path class="cls-22" d="M313.31,349.76v11.48" transform="translate(-11.22 -134.53)"/><path class="cls-23" d="M311.51,349.64v11.72" transform="translate(-11.22 -134.53)"/><path class="cls-24" d="M309.71,349.56v11.88" transform="translate(-11.22 -134.53)"/><path class="cls-25" d="M307.91,349.33v12.34" transform="translate(-11.22 -134.53)"/><path class="cls-26" d="M306.11,349.33v12.34" transform="translate(-11.22 -134.53)"/><path class="cls-27" d="M304.3,349.33v12.34" transform="translate(-11.22 -134.53)"/><path class="cls-28" d="M302.5,349.33v12.34" transform="translate(-11.22 -134.53)"/><path class="cls-29" d="M343.92,354.18v2.64" transform="translate(-11.22 -134.53)"/><path class="cls-30" d="M342.12,353.52v4" transform="translate(-11.22 -134.53)"/><path class="cls-6" d="M294.23,318.54l1.66,1.58v3.5l-1.66,1.58c-1.43,1.34-2.83.59-6.21,2a3,3,0,0,1,.65-2.72,8.5,8.5,0,0,1-5.35-2.61,8.5,8.5,0,0,1,5.35-2.61,3,3,0,0,1-.65-2.71c3.38,1.4,4.78.65,6.21,2Z" transform="translate(-11.22 -134.53)"/><path class="cls-31" d="M295.08,321.87h-9.74" transform="translate(-11.22 -134.53)"/><path class="cls-31" d="M295.5,323c-2.85,1.77-4,1.25-6.14,2.72" transform="translate(-11.22 -134.53)"/><path class="cls-31" d="M295.5,320.76c-2.85-1.78-4-1.25-6.14-2.73" transform="translate(-11.22 -134.53)"/><path class="cls-6" d="M299.39,320.12l1.57-1.66c1.35-1.42.6-2.83,2-6.21a3,3,0,0,0-2.71.65,8.5,8.5,0,0,0-2.61-5.35A8.5,8.5,0,0,0,295,312.9a3,3,0,0,0-2.72-.65c1.41,3.38.66,4.79,2,6.21l1.58,1.66Z" transform="translate(-11.22 -134.53)"/><path class="cls-31" d="M297.64,319.31v-9.74" transform="translate(-11.22 -134.53)"/><path class="cls-31" d="M296.52,319.73c-1.77-2.85-1.25-4-2.72-6.14" transform="translate(-11.22 -134.53)"/><path class="cls-6" d="M248.69,341.57c-2.24-.95-6-5.6-7.76-8l-2.24,1.67a43.67,43.67,0,0,0,6.89,7.66,7.29,7.29,0,0,0,2.47,1.42Z" transform="translate(-11.22 -134.53)"/><path class="cls-6" d="M346.58,341.57c2.24-.95,6-5.6,7.77-8l2.24,1.67a44.07,44.07,0,0,1-6.89,7.66,7.38,7.38,0,0,1-2.47,1.42Z" transform="translate(-11.22 -134.53)"/><path class="cls-6" d="M280.23,332.66c-2.55,6-11,6.69-15.67,1.43-1.84,5.65-8.25,6.16-13,2.75-.36,6-7.43,5.63-12.88-1.62L235.54,331a1.45,1.45,0,0,1,.28-1.95,1.47,1.47,0,0,1,2,.28c1,1.4,3.14,4.19,3.14,4.19,4.34,5.8,11.35,7.57,5.94-1.84a1.4,1.4,0,0,1,2.4-1.44c4.67,7.91,14.65,8.44,12.69-1.52l-.86-4.34a1.4,1.4,0,0,1,2.75-.54l.85,4.34c1.85,9.34,14.65,8.81,13.49-.68a1.4,1.4,0,0,1,2.77-.33c1,9.54,15.28,9.26,15.28.06v-4.59a1.4,1.4,0,1,1,2.8,0v4.59c0,9.2,14.32,9.48,15.27-.06a1.4,1.4,0,0,1,1.55-1.12,1.41,1.41,0,0,1,1.23,1.45c-1.16,9.49,11.64,10,13.48.68l.86-4.34a1.4,1.4,0,0,1,2.74.54l-.85,4.34c-2,10,8,9.43,12.69,1.52a1.4,1.4,0,0,1,2.4,1.44c-5.41,9.41,1.6,7.64,5.94,1.84l3.14-4.19a1.46,1.46,0,0,1,2-.28,1.44,1.44,0,0,1,.28,1.95c-1,1.4-3.14,4.19-3.14,4.19-5.45,7.25-12.52,7.64-12.88,1.62-4.75,3.41-11.16,2.9-13-2.75-4.64,5.26-13.12,4.54-15.67-1.43-4.87,6.28-13.94,5.31-17.41-.29-3.47,5.6-12.55,6.57-17.41.29Z" transform="translate(-11.22 -134.53)"/><path class="cls-6" d="M272.53,328c-3-1-4.53-.15-6.18-1.39l-1.88-1.41-.73-3.48L265,320c1-1.46,3.12-1.1,5.36-2.6a3.07,3.07,0,0,1-.05,2.76,8.76,8.76,0,0,1,5.53,2.09,6.9,6.9,0,0,1-4.44,3.11A3.52,3.52,0,0,1,272.53,328Z" transform="translate(-11.22 -134.53)"/><path class="cls-6" d="M260.49,322l-1.87-1.4c-1.61-1.21-3.25-.4-6.19-1.4a3.5,3.5,0,0,0,1.17,2.64,6.86,6.86,0,0,0-4.44,3.12,8.77,8.77,0,0,0,5.52,2.07,3.1,3.1,0,0,0-.05,2.76c2.78-1.65,4.33-1.12,5.36-2.58l1.23-1.73Z" transform="translate(-11.22 -134.53)"/><path class="cls-31" d="M260.11,323.89c-4.23-.05-5.42.49-9.14.9" transform="translate(-11.22 -134.53)"/><path class="cls-31" d="M260,322.52c-2.68-1.67-4.57-1-6.28-2.16" transform="translate(-11.22 -134.53)"/><path class="cls-31" d="M260.48,325.33c-1.83,1.78-3.23,1.16-4.82,2.67" transform="translate(-11.22 -134.53)"/><path class="cls-6" d="M263.75,321.67l1.12-1.8c.94-1.53,0-3.25.59-6.36a2.51,2.51,0,0,0-2.4.91,8.16,8.16,0,0,0-4-4.95c-.55,1.87-1.39,3.57-.58,5.71a3.55,3.55,0,0,0-2.93-.64c1.9,2.9,1.49,4.6,3.15,6l1.81,1.5Z" transform="translate(-11.22 -134.53)"/><path class="cls-31" d="M263.12,321c.86-2,.09-4,1.19-6.24" transform="translate(-11.22 -134.53)"/><path class="cls-31" d="M260.88,321.44c-2.18-2.2-2.05-4.2-3.66-5.81" transform="translate(-11.22 -134.53)"/><path class="cls-31" d="M262,321c-1.38-3.67-1-6.47-2.31-9.7" transform="translate(-11.22 -134.53)"/><path class="cls-31" d="M264.11,322.15c1.82-2,3.41-1.45,5.24-3.11" transform="translate(-11.22 -134.53)"/><path class="cls-31" d="M264.56,324.53c2.61,1,3.48.4,6.27,2.05" transform="translate(-11.22 -134.53)"/><path class="cls-31" d="M264.87,323.39c4-1.08,5.59-.34,9.2-1" transform="translate(-11.22 -134.53)"/><path class="cls-32" d="M265.22,323.57a2.83,2.83,0,1,1-2.83-2.82A2.83,2.83,0,0,1,265.22,323.57Z" transform="translate(-11.22 -134.53)"/><path class="cls-6" d="M233.06,327.37c-1.93-2.75-3.53-4.51-9.44-5,2-3,6.23-3.92,9-1.14a3.44,3.44,0,0,1,1.14-1.71c.65,2,3.53,3.48,2.38,7L235,330Z" transform="translate(-11.22 -134.53)"/><path class="cls-31" d="M234.2,328.94c-.17-1.45.33-2.76.24-3.92-.16-2.13-.86-2.84-.77-3.95" transform="translate(-11.22 -134.53)"/><path class="cls-6" d="M234.52,329.44c1.06-1.9,1.27-2.95,2.07-4a21.43,21.43,0,0,1,3-2.76,4.31,4.31,0,0,1,.45,2.7c1.37-.43,2.79.19,4.07,1.1-.44,1.62-1.14,3.11-2.43,3.78a4,4,0,0,1,1.25,2.37,20.23,20.23,0,0,0-4.24.06,3.39,3.39,0,0,1-2.83-.53Z" transform="translate(-11.22 -134.53)"/><path class="cls-31" d="M235.24,330.69c2.3-1.86,4.41-2.2,7.17-3.77" transform="translate(-11.22 -134.53)"/><path class="cls-31" d="M234.85,329.66c1-1.69,3.07-2.64,4.19-5.27" transform="translate(-11.22 -134.53)"/><path class="cls-31" d="M235.56,331.64c2,.27,3.18-.87,5.55,0" transform="translate(-11.22 -134.53)"/><path class="cls-32" d="M235.91,332.18a2.76,2.76,0,0,1-1.21.28,2.82,2.82,0,0,1-2.83-2.81,2.78,2.78,0,0,1,1.19-2.28A7.38,7.38,0,0,1,235.91,332.18Z" transform="translate(-11.22 -134.53)"/><path class="cls-6" d="M322.74,328c3-1,4.54-.15,6.19-1.39l1.88-1.41.72-3.48L330.31,320c-1.05-1.46-3.13-1.1-5.36-2.6a3.07,3.07,0,0,0,0,2.76,8.74,8.74,0,0,0-5.52,2.09,6.85,6.85,0,0,0,4.44,3.11,3.5,3.5,0,0,0-1.17,2.64Z" transform="translate(-11.22 -134.53)"/><path class="cls-6" d="M334.78,322l1.88-1.4c1.61-1.21,3.24-.4,6.18-1.4a3.49,3.49,0,0,1-1.16,2.64,6.89,6.89,0,0,1,4.44,3.12A8.77,8.77,0,0,1,340.6,327a3.1,3.1,0,0,1,0,2.76c-2.78-1.65-4.33-1.12-5.36-2.58l-1.22-1.73Z" transform="translate(-11.22 -134.53)"/><path class="cls-31" d="M335.16,323.89c4.23-.05,5.43.49,9.15.9" transform="translate(-11.22 -134.53)"/><path class="cls-31" d="M335.29,322.52c2.69-1.67,4.58-1,6.29-2.16" transform="translate(-11.22 -134.53)"/><path class="cls-31" d="M334.8,325.33c1.83,1.78,3.23,1.16,4.82,2.67" transform="translate(-11.22 -134.53)"/><path class="cls-6" d="M331.52,321.67l-1.11-1.8c-1-1.53,0-3.25-.59-6.36a2.48,2.48,0,0,1,2.39.91,8.17,8.17,0,0,1,4-4.95c.55,1.87,1.39,3.57.57,5.71a3.55,3.55,0,0,1,2.93-.64c-1.9,2.9-1.48,4.6-3.14,6l-1.81,1.5Z" transform="translate(-11.22 -134.53)"/><path class="cls-31" d="M332.16,321c-.86-2-.1-4-1.19-6.24" transform="translate(-11.22 -134.53)"/><path class="cls-31" d="M334.4,321.44c2.17-2.2,2.05-4.2,3.65-5.81" transform="translate(-11.22 -134.53)"/><path class="cls-31" d="M333.32,321c1.38-3.67,1.05-6.47,2.32-9.7" transform="translate(-11.22 -134.53)"/><path class="cls-31" d="M331.16,322.15c-1.82-2-3.4-1.45-5.23-3.11" transform="translate(-11.22 -134.53)"/><path class="cls-31" d="M330.72,324.53c-2.62,1-3.48.4-6.28,2.05" transform="translate(-11.22 -134.53)"/><path class="cls-31" d="M330.4,323.39c-3.95-1.08-5.59-.34-9.19-1" transform="translate(-11.22 -134.53)"/><path class="cls-6" d="M362.21,327.37c1.93-2.75,3.53-4.51,9.44-5-2-3-6.23-3.92-9-1.14a3.38,3.38,0,0,0-1.14-1.71c-.64,2-3.52,3.48-2.38,7l1.12,3.49Z" transform="translate(-11.22 -134.53)"/><path class="cls-6" d="M360.76,329.44c-1.07-1.9-1.28-2.95-2.07-4a22,22,0,0,0-3.05-2.76,4.25,4.25,0,0,0-.46,2.7c-1.37-.43-2.78.19-4.07,1.1a5.7,5.7,0,0,0,2.44,3.78,4,4,0,0,0-1.25,2.37,20.22,20.22,0,0,1,4.24.06,3.41,3.41,0,0,0,2.83-.53Z" transform="translate(-11.22 -134.53)"/><path class="cls-31" d="M361.07,328.94c.17-1.45-.33-2.76-.24-3.92.17-2.13.86-2.84.77-3.95" transform="translate(-11.22 -134.53)"/><path class="cls-31" d="M360,330.69c-2.3-1.86-4.4-2.2-7.17-3.77" transform="translate(-11.22 -134.53)"/><path class="cls-31" d="M360.43,329.66c-1-1.69-3.07-2.64-4.19-5.27" transform="translate(-11.22 -134.53)"/><path class="cls-31" d="M359.71,331.64c-2,.27-3.18-.87-5.54,0" transform="translate(-11.22 -134.53)"/><path class="cls-32" d="M359.37,332.18a2.73,2.73,0,0,0,1.21.28,2.82,2.82,0,0,0,2.83-2.81,2.79,2.79,0,0,0-1.2-2.28A7.37,7.37,0,0,0,359.37,332.18Z" transform="translate(-11.22 -134.53)"/><path class="cls-6" d="M301.05,318.54l-1.67,1.58v3.5l1.67,1.58c1.42,1.34,2.83.59,6.21,2a3.06,3.06,0,0,0-.66-2.72,8.53,8.53,0,0,0,5.36-2.61,8.53,8.53,0,0,0-5.36-2.61,3.05,3.05,0,0,0,.66-2.71C303.88,318,302.47,317.2,301.05,318.54Z" transform="translate(-11.22 -134.53)"/><path class="cls-31" d="M300.2,321.87h9.74" transform="translate(-11.22 -134.53)"/><path class="cls-31" d="M299.77,323c2.86,1.77,4,1.25,6.14,2.72" transform="translate(-11.22 -134.53)"/><path class="cls-31" d="M299.77,320.76c2.86-1.78,4-1.25,6.14-2.73" transform="translate(-11.22 -134.53)"/><path class="cls-31" d="M298.75,319.73c1.77-2.85,1.25-4,2.73-6.14" transform="translate(-11.22 -134.53)"/><path class="cls-32" d="M300.46,321.87a2.83,2.83,0,1,1-2.82-2.83A2.83,2.83,0,0,1,300.46,321.87Z" transform="translate(-11.22 -134.53)"/><path class="cls-33" d="M281.69,326.66a2.2,2.2,0,1,1-2.2-2.2A2.21,2.21,0,0,1,281.69,326.66Z" transform="translate(-11.22 -134.53)"/><path class="cls-33" d="M250,330.31a2.2,2.2,0,1,1-2.2-2.2A2.2,2.2,0,0,1,250,330.31Z" transform="translate(-11.22 -134.53)"/><path class="cls-34" d="M297.64,349.63c-39.05,0-51-4.47-51-5.13s11.94-5.14,51-5.14,51,4.47,51,5.14-11.94,5.13-51,5.13Zm-38.51.89c-9.1-1.21-15.82-3.09-15.82-6,0-6.81,36.3-8,54.33-8s54.32,1.19,54.32,8c0,2.93-6.72,4.81-15.81,6Z" transform="translate(-11.22 -134.53)"/><path class="cls-6" d="M268.73,350.52l-19.29,4.1a37.35,37.35,0,0,0-3.05-9.85c-.88-1.72,16.69-5.63,51.25-5.63s52.13,3.91,51.25,5.63a37.35,37.35,0,0,0-3.05,9.85l-19.29-4.1Z" transform="translate(-11.22 -134.53)"/><path class="cls-35" d="M263.5,343.48l10-.93a1.8,1.8,0,1,1,.34,3.59l-10,.94a1.81,1.81,0,1,1-.34-3.6Z" transform="translate(-11.22 -134.53)"/><path class="cls-33" d="M258.21,346.34a2.2,2.2,0,1,1-2.2-2.2A2.2,2.2,0,0,1,258.21,346.34Z" transform="translate(-11.22 -134.53)"/><path class="cls-33" d="M284.64,343.94a2.2,2.2,0,1,1-2.2-2.2A2.21,2.21,0,0,1,284.64,343.94Z" transform="translate(-11.22 -134.53)"/><path class="cls-36" d="M246.24,349.47l1.12-2.51,3.63.63-2.42,3.22Z" transform="translate(-11.22 -134.53)"/><path class="cls-31" d="M246.24,349.47l4.75-1.88" transform="translate(-11.22 -134.53)"/><path class="cls-34" d="M344.82,355.5c0,.62-11.05,4.76-47.18,4.76s-47.19-4.14-47.19-4.76,11.05-4.76,47.19-4.76S344.82,354.88,344.82,355.5Zm3.09,0c0,6.32-33.59,7.41-50.27,7.41s-50.27-1.09-50.27-7.41,33.58-7.41,50.27-7.41S347.91,349.18,347.91,355.5Z" transform="translate(-11.22 -134.53)"/><path class="cls-36" d="M292.22,341.77l-2.82,1.89,2.82,1.89h10.84l2.82-1.89-2.82-1.89Z" transform="translate(-11.22 -134.53)"/><path class="cls-31" d="M292.22,341.77l2.6,1.69-2.6,2.09" transform="translate(-11.22 -134.53)"/><path class="cls-31" d="M289.4,343.66l5.42-.2h5.64l5.42.2" transform="translate(-11.22 -134.53)"/><path class="cls-31" d="M303.06,341.77l-2.6,1.69,2.6,2.09" transform="translate(-11.22 -134.53)"/><path class="cls-35" d="M331.66,343.48l-10-.93a1.8,1.8,0,1,0-.34,3.59l10,.94a1.81,1.81,0,1,0,.34-3.6Z" transform="translate(-11.22 -134.53)"/><path class="cls-36" d="M348.92,349.47,347.8,347l-3.63.63,2.42,3.22Z" transform="translate(-11.22 -134.53)"/><path class="cls-31" d="M348.92,349.47l-4.75-1.88" transform="translate(-11.22 -134.53)"/><path class="cls-33" d="M313.59,326.66a2.2,2.2,0,1,0,2.2-2.2A2.2,2.2,0,0,0,313.59,326.66Z" transform="translate(-11.22 -134.53)"/><path class="cls-33" d="M345.29,330.31a2.2,2.2,0,1,0,2.2-2.2A2.19,2.19,0,0,0,345.29,330.31Z" transform="translate(-11.22 -134.53)"/><path class="cls-33" d="M337.07,346.34a2.2,2.2,0,1,0,2.2-2.2A2.19,2.19,0,0,0,337.07,346.34Z" transform="translate(-11.22 -134.53)"/><path class="cls-33" d="M310.64,343.94a2.2,2.2,0,1,0,2.2-2.2A2.2,2.2,0,0,0,310.64,343.94Z" transform="translate(-11.22 -134.53)"/><path class="cls-32" d="M330.06,323.57a2.83,2.83,0,1,0,2.82-2.82A2.82,2.82,0,0,0,330.06,323.57Z" transform="translate(-11.22 -134.53)"/><path class="cls-33" d="M284.24,509.82c1.18-5.88-19.9-10.39-22.59-4.92a1.62,1.62,0,0,0-.17.59,14.91,14.91,0,0,0,1.38,7.79c5.12-1.13,14.11.62,18.19,3.49a13.34,13.34,0,0,0,3.19-6.95Z" transform="translate(-11.22 -134.53)"/><path class="cls-33" d="M226.77,510.14a25.51,25.51,0,0,1-.17-9.87,1.52,1.52,0,0,1,.25-.63c1.69-2.42,3.93.47,9.56.32a39.7,39.7,0,0,0-2.53,10.5Z" transform="translate(-11.22 -134.53)"/><path class="cls-33" d="M268,512c0-.1.06-.18.08-.27.71-3.31-6.9-3.63-6.63-6.25a46.7,46.7,0,0,1-2.23,10.17c-.64,1.93,2.76,3.77,5.23,4.38a22.25,22.25,0,0,0,3.55-8Z" transform="translate(-11.22 -134.53)"/><path class="cls-33" d="M266.45,522.3a1.83,1.83,0,0,1-.12.53c-1.68,4.83-15.51,5.67-27.15,1.09-10.36-4.08-15.56-9.57-15.56-12.76a1.66,1.66,0,0,1,.12-.64,44.6,44.6,0,0,0,2.86-10.25c-.48,3.09,6.28,9.92,17,13.84,11.38,4.17,22.83,2.73,24.45-2.1a2.76,2.76,0,0,0,.08-.27A77.45,77.45,0,0,0,266.45,522.3Z" transform="translate(-11.22 -134.53)"/><path class="cls-33" d="M277.36,522.41c1.79,0,5.72,0,5.82-2.46a64.31,64.31,0,0,1,1.06-10.13,2.44,2.44,0,0,1-.14.46c-1.16,2.92-7.67.33-8.65,2.81a1.18,1.18,0,0,0-.09.46,21.36,21.36,0,0,0,2,8.86Z" transform="translate(-11.22 -134.53)"/><path class="cls-33" d="M311,509.82c-1.19-5.88,19.89-10.39,22.58-4.92a1.88,1.88,0,0,1,.18.59,15,15,0,0,1-1.38,7.79c-5.13-1.13-14.11.62-18.2,3.49a13.41,13.41,0,0,1-3.18-6.95Z" transform="translate(-11.22 -134.53)"/><path class="cls-33" d="M368.51,510.14a25.7,25.7,0,0,0,.17-9.87,1.52,1.52,0,0,0-.25-.63c-1.7-2.42-3.94.47-9.57.32a39.7,39.7,0,0,1,2.53,10.5Z" transform="translate(-11.22 -134.53)"/><path class="cls-33" d="M327.24,512c0-.1-.05-.18-.07-.27-.72-3.31,6.89-3.63,6.63-6.25A46.12,46.12,0,0,0,336,515.66c.64,1.93-2.76,3.77-5.22,4.38a22.26,22.26,0,0,1-3.56-8Z" transform="translate(-11.22 -134.53)"/><path class="cls-33" d="M328.83,522.3a2.18,2.18,0,0,0,.11.53c1.68,4.83,15.51,5.67,27.16,1.09,10.35-4.08,15.55-9.57,15.55-12.76a1.66,1.66,0,0,0-.11-.64,44.11,44.11,0,0,1-2.86-10.25c.48,3.09-6.29,9.92-17,13.84-11.38,4.17-22.84,2.73-24.46-2.1a2.68,2.68,0,0,1-.07-.27,77.45,77.45,0,0,1,1.66,10.56Z" transform="translate(-11.22 -134.53)"/><path class="cls-33" d="M317.91,522.41c-1.78,0-5.72,0-5.81-2.46A64.31,64.31,0,0,0,311,509.82a2.42,2.42,0,0,0,.13.46c1.17,2.92,7.68.33,8.66,2.81a1.39,1.39,0,0,1,.08.46,21.21,21.21,0,0,1-2,8.86Z" transform="translate(-11.22 -134.53)"/><path class="cls-33" d="M319.91,513.55a55,55,0,0,0,.92,10.58c.71,3.63-8.05,10.21-23.19,10.21s-23.9-6.58-23.19-10.21a55,55,0,0,0,.91-10.58c0,3.69,9.08,10.29,22.28,10.29s22.26-6.6,22.27-10.29Z" transform="translate(-11.22 -134.53)"/><path class="cls-37" d="M291.23,525.35l5.45.47.48,1.82-.44.13a2.53,2.53,0,0,0-.29-.71,1.81,1.81,0,0,0-.41-.46,1.62,1.62,0,0,0-.51-.28,5.6,5.6,0,0,0-1-.14l-1.62-.14-.22,2.46.81.07a1.26,1.26,0,0,0,.69-.1.74.74,0,0,0,.35-.35,2.08,2.08,0,0,0,.12-.58v-.11l.47,0-.26,2.94-.47,0,0-.25a1.47,1.47,0,0,0,0-.49.63.63,0,0,0-.16-.3.73.73,0,0,0-.27-.2,1.64,1.64,0,0,0-.53-.1l-.81-.07-.18,2.19a1.5,1.5,0,0,0,0,.42.21.21,0,0,0,.1.11,1.13,1.13,0,0,0,.39.07l1,.09a3.77,3.77,0,0,0,1.33-.09,2.25,2.25,0,0,0,.89-.55,3.71,3.71,0,0,0,.63-.88l.42.19-.93,2-5.66-.49,0-.4.2,0a1.61,1.61,0,0,0,.42,0,.48.48,0,0,0,.21-.19,1.13,1.13,0,0,0,.08-.41l.4-4.62a.81.81,0,0,0,0-.42.33.33,0,0,0-.2-.18,2.22,2.22,0,0,0-.57-.09Z" transform="translate(-11.22 -134.53)"/><path class="cls-37" d="M298.75,525.55l.34,0,.06.22,4.12-.31,0-.23.35,0,.86,1.92-.42.18a2.44,2.44,0,0,0-.83-1,1.81,1.81,0,0,0-1.12-.24,1.6,1.6,0,0,0-.33,0,.14.14,0,0,0-.07.08,1.35,1.35,0,0,0,0,.34l.35,4.66a2.05,2.05,0,0,0,.06.44.62.62,0,0,0,.12.17.41.41,0,0,0,.19.08,3.42,3.42,0,0,0,.54,0l0,.4-2.59.2,0-.41a2.12,2.12,0,0,0,.52-.07.38.38,0,0,0,.23-.2,1.17,1.17,0,0,0,0-.5l-.36-4.76a.88.88,0,0,0,0-.27.15.15,0,0,0-.09-.06.58.58,0,0,0-.25,0,2,2,0,0,0-.83.2,1.62,1.62,0,0,0-.56.5,2.93,2.93,0,0,0-.41.87l-.44-.12Z" transform="translate(-11.22 -134.53)"/><path class="cls-37" d="M333.4,517.5l2.55.59-.1.4-.23,0a.89.89,0,0,0-.4,0,.31.31,0,0,0-.2.11.86.86,0,0,0-.14.34l-1.07,4.57a1.33,1.33,0,0,0-.06.38.18.18,0,0,0,.09.15,1.36,1.36,0,0,0,.37.12l.36.08a3,3,0,0,0,1.09.08,2.28,2.28,0,0,0,.89-.33,3.65,3.65,0,0,0,.86-.86l.39.24-1.22,1.88-4.72-1.11.1-.39.2,0a1,1,0,0,0,.42,0,.37.37,0,0,0,.2-.13,1,1,0,0,0,.15-.4l1.05-4.46a1.3,1.3,0,0,0,0-.47.31.31,0,0,0-.11-.2,1.1,1.1,0,0,0-.4-.15l-.21,0Z" transform="translate(-11.22 -134.53)"/><path class="cls-37" d="M340,518.39l.8,0,2.24,5.57a1.51,1.51,0,0,0,.32.55.67.67,0,0,0,.43.13h.11V525l-2.4.06v-.4l.23,0a.64.64,0,0,0,.3,0,.27.27,0,0,0,.13-.24,2,2,0,0,0-.15-.49l-.47-1.29-2.45.06-.48,1.47a1.23,1.23,0,0,0-.07.32.34.34,0,0,0,.05.17.42.42,0,0,0,.15.11,1,1,0,0,0,.28,0h.21v.41l-2,.05v-.4a1.15,1.15,0,0,0,.4-.07.6.6,0,0,0,.21-.18,2.52,2.52,0,0,0,.22-.53Zm-.74,3.79,2.08-.06-1.12-2.87Z" transform="translate(-11.22 -134.53)"/><path class="cls-37" d="M343,518.33l3.13-.64a7.69,7.69,0,0,1,1.6-.21,1.92,1.92,0,0,1,1.1.34,1.43,1.43,0,0,1,.57.88,1.53,1.53,0,0,1-.05.77,1.82,1.82,0,0,1-.45.65,2.59,2.59,0,0,1-.6.39,3.14,3.14,0,0,1,.83.06,1.61,1.61,0,0,1,.76.44,1.61,1.61,0,0,1,.34,1.67,1.85,1.85,0,0,1-.53.76,2.47,2.47,0,0,1-.92.51,9.49,9.49,0,0,1-1.14.3l-3.31.67-.08-.39.22,0a.63.63,0,0,0,.42-.19.52.52,0,0,0,.08-.49l-.93-4.58a1.24,1.24,0,0,0-.14-.43.33.33,0,0,0-.19-.14,1.06,1.06,0,0,0-.41,0l-.22.05Zm1.82.17.49,2.42,1.21-.24a5.71,5.71,0,0,0,1.14-.32,1.44,1.44,0,0,0,.65-.58,1.21,1.21,0,0,0,.1-.85,1,1,0,0,0-.37-.63,1.18,1.18,0,0,0-.7-.24,5.2,5.2,0,0,0-1.07.15Zm.58,2.87.44,2.17a1.07,1.07,0,0,0,.11.38.22.22,0,0,0,.17.09,2.12,2.12,0,0,0,.46-.07l.64-.13a6.14,6.14,0,0,0,1.35-.38,1.32,1.32,0,0,0,.6-.59,1.29,1.29,0,0,0,.13-.89,1.24,1.24,0,0,0-.39-.67,1.29,1.29,0,0,0-.74-.32,5,5,0,0,0-1.49.16Z" transform="translate(-11.22 -134.53)"/><path class="cls-37" d="M352.5,515.72a3.26,3.26,0,0,1,1.71-.19,3.4,3.4,0,0,1,1.6.72,3.52,3.52,0,0,1,1,1.5,3.44,3.44,0,0,1,0,2.71,3.29,3.29,0,0,1-2,1.79,3.25,3.25,0,0,1-2.89-.15,3.75,3.75,0,0,1-1.78-3.69,3.25,3.25,0,0,1,.74-1.62,3.63,3.63,0,0,1,1.53-1.07Zm.18.48a2.28,2.28,0,0,0-1.08.79,2.5,2.5,0,0,0-.45,1.26,4.28,4.28,0,0,0,1.16,3,2.57,2.57,0,0,0,1.17.62,2.2,2.2,0,0,0,1.26-.11,2.15,2.15,0,0,0,1-.74,2.54,2.54,0,0,0,.42-1.31,4,4,0,0,0-.27-1.64,4.12,4.12,0,0,0-.91-1.43,2.07,2.07,0,0,0-1.06-.61,2.13,2.13,0,0,0-1.22.13Z" transform="translate(-11.22 -134.53)"/><path class="cls-37" d="M355.58,514.69l3-1.72a4.33,4.33,0,0,1,1.4-.56,1.64,1.64,0,0,1,1,.14,1.5,1.5,0,0,1,.68.64,1.64,1.64,0,0,1,.23.95,1.73,1.73,0,0,1-.35.93,3.2,3.2,0,0,1-1,.87l2.62,1,.41.15a1.21,1.21,0,0,0,.42,0,1,1,0,0,0,.4-.14l.11-.06.2.35-1.34.76-3.73-1.57-.75.42,1,1.81a2.55,2.55,0,0,0,.24.36.37.37,0,0,0,.26.12,1.13,1.13,0,0,0,.44-.17l.15-.08.2.35-2.25,1.27-.2-.35.2-.11a1.82,1.82,0,0,0,.29-.2.37.37,0,0,0,.08-.18.49.49,0,0,0,0-.24A4.36,4.36,0,0,0,359,519l-2.18-3.84a1,1,0,0,0-.25-.33.36.36,0,0,0-.23-.08.86.86,0,0,0-.34.13l-.24.14Zm1.78-.41,1.25,2.2,1.21-.68a3.91,3.91,0,0,0,.81-.56,1.21,1.21,0,0,0,.35-.69,1.29,1.29,0,0,0-.19-.8,1.32,1.32,0,0,0-.48-.51,1.07,1.07,0,0,0-.61-.13,2.23,2.23,0,0,0-.82.31Z" transform="translate(-11.22 -134.53)"/><path class="cls-37" d="M362.72,510.07l.58-.55,5.38,2.68a1.45,1.45,0,0,0,.61.2.65.65,0,0,0,.4-.19l.08-.07.28.29-1.75,1.64-.28-.29.16-.16a.76.76,0,0,0,.19-.25.29.29,0,0,0-.06-.26,2.22,2.22,0,0,0-.44-.27l-1.21-.65-1.79,1.67.62,1.42a.88.88,0,0,0,.16.28.31.31,0,0,0,.15.1.33.33,0,0,0,.17,0,.7.7,0,0,0,.23-.17l.16-.14.28.3L365.17,517l-.28-.29a1.19,1.19,0,0,0,.26-.31.65.65,0,0,0,0-.28,2.2,2.2,0,0,0-.18-.55Zm2,3.32L366.2,512l-2.74-1.4Z" transform="translate(-11.22 -134.53)"/><path class="cls-37" d="M239.5,514.22a3.19,3.19,0,0,1,1.3,1.13,3.3,3.3,0,0,1,.18,3.43,3.47,3.47,0,0,1-2,1.86,3.34,3.34,0,0,1-2.65-.2,3.26,3.26,0,0,1-1.86-2.22A3.73,3.73,0,0,1,236,514.4a3.21,3.21,0,0,1,1.69-.56,3.68,3.68,0,0,1,1.83.38Zm-.23.47a2.34,2.34,0,0,0-1.31-.26,2.48,2.48,0,0,0-1.23.53,3.87,3.87,0,0,0-1,1.35,3.68,3.68,0,0,0-.41,1.58,2.41,2.41,0,0,0,.34,1.27,2.22,2.22,0,0,0,.94.85,2.1,2.1,0,0,0,1.22.21,2.51,2.51,0,0,0,1.23-.58,3.77,3.77,0,0,0,1-1.32,4,4,0,0,0,.42-1.64,2,2,0,0,0-.27-1.19,2.07,2.07,0,0,0-.93-.8Z" transform="translate(-11.22 -134.53)"/><path class="cls-37" d="M242.44,515.78l3.32,1a4.18,4.18,0,0,1,1.37.64,1.66,1.66,0,0,1,.56.8,1.51,1.51,0,0,1,0,.94,1.76,1.76,0,0,1-.54.81,1.83,1.83,0,0,1-.92.39,3.36,3.36,0,0,1-1.33-.17l1,2.6c.09.22.15.35.18.41a1,1,0,0,0,.27.32,1.31,1.31,0,0,0,.37.2l.12,0-.12.39-1.47-.46-1.4-3.8-.82-.26-.62,2a2.11,2.11,0,0,0-.11.42.41.41,0,0,0,.09.28,1.33,1.33,0,0,0,.43.2l.16.05-.12.39-2.46-.77.12-.39.22.07a1.32,1.32,0,0,0,.34.07.33.33,0,0,0,.19-.06.57.57,0,0,0,.16-.18s.07-.19.16-.46l1.31-4.21a1.07,1.07,0,0,0,.07-.41.35.35,0,0,0-.1-.22.76.76,0,0,0-.33-.17l-.26-.08Zm1.52,1-.76,2.42,1.33.42a3.68,3.68,0,0,0,1,.21,1.18,1.18,0,0,0,1.19-.9,1.31,1.31,0,0,0,0-.7,1,1,0,0,0-.32-.53,2.07,2.07,0,0,0-.78-.4Z" transform="translate(-11.22 -134.53)"/><path class="cls-37" d="M251.27,518.09l.79.1,1.39,5.84a1.46,1.46,0,0,0,.23.6.65.65,0,0,0,.41.18l.1,0-.05.4-2.38-.3.05-.4.23,0a.58.58,0,0,0,.31,0,.26.26,0,0,0,.16-.21,1.91,1.91,0,0,0-.07-.51l-.28-1.35-2.42-.3-.7,1.38a1.74,1.74,0,0,0-.12.3.28.28,0,0,0,0,.18.34.34,0,0,0,.12.12.75.75,0,0,0,.28.07l.21,0-.05.41-2-.25.05-.4a1,1,0,0,0,.4,0,.61.61,0,0,0,.24-.15,2.85,2.85,0,0,0,.31-.49Zm-1.3,3.63L252,522l-.68-3Z" transform="translate(-11.22 -134.53)"/><path class="cls-36" d="M239.84,358.51V468.38a28.9,28.9,0,0,0,28.9,28.9h14.45a16.48,16.48,0,0,1,14.45,9.26,16.46,16.46,0,0,1,14.45-9.26h14.45a28.9,28.9,0,0,0,28.9-28.9V358.51Z" transform="translate(-11.22 -134.53)"/><path class="cls-6" d="M239.84,358.51v69.38h115.6V358.51Z" transform="translate(-11.22 -134.53)"/><path class="cls-35" d="M282.8,412.9c-.17.94.8,0,1.26,1.18.68,1.76,2.32.27,2.48.24s.78-.17.67-.56c-.26-1,.77-.35,1-1.21.15-.48-.81-.73.31-1s-1-.14,0-.55-.89-.64.38-1.19c.47-.2-1.17-.39-.4-1s-.05-.87,0-1.38.84-1-.17-1c-1.28.05,1.48-.91.14-1-.8-.09,0-1.52-1.09-.73-1.28.92,0-1.23-1-.51-.44.3-.84.58-.53-.05.16-.31-1.25,0-.32-.48s-.87-.74-.85-.76c.64-.66.09-1.17-.88-.67-.54.28,1.28-1.14.12-1-.63.09-.62.52-.48-.29.1-.62-1.59.48-1.48.4,1-.74-.08-1.05-.74-.4-.37.37-.39.66-1,.63s-.36.4-.47-.17c-.18-.85-1.86.92-1.47,0,.47-1.14-1.49.07-.45-1,.83-.83-1.08.06-1.56.21-.76.24.09.78-.52,1.41-.44.44-1.48.34-.45-.21.45-.25-1.3.06-.3-.63.37-.25-.51-.9-1-.27s-.75-.53-1,.3c-.13.47-.33.48-.93.74-.39.18.26.73-.48,1.12-1,.52,1,.91.14,1.33-.36.17-.69.1-.76-.11-.22-.68-.34.16-.72,0s-.49-.71-.58,0c-.05.46-.16,1.76-1,1.4-1-.44.55.59-.28,1.12-.61.38.6.71.47,1.08,0,.1-.55.11-.77.51s.23,1.25.12,1.3" transform="translate(-11.22 -134.53)"/><path class="cls-35" d="M263.82,415.23c.22-.37-.44-.54-.18-1.43s-.68-1.19-.5-2.1c.23-1.13-1.44.64-.9-.48.37-.79.54-.73,0-.82s-.63-1-.89-.06c-.33,1.16.46-.41.23-.13s-1,1.56-1.18.73c-.08-.33-.71,1.2-.3.25.32-.73-2.49-.62-2.49-.67.06-1-.86-.85-1.17,0-.11.32.11-1.65-.48-.85-.44.58-.2.18-.5-.07-.5-.44-.78,1.87-.72.7s-1,.17-.86.79c.08.3,0,.35-.37.55s-.09.72-.42.2-.38.38-.61.73-.3-.59-.56-.55c-.52.07-.92.77-.87-.1.05-1.06-.71.56-1,.87-.56.64.45.64.38,1.46,0,.52-.92,1-.48.15.3-.61-.93.67-.57-.42.17-.5-.93-.36-.91.35s-.83-.14-.54.6c.18.45.07.54-.25,1.07-.22.37.68.45.31,1.14-.29.52.1.14.57.16.29,0,.4.37-.12.51s-.89.35-.9.61c0,.86-.6.21-.79.51-.31.47,1.28.79.27,1s.28.67-.12,1.5c-.31.67,1.41,0,1.33.51,0,.19.4,1.91.31,2.08" transform="translate(-11.22 -134.53)"/><path class="cls-35" d="M244.51,427.89h-4.67V419c.22-.35,2.37.2,1.32-.21s.57-.61,1-.26c.23.17.27.17.63,0s.67.23.33-.19.47-.11.9-.13-.43-.4-.27-.58,1-.3.26-.6c-1-.37.77-.26,1.16-.32.78-.13.39.54,1.12.81.48.17,1.27-.21.33-.26-.68,0,.93-.36-.15-.53-.51-.09.05-.76.68-.47.48.22.2-.6.74-.13.32.29.49.25,1,.25s.15.61.87.63.39.32.21.63.16.41.5.12.38-.65.6-.56c.78.3.45-.31.76-.32.56,0,.19,1.14.78.55s.54.44,1.36.5-.52.94-.07,1.06c.16.05.34-.05.52,0" transform="translate(-11.22 -134.53)"/><path class="cls-35" d="M261.15,418.13c-.15-.19.24-.64,0-.74s-.26.28-.39.41c-.34.37-.06-.77-.3-1.21s-1.16,0-.93-.39l.49-.81c.18-.29-1.24.59-1,0,.12-.27.53-.56.36-.8s-.35.17-.47.06-.12-.38,0-.54.79-.25.67-.5-.34.22-.52.2a.39.39,0,0,1-.32-.24A.68.68,0,0,1,259,413c.25-.24.71.38.81,0,0-.12-.27-.15-.25-.27s.34.14.33-.05-.26-.29-.39-.44a.49.49,0,0,1-.11-.5c.1-.18.49,0,.57-.17a.47.47,0,0,0-.25-.5c-.13-.07-.31.19-.42.09s.51-1,.32-1.22-.77.28-.92,0,.32-.55.5-.81.2-.53.42-.55.3.41.52.49a.71.71,0,0,0,.72,0c.17-.16.14-.48.1-.72s-.41-.47-.3-.7,1.34.1.9-.17a1.59,1.59,0,0,1-.9-1.32c0-.54.63.59.88.38s-.46-.91-.15-1.05.25.63.48.56-.07-.62.14-.74.62.57.89.38-.19-.51,0-.62.55.58.88.54.38-.65.71-.74.54.31.81.23.28-.62.55-.61.39,1,.76.88,0-.69.2-.92.83-.34,1.26-.45c.25-.07.56-.31.77-.14s-.19.85.08,1.07.72-.41,1-.19-.31.79,0,.95.27-.3.43-.27.25.7.51.64.15-.67.23-1c.12-.51.33,1,.83,1.18s.8-.17.78.31l-.05,1.4c0,.35.19-1.11.7-.75.26.18.47.59.77.55s.14-.39.31-.4.35.23.41.43-.42.81-.14.9.08-.43.24-.54a.38.38,0,0,1,.41,0c.21.14.21.47.25.72a2.51,2.51,0,0,1,0,.67,3.15,3.15,0,0,1-.11.44c0,.2-.29.46-.14.59s.38-.35.53-.22,0,.41-.12.6-.36.36-.3.56a.47.47,0,0,0,.54.24c.14,0,.09-.38.24-.38.33,0,.22.83.54.87s.38-.75.67-.66.15.69.21,1,.25.58.08.76-.5-.13-.72,0-.5.29-.52.54.19.71.45.66,0-.62.17-.67.32.78.61.69-.08-.48.08-.57.64.07.78.33-.23.57-.11.81.52,0,.54.25-.79.26-.83.62c0,.19.43.27.35.45s-.7-.22-.9,0,.1.37,0,.54.15.16,0,.18c-.49.06-.37,0-.13.44.12.21-.12.2,0,.37s.38.11.46.29.52.35.11.49-.57.45-1.27.12c-.38-.18.83.37.76.72s-.8,0-1,.35c-.06.14.23.32.14.44s0,0-.44,0-1.25-1.17-1.16-.7c0,.25.11.5.13.75h0" transform="translate(-11.22 -134.53)"/><path class="cls-35" d="M305.17,409.31c-.3-.34,1.5-.1,1.15-1s1.33-1,1.08-1.92c-.3-1.13,1.24-2.38.54-3.41-.5-.73.15-.56.8-.81s.82-1.22,1.17-.32c.44,1.13.51-1.48.84-1.24s.78-.09,1-1c.12-.41,1.21.48.65-.43-.43-.69,1.45-.43,1.44-.47-.08-1.09,1.22,1,1.64,1.84.14.3-.2-1.76.61-1.06.56.48.32.09.65-.22.68-.64,1,1.74,1,.53s1.37-.17,1.13.58c-.1.32-.1.37.48.47s.16.7.55.09.48.27.81.6.44-.73.73-.76c.58-.06,1.2.54,1.13-.37-.08-1.12.94.39,1.3.64.74.51-.57.83-.49,1.67.07.61,1.23.87.64,0-.4-.56,1.23.44.73-.62-.23-.51,1.23-.69,1.21.1,0,.59,1.09-.42.7.48-.22.51-.16.5.34,1.07.35.39-.91.65-.39,1.29.38.47-.3.63-.86.77-.37.09-.57.52.16.51.53,0,1.28-.37,1.3,0,.06,1,.72,0,1,.31s-1.7,1.23-.34,1.15c1.13-.07-.42.69.16,1.56.46.67-1.84.46-1.73.94,0,.2.32.23.43.39" transform="translate(-11.22 -134.53)"/><path class="cls-35" d="M271.54,420.51c.3-.37-.88-.44-.34-1.08.73-.85-1.52-.19-1.21-1.14.17-.53,1-.41.25-1s.89.21.17-.67,1.06-.3.28-1.32c-.3-.39,1.21,0,.81-.94s.94-1,.61-1.95c-.4-1.21,1.58.4.86-.74-.5-.79,0-.57.54-.79s.5-1.22.91-.26c.52,1.23.35-1.44.63-1.19s.54,1.41.62.44c0-.38,1,.53.47-.41-.45-.77,1.45.45,1.44.4-.22-1.15.76-1.15,1.22-.21.16.32-.36-1.82.36-1.07.55.57.21.19.49-.19.43-.58,1.1,1.92.86.63s1.09,0,1,.69c0,.36,0,.39.46.53s.19.81.45.13.44.33.75.69.17-.73.49-.75c.57,0,1.06.66.88-.3-.23-1.18.81.47,1.15.76.67.59-.36.83-.17,1.71.12.58,1.09,1,.52.07-.42-.64,1.05.51.51-.6-.25-.53.91-.61,1,.19.07.63.83-.34.64.56-.11.54.05.66.43,1.14s-.61.68-.14,1.34-.11.62-.59.74c-.32.08-.37.51.2.55s1-.23,1,.05c.18,1,.67.12.89.39.41.49-1.19,1.18-.12,1.19s-.14.87.35,1.65-1.43.37-1.28.87c.06.2.29.26.41.44" transform="translate(-11.22 -134.53)"/><path class="cls-35" d="M277.91,422.85c.38-.31-1.58-.39-1.05-1.24s-1.22-1.31-.8-2.24c.53-1.15-2-.08-1.11-1.05.66-.68-.06-.62-.71-1s-.65-1.44-1.18-.55c-.67,1.13-.27-1.67-.66-1.47s-.81-.24-.91-1.24c-.05-.47-1.37.28-.61-.58.58-.66-1.46-.71-1.45-.76.29-1.15-1.47.82-2.06,1.65-.21.3.53-1.83-.46-1.23-.68.4-.35,0-.65-.36-.61-.8-1.42,1.67-1.11.39s-1.43-.42-1.31.42c.05.36,0,.41-.6.41s-.29.72-.59,0-.56.2-1,.49c-.59.41-.34-.86-.64-.94-.61-.17-1.37.35-1.14-.59.29-1.18-1.06.23-1.49.44-.88.4.46,1,.22,1.85-.18.64-1.47.7-.68-.09.53-.52-1.39.25-.67-.79.34-.5-1.17-.95-1.29-.11-.09.62-1.09-.64-.84.38.14.58.09.56-.55,1.07-.45.36.85.86.18,1.45-.49.43.2.72.77,1,.38.17.51.66-.26.51-.56-.1-1.28-.62-1.37-.27-.24,1-.76-.15-1.15.13s1.58,1.62.15,1.29c-1.18-.28.33.81-.45,1.63-.61.63,1.87.82,1.67,1.32-.08.2-.38.18-.53.33" transform="translate(-11.22 -134.53)"/><path class="cls-35" d="M332.28,415.23c-.22-.37.44-.54.19-1.43s.36-1.47.18-2.38c-.22-1.12,1.44.64.91-.48-.37-.78.1-.48.62-.58s.63-1,.89-.05c.33,1.16.72-.44,1-.16s.33,1.32.53.5c.08-.34.91.67.5-.27-.32-.74,1.1-.09,1.1-.13-.06-1,.87-.85,1.18,0,.11.31.19-1.38.78-.58.44.58.2.18.5-.07.51-.44.78,1.87.72.7s1.05.17.87.79c-.09.3,0,.35.36.55s.09.72.42.2.38.38.61.73.3-.59.56-.55c.52.07.92.77.87-.1,0-1.06.71.56,1,.87.56.64-.45.64-.38,1.46,0,.52.92,1,.48.15-.3-.61.93.67.57-.42-.17-.5.93-.36.91.35s.83-.14.54.6c-.18.45-.07.54.25,1.07.22.37-1.07.82-.7,1.5.28.52-.11.15-.58.16-.28,0-.4.38.12.51s1.29,0,1.3.25c.05.86.6.21.79.51.31.47-1.28.79-.26,1s-.28.67.11,1.5c.31.67-1.41,0-1.33.51,0,.19-.4,1.91-.31,2.08" transform="translate(-11.22 -134.53)"/><path class="cls-35" d="M352,427.89h3.41v-9c-.33-.24-1.69-.21-1.43-.63s-.36-.11-.69-.13.33-.4.21-.58-.81-.3-.2-.6-.6-.26-.9-.32c-.6-.13-.3.54-.87.81-.37.17-1-.21-.25-.26.52,0-.72-.36.11-.53.4-.09,0-.76-.52-.47s-.16-.6-.57-.13c-.25.29-.38.25-.8.25s-.12.61-.68.63-.29.32-.16.63-.12.41-.38.12-.29-.65-.46-.56c-.6.3-1.12.85-1.37.84-.43,0-.14,1.14-.6.56s-.41.44-1.05.49.4.94.06,1.07c-.13.05-.26-.05-.41,0" transform="translate(-11.22 -134.53)"/><path class="cls-35" d="M338.27,418.26c.15-.19-1.32-.47-1.1-.57s.26.28.39.42c.34.36.06-.78.3-1.21s1.16,0,.93-.39l-.49-.82c-.18-.29,1.25.59,1,0-.12-.27-.53-.56-.36-.8s.35.17.48.06.11-.38,0-.54-.8-.24-.67-.5c.25-.43.33.22.51.2a.42.42,0,0,0,.33-.24c.06-.22.08-.87-.08-1s-.9.08-1-.26c0-.12-.77-.06-.78-.19s-.5-.1-.48-.29.41,0,.53-.19a.5.5,0,0,0,.12-.5c-.1-.18-.49,0-.57-.17a.47.47,0,0,1,.24-.51c.13-.06.32.2.42.1s.41,0,.6-.25,0-.39.19-.67-.32-.55-.5-.81-.2-.53-.42-.55-.3.41-.52.49-.55.15-.72,0-.14-.48-.1-.72.41-.47.3-.7-1.34.1-.9-.17a1.56,1.56,0,0,0,.89-1.32c0-.54-.62.59-.87.38s.45-.91.15-1.05-.25.63-.48.56.07-.62-.15-.74-.61.57-.88.38.19-.51,0-.62-.55.58-.88.54-.39-.65-.71-.74-.54.31-.81.23-.28-.62-.55-.61-.39,1-.76.88,0-.69-.2-.92-.83-.34-1.26-.45c-.25-.07-.56-.31-.77-.14s.19.85-.08,1.07-.72-.41-1-.19.31.79.05.95-.27-.3-.43-.27-.25.7-.51.64a1.08,1.08,0,0,1-.78-.67c-.12-.52-.42.24-.92.44s-.16.23-.14.71,0,.93,0,1.4-.35-1.26-.7-.75,0,1.06-.74.7c-.18-.09-.36.23-.42.43s.42.81.14.89-.08-.42-.23-.53a.38.38,0,0,0-.42,0c-.2.14-.21.47-.25.72a2.51,2.51,0,0,0,0,.67,3.48,3.48,0,0,0,.1.44c.05.2.29.45.15.59s-.39-.35-.53-.22.05.41.12.6.36.36.29.56a.46.46,0,0,1-.53.24c-.14,0-.1-.38-.24-.38-.33,0-.22.83-.55.87s-.37-.75-.66-.66-.16.69-.21,1-.25.57-.08.76.49-.13.72,0,.49.29.51.54-.19.71-.44.66,0-.62-.18-.67-.32.78-.6.69.07-.48-.08-.57-.65.07-.79.32.24.58.11.82-.51,0-.53.25.78.26.83.62c0,.19-.43.27-.35.44s.69-.21.9,0-.11.37,0,.54-.16.16,0,.18c.48.06.36,0,.12.44-.12.2.13.2,0,.37s-.39.11-.47.29-.52.35-.11.49.57.45,1.27.12c.39-.19-.83.37-.76.72s.81,0,1,.35c.07.14-.22.32-.13.43s0,0,.43,0,1.25-1.18,1.17-.7c0,.25-.11.5-.14.75h0" transform="translate(-11.22 -134.53)"/><path class="cls-38" d="M311.42,416.17V392c0-8.94-7.57-15.81-13.78-15.81S283.85,383.1,283.85,392v24.13Z" transform="translate(-11.22 -134.53)"/><path class="cls-31" d="M283.85,393.15s2.78.45,6.72.76c2.11.17,4.54.3,7.07.3s5-.13,7.07-.3c3.94-.31,6.71-.76,6.71-.76" transform="translate(-11.22 -134.53)"/><path class="cls-31" d="M283.85,411.14a90.17,90.17,0,0,0,27.57,0" transform="translate(-11.22 -134.53)"/><path class="cls-31" d="M283.85,406.64a90.17,90.17,0,0,0,27.57,0" transform="translate(-11.22 -134.53)"/><path class="cls-31" d="M283.85,402.15a90.17,90.17,0,0,0,27.57,0" transform="translate(-11.22 -134.53)"/><path class="cls-31" d="M283.85,397.65a90.17,90.17,0,0,0,27.57,0" transform="translate(-11.22 -134.53)"/><path class="cls-31" d="M284.21,388.79s2.72.43,6.53.73c2.06.16,4.44.29,6.9.29s4.83-.13,6.89-.29c3.82-.3,6.53-.73,6.53-.73" transform="translate(-11.22 -134.53)"/><path class="cls-31" d="M285.43,385.17a85.08,85.08,0,0,0,24.41,0" transform="translate(-11.22 -134.53)"/><path class="cls-31" d="M287.34,382.05a73,73,0,0,0,20.59,0" transform="translate(-11.22 -134.53)"/><path class="cls-31" d="M290,379.31a68,68,0,0,0,7.59.47,71.1,71.1,0,0,0,7.7-.47" transform="translate(-11.22 -134.53)"/><path class="cls-31" d="M297.64,376.23c-4.9,0-10.87,7.26-10.87,16.21v23.73" transform="translate(-11.22 -134.53)"/><path class="cls-31" d="M297.64,376.23c-2.78,0-6.1,5.85-6.9,13.29a32.79,32.79,0,0,0-.17,3.32v23.33" transform="translate(-11.22 -134.53)"/><path class="cls-31" d="M297.64,376.23c-1.16,0-2.56,8.06-2.56,17v22.93" transform="translate(-11.22 -134.53)"/><path class="cls-31" d="M297.64,376.23c4.9,0,10.87,7.26,10.87,16.21v23.73" transform="translate(-11.22 -134.53)"/><path class="cls-31" d="M297.64,376.23c1.15,0,2.56,8.06,2.56,17v22.93" transform="translate(-11.22 -134.53)"/><path class="cls-31" d="M297.64,376.23c2.78,0,6.1,5.85,6.89,13.29a30.09,30.09,0,0,1,.18,3.32v23.33" transform="translate(-11.22 -134.53)"/><path class="cls-39" d="M304.71,392.84a30.09,30.09,0,0,0-.18-3.32c-2.06.16-4.44.29-6.89.29s-4.84-.13-6.9-.29a32.79,32.79,0,0,0-.17,3.32v1.07c2.11.17,4.54.3,7.07.3s5-.13,7.07-.3Z" transform="translate(-11.22 -134.53)"/><path class="cls-35" d="M325.42,418.44c-.29-.37.88-.44.34-1.07-.73-.86,1.52-.2,1.22-1.14-.18-.54-1-.42-.26-1.05s-.89.21-.16-.67-1.07-.3-.29-1.32c.3-.39-1.21,0-.81-.94s-.94-1-.61-1.95c.41-1.21-1.58.4-.85-.74.5-.79,0-.57-.55-.79s-.5-1.22-.91-.26c-.52,1.23-.35-1.44-.63-1.19s-.54,1.42-.62.44c0-.38-1,.53-.47-.41.46-.77-1.45.45-1.44.4.22-1.15-.76-1.14-1.22-.21-.16.33.36-1.82-.35-1.07-.56.58-.22.19-.5-.19-.43-.57-1.09,1.92-.86.63s-1.09,0-1,.69c0,.36,0,.39-.46.53s-.2.81-.46.13-.43.33-.75.69-.17-.73-.49-.75c-.56,0-1.06.66-.87-.3.22-1.18-.82.47-1.15.76-.68.59.35.83.16,1.71-.12.59-1.09,1-.51.07.41-.63-1.05.52-.52-.6.25-.53-.9-.61-1,.19-.07.63-.83-.33-.64.56.11.54-.05.66-.43,1.14s.61.68.14,1.34.11.62.6.74c.31.08.36.51-.21.55s-1-.22-1.05.05c-.18,1-.66.12-.89.39-.4.49,1.2,1.18.12,1.19s.14.87-.35,1.65,1.43.37,1.28.88c-.05.19-.29.26-.4.43" transform="translate(-11.22 -134.53)"/><path class="cls-35" d="M317.5,422.68c-.38-.31,1.58-.39,1.05-1.24s1.22-1.31.8-2.24c-.53-1.15,2-.08,1.11-1.05-.66-.68.06-.62.71-1s.65-1.44,1.18-.56c.67,1.13.27-1.66.67-1.46s.81-.24.9-1.24c.05-.47,1.37.28.61-.58-.58-.66,1.46-.72,1.45-.77-.29-1.14,1.47.83,2.06,1.66.21.29-.53-1.83.47-1.24.67.41.34,0,.64-.35.61-.8,1.42,1.67,1.11.39s1.43-.42,1.31.42c-.05.36,0,.41.6.41s.29.71.59,0,.56.2,1,.49c.59.41.34-.86.64-.94.61-.18,1.37.35,1.14-.6-.29-1.18,1.06.24,1.49.44.88.41-.46,1-.22,1.86.18.64,1.47.7.68-.09-.53-.53,1.39.25.67-.79-.34-.5,1.17-1,1.29-.11.09.62,1.09-.64.84.38-.14.58-.09.56.55,1.07.45.36-.85.86-.18,1.45.49.43-.2.72-.77,1-.38.17-.51.65.26.51.56-.1,1.29-.63,1.37-.28.24,1,.76-.15,1.15.14s-1.14,2.27.28,1.93c1.19-.28-.33.82.45,1.63.61.64-1.87.82-1.67,1.32.08.2.39.18.53.33" transform="translate(-11.22 -134.53)"/><path class="cls-35" d="M274.68,427.89c-1-.68,2.61-.23,2.24-1s-1.67-.38-.28-.87-1.56.13-.18-.55-1.92-.22-.29-1.09c.43-.22-2.08-.06-1.24-.81s-1.45-.83-.75-1.61c.88-1-2.72.23-1.34-.65,1-.63.07-.45-.81-.67-.59-.15-.66-1-1.51-.25-1.06,1-1-.58-1.58-.37s-1.14,1.13-1.13.32c0-.34-1.94.46-.74-.35.79-.54-1.86-.34-1.83-.38.55-.93-1.14-1-2.05-.24-.31.25,1-1.5-.44-.89-.93.4-.48.08-.82-.18-.79-.59-2.17,1.54-1.55.47.53-.92-1.87-.1-1.83.51,0,.31-.25.34-.86.41s-.48.6-.8.08-1,.32-1.38.52c-.82.39-.41-.62-.72-.63-.89-.05-1.92.5-1.45-.3s-1.46.34-2.07.56c-1.24.45.54.6,0,1.41-.27.43-2.11.78-.89,0,.71-.44-2,.45-.79-.52.43-.35-1.46-.53-1.73.11s-1.36-.34-1.18.41c.11.44,0,.44-.9.91-.44.23,1,.52,0,1.1-.62.35.09.51.91.63.39.06.42.44-.43.44s-1.66-.26-1.8,0c-.43.73-1,0-1.58.28s1.85,1,0,1c-1.59-.05.37.55-.84,1.33-.66.42,2.07,0,2.06.89Z" transform="translate(-11.22 -134.53)"/><path class="cls-35" d="M322.27,427.89c1-.68-2.61-.23-2.24-1s1.67-.38.28-.87,1.56.13.18-.55,1.92-.22.29-1.09c-.43-.22,2.08-.06,1.24-.81s1.45-.83.75-1.61c-.88-1,2.72.23,1.34-.65-1-.63-.08-.45.81-.67.59-.15.66-1,1.51-.25,1.06,1,1.05,0,1.61.21s1.11.55,1.1-.26c0-.34,1.94.46.74-.35-.79-.54,1.86-.34,1.83-.38-.55-.93,1.14-1,2-.24.31.25-1-1.5.45-.89.93.4.48.08.82-.18.79-.59,2.17,1.54,1.55.47-.53-.92,1.87-.1,1.83.51,0,.31.24.34.86.41s.48.6.8.08,1,.32,1.38.52c.82.39.41-.62.72-.63.88-.05,1.92.5,1.45-.3s1.46.34,2.07.56c1.24.45-.54.6,0,1.41.28.43,2.12.78.9,0-.71-.44,2,.45.79-.52-.43-.35,1.46-.53,1.73.11s1.36-.34,1.18.41c-.11.44,0,.44.9.91.44.23-1,.52,0,1.1.62.35-.09.51-.91.63-.39.06-.42.44.43.44s1.66-.26,1.8,0c.43.73,1.05,0,1.58.28s-1.85,1,0,1c1.59-.05-.37.55.84,1.33.66.42-1.64,0-2.06.89Z" transform="translate(-11.22 -134.53)"/><path class="cls-35" d="M294.58,423.66c.29-.3-.89-.36-.35-.86.74-.69-1.52-.16-1.21-.92.17-.42,1-.33.25-.84s.9.17.17-.53,1.07-.24.28-1.06c-.29-.31,1.22,0,.81-.75s.94-.78.61-1.56c-.4-1,1.59.32.86-.6-.5-.63,0-.45.54-.63s.5-1,.91-.21c.52,1,.36-1.15.63-.95s.55,1.13.62.35c0-.3,1,.43.47-.33-.45-.61,1.45.36,1.44.33-.22-.93.76-.92,1.22-.18.16.27-.36-1.45.36-.85.55.46.21.15.49-.15.44-.47,1.1,1.54.86.5s1.1,0,1,.55c-.05.29,0,.32.46.43s.19.65.46.1.32-.17.64.13.28-.16.59-.17c.57,0,1.06.52.88-.25-.22-.94.81.38,1.15.61.67.47-.36.66-.17,1.37.12.47,1.1.77.52.06-.42-.51,1.05.41.52-.48-.26-.43.9-.49,1,.15s.83-.27.65.45c-.12.43.05.53.42.91s-.61.55-.14,1.07-.11.5-.59.6c-.32.06-.37.41.2.44s1-.18,1.06,0c.17.77.66.1.88.31.41.39-1.19.95-.11.95s-.15.7.35,1.33-1.44.29-1.29.7c.06.15.3.21.41.35" transform="translate(-11.22 -134.53)"/><path class="cls-35" d="M330.68,427.89c.26-.07-1-1-1-1.16s-2.52-.18-2.1-.94c.2-.13.78.06,1.09.07a1,1,0,0,0,.61-.14c.17-.17,0-.41-.2-.56s-1.51-.08-1.55-.38c0-.1.48-.08.5-.18s-.78-.16-.69-.32.69,0,.94-.07.45-.25.36-.39-.81-.06-.88-.23.28-.33.57-.37.46.21.66.14c.42-.13-.31-.6.09-.76s1.17.35,1.51.15-.35-.5-.56-.75-.14-.46-.5-.51-.63.27-1,.31a2.21,2.21,0,0,1-1.19-.14c-.22-.16-.06-.42.08-.61s.84-.31.73-.52-2.24-.14-1.42-.29c1.07-.19,1.74-.5,1.91-.92s-1.22.37-1.57.16,1.05-.66.6-.84-.62.48-1,.39.32-.5,0-.63-1.2.36-1.57.16.47-.39.23-.5c-.42-.2-1.09.38-1.63.29s-.41-.6-.91-.72-1,.17-1.42.06-.25-.56-.69-.6c-.63-.06-1,.73-1.55.59s.23-.56,0-.78a5.66,5.66,0,0,0-1.92-.58,2.66,2.66,0,0,0-1.22-.24c-.52.13,0,.73-.5.86s-1-.45-1.52-.31.24.69-.24.78c-.27,0-.34-.29-.62-.29-.45,0-.64.53-1.05.43s0-.57,0-.86-.86.75-1.76.83c-.67.06-1.25-.27-1.38.12s-.26.77-.38,1.15.05-.94-.91-.73a3.76,3.76,0,0,1-1.45.32c-.26-.05-.1-.34-.37-.37a1.09,1.09,0,0,0-.82.28c-.24.22.42.73-.07.76-.32,0,0-.36-.21-.48a1.14,1.14,0,0,0-.67-.1c-.38.08-.5.35-.66.54a1.4,1.4,0,0,0-.24.55,1.64,1.64,0,0,0,0,.38c0,.17.33.42,0,.5s-.51-.35-.79-.27-.06.35,0,.52.47.35.3.5a1.32,1.32,0,0,1-1,.11c-.22-.06,0-.33-.27-.35-.54-.06-.63.64-1.19.61s-.36-.67-.87-.64-.49.54-.69.81-.6.43-.39.61.86,0,1.2.09.71.32.66.53a1,1,0,0,1-1,.46c-.35-.07.28-.5-.06-.58s-.79.59-1.22.46c-.27-.07.28-.37.05-.47a2,2,0,0,0-1.4.13c-.29.17.2.51-.09.69s-.86,0-1,.11,1.2.35,1.16.64-.8.16-.73.31,1.22-.06,1.47.17-.29.28-.24.43-.31.1,0,.15c.78.13.6.08.06.38-.27.15.14.19-.08.3s-.67,0-.86.16-1,.21-.35.38a3.31,3.31,0,0,0,2.05.31c.69-.08-1.49.61-1.49.9Z" transform="translate(-11.22 -134.53)"/><path class="cls-35" d="M274.29,427.89c.44-.43-1.46-.19-.65-.94,1.1-1-2.47-.12-2.07-1.2.23-.61,1.57-.53.31-1.2s1.46.18.21-.76,1.68-.41.33-1.51c-.52-.41,1.95-.09,1.21-1.11-.85-1.18,1.42-1.15.79-2.23-.77-1.34,2.59.34,1.31-.9-.88-.85,0-.64.8-.93s.69-1.4,1.43-.35c1,1.35.44-1.64.9-1.38s1,1.56,1.05.46c0-.43,1.7.52.72-.5-.81-.84,2.37.41,2.35.36-.47-1.29,1.11-1.35,1.94-.33.29.36-.76-2,.47-1.23.95.62.36.2.78-.24.64-.68,1.95,2.09,1.44.65s1.76-.12,1.69.71c0,.41-.09.1.68.22.93.15.27.3.62-.49s.73.34,1.27.73.45.11.95.07c.91-.07,1.77.67,1.38-.4-.47-1.31,1.36.47,1.93.78,1.14.61-.5,1-.11,1.94.26.65,1.86,1,.84,0-.72-.69,1.74.51.78-.71-.46-.58,1.39-.75,1.62.15.17.7,1.3-.44,1.09.58-.13.62.15.74.79,1.26s-.91.8-.09,1.51-.12.71-.89.88c-.5.11-.53.6.38.61s1.6-.33,1.7,0c.38,1.07,1.08.09,1.47.38.7.52-1.81,1.41-.07,1.34,1.51-.05-.16,1,.72,1.84s-2.28.51-2,1.07c.12.22.5.24.7.85Z" transform="translate(-11.22 -134.53)"/><path class="cls-37" d="M302.89,367.16a4.8,4.8,0,0,0,.32-.43c.06-.09.17,0,.14.1a1.78,1.78,0,0,1-.28.42Z" transform="translate(-11.22 -134.53)"/><path class="cls-37" d="M302.94,367.81c-.11-.17-.05-.38-.08-.62s.21,0,.25.05a2.23,2.23,0,0,1,.1.49Z" transform="translate(-11.22 -134.53)"/><path class="cls-37" d="M303.13,368.72a1.13,1.13,0,0,0-.21-.81c-.1-.17.26-.32.34-.19a1.17,1.17,0,0,1,.17,1.24Z" transform="translate(-11.22 -134.53)"/><path class="cls-37" d="M300.54,369.51l-.43.32c-.08.06,0,.17.11.14a2,2,0,0,0,.41-.28Z" transform="translate(-11.22 -134.53)"/><path class="cls-37" d="M301.19,369.56c-.16-.11-.38-.05-.62-.08s0,.21.06.24a2.14,2.14,0,0,0,.48.1Z" transform="translate(-11.22 -134.53)"/><path class="cls-37" d="M302.1,369.75a1.15,1.15,0,0,1-.81-.21c-.17-.11-.31.26-.19.33a1.17,1.17,0,0,0,1.25.18Z" transform="translate(-11.22 -134.53)"/><path class="cls-37" d="M302.53,370.29c-.15.08-.2.51-.57.95-.08.09.19.23.28.05a2.71,2.71,0,0,1,.75-.73Z" transform="translate(-11.22 -134.53)"/><path class="cls-37" d="M303.67,369.14c.08-.15.51-.2.95-.56.1-.08.23.19.05.27a3,3,0,0,0-.73.75Z" transform="translate(-11.22 -134.53)"/><path class="cls-37" d="M304.47,374a1.64,1.64,0,0,0,.22.51c.05.11.23.13.16-.05a5.69,5.69,0,0,0-.23-.55Z" transform="translate(-11.22 -134.53)"/><path class="cls-37" d="M304.07,373.1c.11,0,.39.36.43.42s.17.25.15.34-.23.23-.29.13-.47-.58-.55-.74Z" transform="translate(-11.22 -134.53)"/><path class="cls-37" d="M303.17,372.08a8,8,0,0,0,.47,1.08c.1.23.18.1.29.1s.27-.13.21-.26c-.24-.45-.56-.4-.72-.9s-.27-.19-.25,0Z" transform="translate(-11.22 -134.53)"/><path class="cls-37" d="M303.41,370.73a2.67,2.67,0,0,0-.29,1.14c0,.12.24.38.29.19s.37-1,.44-1.14Z" transform="translate(-11.22 -134.53)"/><path class="cls-37" d="M307.35,371.09a2,2,0,0,1,.51.21c.1.06.13.23-.06.17s-.37-.17-.55-.23Z" transform="translate(-11.22 -134.53)"/><path class="cls-37" d="M306.48,370.68c0,.12.37.4.43.44s.24.17.34.15.22-.24.12-.3-.58-.47-.73-.55Z" transform="translate(-11.22 -134.53)"/><path class="cls-37" d="M305.47,369.78a8.47,8.47,0,0,1,1.07.47c.24.1.1.18.1.3s-.12.27-.25.2c-.46-.23-.41-.55-.91-.72s-.18-.27,0-.25Z" transform="translate(-11.22 -134.53)"/><path class="cls-37" d="M304.11,370a2.74,2.74,0,0,1,1.14-.28c.12,0,.38.24.19.28s-1,.38-1.13.45Z" transform="translate(-11.22 -134.53)"/><path class="cls-39" d="M303.36,370.37a1.45,1.45,0,0,0,.14,1.19.71.71,0,0,0,.39.55.8.8,0,0,0,.46.55c0,.17.4.32.49.29,0,.16.47.3.56.28a1,1,0,0,0,1.19,0,1.06,1.06,0,0,0,0-1.2c0-.09-.11-.52-.28-.56,0-.09-.12-.44-.28-.48a.85.85,0,0,0-.55-.47.73.73,0,0,0-.55-.38,1.44,1.44,0,0,0-1.2-.14Z" transform="translate(-11.22 -134.53)"/><path class="cls-37" d="M303.5,371.56c0-.24.23-.54.57-.87s.64-.57.88-.57" transform="translate(-11.22 -134.53)"/><path class="cls-37" d="M303.89,372.11c-.05-.19.33-.67.64-1s.78-.69,1-.64" transform="translate(-11.22 -134.53)"/><path class="cls-37" d="M304.35,372.66c-.05-.19.4-.69.7-1s.81-.75,1-.7" transform="translate(-11.22 -134.53)"/><path class="cls-37" d="M304.84,373a5.62,5.62,0,0,0,.8-.69,5.15,5.15,0,0,0,.69-.81" transform="translate(-11.22 -134.53)"/><path class="cls-37" d="M305.4,373.23a2.58,2.58,0,0,0,.71-.5,2.27,2.27,0,0,0,.5-.72" transform="translate(-11.22 -134.53)"/><path class="cls-37" d="M303.47,369.12c1.19-1.33,2.57-2.17,2.87-1.87s-.33,1.37-.83,1.35c-.06.78-1.14.43-1.94.69Z" transform="translate(-11.22 -134.53)"/><path class="cls-37" d="M303.32,368.88a29.2,29.2,0,0,1,1.86-2.57c.79-.79,1.47-.92,1.7-.68s.17.32,0,.61.07.55-.2.81c-.73.73-1.4.82-3.13,2.24l-.1-.17Z" transform="translate(-11.22 -134.53)"/><path class="cls-37" d="M302.51,370.09c-1.34,1.19-2.17,2.56-1.87,2.86s1.36-.32,1.34-.82c.78-.06.43-1.14.69-1.94Z" transform="translate(-11.22 -134.53)"/><path class="cls-37" d="M302.26,369.94a28.66,28.66,0,0,0-2.57,1.86c-.78.78-.92,1.46-.68,1.7a.49.49,0,0,0,.61,0c.24-.12.55.07.82-.19.72-.73.81-1.41,2.23-3.13l-.17-.1Z" transform="translate(-11.22 -134.53)"/><path class="cls-37" d="M300.93,368.64a7.22,7.22,0,0,1-1.06.24l-.07,0a.09.09,0,0,0,.09.15,6.94,6.94,0,0,0,1.05-.25Z" transform="translate(-11.22 -134.53)"/><path class="cls-37" d="M301.6,368.39a3.32,3.32,0,0,1-.73.25c-.15,0,0,.2.09.19s.39-.15.62-.24Z" transform="translate(-11.22 -134.53)"/><path class="cls-37" d="M302,367.54a8,8,0,0,0,.23-1.05.08.08,0,0,1,0-.07c0-.06.16,0,.14.09a6.82,6.82,0,0,1-.25,1Z" transform="translate(-11.22 -134.53)"/><path class="cls-37" d="M301.78,368.21a3.59,3.59,0,0,0,.24-.73c0-.14.21,0,.19.09a4.57,4.57,0,0,1-.24.62Z" transform="translate(-11.22 -134.53)"/><path class="cls-37" d="M301.92,369.41a.27.27,0,0,1-.32,0c-.21-.09-.37-.42-.27-.58.3-.46.12-.54.26-.68s.21,0,.68-.26c.15-.1.48.06.57.28a.24.24,0,0,1,0,.31c-.2.19-.19.27-.4.48s-.29.2-.47.4Z" transform="translate(-11.22 -134.53)"/><path class="cls-37" d="M303.64,368.82c-.39-.39-.7-.48-1.31.13s-.52.91-.13,1.3a1,1,0,0,0,1.56.12A1,1,0,0,0,303.64,368.82Z" transform="translate(-11.22 -134.53)"/><path class="cls-37" d="M332,390.32a5,5,0,0,1-.54-.07c-.1,0-.12.11,0,.17a2,2,0,0,0,.49.1Z" transform="translate(-11.22 -134.53)"/><path class="cls-37" d="M332.38,390.82c0-.19-.23-.3-.38-.5s-.18.12-.14.22a2,2,0,0,0,.28.41Z" transform="translate(-11.22 -134.53)"/><path class="cls-37" d="M332.9,391.6a1.09,1.09,0,0,1-.43-.73c-.05-.19-.41,0-.38.11.19.74.31.7.76,1Z" transform="translate(-11.22 -134.53)"/><path class="cls-37" d="M335.29,390.32a5,5,0,0,0,.54-.07c.1,0,.12.11,0,.17a2.17,2.17,0,0,1-.5.1Z" transform="translate(-11.22 -134.53)"/><path class="cls-37" d="M334.87,390.82c0-.19.23-.3.38-.5s.18.12.14.22a2.41,2.41,0,0,1-.27.41Z" transform="translate(-11.22 -134.53)"/><path class="cls-37" d="M334.36,391.6a1.12,1.12,0,0,0,.42-.73c.05-.19.41,0,.38.11-.19.74-.31.7-.76,1Z" transform="translate(-11.22 -134.53)"/><path class="cls-37" d="M334.44,392.28c.17,0,.51.22,1.08.27.12,0,0,.29-.16.22a3,3,0,0,0-1.05,0Z" transform="translate(-11.22 -134.53)"/><path class="cls-37" d="M332.81,392.28c-.16,0-.5.22-1.08.27-.12,0,0,.29.17.22a3,3,0,0,1,1.05,0Z" transform="translate(-11.22 -134.53)"/><path class="cls-37" d="M335.67,396.24a2.28,2.28,0,0,1,.21.51c0,.12-.07.25-.16.08s-.15-.38-.22-.55Z" transform="translate(-11.22 -134.53)"/><path class="cls-37" d="M335.34,395.34a1.39,1.39,0,0,0,0,.61c0,.12.05.29.13.35s.33,0,.3-.12-.08-.74-.13-.91Z" transform="translate(-11.22 -134.53)"/><path class="cls-37" d="M335.26,394a8.64,8.64,0,0,1,.43,1.1c.1.23-.05.19-.14.27s-.28.1-.33,0c-.15-.49.11-.68-.12-1.15s.06-.32.16-.19Z" transform="translate(-11.22 -134.53)"/><path class="cls-37" d="M334.13,393.21a2.76,2.76,0,0,1,1,.6c.08.09.1.44-.07.34s-.95-.42-1.12-.49Z" transform="translate(-11.22 -134.53)"/><path class="cls-37" d="M331.58,396.24a2.28,2.28,0,0,0-.21.51c0,.12.07.25.16.08s.15-.38.23-.55Z" transform="translate(-11.22 -134.53)"/><path class="cls-37" d="M331.91,395.34a1.57,1.57,0,0,1,0,.61c0,.12-.05.29-.14.35s-.32,0-.3-.12.08-.74.14-.91Z" transform="translate(-11.22 -134.53)"/><path class="cls-37" d="M332,394a8.64,8.64,0,0,0-.43,1.1c-.1.23.06.19.14.27s.28.1.33,0c.16-.49-.11-.68.13-1.15s-.06-.32-.17-.19Z" transform="translate(-11.22 -134.53)"/><path class="cls-37" d="M333.12,393.21a2.85,2.85,0,0,0-1,.6c-.08.09-.1.44.07.34s.95-.42,1.12-.49Z" transform="translate(-11.22 -134.53)"/><path class="cls-39" d="M333.9,392.92a1.41,1.41,0,0,1,.75.94.7.7,0,0,1,.12.66.81.81,0,0,1,.06.72c.09.14-.06.5-.14.54.09.15-.12.55-.2.6s-.34.83-.86.83-.85-.65-.87-.83-.28-.45-.2-.6c-.08,0-.23-.4-.14-.54a.84.84,0,0,1,.06-.72.73.73,0,0,1,.12-.66,1.41,1.41,0,0,1,.75-.94Z" transform="translate(-11.22 -134.53)"/><path class="cls-37" d="M334.65,393.86a2.5,2.5,0,0,0-2,0" transform="translate(-11.22 -134.53)"/><path class="cls-37" d="M334.77,394.52c-.1-.17-.72-.23-1.14-.23s-1.05.06-1.15.23" transform="translate(-11.22 -134.53)"/><path class="cls-37" d="M334.83,395.24c-.1-.17-.78-.21-1.2-.21s-1.11,0-1.21.21" transform="translate(-11.22 -134.53)"/><path class="cls-37" d="M334.69,395.78a5.45,5.45,0,0,1-1.06.08,5.56,5.56,0,0,1-1.07-.08" transform="translate(-11.22 -134.53)"/><path class="cls-37" d="M334.49,396.37a2.36,2.36,0,0,1-.86.15,2.43,2.43,0,0,1-.87-.15" transform="translate(-11.22 -134.53)"/><path class="cls-37" d="M332.94,392.12c-1.79-.1-3.37.28-3.37.7,0,.58,1.21.73,1.55.36.59.51,1.12-.49,1.87-.87Z" transform="translate(-11.22 -134.53)"/><path class="cls-37" d="M332.87,391.84a28.06,28.06,0,0,0-3.15-.5c-1.11,0-1.69.39-1.69.72,0,.17.12.34.43.44s.33.44.72.44c1,0,1.57-.42,3.81-.63l-.05-.19Z" transform="translate(-11.22 -134.53)"/><path class="cls-37" d="M334.31,392.12c1.79-.1,3.37.28,3.37.7,0,.58-1.21.73-1.55.36-.59.51-1.11-.49-1.87-.87Z" transform="translate(-11.22 -134.53)"/><path class="cls-37" d="M334.38,391.84a28.06,28.06,0,0,1,3.15-.5c1.11,0,1.69.39,1.69.72,0,.17-.11.34-.42.44s-.34.44-.72.44c-1,0-1.58-.42-3.82-.63l.05-.19Z" transform="translate(-11.22 -134.53)"/><path class="cls-37" d="M334.41,390a8.36,8.36,0,0,0,.91-.58l.07,0a.09.09,0,0,1,0,.16,7.54,7.54,0,0,1-.92.57Z" transform="translate(-11.22 -134.53)"/><path class="cls-37" d="M333.75,390.28a3.26,3.26,0,0,0,.7-.34c.12-.09.13.16.07.2l-.61.27Z" transform="translate(-11.22 -134.53)"/><path class="cls-37" d="M332.85,390a8.7,8.7,0,0,1-.92-.58l-.07,0a.09.09,0,0,0,0,.16,8.39,8.39,0,0,0,.92.57Z" transform="translate(-11.22 -134.53)"/><path class="cls-37" d="M333.5,390.28a3.26,3.26,0,0,1-.7-.34c-.12-.09-.12.16-.06.2a6.34,6.34,0,0,0,.61.27Z" transform="translate(-11.22 -134.53)"/><path class="cls-37" d="M334.25,391.22a.26.26,0,0,0,.26-.18c.09-.22,0-.56-.21-.6-.55-.12-.48-.3-.67-.3s-.13.18-.67.3c-.18,0-.3.38-.22.6a.26.26,0,0,0,.26.18c.28,0,.33,0,.63,0s.34-.06.62,0Z" transform="translate(-11.22 -134.53)"/><path class="cls-37" d="M332.61,392c0-.55.15-.82,1-.82s1,.27,1,.82a1,1,0,0,1-1,1.18C332.9,393.2,332.61,392.61,332.61,392Z" transform="translate(-11.22 -134.53)"/><path class="cls-37" d="M255.35,385.5a5,5,0,0,1-.54-.08c-.1,0-.12.12,0,.18a2,2,0,0,0,.49.09Z" transform="translate(-11.22 -134.53)"/><path class="cls-37" d="M255.77,386c0-.19-.23-.3-.38-.49s-.18.12-.14.21a2,2,0,0,0,.28.41Z" transform="translate(-11.22 -134.53)"/><path class="cls-37" d="M256.29,386.77a1.09,1.09,0,0,1-.43-.72c-.05-.2-.41,0-.38.1.19.75.31.7.76,1Z" transform="translate(-11.22 -134.53)"/><path class="cls-37" d="M258.68,385.5a5,5,0,0,0,.54-.08c.1,0,.12.12,0,.18a2.26,2.26,0,0,1-.5.09Z" transform="translate(-11.22 -134.53)"/><path class="cls-37" d="M258.26,386c0-.19.23-.3.38-.49s.18.12.14.21a2.41,2.41,0,0,1-.27.41Z" transform="translate(-11.22 -134.53)"/><path class="cls-37" d="M257.75,386.77a1.12,1.12,0,0,0,.42-.72c.05-.2.41,0,.38.1-.19.75-.31.7-.76,1Z" transform="translate(-11.22 -134.53)"/><path class="cls-37" d="M257.83,387.45c.17-.05.51.22,1.08.27.12,0,0,.3-.16.23a2.81,2.81,0,0,0-1.05,0Z" transform="translate(-11.22 -134.53)"/><path class="cls-37" d="M256.2,387.45c-.16-.05-.51.22-1.08.27-.12,0,0,.3.17.23a2.82,2.82,0,0,1,1,0Z" transform="translate(-11.22 -134.53)"/><path class="cls-37" d="M259.06,391.41a2.18,2.18,0,0,1,.21.52c0,.11-.07.25-.16.07s-.15-.38-.22-.55Z" transform="translate(-11.22 -134.53)"/><path class="cls-37" d="M258.73,390.52a1.39,1.39,0,0,0,0,.61c0,.12,0,.29.13.34s.33,0,.3-.12-.08-.74-.13-.9Z" transform="translate(-11.22 -134.53)"/><path class="cls-37" d="M258.65,389.17a8.51,8.51,0,0,1,.43,1.09c.1.23-.05.2-.14.28s-.28.1-.33,0c-.15-.49.11-.67-.12-1.14s.05-.33.16-.19Z" transform="translate(-11.22 -134.53)"/><path class="cls-37" d="M257.52,388.38a2.68,2.68,0,0,1,1,.61c.08.08.1.43-.07.33s-.95-.41-1.12-.48Z" transform="translate(-11.22 -134.53)"/><path class="cls-37" d="M255,391.41a2.18,2.18,0,0,0-.21.52c0,.11.07.25.16.07s.15-.38.22-.55Z" transform="translate(-11.22 -134.53)"/><path class="cls-37" d="M255.3,390.52a1.57,1.57,0,0,1,0,.61c0,.12-.05.29-.14.34s-.32,0-.3-.12.08-.74.14-.9Z" transform="translate(-11.22 -134.53)"/><path class="cls-37" d="M255.38,389.17a8.51,8.51,0,0,0-.43,1.09c-.1.23.06.2.14.28s.28.1.33,0c.16-.49-.11-.67.13-1.14s-.06-.33-.17-.19Z" transform="translate(-11.22 -134.53)"/><path class="cls-37" d="M256.51,388.38a2.76,2.76,0,0,0-1,.61c-.08.08-.1.43.07.33s.95-.41,1.12-.48Z" transform="translate(-11.22 -134.53)"/><path class="cls-39" d="M257.29,388.1a1.41,1.41,0,0,1,.75.94.7.7,0,0,1,.12.66.78.78,0,0,1,.06.71.6.6,0,0,1-.14.55c.09.14-.12.54-.2.59s-.34.83-.86.83-.85-.64-.87-.83-.28-.45-.2-.59a.6.6,0,0,1-.14-.55.81.81,0,0,1,.06-.71A.73.73,0,0,1,256,389a1.41,1.41,0,0,1,.75-.94Z" transform="translate(-11.22 -134.53)"/><path class="cls-37" d="M258,389a2.5,2.5,0,0,0-2.05,0" transform="translate(-11.22 -134.53)"/><path class="cls-37" d="M258.16,389.7c-.1-.17-.72-.24-1.14-.24s-1,.07-1.15.24" transform="translate(-11.22 -134.53)"/><path class="cls-37" d="M258.22,390.41c-.1-.17-.78-.2-1.2-.2s-1.11,0-1.21.2" transform="translate(-11.22 -134.53)"/><path class="cls-37" d="M258.08,391A5.45,5.45,0,0,1,257,391,5.56,5.56,0,0,1,256,391" transform="translate(-11.22 -134.53)"/><path class="cls-37" d="M257.88,391.55a2.36,2.36,0,0,1-.86.15,2.43,2.43,0,0,1-.87-.15" transform="translate(-11.22 -134.53)"/><path class="cls-37" d="M256.33,387.29c-1.79-.1-3.37.28-3.37.71s1.21.73,1.55.36c.59.51,1.12-.5,1.87-.88Z" transform="translate(-11.22 -134.53)"/><path class="cls-37" d="M256.26,387a28.06,28.06,0,0,0-3.15-.5c-1.11,0-1.69.38-1.69.71,0,.18.12.35.43.45s.33.43.72.43c1,0,1.57-.42,3.81-.63l-.05-.19Z" transform="translate(-11.22 -134.53)"/><path class="cls-37" d="M257.7,387.29c1.79-.1,3.37.28,3.37.71s-1.21.73-1.55.36c-.59.51-1.11-.5-1.87-.88Z" transform="translate(-11.22 -134.53)"/><path class="cls-37" d="M257.77,387a28.06,28.06,0,0,1,3.15-.5c1.11,0,1.69.38,1.69.71,0,.18-.11.35-.42.45s-.34.43-.72.43c-1,0-1.58-.42-3.82-.63l.05-.19Z" transform="translate(-11.22 -134.53)"/><path class="cls-37" d="M257.8,385.16a7.06,7.06,0,0,0,.91-.58l.07,0a.09.09,0,0,1,0,.17,7.5,7.5,0,0,1-.92.56Z" transform="translate(-11.22 -134.53)"/><path class="cls-37" d="M257.14,385.46a3.82,3.82,0,0,0,.7-.34c.12-.09.13.16.07.19a6.09,6.09,0,0,1-.61.27Z" transform="translate(-11.22 -134.53)"/><path class="cls-37" d="M256.24,385.16a7.32,7.32,0,0,1-.92-.58l-.07,0a.09.09,0,0,0,0,.17,7.5,7.5,0,0,0,.92.56Z" transform="translate(-11.22 -134.53)"/><path class="cls-37" d="M256.89,385.46a3.82,3.82,0,0,1-.7-.34c-.12-.09-.13.16-.07.19a5.43,5.43,0,0,0,.62.27Z" transform="translate(-11.22 -134.53)"/><path class="cls-37" d="M257.64,386.4a.27.27,0,0,0,.26-.19c.09-.21,0-.56-.21-.6-.55-.11-.48-.29-.67-.29s-.13.18-.67.29c-.18,0-.3.39-.22.6a.27.27,0,0,0,.26.19c.28,0,.33.05.63.05s.34-.06.62-.05Z" transform="translate(-11.22 -134.53)"/><path class="cls-37" d="M256,387.19c0-.55.15-.82,1-.82s1,.27,1,.82-.3,1.19-1,1.19S256,387.79,256,387.19Z" transform="translate(-11.22 -134.53)"/><path class="cls-6" d="M252.82,438.72s0,.83,2.23,4.43,2.93,4,2.93,4l2.31-1.42s0-.82-2.24-4.42-2.92-4-2.92-4Z" transform="translate(-11.22 -134.53)"/><path class="cls-33" d="M257.4,447.5l25.77,41.37,2.76,1.4v-3.1l-25.08-41.79Z" transform="translate(-11.22 -134.53)"/><path class="cls-31" d="M259.13,446.44l26.8,43.83" transform="translate(-11.22 -134.53)"/><path class="cls-31" d="M257.29,440.1A10.22,10.22,0,0,1,255,443" transform="translate(-11.22 -134.53)"/><path class="cls-34" d="M252,436.84c-.19-.73-.21-1.69.12-1.89s1.17.26,1.73.76Z" transform="translate(-11.22 -134.53)"/><path class="cls-6" d="M255.23,436.29a2,2,0,0,0-3.35,2h0a2,2,0,0,0,2.7.65h0a2,2,0,0,0,.65-2.7Z" transform="translate(-11.22 -134.53)"/><path class="cls-31" d="M254.3,436.86a.87.87,0,0,0-1.21-.29h0a.88.88,0,0,0,.92,1.5h0A.87.87,0,0,0,254.3,436.86Z" transform="translate(-11.22 -134.53)"/><path class="cls-31" d="M255.82,438a10.58,10.58,0,0,1-2.14,2.69" transform="translate(-11.22 -134.53)"/><path class="cls-31" d="M259.32,443.53a10.86,10.86,0,0,1-2.13,2.76" transform="translate(-11.22 -134.53)"/><path class="cls-31" d="M256.57,439a10.21,10.21,0,0,1-2.25,2.85" transform="translate(-11.22 -134.53)"/><path class="cls-31" d="M258,441.21a10.31,10.31,0,0,1-2.3,2.94" transform="translate(-11.22 -134.53)"/><path class="cls-31" d="M258.66,442.35a10.16,10.16,0,0,1-2.25,2.89" transform="translate(-11.22 -134.53)"/><path class="cls-6" d="M265.15,440.85l1.55,2.54-7.14,3.74L253,451.8l-1.55-2.54,7.15-3.74Z" transform="translate(-11.22 -134.53)"/><path class="cls-19" d="M309.57,435.35v23.06" transform="translate(-11.22 -134.53)"/><path class="cls-38" d="M316.59,443.37l24.87,38.79c1.91,3.28,1.36,5.07,0,5.88s-3.18.47-5.21-2.74l-22.79-40.05c-2-3.45-3.77-6.22-4.13-10.35,3.48,2.24,5.1,5.12,7.25,8.47Z" transform="translate(-11.22 -134.53)"/><path class="cls-31" d="M340,486.85c-1.2-.19-1.93-1.14-2.73-2" transform="translate(-11.22 -134.53)"/><path class="cls-31" d="M339.08,480.49c-1.06-2.37-2.19-2.94-3.11-4.89" transform="translate(-11.22 -134.53)"/><path class="cls-31" d="M339.3,484.28a15.12,15.12,0,0,1-2-3.38" transform="translate(-11.22 -134.53)"/><path class="cls-31" d="M336.2,482.08a15.24,15.24,0,0,1-1.8-2.22" transform="translate(-11.22 -134.53)"/><path class="cls-31" d="M340.81,485.75c.39-1.15-.12-2.23-.48-3.32" transform="translate(-11.22 -134.53)"/><path class="cls-31" d="M334.46,478.06a19.3,19.3,0,0,1-3.11-4.89" transform="translate(-11.22 -134.53)"/><path class="cls-31" d="M333.66,473.33c1.09.07-1-3.29-1.35-2.49" transform="translate(-11.22 -134.53)"/><path class="cls-31" d="M330.78,468.66c-.77-1.25-1.37-2.43-2-3.38" transform="translate(-11.22 -134.53)"/><path class="cls-31" d="M328.44,468.64a53.14,53.14,0,0,1-3.66-6.51" transform="translate(-11.22 -134.53)"/><path class="cls-31" d="M323,458.48c-.44,1-2.46-2.38-1.57-2.36" transform="translate(-11.22 -134.53)"/><path class="cls-31" d="M326.15,460.91a9.87,9.87,0,0,0-2-3.38" transform="translate(-11.22 -134.53)"/><path class="cls-31" d="M321.45,453.3a71.19,71.19,0,0,0-4.08-6.48" transform="translate(-11.22 -134.53)"/><path class="cls-31" d="M317.08,449.31c-2-3.3-2.83-6-4.5-8.61" transform="translate(-11.22 -134.53)"/><path class="cls-39" d="M312.62,457.52a3.05,3.05,0,1,1-3.05-3A3,3,0,0,1,312.62,457.52Z" transform="translate(-11.22 -134.53)"/><path class="cls-38" d="M259.83,480l24.87-38.79c1.91-3.29,1.37-5.07,0-5.88s-3.18-.47-5.2,2.74l-22.8,40.05c-2,3.45-3.77,6.22-4.13,10.35,3.48-2.24,5.1-5.12,7.25-8.47Z" transform="translate(-11.22 -134.53)"/><path class="cls-31" d="M283.25,436.47c-1.2.19-1.92,1.14-2.73,2" transform="translate(-11.22 -134.53)"/><path class="cls-31" d="M282.33,442.83c-1.07,2.37-2.2,2.94-3.11,4.89" transform="translate(-11.22 -134.53)"/><path class="cls-31" d="M282.54,439a14.9,14.9,0,0,0-2,3.38" transform="translate(-11.22 -134.53)"/><path class="cls-31" d="M279.44,441.24a15.93,15.93,0,0,0-1.8,2.22" transform="translate(-11.22 -134.53)"/><path class="cls-31" d="M284.05,437.57c.39,1.15-.12,2.23-.48,3.32" transform="translate(-11.22 -134.53)"/><path class="cls-31" d="M277.7,445.26a19.3,19.3,0,0,0-3.11,4.89" transform="translate(-11.22 -134.53)"/><path class="cls-31" d="M276.9,450c1.09-.07-1,3.29-1.35,2.49" transform="translate(-11.22 -134.53)"/><path class="cls-31" d="M274,454.66c-.77,1.25-1.37,2.43-2,3.38" transform="translate(-11.22 -134.53)"/><path class="cls-31" d="M271.68,454.68a54.41,54.41,0,0,0-3.65,6.51" transform="translate(-11.22 -134.53)"/><path class="cls-31" d="M266.22,464.84c-.45-1-2.47,2.38-1.58,2.36" transform="translate(-11.22 -134.53)"/><path class="cls-31" d="M269.39,462.41a10.08,10.08,0,0,1-2,3.38" transform="translate(-11.22 -134.53)"/><path class="cls-31" d="M264.69,470a75.23,75.23,0,0,1-4.07,6.48" transform="translate(-11.22 -134.53)"/><path class="cls-31" d="M260.32,474c-2,3.3-2.83,6-4.49,8.61" transform="translate(-11.22 -134.53)"/><path class="cls-39" d="M271.73,484.68a3.05,3.05,0,1,1-3.05-3.05A3.06,3.06,0,0,1,271.73,484.68Z" transform="translate(-11.22 -134.53)"/><path class="cls-19" d="M252.82,488.4c.71,1.42,4.67,1.64,7.3,1.64,6.94,0,8.56-1.33,8.56-2.61" transform="translate(-11.22 -134.53)"/><path class="cls-6" d="M310.74,486.45s0-.82,2.23-4.42,2.92-4,2.92-4l2.31,1.42s0,.82-2.23,4.42-2.92,4-2.92,4Z" transform="translate(-11.22 -134.53)"/><path class="cls-33" d="M315.32,477.67l25.77-41.36,2.76-1.41V438l-25.07,41.79Z" transform="translate(-11.22 -134.53)"/><path class="cls-31" d="M317.05,478.73l26.8-43.83" transform="translate(-11.22 -134.53)"/><path class="cls-31" d="M315.2,485.07a10.05,10.05,0,0,0-2.29-2.92" transform="translate(-11.22 -134.53)"/><path class="cls-34" d="M309.91,488.33c-.19.73-.21,1.69.11,1.89s1.17-.26,1.74-.76Z" transform="translate(-11.22 -134.53)"/><path class="cls-6" d="M313.14,488.88a2,2,0,1,1-3.34-2.05h0a1.94,1.94,0,0,1,2.69-.65h0a2,2,0,0,1,.65,2.7Z" transform="translate(-11.22 -134.53)"/><path class="cls-31" d="M312.22,488.31a.87.87,0,0,1-1.21.29h0a.88.88,0,0,1,.92-1.5h0A.89.89,0,0,1,312.22,488.31Z" transform="translate(-11.22 -134.53)"/><path class="cls-31" d="M313.74,487.13a11,11,0,0,0-2.14-2.69" transform="translate(-11.22 -134.53)"/><path class="cls-31" d="M317.23,481.64a10.42,10.42,0,0,0-2.13-2.76" transform="translate(-11.22 -134.53)"/><path class="cls-31" d="M314.49,486.13a10.43,10.43,0,0,0-2.26-2.85" transform="translate(-11.22 -134.53)"/><path class="cls-31" d="M315.89,484A10.27,10.27,0,0,0,313.6,481" transform="translate(-11.22 -134.53)"/><path class="cls-31" d="M316.57,482.82a10.41,10.41,0,0,0-2.24-2.88" transform="translate(-11.22 -134.53)"/><path class="cls-6" d="M323.06,484.32l1.56-2.54L317.47,478l-6.58-4.67-1.55,2.54,7.14,3.74Z" transform="translate(-11.22 -134.53)"/><path class="cls-19" d="M240.07,358.74V468.38a28.67,28.67,0,0,0,28.67,28.67h14.45a16.54,16.54,0,0,1,14.45,9.26,16.51,16.51,0,0,1,14.45-9.26h14.45a28.68,28.68,0,0,0,28.67-28.67V358.74Z" transform="translate(-11.22 -134.53)"/></svg>