<svg id="Capa_1" data-name="Capa 1" xmlns="http://www.w3.org/2000/svg" viewBox="0 0 536.66 792.44"><defs><style>.cls-1{fill:#fff;}.cls-2{fill:#009338;}</style></defs><path class="cls-1" d="M271.17,798.44,67.23,686.81C48.32,676.46,34.66,669,34.66,635.45v-579A25.77,25.77,0,0,1,60.4,30.72H534.87a25.77,25.77,0,0,1,25.74,25.74v579c0,33.54-13.65,41-32.56,51.36L324,798.48l-26.39,13.33Z" transform="translate(-29.31 -25.37)"/><path class="cls-2" d="M534.87,36.08a20.38,20.38,0,0,1,20.39,20.38v579c0,30.36-11.25,36.52-29.78,46.66L321.61,793.7h0l-24,12.11-24-12.11L69.8,682.11C51.27,672,40,665.81,40,635.45v-579A20.37,20.37,0,0,1,60.4,36.08H534.87m0-10.71H60.4A31.13,31.13,0,0,0,29.31,56.46v579c0,16.85,3.14,28.41,10.19,37.48C46,681.29,54.64,686,64.65,691.5L268.52,803.09l.15.09.16.08,24,12.11,4.83,2.44,4.83-2.44,21.69-11h.19l2.41-1.32L530.62,691.51c10-5.49,18.66-10.22,25.15-18.58,7.05-9.07,10.2-20.63,10.2-37.48v-579a31.13,31.13,0,0,0-31.1-31.09Z" transform="translate(-29.31 -25.37)"/><path class="cls-2" d="M537.8,99.44a5.81,5.81,0,0,0-4.09-1.7H61.56a5.8,5.8,0,0,0-5.79,5.79V582c0,14.54,2.75,24.52,8.5,31.88s13.38,11.31,21.8,16L289.48,741.17a5.75,5.75,0,0,0,2.78.71H303a5.75,5.75,0,0,0,2.78-.71L509.2,629.83c8.42-4.65,16.06-8.63,21.8-16s8.53-17.34,8.5-31.88V103.53A5.83,5.83,0,0,0,537.8,99.44Z" transform="translate(-29.31 -25.37)"/><path class="cls-1" d="M67.35,109.32H527.92V582a75.15,75.15,0,0,1-.74,11H68.09a75.15,75.15,0,0,1-.74-11Z" transform="translate(-29.31 -25.37)"/><path class="cls-2" d="M57,650l7.58,3.55a6.36,6.36,0,0,0-.52,3.25,4.63,4.63,0,0,0,2.57,3.37,4.26,4.26,0,0,0,3,.62,2.62,2.62,0,0,0,1.87-1.3,2.58,2.58,0,0,0,.1-2.2q-.44-1.23-3.15-3.61-4.44-3.9-5.57-7a6.93,6.93,0,0,1,.46-6,7.41,7.41,0,0,1,3.1-3,8.46,8.46,0,0,1,4.82-.85,17.77,17.77,0,0,1,6.66,2.38q4.77,2.61,6.31,5.76t-.11,7.29l-7.49-3.55a3.85,3.85,0,0,0-2-5.28,3.55,3.55,0,0,0-2.34-.54,2,2,0,0,0-1.44,1,1.58,1.58,0,0,0,0,1.38,7,7,0,0,0,2.08,2.33,36.87,36.87,0,0,1,6,6.17,8.61,8.61,0,0,1,1.66,4.5,8,8,0,0,1-1,4.23,9,9,0,0,1-3.75,3.7,9.5,9.5,0,0,1-5.38,1A17.29,17.29,0,0,1,63.87,665q-6.36-3.49-7.46-7.27A11,11,0,0,1,57,650Z" transform="translate(-29.31 -25.37)"/><path class="cls-2" d="M101.11,669l-6.23-4.31a8.39,8.39,0,0,1,2.57-2.14,6.86,6.86,0,0,1,3-.62,9.9,9.9,0,0,1,3.06.62,24.55,24.55,0,0,1,3.77,1.69,32.37,32.37,0,0,1,4.8,3.08,7.3,7.3,0,0,1,2.35,3.17,5.84,5.84,0,0,1,.21,2.93,8.81,8.81,0,0,1-1,3l-4.36,8a10.93,10.93,0,0,0-.93,2.09,10.07,10.07,0,0,0-.31,2.23l-6.49-3.56a7.67,7.67,0,0,1,.07-1.34,11.06,11.06,0,0,1,.39-1.27,10.44,10.44,0,0,1-3.72.39,12.94,12.94,0,0,1-4.68-1.59,8.16,8.16,0,0,1-4.09-4.18,5.43,5.43,0,0,1,.35-4.61A5.53,5.53,0,0,1,93,669.78c1.28-.44,3.13-.29,5.53.47q4.32,1.35,5.65,1.66a24.38,24.38,0,0,0,2.9.52,2.82,2.82,0,0,0,.45-2.07,3,3,0,0,0-1.57-1.53,5.52,5.52,0,0,0-2.85-.85A3.41,3.41,0,0,0,101.11,669Zm4,6.92c-1.14-.18-2.29-.42-3.47-.72a7.73,7.73,0,0,0-3.27-.36,2,2,0,0,0-1.28,1,2,2,0,0,0-.16,1.65,2.76,2.76,0,0,0,1.39,1.43,4.94,4.94,0,0,0,2.46.62,3.9,3.9,0,0,0,2.16-.6,5.38,5.38,0,0,0,1.57-1.87Z" transform="translate(-29.31 -25.37)"/><path class="cls-2" d="M130.86,677.68l6.48,3.54-1.62,3a8,8,0,0,1,3.38-1.59,4.66,4.66,0,0,1,2.85.62,8.4,8.4,0,0,1,2.83,2.79l-4.84,3.76a6.63,6.63,0,0,0-1.66-1.58,2.77,2.77,0,0,0-2.73,0c-1.29.67-2.72,2.44-4.31,5.33l-3.31,6-7-3.8Z" transform="translate(-29.31 -25.37)"/><path class="cls-2" d="M179.46,695.35l-13.64,24.92-6.47-3.54,1.46-2.67a10,10,0,0,1-3.74.94,8.13,8.13,0,0,1-3.76-1,7.33,7.33,0,0,1-4.1-5.89,13.31,13.31,0,0,1,1.78-7.89q2.46-4.48,5.91-5.69a8.07,8.07,0,0,1,6.77.61,8.73,8.73,0,0,1,2.64,2.15,7.64,7.64,0,0,1,1.44,2.91l4.73-8.63Zm-15.6,12a5.44,5.44,0,0,0,.83-3.66,3.3,3.3,0,0,0-1.71-2.3,2.89,2.89,0,0,0-2.57-.1,6.16,6.16,0,0,0-2.66,2.92,5.87,5.87,0,0,0-.93,3.7,3,3,0,0,0,1.52,2.17,3.19,3.19,0,0,0,2.78.17A6,6,0,0,0,163.86,707.4Z" transform="translate(-29.31 -25.37)"/><path class="cls-2" d="M189.72,709.89l6.92,3.79-9.88,18.05L179.84,728Zm3.76-6.86,6.92,3.78-2.58,4.71-6.92-3.79Z" transform="translate(-29.31 -25.37)"/><path class="cls-2" d="M210.66,721.36l6.44,3.52-1.6,2.94a10.86,10.86,0,0,1,4.33-1,8.69,8.69,0,0,1,4,1.2,6.76,6.76,0,0,1,3.56,4.17q.69,2.6-1.27,6.17l-6.28,11.47-7-3.81,5.43-9.92a4.14,4.14,0,0,0,.69-2.75,2.57,2.57,0,0,0-1.38-1.68,2.86,2.86,0,0,0-2.56-.16,6.29,6.29,0,0,0-2.66,3l-4.74,8.67-6.92-3.79Z" transform="translate(-29.31 -25.37)"/><path class="cls-2" d="M246.57,748.61l-6.23-4.32a8.34,8.34,0,0,1,2.57-2.13,6.86,6.86,0,0,1,3-.62,9.9,9.9,0,0,1,3.06.62,25.45,25.45,0,0,1,3.77,1.68,33.13,33.13,0,0,1,4.8,3.09,7.3,7.3,0,0,1,2.35,3.17,5.84,5.84,0,0,1,.21,2.93,8.81,8.81,0,0,1-1,3l-4.36,8a10.93,10.93,0,0,0-.93,2.09,10.07,10.07,0,0,0-.31,2.23L247,764.72a7.67,7.67,0,0,1,.07-1.34,9.81,9.81,0,0,1,.39-1.28,10.28,10.28,0,0,1-3.73.4,13.15,13.15,0,0,1-4.67-1.59,8.16,8.16,0,0,1-4.09-4.18,5.43,5.43,0,0,1,.35-4.61,5.49,5.49,0,0,1,3.06-2.72c1.28-.44,3.13-.29,5.53.47,2.88.89,4.76,1.45,5.65,1.66a26.59,26.59,0,0,0,2.9.52,2.82,2.82,0,0,0,.45-2.07,3,3,0,0,0-1.58-1.53,5.47,5.47,0,0,0-2.84-.85A3.41,3.41,0,0,0,246.57,748.61Zm4,6.92c-1.14-.18-2.29-.42-3.47-.72a7.73,7.73,0,0,0-3.27-.36,2,2,0,0,0-1.44,2.6,2.7,2.7,0,0,0,1.39,1.44,4.94,4.94,0,0,0,2.46.62,3.9,3.9,0,0,0,2.16-.6,5.38,5.38,0,0,0,1.57-1.87Z" transform="translate(-29.31 -25.37)"/><path class="cls-2" d="M343.64,734.86l13.64,24.92-6.47,3.55-1.46-2.67a10,10,0,0,1-1.23,3.65,8.06,8.06,0,0,1-2.9,2.61,7.35,7.35,0,0,1-7.17.28,13.23,13.23,0,0,1-5.68-5.76q-2.46-4.49-1.61-8a8,8,0,0,1,4.16-5.37,8.58,8.58,0,0,1,3.23-1.06,7.6,7.6,0,0,1,3.23.35l-4.72-8.64Zm1.74,19.64a5.42,5.42,0,0,0-2.64-2.68,3.28,3.28,0,0,0-2.85.2,2.89,2.89,0,0,0-1.47,2.11,6.11,6.11,0,0,0,1,3.82,5.7,5.7,0,0,0,2.61,2.77,2.94,2.94,0,0,0,2.65-.11,3.17,3.17,0,0,0,1.64-2.24A5.9,5.9,0,0,0,345.38,754.5Z" transform="translate(-29.31 -25.37)"/><path class="cls-2" d="M384.84,735.19,371,742.79a5.17,5.17,0,0,0,2.26,2,3.76,3.76,0,0,0,3.26-.26,4.62,4.62,0,0,0,1.66-1.57,5.13,5.13,0,0,0,.58-1.8L385.9,738a11.13,11.13,0,0,1-1.64,6,15.45,15.45,0,0,1-5.7,4.65,14.85,14.85,0,0,1-6.19,2.08,9.35,9.35,0,0,1-5.17-1.35A11,11,0,0,1,363,745a10.41,10.41,0,0,1-1-8.34c.86-2.73,2.87-5,6.06-6.72a15.13,15.13,0,0,1,6.76-2.17,9,9,0,0,1,5.28,1.53,14.21,14.21,0,0,1,4.35,5.15Zm-8.85.54a5.29,5.29,0,0,0-2.65-2.28,3.86,3.86,0,0,0-4.7,3.14,5.54,5.54,0,0,0,.53,2.87Z" transform="translate(-29.31 -25.37)"/><path class="cls-2" d="M385.94,711.7l6.94-3.79,13.64,24.92-6.94,3.8Z" transform="translate(-29.31 -25.37)"/><path class="cls-2" d="M450.68,698l7.07-4.47a6.42,6.42,0,0,0,2.46,2.19,4.68,4.68,0,0,0,4.23-.35,4.27,4.27,0,0,0,2.11-2.17,2.54,2.54,0,0,0-1.88-3.55q-1.28-.3-4.74.72-5.69,1.63-8.88.93a7,7,0,0,1-4.81-3.63,7.42,7.42,0,0,1-.87-4.23,8.35,8.35,0,0,1,1.88-4.52,17.67,17.67,0,0,1,5.59-4.34c3.18-1.74,5.94-2.48,8.26-2.21s4.34,1.61,6.07,4l-7,4.4a3.87,3.87,0,0,0-5.53-1.15,3.54,3.54,0,0,0-1.72,1.68A2,2,0,0,0,453,683a1.6,1.6,0,0,0,1.15.76,7.2,7.2,0,0,0,3.09-.49,36.41,36.41,0,0,1,8.43-1.76,8.71,8.71,0,0,1,4.7,1,8,8,0,0,1,3,3.15,9,9,0,0,1,1.09,5.14,9.48,9.48,0,0,1-2,5.1,17.23,17.23,0,0,1-5.43,4.33q-6.36,3.48-10.15,2.37A11,11,0,0,1,450.68,698Z" transform="translate(-29.31 -25.37)"/><path class="cls-2" d="M507.58,677.51l-6.46,3.54-1.6-2.93a11,11,0,0,1-1.51,4.17,8.93,8.93,0,0,1-3.19,2.74,6.71,6.71,0,0,1-5.42.74c-1.7-.55-3.2-2-4.5-4.37l-6.29-11.49,6.95-3.81L491,676A4.19,4.19,0,0,0,493,678.1a2.55,2.55,0,0,0,2.16-.25,2.88,2.88,0,0,0,1.5-2.07c.19-.92-.17-2.2-1.07-3.85l-4.76-8.69,6.92-3.78Z" transform="translate(-29.31 -25.37)"/><path class="cls-2" d="M509.27,653.12l6.48-3.54,1.62,3a8,8,0,0,1,.48-3.7,4.57,4.57,0,0,1,2.06-2.07,8.32,8.32,0,0,1,3.87-.88l.56,6.1a6.28,6.28,0,0,0-2.22.55,2.71,2.71,0,0,0-1.49,2.28q-.21,2.16,2.16,6.5l3.31,6-7,3.81Z" transform="translate(-29.31 -25.37)"/><path class="cls-2" d="M490.69,53.25H515.1v6.86H500.61V65.7H513v6.45H500.61V85.21h-9.92Z" transform="translate(-29.31 -25.37)"/><path class="cls-2" d="M450.39,72.13l8.66,2.61a16.11,16.11,0,0,1-2.74,6.09,12.11,12.11,0,0,1-4.66,3.68,17.42,17.42,0,0,1-7.08,1.24,20.53,20.53,0,0,1-8.51-1.51,13.47,13.47,0,0,1-5.7-5.33,18,18,0,0,1-2.4-9.76q0-7.94,4.22-12.19t11.93-4.26c4,0,7.2.82,9.5,2.44a14.39,14.39,0,0,1,5.14,7.5L450,64.58a7.72,7.72,0,0,0-1-2.13,5.75,5.75,0,0,0-2-1.75,5.93,5.93,0,0,0-2.68-.61,5.8,5.8,0,0,0-5.15,2.7q-1.35,2-1.35,6.3c0,3.54.53,6,1.61,7.28a6.37,6.37,0,0,0,8.82.38A9.74,9.74,0,0,0,450.39,72.13Z" transform="translate(-29.31 -25.37)"/><path class="cls-2" d="M355.45,79.93H344.24l-1.56,5.28H332.6l12-32h10.77l12,32H357.05ZM353.4,73l-3.53-11.49L346.38,73Z" transform="translate(-29.31 -25.37)"/><path class="cls-2" d="M299.54,53.25h9.88V77.34h15.41v7.87H299.54Z" transform="translate(-29.31 -25.37)"/><path class="cls-2" d="M263.29,53.25h9.87V77.34h15.42v7.87H263.29Z" transform="translate(-29.31 -25.37)"/><path class="cls-2" d="M224.55,53.25H251v6.82H234.44v5.08h15.37v6.52H234.44V78h17.05v7.24H224.55Z" transform="translate(-29.31 -25.37)"/><path class="cls-2" d="M183.49,85.21v-32H200a24,24,0,0,1,7,.78,7.5,7.5,0,0,1,3.9,2.91,9.78,9.78,0,0,1,.35,9.77,8.74,8.74,0,0,1-3.12,3.13,11.76,11.76,0,0,1-3.47,1.26,10,10,0,0,1,2.57,1.18A9.55,9.55,0,0,1,208.76,74a11.76,11.76,0,0,1,1.39,2l4.78,9.26H203.77l-5.28-9.77A7.42,7.42,0,0,0,196.7,73a4.08,4.08,0,0,0-2.42-.74h-.87v13Zm9.92-19h4.17a15,15,0,0,0,2.61-.44,2.56,2.56,0,0,0,1.6-1,3.22,3.22,0,0,0-.35-4.23,6,6,0,0,0-3.69-.83h-4.34Z" transform="translate(-29.31 -25.37)"/><path class="cls-2" d="M142.4,53.25h30v7.89H162.34V85.21h-9.87V61.14H142.4Z" transform="translate(-29.31 -25.37)"/><path class="cls-2" d="M104.2,74.64l9.4-.59a7,7,0,0,0,1.24,3.48,5.21,5.21,0,0,0,4.36,2,4.8,4.8,0,0,0,3.26-1,3,3,0,0,0,1.14-2.3A2.91,2.91,0,0,0,122.51,74c-.73-.65-2.41-1.27-5.06-1.85q-6.49-1.47-9.26-3.89a7.78,7.78,0,0,1-2.79-6.16,8.32,8.32,0,0,1,1.43-4.66A9.41,9.41,0,0,1,111.12,54,20,20,0,0,1,119,52.7c4.08,0,7.2.76,9.34,2.28s3.42,3.94,3.83,7.25l-9.31.54A4.35,4.35,0,0,0,118,58.65a4,4,0,0,0-2.6.73,2.25,2.25,0,0,0-.87,1.78,1.76,1.76,0,0,0,.72,1.37,7.94,7.94,0,0,0,3.32,1.18,41,41,0,0,1,9.27,2.83,9.73,9.73,0,0,1,4.08,3.54,9,9,0,0,1,1.28,4.73,10.1,10.1,0,0,1-1.71,5.67,10.55,10.55,0,0,1-4.75,3.93,19.09,19.09,0,0,1-7.7,1.34q-8.15,0-11.29-3.13A12.4,12.4,0,0,1,104.2,74.64Z" transform="translate(-29.31 -25.37)"/><path class="cls-2" d="M67.18,53.25H93.65v6.82H77.08v5.08H92.45v6.52H77.08V78h17v7.24H67.18Z" transform="translate(-29.31 -25.37)"/><path class="cls-2" d="M469.63,76.31h9.48v8.9h-9.48Z" transform="translate(-29.31 -25.37)"/><path class="cls-2" d="M518.61,76.31h9.49v8.9h-9.49Z" transform="translate(-29.31 -25.37)"/><polygon class="cls-1" points="310.28 579.24 310.28 684.11 403.24 633.22 403.24 579.24 310.28 579.24"/><polygon class="cls-1" points="133.41 579.24 133.41 633.22 226.37 684.11 226.37 579.24 133.41 579.24"/><circle class="cls-2" cx="297.64" cy="351.18" r="226.35" transform="translate(-81.49 26.58) rotate(-9.17)"/><path class="cls-1" d="M186.72,494a188.48,188.48,0,0,0-71.41-29.25A213.48,213.48,0,0,1,83.4,366.46,188.51,188.51,0,0,0,124,300.83l19.71,6.41,80.82,67.69L198.9,477.21Z" transform="translate(-29.31 -25.37)"/><path class="cls-1" d="M145.76,199.31a215,215,0,0,1,71.08-47.18,188.66,188.66,0,0,0,75,18.33v20.73L252.44,289l-105.18,7.26-19.74-6.41a185.82,185.82,0,0,0,7.4-52,195.47,195.47,0,0,0-1.63-24.87Q139.25,205.84,145.76,199.31Z" transform="translate(-29.31 -25.37)"/><path class="cls-1" d="M246,559.69a188.56,188.56,0,0,0-49.9-58.91L208.27,484l89.37-56L387,484l12.18,16.77a188.42,188.42,0,0,0-49.9,58.9,216.17,216.17,0,0,1-103.29,0Z" transform="translate(-29.31 -25.37)"/><path class="cls-1" d="M378,403.63l114.76,37.46q1.59-3.45,3.06-7L375.78,395Z" transform="translate(-29.31 -25.37)"/><path class="cls-1" d="M399.38,351l110.06,35.92c.42-2.52.79-5.05,1.13-7.59L406.22,345.24Z" transform="translate(-29.31 -25.37)"/><path class="cls-1" d="M386.57,361.7l120,39.18c.58-2.46,1.13-4.93,1.63-7.43L393.41,356Z" transform="translate(-29.31 -25.37)"/><path class="cls-1" d="M412.2,340.23l99.14,32.36c.2-2,.38-4.08.52-6.13-.73-.78-1.44-1.57-2.16-2.35L419,334.51Z" transform="translate(-29.31 -25.37)"/><path class="cls-1" d="M373.88,387.39,498.23,428c.91-2.35,1.77-4.73,2.59-7.12l-129.1-42.14Z" transform="translate(-29.31 -25.37)"/><path class="cls-1" d="M382,419.87l104.26,34q1.83-3.37,3.54-6.8l-110-35.9Z" transform="translate(-29.31 -25.37)"/><path class="cls-1" d="M394.21,468.6l37.2,12.14q5.05-2.46,10.24-4.62L392,459.93Z" transform="translate(-29.31 -25.37)"/><path class="cls-1" d="M386.08,436.11l90,29.39c1.28-.27,2.56-.53,3.85-.77,1-1.64,2-3.29,3-5l-99-32.33Z" transform="translate(-29.31 -25.37)"/><path class="cls-1" d="M373.76,372.43l129.11,42.14q1.11-3.6,2.1-7.26l-124.38-40.6Z" transform="translate(-29.31 -25.37)"/><path class="cls-1" d="M390.15,452.36l61.29,20q6.17-2.16,12.45-3.89L388,443.69Z" transform="translate(-29.31 -25.37)"/><path class="cls-1" d="M396.37,477.22,408.55,494q7.15-4.86,14.64-9l-27.08-8.84Z" transform="translate(-29.31 -25.37)"/><path class="cls-1" d="M482.18,325.29,444.66,313l-6.83,5.73,50,16.31Q484.85,330.28,482.18,325.29Z" transform="translate(-29.31 -25.37)"/><path class="cls-1" d="M471.3,300.83l-19.7,6.41-1,.8L478,317C475.54,311.73,473.29,306.35,471.3,300.83Z" transform="translate(-29.31 -25.37)"/><path class="cls-1" d="M431.85,323.78,425,329.5l76.42,24.95q-4.11-5.13-7.87-10.53Z" transform="translate(-29.31 -25.37)"/><path class="cls-1" d="M372.34,291l71.09-97.56q-2.79-2.58-5.68-5.06l-74.32,102Z" transform="translate(-29.31 -25.37)"/><path class="cls-1" d="M328.88,254.35l68.17-93.57q-3.39-1.77-6.87-3.42l-64.64,88.71Z" transform="translate(-29.31 -25.37)"/><path class="cls-1" d="M335.12,269.85,409.48,167.8c-2.16-1.31-4.34-2.6-6.56-3.85l-71.13,97.63Z" transform="translate(-29.31 -25.37)"/><path class="cls-1" d="M322.63,238.84,384,154.55q-2.82-1.23-5.67-2.39l-2.91,1.33L319.3,230.57Z" transform="translate(-29.31 -25.37)"/><path class="cls-1" d="M355.63,289.85l77-105.72q-2.93-2.37-6-4.66l-80,109.77Z" transform="translate(-29.31 -25.37)"/><path class="cls-1" d="M389,292.15l64.59-88.64c-1.75-1.85-3.55-3.67-5.37-5.47l-68.13,93.5Z" transform="translate(-29.31 -25.37)"/><path class="cls-1" d="M439.15,295.61,462.2,264c-.52-3.72-.94-7.44-1.23-11.16L430.24,295Z" transform="translate(-29.31 -25.37)"/><path class="cls-1" d="M405.75,293.31l55.77-76.54c.14-1.3.28-2.6.45-3.9-1.24-1.48-2.51-2.93-3.79-4.38l-61.35,84.2Z" transform="translate(-29.31 -25.37)"/><path class="cls-1" d="M341.37,285.35l80-109.77q-3.09-2.16-6.26-4.25L338,277.08Z" transform="translate(-29.31 -25.37)"/><path class="cls-1" d="M422.45,294.46l38-52.11q-.15-6.53.14-13l-47,64.54Z" transform="translate(-29.31 -25.37)"/><path class="cls-1" d="M448,296.22l19.7-6.4c-1.61-5.53-2.93-11.1-4-16.69l-16.77,23Z" transform="translate(-29.31 -25.37)"/><path class="cls-1" d="M330,167.66l-23.24,31.9,3.34,8.28,30.95-42.49C337.44,166.24,333.76,167,330,167.66Z" transform="translate(-29.31 -25.37)"/><path class="cls-1" d="M303.42,170.45v20.72l.47,1.16,16.95-23.26C315.09,169.79,309.28,170.27,303.42,170.45Z" transform="translate(-29.31 -25.37)"/><path class="cls-1" d="M313.05,215.07l3.33,8.27,47.34-65c-4.1,1.55-8.25,3-12.44,4.24Z" transform="translate(-29.31 -25.37)"/><path class="cls-2" d="M273.19,542.6V473.94h47.07v11.61H287.05v16.26h28.66v11.61H287.05V542.6Z" transform="translate(-29.31 -25.37)"/><path class="cls-2" d="M177.43,268.25V199.59h50.91V211.2h-37v15.22h34.47V238H191.3v18.69h38.35v11.57Z" transform="translate(-29.31 -25.37)"/><path class="cls-2" d="M166.23,400.44l13.44,4.26q-3.09,11.25-10.28,16.7t-18.24,5.46q-13.68,0-22.48-9.35T119.86,392q0-17.13,8.85-26.62T152,355.85q12.6,0,20.47,7.45,4.68,4.41,7,12.65l-13.72,3.27a14.18,14.18,0,0,0-14.47-11.52,15.64,15.64,0,0,0-12.39,5.48q-4.76,5.49-4.75,17.75,0,13,4.68,18.55A15.22,15.22,0,0,0,151,415a13.88,13.88,0,0,0,9.5-3.52Q164.5,408,166.23,400.44Z" transform="translate(-29.31 -25.37)"/></svg>