<svg id="Capa_1" data-name="Capa 1" xmlns="http://www.w3.org/2000/svg" viewBox="0 0 466.63 743.9"><defs><style>.cls-1{fill:#fff;}.cls-2{fill:#1d7b34;}.cls-3{fill:#1d7a34;}.cls-4{fill:#ffdc04;}.cls-5{fill:#f9b233;}</style></defs><path class="cls-1" d="M297.87,785.35c-59.25,0-115.29-18.66-157.82-52.47C98,699.47,73.64,654.77,71.38,607V235.92h453.2V607c-2.27,47.77-26.65,92.47-68.68,125.88C413.36,766.7,357.28,785.33,298,785.35Z" transform="translate(-64.66 -48.16)"/><path class="cls-2" d="M517.86,242.63v364.2c-2.22,45.75-25.7,88.64-66.14,120.79-41.35,32.87-95.91,51-153.64,51H298c-57.77,0-112.36-18.13-153.72-51-40.44-32.15-63.92-75-66.14-120.79V242.63H517.86m13.43-13.43H64.66v378C69.43,709.92,172,792,297.94,792.07H298c125.91,0,228.52-82.15,233.28-184.92V229.2Z" transform="translate(-64.66 -48.16)"/><path class="cls-3" d="M298,418.28H124.88v184c3.54,76.25,79.66,137.17,173.06,137.19H298c93.41,0,169.52-60.94,173.06-137.19v-184Z" transform="translate(-64.66 -48.16)"/><path class="cls-1" d="M263.4,554.7c-6.17,11.57-14.1,15.86-22.87,13-11.44-3.74-14.69-15-7-24.15a22.41,22.41,0,0,0,2.19-2.89c1.35-2.25,1-3.52-2-3.44-3.25.09-6.09-.17-8.68,3.07-3.76,4.7-8.15,4.21-12.36-.41-1.4-1.54-2.55-3.3-3.91-4.87s-2.8-3-4.28-4.56c3.08-1.8,4.95-4.91,7.23-7.65,4.95-5.95,9.19-6.35,14.18-.67,2.79,3.18,5.92,2.14,9,2.19,1.82,0,1.74-1.56,1.2-2.66a17.84,17.84,0,0,0-2.45-3.33c-5.56-6.79-6.07-12.9-1.54-18.89,4.3-5.69,12.88-7.88,19.71-5.05,5,2.05,8.75,6.31,10.81,12.5-3.9-1.58-7.6-2.56-11.52-2-6.07.82-8.2,5.67-4.36,10.46,3.35,4.18,8.12,6,13.27,6.17,8.32.28,16.67,0,25,.17,3,.07,3.37-1.16,3.34-3.68-.11-11.28,0-22.56-.07-33.84a12.33,12.33,0,0,0-.49-3.58c-.63-2-1.43-4.43-4.08-3.79-2.89.69-2.19,3.33-1.42,5.16,1.68,4,1.22,7.17-3,9.05-3.66,1.63-8.23-.55-10.31-4.7-3.15-6.27-1.6-14.69,4.39-21A148.64,148.64,0,0,1,285.77,454c4.8-4,9.17-8.32,11.63-14.82,2.91,8.55,9.65,13.12,15.66,18.31,4.2,3.64,8.53,7.16,11.39,12a17.6,17.6,0,0,1,1.5,15.92,8.74,8.74,0,0,1-4.31,5c-2.93,1.43-5.72,1.47-8.25-.65-2.29-1.93-2.36-4.26-1.31-7.05.78-2.05,2.29-5.24-1.34-5.94-3.15-.62-3.53,2.67-4.22,4.92a11,11,0,0,0-.18,3.1c0,10.93.12,21.87-.09,32.8-.07,3.28.91,4.12,4.08,4,7.8-.23,15.62,0,23.42-.12,5.39-.1,10.25-1.85,13.93-6,1.63-1.83,2.78-4.12,1.77-6.69s-3.26-3.76-6.1-4.08c-3.67-.42-7.14.72-10.85,1.39,2.39-8,9-13,16.86-13A16,16,0,0,1,365,504.51c1.62,5.28-.56,9.41-3.61,13.41-1.37,1.79-4.81,3.93-2.44,5.85,2,1.6,6,1.72,8.67-.54,8.45-7.07,10.29-6.89,17.21,2a19.91,19.91,0,0,0,5.7,5.39c-3.62,2.5-5.75,6.13-8.5,9.21-4.29,4.81-8.32,4.82-12.86.23-.61-.62-1-1.57-1.69-2-2.87-1.61-6.44-1.7-8.78-.17-1.66,1.1.8,3.62,2.09,5.18,6.42,7.75,6.33,15.29-.28,21.06A16.93,16.93,0,0,1,336.66,563a22.43,22.43,0,0,1-5-8c3.92.85,7.46,2.49,11.33,2,2.88-.39,5.49-1.3,6.52-4.34.94-2.8-.4-5.06-2.22-7.05-4.21-4.62-9.9-5.5-15.65-5.71-7.28-.27-14.58,0-21.87-.14-2.8-.06-3.5,1-3.46,3.64.13,9.72-.15,19.45.12,29.16.19,7.11,3.59,12.64,10.05,15.81,2.47,1.21,2.93,2.39,2.46,5.05-4.84,27.25-9.5,54.53-14.22,81.81-2.33,13.44-4.68,26.89-7.63,40.39q-3.78-21.7-7.57-43.42-6.56-37.57-13.16-75.15c-.72-4.07-1.7-7.32,3.64-9.81,5.58-2.61,8.24-8.34,8.36-14.63.18-9.72,0-19.44.09-29.16,0-2.58-.55-3.79-3.42-3.68-8.83.35-17.69-.48-26.52.6a17.53,17.53,0,0,0-11,5.21c-1.85,2-3.2,4.22-2.27,7,1,3.06,3.61,4,6.49,4.37C255.56,557.42,259.14,556,263.4,554.7Z" transform="translate(-64.66 -48.16)"/><polygon class="cls-3" points="233.28 290.78 174.65 232.09 174.65 290.78 233.28 290.78"/><polygon class="cls-1" points="174.65 232.09 233.28 290.78 233.35 290.78 233.35 232.09 174.65 232.09"/><polygon class="cls-3" points="174.65 349.48 233.28 349.48 174.65 290.81 174.65 349.48"/><polygon class="cls-1" points="174.65 290.78 174.65 290.81 233.28 349.48 233.35 349.48 233.35 290.78 233.28 290.78 174.65 290.78"/><polygon class="cls-1" points="115.96 290.78 115.96 290.78 115.96 290.78 115.96 290.78"/><polygon class="cls-3" points="115.96 290.78 174.62 290.78 115.96 232.09 115.96 290.78 115.96 290.78"/><polygon class="cls-1" points="174.65 290.78 174.65 232.09 115.96 232.09 174.62 290.78 174.65 290.78"/><polygon class="cls-1" points="174.62 290.78 115.96 290.78 174.65 349.48 174.65 290.81 174.62 290.78"/><polygon class="cls-3" points="115.96 290.78 115.96 349.48 174.65 349.48 115.96 290.78 115.96 290.78"/><polygon class="cls-3" points="174.65 290.81 174.65 290.78 174.62 290.78 174.65 290.81"/><polygon class="cls-3" points="115.96 290.78 57.26 232.09 57.26 290.78 115.96 290.78 115.96 290.78"/><polygon class="cls-1" points="115.96 232.09 57.26 232.09 115.96 290.78 115.96 232.09"/><polygon class="cls-1" points="57.26 290.78 115.96 349.48 115.96 290.78 57.26 290.78"/><polygon class="cls-3" points="57.26 349.48 115.96 349.48 57.26 290.78 57.26 349.48"/><rect class="cls-3" x="233.28" y="232.09" width="58.7" height="58.7"/><rect class="cls-1" x="233.28" y="290.78" width="58.7" height="58.7"/><rect class="cls-1" x="291.98" y="232.09" width="58.7" height="58.7"/><rect class="cls-3" x="291.98" y="290.78" width="58.7" height="58.7"/><rect class="cls-3" x="350.68" y="232.09" width="58.7" height="58.7"/><rect class="cls-1" x="350.68" y="290.78" width="58.7" height="58.7"/><path class="cls-4" d="M380.82,209.82c-42.67,0-78.21-42.81-78.82-59.61a4,4,0,0,0-8.05,0c-.61,16.8-36.15,59.61-78.82,59.61H68.69V99.41l93.92,90a4.06,4.06,0,0,0,2.79,1.12,4,4,0,0,0,2.91-1.25L298,54,427.64,189.3a4,4,0,0,0,5.7.13l93.92-90V209.82Z" transform="translate(-64.66 -48.16)"/><path class="cls-5" d="M298,59.84l37.59,39.23,89.16,93a8,8,0,0,0,5.65,2.48h.17a8.05,8.05,0,0,0,5.58-2.24L469,160.85l54.25-52v96.94H380.82c-24.15,0-43.43-14.17-52.77-22.61-14.85-13.42-21.81-27.45-22-33.12a8.06,8.06,0,0,0-16.11,0c-.2,5.67-7.17,19.7-22,33.12-9.34,8.44-28.62,22.61-52.77,22.61H72.72V108.85l54.25,52,32.85,31.49a8.05,8.05,0,0,0,5.58,2.24h.17a8,8,0,0,0,5.65-2.48l89.16-93L298,59.84m0-11.68,0,0,0,0v.07L254.56,93.49l-89.16,93L132.55,155,64.66,90V213.85H215.13c45.35,0,82.17-44.68,82.85-63.5.68,18.82,37.49,63.5,82.84,63.5H531.29V90L463.4,155l-32.85,31.49-89.16-93L298,48.23v-.07Z" transform="translate(-64.66 -48.16)"/></svg>