<svg id="Capa_1" data-name="Capa 1" xmlns="http://www.w3.org/2000/svg" viewBox="0 0 378.52 787.37"><defs><style>.cls-1,.cls-15,.cls-21,.cls-23,.cls-27,.cls-28,.cls-5{fill:#fff;}.cls-2,.cls-26{fill:#1d1d1b;}.cls-11,.cls-12,.cls-3{fill:#2a4b9b;}.cls-14,.cls-16,.cls-20,.cls-29,.cls-4{fill:none;}.cls-15,.cls-21,.cls-23,.cls-27,.cls-28,.cls-29,.cls-4{stroke:#1d1d1b;}.cls-10,.cls-11,.cls-12,.cls-15,.cls-19,.cls-21,.cls-23,.cls-24,.cls-25,.cls-26,.cls-28,.cls-29,.cls-4,.cls-5,.cls-7,.cls-9{stroke-miterlimit:10;}.cls-15,.cls-20,.cls-25,.cls-4,.cls-5{stroke-width:1.23px;}.cls-5{stroke:#000;}.cls-6{fill:#eac108;}.cls-10,.cls-11,.cls-12,.cls-13,.cls-14,.cls-17,.cls-19,.cls-20,.cls-24,.cls-25,.cls-26,.cls-6,.cls-7,.cls-8,.cls-9{stroke:#010101;}.cls-13,.cls-14,.cls-6,.cls-8{stroke-linecap:round;}.cls-13,.cls-14,.cls-17,.cls-20,.cls-27,.cls-6,.cls-8{stroke-linejoin:round;}.cls-6,.cls-8{stroke-width:0.48px;}.cls-7{fill:#a38154;}.cls-10,.cls-11,.cls-12,.cls-7,.cls-9{stroke-width:0.61px;}.cls-13,.cls-8{fill:#e5e5e4;}.cls-12,.cls-13,.cls-8,.cls-9{fill-rule:evenodd;}.cls-10,.cls-9{fill:#ad9766;}.cls-13,.cls-14{stroke-width:0.52px;}.cls-17,.cls-19{fill:#bdaa80;}.cls-17{stroke-width:1.25px;}.cls-18{fill:#2c4b9b;}.cls-19{stroke-width:0.31px;}.cls-21{stroke-width:1.36px;}.cls-22{fill:#ffde00;}.cls-23{stroke-width:3.07px;}.cls-24{fill:#b17f4a;stroke-width:1.12px;}.cls-25{fill:#3aaa35;}.cls-26{stroke-width:0.92px;}.cls-27,.cls-28{stroke-width:2.45px;}.cls-29{stroke-width:4.91px;}</style></defs><path class="cls-1" d="M297.64,813.4a1.21,1.21,0,0,1-.75-.25A492,492,0,0,1,167.61,661.6c-36.5-66.74-52.71-149.21-58-181.56a1.23,1.23,0,0,1,.73-1.33,108.19,108.19,0,0,0,17.78-9.55c12.92-8.64,21.88-19.32,26.63-31.72,1-2.6,2.28-8.34,3.33-14.89-1,.1-2.09.15-3.12.15a31.61,31.61,0,0,1-9-1.28,33.23,33.23,0,0,1-16.9-12,45.19,45.19,0,0,1-3.59-5.4,29.5,29.5,0,0,1-3.36-13.75,29.87,29.87,0,0,1,56.57-13.37,59.38,59.38,0,0,1,8,22.42c2,14.47-2.09,26.07-4.8,33.75l-.11.32c-4.38,12.44-10.59,20.71-17.17,29.46a213.21,213.21,0,0,1-30.45,32.63c10,55.42,24.32,101.82,42.7,137.92,28.87,56.7,69.49,107,120.74,149.62,51.24-42.59,91.86-92.92,120.73-149.62,18.38-36.1,32.75-82.5,42.71-137.92a213.28,213.28,0,0,1-30.46-32.63c-6.57-8.75-12.78-17-17.16-29.46l-.12-.33c-2.71-7.67-6.8-19.27-4.8-33.74a59.47,59.47,0,0,1,8-22.5,29.53,29.53,0,0,1,4.4-6.46,30.16,30.16,0,0,1,11.27-7.87A29.86,29.86,0,0,1,469.78,404a45.83,45.83,0,0,1-3.61,5.44,33.3,33.3,0,0,1-16.91,12,31.51,31.51,0,0,1-9,1.28c-1,0-2.07-.05-3.12-.15a94.11,94.11,0,0,0,3.33,14.89c4.76,12.4,13.72,23.08,26.63,31.72a108.3,108.3,0,0,0,17.79,9.55,1.23,1.23,0,0,1,.73,1.33c-5.28,32.35-21.5,114.82-58,181.56A492.11,492.11,0,0,1,298.39,813.15,1.23,1.23,0,0,1,297.64,813.4Z" transform="translate(-108.38 -27.26)"/><path class="cls-2" d="M443.25,361.67a28.64,28.64,0,0,1,25.44,41.79,43.66,43.66,0,0,1-3.49,5.24,32.3,32.3,0,0,1-16.28,11.54,30.1,30.1,0,0,1-8.62,1.23,33.24,33.24,0,0,1-4.58-.32c1,6.41,2.42,13.52,3.65,16.73,5.5,14.34,15.84,24.77,27.09,32.3a109.85,109.85,0,0,0,18,9.66c-7.79,47.79-25.31,121.67-57.85,181.17A487.81,487.81,0,0,1,297.64,812.18,487.81,487.81,0,0,1,168.69,661c-32.54-59.5-50.06-133.38-57.86-181.17a109.93,109.93,0,0,0,18-9.66c11.24-7.53,21.59-18,27.09-32.3,1.23-3.21,2.67-10.32,3.65-16.73a33.39,33.39,0,0,1-4.59.32,30,30,0,0,1-8.61-1.23,32.22,32.22,0,0,1-16.28-11.54,45,45,0,0,1-3.5-5.24,28.64,28.64,0,1,1,51.06-26,58.47,58.47,0,0,1,7.88,22c2,14.37-2.14,25.77-4.86,33.49-4.23,12-10,19.81-17,29.13a211.54,211.54,0,0,1-30.8,32.9c7.81,43.68,20.85,95.56,42.94,138.94,38.52,75.65,89.46,123.87,121.83,150.66C330,757.86,381,709.64,419.47,634c22.09-43.38,35.13-95.26,42.94-138.94a211.19,211.19,0,0,1-30.81-32.9c-7-9.32-12.75-17.11-17-29.13-2.72-7.72-6.84-19.12-4.85-33.49a58.47,58.47,0,0,1,7.88-22,28.35,28.35,0,0,1,4.27-6.27,28.5,28.5,0,0,1,21.34-9.55m0-2.46a31,31,0,0,0-11.44,2.18,31.31,31.31,0,0,0-11.73,8.19,30.92,30.92,0,0,0-4.59,6.73,60.55,60.55,0,0,0-8.16,22.88c-2,14.76,2.11,26.54,4.85,34.32l.12.33c4.44,12.62,10.71,21,17.34,29.78A214.38,214.38,0,0,0,459.74,496c-9.93,55-24.21,101.06-42.46,136.9-28.65,56.26-68.89,106.24-119.64,148.58-50.75-42.34-91-92.32-119.64-148.58C159.75,597,145.46,551,135.53,496a214.45,214.45,0,0,0,30.11-32.36c6.63-8.83,12.89-17.16,17.34-29.78l.11-.33c2.75-7.78,6.9-19.56,4.86-34.32a60.72,60.72,0,0,0-8.16-22.88,31.09,31.09,0,0,0-58.86,14,30.85,30.85,0,0,0,3.47,14.28.56.56,0,0,1,0,.08,46.77,46.77,0,0,0,3.69,5.54,34.42,34.42,0,0,0,17.52,12.38,32.6,32.6,0,0,0,9.31,1.34c.55,0,1.1,0,1.66,0a86.4,86.4,0,0,1-3,13.11c-4.66,12.16-13.46,22.64-26.16,31.14a106.91,106.91,0,0,1-17.58,9.44,2.46,2.46,0,0,0-1.46,2.65c5.29,32.42,21.53,115,58.13,182A490.49,490.49,0,0,0,296.13,814.12a2.5,2.5,0,0,0,1.51.51,2.45,2.45,0,0,0,1.5-.51,492.68,492.68,0,0,0,62.14-57.41,488.54,488.54,0,0,0,67.46-94.52c36.59-66.91,52.84-149.54,58.13-182a2.46,2.46,0,0,0-1.46-2.65,106.51,106.51,0,0,1-17.58-9.44c-12.71-8.5-21.51-19-26.17-31.14a85.46,85.46,0,0,1-3-13.11c.55,0,1.11,0,1.65,0a32.6,32.6,0,0,0,9.31-1.34,34.44,34.44,0,0,0,17.53-12.38,48,48,0,0,0,3.69-5.54.59.59,0,0,1,0-.08,30.74,30.74,0,0,0,3.48-14.28,31.13,31.13,0,0,0-31.1-31.1Z" transform="translate(-108.38 -27.26)"/><path class="cls-1" d="M422.53,364.9a12.66,12.66,0,0,1-3.85-.53A20.05,20.05,0,0,1,399.92,345a16.84,16.84,0,0,1,0-4.65c.22-1.52.89-6.15,4.82-9.28a10.19,10.19,0,0,1,.88-.63,19.79,19.79,0,0,1,14.25-6h.53a57.36,57.36,0,0,0-13.21-7.24l-.16-.06c-2-.79-2.17-.92-13-8-6.46-4.21-16.21-10.58-32.25-21a38.07,38.07,0,0,1-9.34-8.18,33.35,33.35,0,0,1-7.94-21.21c0-.64.05-1.22.05-1.8,0-.28,0-.56.07-.84-18.3,1.68-37.51,1.93-47.49,1.93-9.73,0-28.51-.24-46.58-1.85,0,.24,0,.47,0,.69,0,.65,0,1.23.06,1.81a34.09,34.09,0,0,1-.48,5.32,33.09,33.09,0,0,1-7.46,15.95,38.26,38.26,0,0,1-9.34,8.18c-16,10.37-25.79,16.74-32.25,21-10.78,7-11,7.17-12.95,8l-.16.06a57.15,57.15,0,0,0-13.21,7.24h.53a19.8,19.8,0,0,1,14.25,6c.29.19.59.4.88.63,3.92,3.13,4.6,7.76,4.82,9.28a16.46,16.46,0,0,1,0,4.65,20,20,0,0,1-18.76,19.35h0a12.54,12.54,0,0,1-3.84.53h0c-7.2,0-19.1-4.59-22.7-13.2-2.86-6.84-2.33-13.9-2.15-16.22a30.86,30.86,0,0,1,3.16-12.6c1.72-3.32,4.51-6.66,13.11-13.05a161.32,161.32,0,0,1,14.31-9.54c7.79-4.54,13.26-7.64,17.66-10.14,8.38-4.75,11.85-6.72,17.56-10.79l.4-.29a83.14,83.14,0,0,0,8.68-7,18,18,0,0,1-2.93.24,17.48,17.48,0,0,1-16.34-11.1,17.24,17.24,0,0,1-1.23-4.49,17.82,17.82,0,0,1,2.13-11,22,22,0,0,1,6-7.36,12.16,12.16,0,0,1,1.15-1.1c-.25-1.3-.48-2.43-.7-3.46l-3.67-2.39a1.25,1.25,0,0,1-.47-1.48l.85-2.17c-4-2-6-4.46-6-7.2a6.21,6.21,0,0,1,2-4.43,86.29,86.29,0,0,1-8.45-9.4c-.38-.47-.78-1-1.17-1.48L188.54,198a3.65,3.65,0,0,1-.66-2.7,4,4,0,0,1,.33-1.1,7,7,0,0,1-.79,0A9,9,0,0,1,179.56,181c-.41-.57-.81-1.13-1.19-1.69a9.24,9.24,0,0,1-2.72.41,9.39,9.39,0,0,1-6.21-16.44c-.2-.62-.38-1.23-.54-1.85a8.86,8.86,0,0,1-.13-17.72l0-.19a8.87,8.87,0,1,1,4.31-17.19,8.82,8.82,0,1,1,11.51-13.27,8.24,8.24,0,0,1-1.2-4.3A8.34,8.34,0,0,1,200,107.08l.37-.12a7.88,7.88,0,0,1-.09-1.2,8.29,8.29,0,0,1,16.5-1.2,7.2,7.2,0,0,1,14.18,1.77c0,.06,0,.11,0,.17l1.65.43a7.1,7.1,0,0,1,7,.15,4.87,4.87,0,0,1,0-.66,6.4,6.4,0,0,1,11.8-3.46A6.41,6.41,0,0,1,264,101.58l.82,0a5.83,5.83,0,0,1,11.49,1.4,34,34,0,0,1,4.14,1.51l.2.09.46-.49a20,20,0,0,1,4.94-3.56A15.26,15.26,0,0,1,284,97.32a16.13,16.13,0,0,1-.62-1.49c-.19-.54-.33-1-.45-1.51l-.05-.21c-.1-.45-.18-.9-.24-1.36,0-.17,0-.24-.05-.32a16.64,16.64,0,0,1-.09-1.68q0-.61.06-1.23A14.78,14.78,0,0,1,284,84.14a15.16,15.16,0,0,1,2.48-3.65l.13-.15c.22-.23.44-.45.67-.67l.41-.37a60.2,60.2,0,0,0,2.46-9,61.92,61.92,0,0,0,1.07-10.65c-.71,0-1.46,0-2.15,0h-1.25c-3.36.08-6.53.16-9.92,1.44a18.56,18.56,0,0,0-3.6,1.84,1.24,1.24,0,0,1-.67.19A1.19,1.19,0,0,1,273,63a1.21,1.21,0,0,1-.64-1.08V45.68A1.21,1.21,0,0,1,273,44.6a1.19,1.19,0,0,1,.58-.15,1.17,1.17,0,0,1,.67.2,19.08,19.08,0,0,0,3.6,1.83c3.39,1.28,6.56,1.36,9.91,1.44h1.09c.67,0,1.39,0,2.08,0,0-.23,0-.47,0-.71-.08-3.51-.15-6.82-1.38-10.37A21.67,21.67,0,0,0,286,30.48a1.22,1.22,0,0,1,1-2h21.34a1.25,1.25,0,0,1,1.11.69,1.23,1.23,0,0,1-.16,1.3,21.87,21.87,0,0,0-3.56,6.34c-1.23,3.55-1.31,6.86-1.39,10.37,0,.24,0,.48,0,.71l2.08,0h1.09c3.36-.08,6.53-.16,9.91-1.44A19.16,19.16,0,0,0,321,44.65a1.14,1.14,0,0,1,.66-.2,1.23,1.23,0,0,1,1.23,1.23V61.9a1.23,1.23,0,0,1-1.23,1.23,1.21,1.21,0,0,1-.66-.19,18.63,18.63,0,0,0-3.61-1.84c-3.38-1.28-6.55-1.36-9.91-1.44h-1.25c-.7,0-1.45,0-2.15,0A59.78,59.78,0,0,0,307.6,79.3s.4.37.4.37c.23.22.45.44.67.67l.09.1a15.17,15.17,0,0,1,4,9.1,12,12,0,0,1,.06,1.21,14.36,14.36,0,0,1-.1,1.68l0,.23c-.07.55-.15,1-.25,1.44l0,.17a14.34,14.34,0,0,1-.44,1.48c-.21.58-.42,1.08-.65,1.57a14.87,14.87,0,0,1-2.06,3.19,20,20,0,0,1,4.94,3.56l.46.49.2-.09A34,34,0,0,1,319,103a5.83,5.83,0,0,1,11.49-1.4l.82,0A6.41,6.41,0,0,1,344,103a6.4,6.4,0,0,1,11.8,3.46q0,.33,0,.66a7.1,7.1,0,0,1,7-.15l1.64-.43v-.17a7.2,7.2,0,0,1,14.18-1.75A8.29,8.29,0,0,1,395,105.76,9.42,9.42,0,0,1,395,107l.37.12a8.34,8.34,0,1,1,15.32,6,8.82,8.82,0,1,1,11.51,13.27,8.87,8.87,0,1,1,4.31,17.19c0,.06,0,.13,0,.19a8.86,8.86,0,0,1-.13,17.72c-.16.62-.34,1.23-.54,1.85a9.39,9.39,0,0,1-6.21,16.44,9.24,9.24,0,0,1-2.72-.41c-.39.56-.79,1.12-1.2,1.69a9,9,0,0,1-7.85,13.25,8.69,8.69,0,0,1-1.76-.18,3.76,3.76,0,0,1,.4,1.24,3.65,3.65,0,0,1-.65,2.7l-5.46,7.27c-.39.52-.79,1-1.19,1.5a86.78,86.78,0,0,1-8.43,9.38,6.21,6.21,0,0,1,2,4.43c0,2.74-2,5.16-6,7.2l.85,2.17a1.22,1.22,0,0,1-.47,1.48l-3.66,2.39c-.23,1.07-.44,2.13-.63,3.1a23.37,23.37,0,0,1,8,8.82,17.49,17.49,0,0,1,.89,15.54,17.47,17.47,0,0,1-16.32,11.06,17.82,17.82,0,0,1-2.93-.24,82.09,82.09,0,0,0,8.68,7l.4.29c5.7,4.07,9.17,6,17.56,10.79,4.39,2.5,9.86,5.6,17.66,10.14a164.51,164.51,0,0,1,14.31,9.54c8.59,6.39,11.38,9.73,13.1,13.05a30.91,30.91,0,0,1,3.17,12.6c.17,2.32.71,9.38-2.16,16.22C441.63,360.31,429.74,364.9,422.53,364.9Z" transform="translate(-108.38 -27.26)"/><path class="cls-2" d="M308.31,29.71a22.46,22.46,0,0,0-3.77,6.71,33.21,33.21,0,0,0-1.45,10.75c0,.66,0,1.28,0,1.87v0c.91,0,2.12.09,3.3.09l1.12,0c3.36-.08,6.74-.16,10.32-1.51a20.62,20.62,0,0,0,3.83-2V61.9A20.62,20.62,0,0,0,317.82,60c-3.58-1.35-7-1.43-10.32-1.51l-1.28,0c-1.23,0-2.47,0-3.38.09v.05a62,62,0,0,0,1.11,12A60.62,60.62,0,0,0,306.55,80l.4.37.21.19c.21.2.42.4.62.61l.12.14a13.85,13.85,0,0,1,2.27,3.32l0,0a14,14,0,0,1,1.35,5c0,.36,0,.73,0,1.11a13,13,0,0,1-.09,1.54c0,.1,0,.2,0,.3-.06.42-.13.83-.22,1.24a1.46,1.46,0,0,1-.05.2q-.17.68-.39,1.32a.64.64,0,0,0,0,.07c-.17.47-.36.92-.57,1.37h0a14.28,14.28,0,0,1-2.12,3.19L308,100a11.77,11.77,0,0,1-.85.88c.22.09.46.17.68.27a19.14,19.14,0,0,1,5.46,3.75,20.35,20.35,0,0,1,1.36,1.58c-.25,1-.49,2-.73,3.08.24-1,.48-2.08.73-3.08h0l.18-.7c.17-.08.31-.16.48-.23a32.27,32.27,0,0,1,5-1.72,4.33,4.33,0,0,1-.09-.89,4.6,4.6,0,0,1,9.2-.2h.08c1,0,1.94,0,2.88.08a5.18,5.18,0,0,1,10.36.12,4.81,4.81,0,0,1-.14,1.14c.65.14,1.28.3,1.91.47a5.17,5.17,0,1,1,9.66,3.71c.39.2.78.4,1.14.6a5.94,5.94,0,0,1,7.25-.65c1-.28,2.05-.56,3.15-.8a6,6,0,1,1,11.82-1.56q1-.06,2.16-.06v-.07a7.07,7.07,0,0,1,14.13,0,6.92,6.92,0,0,1-.31,2c.82.24,1.79.54,2.87.92a7.12,7.12,0,1,1,11.17,5.88c.77.58,1.56,1.2,2.34,1.87a7.59,7.59,0,1,1,8.55,10.16c.48.8.91,1.58,1.3,2.33A7.64,7.64,0,1,1,425,142.48c.2.8.39,1.63.56,2.49.25,0,.51,0,.77,0a7.64,7.64,0,0,1,0,15.27,8.3,8.3,0,0,1-.87,0,29.58,29.58,0,0,1-1,3.55,8.16,8.16,0,0,1-8,14.14c-.69,1-1.43,2-2.19,3.11a7.72,7.72,0,0,1-9.12,11.57c-.34.39-.71.79-1.06,1.18a3,3,0,0,1,.3.18,2.51,2.51,0,0,1,.5,3.39l-5.46,7.27c-.38.51-.77,1-1.16,1.45a77.9,77.9,0,0,1-9.32,10.18c1.7,1.32,2.64,2.79,2.64,4.42,0,2.59-2.35,4.76-6.35,6.59l1.26,3.23-4,2.65,0,0c-.32,1.46-.62,2.95-.9,4.45l.58.41a22.34,22.34,0,0,1,7.68,8.42,16.57,16.57,0,0,1,2,10.27,16.77,16.77,0,0,1-1.16,4.23,16.35,16.35,0,0,1-23.06,8.32,94.26,94.26,0,0,0,13.3,11.24c8.71,6.22,12.39,7.65,35.31,21a160.86,160.86,0,0,1,14.2,9.47c9,6.66,11.27,9.78,12.74,12.62a29.81,29.81,0,0,1,3,12.13c.28,3.83.39,9.78-2.07,15.66-3.31,7.92-14.43,12.44-21.57,12.44a11.25,11.25,0,0,1-3.47-.47l-.13,0a18.73,18.73,0,0,1-17.78-18.24,15.2,15.2,0,0,1,0-4.37c.21-1.46.83-5.68,4.37-8.49.3-.24.6-.45.9-.65a18.59,18.59,0,0,1,18.25-5.08l-.66-.59a58,58,0,0,0-16.51-9.7c-2.95-1.18-1.77-.86-45-28.81a36.87,36.87,0,0,1-9.06-7.92,32.08,32.08,0,0,1-7.66-20.45c0-.59,0-1.19,0-1.79s.13-1.45.24-2.21c-16.91,1.63-35.87,2.07-48.89,2.07-12.79,0-31.31-.42-48-2,.1.73.19,1.44.23,2.12s0,1.2.05,1.79a32.08,32.08,0,0,1-7.66,20.45,37.24,37.24,0,0,1-9.06,7.92c-43.21,27.95-42,27.63-45,28.81a58,58,0,0,0-16.5,9.7c-.24.21-.44.4-.67.59a18.89,18.89,0,0,1,4.79-.64,18.69,18.69,0,0,1,13.46,5.72,10.87,10.87,0,0,1,.91.65c3.54,2.81,4.15,7,4.36,8.49a15.22,15.22,0,0,1,0,4.37,18.75,18.75,0,0,1-17.78,18.24l-.14,0a11.25,11.25,0,0,1-3.47.47c-7.13,0-18.25-4.52-21.57-12.44-2.45-5.88-2.35-11.83-2.06-15.66a29.76,29.76,0,0,1,3-12.13c1.47-2.84,3.77-6,12.75-12.62a160.86,160.86,0,0,1,14.2-9.47c22.91-13.34,26.59-14.77,35.31-21a94.26,94.26,0,0,0,13.3-11.24,16.69,16.69,0,0,1-24.22-12.55,16.65,16.65,0,0,1,2-10.27,20.7,20.7,0,0,1,5.81-7,9.17,9.17,0,0,1,1.64-1.47c-.31-1.62-.62-3.22-1-4.79l0,0-4-2.65,1.26-3.23c-4-1.83-6.35-4-6.35-6.59,0-1.63.94-3.1,2.63-4.42A78.61,78.61,0,0,1,196.13,206c-.38-.46-.77-.94-1.15-1.45l-5.46-7.27a2.51,2.51,0,0,1,.49-3.39,2.42,2.42,0,0,1,1-.4c-.29-.32-.59-.64-.86-1A7.72,7.72,0,0,1,181,181c-.77-1.08-1.5-2.11-2.2-3.11a8,8,0,0,1-3.18.65,8.17,8.17,0,0,1-4.78-14.79,33.79,33.79,0,0,1-1-3.55,8.11,8.11,0,0,1-.86,0,7.64,7.64,0,1,1,0-15.27c.26,0,.52,0,.77,0,.17-.86.35-1.69.55-2.49A7.64,7.64,0,1,1,175.54,129c.39-.75.82-1.53,1.3-2.33a7.59,7.59,0,1,1,8.55-10.16c.78-.67,1.56-1.29,2.34-1.87a7.12,7.12,0,1,1,11.16-5.88c1.09-.38,2.05-.68,2.87-.92a7.26,7.26,0,0,1-.3-2,7.07,7.07,0,0,1,14.13,0,.15.15,0,0,1,0,.07c.76,0,1.48,0,2.17.06a6,6,0,0,1,11.93.44,7,7,0,0,1-.11,1.12c1.1.24,2.14.52,3.15.8a5.92,5.92,0,0,1,7.24.65l1.15-.6a5.17,5.17,0,1,1,9.65-3.71c.63-.17,1.27-.33,1.91-.47a5.38,5.38,0,0,1-.13-1.14,5.18,5.18,0,0,1,10.36-.12c.94,0,1.9-.08,2.87-.08h.09a4.6,4.6,0,0,1,9.2.2,4.33,4.33,0,0,1-.09.89,31.8,31.8,0,0,1,5,1.72l.49.23c.06.23.12.46.17.7h0c.26,1,.5,2,.73,3.08-.23-1-.47-2.08-.73-3.08a18.36,18.36,0,0,1,1.37-1.58,19.14,19.14,0,0,1,5.46-3.75c.22-.1.45-.18.68-.27a11.77,11.77,0,0,1-.85-.88l-.06-.06a14,14,0,0,1-2.12-3.19h0c-.21-.45-.4-.9-.57-1.37l0-.07a11.75,11.75,0,0,1-.38-1.32l-.06-.2c-.09-.41-.16-.82-.21-1.24,0-.1,0-.2-.05-.3,0-.5-.09-1-.09-1.54a10,10,0,0,1,.06-1.11,13.84,13.84,0,0,1,1.35-5l0,0a13.81,13.81,0,0,1,2.26-3.32l.13-.14c.2-.21.4-.41.61-.61l.22-.19.4-.37a60.62,60.62,0,0,0,2.61-9.45,61.91,61.91,0,0,0,1.1-12v-.05c-.91,0-2.16-.09-3.38-.09l-1.28,0c-3.36.08-6.74.16-10.32,1.51a20.65,20.65,0,0,0-3.84,1.95V45.68a20.65,20.65,0,0,0,3.84,2c3.58,1.35,7,1.43,10.32,1.51l1.11,0c1.18,0,2.4,0,3.31-.09v0c0-.59,0-1.21,0-1.87a33.5,33.5,0,0,0-1.46-10.75A22.61,22.61,0,0,0,287,29.71h21.34m0-2.45H287a2.45,2.45,0,0,0-1.91,4,20.55,20.55,0,0,1,3.36,6,29.73,29.73,0,0,1,1.3,9.48h-1.88c-3.25-.08-6.32-.15-9.51-1.36A17.81,17.81,0,0,1,275,43.62a2.41,2.41,0,0,0-1.34-.4,2.46,2.46,0,0,0-2.45,2.46V61.9a2.46,2.46,0,0,0,2.45,2.46A2.49,2.49,0,0,0,275,64a17.3,17.3,0,0,1,3.37-1.72c3.19-1.21,6.26-1.28,9.5-1.36H290a60.65,60.65,0,0,1-1,9.22,58.59,58.59,0,0,1-2.31,8.51l-.18.17c-.25.23-.49.47-.73.72l-.11.12a16.38,16.38,0,0,0-4.31,9.82c0,.46-.06.9-.06,1.31a16.45,16.45,0,0,0,.1,1.81,2.34,2.34,0,0,0,.05.3v.06c.07.51.16,1,.26,1.45a2.09,2.09,0,0,1,.05.21c.14.55.29,1.07.47,1.58l0,.08a16.08,16.08,0,0,0,.67,1.61h0a16.63,16.63,0,0,0,1.33,2.27,20.9,20.9,0,0,0-3.85,3c-.94-.39-1.91-.74-2.89-1.06a7.05,7.05,0,0,0-13-2.73,7.65,7.65,0,0,0-13.88,1,7.63,7.63,0,0,0-12.17,4.88,8.16,8.16,0,0,0-2.46-.38,8.31,8.31,0,0,0-3.5.78l-.32-.09a8.42,8.42,0,0,0-15.16-4.22A9.52,9.52,0,0,0,199.41,103a9.56,9.56,0,0,0-17.21,5.76,9.87,9.87,0,0,0,.08,1.22A10,10,0,0,0,170,124.77a10.1,10.1,0,0,0-4.87,18.5A10.08,10.08,0,0,0,168,162.6l.09.32a10.61,10.61,0,0,0,7.61,18,10.15,10.15,0,0,0,2.2-.23l.29.4a10.19,10.19,0,0,0,8.49,14.34,4.88,4.88,0,0,0,.93,3.29l1.86,2.48L193,206c.36.48.74,1,1.21,1.53a90.62,90.62,0,0,0,7.69,8.69,7.07,7.07,0,0,0-1.55,4.36c0,3,1.91,5.6,5.71,7.77l-.46,1.15a2.46,2.46,0,0,0,.94,3l3.24,2.12c.15.7.3,1.44.46,2.26-.23.21-.45.44-.65.66a23,23,0,0,0-6.3,7.7,19,19,0,0,0-2.26,11.74,19.39,19.39,0,0,0,1.32,4.8,18.72,18.72,0,0,0,16.87,11.83c-2.54,2.14-4.41,3.47-5.86,4.5l-.4.29c-5.66,4-9.11,6-17.45,10.73-4.4,2.49-9.88,5.6-17.68,10.14a162.39,162.39,0,0,0-14.43,9.62c-8.78,6.52-11.66,10-13.46,13.46a32.34,32.34,0,0,0-3.3,13.08c-.18,2.39-.73,9.67,2.25,16.79,4,9.51,16.57,13.95,23.83,13.95a14,14,0,0,0,4.08-.54,21.29,21.29,0,0,0,19.76-20.46,17.69,17.69,0,0,0,0-4.93c-.24-1.64-1-6.64-5.27-10.07-.27-.22-.56-.42-.86-.62a21,21,0,0,0-11.93-6.05,57.36,57.36,0,0,1,10-5.08l.16-.06c2.08-.83,2.29-1,13.17-8.07,6.46-4.22,16.21-10.59,32.24-21a39.53,39.53,0,0,0,9.63-8.43,34.23,34.23,0,0,0,7.72-16.54,35.77,35.77,0,0,0,.5-5.44s0-.08,0-.12c0-.37,0-.74,0-1.11,17.68,1.51,35.79,1.74,45.29,1.74,9.74,0,28.27-.25,46.19-1.81,0,.39,0,.78-.05,1.18v.12a34.52,34.52,0,0,0,.5,5.44,34.14,34.14,0,0,0,7.72,16.54,39.53,39.53,0,0,0,9.63,8.43c16,10.37,25.78,16.74,32.23,21,10.88,7.1,11.09,7.24,13.18,8.07l.16.06a57.39,57.39,0,0,1,10,5.08,21,21,0,0,0-11.92,6.05c-.31.2-.59.4-.87.62-4.3,3.43-5,8.43-5.27,10.07a17.69,17.69,0,0,0,0,4.93,21.29,21.29,0,0,0,19.76,20.46,13.93,13.93,0,0,0,4.07.54c7.26,0,19.86-4.44,23.84-13.95,3-7.12,2.42-14.4,2.24-16.79a32.34,32.34,0,0,0-3.3-13.08c-1.8-3.47-4.67-6.94-13.46-13.46a164.44,164.44,0,0,0-14.42-9.62c-7.8-4.54-13.28-7.65-17.68-10.14-8.34-4.74-11.8-6.7-17.45-10.73l-.4-.29c-1.45-1-3.33-2.36-5.86-4.5a19.34,19.34,0,0,0,18.18-16.63A18.89,18.89,0,0,0,392,245.2a24,24,0,0,0-7.75-8.81c.11-.59.24-1.19.37-1.81l3.24-2.12a2.46,2.46,0,0,0,.94-3l-.46-1.15c3.79-2.17,5.71-4.78,5.71-7.77a7.07,7.07,0,0,0-1.55-4.36,90.62,90.62,0,0,0,7.69-8.69c.47-.56.85-1,1.21-1.53l4.18-5.57,1.28-1.7a4.85,4.85,0,0,0,.92-3.26h.11a10.18,10.18,0,0,0,9.28-14.37c.1-.13.19-.26.28-.4a10.17,10.17,0,0,0,2.21.23,10.61,10.61,0,0,0,7.61-18l.09-.32a10.08,10.08,0,0,0,2.87-19.33,10.1,10.1,0,0,0-4.88-18.5A10,10,0,0,0,413,110a9.87,9.87,0,0,0,.08-1.22A9.57,9.57,0,0,0,395.86,103a9.52,9.52,0,0,0-17.52-1.68,8.42,8.42,0,0,0-15.16,4.22l-.33.08a8.46,8.46,0,0,0-3.5-.77,8.14,8.14,0,0,0-2.45.38,7.63,7.63,0,0,0-12.17-4.88,7.67,7.67,0,0,0-7.18-5,7.56,7.56,0,0,0-6.7,4,7.05,7.05,0,0,0-13,2.73c-1,.32-1.95.67-2.89,1.06a21.59,21.59,0,0,0-3.85-3,16.57,16.57,0,0,0,1.32-2.27h0a16.08,16.08,0,0,0,.67-1.61l0-.08c.18-.51.33-1,.46-1.55,0-.1,0-.16.05-.23.11-.47.19-.95.26-1.47v0a2.54,2.54,0,0,0,0-.29,16.88,16.88,0,0,0,.11-1.82,13.1,13.1,0,0,0-.07-1.34,16.14,16.14,0,0,0-1.59-5.81,16.31,16.31,0,0,0-2.68-3.94l-.15-.16q-.35-.37-.72-.72l-.19-.17a59.3,59.3,0,0,1-3.33-17.73h2.12c3.25.08,6.32.15,9.51,1.36A17.58,17.58,0,0,1,320.32,64a2.46,2.46,0,0,0,3.79-2.07V45.68a2.46,2.46,0,0,0-2.46-2.46,2.41,2.41,0,0,0-1.33.4A18.12,18.12,0,0,1,317,45.33c-3.19,1.21-6.26,1.28-9.51,1.36h-1.89a30,30,0,0,1,1.31-9.48,20.32,20.32,0,0,1,3.36-6,2.45,2.45,0,0,0-1.91-4Z" transform="translate(-108.38 -27.26)"/><path class="cls-3" d="M404.74,148c-.79-.17-1.58-.32-2.36-.45a58,58,0,0,0-13.33-.36c-4.15.31-4.47.74-11.33,1.46a94.5,94.5,0,0,1-12,.81,62.76,62.76,0,0,1-16-2.27c-6.53-1.82-6.46-3-14.4-6.14a96.49,96.49,0,0,0-22-5.67,92.48,92.48,0,0,0-15.68-.71,92.36,92.36,0,0,0-15.68.71A96.34,96.34,0,0,0,260,141c-7.95,3.09-7.87,4.32-14.4,6.14a62.82,62.82,0,0,1-16,2.27,94.39,94.39,0,0,1-12-.81c-6.87-.72-7.18-1.15-11.33-1.46a58,58,0,0,0-13.33.36q-1.17.19-2.37.45a37.16,37.16,0,0,0-11.16,4.6c3.22,9,6.93,18.26,11.24,27.77a362.34,362.34,0,0,0,18.21,34.87H386.46a360.11,360.11,0,0,0,18.2-34.87c4.32-9.51,8-18.78,11.24-27.77A37,37,0,0,0,404.74,148Z" transform="translate(-108.38 -27.26)"/><path class="cls-4" d="M404.74,148c-.79-.17-1.58-.32-2.36-.45a58,58,0,0,0-13.33-.36c-4.15.31-4.47.74-11.33,1.46a94.5,94.5,0,0,1-12,.81,62.76,62.76,0,0,1-16-2.27c-6.53-1.82-6.46-3-14.4-6.14a96.49,96.49,0,0,0-22-5.67,92.48,92.48,0,0,0-15.68-.71,92.36,92.36,0,0,0-15.68.71A96.34,96.34,0,0,0,260,141c-7.95,3.09-7.87,4.32-14.4,6.14a62.82,62.82,0,0,1-16,2.27,94.39,94.39,0,0,1-12-.81c-6.87-.72-7.18-1.15-11.33-1.46a58,58,0,0,0-13.33.36q-1.17.19-2.37.45a37.16,37.16,0,0,0-11.16,4.6c3.22,9,6.93,18.26,11.24,27.77a362.34,362.34,0,0,0,18.21,34.87H386.46a360.11,360.11,0,0,0,18.2-34.87c4.32-9.51,8-18.78,11.24-27.77A37,37,0,0,0,404.74,148Z" transform="translate(-108.38 -27.26)"/><path class="cls-5" d="M335.33,141c7.94,3.09,7.87,4.32,14.4,6.14.4.12.79.21,1.18.31,0-.16.08-.31.11-.47.79-3.39,2-9.1-.65-14.88a17.4,17.4,0,0,0-4.32-5.7c-.71-.66-1.47-1.33-2.31-2.07a49.78,49.78,0,0,0-15.86-9.06,69.73,69.73,0,0,0-10.48-3.16A18.67,18.67,0,0,0,313,114.4c.25-1.36.52-2.68.8-4a120.46,120.46,0,0,0-2.55,18.1c-.16,2.35-.28,4.52-.38,6.54.87.09,1.71.19,2.48.29A96.49,96.49,0,0,1,335.33,141Z" transform="translate(-108.38 -27.26)"/><path class="cls-5" d="M375.25,137.51a5.91,5.91,0,0,1-1.36,3.76c.33,2.39.57,4.95.68,7.69l3.15-.33c6.86-.72,7.18-1.15,11.33-1.46a58,58,0,0,1,13.33.36c.78.13,1.57.28,2.36.45s1.44.36,2.12.56a29.31,29.31,0,0,0-2.76-8.32,24.88,24.88,0,0,0-20.55-15.54,33.75,33.75,0,0,0-9.61-.18,6,6,0,0,1-2.61,4.44c.21.6.41,1.18.56,1.73s.31,1.09.5,1.76A6,6,0,0,1,375.25,137.51Z" transform="translate(-108.38 -27.26)"/><path class="cls-5" d="M221.33,124.5a33.68,33.68,0,0,0-9.6.18,24.85,24.85,0,0,0-20.55,15.54,29.31,29.31,0,0,0-2.76,8.32c.68-.2,1.38-.39,2.11-.56s1.59-.32,2.37-.45a58,58,0,0,1,13.33-.36c4.15.31,4.46.74,11.33,1.46l3.15.33a76.51,76.51,0,0,1,.67-7.69,5.91,5.91,0,0,1,1.51-8.84c.18-.67.35-1.28.49-1.76s.35-1.13.57-1.73A6,6,0,0,1,221.33,124.5Z" transform="translate(-108.38 -27.26)"/><path class="cls-5" d="M251.54,124.36c-.85.74-1.61,1.41-2.31,2.07a17.43,17.43,0,0,0-4.33,5.7c-2.67,5.78-1.43,11.49-.65,14.88l.12.47c.39-.1.78-.19,1.18-.31,6.53-1.82,6.45-3,14.4-6.14a96.34,96.34,0,0,1,22-5.67c.77-.1,1.6-.2,2.47-.29-.09-2-.22-4.19-.37-6.54a120.41,120.41,0,0,0-2.56-18.1c.29,1.29.56,2.61.81,4a18.87,18.87,0,0,0-4.43-2.26,69.91,69.91,0,0,0-10.49,3.16A49.86,49.86,0,0,0,251.54,124.36Z" transform="translate(-108.38 -27.26)"/><path class="cls-6" d="M212.33,215.16c-3.89-1.63-10.55-9.61-13.66-13.75l-3.88,2.86c5,6.58,9.07,10.72,12.14,13.14a12.62,12.62,0,0,0,4.27,2.43Z" transform="translate(-108.38 -27.26)"/><path class="cls-6" d="M382.06,215.16c3.88-1.63,10.55-9.61,13.66-13.75l3.88,2.86c-5,6.58-9.07,10.72-12.14,13.14a12.66,12.66,0,0,1-4.28,2.43Z" transform="translate(-108.38 -27.26)"/><path class="cls-7" d="M299.62,182.77v7.95c0,16,24.84,16.46,26.49-.1a2.43,2.43,0,0,1,4.81.57c-2,16.47,20.18,17.4,23.38,1.19l1.48-7.52a2.43,2.43,0,0,1,4.76.92l-1.48,7.54c-3.41,17.27,13.9,16.35,22,2.64a2.43,2.43,0,0,1,4.17,2.49c-9.38,16.32,2.77,13.25,10.3,3.19l5.44-7.27a2.54,2.54,0,0,1,3.4-.49,2.51,2.51,0,0,1,.5,3.39l-5.46,7.27c-9.45,12.58-21.71,13.25-22.34,2.81-8.22,5.91-19.34,5-22.51-4.77-8.05,9.13-22.76,7.88-27.18-2.47-8.44,10.88-24.17,9.19-30.19-.52-6,9.71-21.75,11.4-30.19.52-4.42,10.35-19.12,11.6-27.17,2.47-3.17,9.79-14.29,10.68-22.51,4.77-.63,10.44-12.9,9.77-22.34-2.81l-5.46-7.27a2.51,2.51,0,0,1,.49-3.39,2.56,2.56,0,0,1,3.41.49l5.44,7.27c7.53,10.06,19.68,13.13,10.3-3.19a2.43,2.43,0,0,1,4.17-2.49c8.1,13.71,25.4,14.63,22-2.64l-1.49-7.54a2.43,2.43,0,0,1,4.76-.92l1.49,7.52c3.2,16.21,25.39,15.28,23.38-1.19a2.43,2.43,0,0,1,4.81-.57c1.65,16.56,26.49,16.06,26.49.1v-7.95a2.43,2.43,0,1,1,4.85,0Z" transform="translate(-108.38 -27.26)"/><path class="cls-8" d="M269.56,189.58a3.84,3.84,0,1,1-3.83-3.77,3.81,3.81,0,0,1,3.83,3.77Z" transform="translate(-108.38 -27.26)"/><path class="cls-8" d="M214.59,195.85a3.84,3.84,0,1,1-3.84-3.77A3.81,3.81,0,0,1,214.59,195.85Z" transform="translate(-108.38 -27.26)"/><path class="cls-8" d="M324.83,189.58a3.83,3.83,0,1,0,3.83-3.77,3.8,3.8,0,0,0-3.83,3.77Z" transform="translate(-108.38 -27.26)"/><path class="cls-8" d="M379.8,195.85a3.84,3.84,0,1,0,3.83-3.77A3.81,3.81,0,0,0,379.8,195.85Z" transform="translate(-108.38 -27.26)"/><path class="cls-9" d="M297.19,230.72c-67.84,0-88.58-8.81-88.58-10.13s20.74-10.12,88.58-10.12,88.59,8.81,88.59,10.12S365,230.72,297.19,230.72Zm-66.9,1.75c-15.8-2.37-27.47-6.09-27.47-11.88,0-13.43,63.05-15.77,94.37-15.77s94.38,2.34,94.38,15.77c0,5.79-11.68,9.51-27.47,11.88Z" transform="translate(-108.38 -27.26)"/><path class="cls-10" d="M247,232.47l-33.51,8.1c-1.25-6.84-2.43-13-5.3-19.44-1.52-3.39,29-11.1,89-11.1s90.56,7.71,89,11.1c-2.87,6.39-4.05,12.6-5.31,19.44l-33.5-8.1Z" transform="translate(-108.38 -27.26)"/><path class="cls-11" d="M207.91,230.41l1.94-4.95,6.3,1.24-4.2,6.36Z" transform="translate(-108.38 -27.26)"/><path class="cls-12" d="M237.89,218.56l17.39-1.86a3.3,3.3,0,0,1,3.44,3.25,3.49,3.49,0,0,1-2.85,3.92l-17.39,1.87a3.31,3.31,0,0,1-3.44-3.25A3.51,3.51,0,0,1,237.89,218.56Z" transform="translate(-108.38 -27.26)"/><path class="cls-13" d="M228.71,224.23a3.87,3.87,0,1,1-3.84-4.38A4.14,4.14,0,0,1,228.71,224.23Z" transform="translate(-108.38 -27.26)"/><path class="cls-9" d="M379,242.24c0,1.23-19.15,9.44-81.76,9.44s-81.75-8.21-81.75-9.44,19.15-9.43,81.75-9.43S379,241,379,242.24Zm5.34,0c0,12.52-58.19,14.69-87.1,14.69s-87.09-2.17-87.09-14.69,58.19-14.69,87.09-14.69S384.29,229.73,384.29,242.24Z" transform="translate(-108.38 -27.26)"/><path class="cls-11" d="M386.48,230.41l-1.94-4.95-6.31,1.24,4.21,6.36Z" transform="translate(-108.38 -27.26)"/><path class="cls-12" d="M356.5,218.56l-17.39-1.86a3.3,3.3,0,0,0-3.44,3.25,3.49,3.49,0,0,0,2.85,3.92l17.39,1.87a3.3,3.3,0,0,0,3.43-3.25A3.49,3.49,0,0,0,356.5,218.56Z" transform="translate(-108.38 -27.26)"/><path class="cls-13" d="M365.68,224.23a3.87,3.87,0,1,0,3.84-4.38A4.14,4.14,0,0,0,365.68,224.23Z" transform="translate(-108.38 -27.26)"/><path class="cls-13" d="M319.77,219.51a3.86,3.86,0,1,0,3.83-4.38A4.13,4.13,0,0,0,319.77,219.51Z" transform="translate(-108.38 -27.26)"/><path class="cls-11" d="M287.78,215.22l-4.9,3.72,4.9,3.73h18.83l4.9-3.73-4.9-3.72Z" transform="translate(-108.38 -27.26)"/><path class="cls-13" d="M274.62,219.51a3.87,3.87,0,1,1-3.83-4.38A4.13,4.13,0,0,1,274.62,219.51Z" transform="translate(-108.38 -27.26)"/><path class="cls-14" d="M207.91,230.41l8.24-3.71" transform="translate(-108.38 -27.26)"/><path class="cls-14" d="M386.48,230.41l-8.25-3.71" transform="translate(-108.38 -27.26)"/><path class="cls-14" d="M287.78,215.22l4.52,3.33-4.52,4.12" transform="translate(-108.38 -27.26)"/><path class="cls-14" d="M282.88,218.94l9.42-.39h9.79l9.42.39" transform="translate(-108.38 -27.26)"/><path class="cls-14" d="M306.61,215.22l-4.52,3.33,4.52,4.12" transform="translate(-108.38 -27.26)"/><path class="cls-10" d="M422.14,134.23A44.36,44.36,0,0,0,410.49,117a43.5,43.5,0,0,0-18-9.47,50.65,50.65,0,0,0-20.15-1.21A60.59,60.59,0,0,0,357.22,110a33.64,33.64,0,0,1,12,12.85c4.22-1,15.87-2.54,26.32,2.41,1.55.73,8.11,6.23,10.74,10.13,1.78,2.64,5.58,10.21,4.93,18.56a37.38,37.38,0,0,1-6.7,17.92,38.21,38.21,0,0,1-10.83,10.16,41.26,41.26,0,0,1,2.45,5.45,40.52,40.52,0,0,1,2.38,12,134.38,134.38,0,0,0,15.08-17.68c7.22-10.13,11.36-16.1,12.38-25.24C427.15,146.41,423.77,138.2,422.14,134.23Z" transform="translate(-108.38 -27.26)"/><path class="cls-7" d="M406.33,135.42c-2.63-3.9-9.19-9.4-10.74-10.13-10.45-5-22.1-3.42-26.32-2.41.4.76.76,1.51,1.08,2.24a34.32,34.32,0,0,1,13.2-.44,24.88,24.88,0,0,1,20.55,15.54,27.48,27.48,0,0,1,3.07,11.32,28,28,0,0,1-3.07,13.27,35.92,35.92,0,0,1-11.33,13.92l-.72.5a35.85,35.85,0,0,1-3.33,2.05c.58.85,1.15,1.73,1.72,2.65s1,1.68,1.52,2.56a72.25,72.25,0,0,1,5.91,13.67l.69-.68a40.52,40.52,0,0,0-2.38-12,41.26,41.26,0,0,0-2.45-5.45,38.21,38.21,0,0,0,10.83-10.16,37.38,37.38,0,0,0,6.7-17.92C411.91,145.63,408.11,138.06,406.33,135.42Z" transform="translate(-108.38 -27.26)"/><circle class="cls-15" cx="263.21" cy="79.07" r="5.99"/><circle class="cls-15" cx="278.37" cy="78.5" r="7.06"/><circle class="cls-15" cx="295.13" cy="81.5" r="7.12"/><circle class="cls-15" cx="308.6" cy="91.93" r="7.59"/><circle class="cls-15" cx="317.91" cy="125.31" r="7.63"/><circle class="cls-15" cx="311.25" cy="143.06" r="8.17"/><circle class="cls-15" cx="299.48" cy="158.04" r="7.73"/><circle class="cls-15" cx="316.24" cy="107.59" r="7.65"/><polygon class="cls-16" points="247.24 103.94 247.24 103.94 247.24 103.94 247.24 103.94"/><path class="cls-10" d="M336.14,112.47c4.93,2,8.56,4,12.13,7.6,4.7,4.68,6.07,7.47,7.35,11.13h0c.08.25.17.51.26.76a31.81,31.81,0,0,1,0,17.48c-2.74,9.22-9.77,18.37-14.29,24.84-.52.75-1,1.44-1.47,2.1l13.53,12.07L365,181.3c2.18-6.06,4.54-11.34,5.42-15.52A129.86,129.86,0,0,0,373.11,149c.31-3.63.55-6.41.64-8.79.1-2.71-1.23-7.39-1.86-9.58-1.65-5.81-6.68-15.25-13.8-20.08a47.35,47.35,0,0,0-19.69-7.18c-6.64-.75-14.59-1.55-23.06,2.18l-.48.23c-.7,2.7-1.34,5.57-1.89,8.58a18.67,18.67,0,0,1,4.43-2.26,25.34,25.34,0,0,1,5.47-1.29A24.9,24.9,0,0,1,336.14,112.47Z" transform="translate(-108.38 -27.26)"/><path class="cls-7" d="M373.75,140.25c-.09,2.38-.33,5.16-.64,8.79a129.86,129.86,0,0,1-2.67,16.74c-.88,4.18-3.24,9.46-5.42,15.52l-11.37,7.15-13.53-12.07c.47-.66.95-1.35,1.47-2.1,4.52-6.47,11.55-15.62,14.29-24.84a31.81,31.81,0,0,0,0-17.48c-.09-.25-.18-.51-.26-.76h0c-1.28-3.66-2.65-6.45-7.35-11.13-3.57-3.56-7.2-5.6-12.13-7.6a24.9,24.9,0,0,0-13.27-1.62,25.34,25.34,0,0,0-5.47,1.29,69.73,69.73,0,0,1,10.48,3.16,49.78,49.78,0,0,1,15.86,9.06c.84.74,1.6,1.41,2.31,2.07a17.4,17.4,0,0,1,4.32,5.7c2.67,5.78,1.44,11.49.65,14.88-1.14,4.93-2.69,9.15-7.77,17-2.29,3.55-4.52,6.55-6.59,9.29-.94,1.23-1.83,2.4-2.68,3.54l3.44,3.2,11.94,11.11,1.42,1.32,13-7.52,4.63-2.68c.55-1.28,1.09-2.64,1.63-4.11a77,77,0,0,0,3.72-37.91Z" transform="translate(-108.38 -27.26)"/><circle class="cls-15" cx="247.24" cy="150.55" r="7.49"/><circle class="cls-15" cx="259.63" cy="96.69" r="5.99"/><circle class="cls-15" cx="216.45" cy="75.72" r="4.61"/><circle class="cls-15" cx="250.98" cy="86.04" r="5.99"/><circle class="cls-15" cx="240.97" cy="79.16" r="5.19"/><circle class="cls-15" cx="229.17" cy="75.72" r="5.19"/><circle class="cls-15" cx="260.89" cy="110.25" r="5.99"/><circle class="cls-15" cx="259.63" cy="124.27" r="5.99"/><circle class="cls-15" cx="254.9" cy="136.75" r="5.99"/><path class="cls-10" d="M173.14,134.23A44.36,44.36,0,0,1,184.79,117a43.44,43.44,0,0,1,18-9.47,50.65,50.65,0,0,1,20.15-1.21A60.61,60.61,0,0,1,238.05,110a34,34,0,0,0-7.23,6,33.52,33.52,0,0,0-4.81,6.85c-4.22-1-15.87-2.54-26.32,2.41-1.55.73-8.11,6.23-10.74,10.13-1.79,2.64-5.59,10.21-4.93,18.56a37.38,37.38,0,0,0,6.7,17.92,38.21,38.21,0,0,0,10.83,10.16,40.45,40.45,0,0,0-4.84,17.42,136,136,0,0,1-15.08-17.68c-7.22-10.13-11.36-16.1-12.37-25.24C168.13,146.41,171.51,138.2,173.14,134.23Z" transform="translate(-108.38 -27.26)"/><path class="cls-7" d="M189,135.42c2.63-3.9,9.19-9.4,10.74-10.13,10.45-5,22.1-3.42,26.32-2.41-.4.76-.76,1.51-1.08,2.24a34.33,34.33,0,0,0-13.2-.44,24.85,24.85,0,0,0-20.55,15.54,27.33,27.33,0,0,0-3.07,11.32,28,28,0,0,0,3.07,13.27,35.92,35.92,0,0,0,11.33,13.92l.71.5a34.68,34.68,0,0,0,3.34,2.05c-.58.85-1.16,1.73-1.73,2.65s-1,1.68-1.51,2.56a72.25,72.25,0,0,0-5.91,13.67l-.7-.68a40.45,40.45,0,0,1,4.84-17.42,38.21,38.21,0,0,1-10.83-10.16A37.38,37.38,0,0,1,184,154C183.36,145.63,187.16,138.06,189,135.42Z" transform="translate(-108.38 -27.26)"/><circle class="cls-15" cx="115.31" cy="79.07" r="5.99"/><circle class="cls-15" cx="100.15" cy="78.5" r="7.06"/><circle class="cls-15" cx="83.4" cy="81.5" r="7.12"/><circle class="cls-15" cx="69.93" cy="91.93" r="7.59"/><circle class="cls-15" cx="60.61" cy="125.31" r="7.63"/><circle class="cls-15" cx="67.27" cy="143.06" r="8.17"/><circle class="cls-15" cx="79.04" cy="158.04" r="7.73"/><circle class="cls-15" cx="62.28" cy="107.59" r="7.65"/><polygon class="cls-16" points="131.28 103.94 131.28 103.94 131.28 103.94 131.28 103.94"/><path class="cls-10" d="M259.14,112.47c-4.93,2-8.56,4-12.13,7.6-4.7,4.68-6.07,7.47-7.35,11.13h0c-.09.25-.17.51-.26.76a31.81,31.81,0,0,0,0,17.48c2.73,9.22,9.77,18.37,14.28,24.84.52.75,1,1.44,1.48,2.1l-13.54,12.07-11.36-7.15c-2.19-6.06-4.54-11.34-5.42-15.52A129.86,129.86,0,0,1,222.17,149c-.32-3.63-.56-6.41-.65-8.79-.1-2.71,1.24-7.39,1.86-9.58,1.66-5.81,6.68-15.25,13.8-20.08a47.39,47.39,0,0,1,19.7-7.18c6.64-.75,14.59-1.55,23.05,2.18l.49.23c.7,2.7,1.33,5.57,1.89,8.58a18.87,18.87,0,0,0-4.43-2.26,25.48,25.48,0,0,0-5.47-1.29A24.89,24.89,0,0,0,259.14,112.47Z" transform="translate(-108.38 -27.26)"/><path class="cls-7" d="M221.52,140.25c.09,2.38.33,5.16.65,8.79a129.86,129.86,0,0,0,2.67,16.74c.88,4.18,3.23,9.46,5.42,15.52l11.36,7.15,13.54-12.07c-.47-.66-1-1.35-1.48-2.1-4.51-6.47-11.55-15.62-14.28-24.84a31.81,31.81,0,0,1,0-17.48c.09-.25.17-.51.26-.76h0c1.28-3.66,2.65-6.45,7.35-11.13,3.57-3.56,7.2-5.6,12.13-7.6a24.89,24.89,0,0,1,13.27-1.62,25.48,25.48,0,0,1,5.47,1.29,69.91,69.91,0,0,0-10.49,3.16,49.86,49.86,0,0,0-15.85,9.06c-.85.74-1.61,1.41-2.31,2.07a17.43,17.43,0,0,0-4.33,5.7c-2.67,5.78-1.43,11.49-.65,14.88,1.14,4.93,2.69,9.15,7.77,17,2.29,3.55,4.53,6.55,6.6,9.29.93,1.23,1.83,2.4,2.68,3.54l-3.44,3.2-12,11.11-1.42,1.32-13-7.52-4.64-2.68c-.54-1.28-1.09-2.64-1.62-4.11a76.7,76.7,0,0,1-4.05-17A77.54,77.54,0,0,1,221.52,140.25Z" transform="translate(-108.38 -27.26)"/><circle class="cls-15" cx="131.28" cy="150.55" r="7.49"/><circle class="cls-15" cx="118.89" cy="96.69" r="5.99"/><circle class="cls-15" cx="162.07" cy="75.72" r="4.61"/><circle class="cls-15" cx="127.54" cy="86.04" r="5.99"/><circle class="cls-15" cx="137.55" cy="79.16" r="5.19"/><circle class="cls-15" cx="149.35" cy="75.72" r="5.19"/><circle class="cls-15" cx="117.63" cy="110.25" r="5.99"/><circle class="cls-15" cx="118.89" cy="124.27" r="5.99"/><circle class="cls-15" cx="123.62" cy="136.75" r="5.99"/><path class="cls-17" d="M317.82,47.63c-3.58,1.35-7,1.43-10.32,1.52-1.48,0-3.22,0-4.42-.08v0c0-.59,0-1.21,0-1.87a33.21,33.21,0,0,1,1.45-10.75,22.46,22.46,0,0,1,3.77-6.71H287a22.61,22.61,0,0,1,3.76,6.71,33.5,33.5,0,0,1,1.46,10.75c0,.66,0,1.28,0,1.87v0c-1.2.07-2.94.11-4.42.08-3.36-.09-6.74-.17-10.32-1.52a20.65,20.65,0,0,1-3.84-2V61.9A20.65,20.65,0,0,1,277.46,60c3.58-1.35,7-1.43,10.32-1.51,1.59,0,3.42,0,4.66.07v.05a61.54,61.54,0,0,1-6.82,28.57h24a61.88,61.88,0,0,1-6.82-28.57v-.05c1.23-.07,3.07-.11,4.66-.07,3.36.08,6.74.16,10.32,1.51a20.62,20.62,0,0,1,3.83,1.95V45.68A20.62,20.62,0,0,1,317.82,47.63Z" transform="translate(-108.38 -27.26)"/><path class="cls-18" d="M294.66,77.12a14,14,0,0,0-10.81,11.6A19.8,19.8,0,0,1,294.66,84Z" transform="translate(-108.38 -27.26)"/><path class="cls-18" d="M300.62,77.12V84a19.83,19.83,0,0,1,10.81,4.68A14,14,0,0,0,300.62,77.12Z" transform="translate(-108.38 -27.26)"/><path class="cls-18" d="M297.64,89.78c-6.7,0-12.17,3.1-12.57,7a13.94,13.94,0,0,0,25.14,0C309.81,92.88,304.34,89.78,297.64,89.78Z" transform="translate(-108.38 -27.26)"/><path class="cls-19" d="M311.43,88.72A19.83,19.83,0,0,0,300.62,84V77.12a13.62,13.62,0,0,0-6,0V84a19.8,19.8,0,0,0-10.81,4.68,13.67,13.67,0,0,0-.17,2,13.88,13.88,0,0,0,1.39,6c.4-3.91,5.87-7,12.57-7s12.17,3.1,12.57,7a13.88,13.88,0,0,0,1.38-6A13.67,13.67,0,0,0,311.43,88.72Z" transform="translate(-108.38 -27.26)"/><circle class="cls-20" cx="189.26" cy="63.49" r="13.96"/><path class="cls-7" d="M311.84,157.66c-.15-.71-.28-1.4-.41-2.06-1.1-5.81-1.09-13.48-.21-27.07a121.57,121.57,0,0,1,3.46-22,18.39,18.39,0,0,0-1.36-1.58,19.14,19.14,0,0,0-5.46-3.75,172.77,172.77,0,0,0-3.6,34.66,195.2,195.2,0,0,0,2.09,28.59,39,39,0,0,1-4.36,3.77c-1,.73-1.95,1.37-2.91,1.95q2.25,2.76,4.92,5.54l.34.36a88.49,88.49,0,0,0,6.5,6,40.17,40.17,0,0,1,4.33-6.74v-4C313.9,166.72,312.7,161.83,311.84,157.66Z" transform="translate(-108.38 -27.26)"/><path class="cls-7" d="M283.44,157.66l.41-2.06c1.09-5.81,1.09-13.48.21-27.07a121.52,121.52,0,0,0-3.47-22,18.36,18.36,0,0,1,1.37-1.58,19.14,19.14,0,0,1,5.46-3.75,174.25,174.25,0,0,1,3.6,34.66,195.12,195.12,0,0,1-2.1,28.59,40,40,0,0,0,4.36,3.77c1,.73,2,1.37,2.92,1.95q-2.25,2.76-4.92,5.54l-.34.36a88.49,88.49,0,0,1-6.5,6,39.57,39.57,0,0,0-4.34-6.74v-4C281.37,166.72,282.57,161.83,283.44,157.66Z" transform="translate(-108.38 -27.26)"/><path class="cls-7" d="M310.84,182.08a88.49,88.49,0,0,1-6.5-6l-.34-.36a44.82,44.82,0,0,1-3.46,4.32c-1,1.06-1.94,2-2.9,2.9v4.69a7.86,7.86,0,0,0,4.68,2.36c.25,0,.51.05.76.06a6.55,6.55,0,0,0,6.1-4.23,36,36,0,0,1,1.63-3.67Z" transform="translate(-108.38 -27.26)"/><path class="cls-7" d="M284.44,182.08a88.49,88.49,0,0,0,6.5-6l.34-.36a44.82,44.82,0,0,0,3.46,4.32c1,1.06,1.93,2,2.9,2.9v4.69A7.86,7.86,0,0,1,293,190l-.76.06a6.54,6.54,0,0,1-6.1-4.23,38.52,38.52,0,0,0-1.64-3.67S284.45,182.1,284.44,182.08Z" transform="translate(-108.38 -27.26)"/><path class="cls-10" d="M306.35,164.44h0a195.2,195.2,0,0,1-2.09-28.59,172.77,172.77,0,0,1,3.6-34.66,23.13,23.13,0,0,0-20.44,0,174.25,174.25,0,0,1,3.6,34.66,195.12,195.12,0,0,1-2.1,28.59,40,40,0,0,0,4.36,3.77c1,.73,2,1.37,2.92,1.95.48.3,1,.59,1.44.85.47-.26.95-.55,1.44-.85,1-.58,1.93-1.22,2.91-1.95a40.92,40.92,0,0,0,4.36-3.77" transform="translate(-108.38 -27.26)"/><path class="cls-10" d="M308.73,170.32" transform="translate(-108.38 -27.26)"/><path class="cls-10" d="M306.35,164.44a40.92,40.92,0,0,1-4.36,3.77c-1,.73-1.95,1.37-2.91,1.95-.49.3-1,.59-1.44.85-.48-.26-1-.55-1.44-.85-1-.58-1.93-1.22-2.92-1.95a43,43,0,0,1-4.36-3.77c-.84,1.92-1.54,4-2.38,5.88a14.65,14.65,0,0,1,2.37,2.1,18.71,18.71,0,0,1,2.37,3.28,44.82,44.82,0,0,0,3.46,4.32c1,1.06,1.93,2,2.9,2.9,1-.88,1.93-1.84,2.9-2.9A44.82,44.82,0,0,0,304,175.7a19.13,19.13,0,0,1,2.36-3.28,14.65,14.65,0,0,1,2.37-2.1C307.89,168.4,307.19,166.36,306.35,164.44Z" transform="translate(-108.38 -27.26)"/><circle class="cls-21" cx="189.26" cy="78.03" r="6.38"/><circle class="cls-21" cx="189.26" cy="92.26" r="6.38"/><circle class="cls-21" cx="189.26" cy="106.48" r="6.38"/><circle class="cls-21" cx="189.26" cy="120.7" r="6.38"/><circle class="cls-21" cx="189.26" cy="134.93" r="6.38"/><ellipse class="cls-3" cx="188.82" cy="214.98" rx="81.75" ry="9.43"/><path class="cls-22" d="M431.6,462.15c-7-9.32-12.75-17.11-17-29.13-2.72-7.72-6.84-19.12-4.85-33.49a58.47,58.47,0,0,1,7.88-22,28.35,28.35,0,0,1,4.27-6.27,28.75,28.75,0,0,1,10.8-7.55l-13.65-.47c-6.25-2-12.75-6.94-14.28-9.42s-4.5-7.31-3.64-13.23c.21-1.46.83-5.68,4.37-8.49a12,12,0,0,1,6.31-2.43,12.36,12.36,0,0,1,7.49,1.29c.51.28,5.74,3,5.66,7.28-.08,4.45-1.48.71-2.51,6.07-.56,2.93.61,4,1.05,4.45,1,.91,3.79-.19,5.67-1.78,4-3.41,2.36-10.12,2.1-11.16-.8-3.21-2.68-6.14-7.28-10a58,58,0,0,0-16.51-9.7c-2.95-1.18-1.77-.86-45-28.81a36.87,36.87,0,0,1-9.06-7.92,32.08,32.08,0,0,1-7.66-20.45,48.19,48.19,0,0,1-96.3,0,32.08,32.08,0,0,1-7.66,20.45,37.24,37.24,0,0,1-9.06,7.92c-43.21,27.95-42,27.63-45,28.81a58,58,0,0,0-16.5,9.7c-4.61,3.9-6.49,6.83-7.28,10-.26,1-1.93,7.75,2.1,11.16,1.88,1.59,4.69,2.69,5.66,1.78.44-.41,1.62-1.52,1.06-4.45-1-5.36-2.43-1.62-2.51-6.07-.08-4.25,5.15-7,5.66-7.28a12.34,12.34,0,0,1,7.48-1.29,12,12,0,0,1,6.32,2.43c3.54,2.81,4.15,7,4.36,8.49.86,5.92-2,10.6-3.64,13.23s-8,7.39-14.28,9.42l-13.64.47a28.81,28.81,0,0,1,15.07,13.82,58.47,58.47,0,0,1,7.88,22c2,14.37-2.14,25.77-4.86,33.49-4.23,12-10,19.81-17,29.13a211.54,211.54,0,0,1-30.8,32.9c7.81,43.68,20.85,95.56,42.94,138.94,38.52,75.65,89.46,123.87,121.83,150.66C330,757.86,381,709.64,419.47,634c22.09-43.38,35.13-95.26,42.94-138.94A211.19,211.19,0,0,1,431.6,462.15Z" transform="translate(-108.38 -27.26)"/><path class="cls-2" d="M330.4,707.07c2.82,2,5.42,1.54,8-.88s2.6-4.55.92-6.34c-1.87-2-3.75-1.83-8.46.77-7.49,4.13-11.26,3.12-14.36-.17-4-4.25-3.84-9.86,1.4-14.8,5.89-5.55,11.51-4.28,15.19-1l-4.83,4.56c-1.64-1.29-3.93-2.2-6.79.49-1.94,1.83-2.28,3.82-.65,5.55s3.19,1.5,7.63-1c8-4.41,11.92-3.1,15.16.33,4.19,4.45,4,10.39-1.84,15.92-5.63,5.3-11.46,5.05-16.18,1.1Z" transform="translate(-108.38 -27.26)"/><path class="cls-2" d="M355.42,684.23,360,690.9,356,696l-19.82-28.92,5.13-6.48,33,12.37L370,678.36l-7.61-2.85Zm1.38-11.3c-6.88-2.7-11.27-4.42-14.09-5.72l0,0c2.12,2.64,5.3,7.09,8.95,12.21Z" transform="translate(-108.38 -27.26)"/><path class="cls-2" d="M378.57,666.18l-28.32-17.9,4.36-6.9c8.39.8,23.61,2.1,27.44,2.87l.05-.07c-3.14-1.58-8.06-4.69-12.7-7.63l-8.4-5.3,3.19-5,28.32,17.9-4.13,6.54c-7.28-.73-24.62-2.46-28.7-3.25l0,.07c2.6,1.37,8.45,5,13.52,8.19l8.62,5.45Z" transform="translate(-108.38 -27.26)"/><path class="cls-2" d="M398.44,611.29c6.85,3.53,8.94,7.15,5.88,13.09a17.61,17.61,0,0,1-2.26,3.48l-5.12-2.64a23.12,23.12,0,0,0,1.56-2.58c1.38-2.69-.39-4.11-2.66-5.28l-20.66-10.62,3-5.86Z" transform="translate(-108.38 -27.26)"/><path class="cls-2" d="M407.11,573.77c8.72,3.29,14.44,10.88,10.94,20.14-3.37,8.94-12.29,10.93-21.26,7.54C387.66,598,382.61,590.2,386,581.34,389.09,573,397.51,570.15,407.11,573.77ZM399.05,595c6.12,2.3,11.67,1.61,13.58-3.44,2.06-5.48-2.25-9.33-7.84-11.44-5.93-2.23-11.42-1.78-13.43,3.53C389.42,588.84,393,592.73,399.05,595Z" transform="translate(-108.38 -27.26)"/><path class="cls-2" d="M417.17,563.11c3.43.13,5.39-1.65,6.23-5.07s-.28-5.24-2.66-5.83c-2.65-.65-4.15.49-6.69,5.23-4.06,7.53-7.77,8.73-12.16,7.65-5.67-1.4-8.57-6.2-6.85-13.2,1.94-7.85,7.35-9.84,12.22-9.09l-1.59,6.44c-2.08-.18-4.5.29-5.44,4.1-.64,2.6.15,4.45,2.46,5s3.49-.47,5.89-5c4.35-8,8.33-9.07,12.92-7.94,5.94,1.47,9,6.56,7.08,14.37-1.85,7.51-6.89,10.46-13,9.71Z" transform="translate(-108.38 -27.26)"/><path class="cls-2" d="M421.6,517l-2.34,14.37,8.4,1.37,2.58-15.86,5.74,1.73L432.5,540l-33.07-5.38,3.47-21.31,5.86.95-2.44,15,7.08,1.15,2.34-14.37Z" transform="translate(-108.38 -27.26)"/><path class="cls-2" d="M169.58,520.46c-3.21,1.21-4.33,3.61-3.78,7.09s2.29,4.72,4.71,4.34c2.7-.42,3.64-2.06,4.15-7.41.82-8.52,3.78-11.06,8.25-11.76,5.77-.91,10.3,2.4,11.42,9.52,1.26,8-3,11.91-7.74,13.1l-1-6.55c2-.63,4-2,3.43-5.88-.42-2.65-1.87-4-4.22-3.68s-3,1.79-3.51,6.84c-.89,9.11-4.17,11.59-8.83,12.33-6.05,1-10.85-2.56-12.1-10.51-1.2-7.64,2.3-12.31,8.22-14Z" transform="translate(-108.38 -27.26)"/><path class="cls-2" d="M196.81,539.86l3,12.24c1.52,6.29-1.34,11.5-7.53,13-7.07,1.71-11.49-2.38-12.91-8.22L178,551.19l-12.16,2.94-1.55-6.4Zm-13.25,10,1.18,4.88c.72,3,2.48,4.76,5.8,3.95s4.08-3.32,3.43-6l-1.21-5Z" transform="translate(-108.38 -27.26)"/><path class="cls-2" d="M198.19,600.49c-8.74,3.26-18,1.29-21.49-8-3.34-9,2.07-16.31,11.06-19.66,9.14-3.41,18.08-.84,21.39,8C212.26,589.22,207.79,596.91,198.19,600.49Zm-7.92-21.32c-6.12,2.28-9.85,6.46-8,11.52,2,5.49,7.82,5.55,13.42,3.46,5.93-2.21,9.78-6.16,7.79-11.48C201.6,577.51,196.39,576.89,190.27,579.17Z" transform="translate(-108.38 -27.26)"/><path class="cls-2" d="M202.05,615.67l-11.79,6.39-3.06-5.66,29.44-16L223,612.2c3.17,5.84,1.33,10.9-3.21,13.36-4,2.15-7.16,1.35-9.08-.11.18,1.62-.25,4.44-5.52,7.3l-1.46.79a28.55,28.55,0,0,0-5.4,3.43l-3-5.49c1-1.17,3.18-2.45,6.31-4.15l.43-.23c3.22-1.74,4.34-3.31,2-7.62Zm5.07-2.75,2.63,4.85c1.72,3.17,3.71,3.68,6.17,2.34s3-3.45,1.43-6.28l-2.71-5Z" transform="translate(-108.38 -27.26)"/><path class="cls-2" d="M229.52,634.76l-4.89-7.85,5-3.14,13.24,21.28-5,3.14L233,640.36l-23.41,14.56-3.48-5.6Z" transform="translate(-108.38 -27.26)"/><path class="cls-2" d="M249.16,654l-27.48,19.16-3.77-5.4,27.48-19.16Z" transform="translate(-108.38 -27.26)"/><path class="cls-2" d="M228.11,682.44l25.33-21.93,5.34,6.17c-3.2,7.8-8.85,22-10.69,25.45l0,.06c2.42-2.55,6.82-6.35,11-10l7.51-6.5,3.91,4.51L245.2,702.19l-5.06-5.86c2.8-6.76,9.48-22.85,11.42-26.53l-.05-.06c-2.07,2.09-7.23,6.65-11.76,10.58l-7.7,6.67Z" transform="translate(-108.38 -27.26)"/><path class="cls-2" d="M274.54,728.38l-3.66-3.15a20.4,20.4,0,0,1,1.77-2.83c-2.91.8-6-.11-9.26-2.88-6.7-5.77-5.65-14.56.58-21.79,6.57-7.63,15.56-9.9,22.83-3.64,5.94,5.12,6.26,11.81,3.09,16.62l-5-4.29c1-2.11,1.51-5.17-1.87-8.08-4.74-4.08-9.85-.88-13.7,3.59s-5.92,10-1.34,13.94c4.26,3.68,7.85,1.09,9.81-1.18l.2-.23-5.06-4.35,3.87-4.5,10,8.57Z" transform="translate(-108.38 -27.26)"/><path class="cls-2" d="M261.09,417.42v12.19h-5.26V399.16h10.93c5.43,0,8.35,3.65,8.35,8.36,0,4.09-1.82,6.3-3.62,7.2,1.23.56,3.09,2.13,3.09,7.58v1.51a29.69,29.69,0,0,0,.36,5.8h-5.1a26.27,26.27,0,0,1-.52-6.84v-.44c0-3.33-.68-4.91-4.69-4.91Zm0-5.24h4.51c2.94,0,4.08-1.37,4.08-3.92s-1.32-3.86-3.95-3.86h-4.64Z" transform="translate(-108.38 -27.26)"/><path class="cls-2" d="M297,416.48h-11.9v7.73h13.13l-.64,5.4H279.89V399.16h17.64v5.39H285.11v6.53H297Z" transform="translate(-108.38 -27.26)"/><path class="cls-2" d="M307.66,422.58l-1.94,7h-5.29l8.45-30.45h6.75l8.82,30.45h-5.66l-2-7Zm7.93-5.4c-1.77-6.43-2.89-10.53-3.49-13.27h0c-.61,3-1.85,7.78-3.27,13.27Z" transform="translate(-108.38 -27.26)"/><path class="cls-2" d="M327.63,399.16H333v25h12.4l-.62,5.4H327.63Z" transform="translate(-108.38 -27.26)"/><path class="cls-23" d="M312.67,328.66a68.16,68.16,0,0,1-15-13.69,67.33,67.33,0,0,1-36.84,23.15,88.76,88.76,0,0,0,36.84,53.38,88.87,88.87,0,0,0,36.84-53.38A67.57,67.57,0,0,1,312.67,328.66Z" transform="translate(-108.38 -27.26)"/><rect class="cls-24" x="186.6" y="325.9" width="4.42" height="17.91"/><path class="cls-25" d="M315.34,342c0-1.46-1.58-2.69-3.69-3a2.35,2.35,0,0,0,.74-1.64c0-1.67-2.07-3-4.63-3,0-1.68-2.07-3-4.63-3a6.75,6.75,0,0,0-1.95.29,6,6,0,0,0-8,0,6.75,6.75,0,0,0-1.95-.29c-2.56,0-4.63,1.36-4.63,3-2.56,0-4.63,1.36-4.63,3a2.35,2.35,0,0,0,.74,1.64c-2.11.28-3.7,1.51-3.7,3s1.59,2.69,3.7,3a2.35,2.35,0,0,0-.74,1.64c0,1.67,2.07,3,4.63,3,0,1.67,2.07,3,4.63,3a6.75,6.75,0,0,0,1.95-.29,6,6,0,0,0,8,0,6.75,6.75,0,0,0,1.95.29c2.56,0,4.63-1.36,4.63-3,2.56,0,4.63-1.36,4.63-3a2.35,2.35,0,0,0-.74-1.64C313.76,344.72,315.34,343.5,315.34,342Z" transform="translate(-108.38 -27.26)"/><path class="cls-26" d="M306.52,377a2.65,2.65,0,0,1,.13,1.37c0,.2-.21.3-.41.3s-.36.11-.35.32.19.31.41.3.69,0,1-.07.53-.27.49-.66a22.45,22.45,0,0,1-.3-2.83,1.34,1.34,0,0,0-.42-.94,3.32,3.32,0,0,1-.85-3.42,7.66,7.66,0,0,0,.15-3.3,1.31,1.31,0,0,0-.51-.82,6.12,6.12,0,0,0-2.72-1.26A9.09,9.09,0,0,0,299,366c-.77.15-1.52.37-2.28.54a2.09,2.09,0,0,1-1-.06,5,5,0,0,0-1.15-.26c-.27,0-.48-.19-.72-.27a11.46,11.46,0,0,1-1.33-.73.29.29,0,0,1-.09-.1,7.38,7.38,0,0,0-1.57-1.73l-.53-.53a1.6,1.6,0,0,1-.41-1.34c0-.19-.1-.37,0-.57s-.07-.11-.14-.07a3.21,3.21,0,0,0-.3.21c-.11.08-.18.28-.37.08s-.18.05-.25.12a1.06,1.06,0,0,1-1,.27,1.67,1.67,0,0,0-1.4.23.63.63,0,0,1-.36.1.36.36,0,0,0-.34.25c-.07.27-.26.27-.47.26l-1.09,0c-.29,0-.42.15-.47.43a1.66,1.66,0,0,0,1,2.06,1,1,0,0,0-.29.52c-.08.85.62,1.07,1.35.84l.37-.17a.45.45,0,0,1,.6.14.58.58,0,0,0,.7.2.29.29,0,0,1,.36.09,1.81,1.81,0,0,1,.53,1,1.21,1.21,0,0,0,.3.67,1.2,1.2,0,0,1,.23.84,3.71,3.71,0,0,0,.57,2.13,2.55,2.55,0,0,0,.28.39.86.86,0,0,1,.23.64,9.69,9.69,0,0,0,.24,1.51,22.35,22.35,0,0,1,.13,2.59,2,2,0,0,1-.17.72.83.83,0,0,1-.61.54,1,1,0,0,0-.61.29c-.17.21,0,.49-.13.74s.12.26.31.26h1.57a.27.27,0,0,0,.32-.26,1.87,1.87,0,0,1,.33-.75c.13-.18.25-.34.52-.27s.19-.06.17-.2a11.11,11.11,0,0,1,.3-3.2s0-.07,0-.1c.05-.26-.08-.62.12-.74s.49.05.75.1a5.31,5.31,0,0,0,1.32-.05,5.66,5.66,0,0,1,.82-.06,6.41,6.41,0,0,0,3.23-.79c.53-.25,1-.57,1.54-.87a1.66,1.66,0,0,1,1.66-.26,1,1,0,0,1,.45.4c.23.4.48.8.73,1.19a8.29,8.29,0,0,0,1.8,2,2.67,2.67,0,0,1,.9,2.32c0,.21-.16.28-.34.31a.75.75,0,0,0-.56.4c-.11.21-.1.36.18.42a4.24,4.24,0,0,0,1.18,0c.28,0,.36-.29.36-.55A4.47,4.47,0,0,1,306.52,377Z" transform="translate(-108.38 -27.26)"/><path class="cls-27" d="M466.46,470.18c-11.25-7.53-21.59-18-27.09-32.3-1.23-3.21-2.67-10.32-3.65-16.73a31.19,31.19,0,0,0,13.2-.91A32.3,32.3,0,0,0,465.2,408.7a43.66,43.66,0,0,0,3.49-5.24,28.64,28.64,0,1,0-51.05-26,58.47,58.47,0,0,0-7.88,22c-2,14.37,2.13,25.77,4.85,33.49,4.24,12,10,19.81,17,29.13a211.19,211.19,0,0,0,30.81,32.9c-7.81,43.68-20.85,95.56-42.94,138.94C381,709.64,330,757.86,297.64,784.65c-32.37-26.79-83.31-75-121.83-150.66-22.09-43.38-35.13-95.26-42.94-138.94a211.54,211.54,0,0,0,30.8-32.9c7-9.32,12.76-17.11,17-29.13,2.72-7.72,6.85-19.12,4.86-33.49a58.47,58.47,0,0,0-7.88-22,28.64,28.64,0,1,0-51.06,26,45,45,0,0,0,3.5,5.24,32.22,32.22,0,0,0,16.28,11.54,31.18,31.18,0,0,0,13.2.91c-1,6.41-2.42,13.52-3.65,16.73-5.5,14.34-15.85,24.77-27.09,32.3a109.93,109.93,0,0,1-18,9.66c7.8,47.79,25.32,121.67,57.86,181.17a487.81,487.81,0,0,0,129,151.17A487.81,487.81,0,0,0,426.59,661c32.54-59.5,50.06-133.38,57.85-181.17A109.85,109.85,0,0,1,466.46,470.18Z" transform="translate(-108.38 -27.26)"/><path class="cls-27" d="M446.17,335.57a29.81,29.81,0,0,0-3-12.13c-1.47-2.84-3.77-6-12.74-12.62a160.86,160.86,0,0,0-14.2-9.47c-22.92-13.34-26.6-14.77-35.31-21a94.26,94.26,0,0,1-13.3-11.24,16.35,16.35,0,0,0,23.06-8.32,16.77,16.77,0,0,0,1.16-4.23,16.57,16.57,0,0,0-2-10.27,22.34,22.34,0,0,0-7.68-8.42c-2.41-1.71-6-4.22-11-4.69-8.43-.78-14.69,4.72-16.59,6.39a25.78,25.78,0,0,0-7.28,10.68,24.44,24.44,0,0,0-1.38,6.81c0,.6,0,1.2,0,1.79a32.08,32.08,0,0,0,7.66,20.45,36.87,36.87,0,0,0,9.06,7.92c43.21,27.95,42,27.63,45,28.81a58,58,0,0,1,16.51,9.7l.66.59a18.59,18.59,0,0,0-18.25,5.08c-.3.2-.6.41-.9.65-3.54,2.81-4.16,7-4.37,8.49a15.2,15.2,0,0,0,0,4.37,18.74,18.74,0,0,0,17.78,18.24l.13,0c6.23,2,21.12-2.59,25-12C446.56,345.35,446.45,339.4,446.17,335.57Z" transform="translate(-108.38 -27.26)"/><path class="cls-27" d="M149.11,335.57a29.76,29.76,0,0,1,3-12.13c1.47-2.84,3.77-6,12.75-12.62a160.86,160.86,0,0,1,14.2-9.47c22.91-13.34,26.59-14.77,35.31-21a94.26,94.26,0,0,0,13.3-11.24,16.69,16.69,0,0,1-24.22-12.55,16.65,16.65,0,0,1,2-10.27,22.35,22.35,0,0,1,7.69-8.42c2.41-1.71,5.95-4.22,11-4.69,8.42-.78,14.68,4.72,16.59,6.39a25.88,25.88,0,0,1,7.28,10.68,24.8,24.8,0,0,1,1.38,6.81c0,.6,0,1.2.05,1.79a32.08,32.08,0,0,1-7.66,20.45,37.24,37.24,0,0,1-9.06,7.92c-43.21,27.95-42,27.63-45,28.81a58,58,0,0,0-16.5,9.7c-.24.21-.44.4-.67.59a18.89,18.89,0,0,1,4.79-.64,18.69,18.69,0,0,1,13.46,5.72,10.87,10.87,0,0,1,.91.65c3.54,2.81,4.15,7,4.36,8.49a15.22,15.22,0,0,1,0,4.37,18.75,18.75,0,0,1-17.78,18.24l-.14,0c-6.23,2-21.11-2.59-25-12C148.72,345.35,148.82,339.4,149.11,335.57Z" transform="translate(-108.38 -27.26)"/><path class="cls-28" d="M282.27,235.94h-2a9.47,9.47,0,0,0-9.47,9.47v1.94a9.46,9.46,0,0,0,9.47,9.46,9.47,9.47,0,0,0-9.47,9.47v1.94a9.47,9.47,0,0,0,9.47,9.47h2c-6.42,0-11.91,7.09-14.22,17.17a48.11,48.11,0,0,1-18.56-36c0-.57,0-1.16-.05-1.79,0-.08,0-.17,0-.26a48.12,48.12,0,0,1,18.62-38C270.36,228.85,275.85,235.94,282.27,235.94Z" transform="translate(-108.38 -27.26)"/><path class="cls-28" d="M313,235.94h2.05a9.46,9.46,0,0,1,9.46,9.47v1.94a9.45,9.45,0,0,1-9.46,9.46,9.46,9.46,0,0,1,9.46,9.47v1.94a9.46,9.46,0,0,1-9.46,9.47H313c6.41,0,11.91,7.09,14.21,17.17a48.12,48.12,0,0,0,18.57-36c0-.57,0-1.16,0-1.79,0-.08,0-.17,0-.26a48.1,48.1,0,0,0-18.63-38C324.92,228.85,319.42,235.94,313,235.94Z" transform="translate(-108.38 -27.26)"/><path class="cls-28" d="M315.06,235.94H313c-15.28,0-15.37-4.08-15.37-27.33,0,23.25-.09,27.33-15.37,27.33h-2a9.47,9.47,0,0,0-9.47,9.47v1.94a9.46,9.46,0,0,0,9.47,9.46h34.84a9.45,9.45,0,0,0,9.46-9.46v-1.94A9.46,9.46,0,0,0,315.06,235.94Z" transform="translate(-108.38 -27.26)"/><path class="cls-28" d="M315.06,256.81H280.22a9.47,9.47,0,0,0-9.47,9.47v1.94a9.47,9.47,0,0,0,9.47,9.47h2c15.28,0,15.37,4.08,15.37,27.33,0-23.25.09-27.33,15.37-27.33h2.05a9.46,9.46,0,0,0,9.46-9.47v-1.94A9.46,9.46,0,0,0,315.06,256.81Z" transform="translate(-108.38 -27.26)"/><path class="cls-28" d="M282.27,235.94c-6.42,0-11.91-7.09-14.22-17.17a48,48,0,0,1,29.59-10.16C297.64,231.86,297.55,235.94,282.27,235.94Z" transform="translate(-108.38 -27.26)"/><path class="cls-28" d="M282.27,277.69c15.28,0,15.37,4.08,15.37,27.33a48,48,0,0,1-29.59-10.16C270.36,284.78,275.85,277.69,282.27,277.69Z" transform="translate(-108.38 -27.26)"/><path class="cls-28" d="M313,235.94c6.41,0,11.91-7.09,14.21-17.17a48,48,0,0,0-29.58-10.16C297.64,231.86,297.73,235.94,313,235.94Z" transform="translate(-108.38 -27.26)"/><path class="cls-28" d="M313,277.69c-15.28,0-15.37,4.08-15.37,27.33a48,48,0,0,0,29.58-10.16C324.92,284.78,319.42,277.69,313,277.69Z" transform="translate(-108.38 -27.26)"/><path class="cls-3" d="M382.57,513c-9.13-9.89-15.87-20.39-24.75-33.9A270,270,0,0,1,341,449.56l-.84.29V626c5.31-7.47,10.53-15.93,16.74-26.44C375,568.78,379.81,537.32,382.57,513Z" transform="translate(-108.38 -27.26)"/><path class="cls-3" d="M212.7,513c9.14-9.89,15.88-20.39,24.76-33.9a268.24,268.24,0,0,0,16.86-29.58l.85.29V626c-5.31-7.47-10.53-15.93-16.74-26.44C220.28,568.78,215.46,537.32,212.7,513Z" transform="translate(-108.38 -27.26)"/><path class="cls-1" d="M331.6,452.44a136.29,136.29,0,0,1-67.93,0c-3-.79-5.8-1.67-8.5-2.59V626c10.75,15.11,21.9,26.14,42.47,41.84h0c20.56-15.7,31.71-26.73,42.47-41.84V449.85C337.41,450.77,334.59,451.65,331.6,452.44Z" transform="translate(-108.38 -27.26)"/><path class="cls-3" d="M295.4,482.05V610.87a7.38,7.38,0,0,1-3.56,6.49,5.51,5.51,0,0,1-2.69.74c-2.75,0-5.27-2.28-7.22-6v14.09c2.07,2.65,4.55,4.2,7.22,4.2,2.26,0,6.34-1,8.19-2.91,4.05-4.27,4.86-5.46,4.86-22.21V482.05Z" transform="translate(-108.38 -27.26)"/><path class="cls-3" d="M305.59,545.28c-8.26-6.3-9.86-7.29-12.08-11.53-3.93-7.52-.49-15.25,0-16.49a18.62,18.62,0,0,1,5.83-7.89c1.44-1.1,2.23-2.09,4.43-1.71a5.41,5.41,0,0,1,3.4,2.18,4.62,4.62,0,0,1,.87,2.79h8.72c0-6-.78-6.67-1.46-7.76a14.24,14.24,0,0,0-10.56-6.56c-10.54-.69-17.92,14.68-18.32,15.54-5.33,11.45-3.28,25.59,2.91,33a60,60,0,0,0,10.07,9.22c2.61,1.83,3.65,2.19,5.71,4,1.72,1.51,5.41,4.77,7,9.58,1.84,5.45,1.29,13.66-4.37,18.69-3.4,3-8.91,5.13-14,3.52-3.25-1-5.19-3.26-6.79-5.1a23.32,23.32,0,0,1-4.35-7.34V597c4.29,3.32,8.55,6.2,11.14,6.92,7.18,2,14.46-3.48,16.63-5.1,7.47-5.6,9.67-13.48,10.68-17.11s3.6-12.93-.73-21.85C317.88,554.65,313.78,551.52,305.59,545.28Z" transform="translate(-108.38 -27.26)"/><path class="cls-29" d="M357.82,479.14A270,270,0,0,1,341,449.56l-.84.29c-2.7.92-5.52,1.8-8.51,2.59a136.29,136.29,0,0,1-67.93,0c-3-.79-5.8-1.67-8.5-2.59l-.85-.29a268.24,268.24,0,0,1-16.86,29.58c-8.88,13.51-15.62,24-24.76,33.9,2.76,24.28,7.58,55.74,25.73,86.49,6.21,10.51,11.43,19,16.74,26.44,10.75,15.11,21.9,26.14,42.47,41.84h0c20.56-15.7,31.71-26.73,42.47-41.84,5.31-7.47,10.53-15.93,16.74-26.44,18.15-30.75,23-62.21,25.72-86.49C373.44,503.15,366.7,492.65,357.82,479.14Z" transform="translate(-108.38 -27.26)"/></svg>