<svg id="Capa_1" data-name="Capa 1" xmlns="http://www.w3.org/2000/svg" viewBox="0 0 568.36 714.09"><defs><style>.cls-1{fill:#fff;}.cls-2{fill:#213b89;}.cls-3{fill:#da2222;}.cls-4{fill:#010101;}.cls-4,.cls-5{fill-rule:evenodd;}.cls-5{fill:#d3992d;stroke:#1d1d1b;stroke-width:0.91px;}.cls-5,.cls-7,.cls-8{stroke-miterlimit:10;}.cls-6{font-size:58.29px;fill:#17265b;font-family:ArialMT, Arial;}.cls-7,.cls-8{fill:none;}.cls-7{stroke:#213b89;stroke-width:21.86px;}.cls-8{stroke:#fff;stroke-width:7.29px;}</style></defs><path class="cls-1" d="M571.25,207.52c-169.59-2.66-194.73-26.16-272.59-133.14h-1.32c-77.86,107-103,130.48-272.59,133.14v.28c0,392.72,169.85,514.58,272.59,558.82h1.32C401.4,722.38,571.25,600.52,571.25,207.8Z" transform="translate(-13.82 -63.45)"/><path class="cls-2" d="M308.63,388.16v374a384.66,384.66,0,0,0,71-42.46V432.88Z" transform="translate(-13.82 -63.45)"/><path class="cls-3" d="M379.6,432.88V719.7a389.48,389.48,0,0,0,71-69.86V477.59Z" transform="translate(-13.82 -63.45)"/><path class="cls-2" d="M450.57,649.84c26.4-33.47,51-75.24,70.95-127.54l-70.95-44.71Z" transform="translate(-13.82 -63.45)"/><path class="cls-3" d="M308.63,388.16l-71-44.71V734.66a393.47,393.47,0,0,0,59.68,32h1.32q4.89-2.11,10-4.46Z" transform="translate(-13.82 -63.45)"/><path class="cls-2" d="M166.69,674.71a381.78,381.78,0,0,0,71,59.95V343.45l-71-44.72Z" transform="translate(-13.82 -63.45)"/><path class="cls-3" d="M95.72,254V570.84c21.22,42.54,45.61,76.56,71,103.87v-376Z" transform="translate(-13.82 -63.45)"/><path class="cls-2" d="M24.76,209.3c.18,162.36,29.45,278.28,71,361.54V254Z" transform="translate(-13.82 -63.45)"/><path class="cls-4" d="M436.34,421.66h0a40.87,40.87,0,1,1,48.9,30.84A40.56,40.56,0,0,1,436.34,421.66Z" transform="translate(-13.82 -63.45)"/><path class="cls-5" d="M491.23,429.12a12.46,12.46,0,0,0-5.26,2.56c-6.25.58-13.26-5.81-14.45-11.36a5.6,5.6,0,0,1,1.34-5.4,8.1,8.1,0,0,1,3.37-1.91c5.34-1.72,8.84-3.95,11.13-6.25a14.73,14.73,0,0,0,4.47-10.42s0-.25,0-.47l.3-.05c2.76-.46,5.89-1,8.67-3.44l.58-.52c.53-.47,1.07-.95,1.58-1.46a8.47,8.47,0,0,0,2.5-4.15,39.12,39.12,0,0,1,7.75,12.85l-.21,0C514.89,407.38,500.63,427,491.23,429.12ZM473.6,452a39.3,39.3,0,0,0,11.32-.88c.92-.21,1.81-.46,2.7-.73A10.62,10.62,0,0,1,481.69,440a12,12,0,0,1,2.81-6.84c-6.55-.41-13.15-6.74-14.39-12.51-.86-4,.9-7.11,4.84-8.68-2.5-4.25-8.39-7.31-13.84-7.07a9.5,9.5,0,0,0-8.83,6,16.59,16.59,0,0,1,.56,5.19c-.66,13.41,10.33,28,20.83,35.81Zm-22-43.05a10.81,10.81,0,0,1,9.44-5.49c6.14-.27,12.57,3.15,15.27,8,13.55-4.55,13.93-12.26,14.07-15.18a7.33,7.33,0,0,1,.06-.78c-8.18-9.42-31.68-11.56-43.8-8.81l0-.08A39.68,39.68,0,0,0,438,402.93a8.43,8.43,0,0,1,8.41-.18A12.2,12.2,0,0,1,451.61,408.92Zm-14.06-4a39.38,39.38,0,0,0,33.62,46.84c-10.27-8.31-20.43-22.52-19.77-35.76.26-5.09-2.07-10-5.67-12-2.58-1.4-5.41-1.09-8.17.9Zm77.12-1c-.07-.31-.16-.62-.24-.93-1.69,10-13.83,25.5-22.88,27.55a10.57,10.57,0,0,0-8.42,9.54,9.37,9.37,0,0,0,6.43,9.59l0,.07A39.5,39.5,0,0,0,514.67,403.91Zm-10.44-19a39.31,39.31,0,0,0-56,0c13.06-2.29,35,.14,43.26,9.57l.46-.08c2.69-.44,5.48-.9,7.94-3.08l.58-.52c1.89-1.69,3.68-3.28,3.77-5.87Z" transform="translate(-13.82 -63.45)"/><text class="cls-6" transform="translate(422.5 230.75)">UD</text><text class="cls-6" transform="translate(285.27 298.77)">AGAETE</text><path class="cls-2" d="M571.25,207.52c-169.59-2.66-194.73-26.16-272.59-133.14h-1.32c-77.86,107-103,130.48-272.59,133.14v.28c0,.24,0,.46,0,.7,71.3,31.55,167.74,50.91,273.9,50.91,105.51,0,201.4-19.13,272.58-50.34,0-.43,0-.84,0-1.27Z" transform="translate(-13.82 -63.45)"/><polygon class="cls-1" points="273.97 184.81 273.97 108.78 240.94 108.78 240.94 88.2 273.97 88.2 273.97 63.34 296.58 63.34 296.58 88.2 329.62 88.2 329.62 108.78 296.58 108.78 296.58 184.81 273.97 184.81"/><path class="cls-1" d="M308.58,128.61v24.87h33v16.93h-33v76h-19v-76h-33V153.48h33V128.61h19m3.64-3.64H286v24.86h-33v24.23h33v76h26.25v-76h33V149.83h-33V125Z" transform="translate(-13.82 -63.45)"/><path class="cls-7" d="M571.25,207.52c-169.59-2.66-194.73-26.16-272.59-133.14h-1.32c-77.86,107-103,130.48-272.59,133.14v.28c0,392.72,169.85,514.58,272.59,558.82h1.32C401.4,722.38,571.25,600.52,571.25,207.8Z" transform="translate(-13.82 -63.45)"/><path class="cls-8" d="M571.25,207.52c-169.59-2.66-194.73-26.16-272.59-133.14h-1.32c-77.86,107-103,130.48-272.59,133.14v.28c0,392.72,169.85,514.58,272.59,558.82h1.32C401.4,722.38,571.25,600.52,571.25,207.8Z" transform="translate(-13.82 -63.45)"/></svg>