<svg id="Capa_1" data-name="Capa 1" xmlns="http://www.w3.org/2000/svg" viewBox="0 0 489.92 599.83"><defs><style>.cls-1{fill:#469fd9;}.cls-2{fill:#fcea10;stroke:#f39200;stroke-width:4.05px;}.cls-2,.cls-5,.cls-8,.cls-9{stroke-miterlimit:10;}.cls-3{fill:#f1851c;}.cls-13,.cls-4{fill:#1d1d1b;}.cls-12,.cls-5{fill:#fff;}.cls-5,.cls-8{stroke:#1d1d1b;}.cls-5{stroke-width:2.02px;}.cls-6{fill:#26a5df;}.cls-7{fill:#0da64c;}.cls-8{fill:#b17f4a;}.cls-8,.cls-9{stroke-width:1.35px;}.cls-9{fill:#682514;stroke:#432918;}.cls-10{fill:#0fa750;}.cls-11{fill:#063;}.cls-13{font-size:52.65px;font-family:Arial-BoldMT, Arial;font-weight:700;}</style></defs><path class="cls-1" d="M532.62,233.88,163.41,531.61c1.53-.05,3.07-.08,4.63-.08,29.61,0,54.93,9,65.38,21.81,11-15.94,35.6-27.06,64.22-27.06,23.75,0,44.74,7.66,57.48,19.38,6.39-6.49,19.62-11,34.91-11,12.67,0,23.92,3.07,31.05,7.81,8.43-6.45,28.3-11,51.49-11,17.06,0,32.32,2.46,42.56,6.32a182.88,182.88,0,0,0,17.49-78.5Z" transform="translate(-55.9 -121.03)"/><circle class="cls-2" cx="352.11" cy="325.05" r="64.8"/><path class="cls-3" d="M296.68,715.9c-22.87-12.29-45.7-25.48-67.87-39.18-39.06-24.13-62.63-38.7-83.94-57.51-12-10.62-21.19-19.24-28.81-27.14-4.3-4.45-8.11-8.65-11.63-12.84l-1.33-1.58,59.57-48,.68,0c1.79-.06,3.29-.09,4.69-.09,28.06,0,53.22,8,65.23,20.62,12.32-15.79,37.21-25.86,64.37-25.86,22.51,0,43.81,7,57.45,18.66,7.37-6.35,20.5-10.25,34.94-10.25,12,0,23.23,2.69,31,7.4,9.58-6.45,29.52-10.57,51.56-10.57,16.64,0,32.42,2.36,43.28,6.46l2,.77-1.31,2.79a182.26,182.26,0,0,1-15.73,26.79c-13.12,18.52-29.65,34.54-50.45,52.9-21.32,18.81-44.89,33.38-83.94,57.51-22.18,13.71-45,26.89-67.87,39.18l-1,.51Z" transform="translate(-55.9 -121.03)"/><path class="cls-4" d="M297.64,526.28c23.75,0,44.74,7.66,57.48,19.38,6.39-6.49,19.62-11,34.91-11,12.67,0,23.92,3.07,31.05,7.81,8.43-6.45,28.3-11,51.49-11,17.06,0,32.32,2.46,42.56,6.32-.12.27-.24.54-.37.8a180,180,0,0,1-15.55,26.49c-12.52,17.68-28.37,33.33-50.14,52.55-21.19,18.7-44.62,33.18-83.66,57.31-26.07,16.11-49.22,29.14-67.77,39.11-18.55-10-41.71-23-67.77-39.11-39.05-24.13-62.48-38.61-83.66-57.31-11-9.67-20.41-18.44-28.69-27-4.12-4.27-8-8.49-11.54-12.74l57.43-46.32c1.53-.05,3.07-.08,4.63-.08,29.61,0,54.93,9,65.38,21.81,11-15.94,35.6-27.06,64.22-27.06m0-4c-26.75,0-51.4,9.64-64.53,24.89-12.93-12-37.69-19.64-65.07-19.64-1.44,0-2.95,0-4.76.08l-1.35.05-1.06.85-57.43,46.31-3.22,2.6,2.66,3.16c3.55,4.23,7.39,8.46,11.72,13,7.66,7.93,16.86,16.59,28.93,27.25,21.44,18.92,45.07,33.52,84.21,57.71,22.21,13.73,45.09,26.93,68,39.24l1.92,1,1.92-1c22.89-12.31,45.76-25.51,68-39.24,39.14-24.19,62.77-38.79,84.21-57.71,20.9-18.45,37.53-34.56,50.77-53.25a185.27,185.27,0,0,0,15.89-27.08l.24-.5c0-.1.09-.21.14-.31l1.89-4-4.12-1.56c-11.08-4.18-27.11-6.58-44-6.58-22,0-41.29,3.87-51.61,10.21-8-4.49-19.09-7-30.93-7-14.07,0-27,3.64-34.92,9.66-14-11.37-35.19-18.08-57.47-18.08Z" transform="translate(-55.9 -121.03)"/><path class="cls-5" d="M347.49,602.41l16.29,18.36a63.23,63.23,0,0,1-13,35.52l-22.87,4.07-13.31-22.49,8.81-27.12Z" transform="translate(-55.9 -121.03)"/><path class="cls-5" d="M323.39,610.75,300.32,594V570.27l26.06-10.55a63.63,63.63,0,0,1,22.25,16.7l-1.14,26Z" transform="translate(-55.9 -121.03)"/><path class="cls-5" d="M313.9,679.74a63.84,63.84,0,0,1-27.15,0l-14-19.38,13.3-22.49h28.52l13.31,22.49Z" transform="translate(-55.9 -121.03)"/><path class="cls-5" d="M253.15,602.41l-16.29,18.36a63.23,63.23,0,0,0,13,35.52l22.88,4.07,13.3-22.49-8.81-27.12Z" transform="translate(-55.9 -121.03)"/><path class="cls-5" d="M277.25,610.75,300.32,594V570.27l-26.06-10.55A63.72,63.72,0,0,0,252,576.42l1.14,26Z" transform="translate(-55.9 -121.03)"/><path class="cls-4" d="M313.9,679.74l14-19.38,22.87-4.07A63.54,63.54,0,0,1,313.9,679.74Z" transform="translate(-55.9 -121.03)"/><path class="cls-4" d="M347.49,602.41l1.14-26a63.26,63.26,0,0,1,15.23,41.25c0,1,0,2.07-.08,3.1Z" transform="translate(-55.9 -121.03)"/><polygon class="cls-4" points="258.68 516.84 244.42 516.84 230.16 516.84 221.35 489.72 244.42 472.96 267.49 489.72 258.68 516.84"/><path class="cls-4" d="M286.75,679.74l-14-19.38-22.88-4.07A63.53,63.53,0,0,0,286.75,679.74Z" transform="translate(-55.9 -121.03)"/><path class="cls-4" d="M253.15,602.41l-1.14-26a63.31,63.31,0,0,0-15.23,41.25c0,1,0,2.07.08,3.1Z" transform="translate(-55.9 -121.03)"/><path class="cls-4" d="M300.32,570.27l-26.06-10.55a63.54,63.54,0,0,1,52.12,0Z" transform="translate(-55.9 -121.03)"/><path class="cls-4" d="M300.32,554.13a63.54,63.54,0,1,1-63.54,63.54,63.54,63.54,0,0,1,63.54-63.54m0-2a65.56,65.56,0,1,0,65.56,65.56,65.63,65.63,0,0,0-65.56-65.56Z" transform="translate(-55.9 -121.03)"/><path class="cls-6" d="M532.62,154.53c-2.72,3.14-6.08,5-9.72,5-9.1,0-16.48-11.59-16.48-25.9a40,40,0,0,1,.45-5.87H88.41a40,40,0,0,1,.44,5.87c0,14.31-7.38,25.9-16.48,25.9-3.64,0-7-1.88-9.72-5V351.72a223.41,223.41,0,0,0,22.08-7.83c4.5-1.87,8.39-3.68,14.59-5,4.51-1,7.64-1.08,24.21-1.07,17.93,0,19.19.18,22.43-1.07,6.24-2.38,7.51-5.24,15.67-8.19a54.8,54.8,0,0,1,13.17-2.84c13.5-1.52,33.76-3.79,55.19-.72,3.31.48,8.9,1.41,13.17-1.78s3.18-7.19,6.77-9.25c4.52-2.6,10,1.62,18.87,4.63,4.64,1.57,10.81,2.12,23.14,3.2,7.59.67,20.33,1.05,37.09.95L532.62,159.55Z" transform="translate(-55.9 -121.03)"/><path class="cls-7" d="M377.81,257.7c-24.32,0-60.49-2-60.49-7.61s36.17-7.6,60.49-7.6,60.49,2,60.49,7.6S402.12,257.7,377.81,257.7Z" transform="translate(-55.9 -121.03)"/><path class="cls-4" d="M377.81,243.16c33,0,59.81,3.11,59.81,6.93S410.84,257,377.81,257,318,253.92,318,250.09s26.78-6.93,59.82-6.93m0-1.35a390.25,390.25,0,0,0-42.45,2,93.5,93.5,0,0,0-13,2.24c-2.82.77-5.7,1.85-5.7,4s2.88,3.23,5.7,4a92,92,0,0,0,13,2.24,387.73,387.73,0,0,0,42.45,2,388,388,0,0,0,42.45-2,92.56,92.56,0,0,0,13-2.24c2.81-.77,5.69-1.85,5.69-4s-2.88-3.23-5.69-4a94.05,94.05,0,0,0-13-2.24,390.52,390.52,0,0,0-42.45-2Z" transform="translate(-55.9 -121.03)"/><path class="cls-8" d="M322.16,149c-.33.15-.8.37-1,.5a3.15,3.15,0,0,0-1.21,1.33c-.06.21-.1.23-.48.17a2.3,2.3,0,0,1-.8-.33c-.29-.2-.4-.22-.56-.14a.49.49,0,0,0-.25.24c0,.1-.24.1-1,0-.92-.13-.95-.13-1.17.08a.75.75,0,0,1-.43.21,17.28,17.28,0,0,0-3,.88,10.11,10.11,0,0,0-1.61.83l-.7.46-1.79.08c-3.66.16-6.09.45-7.2.88a8.62,8.62,0,0,0-2.65,1.94,4.58,4.58,0,0,0-1.33,1.76,2.43,2.43,0,0,1-.67,1,1.16,1.16,0,0,0-.27,1.66,2.34,2.34,0,0,0,.54.31,4.35,4.35,0,0,1,1,.77,4.11,4.11,0,0,0,3.94,1.52c1.61-.2,2.1-.12,4.29.67a11.48,11.48,0,0,1,3.87,2.12c.53.54.58.67.94,2,.09.33.17.44.36.47a.44.44,0,0,0,.35,0c.11-.11.12-.07.35,1.08.15.74.24.88.53.92.12,0,.29.29.52.81a9.31,9.31,0,0,0,.93,1.62c.33.46.67,1,.78,1.19s.55.91,1,1.59a6.89,6.89,0,0,1,1.11,2.12c.27.89.44,1.09.76.89.13-.09.2-.07.29.08a.45.45,0,0,0,.33.2.71.71,0,0,1,.44.27c.35.46,1.18,1.68,1.35,2a6.07,6.07,0,0,1,.44,2c0,.27,0,.48.09.48a.8.8,0,0,1,.25.07c.11,0,.22-.08.37-.37L321,183l.48.35a1.45,1.45,0,0,0,.64.3c.1,0,.36.26.75.86,3.55,5.33,7.06,8.38,12.35,10.73a18.2,18.2,0,0,0,4,1.34c1.23.3,2.53.6,2.89.67,1.4.27,1.65.45,3.68,2.77a10.57,10.57,0,0,0,2.81,2.56c.47.23.68.78.83,2.23a93,93,0,0,1-.42,12.7,20.55,20.55,0,0,0,.15,6.44,19.16,19.16,0,0,1,0,6.37c-.69,6.67-1.21,9.26-2.27,11.23a6.39,6.39,0,0,1-2,2.39,8.81,8.81,0,0,0-2.74,3A1.86,1.86,0,0,0,342,248l0,.52.64.31a3.13,3.13,0,0,1,.81.52,1.24,1.24,0,0,0,.51.32,25.73,25.73,0,0,0,5,.3c2.08-.08,3-.41,3.4-1.21.24-.47.17-1-.28-1.81a4.14,4.14,0,0,1-.68-2.65,5.59,5.59,0,0,1,.94-2.53l.62-1.17v-1.93a44,44,0,0,1,.61-7,35.29,35.29,0,0,1,1.39-6,15.57,15.57,0,0,0,1-5.93,34.29,34.29,0,0,1,.7-5.45c.12-.53.26-1.54.33-2.24a23.84,23.84,0,0,1,.46-2.82,18,18,0,0,0,.34-1.82c0-1,.37,1.42.83,5.45a39.59,39.59,0,0,1,.16,6.18,27.82,27.82,0,0,0,.08,4.68c.31,1,1.06,4.5,1.22,5.6a25.53,25.53,0,0,1,.06,4.93c-.11,3.57-.33,8.45-.48,10.12a11.93,11.93,0,0,1-.32,1.73l-.28,1-.93.92c-.51.49-1.2,1.16-1.55,1.48a4.65,4.65,0,0,0-1.44,2.27c-.37,1.23-.08,1.66,1.21,1.83a4.28,4.28,0,0,1,1.16.39,3,3,0,0,0,1.7.37,16.28,16.28,0,0,0,5-.53c1.12-.4,1.48-.72,1.55-1.42a6.43,6.43,0,0,0-.49-2.83,2.59,2.59,0,0,1,.21-2.91A3.07,3.07,0,0,0,366,244a16.81,16.81,0,0,1-.73-4,59.36,59.36,0,0,1,.08-8.29,23.37,23.37,0,0,1,.57-5.08,15.2,15.2,0,0,0,.34-6.35,28,28,0,0,1-.22-6.2,45.35,45.35,0,0,0-.14-4.62l-.18-2.64.39-1.22a7.14,7.14,0,0,1,.53-1.41,12.82,12.82,0,0,1,4.1-2,28.15,28.15,0,0,1,4.41-.76,21.21,21.21,0,0,0,6-1.22,63,63,0,0,0,8.67-4.52,32.69,32.69,0,0,1,3.25-1.84l.77-.08.47-.06.07,1.19a17.68,17.68,0,0,0,1.05,5.76c.75,2.22,1.08,2.87,3.21,6.26a20.15,20.15,0,0,1,2.51,5.18,15,15,0,0,0,1.58,3.53,16.5,16.5,0,0,1,1.78,5.73,22.07,22.07,0,0,1-.53,6.64,40.5,40.5,0,0,1-1.52,6.2,25.41,25.41,0,0,1-2.05,5.47c-1.19,2.44-1.33,2.6-2.86,3.53a17.56,17.56,0,0,0-3.53,2.77,6.28,6.28,0,0,0-1,2.22.85.85,0,0,0,.72.95,7.71,7.71,0,0,1,1.81.59l.81.31,3.25-.1c3.19-.11,3.28-.12,3.77-.37a1.18,1.18,0,0,0,.69-.66,4.83,4.83,0,0,0,0-2.66,2.38,2.38,0,0,1-.05-1.34c.12-.52.19-.65.47-.82.72-.42,1.09-1.41,1.21-3.23a23.25,23.25,0,0,1,1.37-5.59c.27-.7,1-2.37,1.66-3.71a30.47,30.47,0,0,1,2.45-4.42c2-3.07,2.09-3.28,1.64-4.61a14.56,14.56,0,0,0-.56-1.4,21.65,21.65,0,0,1-1.22-6.36c-.25-2.9-.27-3.9-.08-3.69a17.29,17.29,0,0,1,.89,2.19c.41,1.12.89,2.35,1.09,2.73a67.93,67.93,0,0,0,4.07,5.55,24.17,24.17,0,0,1,2.5,4.68,30.29,30.29,0,0,1,.85,8.4,29.42,29.42,0,0,1-.48,4.76c-.25,1.54-.45,3.17-.46,3.71a4.3,4.3,0,0,1-.72,2.57c-.15.18-.92,1-1.71,1.88a10.7,10.7,0,0,0-2.33,3.25,1.51,1.51,0,0,0,0,1.28c.31.41,3.74,1,5.61,1a17.07,17.07,0,0,0,3.78-.41,2.79,2.79,0,0,0,1.41-1.49,5.14,5.14,0,0,0-.62-2.32,5,5,0,0,1-.43-1.13,3.27,3.27,0,0,1,0-1.66c.22-1.59.35-2.12.6-2.38a3.75,3.75,0,0,0,.34-2.63,8.84,8.84,0,0,0-.3-1.69,15.85,15.85,0,0,1-.31-4.93c.38-4.95.95-11.51,1.08-12.54.31-2.22.13-2.7-1.32-3.66a7.6,7.6,0,0,1-2.57-2.88c-1-1.58-1.51-3.05-2.68-7.09a12.79,12.79,0,0,1-.63-5.9,33.34,33.34,0,0,0,.17-4.21v-2.7l-.72-3.76c-.69-3.62-.89-4.83-.75-4.83a23.32,23.32,0,0,1,1.28,3c.2.56.61,2,.91,3.22.67,2.67,2,8.86,2.2,10a10.92,10.92,0,0,1-.25,4,8.44,8.44,0,0,0-.37,3.29c.05.42.09.87.1,1a.38.38,0,0,0,.58.23,8.47,8.47,0,0,1,.43,1.84l.35,1.93h.28c.31,0,.25.15.74-1.78.14-.55.33-1.27.42-1.57a9.7,9.7,0,0,0,.22-2.24,9.2,9.2,0,0,0-.32-3.33c-.2-.91-.36-1.7-.36-1.75s.08-.06.18,0a.37.37,0,0,0,.31-.11c.11-.13.07-.31-.28-1a15.38,15.38,0,0,1-1.08-4.19c-.09-.64-.34-2.09-.56-3.21s-.52-2.67-.66-3.45a37.32,37.32,0,0,0-2.69-8.07,27.27,27.27,0,0,0-2.38-3.77,8.46,8.46,0,0,1-.91-1.53,21.34,21.34,0,0,0-1.72-3.15,17.4,17.4,0,0,0-3.1-3.14c-1.23-.91-2.12-1.34-5.58-2.71a17.6,17.6,0,0,1-4.86-2.56,28.67,28.67,0,0,1-4.57-3.87,7.63,7.63,0,0,1-1.81-2.74c-.31-.75-.36-1-.27-1.12s.07-.29-.15-.7-.22-.53-.12-.57a.45.45,0,0,0,.19-.26c0-.16,0-.25-.24-.39s-.56-.53-1.16-1.6c-1.13-2-3.28-3.49-7.39-5.13a6.59,6.59,0,0,1-1.15-.53s0-.16,0-.29c-.15-.41-2-.86-4.1-1-.85,0-1.2-.11-1.2-.2a5.25,5.25,0,0,0-2.27-.2,12.51,12.51,0,0,0-6.11,2.44,21.76,21.76,0,0,1-4.06,2.36,9.09,9.09,0,0,0-4.2,3.52c-.41.62-.44.74-.33.94s.06.33-.37,1.16a8.37,8.37,0,0,1-3.56,3.35c-.77.47-1.81,1.05-2.29,1.29a4.54,4.54,0,0,0-2.37,2.49,24.08,24.08,0,0,1-2.88,4.53c-1.06,1.17-2.41,2.26-2.82,2.26,0,0,0-.09,0-.19a.38.38,0,0,0-.41-.32,2,2,0,0,0-.42.58,7.82,7.82,0,0,1-.71,1.06c-.33.41-.42.46-.72.42s-.37,0-.53.3a5.14,5.14,0,0,1-.89.91,3.53,3.53,0,0,1-1.67.84,6.87,6.87,0,0,1-2.28.26,7.65,7.65,0,0,1-2.52-.31,6.89,6.89,0,0,1-2.36-1,11.06,11.06,0,0,1-3.95-4,38.28,38.28,0,0,1-2.82-5.21c-.92-1.89-1.66-3.45-1.66-3.47s.09-.06.2-.09c.27-.08.27-.49,0-.66a2.29,2.29,0,0,1-.62-1.09.83.83,0,0,1,.1-.44c.12-.21.1-.27-.14-.59a.7.7,0,0,1-.21-.61c0-.2,0-.28-.26-.43a2.69,2.69,0,0,1-1.26-1.35c-.4-.77-.38-.89.16-.9a6.94,6.94,0,0,0,2.82-1.13c2-1.12,1.95-1.09,1.95-1.32a2.23,2.23,0,0,1,.55-.81,6.11,6.11,0,0,0,1.39-2.36c.29-.93.26-1.34-.1-1.71-.51-.51-.91-.42-2.67.56a6.56,6.56,0,0,1-1,.48,29.55,29.55,0,0,1-3,.55,6.27,6.27,0,0,1,.28-.81c.39-1,.39-1.22,0-1.59S323,148.66,322.16,149Z" transform="translate(-55.9 -121.03)"/><path class="cls-9" d="M216.1,241.18a38.6,38.6,0,0,1-8.14-3,178.65,178.65,0,0,1-5,28.47,183.84,183.84,0,0,1-30.86,63.53l31.15-.12c6.89-18.74,12.37-32,16.8-41.87a119.73,119.73,0,0,0,9.7-30.25,113.92,113.92,0,0,0,1.65-16.16A38.83,38.83,0,0,1,216.1,241.18Z" transform="translate(-55.9 -121.03)"/><path class="cls-9" d="M176.76,302.77a55,55,0,0,1-6.94-18.16c-.52-2.87-.75-5.65-.71-14.24,0-5.21.15-12.09.55-20.28a45.89,45.89,0,0,1-11.23,10.14,45.4,45.4,0,0,1-7.62,3.88,100,100,0,0,0-.22,13.38c.64,12.24,3.19,17.31,3.92,18.7a34.48,34.48,0,0,0,5.34,7.29c4,4.65,8,13.11,7.48,29.89l24.3-.27C185.44,319.17,180.64,309.65,176.76,302.77Z" transform="translate(-55.9 -121.03)"/><path class="cls-10" d="M125.77,293.22h-.18c-3.71-.45-6.11-13.13-5.27-22.63l.06-.58a15,15,0,0,0,.1-1.54c-1.53,1-6.64,7.68-9.61,16.51-.29.86-.52,1.62-.71,2.27-.63,2.07-1,3.22-2.06,3.3h0c-3.19,0-5.77-12.05-6.46-17.55-1.5-11.75.24-25.89,4-32.2l.07-.13c.22-.37.39-.68.51-.91a19.71,19.71,0,0,0-6.68,5.66c-.19.26-4.74,6.37-4,14,0,.52.12,1,.19,1.46.16,1.13.25,1.76-.43,1.93l-.08,0h-.09c-1.42,0-3.87-9-4.4-12.18-2.14-12.66,2.19-28.15,9.87-35.28l.37-.34a28.94,28.94,0,0,0,3.57-3.63l-.34.06a15.35,15.35,0,0,1-2.76.26c-.4,0-.75,0-1.09,0s-.58,0-.88,0a7.54,7.54,0,0,0-1.08.07,13.09,13.09,0,0,0-9.19,6.93,12,12,0,0,0-.85,2.36c-.19.72-.37,1.4-1.09,1.4a1,1,0,0,1-.76-.39c-1.1-1.25-2.22-7.47-1.43-14a19.36,19.36,0,0,1,1.29-5.19A30.22,30.22,0,0,0,88,196.3c.9-5.69,1.35-8.54.45-12.2-.17-.67-.36-1.31-.54-1.88-.5-1.66-.91-3,0-3.69a1.43,1.43,0,0,1,1-.32c1,0,2.17.72,3.71,1.64.46.27.94.56,1.44.83,2.75,1.55,8.43,4.16,12.19,4.16h0a3.76,3.76,0,0,0,2.36-.62c.9-.72.77-2,.38-4.79a53.29,53.29,0,0,1-.63-7.86c0-4.71.55-15.92,5.37-18.23A3.14,3.14,0,0,1,115,153c1.46,0,2.69,1,4.41,2.39a28.7,28.7,0,0,0,10.68,5.92l1,.27c2.31.65,4.71,1.33,6,3.6a6.22,6.22,0,0,1,.68,3.5c0,.81,0,1.81.12,3.19.39,4.36.6,6.75,2.06,7.89a4.41,4.41,0,0,0,2.75.79,12.17,12.17,0,0,0,6.92-2.57,8.74,8.74,0,0,0,2.33-2.81,7.35,7.35,0,0,1,2.91-3.11,10.94,10.94,0,0,1,5.61-1.4,18.87,18.87,0,0,1,2.84.24c2.5.38,4.49,1.31,7.49,2.73,1.34.64,2.14,1.08,2.72,1.41a4,4,0,0,0,1.71.67,6.84,6.84,0,0,0,.79,0,8.41,8.41,0,0,0,6.25-3,6.19,6.19,0,0,0,1.35-3.5,10.14,10.14,0,0,1,1.64-4.64,13.27,13.27,0,0,1,5.82-4.88,10.74,10.74,0,0,1,4.18-.81,20.18,20.18,0,0,1,2.49.18,14.63,14.63,0,0,0,1.61.14,2,2,0,0,0,1.63-.59c.48-.51.48-1,.44-2.23a16.23,16.23,0,0,1,.65-5.51c.55-1.85,1.06-3.6,2.51-4.94a8,8,0,0,1,5.63-1.83,28.13,28.13,0,0,1,3.06.21l.21,0c.07,0,7.41.78,18.32.78,2,0,4,0,6-.08h.54c1.08,0,2.17.07,3.23.15s2.11.15,3.14.15a12.65,12.65,0,0,0,3.59-.45l.13,0a6.85,6.85,0,0,1,1.94-.36,2.39,2.39,0,0,1,1.6.53c1.19,1.06.92,3.36.17,5.06a7.66,7.66,0,0,1-3.23,3.37,12,12,0,0,0-3.6,3.33c-.49.69-1.5,2.14-1.21,2.67.07.12.35.39,1.54.39a25.22,25.22,0,0,0,3.7-.43l.83-.13a70.56,70.56,0,0,1,10-.75,43.57,43.57,0,0,1,8.54.76,34,34,0,0,1,14,6.65c5.19,3.88,4.72,4.64,4.46,5a.85.85,0,0,1-.74.38,3.45,3.45,0,0,1-1.2-.32,16,16,0,0,0-1.81-.56,10.57,10.57,0,0,0-2.51-.29,15,15,0,0,0-9,3.44c-.91.77-1.23,1.07-1.29,1.46-.12.8.79,1.52,2.85,3.07,1.22.91,2.74,2.05,4.5,3.62a22.43,22.43,0,0,1,3.79,4.11,24.18,24.18,0,0,0,3.87,4.26c1.26,1.16,2.32,2.24,1.83,3.13a1.06,1.06,0,0,1-1,.53,7.14,7.14,0,0,1-1.07-.13,14.19,14.19,0,0,0-2.33-.23h-.41a8.65,8.65,0,0,0-4.9,1.57,7,7,0,0,0,.78.36l.17.06c4.46,1.84,7.39,5.09,10.23,8.24,2.45,2.72,2.28,3.36,1.89,3.79a.78.78,0,0,1-.6.26,2.3,2.3,0,0,1-1-.38,2.9,2.9,0,0,0-1-.4s-.43.79.87,5.63c1.65,6.19,2.48,9.29,3.84,12.46l.06.15c.55,1.28,1.17,2.72.36,3.64a2.05,2.05,0,0,1-1.58.58,5.74,5.74,0,0,1-3.05-1,6.57,6.57,0,0,1-2.44-3.62c-.3-.85-.5-1.38-.87-1.5a.54.54,0,0,0-.22,0c-1.06,0-2.7,1.85-3.89,3.2l-.1.12a14.9,14.9,0,0,0-2.52,3.67c-.41.87-1.17,2.47-1.19,9.5,0,4.21.14,11.92.14,12,0,2.51.06,3.1-.7,3.22h-.14c-.85,0-.93-.09-3.69-12.15l-.54-2.4c-1.83-7.95-3.4-14.81-6.23-20.55a26.14,26.14,0,0,0-4.55-6.37,27.56,27.56,0,0,0-2.2-2.05c.16.28.33.56.49.82.61,1,1.29,2.11,1.87,3.27,1.19,2.39,2.21,5.61,1.67,18.48-.42,10-.66,15.44-2.6,19.49-1.69,3.51-3.66,5.65-7.59,9.91-1.24,1.35-2.11,2.13-2.87,2.13a1,1,0,0,1-.49-.12c-1-.55-.59-2.29.11-4.69l.1-.36c1.89-6.67.65-13.46-.44-19.45-.79-4.37-1.54-8.49-.91-11.87a5.52,5.52,0,0,0,.13-1.19,11.52,11.52,0,0,0-2.68,2.55c-5.17,6.36-4.53,19.08-2.42,26.08l.05.14c.47,1.55.82,3-.06,3.56a1.15,1.15,0,0,1-.62.17c-2,0-6.37-5.43-6.55-5.66-2.22-2.79-6.85-8.61-6.9-15.25v-.22c0-.12,0-.31,0-.49a49.46,49.46,0,0,0-4.76,9.13c-1.1,2.59-1.92,4.88-2.58,6.72-1.27,3.55-1.85,5.17-3.07,5.17h-.11c-.84-.08-1.15-.92-1.54-2l-.22-.58c-.66-1.7-2.07-3.72-4.87-7.74a30.5,30.5,0,0,0-5.07-6.05,15,15,0,0,1-3.09-3.72c-.28-.45-.81-1.28-1.31-1.29-1,0-2.13,2.8-2.57,3.85a102.55,102.55,0,0,0-3.39,9.77c-1,3.39-1.45,4.79-2.56,4.8-.89,0-1.17-.81-1.72-2.44-.26-.77-.58-1.72-1.06-2.92a37.75,37.75,0,0,0-6-10.24c-1.59-1.88-2.79-2.83-3.57-2.83h-.11c-1,.08-1.79,1.05-2.7,2.49a30,30,0,0,0-3.34,7.37c-.29.87-.56,1.69-.88,2.42-1.22,2.75-2.89,3.58-5.65,4.95a60.43,60.43,0,0,0-9.4,5.61,74.23,74.23,0,0,0-6.34,5.11c-2.47,2.19-3.84,3.39-6.69,3.56l-.63,0a14.94,14.94,0,0,1-4.46-.8,9.87,9.87,0,0,0-2.68-.54,3.42,3.42,0,0,0-1.7.44c-.7.38-1.6,1.22-3.28,6.29-.89,2.67-1.49,5-2,7-1.17,4.53-2,7.8-4.9,10A3.15,3.15,0,0,1,125.77,293.22Z" transform="translate(-55.9 -121.03)"/><path class="cls-11" d="M210.24,144.81a27.33,27.33,0,0,1,3.19.24s7.32.78,18.4.78q2.85,0,6-.07h.53c2.11,0,4.26.3,6.37.3a13.38,13.38,0,0,0,3.78-.47,7.11,7.11,0,0,1,1.88-.37,1.66,1.66,0,0,1,1.15.37c.9.8.64,2.83,0,4.27-1.36,3.05-4.15,2.86-6.76,6.59-.73,1-1.75,2.48-1.25,3.38.31.56,1.11.75,2.14.75a34,34,0,0,0,4.62-.57,69.88,69.88,0,0,1,9.93-.74,42.89,42.89,0,0,1,8.41.74,33.45,33.45,0,0,1,13.69,6.53c1.66,1.24,4.6,3.66,4.29,4.15a.18.18,0,0,1-.17.07c-.4,0-1.43-.53-2.86-.87a11.27,11.27,0,0,0-2.66-.31,15.92,15.92,0,0,0-9.44,3.6c-.94.81-1.41,1.22-1.51,1.87-.31,1.94,2.75,3,7.56,7.3,4.42,3.95,2.9,4,7.66,8.37.57.53,2,1.79,1.69,2.31-.07.13-.22.18-.44.18-.62,0-1.81-.36-3.4-.36h-.43c-2.82.12-5.67,1.42-5.61,2.32,0,.45.77.71,1.42,1,4.32,1.77,7.13,4.89,10,8.06,1.46,1.62,2.09,2.67,1.89,2.89a.13.13,0,0,1-.1,0c-.35,0-1.3-.78-2-.78a.72.72,0,0,0-.32.08c-.43.23-.86,1.19.54,6.41,1.66,6.22,2.49,9.33,3.87,12.55.47,1.11,1.08,2.45.53,3.07a1.39,1.39,0,0,1-1.07.36,5.1,5.1,0,0,1-2.67-.9c-2.46-1.67-1.95-4.68-3.47-5.2a1.32,1.32,0,0,0-.44-.08c-1.39,0-3.1,2-4.5,3.55a16,16,0,0,0-2.62,3.83c-.56,1.18-1.23,3-1.25,9.79,0,4.26.13,12,.13,12,0,1.57.05,2.51-.13,2.54h0c-.43,0-1.48-4.81-3.6-14-2-8.62-3.48-15-6.27-20.69a27,27,0,0,0-4.67-6.55c-1.29-1.32-3.28-3.1-3.89-3.1a.21.21,0,0,0-.12,0c-.43.36,1.7,3.12,3.07,5.88,1.11,2.23,2.15,5.32,1.6,18.16-.43,10.19-.68,15.37-2.53,19.22-1.64,3.41-3.59,5.53-7.48,9.75-.8.87-1.81,1.91-2.37,1.91a.33.33,0,0,1-.17,0c-.67-.37.2-3.09.54-4.27,3.33-11.76-2.79-23.64-1.34-31.38.08-.42.35-1.73-.13-2a.36.36,0,0,0-.21-.05c-.87,0-2.69,2-3.4,2.85-5.11,6.3-4.86,19-2.53,26.7.25.83.82,2.58.26,2.94a.41.41,0,0,1-.25.07c-1.14,0-4.12-3-6-5.41-2.26-2.84-6.7-8.43-6.75-14.84,0-.66,0-1.6-.33-1.72h-.08c-1,0-4,5.93-5.66,9.89-2.89,6.76-3.82,11.49-5,11.49h0c-.51-.05-.73-.92-1.2-2.14-.69-1.77-2.11-3.81-4.94-7.88-5.09-7.31-5.31-5.25-8.15-9.74-.34-.54-1-1.59-1.87-1.61h0c-1.34,0-2.4,2.39-3.18,4.28-3.51,8.51-4.17,14.13-5.34,14.15h0c-.61,0-.79-1.54-2.13-4.94a38.66,38.66,0,0,0-6.16-10.43c-2.25-2.65-3.36-3.06-4.08-3.06h-.17c-1.33.12-2.28,1.35-3.21,2.81-2.79,4.41-3.25,7.57-4.27,9.88-2,4.51-5,3.25-14.82,10.28-7.85,5.64-8.46,8.3-12.68,8.54-.2,0-.4,0-.59,0-3,0-5.1-1.33-7.14-1.33a4.15,4.15,0,0,0-2,.51c-.85.46-1.83,1.33-3.61,6.68-2.86,8.64-2.74,13.71-6.67,16.69a2.5,2.5,0,0,1-1.37.67h-.1c-2.89-.36-5.56-11.89-4.67-21.9.13-1.49.32-2.75-.14-2.94a.3.3,0,0,0-.14,0c-1.53,0-7.36,7.78-10.49,17.07-1.08,3.21-1.32,5.05-2.18,5.12h0c-2,0-4.7-9.15-5.7-17-1.5-11.8.32-25.73,3.88-31.78.3-.52,1.12-1.82.8-2.13a.33.33,0,0,0-.25-.08c-1.14,0-5.06,2.51-7.76,6.08-.3.4-4.9,6.65-4.14,14.42a13.82,13.82,0,0,1,.26,2.67h0c-.36,0-2.77-5.92-3.73-11.62-2.17-12.8,2.36-27.9,9.65-34.67,1-.9,4.87-4.33,4.37-5.07a.43.43,0,0,0-.38-.14,6,6,0,0,0-1,.14,15.37,15.37,0,0,1-2.64.24c-.74,0-1.33,0-2,0a8.43,8.43,0,0,0-1.18.07,13.79,13.79,0,0,0-9.7,7.3c-1,2-.92,3.38-1.33,3.38h0c-.91,0-2.38-6.6-1.52-13.61.64-5.22,1.84-4.71,2.94-11.67.92-5.78,1.38-8.67.45-12.46-.6-2.43-1.54-4.28-.8-4.89a.74.74,0,0,1,.52-.17c1,0,2.84,1.29,4.82,2.39,3,1.69,8.7,4.25,12.52,4.25a4.4,4.4,0,0,0,2.79-.78c2.09-1.67,0-5.16,0-13.17,0-2.89.2-15.34,5-17.62a2.52,2.52,0,0,1,1.12-.27c2.94,0,5.57,5.51,14.9,8.28,2.52.74,5.24,1.23,6.59,3.56.92,1.59.38,2.63.71,6.41.39,4.48.62,7,2.32,8.36a5.06,5.06,0,0,0,3.16.93,12.81,12.81,0,0,0,7.34-2.71c2.89-2.27,2.26-4.18,5.16-5.87a10.35,10.35,0,0,1,5.27-1.3,18.07,18.07,0,0,1,2.74.23c2.4.36,4.32,1.27,7.3,2.67,3.21,1.52,3.27,2,4.63,2.14a8.49,8.49,0,0,0,.88.05,9.09,9.09,0,0,0,6.77-3.26c2.26-2.75.71-4.65,3-8.19a12.78,12.78,0,0,1,5.52-4.62,10,10,0,0,1,3.92-.77c1.61,0,3,.32,4.1.32a2.69,2.69,0,0,0,2.13-.8c1.39-1.5-.15-3.24,1.24-8,.52-1.77,1-3.42,2.32-4.63a7.39,7.39,0,0,1,5.17-1.66m0-1.35a8.55,8.55,0,0,0-6.09,2c-1.59,1.46-2.15,3.38-2.69,5.24a16.63,16.63,0,0,0-.68,5.72c0,1.15,0,1.45-.26,1.75a1.36,1.36,0,0,1-1.14.37,13.9,13.9,0,0,1-1.53-.13,21,21,0,0,0-2.57-.19,11.34,11.34,0,0,0-4.44.87,14,14,0,0,0-6.13,5.13,11,11,0,0,0-1.74,4.91,5.53,5.53,0,0,1-1.2,3.17,7.83,7.83,0,0,1-5.73,2.76,5.53,5.53,0,0,1-.71,0,3.29,3.29,0,0,1-1.46-.59c-.59-.33-1.4-.78-2.76-1.43-3.06-1.44-5.08-2.4-7.68-2.78a18.53,18.53,0,0,0-2.94-.25,11.7,11.7,0,0,0-6,1.48,8.14,8.14,0,0,0-3.16,3.36,8.06,8.06,0,0,1-2.16,2.62,11.43,11.43,0,0,1-6.5,2.42,3.85,3.85,0,0,1-2.34-.64c-1.23-1-1.44-3.39-1.79-7.42-.12-1.35-.12-2.34-.13-3.13a6.74,6.74,0,0,0-.76-3.84c-1.45-2.51-4.1-3.25-6.43-3.91-.32-.09-.63-.17-.94-.27a28.19,28.19,0,0,1-10.46-5.79c-1.75-1.42-3.13-2.54-4.83-2.54a3.88,3.88,0,0,0-1.7.4c-5,2.39-5.75,12.83-5.75,18.84a53,53,0,0,0,.63,8c.37,2.66.45,3.71-.13,4.17a3.19,3.19,0,0,1-1.94.48c-3.15,0-8.36-2.11-11.86-4.07l-1.43-.83c-1.62-1-2.91-1.74-4-1.74a2.17,2.17,0,0,0-1.39.48c-1.21,1-.73,2.58-.17,4.41.17.56.36,1.19.53,1.85.86,3.52.45,6.15-.47,11.92a28.25,28.25,0,0,1-1.63,6.36,20.23,20.23,0,0,0-1.32,5.35c-.76,6.27.22,12.95,1.59,14.52a1.63,1.63,0,0,0,1.25.61c1.26,0,1.58-1.19,1.77-1.9a11.5,11.5,0,0,1,.79-2.23,12.37,12.37,0,0,1,8.68-6.56,7.86,7.86,0,0,1,1-.06l.85,0c.35,0,.71,0,1.12,0s.91,0,1.39-.06c-.55.55-1.29,1.27-2.32,2.21l-.37.34c-7.83,7.26-12.25,23-10.07,35.88a52,52,0,0,0,2.14,8.17c1.54,4.37,2.06,4.58,2.92,4.58h.17l.17-.05c1.27-.32,1.09-1.57.93-2.68-.07-.43-.14-.92-.19-1.43-.71-7.32,3.69-13.22,3.87-13.47a20.84,20.84,0,0,1,4.36-4.23c-3.35,6.86-4.86,20.27-3.43,31.49,0,.18,2.43,18.14,7,18.14h.15c1.55-.12,2-1.65,2.65-3.77.2-.66.42-1.41.71-2.26a47.31,47.31,0,0,1,8.18-15l0,.38c-.8,9,1.31,22.8,5.86,23.36h.26a3.67,3.67,0,0,0,2.18-.95c3.09-2.33,4-5.69,5.15-10.35.52-2,1.12-4.34,2-7,1.74-5.24,2.6-5.71,3-5.91a2.74,2.74,0,0,1,1.37-.35,9.4,9.4,0,0,1,2.5.51,15.49,15.49,0,0,0,4.64.82c.22,0,.44,0,.66,0,3.09-.18,4.61-1.51,7.11-3.72a71.15,71.15,0,0,1,6.29-5.07,59.82,59.82,0,0,1,9.29-5.55c2.81-1.4,4.66-2.31,6-5.29a26.35,26.35,0,0,0,.91-2.48,29.9,29.9,0,0,1,3.27-7.22c.7-1.09,1.44-2.12,2.18-2.18h.06c.21,0,1,.18,3.05,2.59a37.15,37.15,0,0,1,5.94,10c.46,1.19.78,2.13,1,2.89.57,1.69,1,2.91,2.34,2.91,1.63,0,2.13-1.67,3.23-5.29a99.43,99.43,0,0,1,3.37-9.7c1.07-2.61,1.66-3.27,1.93-3.42a3.52,3.52,0,0,1,.73.92,15.89,15.89,0,0,0,3.22,3.9,29.65,29.65,0,0,1,5,5.93c2.77,4,4.16,6,4.79,7.6.08.2.15.4.22.58.41,1.12.84,2.29,2.11,2.41h.17c1.69,0,2.32-1.76,3.7-5.63.66-1.83,1.47-4.11,2.57-6.67a74.08,74.08,0,0,1,3.55-7.28c.62,6.27,4.86,11.6,7,14.26.79,1,4.82,5.92,7.08,5.92a1.77,1.77,0,0,0,1-.29c1.37-.89.77-2.87.33-4.32l0-.14c-2.4-7.94-2.2-19.93,2.29-25.46a17.94,17.94,0,0,1,1.28-1.4c-.5,3.39.23,7.39,1,11.61,1.08,5.92,2.3,12.63.45,19.15l-.1.35c-.66,2.27-1.34,4.62.22,5.47a1.63,1.63,0,0,0,.81.21c1,0,2-.83,3.36-2.35,4-4.31,6-6.48,7.7-10.07,2-4.19,2.25-9.72,2.67-19.76.53-12.53-.43-16.07-1.6-18.52a24.54,24.54,0,0,1,3.05,4.64c2.79,5.67,4.36,12.5,6.17,20.4l.54,2.39c.87,3.77,1.55,6.75,2.05,8.72.69,2.72,1,4,2.32,4h.11l.12,0c1.33-.21,1.31-1.34,1.26-3.82v-.07c0-.32-.14-7.81-.13-12,0-6.88.73-8.39,1.12-9.21a14.82,14.82,0,0,1,2.41-3.52l.1-.11c.86-1,2.64-3,3.39-3a5.33,5.33,0,0,1,.46,1.09,7.16,7.16,0,0,0,2.7,4,6.42,6.42,0,0,0,3.42,1.13,2.65,2.65,0,0,0,2.08-.81c1.1-1.24.36-3-.24-4.36l-.06-.14c-1.34-3.13-2.16-6.22-3.81-12.37a25.68,25.68,0,0,1-.9-4.48h0a2.8,2.8,0,0,0,1.34.46,1.46,1.46,0,0,0,1.1-.48c1-1.08.06-2.54-1.89-4.69-2.84-3.15-5.77-6.41-10.24-8.31a10,10,0,0,1,3.49-.8H283a13.08,13.08,0,0,1,2.22.22,8,8,0,0,0,1.18.14,1.72,1.72,0,0,0,1.62-.88c.78-1.44-.78-2.87-1.92-3.92l0,0a24.23,24.23,0,0,1-3.79-4.15,22.42,22.42,0,0,0-3.88-4.23c-1.78-1.59-3.31-2.73-4.54-3.65s-2.66-2-2.59-2.43c0-.17.55-.62,1.06-1.05a14.6,14.6,0,0,1,8.56-3.28,10.2,10.2,0,0,1,2.35.27,15.82,15.82,0,0,1,1.74.55,4.33,4.33,0,0,0,1.43.36,1.51,1.51,0,0,0,1.31-.7c.81-1.29-.61-2.57-1.64-3.51-1.2-1.09-2.59-2.14-3-2.44a34.8,34.8,0,0,0-14.23-6.77,44.24,44.24,0,0,0-8.68-.77,69.5,69.5,0,0,0-10.13.76l-.83.13a25.8,25.8,0,0,1-3.59.42,3.43,3.43,0,0,1-.9-.09,9.15,9.15,0,0,1,1.11-1.92,11.55,11.55,0,0,1,3.43-3.15,8.34,8.34,0,0,0,3.46-3.66c.66-1.47,1.33-4.36-.34-5.83a3,3,0,0,0-2-.71,7.37,7.37,0,0,0-2.13.39l-.12,0a11.82,11.82,0,0,1-3.41.42c-1,0-2-.07-3.09-.15s-2.18-.15-3.28-.15h-.56c-2,.05-4,.07-6,.07-10.88,0-18.18-.77-18.25-.78l-.21,0a29,29,0,0,0-3.13-.22Z" transform="translate(-55.9 -121.03)"/><path class="cls-7" d="M73.9,526.77a184.49,184.49,0,0,1-12.6-67.42V350.72l1-.29a223.1,223.1,0,0,0,21.95-7.78l1.5-.63a66.45,66.45,0,0,1,13.34-4.43c4.49-.94,7.67-1.1,22.64-1.1l11.68,0c8.87,0,9.88-.14,12.11-1a29.85,29.85,0,0,0,6.3-3.39,40.13,40.13,0,0,1,9.39-4.81,55.84,55.84,0,0,1,13.48-2.91,287.18,287.18,0,0,1,32.76-2.25,160,160,0,0,1,22.77,1.54l.31,0a33,33,0,0,0,4.84.45,11.34,11.34,0,0,0,7-2,9.67,9.67,0,0,0,3.19-4.53c.76-1.76,1.54-3.57,3.71-4.81a7.36,7.36,0,0,1,3.8-1c2.75,0,5.66,1.24,9.33,2.81,2,.86,4.32,1.84,6.84,2.7,4.49,1.52,10.62,2.06,22.83,3.14,7,.61,18.23.95,31.52.95H329l3.88,0L74.56,528.48Z" transform="translate(-55.9 -121.03)"/><path class="cls-4" d="M253.06,313.18c4,0,8.84,3.09,15.74,5.44,4.64,1.57,10.81,2.12,23.14,3.2,6.75.59,17.56,1,31.64,1H329L75.15,526.28a184,184,0,0,1-12.5-66.93V351.72a223.41,223.41,0,0,0,22.08-7.83c4.5-1.87,8.39-3.68,14.59-5,4.34-.91,7.4-1.07,22.39-1.07h1.82l9.85,0c8.76,0,10.08-.13,12.58-1.09,6.24-2.38,7.51-5.24,15.67-8.19a54.8,54.8,0,0,1,13.17-2.84,283.86,283.86,0,0,1,32.61-2.24A159.9,159.9,0,0,1,230,325a36.41,36.41,0,0,0,5.34.51,12.78,12.78,0,0,0,7.83-2.29c4.18-3.1,3.18-7.19,6.77-9.25a6.1,6.1,0,0,1,3.13-.81m0-2.7h0a8.84,8.84,0,0,0-4.48,1.17,10.23,10.23,0,0,0-4.27,5.44,8.54,8.54,0,0,1-2.76,4,10.11,10.11,0,0,1-6.22,1.75,32.64,32.64,0,0,1-4.65-.43l-.31,0a162.6,162.6,0,0,0-23-1.55,289.25,289.25,0,0,0-32.9,2.25,57.29,57.29,0,0,0-13.8,3A41.52,41.52,0,0,0,151,331a28.65,28.65,0,0,1-6,3.26c-2,.78-3,.91-11.62.91H121.71c-15.11,0-18.33.16-22.94,1.13a67.79,67.79,0,0,0-13.58,4.5l-1.5.63a224.73,224.73,0,0,1-21.81,7.74l-1.93.57V459.35a185.82,185.82,0,0,0,12.69,67.91L74,530.69l2.87-2.3L330.71,324.87l6.06-4.85-7.76.05h-5.43c-13.25,0-24.4-.33-31.4-.95-12.1-1.06-18.18-1.6-22.51-3.07-2.48-.84-4.75-1.81-6.75-2.67-3.67-1.56-6.83-2.91-9.86-2.91Z" transform="translate(-55.9 -121.03)"/><path class="cls-12" d="M103.91,579.66a184.37,184.37,0,0,1-25.83-39.84c-1.9-4-3.73-8.18-5.44-12.56l-.72-1.84L535.33,153.93v81.24L105.62,581.69Z" transform="translate(-55.9 -121.03)"/><path class="cls-4" d="M532.62,159.55v74.33L106,577.93a182,182,0,0,1-25.47-39.28c-2-4.06-3.72-8.19-5.36-12.37L532.62,159.55M538,148.3l-8.77,7L71.78,522.07l-3.1,2.48,1.44,3.7c1.74,4.44,3.6,8.73,5.53,12.74a186.51,186.51,0,0,0,26.2,40.41l3.4,4.05,4.12-3.32L536,238.08l2-1.62V148.3Z" transform="translate(-55.9 -121.03)"/><text class="cls-13" transform="translate(52.52 438.77) rotate(-38.63)">U</text><text class="cls-13" transform="translate(82.23 415.02) rotate(-38.63)">.</text><text class="cls-13" transform="translate(93.66 405.88) rotate(-38.63)">D</text><text class="cls-13" transform="translate(123.35 382.15) rotate(-38.63)">.</text><text class="cls-13" transform="matrix(0.78, -0.62, 0.62, 0.78, 134.79, 373.01)"> </text><text class="cls-13" transform="matrix(0.78, -0.62, 0.62, 0.78, 146.21, 363.88)">S</text><text class="cls-13" transform="matrix(0.78, -0.62, 0.62, 0.78, 173.65, 341.95)">A</text><text class="cls-13" transform="matrix(0.78, -0.62, 0.62, 0.78, 203.35, 318.21)">N</text><text class="cls-13" transform="translate(233.06 294.46) rotate(-38.63)"> </text><text class="cls-13" transform="matrix(0.78, -0.62, 0.62, 0.78, 244.48, 285.34)">F</text><text class="cls-13" transform="translate(269.6 265.26) rotate(-38.63)">E</text><text class="cls-13" transform="translate(297.04 243.33) rotate(-38.63)">R</text><text class="cls-13" transform="translate(326.76 219.58) rotate(-38.63)">N</text><text class="cls-13" transform="translate(356.44 195.85) rotate(-38.63)">A</text><text class="cls-13" transform="translate(386.16 172.1) rotate(-38.63)">N</text><text class="cls-13" transform="matrix(0.78, -0.62, 0.62, 0.78, 415.86, 148.36)">D</text><text class="cls-13" transform="translate(445.56 124.62) rotate(-38.63)">O</text><path class="cls-4" d="M506.87,127.78a40,40,0,0,0-.45,5.87c0,14.31,7.38,25.9,16.48,25.9,3.64,0,7-1.88,9.72-5V459.35a182.89,182.89,0,0,1-17.86,79.3c-14.62,30.4-33.81,50.9-65.69,79-21.19,18.7-44.62,33.18-83.66,57.31-26.07,16.11-49.22,29.14-67.77,39.11-18.55-10-41.71-23-67.77-39.11-39.05-24.13-62.48-38.61-83.66-57.31-31.89-28.14-51.08-48.64-65.7-79a183,183,0,0,1-17.86-79.3V154.53c2.73,3.14,6.08,5,9.72,5,9.1,0,16.48-11.59,16.48-25.9a40,40,0,0,0-.44-5.87H506.87m0-6.75H88.41a6.75,6.75,0,0,0-6.68,7.73,33,33,0,0,1,.37,4.89c0,11-5.13,19.15-9.73,19.15-1.88,0-3.55-1.46-4.62-2.69a6.75,6.75,0,0,0-11.85,4.42V459.35a190.81,190.81,0,0,0,18.53,82.22c15.28,31.79,35.45,53.06,67.31,81.18,21.61,19.08,45.31,33.72,84.58,58,22.26,13.76,45.18,27,68.12,39.32a6.84,6.84,0,0,0,3.2.8,6.77,6.77,0,0,0,3.19-.8c22.95-12.33,45.86-25.56,68.12-39.32,39.27-24.27,63-38.91,84.59-58,31.86-28.12,52-49.39,67.31-81.18a190.8,190.8,0,0,0,18.52-82.22V154.53a6.74,6.74,0,0,0-11.84-4.42c-1.07,1.23-2.74,2.69-4.63,2.69-4.59,0-9.73-8.19-9.73-19.15a34.4,34.4,0,0,1,.37-4.89,6.74,6.74,0,0,0-6.67-7.73Z" transform="translate(-55.9 -121.03)"/></svg>