<svg id="Capa_1" data-name="Capa 1" xmlns="http://www.w3.org/2000/svg" viewBox="0 0 425.88 786.45"><defs><style>.cls-1,.cls-3,.cls-5{fill:#1f140f;}.cls-11,.cls-12,.cls-2{fill:#fff;}.cls-2,.cls-7,.cls-8{stroke:#000;}.cls-11,.cls-14,.cls-2,.cls-4,.cls-7,.cls-8{stroke-miterlimit:10;}.cls-2{stroke-width:3.99px;}.cls-3{font-size:77.17px;font-family:Arial-BoldMT, Arial;font-weight:700;}.cls-4,.cls-9{fill:#e76114;}.cls-14,.cls-4{stroke:#1f140f;}.cls-4{stroke-width:1.36px;}.cls-5{fill-rule:evenodd;}.cls-6{fill:#004a94;}.cls-7{fill:#b0814e;}.cls-7,.cls-8{stroke-width:1px;}.cls-8{fill:#4da92c;}.cls-10{fill:#e4472e;}.cls-11{stroke:#fff;stroke-width:1.64px;}.cls-13{fill:#ffe200;}.cls-14{fill:none;stroke-width:5.32px;}</style></defs><path class="cls-1" d="M297.64,34.37c113.93,0,206.29,92.36,206.29,206.29a205.37,205.37,0,0,1-30.19,107.49l-.37.59q-1.94,3.13-4,6.19h15.94V624.6h0c0,2.13-.05,4.24-.12,6.35l-.06,1.5q-.25,5.87-.88,11.62c0,.51-.11,1-.17,1.51-.15,1.29-.32,2.58-.5,3.87-.07.55-.15,1.09-.23,1.64-.2,1.34-.42,2.67-.65,4l-.21,1.27c-.32,1.77-.66,3.54-1,5.29v0q-.56,2.57-1.17,5.12c-.11.43-.22.85-.32,1.28-.33,1.31-.67,2.62-1,3.93-.13.45-.25.9-.38,1.36-.39,1.39-.81,2.78-1.23,4.16l-.27.88c-1.27,4-2.69,8-4.23,11.9l-.23.6q-1.31,3.25-2.72,6.43c-.12.26-.23.52-.35.77q-1.46,3.24-3,6.42a1.09,1.09,0,0,0-.08.15,181.49,181.49,0,0,1-9,15.86c-.14.23-.29.46-.44.69-.81,1.27-1.64,2.54-2.49,3.79l-.48.71c-1,1.42-1.95,2.83-3,4.22l0,0q-3.16,4.38-6.58,8.55l-.46.56q-1.47,1.79-3,3.53l-.52.6q-5.28,6-11.08,11.61l-.44.43q-1.72,1.63-3.49,3.24L425,759q-6,5.4-12.48,10.3l-.41.3q-2,1.47-3.93,2.88l-.55.39q-4.85,3.42-9.93,6.55l-.37.23q-5.59,3.42-11.42,6.45l-.51.27q-5.77,3-11.79,5.58l-.69.3c-2,.83-3.94,1.65-5.93,2.42l0,0q-3,1.17-6.1,2.23l-.91.31c-2,.68-4,1.34-6,2l-.13,0c-2,.63-4.1,1.21-6.18,1.77l-1.13.3c-2,.52-4,1-6,1.48l-.21,0c-2.07.47-4.16.89-6.26,1.3l-1.32.24q-3,.57-6.09,1l-.24,0c-2.1.32-4.21.59-6.33.83l-1.48.17c-2.07.22-4.15.42-6.23.58l-.2,0c-2.13.16-4.27.27-6.42.36l-1.59.06c-2.16.07-4.32.12-6.5.12h0c-2.18,0-4.35,0-6.51-.12l-1.59-.06c-2.15-.09-4.29-.2-6.42-.36l-.19,0c-2.09-.16-4.16-.36-6.23-.58l-1.49-.17c-2.12-.24-4.23-.51-6.32-.83l-.25,0c-2-.31-4.06-.65-6.08-1l-1.33-.24c-2.1-.41-4.18-.83-6.25-1.3l-.21,0c-2-.46-4-1-6-1.48l-1.14-.3c-2.07-.56-4.13-1.14-6.17-1.77l-.14,0c-2-.61-4-1.27-6-1.94l-.92-.32q-3.07-1.07-6.09-2.23l-.05,0q-3-1.17-5.92-2.42l-.7-.3q-6-2.6-11.78-5.58l-.52-.27c-3.88-2-7.69-4.17-11.4-6.45l-.39-.23c-1.88-1.16-3.73-2.34-5.57-3.56h0c-1.47-1-2.92-2-4.35-3l-.56-.4c-1.32-.93-2.62-1.89-3.92-2.86l-.42-.32q-6.47-4.87-12.47-10.29l-.54-.49q-1.76-1.59-3.46-3.23l-.46-.43q-3.91-3.76-7.6-7.74h0c-1.17-1.27-2.32-2.56-3.46-3.85l-.53-.62q-1.51-1.74-3-3.51l-.48-.58q-3.41-4.17-6.58-8.53l0,0q-1.51-2.08-2.95-4.21l-.49-.72c-.84-1.25-1.67-2.5-2.48-3.77l-.45-.7q-2.88-4.54-5.49-9.26h0c-1.2-2.17-2.36-4.36-3.47-6.59l-.08-.16c-1.06-2.11-2.06-4.25-3-6.41-.11-.25-.23-.51-.34-.77q-1.42-3.18-2.72-6.42l-.24-.61q-1.32-3.35-2.52-6.75h0q-.89-2.55-1.7-5.15c-.1-.29-.18-.59-.27-.89-.43-1.38-.84-2.76-1.23-4.15l-.39-1.37c-.35-1.3-.69-2.6-1-3.91-.11-.43-.22-.86-.32-1.29-.41-1.7-.81-3.39-1.17-5.11v0c-.37-1.75-.71-3.52-1-5.29-.08-.42-.15-.85-.22-1.27-.23-1.33-.44-2.65-.64-4l-.24-1.66c-.18-1.28-.34-2.56-.49-3.85l-.18-1.52c-.19-1.76-.36-3.53-.5-5.3v0h0c-.17-2.09-.28-4.19-.37-6.3,0-.5,0-1-.06-1.51-.08-2.1-.13-4.21-.13-6.33h0V354.93h15.93q-4-6-7.63-12.36l-.54-1A205.36,205.36,0,0,1,91.35,240.66c0-113.93,92.36-206.29,206.29-206.29m0-6.65A213,213,0,0,0,111.9,344.85l.21.37.35.64,1.4,2.41H103.29V624.69h0c0,1.95,0,4,.13,6.48l.06,1.56c.1,2.34.22,4.39.36,6.27v0l0,.27h0v.18h0c.13,1.63.3,3.37.51,5.3l.12,1.08.06.49c.16,1.38.34,2.73.51,4,.08.57.16,1.15.25,1.72.2,1.31.42,2.7.66,4.12l.08.47.15.86c.35,2,.7,3.75,1.07,5.48v.1c.34,1.6.73,3.33,1.19,5.23.07.31.15.61.23.92l.11.42c.34,1.38.7,2.75,1.06,4.06l.39,1.42c.4,1.41.83,2.86,1.28,4.31l.1.34.18.59c.54,1.69,1.08,3.33,1.62,4.89l.08.43.21.42c.75,2.1,1.56,4.26,2.47,6.59l.09.23.16.4c.86,2.16,1.81,4.41,2.82,6.67l.36.8c1.06,2.35,2.09,4.53,3.15,6.64l.08.16c1.16,2.33,2.37,4.63,3.6,6.84,1.76,3.2,3.68,6.43,5.69,9.61l.31.48.15.24c.84,1.31,1.71,2.63,2.58,3.91l.16.24.34.51c1.06,1.56,2.06,3,3,4.33h0l0,.05c2.15,3,4.45,5.95,6.82,8.86l.31.37.18.22c1,1.22,2,2.44,3.08,3.64l.15.17.4.47c1.25,1.42,2.41,2.71,3.55,3.95l0,0,.05.07c2.47,2.67,5.12,5.36,7.84,8l.3.28.17.17c1.17,1.11,2.38,2.24,3.59,3.34l.14.13.42.37c4.13,3.73,8.48,7.31,12.91,10.66l.27.21.17.12c1.32,1,2.68,2,4.06,3l.14.1.43.31c1.54,1.08,3,2.08,4.41,3l.09.06.08.06h0c1.82,1.2,3.72,2.42,5.66,3.61l.26.16.14.09c3.86,2.35,7.83,4.6,11.81,6.67l.35.18.19.1c4,2.06,8.09,4,12.19,5.77l.47.21.26.1c2.18.94,4.19,1.76,6.13,2.51l.07,0c2,.76,4,1.52,6.28,2.3l.67.23.28.1c2.23.76,4.25,1.42,6.18,2l.15,0c2,.61,4.08,1.2,6.38,1.82l1,.26.21,0c2.25.59,4.28,1.09,6.22,1.53l.22.06c2,.45,4.11.89,6.47,1.34l1.38.26c2.29.42,4.35.77,6.29,1.06l.25,0c2,.3,4.12.58,6.55.86L276,813c2.37.26,4.48.46,6.44.6l.2,0c2,.15,4.15.27,6.64.37.55,0,1.09,0,1.64.06,2.57.09,4.7.13,6.73.13s4.16,0,6.72-.13L306,814c2.48-.1,4.66-.22,6.64-.37l.21,0c1.94-.14,4.05-.34,6.43-.6l1.54-.17c2.42-.28,4.56-.56,6.55-.86l.23,0c2-.29,4-.64,6.31-1.06l1.38-.26c2.36-.45,4.48-.89,6.47-1.34l.21,0c1.94-.44,4-1,6.23-1.54l.23-.06.94-.25c2.31-.62,4.4-1.21,6.39-1.82l.17-.06c1.91-.58,3.93-1.24,6.16-2l.27-.1.67-.23c2.25-.78,4.32-1.54,6.31-2.31h0l0,0c1.91-.74,3.92-1.56,6.11-2.5l.25-.1.47-.2c4.1-1.78,8.21-3.72,12.2-5.78l.2-.1L389,792c4-2.08,8-4.33,11.82-6.69l.14-.08.25-.16c3.47-2.13,6.93-4.41,10.28-6.78l.4-.28.16-.12c1.38-1,2.75-2,4.08-3l.16-.12.26-.19c4.44-3.35,8.78-6.94,12.92-10.67l.38-.34.16-.15c1.23-1.11,2.44-2.24,3.61-3.36l.17-.16.29-.28c4-3.82,7.84-7.87,11.48-12l.38-.44.16-.18c1-1.21,2.08-2.44,3.09-3.66l.17-.21.31-.37c2.38-2.91,4.68-5.89,6.82-8.85l0,0,0,0c1-1.33,2-2.76,3.05-4.34l.34-.5.15-.24c.88-1.29,1.74-2.61,2.59-3.93l.14-.23.31-.48a188,188,0,0,0,9.3-16.44l.08-.17c1.06-2.11,2.09-4.29,3.15-6.65L476,700c1-2.27,1.95-4.51,2.82-6.67l.15-.4.09-.22c1.62-4.1,3.09-8.25,4.38-12.35l.18-.58.1-.33c.45-1.45.88-2.9,1.28-4.32.14-.47.27-.94.4-1.41.36-1.33.72-2.7,1.06-4.08l.11-.41c.07-.31.15-.61.22-.91.47-1.92.86-3.65,1.21-5.28V663c.37-1.74.71-3.53,1.07-5.49.05-.28.09-.57.14-.85l.08-.47c.25-1.45.47-2.81.67-4.14l.24-1.7c.18-1.28.35-2.63.51-4l.06-.48c0-.36.09-.72.13-1.09.42-3.93.73-8,.91-12l.06-1.56c.08-2.51.13-4.6.13-6.58V348.27H481.42A212.88,212.88,0,0,0,297.64,27.72Z" transform="translate(-84.7 -27.72)"/><path class="cls-2" d="M210.84,315.86c-2.31.06-4.69.18-7.11.33a201.74,201.74,0,0,0-31.84,4.6,205.6,205.6,0,0,0-54.19,20.8l.54,1A207.25,207.25,0,0,0,167,400.27c1,.79,1.92,1.56,2.89,2.33,12.77-12.33,32.23-35.56,40-70.27.68-3,1.22-6,1.67-8.88.31-2,.59-3.94.8-5.86C211.83,317,211.34,316.44,210.84,315.86Z" transform="translate(-84.7 -27.72)"/><path class="cls-2" d="M380.34,338.22c-.69-3-1.22-6-1.67-8.89-.35-2.18-.65-4.33-.88-6.42-1.8,1.76-3.67,3.46-5.59,5.1a114.8,114.8,0,0,1-155.3-5.66c-1.56-1.54-3.09-3.13-4.56-4.76-.21,1.92-.49,3.88-.8,5.86-.45,2.9-1,5.85-1.67,8.88-7.8,34.71-27.26,57.94-40,70.27a206.31,206.31,0,0,0,249.35,4.74C406.43,394.74,387.9,371.87,380.34,338.22Z" transform="translate(-84.7 -27.72)"/><path class="cls-2" d="M297.64,34.37c-113.93,0-206.29,92.36-206.29,206.29A205.36,205.36,0,0,0,117.7,341.59a205.6,205.6,0,0,1,54.19-20.8,201.74,201.74,0,0,1,31.84-4.6c2.42-.15,4.8-.27,7.11-.33-1.57-1.81-3.08-3.65-4.53-5.55A114.88,114.88,0,1,1,384,316.38c-1.61,1.83-3.25,3.62-5,5.35,2.42.06,4.92.18,7.46.35a200.22,200.22,0,0,1,31.83,4.59,206.52,206.52,0,0,1,55.43,21.48,205.37,205.37,0,0,0,30.19-107.49C503.93,126.73,411.57,34.37,297.64,34.37Z" transform="translate(-84.7 -27.72)"/><path class="cls-2" d="M418.31,326.67a200.22,200.22,0,0,0-31.83-4.59c-2.54-.17-5-.29-7.46-.35-.4.4-.82.78-1.23,1.18.23,2.09.53,4.24.88,6.42.45,2.9,1,5.86,1.67,8.89,7.56,33.65,26.09,56.52,38.85,69.12,1.16-.85,2.32-1.71,3.46-2.59a207.2,207.2,0,0,0,50.72-56l.37-.59A206.52,206.52,0,0,0,418.31,326.67Z" transform="translate(-84.7 -27.72)"/><text class="cls-3" transform="translate(92.49 275.38) rotate(-105.8)">R</text><text class="cls-3" transform="translate(77.38 222.44) rotate(-82.27)">A</text><text class="cls-3" transform="matrix(0.52, -0.85, 0.85, 0.52, 84.63, 168)">C</text><text class="cls-3" transform="translate(117.72 119.9) rotate(-40.79)">I</text><text class="cls-3" transform="matrix(0.92, -0.39, 0.39, 0.92, 135.1, 102.04)">N</text><text class="cls-3" transform="translate(185.57 80.35) rotate(0.46)">G</text><text class="cls-3" transform="translate(247.16 84.62) rotate(19.64)"> </text><text class="cls-3" transform="matrix(0.79, 0.61, -0.61, 0.79, 271.19, 90.92)">C</text><text class="cls-3" transform="matrix(0.51, 0.86, -0.86, 0.51, 315.07, 125.61)">L</text><text class="cls-3" transform="translate(339.97 165.95) rotate(81.57)">U</text><text class="cls-3" transform="translate(348.17 220.42) rotate(105.12)">B</text><path class="cls-4" d="M294.54,357.86c-64.75-1.56-116.14-55.58-114.6-120.31,1.54-64.21,55.46-115.64,120.32-114.06S416.4,179,414.83,243.34C413.31,308,359.37,359.42,294.54,357.86Z" transform="translate(-84.7 -27.72)"/><path class="cls-5" d="M414.86,235.68a112.49,112.49,0,0,0-2.61-20.08,118.52,118.52,0,0,0-29.85-55.69,117.19,117.19,0,0,0-60-33.85l-.7-.15a108.29,108.29,0,0,0-21.5-2.49,116.76,116.76,0,0,0-83.92,32.49A123.36,123.36,0,0,0,202.94,171a113.09,113.09,0,0,0-10.46,17.32,115.25,115.25,0,0,0-6.23,15,116.83,116.83,0,0,0-5.94,34.24,111,111,0,0,0,.46,13.56,116.09,116.09,0,0,0,31.56,70.25,117.57,117.57,0,0,0,60,33.88l.7.16a110.13,110.13,0,0,0,21.52,2.47,117.81,117.81,0,0,0,119.85-106c.28-2.76.46-5.66.55-8.56C415,240.72,415.05,238.22,414.86,235.68Zm-38.64-70.3a65.53,65.53,0,0,1,7.68,9.07c-9.69-2.58-18.08-1.45-25.21,3.1s-12.31,12.1-15.91,23.25c-.81,2.32-1.47,4.9-2.15,7.59-14.71-3-25.66-1.71-33.23,4.43a7,7,0,0,0-1,.82,26.56,26.56,0,0,0-8.32,13.49A62.24,62.24,0,0,0,296.37,246c-10.28-1.27-18.11-4.71-24.52-10.46A40.29,40.29,0,0,1,261.3,219.3a63.79,63.79,0,0,1-2.85-11.06c.9-1.79,1.79-3.59,2.67-5.28a122.21,122.21,0,0,1,11-17.2C286,167.82,303.21,157,322.86,151.94c5.21-1.29,10.39-2.59,16-2.86a92.54,92.54,0,0,1,16.29-1A104.94,104.94,0,0,1,376.22,165.38Zm-153.94-3.71A109.07,109.07,0,0,1,300,131.73a116.57,116.57,0,0,1,40.39,8.49,5.36,5.36,0,0,1-2.38.44A106.45,106.45,0,0,0,320.7,144c-22.39,6-42,18.63-57.59,39.87a136.73,136.73,0,0,0-10.56,17.29,26.36,26.36,0,0,0-1.43,2.73c-7.36-1.26-13.28-3.46-18.38-7a37,37,0,0,1-4.72-3.83c-4.67-4.52-7.83-10.86-9.78-18.8-.51-2.09-1-4.39-1.29-6.75h-.42C218.38,165.76,220.34,163.46,222.28,161.67Zm-27.84,43.39A99.19,99.19,0,0,1,201,190.15a106.63,106.63,0,0,1,9.33-14.82,49.55,49.55,0,0,0,7.56,18.42,38.92,38.92,0,0,0,4.43,5.24c7.37,7.19,16.56,11.56,28.64,13.28a48.1,48.1,0,0,0,1.2,5.06c2.85,10.23,7.77,18.48,14.44,24.59,8.25,7.2,18.89,11.76,32.82,12.54,5.47,6.18,8.57,11.86,9.88,18.4a24.55,24.55,0,0,1,.35,5.71,39.67,39.67,0,0,1-4.19,14.77c-30.32,1.62-52.12-5-69.58-17.61A102.2,102.2,0,0,1,218,259.08c-9.8-11.39-18.4-25.44-27-41.79A106.87,106.87,0,0,1,194.44,205.06Zm120,121.66c-.12,7.92-4.07,15.75-11.7,23-2.39,0-5.19-.07-7.92-.11a108.53,108.53,0,0,1-76.18-33.67,111.23,111.23,0,0,1-29.64-63,96.68,96.68,0,0,1-.74-15.22c.08-2.26.56-4.58.65-7.38a260.71,260.71,0,0,0,16.58,26.09c7.64,10.29,15.9,19.06,25.58,26.24,18.83,13.52,42.38,20.63,74.68,18.6C312.05,310.34,315.14,318.83,314.4,326.72ZM370.29,315a27.36,27.36,0,0,1-.65,6c0,.44,0,1,0,1l0,.42a109.45,109.45,0,0,1-54.79,25.75c4.8-6.84,7.84-13.8,8-21.3.71-9.79-2.84-19.62-10-30a42.14,42.14,0,0,0,4.87-16.54,32.43,32.43,0,0,0-.46-9.06c-1.24-8-5.26-15.55-12.53-22.72-.59-8,0-14.54,1.58-19.63a20.2,20.2,0,0,1,5.58-9.05,18.47,18.47,0,0,1,8.83-4.19c5.78-1.15,13.07-.54,22,1.66l1.45.51c1.44,1.15,2.84,2.39,4.22,3.72a67.69,67.69,0,0,1,13.67,19.22,79.84,79.84,0,0,1,5.43,15.77c2.73,10.72,3.89,22.46,3.9,35.22C371.36,299.14,371,306.89,370.29,315Zm35.84-64.84A107.36,107.36,0,0,1,391.37,296a116.28,116.28,0,0,1-12.59,16.88c.58-6.55.91-13.09,1-19.34.17-14-1-27.06-4.29-39.15a84.52,84.52,0,0,0-3.51-11.5,77.07,77.07,0,0,0-10.17-18.48,70.16,70.16,0,0,0-13.23-13.46,72.27,72.27,0,0,1,2.31-8.39c3-8.78,7.11-14.79,12.26-17.87,7.13-4.54,16.47-4.23,28.47.72a108,108,0,0,1,11.63,28.29,110.55,110.55,0,0,1,3.13,20.21c.19,3.06.27,6.09.22,9.23C406.49,245.5,406.41,247.88,406.13,250.13Z" transform="translate(-84.7 -27.72)"/><path class="cls-6" d="M440.2,509.53l-31.06,33.33-36.63,39.29-52.76,56.6L278,683.54l-25.84,27.72L192,775.81H403.27A185.61,185.61,0,0,0,463,711.26a180.07,180.07,0,0,0,12.4-27.72,177.7,177.7,0,0,0,9.41-44.79q.56-7,.55-14.15V461.11Z" transform="translate(-84.7 -27.72)"/><rect class="cls-7" x="232.7" y="694.89" width="9.14" height="57.19"/><path class="cls-8" d="M359.44,699.64c0-3-3.28-5.56-7.64-6.14a4.81,4.81,0,0,0,1.54-3.38c0-3.47-4.28-6.27-9.56-6.27,0-3.46-4.28-6.27-9.56-6.27a14,14,0,0,0-4,.6c-1.65-1.86-4.7-3.13-8.23-3.13s-6.58,1.27-8.24,3.13a13.88,13.88,0,0,0-4-.6c-5.28,0-9.56,2.81-9.56,6.27-5.28,0-9.56,2.8-9.56,6.27a4.83,4.83,0,0,0,1.53,3.38c-4.35.58-7.63,3.11-7.63,6.14s3.28,5.55,7.63,6.14a4.83,4.83,0,0,0-1.53,3.38c0,3.46,4.28,6.27,9.56,6.27,0,3.46,4.28,6.26,9.56,6.26a13.89,13.89,0,0,0,4-.59c1.66,1.86,4.71,3.13,8.24,3.13s6.58-1.27,8.23-3.13a14,14,0,0,0,4,.59c5.28,0,9.56-2.8,9.56-6.26,5.28,0,9.56-2.81,9.56-6.27a4.81,4.81,0,0,0-1.54-3.38C356.16,705.19,359.44,702.67,359.44,699.64Z" transform="translate(-84.7 -27.72)"/><path class="cls-9" d="M403.27,775.81H192a191.81,191.81,0,0,0,211.27,0Z" transform="translate(-84.7 -27.72)"/><polygon class="cls-10" points="334.05 525.61 364.46 494.03 389.72 525.61 334.05 525.61"/><polygon class="cls-10" points="369.37 554.85 343.41 581.74 391.12 581.74 369.37 554.85"/><polygon class="cls-10" points="308.56 554.85 280.73 581.74 332.02 581.74 308.56 554.85"/><polygon class="cls-10" points="279.56 626.65 303.18 599.28 324.7 626.65 279.56 626.65"/><polygon class="cls-10" points="343.41 626.65 365.16 599.28 387.85 626.65 343.41 626.65"/><polygon class="cls-10" points="279.56 665.71 300.17 638.34 322.36 665.71 279.56 665.71"/><polygon class="cls-10" points="334.05 665.71 356.98 638.34 378.26 665.71 334.05 665.71"/><path class="cls-11" d="M336.55,773.62a4.57,4.57,0,0,1,.24,2.44c0,.35-.37.53-.72.53s-.66.2-.64.57.35.56.75.53c.6,0,1.21-.05,1.81-.11s.94-.49.87-1.18a40.94,40.94,0,0,1-.53-5.06,2.44,2.44,0,0,0-.75-1.67c-1.53-1.77-2.33-3.76-1.51-6.08.68-2,.41-3.92.27-5.89a2.35,2.35,0,0,0-.92-1.46,10.85,10.85,0,0,0-4.85-2.24,15.78,15.78,0,0,0-7.39.15c-1.37.28-2.71.67-4.07,1a3.73,3.73,0,0,1-1.72-.11,8.79,8.79,0,0,0-2-.46c-.49,0-.86-.34-1.3-.49a18.82,18.82,0,0,1-2.36-1.31.38.38,0,0,1-.16-.17c-.63-1.3-1.85-2.07-2.8-3.08-.3-.32-.63-.63-.95-.94a2.88,2.88,0,0,1-.73-2.4c0-.33-.17-.65,0-1,.06-.14-.12-.2-.24-.13a4.11,4.11,0,0,0-.54.39c-.2.14-.31.5-.65.13-.13-.14-.32.1-.45.21a1.94,1.94,0,0,1-1.78.49,3,3,0,0,0-2.5.41,1.26,1.26,0,0,1-.64.18.63.63,0,0,0-.6.44c-.13.48-.47.48-.85.46-.64,0-1.29-.05-1.94-.06s-.76.25-.84.76c-.26,1.61.05,3,1.71,3.67a1.84,1.84,0,0,0-.51.92c-.15,1.53,1.1,1.92,2.4,1.5.23-.08.44-.2.67-.29a.78.78,0,0,1,1.06.24,1,1,0,0,0,1.26.35.51.51,0,0,1,.63.16,3.29,3.29,0,0,1,.94,1.79,2.31,2.31,0,0,0,.54,1.2,2.09,2.09,0,0,1,.41,1.49,6.68,6.68,0,0,0,1,3.8,5.78,5.78,0,0,0,.5.69,1.46,1.46,0,0,1,.41,1.15,16.58,16.58,0,0,0,.44,2.69,37.35,37.35,0,0,1,.22,4.61,3.21,3.21,0,0,1-.3,1.29,1.46,1.46,0,0,1-1.09.95,1.73,1.73,0,0,0-1.08.52c-.31.38,0,.88-.24,1.32-.12.26.22.47.56.46.93,0,1.86,0,2.79,0,.34,0,.52-.11.58-.46a3.3,3.3,0,0,1,.58-1.33c.23-.33.46-.62.93-.49.3.08.35-.11.31-.35a19.92,19.92,0,0,1,.53-5.71c0-.06,0-.12,0-.18.08-.45-.15-1.1.21-1.31s.88.09,1.33.17a9.81,9.81,0,0,0,2.36-.08,10.22,10.22,0,0,1,1.45-.11,11.49,11.49,0,0,0,5.77-1.4c.95-.46,1.84-1,2.73-1.56a2.93,2.93,0,0,1,3-.46,1.78,1.78,0,0,1,.8.71c.41.72.85,1.42,1.3,2.12a14.36,14.36,0,0,0,3.21,3.61,4.74,4.74,0,0,1,1.61,4.14c0,.38-.28.5-.61.56a1.32,1.32,0,0,0-1,.71c-.2.37-.17.65.32.75a8.27,8.27,0,0,0,2.11,0c.5,0,.63-.52.64-1A8.23,8.23,0,0,1,336.55,773.62Z" transform="translate(-84.7 -27.72)"/><polygon class="cls-12" points="400.64 433.39 25.25 433.39 25.25 481.81 355.51 481.81 400.64 433.39"/><path class="cls-12" d="M132.31,711.26A185.49,185.49,0,0,0,192,775.81l60.17-64.55Z" transform="translate(-84.7 -27.72)"/><polygon class="cls-1" points="355.51 481.81 25.25 481.81 25.25 515.14 324.44 515.14 355.51 481.81"/><path class="cls-1" d="M278,683.54H119.9a180.11,180.11,0,0,0,12.41,27.72H252.17Z" transform="translate(-84.7 -27.72)"/><polygon class="cls-12" points="324.44 515.14 25.25 515.14 25.25 554.43 287.82 554.43 324.44 515.14"/><path class="cls-12" d="M319.75,638.75H110.5a178.13,178.13,0,0,0,9.4,44.79H278Z" transform="translate(-84.7 -27.72)"/><path class="cls-1" d="M372.51,582.15H109.94V624.6q0,7.14.56,14.15H319.75Z" transform="translate(-84.7 -27.72)"/><polygon class="cls-6" points="400.64 327.21 25.25 433.39 400.64 433.39 400.64 327.21"/><polygon class="cls-13" points="25.25 327.21 25.25 433.39 400.64 327.21 25.25 327.21"/><path class="cls-14" d="M109.94,354.93V624.6c0,101,84,182.92,187.7,182.92s187.69-81.9,187.69-182.92V354.93Z" transform="translate(-84.7 -27.72)"/></svg>