<svg id="Capa_1" data-name="Capa 1" xmlns="http://www.w3.org/2000/svg" viewBox="0 0 418.13 810.24"><defs><style>.cls-1,.cls-10,.cls-12,.cls-2,.cls-9{fill:#bc0c24;}.cls-13,.cls-18,.cls-2,.cls-25{stroke:#1f140f;}.cls-10,.cls-13,.cls-16,.cls-18,.cls-2,.cls-21,.cls-22,.cls-23,.cls-25,.cls-26,.cls-3,.cls-5,.cls-7,.cls-8,.cls-9{stroke-miterlimit:10;}.cls-13,.cls-17,.cls-2,.cls-3{stroke-width:1.55px;}.cls-13,.cls-18,.cls-20,.cls-25,.cls-3{fill:#fff;}.cls-10,.cls-11,.cls-12,.cls-15,.cls-16,.cls-17,.cls-3,.cls-4,.cls-5,.cls-6,.cls-7,.cls-8,.cls-9{stroke:#000;}.cls-4{fill:#ecc70c;}.cls-11,.cls-12,.cls-4,.cls-6{stroke-linecap:round;}.cls-11,.cls-12,.cls-15,.cls-17,.cls-4,.cls-6{stroke-linejoin:round;}.cls-4,.cls-6{stroke-width:0.61px;}.cls-5{fill:#a18055;}.cls-10,.cls-5,.cls-7,.cls-8,.cls-9{stroke-width:0.77px;}.cls-11,.cls-6{fill:#e6e8e7;}.cls-10,.cls-11,.cls-6,.cls-7{fill-rule:evenodd;}.cls-24,.cls-27,.cls-7,.cls-8{fill:#ac9768;}.cls-11,.cls-12{stroke-width:0.65px;}.cls-14,.cls-17,.cls-21,.cls-22,.cls-23,.cls-26{fill:none;}.cls-15,.cls-16{fill:#bdab81;}.cls-15{stroke-width:1.58px;}.cls-16{stroke-width:0.39px;}.cls-18{stroke-width:1.72px;}.cls-19{fill:#00913d;}.cls-21{stroke:#7f5e2f;stroke-width:17.88px;}.cls-22{stroke:#ac9768;}.cls-22,.cls-23{stroke-width:7.66px;}.cls-23{stroke:#8e6238;}.cls-25{stroke-width:5.11px;}.cls-26,.cls-27{font-size:124.41px;font-family:MicrosoftYaHeiUI-Bold, Microsoft YaHei UI;font-weight:700;letter-spacing:0.12em;}.cls-26{stroke:#785121;stroke-width:7.66px;}</style></defs><path class="cls-1" d="M432.5,169.61c-1-.22-2-.41-3-.57a72.89,72.89,0,0,0-16.78-.45c-5.23.39-5.62.93-14.27,1.84a121.78,121.78,0,0,1-15.07,1,79.45,79.45,0,0,1-20.17-2.86c-8.22-2.3-8.13-3.84-18.14-7.74a121.5,121.5,0,0,0-27.71-7.13,116.17,116.17,0,0,0-19.74-.9,116.3,116.3,0,0,0-19.75.9,121.81,121.81,0,0,0-27.71,7.13c-10,3.9-9.91,5.44-18.13,7.74a79.45,79.45,0,0,1-20.17,2.86,122,122,0,0,1-15.08-1c-8.64-.91-9-1.45-14.26-1.84a73,73,0,0,0-16.79.45c-1,.16-2,.35-3,.57a46,46,0,0,0-14.06,5.8c4.05,11.3,8.72,23,14.16,35a453.94,453.94,0,0,0,22.92,43.91H409.48a458.44,458.44,0,0,0,22.92-43.91c5.43-12,10.11-23.65,14.15-35A46.07,46.07,0,0,0,432.5,169.61Z" transform="translate(-88.57 -19.9)"/><path class="cls-2" d="M432.5,169.61c-1-.22-2-.41-3-.57a72.89,72.89,0,0,0-16.78-.45c-5.23.39-5.62.93-14.27,1.84a121.78,121.78,0,0,1-15.07,1,79.45,79.45,0,0,1-20.17-2.86c-8.22-2.3-8.13-3.84-18.14-7.74a121.5,121.5,0,0,0-27.71-7.13,116.17,116.17,0,0,0-19.74-.9,116.3,116.3,0,0,0-19.75.9,121.81,121.81,0,0,0-27.71,7.13c-10,3.9-9.91,5.44-18.13,7.74a79.45,79.45,0,0,1-20.17,2.86,122,122,0,0,1-15.08-1c-8.64-.91-9-1.45-14.26-1.84a73,73,0,0,0-16.79.45c-1,.16-2,.35-3,.57a46,46,0,0,0-14.06,5.8c4.05,11.3,8.72,23,14.16,35a453.94,453.94,0,0,0,22.92,43.91H409.48a458.44,458.44,0,0,0,22.92-43.91c5.43-12,10.11-23.65,14.15-35A46.07,46.07,0,0,0,432.5,169.61Z" transform="translate(-88.57 -19.9)"/><path class="cls-3" d="M345.09,160.85c10,3.9,9.92,5.44,18.14,7.74l1.49.39c0-.2.09-.39.14-.59,1-4.28,2.54-11.46-.82-18.74a22,22,0,0,0-5.45-7.18c-.88-.83-1.84-1.67-2.9-2.6-7.27-6.38-14.52-9.29-20-11.41a88.62,88.62,0,0,0-13.2-4,23.35,23.35,0,0,0-5.58,2.86c.32-1.71.66-3.37,1-5a152.18,152.18,0,0,0-3.21,22.79c-.2,3-.35,5.7-.48,8.25,1.1.11,2.16.23,3.12.36A121.5,121.5,0,0,1,345.09,160.85Z" transform="translate(-88.57 -19.9)"/><path class="cls-3" d="M395.37,156.43a7.45,7.45,0,0,1-1.72,4.73c.42,3,.72,6.24.86,9.68l4-.41c8.65-.91,9-1.45,14.27-1.84a72.89,72.89,0,0,1,16.78.45c1,.16,2,.35,3,.57s1.81.45,2.67.7a37.07,37.07,0,0,0-3.49-10.48c-1.64-3.43-4.61-9.6-11.4-14.26a33.59,33.59,0,0,0-14.47-5.3,42.84,42.84,0,0,0-12.09-.23,7.51,7.51,0,0,1-3.29,5.59c.27.76.51,1.49.71,2.18s.39,1.37.62,2.21A7.51,7.51,0,0,1,395.37,156.43Z" transform="translate(-88.57 -19.9)"/><path class="cls-3" d="M201.56,140a42.84,42.84,0,0,0-12.09.23,33.59,33.59,0,0,0-14.47,5.3c-6.8,4.66-9.76,10.83-11.41,14.26a36.79,36.79,0,0,0-3.48,10.48c.86-.25,1.74-.49,2.67-.7s2-.41,3-.57a73,73,0,0,1,16.79-.45c5.22.39,5.62.93,14.26,1.84l4,.41c.13-3.44.44-6.68.85-9.68a7.46,7.46,0,0,1,1.9-11.14c.23-.84.44-1.61.62-2.21s.44-1.42.71-2.18A7.48,7.48,0,0,1,201.56,140Z" transform="translate(-88.57 -19.9)"/><path class="cls-3" d="M239.59,139.87c-1.06.93-2,1.77-2.91,2.6a22.24,22.24,0,0,0-5.45,7.18c-3.36,7.28-1.8,14.46-.81,18.74,0,.2.09.39.14.59l1.49-.39c8.22-2.3,8.12-3.84,18.13-7.74a121.81,121.81,0,0,1,27.71-7.13c1-.13,2-.25,3.12-.36-.12-2.55-.28-5.28-.47-8.25a152.13,152.13,0,0,0-3.22-22.79c.36,1.64.7,3.3,1,5a23.26,23.26,0,0,0-5.57-2.86,88.8,88.8,0,0,0-13.21,4C254.11,130.58,246.86,133.49,239.59,139.87Z" transform="translate(-88.57 -19.9)"/><path class="cls-4" d="M190.22,254.2c-4.89-2.06-13.28-12.1-17.2-17.32l-4.89,3.61c6.34,8.28,11.43,13.49,15.29,16.54a16.18,16.18,0,0,0,5.38,3.07Z" transform="translate(-88.57 -19.9)"/><path class="cls-4" d="M403.94,254.2c4.89-2.06,13.28-12.1,17.2-17.32l4.89,3.61C419.69,248.77,414.6,254,410.74,257a16.12,16.12,0,0,1-5.39,3.07Z" transform="translate(-88.57 -19.9)"/><path class="cls-5" d="M300.13,213.42v10c0,20.09,31.28,20.72,33.36-.13a3.05,3.05,0,0,1,6.05.72C337,244.75,365,245.92,369,225.52l1.87-9.48a3.06,3.06,0,0,1,6,1.16L375,226.7c-4.29,21.75,17.5,20.59,27.7,3.32a3.06,3.06,0,0,1,5.25,3.13c-11.81,20.56,3.48,16.69,13,4l6.86-9.15a3.06,3.06,0,0,1,4.91,3.64c-2.3,3.05-1.26,1.68-6.88,9.16-11.89,15.84-27.34,16.68-28.12,3.54-10.36,7.43-24.35,6.32-28.35-6-10.14,11.49-28.65,9.92-34.22-3.12-10.62,13.7-30.43,11.59-38-.65-7.58,12.24-27.39,14.35-38,.65-5.56,13-24.08,14.61-34.21,3.12-4,12.33-18,13.44-28.35,6-.79,13.14-16.23,12.3-28.13-3.54l-6.87-9.16a3.15,3.15,0,0,1,.62-4.26,3.19,3.19,0,0,1,4.29.62l6.85,9.15c9.48,12.66,24.78,16.53,13-4a3.06,3.06,0,0,1,5.25-3.13c10.2,17.27,32,18.43,27.7-3.32l-1.87-9.5a3.05,3.05,0,0,1,6-1.16l1.88,9.48c4,20.4,32,19.23,29.44-1.5a3.05,3.05,0,0,1,6.05-.72c2.08,20.85,33.35,20.22,33.35.13v-10a3.06,3.06,0,1,1,6.11,0Z" transform="translate(-88.57 -19.9)"/><path class="cls-6" d="M262.28,222a4.83,4.83,0,1,1-4.83-4.75,4.79,4.79,0,0,1,4.83,4.75Z" transform="translate(-88.57 -19.9)"/><path class="cls-6" d="M193.06,229.88a4.83,4.83,0,1,1-4.82-4.74A4.78,4.78,0,0,1,193.06,229.88Z" transform="translate(-88.57 -19.9)"/><path class="cls-6" d="M331.88,222a4.83,4.83,0,1,0,4.82-4.75,4.79,4.79,0,0,0-4.82,4.75Z" transform="translate(-88.57 -19.9)"/><path class="cls-6" d="M401.09,229.88a4.83,4.83,0,1,0,4.83-4.74A4.78,4.78,0,0,0,401.09,229.88Z" transform="translate(-88.57 -19.9)"/><path class="cls-7" d="M297.08,273.79c-85.42,0-111.54-11.09-111.54-12.75s26.12-12.75,111.54-12.75S408.62,259.38,408.62,261,382.5,273.79,297.08,273.79ZM212.84,276c-19.9-3-34.59-7.68-34.59-15,0-16.92,79.39-19.86,118.83-19.86S415.91,244.12,415.91,261c0,7.28-14.7,12-34.59,15Z" transform="translate(-88.57 -19.9)"/><path class="cls-8" d="M233.84,276l-42.19,10.19c-1.58-8.6-3.07-16.42-6.68-24.47-1.92-4.28,36.52-14,112.11-14s114,9.7,112.11,14c-3.61,8-5.1,15.87-6.68,24.47L360.32,276Z" transform="translate(-88.57 -19.9)"/><path class="cls-9" d="M184.65,273.4l2.44-6.23,7.95,1.56-5.3,8Z" transform="translate(-88.57 -19.9)"/><path class="cls-10" d="M222.4,258.48l21.9-2.35a4.16,4.16,0,0,1,4.33,4.1,4.41,4.41,0,0,1-3.59,4.94l-21.89,2.35c-2.19.23-4.12-1.59-4.33-4.1A4.41,4.41,0,0,1,222.4,258.48Z" transform="translate(-88.57 -19.9)"/><path class="cls-11" d="M210.84,265.62c0,3.05-2.16,5.52-4.83,5.52s-4.82-2.47-4.82-5.52,2.16-5.51,4.82-5.51S210.84,262.58,210.84,265.62Z" transform="translate(-88.57 -19.9)"/><path class="cls-7" d="M400,288.3c0,1.55-24.11,11.88-102.94,11.88S194.14,289.85,194.14,288.3s24.1-11.88,102.94-11.88S400,286.76,400,288.3Zm6.73,0c0,15.76-73.27,18.5-109.67,18.5s-109.67-2.74-109.67-18.5,73.27-18.5,109.67-18.5S406.75,272.54,406.75,288.3Z" transform="translate(-88.57 -19.9)"/><path class="cls-9" d="M409.51,273.4l-2.45-6.23-7.94,1.56,5.3,8Z" transform="translate(-88.57 -19.9)"/><path class="cls-10" d="M371.75,258.48l-21.9-2.35a4.15,4.15,0,0,0-4.32,4.1,4.4,4.4,0,0,0,3.58,4.94l21.9,2.35c2.19.23,4.12-1.59,4.33-4.1A4.41,4.41,0,0,0,371.75,258.48Z" transform="translate(-88.57 -19.9)"/><path class="cls-11" d="M383.32,265.62c0,3.05,2.16,5.52,4.82,5.52s4.83-2.47,4.83-5.52-2.16-5.51-4.83-5.51S383.32,262.58,383.32,265.62Z" transform="translate(-88.57 -19.9)"/><path class="cls-11" d="M325.5,259.67c0,3.05,2.16,5.51,4.83,5.51s4.83-2.46,4.83-5.51-2.16-5.51-4.83-5.51S325.5,256.62,325.5,259.67Z" transform="translate(-88.57 -19.9)"/><path class="cls-9" d="M285.22,254.27,279.06,259l6.16,4.7h23.72l6.16-4.7-6.16-4.69Z" transform="translate(-88.57 -19.9)"/><path class="cls-11" d="M268.65,259.67c0,3.05-2.16,5.51-4.82,5.51s-4.83-2.46-4.83-5.51,2.16-5.51,4.83-5.51S268.65,256.62,268.65,259.67Z" transform="translate(-88.57 -19.9)"/><path class="cls-12" d="M184.65,273.4,195,268.73" transform="translate(-88.57 -19.9)"/><path class="cls-12" d="M409.51,273.4l-10.39-4.67" transform="translate(-88.57 -19.9)"/><path class="cls-12" d="M285.22,254.27l5.69,4.2-5.69,5.19" transform="translate(-88.57 -19.9)"/><path class="cls-12" d="M279.06,259l11.85-.49h12.33l11.86.49" transform="translate(-88.57 -19.9)"/><path class="cls-12" d="M308.94,254.27l-5.7,4.2,5.7,5.19" transform="translate(-88.57 -19.9)"/><path class="cls-8" d="M454.4,152.29c-2.06-5-5.79-13.78-14.67-21.69a54.7,54.7,0,0,0-22.61-11.92,63.64,63.64,0,0,0-25.37-1.53,76.23,76.23,0,0,0-19.09,4.68A42,42,0,0,1,387.83,138c5.32-1.27,20-3.19,33.15,3,1.94.92,10.21,7.86,13.51,12.76,2.25,3.33,7,12.86,6.21,23.37a47.14,47.14,0,0,1-8.43,22.57,48.3,48.3,0,0,1-13.64,12.79,50.28,50.28,0,0,1,3.08,6.86,51.39,51.39,0,0,1,3,15.07,171.11,171.11,0,0,0,19-22.25c9.09-12.77,14.3-20.28,15.58-31.79C460.71,167.63,456.46,157.29,454.4,152.29Z" transform="translate(-88.57 -19.9)"/><path class="cls-5" d="M434.49,153.79C431.19,148.89,422.92,142,421,141c-13.17-6.22-27.83-4.3-33.15-3,.51,1,1,1.9,1.36,2.83a43.09,43.09,0,0,1,16.62-.56,33.59,33.59,0,0,1,14.47,5.3c6.79,4.66,9.76,10.83,11.4,14.26a34.58,34.58,0,0,1,3.88,14.26c.27,7.46-2.17,13-3.88,16.71a45,45,0,0,1-14.26,17.52c-.3.23-.6.42-.9.63a42,42,0,0,1-4.2,2.59c.73,1.07,1.46,2.18,2.17,3.34s1.29,2.11,1.91,3.22a90.9,90.9,0,0,1,7.45,17.21l.87-.86a51.39,51.39,0,0,0-3-15.07,50.28,50.28,0,0,0-3.08-6.86,48.3,48.3,0,0,0,13.64-12.79,47.14,47.14,0,0,0,8.43-22.57C441.53,166.65,436.74,157.12,434.49,153.79Z" transform="translate(-88.57 -19.9)"/><circle class="cls-13" cx="302.18" cy="97.26" r="7.54"/><circle class="cls-13" cx="321.27" cy="96.55" r="8.89"/><circle class="cls-13" cx="342.36" cy="100.32" r="8.96"/><circle class="cls-13" cx="359.33" cy="113.46" r="9.56"/><circle class="cls-13" cx="371.06" cy="155.48" r="9.61"/><circle class="cls-13" cx="362.67" cy="177.84" r="10.28"/><circle class="cls-13" cx="347.85" cy="196.69" r="9.73"/><circle class="cls-13" cx="368.95" cy="133.17" r="9.63"/><polygon class="cls-14" points="282.07 128.58 282.07 128.58 282.07 128.58 282.07 128.58"/><path class="cls-8" d="M346.11,124.89c6.21,2.52,10.78,5.09,15.28,9.58,5.92,5.89,7.65,9.4,9.25,14h0l.33,1c2,6,2.11,14.89,0,22-3.44,11.6-12.3,23.13-18,31.27-.66.94-1.27,1.81-1.87,2.65l17.05,15.19,14.31-9c2.75-7.64,5.72-14.29,6.83-19.55a163.77,163.77,0,0,0,3.36-21.08c.39-4.57.7-8.07.81-11.06.13-3.41-1.55-9.32-2.34-12.07-2.09-7.31-8.42-19.2-17.38-25.28a59.63,59.63,0,0,0-24.8-9c-8.36-.94-18.37-2-29,2.75l-.61.29q-1.32,5.1-2.38,10.81a23.35,23.35,0,0,1,5.58-2.86,33.24,33.24,0,0,1,6.88-1.62A31.44,31.44,0,0,1,346.11,124.89Z" transform="translate(-88.57 -19.9)"/><path class="cls-5" d="M393.48,159.88c-.11,3-.42,6.49-.81,11.06A163.77,163.77,0,0,1,389.31,192c-1.11,5.26-4.08,11.91-6.83,19.55l-14.31,9-17.05-15.19c.6-.84,1.21-1.71,1.87-2.65,5.68-8.14,14.54-19.67,18-31.27,2.11-7.12,2-16,0-22l-.33-1h0c-1.6-4.61-3.33-8.12-9.25-14-4.5-4.49-9.07-7.06-15.28-9.58a31.44,31.44,0,0,0-16.71-2,33.24,33.24,0,0,0-6.88,1.62,88.62,88.62,0,0,1,13.2,4c5.45,2.12,12.7,5,20,11.41,1.06.93,2,1.77,2.9,2.6a22,22,0,0,1,5.45,7.18c3.36,7.28,1.8,14.46.82,18.74-1.44,6.2-3.39,11.52-9.78,21.41-2.89,4.46-5.7,8.24-8.31,11.69-1.17,1.54-2.3,3-3.38,4.46l4.34,4,15,14,1.79,1.66,16.34-9.46,5.84-3.38c.69-1.61,1.38-3.32,2.05-5.18a97,97,0,0,0,4.69-47.72Z" transform="translate(-88.57 -19.9)"/><circle class="cls-13" cx="282.07" cy="187.27" r="9.43"/><circle class="cls-13" cx="297.68" cy="119.45" r="7.54"/><circle class="cls-13" cx="243.3" cy="93.04" r="5.81"/><circle class="cls-13" cx="286.78" cy="106.03" r="7.54"/><circle class="cls-13" cx="274.18" cy="97.37" r="6.53"/><circle class="cls-13" cx="259.32" cy="93.04" r="6.53"/><circle class="cls-13" cx="299.26" cy="136.53" r="7.54"/><circle class="cls-13" cx="297.68" cy="154.17" r="7.54"/><circle class="cls-13" cx="291.72" cy="169.89" r="7.54"/><path class="cls-8" d="M140.87,152.29c2.06-5,5.79-13.78,14.67-21.69a54.72,54.72,0,0,1,22.62-11.92,63.59,63.59,0,0,1,25.36-1.53,76,76,0,0,1,19.09,4.68A42.06,42.06,0,0,0,207.45,138c-5.32-1.27-20-3.19-33.15,3-2,.92-10.21,7.86-13.52,12.76-2.25,3.33-7,12.86-6.21,23.37A47,47,0,0,0,163,199.73a48.17,48.17,0,0,0,13.64,12.79,50.63,50.63,0,0,0-6.09,21.93,169.54,169.54,0,0,1-19-22.25c-9.09-12.77-14.31-20.28-15.59-31.79C134.56,167.63,138.82,157.29,140.87,152.29Z" transform="translate(-88.57 -19.9)"/><path class="cls-5" d="M160.78,153.79c3.31-4.9,11.57-11.84,13.52-12.76,13.16-6.22,27.83-4.3,33.15-3-.51,1-1,1.9-1.37,2.83a43,43,0,0,0-16.61-.56,33.59,33.59,0,0,0-14.47,5.3c-6.8,4.66-9.76,10.83-11.41,14.26a34.6,34.6,0,0,0-3.87,14.26c-.27,7.46,2.17,13,3.87,16.71a45.07,45.07,0,0,0,14.26,17.52c.31.23.6.42.91.63a43.1,43.1,0,0,0,4.19,2.59c-.73,1.07-1.45,2.18-2.17,3.34s-1.28,2.11-1.91,3.22a90.82,90.82,0,0,0-7.44,17.21l-.87-.86a50.63,50.63,0,0,1,6.09-21.93A48.17,48.17,0,0,1,163,199.73a47,47,0,0,1-8.44-22.57C153.74,166.65,158.53,157.12,160.78,153.79Z" transform="translate(-88.57 -19.9)"/><circle class="cls-13" cx="115.95" cy="97.26" r="7.54"/><circle class="cls-13" cx="96.86" cy="96.55" r="8.89"/><circle class="cls-13" cx="75.76" cy="100.32" r="8.96"/><circle class="cls-13" cx="58.8" cy="113.46" r="9.56"/><circle class="cls-13" cx="47.07" cy="155.48" r="9.61"/><circle class="cls-13" cx="55.46" cy="177.84" r="10.28"/><circle class="cls-13" cx="70.28" cy="196.69" r="9.73"/><circle class="cls-13" cx="49.18" cy="133.17" r="9.63"/><polygon class="cls-14" points="136.06 128.58 136.06 128.58 136.06 128.58 136.06 128.58"/><path class="cls-8" d="M249.16,124.89c-6.21,2.52-10.78,5.09-15.28,9.58-5.91,5.89-7.64,9.4-9.25,14h0l-.32,1c-2,6-2.11,14.89,0,22,3.44,11.6,12.3,23.13,18,31.27l1.86,2.65-17,15.19-14.32-9c-2.74-7.64-5.71-14.29-6.82-19.55a163.77,163.77,0,0,1-3.36-21.08c-.4-4.57-.7-8.07-.81-11.06-.13-3.41,1.55-9.32,2.34-12.07,2.09-7.31,8.41-19.2,17.38-25.28a59.63,59.63,0,0,1,24.79-9c8.37-.94,18.38-2,29,2.75l.61.29c.88,3.4,1.69,7,2.38,10.81a23.26,23.26,0,0,0-5.57-2.86,33.35,33.35,0,0,0-6.89-1.62A31.47,31.47,0,0,0,249.16,124.89Z" transform="translate(-88.57 -19.9)"/><path class="cls-5" d="M201.8,159.88c.11,3,.41,6.49.81,11.06A163.77,163.77,0,0,0,206,192c1.11,5.26,4.08,11.91,6.82,19.55l14.32,9,17-15.19-1.86-2.65c-5.68-8.14-14.54-19.67-18-31.27-2.11-7.12-2-16,0-22l.32-1h0c1.61-4.61,3.34-8.12,9.25-14,4.5-4.49,9.07-7.06,15.28-9.58a31.47,31.47,0,0,1,16.71-2,33.35,33.35,0,0,1,6.89,1.62,88.8,88.8,0,0,0-13.21,4c-5.44,2.12-12.69,5-20,11.41-1.06.93-2,1.77-2.91,2.6a22.24,22.24,0,0,0-5.45,7.18c-3.36,7.28-1.8,14.46-.81,18.74,1.43,6.2,3.39,11.52,9.78,21.41,2.88,4.46,5.7,8.24,8.31,11.69,1.17,1.54,2.3,3,3.37,4.46l-4.33,4-15,14-1.79,1.66-16.35-9.46-5.84-3.38c-.68-1.61-1.37-3.32-2-5.18a97,97,0,0,1-4.69-47.72Z" transform="translate(-88.57 -19.9)"/><circle class="cls-13" cx="136.06" cy="187.27" r="9.43"/><circle class="cls-13" cx="120.45" cy="119.45" r="7.54"/><circle class="cls-13" cx="174.83" cy="93.04" r="5.81"/><circle class="cls-13" cx="131.35" cy="106.03" r="7.54"/><circle class="cls-13" cx="143.95" cy="97.37" r="6.53"/><circle class="cls-13" cx="158.81" cy="93.04" r="6.53"/><circle class="cls-13" cx="118.87" cy="136.53" r="7.54"/><circle class="cls-13" cx="120.45" cy="154.17" r="7.54"/><circle class="cls-13" cx="126.41" cy="169.89" r="7.54"/><path class="cls-15" d="M323.05,43.25c-4.51,1.7-8.76,1.8-13,1.91-1.87,0-4.06,0-5.57-.09v0c0-.75,0-1.52,0-2.36.1-4.41.2-8.84,1.83-13.54a28.28,28.28,0,0,1,4.74-8.44H284.2a28.28,28.28,0,0,1,4.74,8.44c1.64,4.7,1.74,9.13,1.84,13.54,0,.84,0,1.61,0,2.36v0c-1.51.08-3.71.13-5.57.09-4.23-.11-8.48-.21-13-1.91a25.26,25.26,0,0,1-4.83-2.46V61.23a25.26,25.26,0,0,1,4.83-2.46c4.51-1.7,8.76-1.81,13-1.91,2,0,4.32,0,5.87.09V57a77.38,77.38,0,0,1-8.58,36h30.26a77.59,77.59,0,0,1-8.59-36V57c1.56-.09,3.87-.14,5.88-.09,4.23.1,8.48.21,13,1.91a25.55,25.55,0,0,1,4.83,2.46V40.79A25.55,25.55,0,0,1,323.05,43.25Z" transform="translate(-88.57 -19.9)"/><path class="cls-1" d="M293.89,80.39A17.56,17.56,0,0,0,280.27,95a24.93,24.93,0,0,1,13.62-5.89Z" transform="translate(-88.57 -19.9)"/><path class="cls-1" d="M301.39,80.39V89.1A24.93,24.93,0,0,1,315,95,17.55,17.55,0,0,0,301.39,80.39Z" transform="translate(-88.57 -19.9)"/><path class="cls-1" d="M297.64,96.32c-8.44,0-15.32,3.91-15.83,8.83a17.54,17.54,0,0,0,31.65,0C313,100.23,306.08,96.32,297.64,96.32Z" transform="translate(-88.57 -19.9)"/><path class="cls-16" d="M315,95a24.93,24.93,0,0,0-13.61-5.89V80.39a17,17,0,0,0-7.5,0V89.1A24.93,24.93,0,0,0,280.27,95a18,18,0,0,0-.21,2.56,17.49,17.49,0,0,0,1.75,7.6c.51-4.92,7.39-8.83,15.83-8.83s15.32,3.91,15.82,8.83a17.49,17.49,0,0,0,1.75-7.6A16.68,16.68,0,0,0,315,95Z" transform="translate(-88.57 -19.9)"/><circle class="cls-17" cx="209.06" cy="77.64" r="17.57"/><path class="cls-5" d="M315.52,181.8c-.18-.89-.36-1.76-.52-2.6-1.38-7.31-1.37-17-.26-34.09a152.69,152.69,0,0,1,4.36-27.7,19.63,19.63,0,0,0-1.72-2,24.06,24.06,0,0,0-6.88-4.73A219.4,219.4,0,0,0,306,154.33a246.63,246.63,0,0,0,2.64,36,51.06,51.06,0,0,1-5.49,4.74c-1.24.92-2.46,1.72-3.67,2.46q2.83,3.47,6.19,7l.44.45c2.74,2.81,5.49,5.33,8.18,7.59a49.52,49.52,0,0,1,5.46-8.49v-5C318.12,193.21,316.61,187.05,315.52,181.8Z" transform="translate(-88.57 -19.9)"/><path class="cls-5" d="M279.76,181.8c.18-.89.35-1.76.51-2.6,1.38-7.31,1.37-17,.27-34.09a152.65,152.65,0,0,0-4.37-27.7,22.52,22.52,0,0,1,1.72-2,24.06,24.06,0,0,1,6.88-4.73,218.66,218.66,0,0,1,4.53,43.64,245.24,245.24,0,0,1-2.64,36,52.05,52.05,0,0,0,5.49,4.74c1.24.92,2.47,1.72,3.67,2.46q-2.83,3.47-6.19,7l-.43.45c-2.75,2.81-5.49,5.33-8.18,7.59a50.75,50.75,0,0,0-5.46-8.49v-5C277.16,193.21,278.67,187.05,279.76,181.8Z" transform="translate(-88.57 -19.9)"/><path class="cls-5" d="M314.26,212.55c-2.69-2.26-5.44-4.78-8.18-7.59l-.44-.45a55.68,55.68,0,0,1-4.35,5.44c-1.22,1.34-2.44,2.55-3.65,3.66v5.9a9.89,9.89,0,0,0,5.89,3c.32,0,.64.06,1,.07a8.22,8.22,0,0,0,7.68-5.32,46.86,46.86,0,0,1,2.06-4.63Z" transform="translate(-88.57 -19.9)"/><path class="cls-5" d="M281,212.55c2.69-2.26,5.43-4.78,8.18-7.59l.43-.45A55.83,55.83,0,0,0,294,210c1.21,1.34,2.43,2.55,3.65,3.66v5.9a10,10,0,0,1-5.89,3c-.32,0-.64.06-1,.07a8.21,8.21,0,0,1-7.68-5.32c-.58-1.5-1.26-3-2.06-4.63Z" transform="translate(-88.57 -19.9)"/><path class="cls-8" d="M308.61,190.34h0a246.63,246.63,0,0,1-2.64-36,219.4,219.4,0,0,1,4.53-43.64,29.08,29.08,0,0,0-25.73,0,218.66,218.66,0,0,1,4.53,43.64,245.24,245.24,0,0,1-2.64,36,52.05,52.05,0,0,0,5.49,4.74c1.24.92,2.47,1.72,3.67,2.46.62.38,1.22.74,1.82,1.07.59-.33,1.2-.69,1.81-1.07,1.21-.74,2.43-1.54,3.67-2.46a54.15,54.15,0,0,0,5.49-4.74" transform="translate(-88.57 -19.9)"/><path class="cls-8" d="M311.61,197.74" transform="translate(-88.57 -19.9)"/><path class="cls-8" d="M308.61,190.34a54.15,54.15,0,0,1-5.49,4.74c-1.24.92-2.46,1.72-3.67,2.46-.61.38-1.22.74-1.81,1.07-.6-.33-1.2-.69-1.82-1.07-1.2-.74-2.43-1.54-3.67-2.46a55.27,55.27,0,0,1-5.49-4.74c-1.05,2.41-1.94,5-3,7.4a18.39,18.39,0,0,1,3,2.65,23.07,23.07,0,0,1,3,4.12A55.83,55.83,0,0,0,294,210c1.21,1.34,2.43,2.55,3.65,3.66,1.21-1.11,2.43-2.32,3.65-3.66a55.68,55.68,0,0,0,4.35-5.44,23.58,23.58,0,0,1,3-4.12,18.42,18.42,0,0,1,3-2.65C310.55,195.32,309.67,192.75,308.61,190.34Z" transform="translate(-88.57 -19.9)"/><circle class="cls-18" cx="209.06" cy="95.95" r="8.03"/><circle class="cls-18" cx="209.06" cy="113.86" r="8.03"/><circle class="cls-18" cx="209.06" cy="131.77" r="8.03"/><circle class="cls-18" cx="209.06" cy="149.68" r="8.03"/><circle class="cls-18" cx="209.06" cy="167.59" r="8.03"/><ellipse class="cls-1" cx="208.5" cy="268.4" rx="102.94" ry="11.88"/><path class="cls-19" d="M97.52,631.72c0,104.65,89.59,189.48,200.12,189.48s200.12-84.83,200.12-189.48v-28.1H97.52Z" transform="translate(-88.57 -19.9)"/><rect class="cls-20" x="8.94" y="427.02" width="400.24" height="156.69"/><rect class="cls-19" x="8.94" y="277.14" width="400.24" height="149.88"/><path class="cls-21" d="M97.52,297.05V631.72c0,104.65,89.59,189.48,200.12,189.48s200.12-84.83,200.12-189.48V297.05Z" transform="translate(-88.57 -19.9)"/><path class="cls-22" d="M97.52,297.05V631.72c0,104.65,89.59,189.48,200.12,189.48s200.12-84.83,200.12-189.48V297.05Z" transform="translate(-88.57 -19.9)"/><path class="cls-23" d="M293.81,484.19l59.65,61.43L331.85,577l7.42,7.77,28.05-23.29L388,582.41l8.7-.33,3.55-9.12-20.64-19.57,27.73-22.95c8.53-7.37,15.54-13.07,20.31-16.88,8.73-7,12.29-9.43,14.51-15.19,2.8-7.27,1.42-14.5,1-16.88-.81-4.23-2-5.74-2.58-6.41-2.46-2.72-5.9-3.05-10-3.37a27.49,27.49,0,0,0-12.89,1.35,27.9,27.9,0,0,0-13.87,12.15l-20.31,26.66L366.35,532.8l-72.54-70.54-68.35,74.93-27.41-26,20.64-22.62-16.45-15.86-38,41.18-12.9,40.2,32.56-30.58L211,548l-16.12,18.56-.33,15.53,10.32-.68,16.77-18.9,14.18,13.16,9.35-.67V559.13l-8.06-7.43v-5.4Z" transform="translate(-88.57 -19.9)"/><path class="cls-24" d="M294,484.19l59.65,61.43L332,577l7.41,7.77,28.06-23.29,20.63,20.92,8.7-.33,3.55-9.12-20.63-19.57,27.72-22.95c8.54-7.37,15.54-13.07,20.32-16.88,8.72-7,12.29-9.43,14.51-15.19,2.8-7.27,1.42-14.5,1-16.88-.81-4.23-2-5.74-2.58-6.41-2.45-2.72-5.89-3.05-10-3.37a27.53,27.53,0,0,0-12.9,1.35,27.82,27.82,0,0,0-13.86,12.15l-20.31,26.66L366.5,532.8,294,462.26,225.6,537.19l-27.4-26,20.63-22.62-16.44-15.86-38,41.18-12.89,40.2L184,523.52,211.09,548,195,566.55l-.32,15.53L205,581.4l16.76-18.9,14.19,13.16,9.35-.67V559.13l-8.06-7.43v-5.4Z" transform="translate(-88.57 -19.9)"/><path class="cls-25" d="M405.45,654.64a107.76,107.76,0,0,0-74.69-102.55V610a18.7,18.7,0,0,0,0,4.68c1.28,9.81,10.32,15.49,12.56,16.82H252.1c2.24-1.33,11.28-7,12.56-16.82a18.7,18.7,0,0,0,0-4.68v-57.9a107.75,107.75,0,0,0,0,205.11V699.3a18.79,18.79,0,0,0,0-4.69c-1.28-9.8-10.32-15.49-12.56-16.81h91.22c-2.24,1.32-11.28,7-12.56,16.81a18.79,18.79,0,0,0,0,4.69v57.9A107.77,107.77,0,0,0,405.45,654.64Z" transform="translate(-88.57 -19.9)"/><path class="cls-25" d="M264.66,614.67c-1.28,9.81-10.32,15.49-12.56,16.82h91.22c-2.24-1.33-11.28-7-12.56-16.82a18.7,18.7,0,0,1,0-4.68v-57.9a107.83,107.83,0,0,0-66.1,0V610A18.7,18.7,0,0,1,264.66,614.67Z" transform="translate(-88.57 -19.9)"/><path class="cls-25" d="M330.76,694.61c1.28-9.8,10.32-15.49,12.56-16.81H252.1c2.24,1.32,11.28,7,12.56,16.81a18.79,18.79,0,0,1,0,4.69v57.9a107.83,107.83,0,0,0,66.1,0V699.3A18.79,18.79,0,0,1,330.76,694.61Z" transform="translate(-88.57 -19.9)"/><path class="cls-25" d="M358.83,624.2a37,37,0,0,1-6.07,3.95,26.64,26.64,0,0,1-9.74,3.1c-3.59.07-4.19,0-8.14,0l-37.17,0-37.17,0c-4,0-4.55.07-8.14,0a26.64,26.64,0,0,1-9.74-3.1,37,37,0,0,1-6.07-3.95c-2.92-2.19-7.1-5.31-12.94-9.63v79.27c5.84-4.32,10-7.44,12.94-9.63a37,37,0,0,1,6.07-4,26.76,26.76,0,0,1,9.74-3.09c3.59-.07,4.19,0,8.14,0l37.17,0,37.17,0c3.95,0,4.55-.07,8.14,0a26.76,26.76,0,0,1,9.74,3.09,37,37,0,0,1,6.07,4c2.92,2.19,7.1,5.31,12.94,9.63V614.57C365.93,618.89,361.75,622,358.83,624.2Z" transform="translate(-88.57 -19.9)"/><text class="cls-26" transform="translate(28.97 401.11) scale(0.95 1)">RAFC</text><text class="cls-27" transform="translate(28.97 401.11) scale(0.95 1)">RAFC</text></svg>