<svg id="Capa_1" data-name="Capa 1" xmlns="http://www.w3.org/2000/svg" viewBox="0 0 571.61 702.32"><defs><style>.cls-1,.cls-3{fill:#fff;}.cls-1,.cls-2,.cls-3,.cls-4{stroke:#d5b46a;stroke-miterlimit:10;}.cls-1{stroke-width:14.56px;}.cls-2{fill:#002b86;}.cls-2,.cls-3,.cls-4{stroke-width:7.28px;}.cls-4,.cls-6{fill:#ffef00;}.cls-5{font-size:109.21px;font-family:ArialNarrow-Bold, Arial;font-weight:700;}.cls-5,.cls-7{fill:#d5b46a;}.cls-7{fill-rule:evenodd;}</style></defs><path class="cls-1" d="M488.75,273.72c0-25.76,15-48.5,37.83-62.21l-20-27.82L456.48,114,297.63,160,138.78,114l-70.1,97.54c22.86,13.71,37.83,36.45,37.83,62.21,0,41.6-39,75.37-87.33,75.8.85,89.19,45.45,205.92,114.07,294.7,46,59.49,102.74,106.43,164.38,124.1,153.63-44,277-269.86,278.45-418.8C527.76,349.09,488.75,315.32,488.75,273.72ZM297.63,590.55c-27.45-16.7-49.31-40-66.68-66.84-51.1-78.86-63.16-187.69-63.16-245.62,0,15.23,71,30.46,129.84,30.46s129.84-15.23,129.84-30.46c0,1.05,0,2.13,0,3.21C426.86,360.29,404.36,525.61,297.63,590.55Z" transform="translate(-11.83 -73.57)"/><path class="cls-2" d="M167.81,278.09c0,15.23,71,30.46,129.84,30.46s129.84-15.23,129.84-30.46c0,1.05,0,2.13,0,3.21l79.13-97.61L456.5,114,297.65,160,138.8,114,68.69,211.51c22.87,13.71,37.84,36.45,37.84,62.21,0,41.6-39,75.37-87.34,75.8.86,89.19,45.46,205.92,114.08,294.7L231,523.71C179.87,444.85,167.81,336,167.81,278.09Z" transform="translate(-11.83 -73.57)"/><path class="cls-3" d="M488.76,273.72c0-25.76,15-48.5,37.84-62.21l-20-27.82L427.47,281.3c-.59,79-23.09,244.31-129.82,309.25-27.45-16.7-49.32-40-66.68-66.84l-97.7,120.51c46,59.49,102.74,106.43,164.38,124.1,153.63-44,277-269.86,278.45-418.8C527.78,349.09,488.76,315.32,488.76,273.72Z" transform="translate(-11.83 -73.57)"/><path class="cls-2" d="M297.65,590.55C404.38,525.61,426.88,360.29,427.47,281.3L231,523.71C248.33,550.51,270.2,573.85,297.65,590.55Z" transform="translate(-11.83 -73.57)"/><path class="cls-4" d="M297.65,308.55c-58.86,0-129.84-15.23-129.84-30.46,0,57.93,12.06,166.76,63.16,245.62L427.47,281.3c0-1.08,0-2.16,0-3.21C427.49,293.32,356.5,308.55,297.65,308.55Z" transform="translate(-11.83 -73.57)"/><text class="cls-5" transform="translate(448.31 378.74)">F</text><text class="cls-5" transform="translate(68.2 378.74)">R</text><text class="cls-5" transform="translate(253.49 643.79)">C</text><path class="cls-6" d="M356.11,206.46A78.43,78.43,0,0,0,349.48,95.9c-32-28.43-81.61-25.48-110.31,6.87s-25.66,81.9,6.42,110.35A78.36,78.36,0,0,0,356.11,206.46Z" transform="translate(-11.83 -73.57)"/><path class="cls-7" d="M301.36,83.34c-.83-1.24-1.77-2.55-2.81-3.83l.2-.2c-1.78.08-3.86,0-5.68.13a75.35,75.35,0,0,0-51.73,25.2h0a80.61,80.61,0,0,0-14.73,24.42,3.82,3.82,0,0,0,1.35-1,74.29,74.29,0,0,1,9.83-7.2c13.56-8.5,29.2-12.45,47.27-10.33L281.79,116a63,63,0,0,0-41,9.73,56.78,56.78,0,0,0-9,6.73,63.64,63.64,0,0,0-8.19,7.75A72.33,72.33,0,0,0,222.47,159a45.91,45.91,0,0,0,1,8.15c3.26-6.11,7.78-9.82,13.44-11.28s11.91-.53,19.24,2.9l-2.93,4.91c-5.85-2.62-10.83-3.37-14.81-2.22-5.65,1.47-9.89,6.34-13,14.73a74.46,74.46,0,0,0,8.82,19.21l-3.27,5.46a81.85,81.85,0,0,1-3-87.57l.25-.42a75.08,75.08,0,0,1,8.87-12h0A80.67,80.67,0,0,1,293,73.71a85.39,85.39,0,0,1,13.93.36Zm16.15-1.28a74.77,74.77,0,0,0-11.88-2.26,34.32,34.32,0,0,1,5.75,12.5l-5.41,9a25.22,25.22,0,0,0,.28-4.19c-.08-4.5-1.8-9.07-4.89-13.8l5.55-9.27a79.21,79.21,0,0,1,13.68,2.86ZM234.17,195.41a75.93,75.93,0,0,0,8.74,11.09l-3.09,5.15a77.82,77.82,0,0,1-8.92-10.78Zm50.89-84.88a93.8,93.8,0,0,1,13.71,2.8l-3.11,5.19A84.36,84.36,0,0,0,281.79,116l3.27-5.45ZM261,161.27c5.39-8.86,11.22-13.78,17.89-14.71L274,154.61c-3.31,2.37-6.43,6.35-9.53,11.9l-.42,1c-.1,1.27-.13,2.55-.11,3.88l-4.87,8.12a48.57,48.57,0,0,1-.57-13,49,49,0,0,0-5.33-2.78l2.93-4.91C257.68,159.46,259.29,160.35,261,161.27ZM328.12,85.8a69.13,69.13,0,0,0-10.61-3.74l3.08-5.13a80.77,80.77,0,0,1,10.51,3.91ZM242.91,206.5c1.46,1.53,3,3,4.56,4.46h0c1.25,1.08,2.49,2.16,3.76,3.07l-3,5c-1.53-1.16-3.07-2.43-4.59-3.75h0c-1.33-1.21-2.61-2.38-3.8-3.66ZM311.38,92.3a26.42,26.42,0,0,1,.56,4.7c.17,7.12-1.95,13.82-6.77,20.74a32.45,32.45,0,0,1,2,3l-3.34,5.57a43.85,43.85,0,0,0-4.24-6.65c-1.33-.39-2.66-.78-3.93-1.13l3.11-5.19a17.34,17.34,0,0,1,2.06.56A31.1,31.1,0,0,0,306,101.33l5.41-9Zm-32.52,54.26a4.46,4.46,0,0,1,.87-.12,18.37,18.37,0,0,1,10.74,2.15l-3,5a14,14,0,0,0-7.21-1.44,12.75,12.75,0,0,0-6.27,2.5l4.84-8.05Zm-11.62,40.77-3.59,6a53.16,53.16,0,0,1-4.56-13.84l4.87-8.12A46.79,46.79,0,0,0,267.24,187.33Zm87.64-81.77A66.77,66.77,0,0,0,347.54,98h0c-1.18-1-2.58-1.88-4-3.15a179.8,179.8,0,0,1,5.39,20.66l-4.57,7.63c-1.15-10.32-4.2-21.28-8.41-33.34h0a73.61,73.61,0,0,0-7.79-4l3-5A81.07,81.07,0,0,1,351.21,94h0a78.28,78.28,0,0,1,6.64,6.62ZM251.23,214a74.24,74.24,0,0,0,30.12,14.13l-3.11,5.19a81,81,0,0,1-30-14.29Zm55.94-93.3a35.43,35.43,0,0,1,5.63,18.87c-.25,7.57-2.95,15.09-9.11,22.5.55,5.68,2,9.91,4.65,13.66a16.71,16.71,0,0,0,2.72,2.87l-2.95,4.89a21.89,21.89,0,0,1-4.36-4.5c-3.47-4.39-5.39-10-5.59-17-3.75-4.05-7.33-6.87-10.66-8.45l3-5a42.87,42.87,0,0,1,10.35,8c4.2-5.79,6.15-11.37,6.26-17.32a27.83,27.83,0,0,0-3.25-13l3.34-5.57ZM272.66,197.5a98.89,98.89,0,0,0,16,18.55l-3.05,5.08a99,99,0,0,1-17.77-20.6,59.72,59.72,0,0,1-4.16-7.2l3.59-6A55.26,55.26,0,0,0,272.66,197.5Zm85.57,10.89a81.79,81.79,0,0,1-80,25l3.11-5.19a81.42,81.42,0,0,0,14.47,1.58c-3.59-2.8-7.05-5.7-10.24-8.61l3.05-5.08c3.75,3.48,7.85,6.93,12.26,10.39a18.2,18.2,0,0,0,3.36,2.51c.22.22.49.45.49.45l.2.21A75.56,75.56,0,0,0,343.75,214c-5.71-.79-10.66-2.53-14.52-6-5.28-4.26-8.58-10.68-10.46-19.2a28.88,28.88,0,0,1-10.66-5.33l2.95-4.89a27.69,27.69,0,0,0,9.44,4.83c15.09-14.57,22-28.71,23.86-43.47a71.8,71.8,0,0,0,0-16.83l4.57-7.63a85.72,85.72,0,0,1,1.22,25.29c-2,15.88-9.53,31.14-25.76,46.51,1.62,7.49,4.46,13,8.8,16.39,4.05,3.67,9.87,5.36,17.13,4.91,1.13-1.2,2.41-2.66,3.67-4h0a74.89,74.89,0,0,0,18.84-54.37,76.81,76.81,0,0,0-17.91-44.65l3-5a80.14,80.14,0,0,1,20.65,49,81.18,81.18,0,0,1-11.14,46.3l-.24.43a76.78,76.78,0,0,1-8.89,12Z" transform="translate(-11.83 -73.57)"/></svg>