<svg id="Capa_1" data-name="Capa 1" xmlns="http://www.w3.org/2000/svg" viewBox="0 0 345.82 500.11"><defs><style>.cls-1,.cls-6{fill:#dfac48;}.cls-2{fill:#010101;}.cls-3{fill:#fff;}.cls-4{fill:#1d1d1b;}.cls-5{fill:none;}.cls-6,.cls-7{fill-rule:evenodd;}.cls-7{fill:#af8755;}</style></defs><path class="cls-1" d="M413,116H336.89C306.38,104.47,276,89.56,249.72,66.18c-26.3,23.38-56.65,38.29-87.17,49.86H86.43v-10l17.22-5.57c53.78-17.17,109-35.3,146.07-84.44C286.78,65.19,342,83.32,395.8,100.49L413,106.06v10Zm-225.15,0c21.53-9.56,42.58-21.37,61.86-37.25C269,94.67,290.06,106.48,311.59,116ZM413,140.44H385.69l-.26-.38-.53.38H86.43V125.66H413v14.78Zm0,247.17c0,19.53-43.95,39.43-82.73,57-29.15,13.19-59.09,26.82-80.55,43.2-21.47-16.38-51.41-30-80.55-43.2-38.79-17.55-82.74-37.45-82.74-57V363.12L388,150.06H413c0,79.47,0,237.55,0,237.55Zm-326.58-85V150.06H302.34L86.43,302.61Zm0,11.78L319,150.06h52.27L86.43,351.33V314.39ZM249.72-.06C210,62.52,142,77.29,76.81,99.07V387.61c0,43.49,122.53,68.95,172.91,112.45,50.39-43.5,172.92-69,172.92-112.45V99.07C357.43,77.29,289.45,62.52,249.72-.06Z" transform="translate(-76.81 0.06)"/><path class="cls-2" d="M145.76,321.19,86.43,363.12v24.49c0,15.64,28.19,31.51,59.33,46.23V321.19Z" transform="translate(-76.81 0.06)"/><path class="cls-3" d="M217.9,270.22l-72.14,51V433.84c7.76,3.66,15.69,7.25,23.42,10.75,16.57,7.5,33.34,15.16,48.72,23.37V270.22Z" transform="translate(-76.81 0.06)"/><path class="cls-2" d="M217.9,468c11.67,6.23,22.56,12.76,31.82,19.83A236,236,0,0,1,281.55,468V225.25l-63.65,45V468Z" transform="translate(-76.81 0.06)"/><path class="cls-3" d="M281.55,225.25V468c15.38-8.21,32.15-15.87,48.73-23.37,7.72-3.5,15.66-7.09,23.4-10.75V174.28l-72.13,51Z" transform="translate(-76.81 0.06)"/><path class="cls-2" d="M353.68,174.28V433.84C384.83,419.12,413,403.25,413,387.61V150.06H388l-34.27,24.22Z" transform="translate(-76.81 0.06)"/><path class="cls-3" d="M319,150.06,86.43,314.39v36.94L371.28,150.06Z" transform="translate(-76.81 0.06)"/><path class="cls-3" d="M86.43,302.61,302.34,150.06H86.43V302.61Z" transform="translate(-76.81 0.06)"/><path class="cls-3" d="M413,125.66H86.43v14.78H413V125.66Z" transform="translate(-76.81 0.06)"/><path class="cls-3" d="M187.86,116H311.59c-21.53-9.56-42.58-21.37-61.86-37.25-19.29,15.88-40.34,27.69-61.87,37.25Z" transform="translate(-76.81 0.06)"/><path class="cls-2" d="M137.28,89.33c-11.16,3.94-22.42,7.58-33.63,11.16l-17.22,5.57v10h50.85V89.33Z" transform="translate(-76.81 0.06)"/><path class="cls-3" d="M188.2,67.46C172,76.21,154.77,83.17,137.28,89.33V116h25.27q12.9-4.87,25.65-10.72V67.46Z" transform="translate(-76.81 0.06)"/><path class="cls-2" d="M188.2,105.32a263.18,263.18,0,0,0,46.14-26.83V33.72c-13.87,13.91-29.5,24.76-46.14,33.73v37.87Z" transform="translate(-76.81 0.06)"/><path class="cls-3" d="M249.72,16.05a169,169,0,0,1-15.38,17.64v44.8c5.24-3.85,10.41-7.89,15.38-12.31,5,4.42,10.14,8.46,15.39,12.31V33.69a169.27,169.27,0,0,1-15.39-17.64Z" transform="translate(-76.81 0.06)"/><path class="cls-2" d="M265.11,78.49a263.8,263.8,0,0,0,46.14,26.83V67.45c-16.63-9-32.27-19.82-46.14-33.73V78.49Z" transform="translate(-76.81 0.06)"/><path class="cls-3" d="M311.25,67.46v37.85c8.48,3.91,17.05,7.47,25.64,10.73h25.28V89.34c-17.49-6.17-34.68-13.13-50.92-21.88Z" transform="translate(-76.81 0.06)"/><path class="cls-2" d="M362.17,89.34V116H413v-10l-17.21-5.57c-11.21-3.58-22.47-7.22-33.63-11.15Z" transform="translate(-76.81 0.06)"/><polygon class="cls-2" points="33.31 329.54 14.04 316.01 18.01 313.21 32.06 323.37 27.02 306.84 30.9 304.1 37.21 326.78 33.31 329.54"/><polygon class="cls-4" points="33.31 329.54 14.04 316.01 18.01 313.21 32.06 323.37 27.02 306.84 30.9 304.1 37.21 326.78 33.31 329.54"/><polygon class="cls-2" points="54.05 314.89 41.26 296.78 54.68 287.3 56.84 290.36 47.07 297.26 49.91 301.27 59 294.85 61.16 297.9 52.07 304.32 55.55 309.25 65.66 302.11 67.82 305.16 54.05 314.89"/><polygon class="cls-4" points="54.05 314.89 41.26 296.78 54.68 287.3 56.84 290.36 47.07 297.26 49.91 301.27 59 294.85 61.16 297.9 52.07 304.32 55.55 309.25 65.66 302.11 67.82 305.16 54.05 314.89"/><path class="cls-2" d="M163.16,282l4.34-1.37a9.64,9.64,0,0,1,.4,6.31,9.41,9.41,0,0,1-3.79,4.84,9.57,9.57,0,0,1-7.67,1.73,11.57,11.57,0,0,1-7.08-5.1q-3.2-4.51-2.63-8.67a9.79,9.79,0,0,1,4.37-6.84,9.27,9.27,0,0,1,6.79-1.85,8.67,8.67,0,0,1,4.2,2l-3,3.42a4.57,4.57,0,0,0-6-.34,5,5,0,0,0-2.24,3.75c-.16,1.55.53,3.41,2.05,5.57s3.18,3.63,4.69,4a4.91,4.91,0,0,0,4.24-.81,4.49,4.49,0,0,0,1.86-2.69,6.6,6.6,0,0,0-.56-4Z" transform="translate(-76.81 0.06)"/><path class="cls-4" d="M163.16,282l4.34-1.37a9.64,9.64,0,0,1,.4,6.31,9.41,9.41,0,0,1-3.79,4.84,9.57,9.57,0,0,1-7.67,1.73,11.57,11.57,0,0,1-7.08-5.1q-3.2-4.51-2.63-8.67a9.79,9.79,0,0,1,4.37-6.84,9.27,9.27,0,0,1,6.79-1.85,8.67,8.67,0,0,1,4.2,2l-3,3.42a4.57,4.57,0,0,0-6-.34,5,5,0,0,0-2.24,3.75c-.16,1.55.53,3.41,2.05,5.57s3.18,3.63,4.69,4a4.91,4.91,0,0,0,4.24-.81,4.49,4.49,0,0,0,1.86-2.69,6.6,6.6,0,0,0-.56-4Z" transform="translate(-76.81 0.06)"/><polygon class="cls-2" points="106.15 278.07 93.36 259.97 97.01 257.38 109.81 275.49 106.15 278.07"/><polygon class="cls-5" points="106.15 278.07 93.36 259.97 97.01 257.38 109.81 275.49 106.15 278.07"/><polygon class="cls-2" points="121.97 266.89 109.18 248.79 112.74 246.28 128.69 253.13 120.15 241.04 123.54 238.64 136.34 256.75 132.67 259.34 117.02 252.69 125.37 264.5 121.97 266.89"/><polygon class="cls-4" points="121.97 266.89 109.18 248.79 112.74 246.28 128.69 253.13 120.15 241.04 123.54 238.64 136.34 256.75 132.67 259.34 117.02 252.69 125.37 264.5 121.97 266.89"/><path class="cls-2" d="M218.58,230.3l8.47,12,2.73-1.93a12.42,12.42,0,0,0,2.09-1.73,4.12,4.12,0,0,0,.94-1.8,4.63,4.63,0,0,0-.27-2.42,14.56,14.56,0,0,0-2-3.58,13.05,13.05,0,0,0-2.65-3,4.91,4.91,0,0,0-2.27-1,4.29,4.29,0,0,0-2.3.34,21.13,21.13,0,0,0-3.12,1.95l-1.64,1.16Zm-5.82-.48,6.68-4.72a16,16,0,0,1,3.69-2.09,7.39,7.39,0,0,1,3.9-.26,9.63,9.63,0,0,1,3.81,1.71,16.2,16.2,0,0,1,3.61,3.86,14.39,14.39,0,0,1,2.17,4.25,9.63,9.63,0,0,1,.32,4.56,7.73,7.73,0,0,1-1.54,3.26,13.45,13.45,0,0,1-3,2.67l-6.88,4.86-12.79-18.1Z" transform="translate(-76.81 0.06)"/><path class="cls-4" d="M218.58,230.3l8.47,12,2.73-1.93a12.42,12.42,0,0,0,2.09-1.73,4.12,4.12,0,0,0,.94-1.8,4.63,4.63,0,0,0-.27-2.42,14.56,14.56,0,0,0-2-3.58,13.05,13.05,0,0,0-2.65-3,4.91,4.91,0,0,0-2.27-1,4.29,4.29,0,0,0-2.3.34,21.13,21.13,0,0,0-3.12,1.95l-1.64,1.16Zm-5.82-.48,6.68-4.72a16,16,0,0,1,3.69-2.09,7.39,7.39,0,0,1,3.9-.26,9.63,9.63,0,0,1,3.81,1.71,16.2,16.2,0,0,1,3.61,3.86,14.39,14.39,0,0,1,2.17,4.25,9.63,9.63,0,0,1,.32,4.56,7.73,7.73,0,0,1-1.54,3.26,13.45,13.45,0,0,1-3,2.67l-6.88,4.86-12.79-18.1Z" transform="translate(-76.81 0.06)"/><path class="cls-2" d="M256.87,215.05l-7.24-5,2.3,8.45,4.94-3.5Zm11.79,2.41-4,2.81-4.48-3L253,222.39l1.41,5.17-3.88,2.74-5.74-23.09,3.87-2.73,20,13Z" transform="translate(-76.81 0.06)"/><path class="cls-4" d="M256.87,215.05l-7.24-5,2.3,8.45,4.94-3.5Zm11.79,2.41-4,2.81-4.48-3L253,222.39l1.41,5.17-3.88,2.74-5.74-23.09,3.87-2.73,20,13Z" transform="translate(-76.81 0.06)"/><path class="cls-2" d="M275.44,197l2.71-1.91a17.42,17.42,0,0,0,3.13-2.55,2.39,2.39,0,0,0,.48-1.49,2.88,2.88,0,0,0-.59-1.62,2.67,2.67,0,0,0-1.53-1.13,2.78,2.78,0,0,0-1.88.26c-.33.17-1.23.78-2.71,1.83l-2.85,2,3.24,4.6Zm3.73,13-12.79-18.11,7.69-5.43a16.43,16.43,0,0,1,4.56-2.5,5.11,5.11,0,0,1,3.33.25,6.41,6.41,0,0,1,2.81,2.3,5.92,5.92,0,0,1,1.18,4.21,7,7,0,0,1-2.39,4.2,10.29,10.29,0,0,1,3,.14,26.18,26.18,0,0,1,4.16,1.47l4.7,2-4.37,3.09-5.43-2.07a29.49,29.49,0,0,0-3.81-1.3,3.31,3.31,0,0,0-1.63,0,7.33,7.33,0,0,0-2,1.1l-.75.52,5.35,7.56L279.17,210Z" transform="translate(-76.81 0.06)"/><path class="cls-4" d="M275.44,197l2.71-1.91a17.42,17.42,0,0,0,3.13-2.55,2.39,2.39,0,0,0,.48-1.49,2.88,2.88,0,0,0-.59-1.62,2.67,2.67,0,0,0-1.53-1.13,2.78,2.78,0,0,0-1.88.26c-.33.17-1.23.78-2.71,1.83l-2.85,2,3.24,4.6Zm3.73,13-12.79-18.11,7.69-5.43a16.43,16.43,0,0,1,4.56-2.5,5.11,5.11,0,0,1,3.33.25,6.41,6.41,0,0,1,2.81,2.3,5.92,5.92,0,0,1,1.18,4.21,7,7,0,0,1-2.39,4.2,10.29,10.29,0,0,1,3,.14,26.18,26.18,0,0,1,4.16,1.47l4.7,2-4.37,3.09-5.43-2.07a29.49,29.49,0,0,0-3.81-1.3,3.31,3.31,0,0,0-1.63,0,7.33,7.33,0,0,0-2,1.1l-.75.52,5.35,7.56L279.17,210Z" transform="translate(-76.81 0.06)"/><polygon class="cls-2" points="229.02 191.25 216.23 173.15 219.88 170.57 232.67 188.67 229.02 191.25"/><polygon class="cls-4" points="229.02 191.25 216.23 173.15 219.88 170.57 232.67 188.67 229.02 191.25"/><path class="cls-2" d="M318.15,168.91a8.32,8.32,0,0,0,4.71,3.66,5.66,5.66,0,0,0,4.73-1,5.6,5.6,0,0,0,2.47-4.11c.2-1.71-.45-3.62-1.93-5.72s-3-3.3-4.65-3.68a5.67,5.67,0,0,0-4.71,1,5.75,5.75,0,0,0-2.55,4.13c-.18,1.68.46,3.57,1.93,5.65Zm-3.68,2.79a14.35,14.35,0,0,1-2.46-5.23,10.34,10.34,0,0,1-.06-3.68,8.52,8.52,0,0,1,1.19-3.28,12.09,12.09,0,0,1,3.39-3.47,10.42,10.42,0,0,1,8.16-2q4.15.8,7.28,5.21t2.47,8.54a11.68,11.68,0,0,1-12.79,9.06q-4.12-.78-7.18-5.1Z" transform="translate(-76.81 0.06)"/><path class="cls-4" d="M318.15,168.91a8.32,8.32,0,0,0,4.71,3.66,5.66,5.66,0,0,0,4.73-1,5.6,5.6,0,0,0,2.47-4.11c.2-1.71-.45-3.62-1.93-5.72s-3-3.3-4.65-3.68a5.67,5.67,0,0,0-4.71,1,5.75,5.75,0,0,0-2.55,4.13c-.18,1.68.46,3.57,1.93,5.65Zm-3.68,2.79a14.35,14.35,0,0,1-2.46-5.23,10.34,10.34,0,0,1-.06-3.68,8.52,8.52,0,0,1,1.19-3.28,12.09,12.09,0,0,1,3.39-3.47,10.42,10.42,0,0,1,8.16-2q4.15.8,7.28,5.21t2.47,8.54a11.68,11.68,0,0,1-12.79,9.06q-4.12-.78-7.18-5.1Z" transform="translate(-76.81 0.06)"/><path class="cls-2" d="M109.76,240.47l3-2.15,9.5,13.45q2.2,3.14,3,4a5.81,5.81,0,0,0,2.75,1.86,3.08,3.08,0,0,0,2.64-.51,2.9,2.9,0,0,0,1.26-1.85,4,4,0,0,0-.33-2.4,36.14,36.14,0,0,0-3.17-5l-9.7-13.73,3-2.15L131,245a57.11,57.11,0,0,1,4.71,7.51,8,8,0,0,1,.77,4.86,6,6,0,0,1-2.68,4,6.64,6.64,0,0,1-4.48,1.45,8,8,0,0,1-4.19-1.86q-2.06-1.65-6-7.22l-9.36-13.24Z" transform="translate(-76.81 0.06)"/><path class="cls-4" d="M109.76,240.47l3-2.15,9.5,13.45q2.2,3.14,3,4a5.81,5.81,0,0,0,2.75,1.86,3.08,3.08,0,0,0,2.64-.51,2.9,2.9,0,0,0,1.26-1.85,4,4,0,0,0-.33-2.4,36.14,36.14,0,0,0-3.17-5l-9.7-13.73,3-2.15L131,245a57.11,57.11,0,0,1,4.71,7.51,8,8,0,0,1,.77,4.86,6,6,0,0,1-2.68,4,6.64,6.64,0,0,1-4.48,1.45,8,8,0,0,1-4.19-1.86q-2.06-1.65-6-7.22l-9.36-13.24Z" transform="translate(-76.81 0.06)"/><polygon class="cls-2" points="70.15 251.44 66.79 246.68 69.69 244.64 73.05 249.4 70.15 251.44"/><polygon class="cls-4" points="70.15 251.44 66.79 246.68 69.69 244.64 73.05 249.4 70.15 251.44"/><path class="cls-2" d="M210.58,175.52,222.2,192l2.28-1.62a5.65,5.65,0,0,0,1.86-1.87,3.47,3.47,0,0,0,.28-1.89,9.93,9.93,0,0,0-1-2.87,33.33,33.33,0,0,0-2.75-4.48,32.89,32.89,0,0,0-3.35-4.15,8.26,8.26,0,0,0-2.65-1.88,3.44,3.44,0,0,0-2.3-.18,10.84,10.84,0,0,0-2.62,1.52l-1.38,1Zm-6-2.05,5.55-3.92a7.64,7.64,0,0,1,3.63-1.61,7.17,7.17,0,0,1,3.48.74,15.91,15.91,0,0,1,4.18,2.91,36.5,36.5,0,0,1,4.74,5.62,31.3,31.3,0,0,1,3.41,6,16.09,16.09,0,0,1,1.3,4.73,7.23,7.23,0,0,1-.52,3.51,7.1,7.1,0,0,1-2.52,2.83l-5.71,4-17.54-24.82Z" transform="translate(-76.81 0.06)"/><path class="cls-4" d="M210.58,175.52,222.2,192l2.28-1.62a5.65,5.65,0,0,0,1.86-1.87,3.47,3.47,0,0,0,.28-1.89,9.93,9.93,0,0,0-1-2.87,33.33,33.33,0,0,0-2.75-4.48,32.89,32.89,0,0,0-3.35-4.15,8.26,8.26,0,0,0-2.65-1.88,3.44,3.44,0,0,0-2.3-.18,10.84,10.84,0,0,0-2.62,1.52l-1.38,1Zm-6-2.05,5.55-3.92a7.64,7.64,0,0,1,3.63-1.61,7.17,7.17,0,0,1,3.48.74,15.91,15.91,0,0,1,4.18,2.91,36.5,36.5,0,0,1,4.74,5.62,31.3,31.3,0,0,1,3.41,6,16.09,16.09,0,0,1,1.3,4.73,7.23,7.23,0,0,1-.52,3.51,7.1,7.1,0,0,1-2.52,2.83l-5.71,4-17.54-24.82Z" transform="translate(-76.81 0.06)"/><polygon class="cls-2" points="165 184.43 161.64 179.67 164.54 177.62 167.9 182.38 165 184.43"/><polygon class="cls-4" points="165 184.43 161.64 179.67 164.54 177.62 167.9 182.38 165 184.43"/><path class="cls-2" d="M231.53,107.79l3,.92a6.74,6.74,0,0,1-2.28,3.73,7.18,7.18,0,0,1-9-.86,7.93,7.93,0,0,1-2-5.66,8.32,8.32,0,0,1,2-5.91,6.74,6.74,0,0,1,5.16-2.1,6.36,6.36,0,0,1,4.54,1.64,5.86,5.86,0,0,1,1.56,2.8l-3,.73a3.2,3.2,0,0,0-1.13-1.87,3.28,3.28,0,0,0-2.09-.68,3.45,3.45,0,0,0-2.75,1.22,6,6,0,0,0-1.06,3.94,6.42,6.42,0,0,0,1,4.12,3.42,3.42,0,0,0,2.71,1.22,3.08,3.08,0,0,0,2.11-.78,4.49,4.49,0,0,0,1.27-2.46Z" transform="translate(-76.81 0.06)"/><polygon class="cls-2" points="160.4 113.44 160.4 98.39 163.48 98.39 163.48 110.86 171.11 110.86 171.11 113.44 160.4 113.44"/><path class="cls-2" d="M250.1,98.21h3.08v8.25a16.14,16.14,0,0,0,.12,2.54,2.51,2.51,0,0,0,.92,1.51,3.25,3.25,0,0,0,2,.56,3,3,0,0,0,1.94-.53,2.13,2.13,0,0,0,.79-1.32,17.33,17.33,0,0,0,.13-2.59V98.21h3.09v8a21.18,21.18,0,0,1-.25,3.88A4.41,4.41,0,0,1,261,112a4.66,4.66,0,0,1-1.79,1.24,7.64,7.64,0,0,1-2.91.46,8.53,8.53,0,0,1-3.29-.5,4.81,4.81,0,0,1-1.76-1.31,4.18,4.18,0,0,1-.86-1.69,18.53,18.53,0,0,1-.3-3.86V98.21Z" transform="translate(-76.81 0.06)"/><path class="cls-2" d="M268.51,106.86v3.94h2.82a14.2,14.2,0,0,0,2.1-.09,1.83,1.83,0,0,0,1.11-.59,1.74,1.74,0,0,0,.43-1.25,1.86,1.86,0,0,0-.33-1.12,1.82,1.82,0,0,0-.95-.68,10.73,10.73,0,0,0-2.71-.21Zm0-6.07v3.48h2c1.18,0,1.92,0,2.2,0a2,2,0,0,0,1.23-.54,1.6,1.6,0,0,0,.44-1.17,1.64,1.64,0,0,0-.38-1.14,1.8,1.8,0,0,0-1.14-.53c-.31,0-1.17,0-2.6,0Zm-3.09-2.58h6.05a17.36,17.36,0,0,1,2.68.15,3.87,3.87,0,0,1,1.58.63,3.78,3.78,0,0,1,1.16,1.28,3.49,3.49,0,0,1,.47,1.79,3.62,3.62,0,0,1-.57,2,3.48,3.48,0,0,1-1.53,1.34,4,4,0,0,1,2.12,1.37,3.69,3.69,0,0,1,.74,2.28,4.49,4.49,0,0,1-.48,2,4.14,4.14,0,0,1-1.31,1.55,4.36,4.36,0,0,1-2.06.72c-.51,0-1.74.09-3.69.1h-5.16V98.21Z" transform="translate(-76.81 0.06)"/><path class="cls-6" d="M171.24,164.43A35.4,35.4,0,1,1,130,193a35.53,35.53,0,0,1,41.24-28.53Z" transform="translate(-76.81 0.06)"/><path class="cls-7" d="M171.46,163.14h0A35.51,35.51,0,0,1,178,165l.21.09a36.9,36.9,0,0,1,16.93,13.39,36.38,36.38,0,0,1,6.34,23.24l-2.45-.94a34.81,34.81,0,0,0-6.1-20.92A34,34,0,0,0,171,165.7h0c-.83-.14-1.69-.3-2.44-.41-2.7,1.87-4.31,4.1-4.72,6.54-.61,2.4-.07,5.18,1.45,8.29,10.08.95,17,4.29,22.19,9.38a38.91,38.91,0,0,1,6.63,9.35l-3.77-1.44a31.69,31.69,0,0,0-4.69-6c-4.79-4.74-11.2-7.84-20.66-8.82a12.75,12.75,0,0,0-2,4.36l-2.42-.92a13.14,13.14,0,0,1,2.31-4.87c-1.71-3.57-2.34-6.78-1.64-9.77a12,12,0,0,1,3.5-6.19,34.31,34.31,0,0,0-18.19,5.3v.13s0,.16-.05.29a8.89,8.89,0,0,0-.49,1.83c-.6,2.48-1.1,4.85-1.46,7.15l-2.51-1c.32-1.93.75-3.93,1.24-5.93a35.89,35.89,0,0,0-4.71,4.6l-2.57-1a37.29,37.29,0,0,1,8-7.49,36.54,36.54,0,0,1,27.49-6Zm-26.54,33L142,195a26.59,26.59,0,0,1-.53-3.73,44.66,44.66,0,0,1,.57-12.32l2.51,1A44.78,44.78,0,0,0,144,191a25.67,25.67,0,0,0,.91,5.14Zm32.86,12.56-2.75-1a12.53,12.53,0,0,0-2.47-5.53,13.36,13.36,0,0,0-7.08-4.42A19.38,19.38,0,0,1,164,203.4l-2.45-.93a16.71,16.71,0,0,0,1.43-6,12.68,12.68,0,0,1-2.76-7.63,10.32,10.32,0,0,1,.29-2.83l2.42.92a7.86,7.86,0,0,0-.17,1.79,12,12,0,0,0,2.17,6.16,16.48,16.48,0,0,1,9.54,5.47,16.17,16.17,0,0,1,3.27,8.3Zm-48.5-18.55A36.67,36.67,0,0,1,136,176.62l2.57,1a33.68,33.68,0,0,0-6.79,13.46l-2.47-.95Zm72.19,11.55a35.49,35.49,0,0,1-.52,4.22h0a36.53,36.53,0,0,1-3.5,10.3l-2.44-.93a30.38,30.38,0,0,0,1.65-3.62h0a70,70,0,0,0-6.33-14.23l3.76,1.45a82.56,82.56,0,0,1,3.87,8.87c.16-.87.42-1.56.55-2.26h0a28.49,28.49,0,0,0,.51-4.73l2.45.93Zm-53.25,1-4-1.52A24.2,24.2,0,0,1,142,195l2.95,1.13a21,21,0,0,0,3.3,6.59Zm12.24,4.69-4-1.52a5.69,5.69,0,0,0,2.92-.86,6.35,6.35,0,0,0,2.17-2.53l2.45.94a8.32,8.32,0,0,1-3.23,3.77,2.08,2.08,0,0,1-.35.2Zm26.76,10.23-4.45-1.7a13.9,13.9,0,0,0-5.34-3,8,8,0,0,1-.57.77l-2.57-1,1.09-1.5a21,21,0,0,0-.35-3.56l2.75,1c.08.51.1,1.06.13,1.62a15.36,15.36,0,0,1,8.2,5.5,10.88,10.88,0,0,1,1.11,1.83ZM128.36,195.1c.06-.8.19-1.57.33-2.37h0c.16-.9.36-1.78.59-2.62l2.47.95c-.19.68-.33,1.41-.48,2.14h0c-.16,1-.28,1.92-.38,2.87l-2.53-1Zm69.09,21.08a36.8,36.8,0,0,1-2.64,4.33l-2.54-1a30.83,30.83,0,0,0,2.74-4.29l2.44.93Zm-48.5-6.8-2.42-.93a22.81,22.81,0,0,0,1.12-2.47,22.23,22.23,0,0,1-3.44-4.81l4,1.52a15.38,15.38,0,0,0,1.13,1.36l.42.23a16.14,16.14,0,0,0,6.73,1.58l4,1.52c-2.63,1.52-6.08,1.4-10.48-.25-.34.8-.67,1.57-1,2.25Zm23.8,9.1-2.68-1a39,39,0,0,0,4.22-4.78l2.57,1a43.2,43.2,0,0,1-4.11,4.83Zm-44.56-17a35.42,35.42,0,0,1,.17-6.34l2.53,1a35.09,35.09,0,0,0,0,6.4l-2.69-1Zm66.62,19.07a35.16,35.16,0,0,1-4.08,4.85l-4.57-1.75a11.93,11.93,0,0,0-2.11-6.29,11.47,11.47,0,0,0-1.28-1.41l4.45,1.7a15.36,15.36,0,0,1,1.45,6.07,32.87,32.87,0,0,0,3.6-4.14l2.54,1Zm-4.08,4.85a37.85,37.85,0,0,1-4.86,4,36.56,36.56,0,0,1-27.52,6h0a34.62,34.62,0,0,1-6.53-1.81l-.2-.08a36.64,36.64,0,0,1-16.9-13.37,37,37,0,0,1-6.53-18.66l2.69,1a33.69,33.69,0,0,0,2.23,9.31c3.47,2.11,6.34,2.66,8.76,1.6,1.74-.7,3.31-2.36,4.66-4.93l2.42.93c-1.66,3.27-3.64,5.39-6,6.42a9.51,9.51,0,0,1-7.94-.27,19.57,19.57,0,0,0,1.93,3.17,33.25,33.25,0,0,0,5.68,6.39,29.22,29.22,0,0,0,5.09.47,24.45,24.45,0,0,0,5.07-.12,28.52,28.52,0,0,0,17.33-8l2.69,1A32.17,32.17,0,0,1,153,228a33.62,33.62,0,0,1-5.51.18,1.65,1.65,0,0,0-.76,0,36.54,36.54,0,0,0,12.08,4.58h0a34.12,34.12,0,0,0,25.48-5.48c.68-.46,1.4-1.08,2.06-1.54l-.13,0c0-.74,0-1.48-.07-2.15l4.57,1.75Z" transform="translate(-76.81 0.06)"/></svg>