<svg id="Capa_1" data-name="Capa 1" xmlns="http://www.w3.org/2000/svg" viewBox="0 0 578.72 578.72"><defs><style>.cls-1,.cls-13{fill:#1d1d1b;}.cls-2{fill:#c89852;}.cls-3{fill:#dfc295;}.cls-4,.cls-7{fill:#fce259;}.cls-10,.cls-11,.cls-12,.cls-4,.cls-7,.cls-8,.cls-9{stroke:#1d1d1b;}.cls-10,.cls-12,.cls-4,.cls-7,.cls-8,.cls-9{stroke-miterlimit:2.61;}.cls-4,.cls-8,.cls-9{stroke-width:2.7px;}.cls-11,.cls-12,.cls-5,.cls-9{fill:#fff;}.cls-6{fill:#1081c5;}.cls-7{stroke-width:2.72px;}.cls-10,.cls-8{fill:none;}.cls-10{stroke-width:2.92px;}.cls-11{stroke-linejoin:round;stroke-width:2.21px;}.cls-12{stroke-width:3.52px;}.cls-13{font-size:39.73px;font-family:TimesNewRomanPS-BoldMT, Times New Roman;font-weight:700;}</style></defs><path class="cls-1" d="M297.64,131.58C137.83,131.58,8.28,261.14,8.28,420.94S137.83,710.31,297.64,710.31,587,580.75,587,420.94,457.45,131.58,297.64,131.58Zm0,515.77c-124.85,0-226.41-101.56-226.41-226.41s101.56-226.4,226.41-226.4S524.05,296.1,524.05,420.94,422.48,647.35,297.64,647.35Z" transform="translate(-8.28 -131.58)"/><path class="cls-2" d="M496.78,221.8a281.63,281.63,0,1,0,82.49,199.14A279.8,279.8,0,0,0,496.78,221.8ZM297.64,654c-128.5,0-233-104.54-233-233s104.54-233,233-233,233,104.54,233,233-104.54,233-233,233Z" transform="translate(-8.28 -131.58)"/><path class="cls-2" d="M297.64,194.54c-124.85,0-226.41,101.56-226.41,226.4S172.79,647.35,297.64,647.35,524.05,545.79,524.05,420.94s-101.57-226.4-226.41-226.4Zm0,442.87c-119.36,0-216.47-97.1-216.47-216.47s97.11-216.46,216.47-216.46,216.47,97.1,216.47,216.46S417,637.41,297.64,637.41Z" transform="translate(-8.28 -131.58)"/><path class="cls-1" d="M297.64,204.48c-119.36,0-216.47,97.1-216.47,216.46s97.11,216.47,216.47,216.47,216.47-97.1,216.47-216.47S417,204.48,297.64,204.48Zm0,429.62c-117.54,0-213.16-95.62-213.16-213.16S180.1,207.79,297.64,207.79s213.15,95.62,213.15,213.15S415.17,634.1,297.64,634.1Z" transform="translate(-8.28 -131.58)"/><path class="cls-3" d="M297.64,207.79c-117.54,0-213.16,95.62-213.16,213.15S180.1,634.1,297.64,634.1s213.15-95.62,213.15-213.16S415.17,207.79,297.64,207.79Zm0,410.85c-109,0-197.7-88.69-197.7-197.7s88.69-197.69,197.7-197.69,197.69,88.69,197.69,197.69-88.68,197.7-197.69,197.7Z" transform="translate(-8.28 -131.58)"/><path class="cls-1" d="M297.64,223.25c-109,0-197.7,88.69-197.7,197.69s88.69,197.7,197.7,197.7S495.33,530,495.33,420.94,406.65,223.25,297.64,223.25Zm0,394.29c-108.4,0-196.59-88.2-196.59-196.6s88.19-196.58,196.59-196.58,196.59,88.19,196.59,196.58S406,617.54,297.64,617.54Z" transform="translate(-8.28 -131.58)"/><path class="cls-3" d="M101.05,420.94c0,108.4,88.19,196.6,196.59,196.6s196.59-88.2,196.59-196.6S406,224.36,297.64,224.36,101.05,312.55,101.05,420.94Z" transform="translate(-8.28 -131.58)"/><path class="cls-4" d="M480.46,434.75H114.82q-.51-6.84-.52-13.81c0-2.09,0-4.18.11-6.25H480.87q.11,3.12.1,6.25,0,7-.51,13.81Z" transform="translate(-8.28 -131.58)"/><path class="cls-1" d="M297.78,254.17c-72.47,0-131.43,59-131.43,131.43S225.31,517,297.78,517s131.42-59,131.42-131.43S370.25,254.17,297.78,254.17Zm0,230.83a99.4,99.4,0,1,1,99.39-99.4A99.51,99.51,0,0,1,297.78,485Z" transform="translate(-8.28 -131.58)"/><path class="cls-5" d="M297.78,258.59a127,127,0,1,0,127,127,127.15,127.15,0,0,0-127-127Zm0,230.83A103.82,103.82,0,1,1,401.59,385.6,103.93,103.93,0,0,1,297.78,489.42Z" transform="translate(-8.28 -131.58)"/><path class="cls-1" d="M235.79,314.92V438.06s21.54,38.66,61.85,38.66,61.85-38.66,61.85-38.66V314.92Zm109.34,119c-5.32,7.72-22,28.49-47.49,28.49s-42.18-20.77-47.49-28.49V329.28h95V433.87Z" transform="translate(-8.28 -131.58)"/><path class="cls-3" d="M238,317.13V437.46c2.61,4.34,23.5,37.05,59.64,37.05s57-32.71,59.64-37.05V317.13ZM347.34,434.54c-5,7.49-22.47,30-49.7,30s-44.66-22.54-49.7-30V327.07h99.4V434.54Z" transform="translate(-8.28 -131.58)"/><path class="cls-6" d="M250.15,329.28V433.87c5.31,7.72,22,28.49,47.49,28.49s42.17-20.77,47.49-28.49V329.28Z" transform="translate(-8.28 -131.58)"/><path class="cls-1" d="M208.78,445.55l-15.06,2.53-1-1.78L202,434.06l1.09,1.85-2.89,3.6,3,5.18,4.5-.87,1,1.73Zm-7.09-.55-2.5-4.23-2.64,3.31q-1.22,1.49-2,2.4a23.33,23.33,0,0,1,2.76-.73l4.42-.75Z" transform="translate(-8.28 -131.58)"/><path class="cls-1" d="M197.74,424.37l-13.54,4.45-1.53-4.65a11.59,11.59,0,0,1-.6-2.48,4.87,4.87,0,0,1,.32-2.3,5.75,5.75,0,0,1,1.79-2.36,9.6,9.6,0,0,1,3-1.59,9.88,9.88,0,0,1,2.85-.54,6.88,6.88,0,0,1,2.28.28A5.19,5.19,0,0,1,194,416a5.25,5.25,0,0,1,1.21,1.4,9.69,9.69,0,0,1,.95,2.09l1.6,4.88Zm-2.2-1.27-.95-2.89a7,7,0,0,0-.94-2,3.17,3.17,0,0,0-1.1-1,4.64,4.64,0,0,0-2-.43,8.7,8.7,0,0,0-2.72.51,6.46,6.46,0,0,0-3,1.77,3.72,3.72,0,0,0-1,2.19,7.54,7.54,0,0,0,.49,2.4l.93,2.84,10.33-3.39Z" transform="translate(-8.28 -131.58)"/><path class="cls-1" d="M183.52,387.05a7.74,7.74,0,0,1-5.46-2.16,6.49,6.49,0,0,1-1.78-5,6.81,6.81,0,0,1,1.11-3.51,6.14,6.14,0,0,1,2.74-2.29,8.61,8.61,0,0,1,3.85-.66,8.37,8.37,0,0,1,3.83,1.06,6,6,0,0,1,2.48,2.59,7.15,7.15,0,0,1,.71,3.5,6.76,6.76,0,0,1-1.13,3.55,6.26,6.26,0,0,1-2.76,2.28,8,8,0,0,1-3.59.65Zm.11-1.93a5.68,5.68,0,0,0,4.11-1.2,4.86,4.86,0,0,0,.31-7,6,6,0,0,0-4.17-1.58,7.37,7.37,0,0,0-3.06.45,4.61,4.61,0,0,0-2.09,1.63,4.79,4.79,0,0,0-.83,2.52,4.85,4.85,0,0,0,1.22,3.51q1.31,1.52,4.51,1.66Z" transform="translate(-8.28 -131.58)"/><path class="cls-1" d="M193,362.37l-13.73-3.81,1.68-6.08a8.09,8.09,0,0,1,1.15-2.67,3.1,3.1,0,0,1,1.73-1.16,4.16,4.16,0,0,1,2.24,0,3.62,3.62,0,0,1,2.21,1.63,4.91,4.91,0,0,1,.47,3.26,4.89,4.89,0,0,1,1-.91,10.08,10.08,0,0,1,2.24-1l4.38-1.33-.63,2.26-3.35,1c-1,.3-1.71.56-2.24.78A4.57,4.57,0,0,0,189,355a3.11,3.11,0,0,0-.6.73,5,5,0,0,0-.34,1l-.59,2.1,6.09,1.69-.51,1.83Zm-7.14-3.95,1.08-3.89a6.09,6.09,0,0,0,.28-2,2.14,2.14,0,0,0-.53-1.29,2.35,2.35,0,0,0-1.14-.71,2.15,2.15,0,0,0-1.8.26,3.45,3.45,0,0,0-1.25,2.05l-1.2,4.32,4.56,1.27Z" transform="translate(-8.28 -131.58)"/><path class="cls-1" d="M200.55,340.33l-12.61-6.65,2.49-4.72a6.57,6.57,0,0,1,1.61-2.11,3.39,3.39,0,0,1,1.89-.74,3.55,3.55,0,0,1,1.92.38,3.23,3.23,0,0,1,1.29,1.25,3.54,3.54,0,0,1,.45,1.93,3.73,3.73,0,0,1,2.08-1.15,3.41,3.41,0,0,1,2.23.39,4.07,4.07,0,0,1,1.45,1.24,3.56,3.56,0,0,1,.69,1.54,4.41,4.41,0,0,1-.1,1.71,9.44,9.44,0,0,1-.86,2.14l-2.53,4.79Zm-6.44-5.54,1.43-2.71a6.6,6.6,0,0,0,.69-1.65,2.08,2.08,0,0,0-.12-1.28,2,2,0,0,0-.93-.9,2.3,2.3,0,0,0-1.26-.28,1.66,1.66,0,0,0-1.09.51,7.64,7.64,0,0,0-1.18,1.81l-1.32,2.5,3.78,2Zm5.83,3.07,1.65-3.13a7.7,7.7,0,0,0,.54-1.16,3,3,0,0,0,.16-1.14,2,2,0,0,0-.36-1,2.42,2.42,0,0,0-.94-.81,2.32,2.32,0,0,0-1.42-.28,2.28,2.28,0,0,0-1.26.62,7.16,7.16,0,0,0-1.18,1.72l-1.52,2.9,4.33,2.28Z" transform="translate(-8.28 -131.58)"/><polygon class="cls-1" points="203.9 189.48 192.94 180.36 199.5 172.48 200.8 173.56 195.45 179.99 198.8 182.77 203.81 176.74 205.11 177.82 200.1 183.85 203.81 186.94 209.37 180.25 210.67 181.33 203.9 189.48 203.9 189.48"/><path class="cls-1" d="M227.25,304.74l-8.68-11.3,2.25-1.73,8.8,5.94c.82.55,1.43,1,1.83,1.25-.19-.51-.45-1.26-.78-2.27l-3.3-10,2-1.52L238,296.46l-1.45,1.11-7.27-9.47,4,12-1.33,1L221.3,294l7.4,9.64-1.45,1.11Z" transform="translate(-8.28 -131.58)"/><path class="cls-1" d="M262.2,284.41l-4.09-13.65,5.15-1.54a12.43,12.43,0,0,1,2.12-.49,4.23,4.23,0,0,1,1.87.13,3.55,3.55,0,0,1,1.49,1,4.36,4.36,0,0,1,1,1.74,4.41,4.41,0,0,1-.22,3.28q-.75,1.53-3.64,2.4l-3.49,1,1.66,5.56-1.82.54Zm-.33-7.72,3.53-1.05a4,4,0,0,0,2.29-1.39,2.44,2.44,0,0,0,.19-2.05,2.61,2.61,0,0,0-.87-1.33,2.11,2.11,0,0,0-1.38-.46,7.55,7.55,0,0,0-1.72.38l-3.49,1,1.45,4.86Z" transform="translate(-8.28 -131.58)"/><polygon class="cls-1" points="275.73 147.65 274.57 133.44 284.79 132.62 284.93 134.3 276.6 134.98 276.95 139.31 284.76 138.68 284.9 140.36 277.09 141 277.48 145.81 286.15 145.11 286.29 146.79 275.73 147.65 275.73 147.65"/><path class="cls-1" d="M306.37,278.67l1.87-14.13,6.25.82a8.48,8.48,0,0,1,2.81.76,3.25,3.25,0,0,1,1.38,1.56,4.18,4.18,0,0,1,.3,2.22,3.61,3.61,0,0,1-1.3,2.41,4.93,4.93,0,0,1-3.17.93,4.83,4.83,0,0,1,1,.84,9.62,9.62,0,0,1,1.3,2.08l1.93,4.15-2.34-.31L315,276.83c-.43-.92-.79-1.62-1.08-2.12a4.8,4.8,0,0,0-.82-1.07,2.83,2.83,0,0,0-.8-.49,4.85,4.85,0,0,0-1-.21l-2.15-.28-.83,6.26-1.88-.25Zm2.92-7.62,4,.53a5.88,5.88,0,0,0,2,0,2.09,2.09,0,0,0,1.2-.7,2.33,2.33,0,0,0,.54-1.22,2.15,2.15,0,0,0-.5-1.75,3.4,3.4,0,0,0-2.2-.95l-4.45-.59-.62,4.69Z" transform="translate(-8.28 -131.58)"/><polygon class="cls-1" points="337.95 158.48 343.75 147.34 339.58 145.17 340.37 143.67 350.38 148.88 349.6 150.38 345.43 148.21 339.63 159.36 337.95 158.48 337.95 158.48"/><polygon class="cls-1" points="353.1 167.71 362.1 156.66 370.05 163.13 368.98 164.44 362.5 159.17 359.76 162.54 365.83 167.49 364.76 168.8 358.69 163.85 355.64 167.6 362.38 173.09 361.32 174.4 353.1 167.71 353.1 167.71"/><path class="cls-1" d="M388.11,319.08l.81,1.78a6.37,6.37,0,0,1-4.1.56,5.91,5.91,0,0,1-3.3-2.17,6.67,6.67,0,0,1-1.6-3.5,5.74,5.74,0,0,1,.75-3.41,9.74,9.74,0,0,1,2.51-3,8.37,8.37,0,0,1,3.56-1.76,5.85,5.85,0,0,1,3.47.3,7.14,7.14,0,0,1,2.83,2.16,5.78,5.78,0,0,1,1.39,3.48,5.62,5.62,0,0,1-1.12,3.49l-1.51-1.18a4.43,4.43,0,0,0,.87-2.53,3.84,3.84,0,0,0-.93-2.29,4.57,4.57,0,0,0-2.32-1.64,4.13,4.13,0,0,0-2.62.11,8.62,8.62,0,0,0-2.41,1.37,8.73,8.73,0,0,0-2.14,2.39,4,4,0,0,0-.55,2.55,4.52,4.52,0,0,0,1,2.29,4,4,0,0,0,2.39,1.52,4.66,4.66,0,0,0,3-.54Z" transform="translate(-8.28 -131.58)"/><polygon class="cls-1" points="383.2 201.82 395.99 195.52 396.83 197.22 391.59 199.8 394.86 206.43 400.09 203.85 400.93 205.55 388.14 211.85 387.3 210.15 393.34 207.18 390.08 200.55 384.04 203.52 383.2 201.82 383.2 201.82"/><polygon class="cls-1" points="392.3 223.29 406.15 219.93 406.6 221.8 397.48 231.76 408.38 229.12 408.8 230.86 394.95 234.22 394.49 232.35 403.61 222.39 392.72 225.03 392.3 223.29 392.3 223.29"/><polygon class="cls-1" points="396.39 246.82 410.62 245.99 410.74 247.89 396.51 248.72 396.39 246.82 396.39 246.82"/><path class="cls-1" d="M408.55,403.6l-.7,1.83a6.32,6.32,0,0,1-3.26-2.54,5.78,5.78,0,0,1-.76-3.87,6.69,6.69,0,0,1,1.38-3.6,5.81,5.81,0,0,1,3-1.85,9.68,9.68,0,0,1,3.88-.29,8.54,8.54,0,0,1,3.76,1.31,5.89,5.89,0,0,1,2.2,2.7,7,7,0,0,1,.45,3.52,5.82,5.82,0,0,1-1.52,3.43,5.61,5.61,0,0,1-3.28,1.65l-.21-1.91a4.33,4.33,0,0,0,2.41-1.15,3.75,3.75,0,0,0,1-2.26,4.61,4.61,0,0,0-.45-2.81,4.15,4.15,0,0,0-1.91-1.79,9.15,9.15,0,0,0-5.87-.62,4,4,0,0,0-2.21,1.38,4.55,4.55,0,0,0-1,2.31,4.06,4.06,0,0,0,.58,2.77,4.74,4.74,0,0,0,2.51,1.79Z" transform="translate(-8.28 -131.58)"/><path class="cls-1" d="M401.16,414.51l11.66,9.86-.68,1.94-15.37.79.7-2,4.62-.13,2-5.67-3.57-2.87.66-1.9Zm4.17,5.77-1.62,4.64,4.23-.12c1.28,0,2.33,0,3.16,0a23.45,23.45,0,0,1-2.35-1.63l-3.42-2.89Z" transform="translate(-8.28 -131.58)"/><path class="cls-1" d="M392.22,436.6l12.07,7.57-1.51,2.41-10.32-2.5-2.15-.55c.35.42.86,1,1.53,1.87l6.55,8.18-1.32,2.11L385,448.12l1-1.55,10.12,6.35-7.91-9.87.9-1.43,12.47,3-10.3-6.45,1-1.55Z" transform="translate(-8.28 -131.58)"/><path class="cls-1" d="M198.47,244.89c1.82-1,3.67-2,5.53-3l-3.73-8q-3.28,1.71-6.5,3.54l4.7,7.49Z" transform="translate(-8.28 -131.58)"/><path class="cls-1" d="M207.81,239.93q2.82-1.41,5.68-2.73l-3.31-8.2q-3.36,1.55-6.67,3.2l4.3,7.73Z" transform="translate(-8.28 -131.58)"/><path class="cls-1" d="M189.39,250.33c1.77-1.12,3.57-2.22,5.37-3.29l-4.14-7.81c-2.13,1.26-4.23,2.54-6.31,3.86l5.08,7.24Z" transform="translate(-8.28 -131.58)"/><path class="cls-1" d="M217.4,235.46c1.92-.83,3.86-1.65,5.81-2.43l-2.87-8.37c-2.3.91-4.57,1.87-6.83,2.86l3.89,7.94Z" transform="translate(-8.28 -131.58)"/><path class="cls-1" d="M180.62,256.24c1.71-1.22,3.44-2.4,5.19-3.57l-4.55-7.58c-2,1.37-4.08,2.76-6.09,4.19l5.45,7Z" transform="translate(-8.28 -131.58)"/><path class="cls-1" d="M172.17,262.61q2.47-2,5-3.84l-4.93-7.34c-2,1.47-3.93,3-5.86,4.51l5.8,6.67Z" transform="translate(-8.28 -131.58)"/><path class="cls-1" d="M237.21,228.06c2-.63,4-1.22,6-1.79l-2-8.62c-2.38.67-4.75,1.36-7.1,2.11l3,8.3Z" transform="translate(-8.28 -131.58)"/><path class="cls-1" d="M268.13,221c2.08-.3,4.16-.57,6.26-.81l-.61-8.83q-3.69.42-7.34,1l1.69,8.68Z" transform="translate(-8.28 -131.58)"/><path class="cls-1" d="M257.71,222.8q3.07-.62,6.2-1.14l-1.07-8.78c-2.44.41-4.87.85-7.28,1.34l2.15,8.58Z" transform="translate(-8.28 -131.58)"/><path class="cls-1" d="M278.64,219.73c2.09-.19,4.18-.35,6.29-.49l-.15-8.84q-3.7.22-7.38.57l1.24,8.76Z" transform="translate(-8.28 -131.58)"/><path class="cls-1" d="M247.39,225.16c2-.52,4.08-1,6.14-1.46L252,215c-2.42.53-4.82,1.09-7.2,1.71l2.59,8.46Z" transform="translate(-8.28 -131.58)"/><path class="cls-1" d="M156.32,276.6q2.25-2.21,4.56-4.33l-5.67-6.78c-1.82,1.66-3.6,3.36-5.36,5.09l6.47,6Z" transform="translate(-8.28 -131.58)"/><path class="cls-1" d="M227.21,231.5q2.94-1.09,5.94-2.12l-2.43-8.5c-2.34.79-4.67,1.62-7,2.49l3.46,8.13Z" transform="translate(-8.28 -131.58)"/><path class="cls-1" d="M100.39,376.83c.46-2.05.94-4.1,1.46-6.13l-8.46-2.6q-.92,3.58-1.71,7.2l8.71,1.53Z" transform="translate(-8.28 -131.58)"/><path class="cls-1" d="M98.36,387.22c.35-2.08.72-4.15,1.13-6.21l-8.58-2.14q-.73,3.61-1.33,7.28l8.78,1.07Z" transform="translate(-8.28 -131.58)"/><path class="cls-1" d="M95.94,408.23c.13-2.1.29-4.2.49-6.28l-8.76-1.24q-.36,3.68-.58,7.38l8.85.14Z" transform="translate(-8.28 -131.58)"/><path class="cls-1" d="M289.2,219c2.09-.08,4.19-.14,6.3-.16l.32-8.84q-3.72,0-7.4.19l.78,8.81Z" transform="translate(-8.28 -131.58)"/><path class="cls-1" d="M96.87,397.69c.24-2.09.51-4.18.82-6.25L89,389.74c-.36,2.44-.67,4.89-1,7.34l8.82.61Z" transform="translate(-8.28 -131.58)"/><path class="cls-1" d="M149,284.19c1.42-1.54,2.87-3.06,4.33-4.56l-6-6.47q-2.6,2.64-5.09,5.35l6.78,5.68Z" transform="translate(-8.28 -131.58)"/><path class="cls-1" d="M434.39,272.27c1.55,1.42,3.06,2.86,4.56,4.33l6.47-6c-1.75-1.73-3.54-3.43-5.35-5.09l-5.68,6.78Z" transform="translate(-8.28 -131.58)"/><path class="cls-1" d="M473.69,321.77c1,1.83,2,3.67,3,5.54l8-3.74c-1.14-2.18-2.32-4.35-3.53-6.49l-7.5,4.69Z" transform="translate(-8.28 -131.58)"/><path class="cls-1" d="M468.25,312.7q1.68,2.66,3.29,5.37l7.81-4.14c-1.25-2.13-2.53-4.23-3.86-6.31l-7.24,5.08Z" transform="translate(-8.28 -131.58)"/><path class="cls-1" d="M478.65,331.11q1.41,2.82,2.73,5.69l8.2-3.31q-1.53-3.37-3.2-6.67l-7.73,4.29Z" transform="translate(-8.28 -131.58)"/><path class="cls-1" d="M456,295.48c1.3,1.64,2.58,3.31,3.84,5l7.33-4.94q-2.2-3-4.51-5.85l-6.66,5.8Z" transform="translate(-8.28 -131.58)"/><path class="cls-1" d="M462.34,303.93c1.22,1.71,2.4,3.44,3.57,5.19l7.58-4.55c-1.37-2.05-2.76-4.09-4.19-6.09l-7,5.45Z" transform="translate(-8.28 -131.58)"/><path class="cls-1" d="M299.78,218.86c2.11,0,4.21.08,6.3.16l.78-8.81c-2.46-.11-4.92-.17-7.4-.19l.32,8.84Z" transform="translate(-8.28 -131.58)"/><path class="cls-1" d="M483.12,340.7q1.26,2.9,2.43,5.82l8.37-2.87c-.91-2.3-1.87-4.57-2.86-6.83l-7.94,3.88Z" transform="translate(-8.28 -131.58)"/><path class="cls-1" d="M449.18,287.38q2.08,2.36,4.1,4.77l7.07-5.32c-1.57-1.9-3.18-3.76-4.81-5.6l-6.36,6.15Z" transform="translate(-8.28 -131.58)"/><path class="cls-1" d="M498.85,402c.19,2.08.36,4.18.49,6.28l8.84-.14q-.23-3.7-.57-7.38L498.85,402Z" transform="translate(-8.28 -131.58)"/><path class="cls-1" d="M487.08,350.51q1.11,3,2.12,5.95l8.5-2.43c-.79-2.35-1.62-4.67-2.48-7l-8.14,3.46Z" transform="translate(-8.28 -131.58)"/><path class="cls-1" d="M508.37,411.72l-8.81.78q.13,3.15.16,6.31l8.84.31q0-3.71-.19-7.4Z" transform="translate(-8.28 -131.58)"/><path class="cls-1" d="M497.59,391.44c.3,2.07.57,4.16.82,6.25l8.82-.61c-.28-2.45-.59-4.9-1-7.34l-8.68,1.7Z" transform="translate(-8.28 -131.58)"/><path class="cls-1" d="M490.52,360.52c.63,2,1.22,4,1.79,6.05l8.62-2c-.66-2.39-1.36-4.75-2.1-7.1l-8.31,3Z" transform="translate(-8.28 -131.58)"/><path class="cls-1" d="M495.78,381q.62,3.09,1.14,6.21l8.78-1.07c-.41-2.44-.85-4.87-1.34-7.28L495.78,381Z" transform="translate(-8.28 -131.58)"/><path class="cls-1" d="M493.43,370.7c.52,2,1,4.08,1.46,6.13l8.71-1.53c-.54-2.41-1.1-4.81-1.72-7.2l-8.45,2.6Z" transform="translate(-8.28 -131.58)"/><path class="cls-1" d="M442,279.63q2.2,2.25,4.34,4.56l6.78-5.68q-2.5-2.72-5.1-5.35l-6,6.47Z" transform="translate(-8.28 -131.58)"/><path class="cls-1" d="M352,226.27c2,.57,4.05,1.16,6.05,1.79l3-8.3c-2.34-.75-4.71-1.44-7.1-2.11l-2,8.62Z" transform="translate(-8.28 -131.58)"/><path class="cls-1" d="M362.13,229.38q3,1,5.94,2.12l3.46-8.13q-3.46-1.31-7-2.49l-2.43,8.5Z" transform="translate(-8.28 -131.58)"/><path class="cls-1" d="M341.75,223.7c2.06.46,4.1.94,6.13,1.46l2.6-8.46c-2.38-.62-4.79-1.18-7.2-1.71l-1.53,8.71Z" transform="translate(-8.28 -131.58)"/><path class="cls-1" d="M331.37,221.66q3.11.53,6.2,1.14l2.15-8.58c-2.41-.49-4.84-.93-7.28-1.34l-1.07,8.78Z" transform="translate(-8.28 -131.58)"/><path class="cls-1" d="M310.35,219.24q3.15.21,6.29.49l1.24-8.76q-3.67-.34-7.38-.57l-.15,8.84Z" transform="translate(-8.28 -131.58)"/><path class="cls-1" d="M320.89,220.18c2.09.24,4.18.51,6.25.81l1.7-8.68q-3.64-.54-7.34-1l-.61,8.83Z" transform="translate(-8.28 -131.58)"/><path class="cls-1" d="M372.06,233c2,.78,3.89,1.6,5.82,2.43l3.88-7.94c-2.26-1-4.53-2-6.83-2.86L372.06,233Z" transform="translate(-8.28 -131.58)"/><path class="cls-1" d="M391.28,241.88q2.79,1.47,5.53,3l4.69-7.49q-3.21-1.83-6.49-3.54l-3.73,8Z" transform="translate(-8.28 -131.58)"/><path class="cls-1" d="M418.11,258.77q2.53,1.88,5,3.84l5.81-6.67c-1.93-1.53-3.88-3-5.86-4.51l-4.94,7.34Z" transform="translate(-8.28 -131.58)"/><path class="cls-1" d="M381.79,237.21q2.86,1.31,5.68,2.72l4.29-7.73q-3.3-1.65-6.67-3.2l-3.3,8.21Z" transform="translate(-8.28 -131.58)"/><path class="cls-1" d="M426.43,265.3q2.43,2,4.78,4.1l6.14-6.35c-1.84-1.64-3.7-3.25-5.6-4.82l-5.32,7.07Z" transform="translate(-8.28 -131.58)"/><path class="cls-1" d="M409.47,252.67c1.74,1.17,3.48,2.35,5.19,3.57l5.44-7c-2-1.43-4-2.82-6.09-4.19l-4.54,7.58Z" transform="translate(-8.28 -131.58)"/><path class="cls-1" d="M95.55,418.81q0-3.17.16-6.31l-8.81-.78c-.1,2.46-.17,4.93-.19,7.4l8.84-.31Z" transform="translate(-8.28 -131.58)"/><path class="cls-1" d="M400.51,247q2.72,1.61,5.37,3.29l5.08-7.24c-2.07-1.32-4.18-2.6-6.3-3.86L400.51,247Z" transform="translate(-8.28 -131.58)"/><path class="cls-1" d="M97.69,450.45c-.31-2.07-.58-4.16-.82-6.25l-8.82.61c.28,2.45.59,4.9,1,7.34l8.69-1.7Z" transform="translate(-8.28 -131.58)"/><path class="cls-1" d="M405.88,591.56q-2.65,1.68-5.37,3.29l4.15,7.81c2.12-1.26,4.23-2.54,6.3-3.86l-5.08-7.24Z" transform="translate(-8.28 -131.58)"/><path class="cls-1" d="M414.66,585.65c-1.71,1.22-3.45,2.4-5.19,3.56L414,596.8c2.06-1.37,4.09-2.76,6.09-4.19l-5.44-7Z" transform="translate(-8.28 -131.58)"/><path class="cls-1" d="M396.81,597q-2.74,1.54-5.53,3l3.73,8q3.28-1.71,6.49-3.54L396.81,597Z" transform="translate(-8.28 -131.58)"/><path class="cls-1" d="M431.21,572.49q-2.35,2.09-4.78,4.1l5.32,7.07c1.9-1.57,3.76-3.18,5.6-4.82l-6.14-6.35Z" transform="translate(-8.28 -131.58)"/><path class="cls-1" d="M439,565.29c-1.5,1.47-3,2.91-4.56,4.33l5.68,6.78q2.73-2.49,5.35-5.09l-6.47-6Z" transform="translate(-8.28 -131.58)"/><path class="cls-1" d="M423.1,579.28q-2.46,2-5,3.84l4.94,7.34c2-1.47,3.93-3,5.86-4.51l-5.81-6.67Z" transform="translate(-8.28 -131.58)"/><path class="cls-1" d="M387.47,602q-2.82,1.41-5.68,2.72l3.3,8.21q3.38-1.54,6.67-3.2L387.47,602Z" transform="translate(-8.28 -131.58)"/><path class="cls-1" d="M377.88,606.43c-1.93.83-3.86,1.65-5.82,2.43l2.87,8.37c2.3-.91,4.57-1.87,6.83-2.86l-3.88-7.94Z" transform="translate(-8.28 -131.58)"/><path class="cls-1" d="M347.88,616.73c-2,.52-4.07,1-6.13,1.46l1.53,8.72c2.41-.54,4.82-1.1,7.2-1.72l-2.6-8.46Z" transform="translate(-8.28 -131.58)"/><path class="cls-1" d="M337.57,619.09q-3.09.61-6.2,1.14l1.07,8.78c2.44-.41,4.87-.85,7.28-1.34l-2.15-8.58Z" transform="translate(-8.28 -131.58)"/><path class="cls-1" d="M327.14,620.9c-2.07.3-4.16.57-6.25.81l.61,8.82q3.69-.4,7.34-.95l-1.7-8.68Z" transform="translate(-8.28 -131.58)"/><path class="cls-1" d="M446.32,557.7q-2.13,2.31-4.34,4.56l6,6.47c1.73-1.75,3.43-3.54,5.1-5.35l-6.78-5.68Z" transform="translate(-8.28 -131.58)"/><path class="cls-1" d="M316.64,622.16q-3.13.29-6.29.48l.15,8.85q3.71-.22,7.38-.57l-1.24-8.76Z" transform="translate(-8.28 -131.58)"/><path class="cls-1" d="M358.06,613.83c-2,.63-4,1.22-6.05,1.79l2,8.62c2.39-.67,4.76-1.36,7.1-2.11l-3-8.3Z" transform="translate(-8.28 -131.58)"/><path class="cls-1" d="M368.07,610.39q-3,1.1-5.94,2.12l2.43,8.5q3.51-1.18,7-2.49l-3.46-8.13Z" transform="translate(-8.28 -131.58)"/><path class="cls-1" d="M494.89,465.06c-.46,2.05-.94,4.1-1.46,6.13l8.45,2.6c.62-2.39,1.18-4.79,1.72-7.2l-8.71-1.53Z" transform="translate(-8.28 -131.58)"/><path class="cls-1" d="M492.31,475.32c-.57,2-1.16,4.05-1.79,6.05l8.31,3c.74-2.35,1.44-4.71,2.1-7.1l-8.62-2Z" transform="translate(-8.28 -131.58)"/><path class="cls-1" d="M496.92,454.67q-.53,3.12-1.14,6.21l8.58,2.14c.49-2.41.93-4.84,1.34-7.28l-8.78-1.07Z" transform="translate(-8.28 -131.58)"/><path class="cls-1" d="M489.2,485.43c-.67,2-1.39,4-2.12,5.95l8.14,3.46c.86-2.31,1.69-4.63,2.48-7l-8.5-2.43Z" transform="translate(-8.28 -131.58)"/><path class="cls-1" d="M499.72,423.08q0,3.17-.16,6.31l8.81.77c.11-2.45.17-4.92.19-7.39l-8.84.31Z" transform="translate(-8.28 -131.58)"/><path class="cls-1" d="M498.41,444.2c-.25,2.09-.52,4.18-.82,6.25l8.68,1.7c.37-2.44.68-4.89,1-7.34l-8.82-.61Z" transform="translate(-8.28 -131.58)"/><path class="cls-1" d="M499.34,433.66c-.13,2.1-.3,4.2-.49,6.28l8.76,1.24q.34-3.68.57-7.38l-8.84-.14Z" transform="translate(-8.28 -131.58)"/><path class="cls-1" d="M465.91,532.77c-1.17,1.75-2.35,3.48-3.57,5.19l7,5.45c1.43-2,2.82-4,4.19-6.09l-7.58-4.55Z" transform="translate(-8.28 -131.58)"/><path class="cls-1" d="M453.28,549.74q-2,2.41-4.1,4.77l6.36,6.15c1.63-1.84,3.24-3.71,4.81-5.6l-7.07-5.32Z" transform="translate(-8.28 -131.58)"/><path class="cls-1" d="M459.82,541.42c-1.26,1.68-2.54,3.35-3.84,5l6.66,5.8q2.31-2.88,4.51-5.85l-7.33-4.94Z" transform="translate(-8.28 -131.58)"/><path class="cls-1" d="M471.54,523.82q-1.6,2.71-3.29,5.37l7.24,5.08c1.33-2.08,2.61-4.18,3.86-6.31l-7.81-4.14Z" transform="translate(-8.28 -131.58)"/><path class="cls-1" d="M481.38,505.09c-.88,1.91-1.79,3.81-2.73,5.68l7.73,4.3q1.67-3.3,3.2-6.67l-8.2-3.31Z" transform="translate(-8.28 -131.58)"/><path class="cls-1" d="M485.55,495.37q-1.17,2.92-2.43,5.82l7.94,3.88c1-2.26,1.95-4.53,2.86-6.83l-8.37-2.87Z" transform="translate(-8.28 -131.58)"/><path class="cls-1" d="M476.7,514.58c-1,1.87-2,3.71-3,5.54l7.5,4.69c1.21-2.14,2.39-4.31,3.53-6.49l-8-3.74Z" transform="translate(-8.28 -131.58)"/><path class="cls-1" d="M127,529.19c-1.13-1.77-2.22-3.56-3.3-5.37L115.92,528c1.26,2.13,2.54,4.23,3.87,6.31l7.24-5.08Z" transform="translate(-8.28 -131.58)"/><path class="cls-1" d="M95.71,429.39q-.12-3.15-.16-6.31l-8.84-.31c0,2.47.09,4.94.19,7.39l8.81-.77Z" transform="translate(-8.28 -131.58)"/><path class="cls-1" d="M306.08,622.87c-2.09.08-4.19.14-6.3.16l-.32,8.84c2.48,0,4.94-.08,7.4-.19l-.78-8.81Z" transform="translate(-8.28 -131.58)"/><path class="cls-1" d="M121.59,520.12c-1-1.83-2-3.67-3-5.54l-8,3.74c1.15,2.18,2.32,4.35,3.54,6.49l7.5-4.69Z" transform="translate(-8.28 -131.58)"/><path class="cls-1" d="M132.93,538q-1.81-2.57-3.56-5.19l-7.58,4.55c1.36,2,2.75,4.09,4.19,6.09l7-5.45Z" transform="translate(-8.28 -131.58)"/><path class="cls-1" d="M139.3,546.41c-1.3-1.64-2.59-3.31-3.84-5l-7.33,4.94c1.46,2,3,3.93,4.5,5.85l6.67-5.8Z" transform="translate(-8.28 -131.58)"/><path class="cls-1" d="M153.29,562.26c-1.46-1.5-2.91-3-4.33-4.56l-6.78,5.68q2.49,2.72,5.09,5.35l6-6.47Z" transform="translate(-8.28 -131.58)"/><path class="cls-1" d="M146.09,554.51q-2.09-2.35-4.1-4.77l-7.07,5.31c1.57,1.9,3.19,3.77,4.82,5.61l6.35-6.15Z" transform="translate(-8.28 -131.58)"/><path class="cls-1" d="M112.15,501.19c-.83-1.93-1.65-3.87-2.42-5.82l-8.37,2.87c.9,2.3,1.87,4.57,2.85,6.83l7.94-3.88Z" transform="translate(-8.28 -131.58)"/><path class="cls-1" d="M99.5,460.88c-.42-2.06-.79-4.13-1.14-6.21l-8.78,1.07q.6,3.66,1.33,7.28l8.59-2.14Z" transform="translate(-8.28 -131.58)"/><path class="cls-1" d="M101.85,471.19c-.52-2-1-4.08-1.46-6.13l-8.71,1.53q.79,3.62,1.71,7.2l8.46-2.6Z" transform="translate(-8.28 -131.58)"/><path class="cls-1" d="M96.43,439.94c-.2-2.08-.36-4.18-.49-6.28l-8.85.14q.22,3.7.58,7.38l8.76-1.24Z" transform="translate(-8.28 -131.58)"/><path class="cls-1" d="M108.2,491.38q-1.11-3-2.12-5.95l-8.5,2.43c.78,2.35,1.61,4.67,2.48,7l8.14-3.46Z" transform="translate(-8.28 -131.58)"/><path class="cls-1" d="M160.88,569.62q-2.31-2.13-4.56-4.33l-6.47,6c1.76,1.73,3.54,3.43,5.36,5.09l5.67-6.78Z" transform="translate(-8.28 -131.58)"/><path class="cls-1" d="M104.75,481.37c-.63-2-1.22-4-1.79-6.05l-8.61,2c.66,2.39,1.36,4.75,2.1,7.1l8.3-3Z" transform="translate(-8.28 -131.58)"/><path class="cls-1" d="M116.62,510.77c-.93-1.87-1.84-3.77-2.72-5.68l-8.21,3.31q1.55,3.38,3.2,6.67l7.73-4.3Z" transform="translate(-8.28 -131.58)"/><path class="cls-1" d="M168.84,576.59q-2.42-2-4.77-4.1l-6.15,6.35c1.85,1.64,3.71,3.25,5.61,4.82l5.31-7.07Z" transform="translate(-8.28 -131.58)"/><path class="cls-1" d="M253.53,618.19c-2.06-.46-4.11-.94-6.14-1.46l-2.59,8.46c2.38.62,4.78,1.18,7.2,1.72l1.53-8.72Z" transform="translate(-8.28 -131.58)"/><path class="cls-1" d="M243.26,615.62c-2-.57-4-1.16-6-1.79l-3,8.3c2.35.75,4.72,1.44,7.1,2.11l2-8.62Z" transform="translate(-8.28 -131.58)"/><path class="cls-1" d="M284.93,622.64c-2.11-.13-4.2-.29-6.29-.48l-1.24,8.76q3.68.35,7.38.57l.15-8.85Z" transform="translate(-8.28 -131.58)"/><path class="cls-1" d="M295.5,623c-2.11,0-4.21-.08-6.3-.16l-.78,8.81q3.68.17,7.4.19L295.5,623Z" transform="translate(-8.28 -131.58)"/><path class="cls-1" d="M274.39,621.71c-2.1-.24-4.18-.51-6.26-.81l-1.69,8.68q3.65.54,7.34.95l.61-8.82Z" transform="translate(-8.28 -131.58)"/><path class="cls-1" d="M233.15,612.51q-3-1-5.94-2.12l-3.47,8.13q3.47,1.31,7,2.49l2.43-8.5Z" transform="translate(-8.28 -131.58)"/><path class="cls-1" d="M263.91,620.23q-3.12-.53-6.2-1.14l-2.15,8.58c2.41.49,4.84.93,7.28,1.34l1.07-8.78Z" transform="translate(-8.28 -131.58)"/><path class="cls-1" d="M185.81,589.21c-1.75-1.16-3.48-2.34-5.19-3.56l-5.45,7c2,1.43,4,2.82,6.09,4.19l4.55-7.59Z" transform="translate(-8.28 -131.58)"/><path class="cls-1" d="M177.16,583.12q-2.52-1.87-5-3.84l-5.8,6.67c1.93,1.53,3.88,3,5.86,4.5l4.93-7.33Z" transform="translate(-8.28 -131.58)"/><path class="cls-1" d="M194.76,594.85c-1.8-1.07-3.6-2.17-5.37-3.29l-5.08,7.24c2.08,1.32,4.18,2.6,6.31,3.86l4.14-7.81Z" transform="translate(-8.28 -131.58)"/><path class="cls-1" d="M223.21,608.86c-2-.78-3.89-1.6-5.81-2.43l-3.89,7.94c2.26,1,4.53,2,6.83,2.86l2.87-8.37Z" transform="translate(-8.28 -131.58)"/><path class="cls-1" d="M213.49,604.68q-2.87-1.3-5.68-2.72l-4.3,7.73q3.31,1.65,6.67,3.2l3.31-8.21Z" transform="translate(-8.28 -131.58)"/><path class="cls-1" d="M204,600c-1.86-1-3.71-2-5.53-3l-4.7,7.49q3.21,1.83,6.5,3.54l3.73-8Z" transform="translate(-8.28 -131.58)"/><path class="cls-4" d="M430.84,489.52c-3.09,3.1-76.48,75.83-133.2,75.83s-130.11-72.73-133.21-75.83l0-.07A7.18,7.18,0,0,1,174,478.77a6.12,6.12,0,0,1,.72.72l-.11-.12c25.27,25.27,83,71.62,123,71.62s97.78-46.35,123.05-71.62l-.09.09a7.18,7.18,0,1,1,10.25,10v0Z" transform="translate(-8.28 -131.58)"/><path class="cls-7" d="M156.48,282.89h0A197.94,197.94,0,0,0,99.94,421.54c0,109.48,89,198.55,198.42,198.55S496.78,531,496.78,421.54a198,198,0,0,0-56.47-138.6l-.06-.05-34.48,26.43h0a134.12,134.12,0,0,1,7.94,12.51h0l25-19.25a183.41,183.41,0,0,1,43.66,119c0,101.53-82.55,184.13-184,184.13s-184-82.6-184-184.13a183.36,183.36,0,0,1,43.67-119l25.2,19.36a131.61,131.61,0,0,1,8-12.55l-34.7-26.5Z" transform="translate(-8.28 -131.58)"/><path class="cls-8" d="M401,585.4a7.18,7.18,0,1,1-7.18-7.18A7.17,7.17,0,0,1,401,585.4Z" transform="translate(-8.28 -131.58)"/><path class="cls-1" d="M394.9,585.4a1.11,1.11,0,1,1-2.21,0,1.11,1.11,0,0,1,2.21,0Z" transform="translate(-8.28 -131.58)"/><path class="cls-8" d="M194.3,585.4a7.18,7.18,0,1,0,7.18-7.18,7.18,7.18,0,0,0-7.18,7.18Z" transform="translate(-8.28 -131.58)"/><path class="cls-1" d="M200.38,585.4a1.11,1.11,0,1,0,1.1-1.1,1.11,1.11,0,0,0-1.1,1.1Z" transform="translate(-8.28 -131.58)"/><path class="cls-8" d="M479.39,344.7a7.18,7.18,0,1,1-7.18-7.17,7.18,7.18,0,0,1,7.18,7.17Z" transform="translate(-8.28 -131.58)"/><path class="cls-1" d="M473.31,344.7a1.11,1.11,0,1,1-1.1-1.1,1.11,1.11,0,0,1,1.1,1.1Z" transform="translate(-8.28 -131.58)"/><path class="cls-8" d="M445.47,292.59a7.18,7.18,0,1,1-7.18-7.18,7.18,7.18,0,0,1,7.18,7.18Z" transform="translate(-8.28 -131.58)"/><path class="cls-1" d="M439.4,292.59a1.11,1.11,0,1,1-1.11-1.11,1.11,1.11,0,0,1,1.11,1.11Z" transform="translate(-8.28 -131.58)"/><path class="cls-8" d="M448.85,293.74l-11.38,8.76h0q-4.75-5.61-9.94-10.82m-277.89,1.15a7.18,7.18,0,1,0,7.18-7.18,7.18,7.18,0,0,0-7.18,7.18Z" transform="translate(-8.28 -131.58)"/><path class="cls-1" d="M155.72,292.83a1.11,1.11,0,1,0,1.1-1.1,1.1,1.1,0,0,0-1.1,1.1Z" transform="translate(-8.28 -131.58)"/><path class="cls-8" d="M167.75,291.68q-5.19,5.2-9.94,10.82h0l-11.38-8.76m310,131.17a7.18,7.18,0,1,1-7.18-7.18,7.18,7.18,0,0,1,7.18,7.18Z" transform="translate(-8.28 -131.58)"/><path class="cls-1" d="M450.33,424.91a1.11,1.11,0,1,1-1.11-1.11,1.11,1.11,0,0,1,1.11,1.11Z" transform="translate(-8.28 -131.58)"/><path class="cls-8" d="M138.88,424.91a7.18,7.18,0,1,0,7.17-7.18,7.18,7.18,0,0,0-7.17,7.18Z" transform="translate(-8.28 -131.58)"/><path class="cls-1" d="M145,424.91a1.11,1.11,0,0,0,2.21,0,1.11,1.11,0,1,0-2.21,0Z" transform="translate(-8.28 -131.58)"/><path class="cls-8" d="M433.18,484.19A7.18,7.18,0,1,1,426,477a7.18,7.18,0,0,1,7.18,7.18Z" transform="translate(-8.28 -131.58)"/><path class="cls-1" d="M427.11,484.19a1.11,1.11,0,1,1-1.11-1.11,1.11,1.11,0,0,1,1.11,1.11Z" transform="translate(-8.28 -131.58)"/><path class="cls-8" d="M330.91,553.48a7.18,7.18,0,1,1-7.18-7.18,7.18,7.18,0,0,1,7.18,7.18Z" transform="translate(-8.28 -131.58)"/><path class="cls-1" d="M324.83,553.48a1.1,1.1,0,1,1-1.1-1.11,1.1,1.1,0,0,1,1.1,1.11Z" transform="translate(-8.28 -131.58)"/><path class="cls-8" d="M162.09,484.19a7.18,7.18,0,1,0,7.18-7.18,7.19,7.19,0,0,0-7.18,7.18Z" transform="translate(-8.28 -131.58)"/><path class="cls-1" d="M168.17,484.19a1.11,1.11,0,0,0,2.21,0,1.11,1.11,0,1,0-2.21,0Z" transform="translate(-8.28 -131.58)"/><path class="cls-8" d="M264.37,553.48a7.18,7.18,0,1,0,7.18-7.18,7.18,7.18,0,0,0-7.18,7.18Z" transform="translate(-8.28 -131.58)"/><path class="cls-1" d="M270.44,553.48a1.11,1.11,0,1,0,1.11-1.11,1.11,1.11,0,0,0-1.11,1.11Z" transform="translate(-8.28 -131.58)"/><path class="cls-8" d="M117.94,340a7.18,7.18,0,1,0,7.18-7.18,7.17,7.17,0,0,0-7.18,7.18Z" transform="translate(-8.28 -131.58)"/><path class="cls-1" d="M124,340a1.11,1.11,0,1,0,1.11-1.1A1.11,1.11,0,0,0,124,340Z" transform="translate(-8.28 -131.58)"/><path class="cls-4" d="M278.13,314.92c0-5.43,4.5-18.5,19.51-18.5s19.51,13.07,19.51,18.5H326c0-9.85-11-26.14-28.34-26.14s-28.35,16.29-28.35,26.14Z" transform="translate(-8.28 -131.58)"/><path class="cls-4" d="M396.7,375.84C386,365.11,377.71,362,359.49,362v-9.76c15.73,0,29.17,4.42,35.42,12.25v0a99.67,99.67,0,0,1,1.79,11.39v0Z" transform="translate(-8.28 -131.58)"/><path class="cls-4" d="M198.88,375.54C209.47,365.05,217.74,362,235.79,362v-9.76c-15.43,0-28.65,4.25-35,11.79h0a98.05,98.05,0,0,0-1.87,11.56Z" transform="translate(-8.28 -131.58)"/><path class="cls-4" d="M164.79,587.52,269.31,469.87a74.94,74.94,0,0,1-12.24-7.81L153.17,577.54h0c3.76,3.48,7.66,6.82,11.66,10l0,0Z" transform="translate(-8.28 -131.58)"/><path class="cls-4" d="M253.63,598.94q6.57,1.63,13.32,2.77h0C271.41,591,281.62,577,297.64,577s26.23,14.08,30.68,24.76h0c4.5-.76,9-1.69,13.35-2.77h0c-6.78-12-18.89-32.21-44-32.21s-37.23,20.26-44,32.21Z" transform="translate(-8.28 -131.58)"/><path class="cls-4" d="M411.2,507.46c3.25-2.78,6.18-5.36,8.72-7.65l-.05,0c4.05,13.87,16.37,24.08,33.22,24.08a7.18,7.18,0,0,1,0,14.36l-1.94-.27c-12.76.27-37.55-16-39.95-30.56Z" transform="translate(-8.28 -131.58)"/><path class="cls-4" d="M184.08,507.46c-3.26-2.78-6.18-5.36-8.72-7.65l0,0c-4.06,13.87-16.38,24.08-33.22,24.08a7.18,7.18,0,0,0,0,14.36l1.93-.27c12.76.27,37.55-16,40-30.56Z" transform="translate(-8.28 -131.58)"/><path class="cls-9" d="M377.34,512.43c-1.1,4.05-1.1,4.05-1.1,9.2,0,19,20.24,32.4,23.93,32.4-7.55,0-14.55,5.71-14.55,12,0,5.16,1.85,7.55,3.32,7.55,0-5.52,7.54-12.15,7.54-12.15h12c4.23,0,8.84-5,8.84-9.57,0-3.86-1.85-6.63-5.53-6.63s-3.68,1.48-6.25,1.48c-9.95,0-28.17-31.85-28.17-34.24Z" transform="translate(-8.28 -131.58)"/><path class="cls-1" d="M412.5,553.29c0,1.73-1.77,3.13-4,3.13s-4-1.4-4-3.13,1.78-3.13,4-3.13,4,1.41,4,3.13Z" transform="translate(-8.28 -131.58)"/><path class="cls-8" d="M460.27,531.11a7.18,7.18,0,1,1-7.18-7.18,7.18,7.18,0,0,1,7.18,7.18Z" transform="translate(-8.28 -131.58)"/><path class="cls-1" d="M454.19,531.11a1.11,1.11,0,1,1-1.1-1.1,1.11,1.11,0,0,1,1.1,1.1Z" transform="translate(-8.28 -131.58)"/><path class="cls-8" d="M135,531.11a7.18,7.18,0,1,0,7.18-7.18,7.17,7.17,0,0,0-7.18,7.18Z" transform="translate(-8.28 -131.58)"/><path class="cls-1" d="M141.08,531.11a1.11,1.11,0,1,0,2.21,0,1.11,1.11,0,0,0-2.21,0Z" transform="translate(-8.28 -131.58)"/><path class="cls-10" d="M290,501.43a7.76,7.76,0,1,0,7.76-7.75,7.75,7.75,0,0,0-7.76,7.75Z" transform="translate(-8.28 -131.58)"/><path class="cls-1" d="M296.58,501.43a1.2,1.2,0,1,0,1.2-1.19,1.19,1.19,0,0,0-1.2,1.19Z" transform="translate(-8.28 -131.58)"/><polygon class="cls-11" points="311.08 206.16 327.28 224.2 297.09 224.18 311.08 206.16 311.08 206.16"/><polygon class="cls-11" points="288.99 301.14 305.19 319.18 275 319.17 288.99 301.14 288.99 301.14"/><polygon class="cls-11" points="311.08 234.88 327.28 252.91 297.09 252.9 311.08 234.88 311.08 234.88"/><polygon class="cls-11" points="311.08 268.01 327.28 286.05 297.09 286.03 311.08 268.01 311.08 268.01"/><polygon class="cls-11" points="267.64 206.16 251.44 224.2 281.63 224.18 267.64 206.16 267.64 206.16"/><polygon class="cls-11" points="267.64 234.88 251.44 252.91 281.63 252.9 267.64 234.88 267.64 234.88"/><polygon class="cls-11" points="267.64 268.01 251.44 286.05 281.63 286.03 267.64 268.01 267.64 268.01"/><path class="cls-12" d="M224,268.62c0,7.78-5,15.79-19.74,15.79-9.45,0-16.39,13.64-23.69,13.64-4.67,0-9-2.75-9-10.29s9.45-12,12.92-12h24.76c4.67,0,10.95-3.41,14.72-7.18Z" transform="translate(-8.28 -131.58)"/><path class="cls-1" d="M195.32,281.54H184.43c-1.8,0-8.26,2.87-8.26,6.58s1,3.59,4.67,3.59,14.48-10.17,14.48-10.17Z" transform="translate(-8.28 -131.58)"/><path class="cls-12" d="M166.38,382.62H147.13s-3.71,4.66-8,4.66-9-3-12.08-3-6.59-2.15-7.3-3.47c-.72-.71-.27-2.18.83-3.29,2.4,1,5.15,1.38,10.35,0,0-.9-2.33-3.65-8.67-8.67.72-.72,9.45-6.1,15.08-6.1S153.23,373,153.23,373h13.71c-.3,3.14-.48,6.31-.56,9.51v.06Z" transform="translate(-8.28 -131.58)"/><path class="cls-1" d="M141.74,370.65c0,1.65-1.87,3-4.19,3s-4.18-1.34-4.18-3,1.87-3,4.18-3,4.19,1.34,4.19,3Z" transform="translate(-8.28 -131.58)"/><text class="cls-13" transform="matrix(-0.41, -0.91, 0.91, -0.41, 72.19, 401.41)">U</text><text class="cls-13" transform="translate(60.65 375.52) rotate(-107.27)">N</text><text class="cls-13" transform="translate(52.38 347.85) rotate(-102)">I</text><text class="cls-13" transform="matrix(-0.12, -0.99, 0.99, -0.12, 48.84, 332.59)">V</text><text class="cls-13" transform="translate(45.54 304.29) rotate(-90.39)">E</text><text class="cls-13" transform="translate(45.28 278) rotate(-84.04)">R</text><text class="cls-13" transform="matrix(0.21, -0.98, 0.98, 0.21, 48.42, 249.56)">S</text><text class="cls-13" transform="translate(53.22 227.54) rotate(-73.54)">I</text><text class="cls-13" transform="translate(57.37 212.43) rotate(-68.27)">D</text><text class="cls-13" transform="matrix(0.48, -0.88, 0.88, 0.48, 67.86, 186.07)">A</text><text class="cls-13" transform="matrix(0.57, -0.82, 0.82, 0.57, 81.36, 161.09)">D</text><text class="cls-13" transform="matrix(0.64, -0.77, 0.77, 0.64, 98.4, 137.51)"> </text><text class="cls-13" transform="matrix(0.7, -0.72, 0.72, 0.7, 104.75, 129.3)">D</text><text class="cls-13" transform="matrix(0.77, -0.63, 0.63, 0.77, 124.67, 108.95)">E</text><text class="cls-13" transform="translate(145.75 92.12) rotate(-34.95)"> </text><text class="cls-13" transform="matrix(0.86, -0.51, 0.51, 0.86, 154.15, 85.89)">L</text><text class="cls-13" transform="translate(176.74 72.46) rotate(-24.11)">A</text><text class="cls-13" transform="translate(202.91 60.93) rotate(-18.13)">S</text><text class="cls-13" transform="translate(224.61 54.07) rotate(-14.18)"> </text><text class="cls-13" transform="translate(234.76 51.26) rotate(-10)">P</text><text class="cls-13" transform="translate(255.8 47.31) rotate(-4.46)">A</text><text class="cls-13" transform="matrix(1, 0.03, -0.03, 1, 284.22, 45.14)">L</text><text class="cls-13" transform="translate(310.2 45.6) rotate(9.21)">M</text><text class="cls-13" transform="translate(346.5 51.73) rotate(16.86)">A</text><text class="cls-13" transform="translate(373.83 60.19) rotate(22.85)">S</text><text class="cls-13" transform="matrix(0.89, 0.45, -0.45, 0.89, 394.7, 69.23)"> </text><text class="cls-13" transform="translate(404.11 73.58) rotate(31.42)">D</text><text class="cls-13" transform="translate(428.39 88.47) rotate(37.84)">E</text><text class="cls-13" transform="translate(449.49 105.29) rotate(42.2)"> </text><text class="cls-13" transform="matrix(0.68, 0.73, -0.73, 0.68, 457.42, 111.9)">G</text><text class="cls-13" transform="translate(478.17 134.25) rotate(53.91)">R</text><text class="cls-13" transform="matrix(0.49, 0.87, -0.87, 0.49, 494.91, 157.19)">A</text><text class="cls-13" transform="translate(508.87 181.88) rotate(67.25)">N</text><text class="cls-13" transform="translate(519.75 208.85) rotate(71.91)"> </text><text class="cls-13" transform="translate(523.31 218.56) rotate(76.58)">C</text><text class="cls-13" transform="matrix(0.12, 0.99, -0.99, 0.12, 529.91, 246.18)">A</text><text class="cls-13" transform="translate(533.06 274.57) rotate(89.07)">N</text><text class="cls-13" transform="translate(533.35 302.77) rotate(96.44)">A</text><text class="cls-13" transform="matrix(-0.23, 0.97, -0.97, -0.23, 530.19, 330.97)">R</text><text class="cls-13" transform="matrix(-0.32, 0.95, -0.95, -0.32, 523.33, 359)">I</text><text class="cls-13" transform="translate(518.66 373.96) rotate(113.66)">A</text><text class="cls-13" transform="matrix(0.76, 0.66, -0.66, 0.76, 102.19, 483.36)">C</text><text class="cls-13" transform="matrix(0.83, 0.56, -0.56, 0.83, 128.27, 505.46)">L</text><text class="cls-13" transform="translate(154.97 523.11) rotate(26.9)">U</text><text class="cls-13" transform="translate(185.68 538.22) rotate(19.81)">B</text><text class="cls-13" transform="matrix(0.97, 0.26, -0.26, 0.97, 214.95, 548.2)"> </text><text class="cls-13" transform="translate(228.91 552.15) rotate(9.84)">D</text><text class="cls-13" transform="translate(262.68 557.59) rotate(2.82)">E</text><text class="cls-13" transform="translate(293.53 558.59) rotate(-1.91)"> </text><text class="cls-13" transform="translate(307.76 558.23) rotate(-6.43)">F</text><text class="cls-13" transform="matrix(0.97, -0.23, 0.23, 0.97, 337.2, 554.72)">U</text><text class="cls-13" transform="translate(370.45 546.48) rotate(-20.33)">T</text><text class="cls-13" transform="translate(400.24 535.1) rotate(-27.15)">B</text><text class="cls-13" transform="matrix(0.82, -0.57, 0.57, 0.82, 428.74, 520.23)">O</text><text class="cls-13" transform="matrix(0.75, -0.67, 0.67, 0.75, 458.57, 499.16)">L</text><path class="cls-1" d="M121.58,321.76c-1,1.83-2,3.67-3,5.53l-8-3.73q1.71-3.29,3.54-6.49l7.49,4.69Z" transform="translate(-8.28 -131.58)"/><path class="cls-1" d="M127,312.69q-1.68,2.65-3.29,5.37l-7.81-4.15c1.25-2.12,2.53-4.23,3.86-6.3l7.24,5.08Z" transform="translate(-8.28 -131.58)"/><path class="cls-1" d="M116.62,331.1q-1.41,2.82-2.73,5.68l-8.2-3.3c1-2.25,2.1-4.47,3.2-6.67l7.73,4.29Z" transform="translate(-8.28 -131.58)"/><path class="cls-1" d="M139.3,295.47q-2,2.46-3.85,5l-7.33-4.94c1.47-2,3-3.93,4.51-5.86l6.67,5.81Z" transform="translate(-8.28 -131.58)"/><path class="cls-1" d="M132.93,303.91c-1.22,1.71-2.4,3.45-3.57,5.2l-7.58-4.55c1.37-2.06,2.76-4.09,4.19-6.09l7,5.44Z" transform="translate(-8.28 -131.58)"/><path class="cls-1" d="M112.15,340.69c-.84,1.93-1.65,3.86-2.43,5.82l-8.37-2.87c.91-2.3,1.87-4.57,2.86-6.83l7.94,3.88Z" transform="translate(-8.28 -131.58)"/><path class="cls-1" d="M146.09,287.36c-1.39,1.58-2.76,3.16-4.1,4.78l-7.07-5.32c1.57-1.9,3.18-3.76,4.82-5.6l6.35,6.14Z" transform="translate(-8.28 -131.58)"/><path class="cls-1" d="M108.19,350.5c-.73,2-1.45,3.95-2.12,5.94L97.57,354q1.19-3.51,2.48-7l8.14,3.46Z" transform="translate(-8.28 -131.58)"/><path class="cls-1" d="M104.75,360.51c-.63,2-1.22,4-1.79,6.05l-8.62-2c.66-2.39,1.36-4.75,2.1-7.1l8.31,3Z" transform="translate(-8.28 -131.58)"/><path class="cls-1" d="M168.84,265.29c-1.62,1.34-3.2,2.71-4.78,4.1L157.92,263c1.84-1.63,3.7-3.24,5.6-4.81l5.32,7.07Z" transform="translate(-8.28 -131.58)"/><path class="cls-1" d="M185.8,252.66c-1.74,1.17-3.48,2.35-5.18,3.57l-5.45-7c2-1.43,4-2.82,6.09-4.19l4.54,7.58Z" transform="translate(-8.28 -131.58)"/></svg>