<svg id="Capa_1" data-name="Capa 1" xmlns="http://www.w3.org/2000/svg" viewBox="0 0 524.8 765.3"><defs><style>.cls-1,.cls-15,.cls-16,.cls-5{fill:#d25115;}.cls-17,.cls-2,.cls-4,.cls-9{fill:#1d1d1b;}.cls-3{fill:none;stroke-width:10.76px;}.cls-10,.cls-11,.cls-12,.cls-15,.cls-16,.cls-17,.cls-3,.cls-9{stroke:#1d1d1b;}.cls-10,.cls-11,.cls-12,.cls-13,.cls-16,.cls-17,.cls-3,.cls-9{stroke-miterlimit:10;}.cls-4,.cls-5{font-size:44.12px;font-family:Arial-Black, Arial;font-weight:800;}.cls-6{fill:#2b9ed9;}.cls-10,.cls-11,.cls-12,.cls-7{fill:#fff;}.cls-8{fill:#fec713;}.cls-9{stroke-width:2.58px;}.cls-10{stroke-width:2.01px;}.cls-11{stroke-width:1.03px;}.cls-12{stroke-width:1.79px;}.cls-13{fill:#683c11;stroke:#683c11;stroke-width:7.17px;}.cls-14{fill:#f7c600;}.cls-15{stroke-linejoin:round;stroke-width:12.61px;}.cls-16{stroke-width:5.38px;}.cls-17{stroke-width:6.92px;}</style></defs><rect class="cls-1" x="11.79" y="186.63" width="497.37" height="275.29"/><path class="cls-2" d="M47,501.18v49.31c0,137.35,111.34,248.69,248.68,248.69S544.4,687.84,544.4,550.49V501.18Z" transform="translate(-35.24 -39.26)"/><path class="cls-3" d="M47,225.89v324.6c0,137.35,111.34,248.69,248.68,248.69S544.4,687.84,544.4,550.49V225.89Z" transform="translate(-35.24 -39.26)"/><text class="cls-4" transform="translate(53.29 236.3)">C<tspan x="35.07" y="0">.</tspan><tspan x="49.78" y="0">D</tspan><tspan x="83.32" y="0">.</tspan><tspan x="98.02" y="0"> </tspan><tspan x="112.73" y="0">C</tspan><tspan x="147.06" y="0">O</tspan><tspan x="183.8" y="0">R</tspan><tspan x="218.13" y="0">R</tspan><tspan x="252.46" y="0">A</tspan><tspan x="286.77" y="0">L</tspan><tspan x="316.2" y="0">E</tspan><tspan x="348.06" y="0">J</tspan><tspan x="377.48" y="0">O</tspan></text><text class="cls-5" transform="matrix(0.97, 0.24, -0.24, 0.97, 186.74, 731.42)">C</text><text class="cls-5" transform="translate(225.35 740.04) rotate(6.71)">.</text><text class="cls-5" transform="translate(244.47 742.81) rotate(-0.93)">D</text><text class="cls-5" transform="matrix(0.99, -0.12, 0.12, 0.99, 281.9, 741.68)">.</text><text class="cls-5" transform="matrix(0.97, -0.24, 0.24, 0.97, 300.91, 739.71)">C</text><path class="cls-6" d="M485.31,541.47V457.19H106.12v84.28a189.42,189.42,0,0,0,8,54.78H477.26A189.76,189.76,0,0,0,485.31,541.47Z" transform="translate(-35.24 -39.26)"/><rect class="cls-7" x="70.88" y="254.74" width="379.18" height="163.19"/><path class="cls-8" d="M114.17,596.25a189.65,189.65,0,0,0,363.09,0Z" transform="translate(-35.24 -39.26)"/><ellipse class="cls-9" cx="261.27" cy="627.08" rx="57.39" ry="60"/><path class="cls-10" d="M296.51,726.33c31.64,0,57.39-26.91,57.39-60s-25.75-60-57.39-60-57.39,26.91-57.39,60S264.86,726.33,296.51,726.33Zm-18.6-4.73a56.4,56.4,0,0,1-25.52-19.19l6.88-6.07,14.51,4.3,8.71,12.94Zm-27.33-53.3,9.68-13.61,11.79,4.39,9.8,28.25-7.94,11.89-14.74-4.37Zm32.91,44.34L275,700,283,688.14l26.82.07,9.6,10-9.06,14Zm31.86,8.87-3.55-9,8.86-13.75,14.48-4.62,6.24,7.31A56.48,56.48,0,0,1,315.35,721.51Zm26.92-89a59.94,59.94,0,0,1,10.23,31.58l-8.67.77-9.21-11.29-.55-17.18Zm.54,33.26-7.67,26.8-14.72,4.7-9.7-10.12,9.16-27.54,13.86-4.95Zm-9.54-12.43-13.88,5-21.75-17.78.1-14.62,12.82-5.19,22.17,15.67Zm-36.76-45.65a53.57,53.57,0,0,1,15.1,2.18l-2,9.74-12.53,5.06-14.74-4.82-.62-10.07A53.82,53.82,0,0,1,296.51,607.74Zm-15.1,13.34,15,4.9-.1,14.52-23.58,17.35-12.06-4.5L260,636.93Zm-22.73,16.49.65,16.06-9.82,13.82-9-2.17a60,60,0,0,1,10.46-33Z" transform="translate(-35.24 -39.26)"/><ellipse class="cls-2" cx="262.4" cy="627.08" rx="28.59" ry="29.89"/><polygon class="cls-11" points="275.48 647.95 285.19 658.06 299.9 653.37 307.57 626.57 298.5 615.45 284.64 620.4 275.48 647.95"/><polygon class="cls-11" points="298.03 614.13 297.49 597.17 275.32 581.51 262.5 586.7 262.4 601.32 284.15 619.1 298.03 614.13"/><polygon class="cls-11" points="247.72 648.88 239.77 660.78 248.26 673.39 275.07 673 284.13 658.94 274.53 648.95 247.72 648.88"/><polygon class="cls-11" points="236.81 619.83 225.02 615.43 215.34 629.05 223.93 655.59 238.67 659.97 246.62 648.08 236.81 619.83"/><polygon class="cls-11" points="237.49 618.59 261.06 601.25 261.16 586.73 246.17 581.82 224.75 597.67 225.42 614.09 237.49 618.59"/><path d="M343.83,664.91l8.67-.77a59.94,59.94,0,0,0-10.23-31.58l-8.2,3.88.55,17.18Z" transform="translate(-35.24 -39.26)"/><path d="M320.66,698.71l-8.86,13.75,3.55,9a56.48,56.48,0,0,0,26-20.11l-6.24-7.31Z" transform="translate(-35.24 -39.26)"/><path d="M259.27,696.34l-6.88,6.07a56.4,56.4,0,0,0,25.52,19.19l4.58-8-8.71-12.94Z" transform="translate(-35.24 -39.26)"/><path d="M297.05,624.72l12.53-5.06,2-9.74a53.49,53.49,0,0,0-29.92-.09l.62,10.07Z" transform="translate(-35.24 -39.26)"/><path d="M249.51,667.45l9.82-13.82-.65-16.06L251,632.28a60,60,0,0,0-10.46,33Z" transform="translate(-35.24 -39.26)"/><path class="cls-2" d="M208.8,559.71c-8.46-.49-15.25.83-23.77,2.84-2.48.59-4.72,1.14-6.74,1.66V538.78H175.1V565c-5.18,1.38-8.35,2.36-9.46,2.72-17.26,5.43-17.77,7.71-17.74,8.51.06,1.46,2.15,2.48,3.66,3.19,6.29,3,12.77,1.63,17.51.59,17.14-3.75,25.84-5.69,31.92-8.39,3.45-1.54,16-7.13,15.26-10C216.16,561.28,215.69,560.12,208.8,559.71Z" transform="translate(-35.24 -39.26)"/><path class="cls-12" d="M180.11,510.72a256.25,256.25,0,0,0-38,67.44l11.25-5.8,48.1-24.8c2.59-13.85,6-28.55,10.44-43.94,2.89-10,6-19.39,9.23-28.32,1-2.88,2.1-5.72,3.16-8.49A255.51,255.51,0,0,0,180.11,510.72Z" transform="translate(-35.24 -39.26)"/><path class="cls-13" d="M386.89,437.76c-9.59-.85-19.91.65-25.19,1.42-7.15,1-8.34,1.76-15.25,2.48a106.07,106.07,0,0,1-20.94.35,165.81,165.81,0,0,1-20.93-3.19c-5.1-1.19-7.74-2.12-11.35-1.06-5.15,1.5-5,4.93-9.93,7.09-8.13,3.6-17.69-1.76-19.51-2.84-1.65-1-3.62-2.39-9.94-9.93-5.95-7.11-9.17-11-12.77-16.67-9.55-15.18-6.41-19.14-13.83-26.26a33.27,33.27,0,0,0-18.45-8.86c-8.82-1.05-15.49,2.43-24.12,6.38a80.34,80.34,0,0,0-18.81,12.42c-7,6.06-14,16.69-28,38-12.73,19.26-4.36,8.44-9.23,15.61a28.8,28.8,0,0,0-3.45,6.14c114.91-.9,159.06,1.88,169.13,5.92,2.44,1,12.4,5.85,20.57,1.77,4.89-2.44,6.07-6.55,11-7.09,3.32-.37,5,1.25,12.42,5.32,9.64,5.3,14.46,7.95,17.73,7.45,5.38-.83,5.16-5.42,14.55-11.71,5.36-3.59,9.73-6.51,14.9-6,7.91.73,8.08,8.53,17.74,12.06,3.24,1.19,9.61.67,22.35-.35,8.27-.67,12.47-1,15.61-2.13a32.22,32.22,0,0,0,6.7-3.33c-13.32-5.13-24-9.66-31.54-13C402.21,441.47,396.72,438.62,386.89,437.76Z" transform="translate(-35.24 -39.26)"/><circle class="cls-14" cx="377.04" cy="322.86" r="39.73"/><path class="cls-2" d="M485.31,294V541.47c0,104.71-84.89,189.59-189.6,189.59S106.12,646.18,106.12,541.47V294H485.31m7.17-7.17H99V541.47a196.77,196.77,0,1,0,393.53,0V286.83Z" transform="translate(-35.24 -39.26)"/><path class="cls-15" d="M544.4,123.29a143.07,143.07,0,0,0-70.54,14.39L459.06,80,408.88,127.5,375,67.76l-43.22,48.39L297.64,73.32l-34.15,42.83L220.27,67.76,186.39,127.5,136.21,80l-14.79,57.69a143.07,143.07,0,0,0-70.54-14.39c-2.27.12-4.41.29-6.42.48q3.1,2.15,6.42,4.71a144.18,144.18,0,0,1,27.67,28.23c17.9,24.2,24.86,49.69,27.44,69.18h2.48c16.09-23.4,94.66-41.15,189.17-41.15s173.08,17.75,189.16,41.15h2.49c2.57-19.49,9.54-45,27.44-69.18a143.9,143.9,0,0,1,27.67-28.23c2.2-1.71,4.35-3.28,6.42-4.71C548.81,123.58,546.67,123.41,544.4,123.29Z" transform="translate(-35.24 -39.26)"/><path class="cls-16" d="M544.4,123.29a143.07,143.07,0,0,0-70.54,14.39L459.06,80,408.88,127.5,375,67.76l-43.22,48.39L297.64,73.32l-34.15,42.83L220.27,67.76,186.39,127.5,136.21,80l-14.79,57.69a143.07,143.07,0,0,0-70.54-14.39c-2.27.12-4.41.29-6.42.48q3.1,2.15,6.42,4.71a144.18,144.18,0,0,1,27.67,28.23c17.9,24.2,24.86,49.69,27.44,69.18h2.48c16.09-23.4,94.66-41.15,189.17-41.15s173.08,17.75,189.16,41.15h2.49c2.57-19.49,9.54-45,27.44-69.18a143.9,143.9,0,0,1,27.67-28.23c2.2-1.71,4.35-3.28,6.42-4.71C548.81,123.58,546.67,123.41,544.4,123.29Z" transform="translate(-35.24 -39.26)"/><circle class="cls-17" cx="506.09" cy="84.7" r="15.25"/><circle class="cls-17" cx="424.5" cy="42.45" r="15.25"/><circle class="cls-17" cx="342.43" cy="24.62" r="15.25"/><circle class="cls-17" cx="262.4" cy="18.71" r="15.25"/><circle class="cls-17" cx="18.71" cy="84.7" r="15.25"/><circle class="cls-17" cx="100.3" cy="42.45" r="15.25"/><circle class="cls-17" cx="182.37" cy="24.62" r="15.25"/><ellipse class="cls-2" cx="189.88" cy="160.44" rx="28.38" ry="12.84" transform="translate(-60.79 -2.85) rotate(-10.27)"/><polygon points="260.48 92.27 260.48 92.27 260.48 92.27 219.21 110 260.48 127.74 260.48 127.74 260.48 127.74 301.75 110 260.48 92.27"/><polygon points="77.8 141.75 54.04 128.03 60.36 162.93 60.36 162.93 60.36 162.93 77.8 141.75"/><ellipse class="cls-2" cx="401.55" cy="160.44" rx="12.84" ry="28.38" transform="translate(136.88 487.72) rotate(-79.73)"/><polygon points="443.15 141.75 466.91 128.03 460.59 162.93 460.59 162.93 460.59 162.93 443.15 141.75"/></svg>