<svg id="Capa_1" data-name="Capa 1" xmlns="http://www.w3.org/2000/svg" viewBox="0 0 552.04 754.94"><defs><style>.cls-1,.cls-9{fill:#fff;}.cls-1,.cls-10,.cls-2,.cls-3,.cls-4,.cls-5,.cls-6,.cls-7,.cls-8{fill-rule:evenodd;}.cls-2{fill:#057c6d;}.cls-3{fill:#0688c7;}.cls-3,.cls-5,.cls-8{stroke:#1d1d1b;}.cls-10,.cls-11,.cls-3,.cls-4,.cls-5,.cls-6,.cls-7,.cls-8,.cls-9{stroke-miterlimit:10;}.cls-3,.cls-4{stroke-width:7.91px;}.cls-4{fill:#9b8b74;}.cls-4,.cls-6{stroke:#1c1a19;}.cls-5{fill:#f6d61a;stroke-width:8px;}.cls-10,.cls-6,.cls-7{fill:#010101;}.cls-6{stroke-width:2.28px;}.cls-10,.cls-11,.cls-7,.cls-9{stroke:#010101;}.cls-7{stroke-width:2.11px;}.cls-11,.cls-8{fill:none;}.cls-8{stroke-width:10.55px;}.cls-9{stroke-linecap:round;stroke-width:11.43px;}.cls-10,.cls-11{stroke-width:5.71px;}</style></defs><g id="surface1"><path class="cls-1" d="M308,792.93q196-6.7,259.77-216.93l-.18-327.89c-81.3,37.77-171.48-2.25-259.59-82.48C205.26,265,112.22,285.79,26.28,251.84L28.15,568C60.52,708.11,156.19,788.46,308,792.93Z" transform="translate(-22.24 -43.27)"/><path class="cls-2" d="M478.41,728.78C517.83,690.37,549.6,642,567.72,576l-.14-249.47-89.17,67.33Z" transform="translate(-22.24 -43.27)"/><path class="cls-2" d="M232,783.37c41.59,10,83.17,11.74,124.75,4.36v-302L232,579.92Z" transform="translate(-22.24 -43.27)"/><path class="cls-2" d="M111.33,720.94V672.18l-27,19.29A207.07,207.07,0,0,0,111.33,720.94Z" transform="translate(-22.24 -43.27)"/><path class="cls-3" d="M28.15,568l3.13,12.61L468.86,259C410.71,246.3,358.08,211.08,308,165.63c-93,92.25-186.85,122-281.67,86.21Z" transform="translate(-22.24 -43.27)"/><path class="cls-4" d="M72.59,472.05l33,2q6.24,8.13,11.87.73h5.61c9.49-1.41,16.28-7.45,17.14-23.72Q155,437.62,164.9,434.33l43.64-16.2c15.32-5.06,21.64-8.64,25.83-19.61l2-16.41L242,358.94l8.13-16.15L250,309.6a113,113,0,0,0-27.83-31l-14.2,11-19.06,1.72-3.38,24.15-15.12,30.77-1,14.39-21.08,22.59-1.63,14-10.52,13.43,6.56,13.92c-11.89,18.35-24.39,30.54-37.92,31.77l-33.17.11C61.46,456.79,64.56,471.06,72.59,472.05Z" transform="translate(-22.24 -43.27)"/><path class="cls-5" d="M84.32,691.47,567.58,326.53l0-78.42c-33.73,15.92-66.6,18-98.68,10.89L31.28,580.58C41.89,623.56,59.56,660.15,84.32,691.47Z" transform="translate(-22.24 -43.27)"/><path class="cls-6" d="M363.37,365.86l49.29,61.62L445.94,400l-16.82-22.58,49.71-42.58-12.68-14.43L418,360.93l-6.08-8.47,49.78-39.26-13.59-15.82Z" transform="translate(-22.24 -43.27)"/><path class="cls-6" d="M301.87,482.42l13.53-13.75q3.3-3.6,0-7.2l-15.28-17.75c-1.81-2.08-3.91-1.86-5.87.07l-14.53,12.58,22.14,26.05Zm-72-16.15,48.05,58.44,73.46-58c9.79-9.29,10.39-14.3,2.33-23.92L328.2,410.93c-9.09-10.83-14.22-9.79-26.74.14Z" transform="translate(-22.24 -43.27)"/><path class="cls-7" d="M494.83,339.79a6.72,6.72,0,1,1-6.58,6.72A6.65,6.65,0,0,1,494.83,339.79Z" transform="translate(-22.24 -43.27)"/><path class="cls-7" d="M367.81,438.84a6.72,6.72,0,1,1-6.58,6.72A6.65,6.65,0,0,1,367.81,438.84Z" transform="translate(-22.24 -43.27)"/><path class="cls-7" d="M236.82,538.44a6.72,6.72,0,1,1-6.58,6.72A6.65,6.65,0,0,1,236.82,538.44Z" transform="translate(-22.24 -43.27)"/><path class="cls-6" d="M140.13,616.94h14.46l71.75-55.44.29-12.63-42.86-51.74L149.6,523.46,186,567.61l-20,15.94-38.49-46.29L97,564Z" transform="translate(-22.24 -43.27)"/><path class="cls-8" d="M309.24,792.93Q505.22,786.23,569,576l-.18-327.89c-81.29,37.77-171.48-2.25-259.58-82.48C206.55,265,113.51,285.79,27.56,251.84L29.44,568C61.81,708.11,157.47,788.46,309.24,792.93Z" transform="translate(-22.24 -43.27)"/><path class="cls-1" d="M301.07,49c55.47,0,100.44,42.06,100.44,94s-45,94-100.44,94-100.45-42.07-100.45-94S245.59,49,301.07,49Z" transform="translate(-22.24 -43.27)"/><path class="cls-9" d="M301.35,49c55.48,0,100.45,42.06,100.45,94s-45,94-100.45,94-100.44-42.06-100.44-94S245.88,49,301.35,49Z" transform="translate(-22.24 -43.27)"/><path class="cls-10" d="M376,103.58c11.55,9,19.09,20.44,25.51,32.6-2.85-22.79-11.24-43.37-29.53-60C375.72,85,379,96.31,376,103.58Z" transform="translate(-22.24 -43.27)"/><path class="cls-10" d="M267.52,54.45c19.18-.22,34.28,1.55,40.39,7.72q8.58-8.88,28.24-7.39C311.66,47,288.89,47.33,267.52,54.45Z" transform="translate(-22.24 -43.27)"/><path class="cls-10" d="M222.46,138.24q6.21-20.54,25.21-33.89a63.45,63.45,0,0,1-6.94-24.71l-16.37,3a85.39,85.39,0,0,0-20,35.9l.77,14.58Q215.91,134.46,222.46,138.24Z" transform="translate(-22.24 -43.27)"/><path class="cls-10" d="M310.63,83.88a100.72,100.72,0,0,0-28.78,21.6l18.54,37.36,42.72,1.5a116.55,116.55,0,0,0,8.31-37.5Q335,91.23,310.63,83.88Z" transform="translate(-22.24 -43.27)"/><path class="cls-10" d="M237.11,172.52q-8.75,17.78,2.13,37.14c11.59,7.12,23.49,12.69,36.22,14A68.09,68.09,0,0,0,297,209.47c-8.68-11.25-15.41-22.5-17.85-33.74A192.42,192.42,0,0,1,237.11,172.52Z" transform="translate(-22.24 -43.27)"/><path class="cls-10" d="M358.77,173.75a57,57,0,0,1-23.66,34.89l15.6,16.15c15.14-8.56,28.35-19.76,38.13-35.66l-1.52-18.57A40.65,40.65,0,0,1,358.77,173.75Z" transform="translate(-22.24 -43.27)"/><path class="cls-11" d="M222.46,138.24c.09,11.42,6,22.85,14.65,34.28" transform="translate(-22.24 -43.27)"/><path class="cls-11" d="M247.67,104.35q22.07-2.76,34.18,1.13" transform="translate(-22.24 -43.27)"/><path class="cls-11" d="M300.39,142.84c-4.55,6.36-11.9,18-21.19,33.21" transform="translate(-22.24 -43.27)"/><path class="cls-11" d="M343.11,144.34c10.95,10.25,14.89,19.95,15.66,29.42" transform="translate(-22.24 -43.27)"/><path class="cls-11" d="M401.54,136.18c-3.62,17.52-9.66,27.49-14.22,34.38" transform="translate(-22.24 -43.27)"/><path class="cls-11" d="M351.42,106.84A47.85,47.85,0,0,1,376,103.58" transform="translate(-22.24 -43.27)"/><path class="cls-11" d="M240.73,79.64q8.88-14.83,26.79-25.19" transform="translate(-22.24 -43.27)"/><path class="cls-11" d="M307.91,62.17a58.92,58.92,0,0,1,2.72,21.71" transform="translate(-22.24 -43.27)"/><path class="cls-11" d="M239.24,209.66l-6.56,1.85" transform="translate(-22.24 -43.27)"/><path class="cls-11" d="M275.46,223.62a29.44,29.44,0,0,1,.25,10.19" transform="translate(-22.24 -43.27)"/><path class="cls-11" d="M335.11,208.64c-10.79,3.72-24.22,6.46-38.13.83" transform="translate(-22.24 -43.27)"/><path class="cls-11" d="M201.05,137.8a6.86,6.86,0,0,1,4.06-4.72" transform="translate(-22.24 -43.27)"/></g></svg>