<svg id="Capa_1" data-name="Capa 1" xmlns="http://www.w3.org/2000/svg" viewBox="0 0 588.09 659.62"><defs><style>.cls-1{fill:#f28a0e;}.cls-2{fill:none;stroke:#008540;stroke-width:12.46px;}.cls-10,.cls-2,.cls-7,.cls-8,.cls-9{stroke-miterlimit:10;}.cls-3{fill:#06863d;}.cls-12,.cls-4,.cls-7{fill:#1d1d1b;}.cls-5{fill:#0764a8;}.cls-6,.cls-8,.cls-9{fill:#fff;}.cls-10,.cls-13,.cls-7,.cls-8,.cls-9{stroke:#1d1d1b;}.cls-7{stroke-width:3.71px;}.cls-8{stroke-width:2.03px;}.cls-9{stroke-width:0.59px;}.cls-10{stroke-width:0.3px;}.cls-11{fill:#040505;}.cls-12{font-size:47.37px;font-family:Bauhaus93, "Bauhaus 93";}.cls-13{fill:#008540;stroke-linejoin:round;stroke-width:4.99px;}</style></defs><path class="cls-1" d="M546.42,155.19a148.6,148.6,0,0,1,27.1-34.38,245.51,245.51,0,0,0-60.3,17.7C484.36,113.3,399.31,95,298.88,95h-1C197.45,95,112.41,113.3,83.55,138.51a250.17,250.17,0,0,0-26.79-9.95,248.14,248.14,0,0,0-33.51-7.75,148.6,148.6,0,0,1,27.1,34.38c4.16,7.32,10.82,19.23,14.09,36.17,3.41,17.61,1.42,31.68.21,39.77C57,282,47.82,332,43.4,362c-.87,5.9-3.78,26.21-5.87,53,0,0-7.67,98.42,11.34,158.28a173.34,173.34,0,0,0,16.27,36,122.11,122.11,0,0,0,15.78,21.2c13.1,13.67,27.22,19.53,42.41,25.64,51,20.54,87.28,33.54,87.28,33.54,29.46,10.54,44.19,15.82,46.68,17.09,12.21,6.22,26.58,16,41.09,32.25,14.52-16.27,28.89-26,41.1-32.25,2.49-1.27,17.22-6.55,46.68-17.09,0,0,36.28-13,87.28-33.54,15.19-6.11,29.31-12,42.4-25.64a121.58,121.58,0,0,0,15.78-21.2,172.77,172.77,0,0,0,16.27-36c19-59.86,11.35-158.28,11.35-158.28-2.09-26.82-5-47.13-5.87-53C549,332,539.74,282,532.12,231.13c-1.22-8.09-3.2-22.16.2-39.77C535.6,174.42,542.25,162.51,546.42,155.19Z" transform="translate(-4.34 -88.8)"/><path class="cls-2" d="M546.42,155.19a148.6,148.6,0,0,1,27.1-34.38,245.51,245.51,0,0,0-60.3,17.7C484.36,113.3,399.31,95,298.88,95h-1C197.45,95,112.41,113.3,83.55,138.51a250.17,250.17,0,0,0-26.79-9.95,248.14,248.14,0,0,0-33.51-7.75,148.6,148.6,0,0,1,27.1,34.38c4.16,7.32,10.82,19.23,14.09,36.17,3.41,17.61,1.42,31.68.21,39.77C57,282,47.82,332,43.4,362c-.87,5.9-3.78,26.21-5.87,53,0,0-7.67,98.42,11.34,158.28a173.34,173.34,0,0,0,16.27,36,122.11,122.11,0,0,0,15.78,21.2c13.1,13.67,27.22,19.53,42.41,25.64,51,20.54,87.28,33.54,87.28,33.54,29.46,10.54,44.19,15.82,46.68,17.09,12.21,6.22,26.58,16,41.09,32.25,14.52-16.27,28.89-26,41.1-32.25,2.49-1.27,17.22-6.55,46.68-17.09,0,0,36.28-13,87.28-33.54,15.19-6.11,29.31-12,42.4-25.64a121.58,121.58,0,0,0,15.78-21.2,172.77,172.77,0,0,0,16.27-36c19-59.86,11.35-158.28,11.35-158.28-2.09-26.82-5-47.13-5.87-53C549,332,539.74,282,532.12,231.13c-1.22-8.09-3.2-22.16.2-39.77C535.6,174.42,542.25,162.51,546.42,155.19Z" transform="translate(-4.34 -88.8)"/><path class="cls-3" d="M212.34,493.52c-11.86-14.9-12.84-13-18.84-21.73-4.39-6.39-5.67-10-10.21-11.51a14.36,14.36,0,0,0-11.52,1.57c-2.86,1.77-2.51,3.1-7.33,8.9a85.17,85.17,0,0,1-8.37,8.63,47.78,47.78,0,0,1-8.11,6.55,39.38,39.38,0,0,1-8.12,3.66c-5.63,1.84-8.77,1.58-13.49,1.87a306.9,306.9,0,0,0,8.14-99.27c-.21-2.7-.22-2.73,2.32-2a29.77,29.77,0,0,1,8.05,3.67c2.19,1.4,2.16,1.44,2.68-1.21.05-.25.12-.5.26-1.09a18.73,18.73,0,0,1,3.38,4.56c1,1.58,1.87,2.55,3.47.48a12.88,12.88,0,0,0,6.09,6.08c1.2.57,1.41,2,2.18,2.93s1.31,1.9,2.06,3c.34-.76.58-1.28.87-1.9.74,1.14.82,2.47,2,3.42.38-1.14,1-2.07.94-3.28l.52,0c.49,2.56,1,5.11,1.52,7.8l1.56-1c-.79,1.81,1.11,2.81,1,4.27.42,1.27.85,2.55,1.32,4,.86-.61.83-1.56,1.27-2.24,1-5.48,1-10.88-1.65-16.42l2.07,1.13c-8.18-11.78-19.54-18.23-33.73-19.89,1.62-.79,1.62-.79.74-3.21a6.67,6.67,0,0,0,5.12.61c2.21-.84,4.31-.38,6.46-.06,1.59.24,3.19.45,4.77.67.23-.87-.71-1.42-.36-2.27,2.22,1,4.27,2.36,6.82,2.46-.33-1.67-1.53-2.77-2.33-4.73,2.57,1.18,4.61,2.15,6.68,3.05.53.23,1.37.79,1.67.17.54-1.08,1.36-.55,2.17-.64-2-4.47-5.28-7.2-10.08-8-.91-.15-1.9-.21-2.33-1.06a2.33,2.33,0,0,0-2.4-1.2,32.55,32.55,0,0,0-23.65,9c-.28.26-.41.94-1,.67l6.41-14c-1-.34-1.82.06-2.69.06h0l-.51.17-.06,0-.49.18-.06,0-.48.2-1.37.8-.45.26L133.82,369l-.29.27a1.59,1.59,0,0,1-.82,1c-.22.34-.43.69-.65,1-.45,1-.91,2-1.36,3-.07.24-.15.48-.22.72a1.88,1.88,0,0,1,.05.33s-.08.08-.12.12c-.1.43-.19.85-.29,1.27,0,.14,0,.28,0,.43s-.09.59-.14.88c.16.44.27,1.12-.15,1.18s-.67-.65-.79-1.14l-1.11-1.54-.28-.46-.3-.28-.28-.44-1.48-1.64a6.76,6.76,0,0,1-1.93-1.76l-.7-.48-.53-.44c-.78-.45-1.55-.91-2.33-1.34q-12.56-7-25.17-.09c-1.68.92-3.28,2.05-3.92,4.1,1.66-.13,2.7,2,4.74.87,1.57-.88,3.54-1.05,5.9-1.69-1.36,1.57-2.31,2.66-3.44,4,2.74.5,4.92-.78,7.42-1.19-.35.78-.62,1.36-1,2.12,2.7-.33,5.34-1.06,7.7,0a15.44,15.44,0,0,0,7.21,1c.51,0,1.12-.27,1.6.44a3.68,3.68,0,0,0-.87,2.91c-1.21-.27-2.27-.54-3.36-.74C99,378.23,85.59,391.73,82.34,404.62a5,5,0,0,0,.4,4.16,9.42,9.42,0,0,0,2.4-3.25c.55-1.34,1.32-2,2.75-1.26l1.08-.42.52-.68c.19-.35.38-.69.56-1s.29-.81.43-1.22.16-.37.39-.14c2.22.91,2.68-1,3.7-2.61.16,2.09.78,1.67,1.8.88a98,98,0,0,1,10.61-7.1c.51-.3,1.07-.94,1.66-.6,2.38,1.37,3.51-.32,4.73-1.81.83-1,1.48-2.22,3.06-2.62-.05.46-.08.72-.1,1-.21,3.09-.22,3.06,2.65,2,2.23-.82,4.3-2.87,7-.81a58.33,58.33,0,0,0-10.17,10.75,64.17,64.17,0,0,0-7,13.68l2.63-1.42a24.62,24.62,0,0,0-.55,15.45c1-2.63,2.81-4.6,4.41-6.74.06-.23.11-.46.16-.69l.44-1.19,1.58-5.62c.73-.09.39.84,1.11.74.58-1.74,1.13-3.55,1.78-5.33.22-.6.5-1.48,1.47-.68.28-.64.56-1.28.85-1.92a58.43,58.43,0,0,1,8-14.84c.18,5.36.45,10.09.18,14.83,0,1.8.09,3.6,0,5.39a313.88,313.88,0,0,1-10.31,73q-1,4-2.24,7.93c-5.12.85-13.14,2.63-13.54,5.79s6.38,7.19,12.82,8.64c8.81,2,12.24-2.13,24.61-2.62,4.3-.17,1.87.4,18.84,2.09,15.44,1.54,19.41,1.26,25.39,4.45,5.6,3,5,4.82,9.42,6.28,9.83,3.3,23.48-2.25,24.87-9.42C221,506,220.76,504.09,212.34,493.52Z" transform="translate(-4.34 -88.8)"/><path class="cls-4" d="M493.65,427.38a174.2,174.2,0,0,0-6.85-24.9L137.8,598.9c1.37,1.84,2.78,3.67,4.27,5.51A183.32,183.32,0,0,0,164,627l331.7-186.68C495.17,436.08,494.52,431.79,493.65,427.38Z" transform="translate(-4.34 -88.8)"/><path class="cls-4" d="M463.6,358,113.38,555.07a186.29,186.29,0,0,0,16,31.68l351.87-198A183.93,183.93,0,0,0,463.6,358Z" transform="translate(-4.34 -88.8)"/><path class="cls-4" d="M496.8,457.17l-320,180.09c4.6,3.38,9.61,6.77,15.06,10,9.91,6,50.58,29.22,108,28.6,19.08-.21,65.13-1.33,109.47-32,53.19-36.85,68.82-92,77.42-122.29C491.32,505.47,497.24,483.77,496.8,457.17ZM413.44,626.11a123.63,123.63,0,0,1-17.75,13c-26.28,15.69-62.79,22.74-71,24.33-11.85,2.29-29.31,4.79-48.32-1.65-3.51-1.19-19.29-6.53-19.07-13.15.17-5,9.49-8.45,15.12-10.52,22.85-8.39,53.95-7.75,62.79-5.91a11.21,11.21,0,0,0,7.24-.66,7.85,7.85,0,0,0,3.94-4.27,4.81,4.81,0,0,0,.22-1.15,10.6,10.6,0,0,0-1.86-6.09c-4.69-7.78-14.33-11.5-17.1-12.49-9-3.22-16.48-3.11-26.63-3-6.41.1-11-.31-16.43,1.65-4.27,1.54-5.37,3-7.89,3.94s-6.34,1.27-11.63-.78c4.36-4,9.33-8.3,15-12.61,0,0,5.29-4.07,11-7.89,13.46-9.07,87-50.68,190.49-108C474,544.19,447.45,596.5,413.44,626.11Z" transform="translate(-4.34 -88.8)"/><path class="cls-5" d="M346.38,627.26a7.85,7.85,0,0,1-3.94,4.27,11.21,11.21,0,0,1-7.24.66c-8.84-1.84-39.94-2.48-62.79,5.91-5.63,2.07-15,5.5-15.12,10.52-.22,6.62,15.56,12,19.07,13.15,19,6.44,36.47,3.94,48.32,1.65,8.22-1.59,44.73-8.64,71-24.33a123.63,123.63,0,0,0,17.75-13H346.6A4.81,4.81,0,0,1,346.38,627.26Z" transform="translate(-4.34 -88.8)"/><path class="cls-6" d="M280,596.77c-5.63,4.31-10.6,8.58-15,12.61,5.29,2,9,1.78,11.63.78s3.62-2.4,7.89-3.94c5.39-2,10-1.55,16.43-1.65,10.15-.15,17.64-.26,26.63,3,2.77,1,12.41,4.71,17.1,12.49a10.6,10.6,0,0,1,1.86,6.09h66.84c34-29.61,60.54-81.92,68-145.24C378,538.2,304.45,579.81,291,588.88,285.31,592.7,280,596.77,280,596.77Z" transform="translate(-4.34 -88.8)"/><circle class="cls-7" cx="346.1" cy="429.59" r="59.39"/><path class="cls-8" d="M350.44,577.78a59.39,59.39,0,1,0-59.39-59.38A59.45,59.45,0,0,0,350.44,577.78Zm-19.25-4.68a58.31,58.31,0,0,1-26.41-19l7.11-6,15,4.26,9,12.81ZM302.9,520.34l10-13.48,12.2,4.36,10.15,28L327.05,551l-15.26-4.33ZM337,564.23l-8.78-12.48L336.41,540l27.75.06,9.93,9.89-9.37,13.91Zm33,8.78-3.68-9,9.17-13.61,15-4.57,6.46,7.24A58.23,58.23,0,0,1,369.94,573Zm27.85-88a57.64,57.64,0,0,1,10.59,31.25l-9,.76-9.52-11.17-.57-17Zm.56,32.92-7.94,26.52-15.23,4.65-10-10,9.48-27.26,14.35-4.9Zm-9.87-12.31-14.37,4.91L351.6,492.9l.11-14.48L365,473.29l22.94,15.5Zm-38-45.18a57.93,57.93,0,0,1,15.62,2.15l-2.1,9.64-13,5-15.25-4.78-.64-10A58,58,0,0,1,350.44,460.4Zm-15.63,13.2,15.51,4.85-.1,14.38L325.82,510l-12.48-4.45-.69-16.25Zm-23.52,16.32.67,15.9L301.8,519.5l-9.34-2.15a57.75,57.75,0,0,1,10.82-32.67Z" transform="translate(-4.34 -88.8)"/><circle class="cls-4" cx="347.27" cy="429.59" r="29.59"/><polygon class="cls-9" points="360.8 450.25 370.85 460.26 386.07 455.61 394.01 429.09 384.63 418.08 370.28 422.99 360.8 450.25"/><polygon class="cls-9" points="384.14 416.78 383.58 399.99 360.64 384.49 347.37 389.62 347.27 404.1 369.78 421.69 384.14 416.78"/><polygon class="cls-9" points="332.07 451.17 323.85 462.95 332.63 475.43 360.38 475.04 369.75 461.13 359.82 451.24 332.07 451.17"/><polygon class="cls-9" points="320.79 422.42 308.58 418.06 298.57 431.54 307.45 457.82 322.71 462.15 330.93 450.38 320.79 422.42"/><polygon class="cls-9" points="321.48 421.19 345.88 404.02 345.98 389.65 330.48 384.8 308.31 400.49 309 416.74 321.48 421.19"/><path class="cls-10" d="M399.4,517l9-.76A57.64,57.64,0,0,0,397.79,485l-8.48,3.83.57,17Z" transform="translate(-4.34 -88.8)"/><path class="cls-10" d="M375.43,550.44l-9.17,13.61,3.68,9a58.23,58.23,0,0,0,26.93-19.9l-6.46-7.24Z" transform="translate(-4.34 -88.8)"/><path class="cls-10" d="M311.89,548.09l-7.11,6a58.31,58.31,0,0,0,26.41,19l4.73-7.94-9-12.81Z" transform="translate(-4.34 -88.8)"/><path class="cls-10" d="M351,477.21l13-5,2.1-9.64a57.84,57.84,0,0,0-31-.08l.64,10Z" transform="translate(-4.34 -88.8)"/><path class="cls-10" d="M301.8,519.5,312,505.82l-.67-15.9-8-5.24a57.75,57.75,0,0,0-10.82,32.67Z" transform="translate(-4.34 -88.8)"/><path class="cls-11" d="M293.19,396.4a66.43,66.43,0,0,1,.46,12.37,38.12,38.12,0,0,1-1.35,8,12.89,12.89,0,0,0,.25,7c.79,2.55,1.43,5.13,2.08,7.72a8.65,8.65,0,0,0,3.12,5.07,2.62,2.62,0,0,1,.9,3.28c-1.13,3.36-2.27,6.72-3.33,10.1a37.85,37.85,0,0,0-1.59,8.37,10.27,10.27,0,0,0,.07,1.46,1.47,1.47,0,0,1-1,1.56c-1,.46-1.14,1.05-.45,1.93a2.09,2.09,0,0,1,.46.69c.11.39.19.78-.26,1a15.56,15.56,0,0,1-6.68,2.25,4.65,4.65,0,0,1-2-.57c-.37-.15-.29-.48-.17-.77a3,3,0,0,1,2-1.93,3.38,3.38,0,0,0,2.61-2.64,27.11,27.11,0,0,1,1.33-3,34,34,0,0,0,2.46-9.4c.1-1,.18-2.05.23-3.08a9.69,9.69,0,0,0-1-5.05,5.65,5.65,0,0,1-.61-2.6,7.45,7.45,0,0,0-1.59-4.53c-1-1.36-1.89-2.79-2.82-4.19l-.12-.15a19.2,19.2,0,0,0-.34,6.79,4.65,4.65,0,0,0,.85,1.69,2.8,2.8,0,0,1,0,3c-1.77,3.43-3.79,6.74-5.37,10.28-.67,1.52-1.3,3.05-1.94,4.59a6.19,6.19,0,0,0-.48,2.45c0,1.18-.33,1.65-1.47,1.78a1.51,1.51,0,0,0-1.43,1.41,2.22,2.22,0,0,1-1.62,1.81,15.73,15.73,0,0,1-6.11,1,2.27,2.27,0,0,1-1.83-.93.65.65,0,0,1-.05-.82,2.54,2.54,0,0,1,1.78-1.31,19,19,0,0,0,4.26-1.54,3.16,3.16,0,0,0,1.25-1.26,46.09,46.09,0,0,1,2.94-4,7.32,7.32,0,0,0,1.23-2.56,36.07,36.07,0,0,0,1.92-6.19,24.85,24.85,0,0,0,.36-5.38,12.08,12.08,0,0,1,0-2.25,11.19,11.19,0,0,0-1-5.9c-1.2-2.7-1.61-5.61-2.31-8.45-.48-1.91-.59-3.88-.9-5.83a11.11,11.11,0,0,0-1-2.48c-.56-1.34-1.1-2.69-1.66-4.07a44.57,44.57,0,0,1-4,2.75,42.36,42.36,0,0,1-13.54,5.61,28.83,28.83,0,0,1-11.55.34c-.27,0-.33.07-.42.29a11.9,11.9,0,0,0-.68,4.91c.05,2.33-.32,4.64-.48,7a13.7,13.7,0,0,0,.88,5.95,7.48,7.48,0,0,1,.34,4.1,42.12,42.12,0,0,0-.2,12.28c.18,1.57.37,3.13.55,4.7a6.62,6.62,0,0,1,0,1.09,7.4,7.4,0,0,0,.24,2.77,1.27,1.27,0,0,1-.71,1.51,1.28,1.28,0,0,0-.68,1.71,1.75,1.75,0,0,1-1,2.3,7.45,7.45,0,0,1-4.63,1.25c-.43,0-.85.2-1.28,0-.12-.05-.33-.07-.35-.14-.15-.56-.66-.59-1-.82s-.29-.61-.11-.94a3.56,3.56,0,0,1,1.38-1.37c.78-.45,1.53-.95,2.34-1.33a2.7,2.7,0,0,0,1.62-2.19,7,7,0,0,1,.72-2.23,4.67,4.67,0,0,0,.46-2.78c-.19-1.62-.33-3.24-.55-4.86a36.32,36.32,0,0,0-1.68-7.76,11.84,11.84,0,0,1-.57-5.15,9.32,9.32,0,0,0-1.22-4.77,11.39,11.39,0,0,0,.2,3,13.3,13.3,0,0,1,0,4.75,49.37,49.37,0,0,0-.53,5.15,78.43,78.43,0,0,0-.49,9.32,1.77,1.77,0,0,0,0,.61,1.44,1.44,0,0,1-.26,1.61.69.69,0,0,0-.07.7,1.23,1.23,0,0,1-.59,1.5,1.82,1.82,0,0,0-.86,2.06,4,4,0,0,1,0,.78c0,.94-.21,1.22-1.1,1.48a13.62,13.62,0,0,1-3.79.74,5.72,5.72,0,0,0-1.43,0,1.94,1.94,0,0,1-1.51-.85.8.8,0,0,1,.25-1,3.45,3.45,0,0,1,1.22-.78,11.34,11.34,0,0,0,3-1.37,1.46,1.46,0,0,0,.78-1.24,14.92,14.92,0,0,1,.91-4.82,33,33,0,0,0,.7-6.87,13.56,13.56,0,0,0-.64-5,16.64,16.64,0,0,1-.68-6.27c.07-1.42.05-2.85.1-4.28a13.2,13.2,0,0,0-1-4.8,20.55,20.55,0,0,1-.85-5.7c-.06-1.14-.13-2.28-.3-3.42a1.64,1.64,0,0,0-.71-1.09,6.44,6.44,0,0,1-1.81-2,.94.94,0,0,0-.51-.39,7.73,7.73,0,0,0-2.94-.36,53,53,0,0,1-5.35-.06,7.93,7.93,0,0,1-4.11-1.5,8.83,8.83,0,0,0-4.11-1.69,7.14,7.14,0,0,1-3.36-1.71,26.47,26.47,0,0,1-4.93-4.82,11.84,11.84,0,0,1-2-4.18,19.54,19.54,0,0,0-2-5.74,8.12,8.12,0,0,1-.63-1.55,2.92,2.92,0,0,1-.16-.71,8.09,8.09,0,0,0-2-4.78,1.93,1.93,0,0,1-.47-1.12,1.47,1.47,0,0,0-.49-.82,2.57,2.57,0,0,0-2.83-1,5.92,5.92,0,0,1-2-.06,1.68,1.68,0,0,0-1.39.48,5.93,5.93,0,0,1-1.33.83,2.46,2.46,0,0,1-2.27,0,1.81,1.81,0,0,0-1.19-.11c-.7.18-1.15-.32-.92-1a.9.9,0,0,0-.08-1,1.68,1.68,0,0,1,0-1.57,5.75,5.75,0,0,1,1.43-1.92,1.47,1.47,0,0,0,.33-.55,3.71,3.71,0,0,1,2.58-2.15,18.23,18.23,0,0,1,2.54-.44,11.11,11.11,0,0,0,3.78-1.18c1.73-1,3.69-1.43,5.46-2.28a6,6,0,0,1,5-.06,2.19,2.19,0,0,1,1,.58,1.56,1.56,0,0,0,1.64.54c.71-.08,1.56.06,1.85.67s-.21,1.28-.68,1.67a1.52,1.52,0,0,0-.34,2.12,11.59,11.59,0,0,1,.9,2.82c0,.21.3.57-.21.65-.13,0-.07.19-.05.29.08.52.18,1,.25,1.55a2.06,2.06,0,0,1-.13,1.21,2.64,2.64,0,0,0,0,1.71c.57,2.21,1.06,4.44,1.75,6.61a5.3,5.3,0,0,0,4.42,3.81,16.42,16.42,0,0,0,6.44,0,23.06,23.06,0,0,0,5.25-1.72,6.2,6.2,0,0,0,3.42-4.22,11.36,11.36,0,0,1,3.15-5.35,56.7,56.7,0,0,1,4.94-4.09,39.76,39.76,0,0,0,5.83-5.1c1.09-1.26,2-2.67,2.95-4a23.89,23.89,0,0,1,12-9.05c3.16-1.07,6.15-.43,9.07,1,2.12,1,3.65,2.71,5.3,4.29,3,2.84,5.72,5.91,8.77,8.66a10.77,10.77,0,0,0,4,2.2,18.09,18.09,0,0,0,3.34.73c1,.1,1.48.95,2.09,1.6a11.8,11.8,0,0,1,2.07,4.07,10.37,10.37,0,0,0,.45,1,3.08,3.08,0,0,0,1.81,1.81c2,.68,2.79,2.2,3.16,4.13a32.75,32.75,0,0,1,.26,10c-.21,1.67-.26,3.37-.38,5.05-.08,1.13-.15,2.25-.34,3.36,0,.15,0,.36-.19.37s-.19-.25-.21-.39c-.29-2.56-.56-5.13-.85-7.7a64.49,64.49,0,0,0-1.11-7.44,3.46,3.46,0,0,0-.86-1.73c-.48-.48-.87-1-1.39-1.46l-.07-.14A.15.15,0,0,0,293.19,396.4Z" transform="translate(-4.34 -88.8)"/><text class="cls-12" transform="translate(120.48 264.31) scale(1 1.13)">SDAD. TAMASITE</text><text class="cls-12" transform="translate(99.23 88.85) scale(1 1.13)">U.D.GRAN TARAJAL</text><path class="cls-13" d="M516.34,257.26l-63.4-63.39c-3.58,15.22-23.64,26.91-48,27.15L327.47,305.1h150.4c0-24.51,17-44.38,38-44.38h.5a32.9,32.9,0,0,1,3.73.27Z" transform="translate(-4.34 -88.8)"/><path class="cls-13" d="M355.13,192.15l-44.91,5.35v89.58L383.15,218C367.84,213.26,356.86,203.59,355.13,192.15Z" transform="translate(-4.34 -88.8)"/><path class="cls-13" d="M80.43,257.26l63.4-63.39c3.58,15.22,23.63,26.91,48,27.15L269.3,305.1H118.89c0-24.51-17-44.38-38-44.38h-.49a32.9,32.9,0,0,0-3.73.27Z" transform="translate(-4.34 -88.8)"/><path class="cls-13" d="M241.64,192.15l44.91,5.35v89.58L213.62,218C228.92,213.26,239.91,203.59,241.64,192.15Z" transform="translate(-4.34 -88.8)"/></svg>