<svg id="Capa_1" data-name="Capa 1" xmlns="http://www.w3.org/2000/svg" viewBox="0 0 453.47 815.61"><defs><style>.cls-1,.cls-10,.cls-11,.cls-14,.cls-15,.cls-16,.cls-18,.cls-19,.cls-21,.cls-25,.cls-43{fill:none;}.cls-1,.cls-36,.cls-37,.cls-39,.cls-40,.cls-43{stroke:#1d1d1b;}.cls-1,.cls-31,.cls-5{stroke-linejoin:round;}.cls-1{stroke-width:11.8px;}.cls-2,.cls-4,.cls-5,.cls-7,.cls-9{fill:#eac108;}.cls-10,.cls-11,.cls-12,.cls-13,.cls-14,.cls-15,.cls-16,.cls-17,.cls-18,.cls-19,.cls-2,.cls-20,.cls-21,.cls-22,.cls-23,.cls-24,.cls-25,.cls-26,.cls-27,.cls-28,.cls-3,.cls-31,.cls-32,.cls-33,.cls-34,.cls-4,.cls-41,.cls-42,.cls-5,.cls-6,.cls-7,.cls-8,.cls-9{stroke:#010101;}.cls-2,.cls-21,.cls-23,.cls-26,.cls-3,.cls-4,.cls-6{stroke-miterlimit:21.38;}.cls-2,.cls-23,.cls-26,.cls-3{stroke-width:0.81px;}.cls-17,.cls-20,.cls-22,.cls-28,.cls-3,.cls-6{fill:#e52629;}.cls-21,.cls-4,.cls-5,.cls-6{stroke-width:0.87px;}.cls-13,.cls-22,.cls-24,.cls-25,.cls-27,.cls-28,.cls-7{stroke-miterlimit:4.28;}.cls-13,.cls-24,.cls-25,.cls-27,.cls-28,.cls-7{stroke-width:0.81px;}.cls-12,.cls-26,.cls-27,.cls-8{fill:#e3e3e4;}.cls-8{stroke-miterlimit:3.4;stroke-width:0.81px;}.cls-9{stroke-width:0.16px;}.cls-10{stroke-width:0.81px;}.cls-11{stroke-width:0.81px;}.cls-12{stroke-miterlimit:3.4;stroke-width:0.81px;}.cls-13{fill:#0d71b9;}.cls-14{stroke-width:0.81px;}.cls-15{stroke-width:0.81px;}.cls-16{stroke-width:0.81px;}.cls-17{stroke-miterlimit:21.38;stroke-width:0.81px;}.cls-18{stroke-width:0.81px;}.cls-19{stroke-width:0.81px;}.cls-20{stroke-miterlimit:21.38;stroke-width:0.81px;}.cls-22{stroke-width:0.87px;}.cls-23,.cls-24,.cls-31,.cls-32{fill:#03904c;}.cls-29,.cls-37,.cls-39{fill:#fff;}.cls-30{fill:#1fa6e0;}.cls-31{stroke-linecap:round;}.cls-31,.cls-32,.cls-33{stroke-width:0.66px;}.cls-31,.cls-32{fill-rule:evenodd;}.cls-33{fill:#a0388c;}.cls-33,.cls-36,.cls-37,.cls-39,.cls-40,.cls-41,.cls-42,.cls-43{stroke-miterlimit:10;}.cls-34{fill:#ffde00;stroke-width:0.08px;}.cls-35{fill:#e6282a;}.cls-36,.cls-38,.cls-41,.cls-42{fill:#1d1d1b;}.cls-36{stroke-width:5.53px;}.cls-37{stroke-width:3.03px;}.cls-39{stroke-width:0.88px;}.cls-40{stroke-width:0.44px;}.cls-41{font-size:50.37px;}.cls-41,.cls-42{stroke-width:1.31px;font-family:CooperBlack, Cooper Black;}.cls-42{font-size:76.17px;}.cls-43{stroke-width:6.56px;}</style></defs><path class="cls-1" d="M433.74,255.94c5.29,1,11.94-2.07,16.32-5,7.66-5.06,14.72-17.14,15.33-18.2.08,0,.14.09.23.13a10.31,10.31,0,0,0,11.14-10.5,11.39,11.39,0,0,0,2-3,15.25,15.25,0,0,1,4.59-5.65c7.18-5.77,5.32-2.57,18-9.78-3.08-.57-8.7-2.8-13.44-3.82l3.74-8.46,0,.09a37.2,37.2,0,0,0,2.15-3.55l.45,0a8,8,0,0,0,7.84-8.23,8.31,8.31,0,0,0-3.19-6.62c0-.17.07-.35.1-.52.21,0,.42,0,.63,0A8.25,8.25,0,0,0,500,156.5c0-.05,0-.09,0-.14.21,0,.43,0,.65,0a8.24,8.24,0,0,0,0-16.47c-.17,0-.33,0-.5,0a8.2,8.2,0,0,0,5.32-7.8,8,8,0,0,0-7.85-8.22,7.67,7.67,0,0,0-2.67.49,8.36,8.36,0,0,0,2.61-6.12,7.85,7.85,0,1,0-15.69,0,8.61,8.61,0,0,0,1,4,69,69,0,0,0-6.37-5.37l.27,0a8.24,8.24,0,1,0-7.84-8.24,8.54,8.54,0,0,0,.83,3.69,73.85,73.85,0,0,0-8.89-4.48,7.5,7.5,0,0,0,1.72.2,8.24,8.24,0,1,0-7.85-8.24,8.28,8.28,0,0,0,3.95,7.16,84.34,84.34,0,0,0-11-3.4,8.22,8.22,0,1,0-8.31-8.22,8.26,8.26,0,0,0,4.32,7.37,93.79,93.79,0,0,0-11.35-1.47A8.1,8.1,0,0,0,439,93.21,8,8,0,0,0,431.19,85a7.85,7.85,0,0,0-7.51,5.84,7.77,7.77,0,0,0-15.24,1.28,7.75,7.75,0,0,0-6.43-3.5,7.55,7.55,0,0,0-3.72,1,8.5,8.5,0,0,0-5.62-12.75,7.47,7.47,0,0,0-7.28,3.1,8.9,8.9,0,0,0,.7-2.5,8.38,8.38,0,0,0-6.8-9.36,7.57,7.57,0,0,0-8.38,5.25,5.67,5.67,0,0,0,.1-.57,8.36,8.36,0,0,0-6.79-9.36,7.66,7.66,0,0,0-8.75,6.93,8.38,8.38,0,0,0,6.79,9.38,7.61,7.61,0,0,0,8.38-5.28c0,.2-.08.39-.1.59a8.37,8.37,0,0,0,6.8,9.37,7.48,7.48,0,0,0,7.28-3.12,8.26,8.26,0,0,0-.7,2.51,8.68,8.68,0,0,0,1.54,6.08c-9.54-7-22.18-11.29-36.27-11.29h-.64c3.47-.61,6.42-4,6.87-7.8a8.28,8.28,0,0,0-6.85-9.23,8,8,0,0,0-9.06,7,8.75,8.75,0,0,0,0,1.53,8.21,8.21,0,0,0-6.65-6.5c-4.32-.67-8,2.42-8.75,6.94a8.91,8.91,0,0,0,.28,4,8.13,8.13,0,0,0-6.19-5c-.15,0-.3,0-.45,0-1.39-8.4-7.64-14.94-15.5-16.06V37.1h9.9V31.51h-9.9V21.65h-4.78v9.86h-9.91V37.1h9.91V53.46c-7.86,1.12-14.12,7.66-15.51,16.06-.15,0-.29,0-.44,0a8.38,8.38,0,0,0-6.8,9.36,8.1,8.1,0,0,0,2.73,5.2,62.43,62.43,0,0,0-10.76-3.64,7.22,7.22,0,0,0,1.74,0,8.74,8.74,0,0,0,7.18-10c-.74-4.51-4.43-7.61-8.75-6.94a8.21,8.21,0,0,0-6.58,6.13,7.47,7.47,0,0,0,0-1.25,8,8,0,0,0-9.13-6.95,8.29,8.29,0,0,0-6.86,9.23c.46,3.81,3.19,7.2,6.59,7.79h-.24c-14.22,0-27,4.4-36.52,11.48a8.69,8.69,0,0,0,1.68-6.27,8.55,8.55,0,0,0-.7-2.51,7.48,7.48,0,0,0,7.28,3.12A8.37,8.37,0,0,0,229.1,75c0-.2-.06-.39-.1-.59a7.6,7.6,0,0,0,8.37,5.28,8.38,8.38,0,0,0,6.8-9.38,7.66,7.66,0,0,0-8.75-6.93,8.38,8.38,0,0,0-6.8,9.36c0,.19.07.38.1.57a7.56,7.56,0,0,0-8.37-5.25,8.37,8.37,0,0,0-6.8,9.36,8.57,8.57,0,0,0,.7,2.5,7.47,7.47,0,0,0-7.28-3.1,8.39,8.39,0,0,0-6.8,9.36,8.3,8.3,0,0,0,1.18,3.39,7.58,7.58,0,0,0-3.72-1,7.74,7.74,0,0,0-6.43,3.5A7.77,7.77,0,0,0,176,90.83,7.86,7.86,0,0,0,168.44,85a8,8,0,0,0-7.84,8.22,8.1,8.1,0,0,0,6.69,8.14,93.46,93.46,0,0,0-11.45,1.49,8.24,8.24,0,0,0,4.39-7.4,7.85,7.85,0,1,0-8.24,8.22,83.48,83.48,0,0,0-11.19,3.5,8.29,8.29,0,0,0,4.11-7.26,7.85,7.85,0,1,0-7.85,8.24,7.71,7.71,0,0,0,2-.27,71.92,71.92,0,0,0-9.2,4.64,8.64,8.64,0,0,0,.87-3.78,7.85,7.85,0,1,0-7.85,8.24l.39,0a66.34,66.34,0,0,0-6.62,5.6,8.46,8.46,0,0,0,1.12-4.24,7.85,7.85,0,1,0-15.69,0,8.39,8.39,0,0,0,2.6,6.12,7.62,7.62,0,0,0-2.67-.49,8,8,0,0,0-7.84,8.22,8.2,8.2,0,0,0,5.32,7.8c-.17,0-.33,0-.5,0a8.24,8.24,0,0,0,0,16.46c.25,0,.49,0,.73,0,0,0,0,.09,0,.14A8.24,8.24,0,0,0,100,173a6.84,6.84,0,0,0,.79,0c0,.14.06.28.08.41a8.33,8.33,0,0,0-3.34,6.74,8,8,0,0,0,7.85,8.23c.25,0,.5,0,.74,0,.55,1,1.13,2.06,1.75,3l-.2.33,5.89,9.29c-4,1.12-8.08,2.65-10.55,3.1,12.72,7.21,10.86,4,18,9.78a18,18,0,0,1,2.77,2.74l-.24-.06.28.11a12.23,12.23,0,0,1,2,3.53,11,11,0,0,0,.63,1.41,10.31,10.31,0,0,0,9.12,11.37c.94,1.62,7.81,13.16,15.26,18.08,4.39,2.91,11,6,16.33,5a11.63,11.63,0,0,0,2.41-.75l0,.11c-1.37.45-2.74.91-4.07,1.37a4.89,4.89,0,0,0-2.72,6,4,4,0,0,0,5.33,2.65l.1,0c.6,0,4.05.22,7.2,5.41l-4.33,6.46.09.05v.06l1.38.6,5.85,2.8.71-.59c1.53,5.23,1.63,7.94.35,9.34a5.14,5.14,0,0,0-3.14,5.12c0,.06,0,.11,0,.17s0,.08,0,.12a5.28,5.28,0,0,0,3.25,5.48,282.79,282.79,0,0,0,44.23,10.83H77.21V614.89c0,113.81,94.7,206.52,213.06,210.43,2.58.08,5.17.14,7.77.14s5.2-.06,7.78-.14c118.36-3.91,213.06-96.62,213.06-210.43V311.1H375.8A282.65,282.65,0,0,0,420,300.27a5.31,5.31,0,0,0,3.23-5.48s0-.09,0-.14a.75.75,0,0,0,0-.15,5.11,5.11,0,0,0-3.23-5.18m2.22.69c-2.09-1.13-2.29-3.76-.52-9.85l.57.47.15-.07.09.07,7.32-3.51-4.36-6.51c2.92-4.77,6.08-5.31,7-5.35l.09,0a4,4,0,0,0,5.32-2.65,4.89,4.89,0,0,0-2.72-6M497.63,140.4l.48,0a7.55,7.55,0,0,0-1.87,1c-.17-.41-.37-.81-.55-1.21A7.32,7.32,0,0,0,497.63,140.4Zm-7.91-13.85a7.55,7.55,0,0,0,2.65-.49,8.19,8.19,0,0,0-2.4,4.34,62,62,0,0,0-4-4.82A7.51,7.51,0,0,0,489.72,126.55Zm-66-30.86a8,8,0,0,0,5.52,5.49c-1.2-.05-2.4-.08-3.62-.08-2.85,0-5.65.13-8.4.37A8,8,0,0,0,423.7,95.69Zm1.89,17.44c28.11,0,47.57,7.83,54.37,24.68a36.48,36.48,0,0,1-1,30.38,127.46,127.46,0,0,0-17.06-10.32c-15.25-7.66-30.5-11.18-41-11-2.14.19-4.37.3-6.66.33a8.43,8.43,0,0,0,.58-2.22,8.55,8.55,0,0,0-3.72-8.16,7.79,7.79,0,0,0,7.17-7,8.11,8.11,0,0,0-8.1-9.44c0-.13-.06-.26-.1-.39a7.77,7.77,0,0,0,6.45-6.41C419.45,113.3,422.49,113.13,425.59,113.13Zm-15.8-14.66c0-.12,0-.24,0-.37a7.69,7.69,0,0,0,6.38,3.44h.15c-2.83.27-5.61.67-8.32,1.17A8.28,8.28,0,0,0,409.79,98.47ZM103.47,141.4a7.71,7.71,0,0,0-2-1l.48,0a7.31,7.31,0,0,0,2-.29C103.85,140.54,103.65,141,103.47,141.4Zm6.22-10.89a8.23,8.23,0,0,0-2.42-4.45,7.46,7.46,0,0,0,6.56-.61A60.13,60.13,0,0,0,109.69,130.51Zm66.24-34.82a8,8,0,0,0,6.41,5.76c-2.69-.22-5.43-.35-8.21-.35-1.25,0-2.49,0-3.73.08A8,8,0,0,0,175.93,95.69Zm-52.55,21.25h0c-.45.36-.9.72-1.33,1.08C122.48,117.66,122.93,117.3,123.38,116.94Zm66.24,3.45a7.53,7.53,0,0,0-1.41.09,8.36,8.36,0,0,0-6.79,9.35,7.79,7.79,0,0,0,7.17,7,8.55,8.55,0,0,0-3.14,10.39c-2.82,0-5.55-.11-8.15-.34-10.53-.23-25.78,3.29-41,11a130.08,130.08,0,0,0-15.89,9.5,36.45,36.45,0,0,1-.62-29.56c6.82-16.85,26.27-24.68,54.37-24.68,3.08,0,6.09.17,9,.45a7.75,7.75,0,0,0,6.54,6.43Zm-6.16-18.85a7.68,7.68,0,0,0,6.36-3.44l0,.37a8.31,8.31,0,0,0,1.75,4.21C189,102.19,186.23,101.8,183.46,101.54Zm17.47,3.13,0,0c-.61,1.11-1.17,2.24-1.67,3.4A35.92,35.92,0,0,1,200.93,104.67ZM200.46,144h0c.28.58.57,1.16.88,1.73C201,145.15,200.74,144.57,200.46,144ZM390.71,93.15a7.4,7.4,0,0,0,4.73-.84,8.46,8.46,0,0,0-1.27,4.2c-1.37-1.13-2.8-2.22-4.3-3.23.12.1.23.22.35.33l-.46-.33A46.23,46.23,0,0,1,394.23,98v0A48.06,48.06,0,0,0,389,92.65,8.4,8.4,0,0,0,390.71,93.15ZM339.61,73a8.41,8.41,0,0,0,0-1.66c.75,3.34,3.43,6.77,6.85,7.3h.16a69.2,69.2,0,0,0-12.23,1.54A8.89,8.89,0,0,0,339.61,73Zm-14.66,6a8.54,8.54,0,0,0-.29-3.47A8.23,8.23,0,0,0,331,80.64a6.88,6.88,0,0,0,1.36,0,62.39,62.39,0,0,0-10.21,3.55A8.07,8.07,0,0,0,325,78.93Zm-10.87,6.29a7.93,7.93,0,0,0,2.12.66,7.43,7.43,0,0,0,2.71-.09c-1.61.86-3.17,1.77-4.65,2.75-.08-.6-.16-1.19-.25-1.78-.07-.36-.17-.72-.26-1.08Zm-30.65.66a7.74,7.74,0,0,0,2.14-.67c.11.16.23.33.35.48-.1.36-.19.71-.26,1.07-.09.58-.17,1.16-.25,1.75-1.45-1-3-1.85-4.54-2.68A7.56,7.56,0,0,0,283.43,85.88ZM252.8,78.59c3.32-.51,6.32-3.85,7.18-7.08A8.94,8.94,0,0,0,260,73a8.56,8.56,0,0,0,5.26,7.19,67.76,67.76,0,0,0-12.67-1.55ZM208.92,93.15a8,8,0,0,0,2-.59,48,48,0,0,0-5.5,5.65l0-.2a44.14,44.14,0,0,1,4.47-4.73c-1.54,1-3,2.15-4.41,3.31a8.47,8.47,0,0,0-1.28-4.28A7.42,7.42,0,0,0,208.92,93.15Zm2.22,51.39a35.84,35.84,0,0,1-5.75-23.77c.84-19.12,19.23-32.6,45.17-32.6,13.28,0,25.29,4.1,33.82,10.68q-.25,4.05-.32,8.33c0,.77,0,1.52,0,2.27s-.15,1.82-.16,2.71c-.08,4.75-.32,9.32-.69,13.63-19,1.34-35.1,5.17-47,10.53C229.47,139.83,220.76,142.59,211.14,144.54ZM316.43,126c-.37-4.36-.61-9-.68-13.82,0-.89-.16-1.83-.18-2.71s.06-1.5.05-2.27c-.05-2.84-.17-5.6-.34-8.28,8.55-6.62,20.57-10.73,33.91-10.73,25.91,0,44.33,13.48,45.16,32.6a37.9,37.9,0,0,1,.21,4,35.51,35.51,0,0,1-6.15,20c-10.17-2-19.38-4.82-26.53-8.5C350.57,131.21,334.67,127.48,316.43,126Z" transform="translate(-71.31 -15.75)"/><g id="layer1"><g id="g7054"><g id="g6877"><path id="path831" class="cls-2" d="M203.91,203.42c0-5,3.76-9.07,8.38-9.07s8.38,4.06,8.38,9.07-3.76,9.05-8.38,9.05S203.91,208.41,203.91,203.42Z" transform="translate(-71.31 -15.75)"/><path id="path9682" class="cls-3" d="M298.44,125.25c25.69,0,48.55,4.34,63.44,11.07,8.52,4.39,20,7.63,32.48,9.54a113.17,113.17,0,0,0,26.49,1.06c10.54-.23,25.79,3.29,41,11,12.62,6.39,23.16,14.15,30.16,21.67L486,185.69l-1.75,17.48-16.62,21.7-8.3,8-19.67,18-10,.93-3.05,9.92-127.27-17-127.65,17-3.06-9.92-10.07-.93-19.66-18-8.31-8-16.61-21.7-1.73-17.48-6.09-6.15c7-7.52,17.57-15.28,30.17-21.67,15.25-7.66,30.5-11.18,41-11a113.17,113.17,0,0,0,26.49-1.06c12.53-1.91,24-5.15,32.49-9.54,14.9-6.73,36.49-11.07,62.16-11.07Z" transform="translate(-71.31 -15.75)"/><path id="path838" class="cls-4" d="M299.85,316.88C252.43,316.8,210,310.4,179.65,300a5.31,5.31,0,0,1-3.26-5.49,5.14,5.14,0,0,1,3.26-5.18c30.31-10.4,72.78-16.8,120.2-16.88,47.4.08,89.85,6.48,120.16,16.88a5.11,5.11,0,0,1,3.23,5.18A5.31,5.31,0,0,1,420,300c-30.31,10.41-72.76,16.81-120.16,16.89" transform="translate(-71.31 -15.75)"/><path id="path6682" class="cls-5" d="M300.28,309.79c-42.79-.07-81.47-5.7-110.91-14.38,29.44-8.69,68.12-14,110.91-14.09,42.78.09,81.66,5.4,111.1,14.09-29.44,8.68-68.32,14.31-111.1,14.38Z" transform="translate(-71.31 -15.75)"/><path id="path840" class="cls-6" d="M300.28,309.79c-42.79-.07-81.47-5.7-110.91-14.38,29.44-8.69,68.12-14,110.91-14.09,42.78.09,81.66,5.4,111.1,14.09-29.44,8.68-68.32,14.31-111.1,14.38" transform="translate(-71.31 -15.75)"/><path id="path834" class="cls-2" d="M300.06,272.4c-48,.1-91.05,7-121.36,17.61,2.52-1.36,2.29-4.9-.84-14.11-3.79-11.13-9.68-10.64-9.68-10.64,33.51-11.3,80.16-18.36,132.09-18.44,51.94.08,99,7.14,132.48,18.44,0,0-5.9-.49-9.68,10.64-3.13,9.21-3.37,12.75-.84,14.11C391.92,279.36,348,272.5,300.06,272.4" transform="translate(-71.31 -15.75)"/><path id="path836" class="cls-2" d="M300.27,246.84c-51.93.09-98.58,7.14-132.09,18.45a4,4,0,0,1-5.33-2.65,4.89,4.89,0,0,1,2.72-6c33.66-11.77,81.51-19.16,134.71-19.29,53.21.11,101.24,7.52,134.91,19.29a4.89,4.89,0,0,1,2.71,6,4,4,0,0,1-5.32,2.65c-33.52-11.31-80.37-18.36-132.31-18.45" transform="translate(-71.31 -15.75)"/><path id="path4094" class="cls-7" d="M299.84,272.72c-47.41.08-89.89,6.49-120.2,16.89a5.13,5.13,0,0,0-3.25,5.18,5.28,5.28,0,0,0,3.25,5.48c30.31,10.41,72.79,16.81,120.2,16.89,47.41-.08,89.87-6.48,120.18-16.89a5.31,5.31,0,0,0,3.23-5.48,5.11,5.11,0,0,0-3.23-5.18C389.71,279.21,347.25,272.8,299.84,272.72Zm-.12,8.89c42.78.1,81.67,5.39,111.11,14.08-29.44,8.68-68.33,14.31-111.11,14.37s-81.47-5.69-110.91-14.37C218.25,287,256.93,281.71,299.72,281.61Z" transform="translate(-71.31 -15.75)"/><path id="path879" class="cls-2" d="M204.45,163.6l5.36,4.9,8-15a35.55,35.55,0,0,1-14.49-32.75c.84-19.12,21.26-34.92,47.2-34.92,13.45,0,25.6,4.2,34.15,10.93.23-3,.47-5.49.83-8.19-9.42-6.26-21.65-10-35-10-29.82,0-53.14,19.32-54.28,42.2-.11,1.33-.17,2.67-.17,4a43.32,43.32,0,0,0,12.61,30.83l-4.27,8" transform="translate(-71.31 -15.75)"/><path id="path9720" class="cls-2" d="M204.45,163.6l7.39,4.9,8-15a35.55,35.55,0,0,1-14.49-32.75c.84-19.12,19.23-32.6,45.17-32.6,13.45,0,25.6,4.2,34.15,10.93.23-3,.47-7.81.83-10.51-9.42-6.26-21.65-10-35-10-29.82,0-53.14,19.32-54.28,42.2-.11,1.33-.17,2.67-.17,4a43.32,43.32,0,0,0,12.61,30.83l-4.27,8" transform="translate(-71.31 -15.75)"/><path id="path881" class="cls-2" d="M204.79,163.77c-10.17-8.66-16.49-20.44-16.49-33.4,0-14.94,8.56-28.26,21.58-37.09a40.58,40.58,0,0,0-13.6,27.48c-.11,1.33-.17,2.67-.17,4a43.32,43.32,0,0,0,12.61,30.83l-3.93,8.16" transform="translate(-71.31 -15.75)"/><path id="path6737" class="cls-2" d="M204.79,163.77c-10.17-8.66-16.49-20.44-16.49-33.4,0-14.94,8.56-28.26,21.58-37.09a40.58,40.58,0,0,0-13.6,27.48c-.11,1.33-.17,2.67-.17,4a43.32,43.32,0,0,0,12.61,30.83l-3.93,8.16" transform="translate(-71.31 -15.75)"/><path id="path883" class="cls-2" d="M115,178.9a44.42,44.42,0,0,1-5.66-44.41c8.24-19.32,34.07-33.39,64.77-33.39a94.63,94.63,0,0,1,23.76,3,47.24,47.24,0,0,0-4.18,6.53,90.68,90.68,0,0,0-19.58-2.1c-28.1,0-51.62,12.47-58.43,29.32a36.3,36.3,0,0,0-2.83,14.11,35.37,35.37,0,0,0,10.79,25.68l-6.52,19-5.45-4.95,3.33-12.7" transform="translate(-71.31 -15.75)"/><path id="path9726" class="cls-2" d="M115,178.9a44.42,44.42,0,0,1-5.66-44.41c8.24-19.32,34.07-33.39,64.77-33.39a94.63,94.63,0,0,1,23.76,3c-1.63,2-2.92,8.91-4.18,11.17a90.06,90.06,0,0,0-19.58-2.1c-28.1,0-47.55,7.83-54.37,24.68a36.3,36.3,0,0,0-2.83,14.11,35.41,35.41,0,0,0,10.79,25.68l-11.29,27.9-8.81-13.89,7.4-12.7Z" transform="translate(-71.31 -15.75)"/><path id="path885" class="cls-2" d="M125.44,115.37c-7.39,5.31-13,11.84-16.08,19.12A44.42,44.42,0,0,0,115,178.9l-6.18,11.43a52.23,52.23,0,0,1-9.35-29.54c0-18.52,10.34-34.71,26-45.42" transform="translate(-71.31 -15.75)"/><path id="path6742" class="cls-2" d="M125.44,115.37c-7.39,5.31-13,11.84-16.08,19.12A44.42,44.42,0,0,0,115,178.9l-6.42,13.6c-5.91-8.67-9.11-20.95-9.11-31.71,0-18.52,10.34-34.71,26-45.42Z" transform="translate(-71.31 -15.75)"/><path id="path6744" class="cls-2" d="M300,74.73c6.81,0,12.67,5.14,14.06,12a158.81,158.81,0,0,1,1.61,20.42c0,.77-.05,1.52-.05,2.27s.17,1.82.18,2.71c.23,15.5,2.17,29.19,4.94,37.56l-20.76,22.65-21-22.65c2.78-8.37,4.71-22.06,5-37.56,0-.89.16-1.83.16-2.71s0-1.5,0-2.27a152,152,0,0,1,1.6-20.42,14.89,14.89,0,0,1,14.27-12" transform="translate(-71.31 -15.75)"/><path id="path9732" class="cls-2" d="M300,74.73c6.81,0,12.67,5.14,14.06,12a158.81,158.81,0,0,1,1.61,20.42c0,.77-.05,1.52-.05,2.27s.17,1.82.18,2.71c.23,15.5,2.17,29.19,4.94,37.56l-20.76,22.65-21-22.65c2.78-8.37,4.71-22.06,5-37.56,0-.89.16-1.83.16-2.71s0-1.5,0-2.27a152,152,0,0,1,1.6-20.42,14.89,14.89,0,0,1,14.27-12Z" transform="translate(-71.31 -15.75)"/><path id="path889" class="cls-2" d="M300,82.11a7.47,7.47,0,0,1,7.24,6.14,149.93,149.93,0,0,1,1.53,19.29c0,.72,0,1.44,0,2.14,0,.86.14,1.73.15,2.6.22,14.64,2.06,27.55,4.7,35.49l-13.69,14.78-13.7-14.78c2.62-7.93,4.46-20.85,4.69-35.49,0-.87.15-1.74.16-2.6,0-.7-.05-1.42-.05-2.14a148.07,148.07,0,0,1,1.54-19.29,7.7,7.7,0,0,1,7.46-6.14" transform="translate(-71.31 -15.75)"/><path id="path6748" class="cls-2" d="M300,82.11a7.47,7.47,0,0,1,7.24,6.14,149.93,149.93,0,0,1,1.53,19.29c0,.72,0,1.44,0,2.14,0,.86.14,1.73.15,2.6.22,14.64,2.06,27.55,4.7,35.49l-13.69,14.78-13.7-14.78c2.62-7.93,4.46-20.85,4.69-35.49,0-.87.15-1.74.16-2.6,0-.7-.05-1.42-.05-2.14a148.07,148.07,0,0,1,1.54-19.29,7.7,7.7,0,0,1,7.46-6.14Z" transform="translate(-71.31 -15.75)"/><path id="path891" class="cls-2" d="M395.29,163.6l-5.36,4.9-8.05-15a35.07,35.07,0,0,0,14.71-28.74,37.9,37.9,0,0,0-.21-4c-.83-19.12-21.28-34.92-47.19-34.92-13.48,0-25.62,4.2-34.18,10.93-.23-3-.43-5.49-.83-8.19,9.43-6.26,21.65-10,35-10,29.81,0,53.13,19.32,54.28,42.2.1,1.33.16,2.67.16,4A43.32,43.32,0,0,1,391,155.61l4.27,8" transform="translate(-71.31 -15.75)"/><path id="path892" class="cls-2" d="M395.29,163.6l-5.36,4.9-10.08-15a35.07,35.07,0,0,0,14.71-28.74,37.9,37.9,0,0,0-.21-4c-.83-19.12-19.25-32.6-45.16-32.6-13.48,0-25.62,4.2-34.18,10.93-.23-3-.43-7.81-.83-10.51,9.43-6.26,21.65-10,35-10,29.81,0,53.13,19.32,54.28,42.2.1,1.33.16,2.67.16,4A43.32,43.32,0,0,1,391,155.61l4.27,8" transform="translate(-71.31 -15.75)"/><path id="path893" class="cls-2" d="M394.94,163.77c10.18-8.66,16.5-20.44,16.5-33.4,0-14.94-8.57-28.26-21.57-37.09a40.7,40.7,0,0,1,13.6,27.48c.1,1.33.16,2.67.16,4A43.32,43.32,0,0,1,391,155.61l3.92,8.16" transform="translate(-71.31 -15.75)"/><path id="path894" class="cls-2" d="M394.94,163.77c10.18-8.66,16.5-20.44,16.5-33.4,0-14.94-8.57-28.26-21.57-37.09a40.7,40.7,0,0,1,13.6,27.48c.1,1.33.16,2.67.16,4A43.32,43.32,0,0,1,391,155.61l3.92,8.16" transform="translate(-71.31 -15.75)"/><path id="path895" class="cls-2" d="M484.73,178.9a43.78,43.78,0,0,0,9.18-27,44.4,44.4,0,0,0-3.52-17.43c-8.25-19.32-34.08-33.39-64.79-33.39a94.69,94.69,0,0,0-23.76,3,45.58,45.58,0,0,1,4.2,6.53,90.4,90.4,0,0,1,19.55-2.1c28.11,0,51.63,12.47,58.43,29.32a35.94,35.94,0,0,1,2.83,14.11,35.37,35.37,0,0,1-10.79,25.68l10.18,19,5.47-4.95-7-12.7" transform="translate(-71.31 -15.75)"/><path id="path896" class="cls-2" d="M484.73,178.9a43.78,43.78,0,0,0,9.18-27,44.4,44.4,0,0,0-3.52-17.43c-8.25-19.32-34.08-33.39-64.79-33.39a94.69,94.69,0,0,0-23.76,3c1.66,2,2.93,8.91,4.2,11.17a89.78,89.78,0,0,1,19.55-2.1c28.11,0,47.57,7.83,54.37,24.68a36.12,36.12,0,0,1,2.83,14.11A35.41,35.41,0,0,1,472,177.6L486.24,204l5.47-12.36-7-12.7Z" transform="translate(-71.31 -15.75)"/><path id="path897" class="cls-2" d="M474.3,115.37c7.39,5.31,13,11.84,16.09,19.12a44.58,44.58,0,0,1,3.52,17.43,43.78,43.78,0,0,1-9.18,27l6.17,11.43a52.21,52.21,0,0,0,9.33-29.54c0-18.52-10.32-34.71-25.93-45.42" transform="translate(-71.31 -15.75)"/><path id="path898" class="cls-2" d="M474.3,115.37c7.39,5.31,13,11.84,16.09,19.12a44.58,44.58,0,0,1,3.52,17.43,43.78,43.78,0,0,1-9.18,27l6.17,11.43a52.21,52.21,0,0,0,9.33-29.54c0-18.52-10.32-34.71-25.93-45.42Z" transform="translate(-71.31 -15.75)"/><path id="path910" class="cls-2" d="M300.56,200.46l4.78,1a21.7,21.7,0,0,0-.93,7.16c0,11.32,8.53,20.52,19,20.52,8.43,0,15.6-5.95,18.07-14.16.27.21,1.81-7.43,2.6-7.33s.6,7.93.84,7.79c1.22,10.35,9.51,17.35,18.85,17.35,10.48,0,19-9.16,19-20.5a20.72,20.72,0,0,0-.15-2.5l6-6.73,3.2,8.58a20.8,20.8,0,0,0-1.78,9c0,10.82,8.12,19.57,18.14,19.57a17.8,17.8,0,0,0,15.09-8.71l3.81-5.53,0,6.78c0,6.82,2.52,12.92,8.35,14,0,0,6.69.47,15.56-7.46a109.25,109.25,0,0,0,13.75-14.52l.77,8s-7.37,13-15.38,18.28c-4.38,2.91-11,6-16.32,5-5.6-1-9.59-6.16-11.64-12.06a24.55,24.55,0,0,1-13.75,4.24,26.19,26.19,0,0,1-24.44-17A25.5,25.5,0,0,1,363.84,241a26.87,26.87,0,0,1-21.56-11.27A26.09,26.09,0,0,1,323.43,238a27,27,0,0,1-23-13.44A26.94,26.94,0,0,1,277.5,238a26.13,26.13,0,0,1-18.86-8.21A26.84,26.84,0,0,1,237.09,241,25.5,25.5,0,0,1,217,231.13a26.18,26.18,0,0,1-24.44,17,24.43,24.43,0,0,1-13.72-4.24c-2.08,5.9-6.07,11-11.65,12.06-5.29,1-11.94-2.07-16.33-5-8-5.29-15.38-18.28-15.38-18.28l.77-8A110.09,110.09,0,0,0,150,239.25c8.87,7.95,15.56,7.46,15.56,7.46,5.82-1.08,8.34-7.18,8.34-14l0-6.78,3.81,5.53a17.8,17.8,0,0,0,15.09,8.71c10,0,18.13-8.75,18.13-19.57a20.8,20.8,0,0,0-1.78-9l3.2-8.58,6,6.73a23,23,0,0,0-.14,2.5c0,11.34,8.49,20.5,19,20.5,9.35,0,17.63-7,18.85-17.35.26.14.19-7.71.85-7.79s2.34,7.54,2.6,7.33c2.48,8.21,9.64,14.16,18.09,14.16,10.49,0,19-9.2,19-20.52a21.44,21.44,0,0,0-.91-7.16l5-1" transform="translate(-71.31 -15.75)"/><g id="g3952"><path id="path3174" class="cls-8" d="M307.59,151.12a8.37,8.37,0,0,0-6.79-9.36A7.68,7.68,0,0,0,292,148.7a8.39,8.39,0,0,0,6.8,9.38A7.71,7.71,0,0,0,307.59,151.12Z" transform="translate(-71.31 -15.75)"/><path id="path3176" class="cls-8" d="M307.59,134.9a8.37,8.37,0,0,0-6.79-9.36,7.68,7.68,0,0,0-8.76,6.94,8.37,8.37,0,0,0,6.8,9.37A7.7,7.7,0,0,0,307.59,134.9Z" transform="translate(-71.31 -15.75)"/><path id="path3178" class="cls-8" d="M307.59,118.68a8.37,8.37,0,0,0-6.79-9.36,7.68,7.68,0,0,0-8.76,6.94,8.37,8.37,0,0,0,6.8,9.37A7.7,7.7,0,0,0,307.59,118.68Z" transform="translate(-71.31 -15.75)"/><path id="path3957" class="cls-8" d="M307.59,102.46a8.37,8.37,0,0,0-6.79-9.36A7.68,7.68,0,0,0,292,100a8.37,8.37,0,0,0,6.8,9.37A7.7,7.7,0,0,0,307.59,102.46Z" transform="translate(-71.31 -15.75)"/><path id="path3960" class="cls-8" d="M307.59,86.24a8.37,8.37,0,0,0-6.79-9.36A7.68,7.68,0,0,0,292,83.81a8.38,8.38,0,0,0,6.8,9.38A7.7,7.7,0,0,0,307.59,86.24Z" transform="translate(-71.31 -15.75)"/></g><g id="g4615"><path id="path4619" class="cls-9" d="M141,225.63a15,15,0,0,0-3-6.43c-1.56-2-4.94-1.84-6.75-2.49,0,0,1.4-6.21,2.2-10.28.6-3.1,3-7.26,3.66-8.53l2.06-3.84a34.29,34.29,0,0,1,1.64,3.08c1.32,2.67,2,4.55,2,4.55,3.52-3,8.85-3.25,13.93-1.69.81,5.89,0,11.83-3,15.56a41.71,41.71,0,0,1,3.76,2.74,33,33,0,0,1,2.51,2.17l-3.55,2c-1.2.63-5.06,2.9-7.83,3.24a34,34,0,0,1-7.69,0" transform="translate(-71.31 -15.75)"/><path id="path4621" class="cls-9" d="M129.24,226.77c1.32-7.23.3-9.2,4.71-9.76,0,0-.83-6.34-1.26-10.48-.31-3.15-2.29-7.57-2.86-8.91l-1.7-4.07a32.92,32.92,0,0,0-1.92,2.87c-1.55,2.51-2.41,4.29-2.41,4.29-3.23-3.38-15.65,2.34-20.84,3.29,12.72,7.21,10.86,4,18,9.78a14.65,14.65,0,0,1,4.86,6.32c1.19,3.27,4.34,6.41,3.38,6.67Z" transform="translate(-71.31 -15.75)"/></g><path id="path930" class="cls-9" d="M294.82,200.23a15.87,15.87,0,0,1-1.57-7c0-2.65,3.18-3.1,4.14-5,0,0-5.27-5.58-8.25-8-2.27-1.84-6.47-3.12-7.73-3.54l-3.79-1.28s.1,1.08.59,3.54c.59,3,1.18,4.92,1.18,4.92-4.36.47-8.48,4.35-11.33,9.38,2.85,5,7,8.78,11.33,9.29,0,0-.59,1.9-1.18,4.91-.49,2.43-.59,3.52-.59,3.52l3.79-1.24c1.26-.45,5.46-1.71,7.73-3.58a41.64,41.64,0,0,0,5.68-5.89" transform="translate(-71.31 -15.75)"/><path id="path4585" class="cls-9" d="M306.26,200.23a16,16,0,0,0,1.57-7c0-2.65-2.6-5.14-3.56-7,0,0,4.68-3.54,7.67-5.95,2.26-1.84,6.46-3.12,7.72-3.54l3.79-1.28s-.1,1.08-.59,3.54c-.59,3-1.18,4.92-1.18,4.92,4.37.47,8.48,4.35,11.34,9.38-2.86,5-7,8.78-11.34,9.29,0,0,.59,1.9,1.18,4.91.49,2.43.59,3.52.59,3.52l-3.79-1.24c-1.26-.45-5.46-1.71-7.72-3.58a41,41,0,0,1-5.68-5.89" transform="translate(-71.31 -15.75)"/><path id="path4587" class="cls-9" d="M294.19,188.54c5.23-4.37,8.32-3,11.93-.06,0,0,3.1-5.34,5.21-8.74,1.62-2.58,2.74-7.38,3.11-8.81s1.12-4.33,1.12-4.33a28.83,28.83,0,0,0-3.1.68,37.65,37.65,0,0,0-4.32,1.35c-.41-5-3.81-9.68-8.22-12.93-4.37,3.25-7.69,7.93-8.14,12.93a36.19,36.19,0,0,0-4.31-1.35,27.28,27.28,0,0,0-3.09-.68s.73,2.88,1.09,4.33,1.5,6.23,3.14,8.81c2.11,3.4,5.58,8.8,5.58,8.8Z" transform="translate(-71.31 -15.75)"/><g id="g7783"><g id="g7764"><g id="g7745"><path id="path7739" class="cls-10" d="M299.81,168.63V187.7" transform="translate(-71.31 -15.75)"/><path id="path7741" class="cls-10" d="M293.22,174.78c1.29,11.24,6.51,11.45,6.33,10.44" transform="translate(-71.31 -15.75)"/><path id="path7758" class="cls-10" d="M291.6,180.54c.06.36,2.95,6.61,7.69,6.86" transform="translate(-71.31 -15.75)"/><path id="path7762" class="cls-10" d="M296.55,176.78c.06.36,1,5.91,3.44,8.74" transform="translate(-71.31 -15.75)"/></g></g><g id="g7771"><g id="g7773"><path id="path7777" class="cls-10" d="M306.35,174.78c-1.28,11.24-6.51,11.45-6.33,10.44" transform="translate(-71.31 -15.75)"/><path id="path7779" class="cls-10" d="M308,180.54c-.05.36-2.94,6.61-7.69,6.86" transform="translate(-71.31 -15.75)"/><path id="path7781" class="cls-10" d="M303,176.78c0,.36-1,5.91-3.43,8.74" transform="translate(-71.31 -15.75)"/></g></g></g><g id="g7796"><g id="g7798"><g id="g7800"><path id="path7802" class="cls-11" d="M324.6,192.91H307.88" transform="translate(-71.31 -15.75)"/><path id="path7804" class="cls-11" d="M319.21,185.39c-9.86,1.47-10,7.43-9.16,7.22" transform="translate(-71.31 -15.75)"/><path id="path7806" class="cls-11" d="M314.15,183.55c-.31.06-5.78,3.35-6,8.77" transform="translate(-71.31 -15.75)"/><path id="path7808" class="cls-11" d="M317.45,189.19c-.31.06-5.18,1.18-7.66,3.92" transform="translate(-71.31 -15.75)"/></g></g><g id="g7810"><g id="g7812"><path id="path7814" class="cls-11" d="M319.21,200.37c-9.86-1.46-10-7.43-9.16-7.22" transform="translate(-71.31 -15.75)"/><path id="path7816" class="cls-11" d="M314.15,202.22c-.31-.07-5.78-3.36-6-8.77" transform="translate(-71.31 -15.75)"/><path id="path7818" class="cls-11" d="M317.45,196.57c-.31-.06-5.18-1.18-7.66-3.92" transform="translate(-71.31 -15.75)"/></g></g></g><g id="g7820"><g id="g7822"><g id="g7824"><path id="path7826" class="cls-11" d="M276.33,192.91H293" transform="translate(-71.31 -15.75)"/><path id="path7828" class="cls-11" d="M281.71,185.39c9.86,1.47,10.05,7.43,9.16,7.22" transform="translate(-71.31 -15.75)"/><path id="path7830" class="cls-11" d="M286.77,183.55c.32.06,5.79,3.35,6,8.77" transform="translate(-71.31 -15.75)"/><path id="path7832" class="cls-11" d="M283.47,189.19c.32.06,5.18,1.18,7.66,3.92" transform="translate(-71.31 -15.75)"/></g></g><g id="g7834"><g id="g7836"><path id="path7838" class="cls-11" d="M281.71,200.37c9.86-1.46,10.05-7.43,9.16-7.22" transform="translate(-71.31 -15.75)"/><path id="path7840" class="cls-11" d="M286.77,202.22c.32-.07,5.79-3.36,6-8.77" transform="translate(-71.31 -15.75)"/><path id="path7842" class="cls-11" d="M283.47,196.57c.32-.06,5.18-1.18,7.66-3.92" transform="translate(-71.31 -15.75)"/></g></g></g><path id="path950" class="cls-3" d="M292,194.84c0-5,3.75-9.05,8.37-9.05s8.4,4,8.4,9.05-3.76,9.06-8.4,9.06-8.37-4.05-8.37-9.06" transform="translate(-71.31 -15.75)"/><path id="path9895" class="cls-12" d="M97.48,180.05a7.86,7.86,0,1,1,7.85,8.23A8,8,0,0,1,97.48,180.05Z" transform="translate(-71.31 -15.75)"/><path id="path6773" class="cls-12" d="M92.1,164.71A7.86,7.86,0,1,1,100,173,8,8,0,0,1,92.1,164.71Z" transform="translate(-71.31 -15.75)"/><path id="path6775" class="cls-12" d="M91.13,148.16A7.85,7.85,0,1,1,99,156.39,8,8,0,0,1,91.13,148.16Z" transform="translate(-71.31 -15.75)"/><path id="path6777" class="cls-12" d="M94.16,132.16A7.85,7.85,0,1,1,102,140.4,8,8,0,0,1,94.16,132.16Z" transform="translate(-71.31 -15.75)"/><path id="path6779" class="cls-12" d="M102.07,118.31a7.85,7.85,0,1,1,7.84,8.24A8,8,0,0,1,102.07,118.31Z" transform="translate(-71.31 -15.75)"/><path id="path6781" class="cls-12" d="M115,108.73a7.85,7.85,0,1,1,7.84,8.24A8,8,0,0,1,115,108.73Z" transform="translate(-71.31 -15.75)"/><path id="path6783" class="cls-12" d="M129.22,99.9a7.85,7.85,0,1,1,7.84,8.24A8,8,0,0,1,129.22,99.9Z" transform="translate(-71.31 -15.75)"/><path id="path6785" class="cls-12" d="M144.54,95.44a7.85,7.85,0,1,1,7.84,8.24A8,8,0,0,1,144.54,95.44Z" transform="translate(-71.31 -15.75)"/><path id="path9911" class="cls-12" d="M160.6,93.21a7.85,7.85,0,1,1,7.84,8.24A8,8,0,0,1,160.6,93.21Z" transform="translate(-71.31 -15.75)"/><path id="path9913" class="cls-12" d="M175.6,93.3a7.85,7.85,0,1,1,7.84,8.24A8,8,0,0,1,175.6,93.3Z" transform="translate(-71.31 -15.75)"/><path id="path6789" class="cls-12" d="M189.79,96.83a7.85,7.85,0,1,1,7.84,8.24A8,8,0,0,1,189.79,96.83Z" transform="translate(-71.31 -15.75)"/><g id="g6791"><path id="path6793" class="cls-8" d="M192.83,158.94a8.37,8.37,0,0,1,6.79-9.36,7.68,7.68,0,0,1,8.76,6.93,8.38,8.38,0,0,1-6.8,9.38A7.7,7.7,0,0,1,192.83,158.94Z" transform="translate(-71.31 -15.75)"/><path id="path9931" class="cls-8" d="M184.86,145a8.38,8.38,0,0,1,6.8-9.36,7.67,7.67,0,0,1,8.75,6.94,8.37,8.37,0,0,1-6.8,9.37A7.71,7.71,0,0,1,184.86,145Z" transform="translate(-71.31 -15.75)"/><path id="path6796" class="cls-8" d="M181.42,129.83a8.36,8.36,0,0,1,6.79-9.35,7.66,7.66,0,0,1,8.75,6.93,8.37,8.37,0,0,1-6.8,9.38A7.71,7.71,0,0,1,181.42,129.83Z" transform="translate(-71.31 -15.75)"/><path id="path6798" class="cls-8" d="M183.08,113a8.37,8.37,0,0,1,6.79-9.36,7.67,7.67,0,0,1,8.75,6.94,8.36,8.36,0,0,1-6.8,9.37A7.69,7.69,0,0,1,183.08,113Z" transform="translate(-71.31 -15.75)"/><path id="path6800" class="cls-8" d="M189.85,98.47a8.37,8.37,0,0,1,6.8-9.36,7.68,7.68,0,0,1,8.75,6.94,8.37,8.37,0,0,1-6.8,9.37A7.7,7.7,0,0,1,189.85,98.47Z" transform="translate(-71.31 -15.75)"/><path id="path9939" class="cls-8" d="M200.17,86.19a8.39,8.39,0,0,1,6.8-9.36,7.67,7.67,0,0,1,8.75,6.94,8.38,8.38,0,0,1-6.8,9.38A7.72,7.72,0,0,1,200.17,86.19Z" transform="translate(-71.31 -15.75)"/><path id="path6803" class="cls-8" d="M213.55,77.43a8.37,8.37,0,0,1,6.8-9.36A7.68,7.68,0,0,1,229.1,75a8.37,8.37,0,0,1-6.8,9.37A7.7,7.7,0,0,1,213.55,77.43Z" transform="translate(-71.31 -15.75)"/><path id="path9943" class="cls-8" d="M228.62,72.75a8.38,8.38,0,0,1,6.8-9.36,7.66,7.66,0,0,1,8.75,6.93,8.38,8.38,0,0,1-6.8,9.38A7.72,7.72,0,0,1,228.62,72.75Z" transform="translate(-71.31 -15.75)"/><path id="path6806" class="cls-8" d="M244.28,70.9a8.37,8.37,0,0,1,6.79-9.36,7.67,7.67,0,0,1,8.75,6.94,8.36,8.36,0,0,1-6.8,9.37A7.69,7.69,0,0,1,244.28,70.9Z" transform="translate(-71.31 -15.75)"/><path id="path6808" class="cls-8" d="M260,73a8.38,8.38,0,0,1,6.8-9.36,7.67,7.67,0,0,1,8.75,6.94,8.37,8.37,0,0,1-6.8,9.37A7.71,7.71,0,0,1,260,73Z" transform="translate(-71.31 -15.75)"/><path id="path6810" class="cls-8" d="M274.68,78.93a8.38,8.38,0,0,1,6.8-9.36,7.66,7.66,0,0,1,8.75,6.93,8.38,8.38,0,0,1-6.8,9.38A7.72,7.72,0,0,1,274.68,78.93Z" transform="translate(-71.31 -15.75)"/></g><path id="path3085" class="cls-12" d="M165.48,224.13a7.85,7.85,0,1,1,7.85,8.23A8,8,0,0,1,165.48,224.13Z" transform="translate(-71.31 -15.75)"/><g id="g3144"><path id="path3091" class="cls-2" d="M394.84,163.77c10.18-8.66,16.5-20.44,16.5-33.4,0-14.94-8.57-28.26-21.58-37.09a40.52,40.52,0,0,1,13.59,27.48q.18,2,.18,4a43.32,43.32,0,0,1-12.61,30.83l3.92,8.16" transform="translate(-71.31 -15.75)"/><path id="path3093" class="cls-2" d="M394.84,163.77c10.18-8.66,16.5-20.44,16.5-33.4,0-14.94-8.57-28.26-21.58-37.09a40.52,40.52,0,0,1,13.59,27.48q.18,2,.18,4a43.32,43.32,0,0,1-12.61,30.83l3.92,8.16" transform="translate(-71.31 -15.75)"/><path id="path3095" class="cls-2" d="M474.2,115.37c7.39,5.31,13,11.84,16.07,19.12a44.38,44.38,0,0,1-5.65,44.41l7.09,12.91c5.92-8.66,8.44-20.26,8.44-31,0-18.52-10.34-34.71-25.95-45.42" transform="translate(-71.31 -15.75)"/><path id="path3097" class="cls-12" d="M502.15,180.05a7.85,7.85,0,1,0-7.84,8.23A8,8,0,0,0,502.15,180.05Z" transform="translate(-71.31 -15.75)"/><path id="path3099" class="cls-12" d="M507.53,164.71a7.85,7.85,0,1,0-7.84,8.24A8,8,0,0,0,507.53,164.71Z" transform="translate(-71.31 -15.75)"/><path id="path3101" class="cls-12" d="M508.5,148.16a7.85,7.85,0,1,0-7.84,8.24A8,8,0,0,0,508.5,148.16Z" transform="translate(-71.31 -15.75)"/><path id="path3103" class="cls-12" d="M505.48,132.16a7.85,7.85,0,1,0-7.85,8.24A8,8,0,0,0,505.48,132.16Z" transform="translate(-71.31 -15.75)"/><path id="path3105" class="cls-12" d="M497.57,118.31a7.85,7.85,0,1,0-7.85,8.24A8,8,0,0,0,497.57,118.31Z" transform="translate(-71.31 -15.75)"/><path id="path3107" class="cls-12" d="M484.61,108.73a7.85,7.85,0,1,0-7.85,8.24A8,8,0,0,0,484.61,108.73Z" transform="translate(-71.31 -15.75)"/><path id="path3109" class="cls-12" d="M470.42,99.9a7.85,7.85,0,1,0-7.84,8.24A8,8,0,0,0,470.42,99.9Z" transform="translate(-71.31 -15.75)"/><path id="path3111" class="cls-12" d="M455.1,95.44a7.85,7.85,0,1,0-7.85,8.24A8,8,0,0,0,455.1,95.44Z" transform="translate(-71.31 -15.75)"/><path id="path3113" class="cls-12" d="M439,93.21a7.85,7.85,0,1,0-7.85,8.24A8,8,0,0,0,439,93.21Z" transform="translate(-71.31 -15.75)"/><path id="path3115" class="cls-12" d="M424,93.3a7.85,7.85,0,1,0-7.85,8.24A8,8,0,0,0,424,93.3Z" transform="translate(-71.31 -15.75)"/><path id="path3117" class="cls-12" d="M409.85,96.83a7.85,7.85,0,1,0-7.84,8.24A8,8,0,0,0,409.85,96.83Z" transform="translate(-71.31 -15.75)"/><g id="g3119"><path id="path3121" class="cls-8" d="M406.81,158.94a8.38,8.38,0,0,0-6.8-9.36,7.67,7.67,0,0,0-8.75,6.93,8.38,8.38,0,0,0,6.8,9.38A7.71,7.71,0,0,0,406.81,158.94Z" transform="translate(-71.31 -15.75)"/><path id="path3123" class="cls-8" d="M414.77,145a8.37,8.37,0,0,0-6.79-9.36,7.68,7.68,0,0,0-8.76,6.94A8.37,8.37,0,0,0,406,152,7.7,7.7,0,0,0,414.77,145Z" transform="translate(-71.31 -15.75)"/><path id="path3125" class="cls-8" d="M418.22,129.83a8.36,8.36,0,0,0-6.79-9.35,7.67,7.67,0,0,0-8.76,6.93,8.38,8.38,0,0,0,6.8,9.38A7.72,7.72,0,0,0,418.22,129.83Z" transform="translate(-71.31 -15.75)"/><path id="path3127" class="cls-8" d="M416.56,113a8.37,8.37,0,0,0-6.79-9.36,7.68,7.68,0,0,0-8.76,6.94,8.37,8.37,0,0,0,6.8,9.37A7.7,7.7,0,0,0,416.56,113Z" transform="translate(-71.31 -15.75)"/><path id="path3129" class="cls-8" d="M409.79,98.47a8.38,8.38,0,0,0-6.8-9.36,7.67,7.67,0,0,0-8.75,6.94,8.37,8.37,0,0,0,6.8,9.37A7.71,7.71,0,0,0,409.79,98.47Z" transform="translate(-71.31 -15.75)"/><path id="path3131" class="cls-8" d="M399.46,86.19a8.37,8.37,0,0,0-6.79-9.36,7.67,7.67,0,0,0-8.75,6.94,8.38,8.38,0,0,0,6.79,9.38A7.71,7.71,0,0,0,399.46,86.19Z" transform="translate(-71.31 -15.75)"/><path id="path3133" class="cls-8" d="M386.09,77.43a8.38,8.38,0,0,0-6.8-9.36A7.67,7.67,0,0,0,370.54,75a8.37,8.37,0,0,0,6.8,9.37A7.71,7.71,0,0,0,386.09,77.43Z" transform="translate(-71.31 -15.75)"/><path id="path3136" class="cls-8" d="M371,72.75a8.36,8.36,0,0,0-6.79-9.36,7.66,7.66,0,0,0-8.75,6.93,8.38,8.38,0,0,0,6.79,9.38A7.71,7.71,0,0,0,371,72.75Z" transform="translate(-71.31 -15.75)"/><path id="path3138" class="cls-8" d="M355.36,70.9a8.37,8.37,0,0,0-6.79-9.36,7.68,7.68,0,0,0-8.76,6.94,8.37,8.37,0,0,0,6.8,9.37A7.7,7.7,0,0,0,355.36,70.9Z" transform="translate(-71.31 -15.75)"/><path id="path3140" class="cls-8" d="M339.61,73a8.37,8.37,0,0,0-6.79-9.36,7.67,7.67,0,0,0-8.75,6.94,8.36,8.36,0,0,0,6.79,9.37A7.7,7.7,0,0,0,339.61,73Z" transform="translate(-71.31 -15.75)"/><path id="path3142" class="cls-8" d="M325,78.93a8.37,8.37,0,0,0-6.79-9.36,7.67,7.67,0,0,0-8.76,6.93,8.39,8.39,0,0,0,6.8,9.38A7.71,7.71,0,0,0,325,78.93Z" transform="translate(-71.31 -15.75)"/></g></g><path id="rect4962" class="cls-7" d="M297.43,21.65v9.86h-9.91V37.1h9.91V55.31h4.78V37.1h9.9V31.51h-9.9V21.65Z" transform="translate(-71.31 -15.75)"/><g id="g3968"><path id="path3970" class="cls-13" d="M317.76,76.42c-2.32.21-4.65.43-7,.55-3.65.19-7.32.25-11,.24-6,0-12-.43-17.94-.92,1.45,9.3,8.91,16.4,17.94,16.4S316.25,85.66,317.76,76.42Z" transform="translate(-71.31 -15.75)"/><path id="path3972" class="cls-13" d="M299.82,53.27c-9,0-16.5,7.12-17.94,16.47,2.38-.25,4.76-.53,7.14-.68,3.64-.23,7.28-.32,10.92-.31s7.27.11,10.91.34c2.3.15,4.61.42,6.91.65-1.45-9.35-8.9-16.47-17.94-16.47Z" transform="translate(-71.31 -15.75)"/><path id="path3976" class="cls-7" d="M296.89,53.58c-.17,2.27-.37,4.54-.48,6.82-.14,2.81-.16,5.64-.21,8.45,1.24,0,2.47-.1,3.71-.1s2.35.08,3.53.1c0-2.79,0-5.59-.15-8.39-.09-2.29-.28-4.59-.42-6.88a16.5,16.5,0,0,0-3.08-.31A16.29,16.29,0,0,0,296.89,53.58Z" transform="translate(-71.31 -15.75)"/><path id="path3978" class="cls-7" d="M317.76,69.74a85.23,85.23,0,0,0-17.82-2.28,74.31,74.31,0,0,0-18.06,2.28,18,18,0,0,0,0,6.55c6,.49,12,.9,17.94.92,3.65,0,7.32,0,11-.24,2.32-.12,4.65-.34,7-.55a21.1,21.1,0,0,0,.3-3.41A22,22,0,0,0,317.76,69.74Z" transform="translate(-71.31 -15.75)"/></g><path id="path3980" class="cls-12" d="M250.11,209.62a7.86,7.86,0,1,1,7.85,8.24A8,8,0,0,1,250.11,209.62Z" transform="translate(-71.31 -15.75)"/><path id="path3982" class="cls-12" d="M336.67,209.62a7.85,7.85,0,1,1,7.84,8.24A8,8,0,0,1,336.67,209.62Z" transform="translate(-71.31 -15.75)"/><path id="path3984" class="cls-12" d="M419.86,224.13a7.85,7.85,0,1,1,7.84,8.23A8,8,0,0,1,419.86,224.13Z" transform="translate(-71.31 -15.75)"/><path id="path4597" class="cls-9" d="M207.73,209.23a15.15,15.15,0,0,1-2.76-6.55c-.46-2.6,2.58-3.76,3.2-5.81a108.71,108.71,0,0,0-9.48-6c-2.54-1.31-6.88-1.61-8.18-1.73l-3.94-.41s.29,1,1.19,3.34c1.1,2.8,2,4.56,2,4.56-4.2,1.44-7.56,6.17-9.48,11.75,3.66,4.24,8.34,7,12.72,6.55,0,0-.25,2-.31,5.08-.06,2.49,0,3.58,0,3.58l3.5-2.07c1.16-.73,5.06-2.91,7-5.25a44.7,44.7,0,0,0,4.55-7.06" transform="translate(-71.31 -15.75)"/><path id="path4599" class="cls-9" d="M218.94,206.65a16.12,16.12,0,0,0,.32-7.26c-.46-2.6-3.44-4.45-4.7-6.06,0,0,4-4.53,6.49-7.57,1.9-2.32,5.79-4.52,7-5.21l3.49-2.11s.08,1.08,0,3.61c-.06,3.07-.3,5.08-.3,5.08,4.36-.52,9.07,2.35,12.73,6.64-1.93,5.54-5.29,10.17-9.5,11.66a49,49,0,0,1,2,4.55c.9,2.28,1.19,3.32,1.19,3.32l-3.93-.36c-1.31-.16-5.65-.45-8.19-1.77a37.87,37.87,0,0,1-6.59-4.5" transform="translate(-71.31 -15.75)"/><path id="path6855" class="cls-9" d="M205.09,197.91c4.37-5.45,7.63-4.82,11.68-2.74,0,0,2.12-5.93,3.6-9.75,1.14-2.89,1.41-7.84,1.52-9.33s.35-4.49.35-4.49a28.27,28.27,0,0,0-2.93,1.36,40.15,40.15,0,0,0-4,2.29c-1.27-4.79-5.41-8.62-10.3-10.82-3.73,4.18-6.17,9.51-5.75,14.51a37.23,37.23,0,0,0-4.45-.35,26.3,26.3,0,0,0-3.14,0s1.21,2.66,1.81,4,2.55,5.76,4.6,7.93c2.67,2.86,7,7.36,7,7.36Z" transform="translate(-71.31 -15.75)"/><g id="g7844"><g id="g7846"><g id="g7848"><path id="path7850" class="cls-14" d="M206.58,176.09l3.78,18.57" transform="translate(-71.31 -15.75)"/><path id="path7852" class="cls-14" d="M201.38,183.77c3.48,10.63,8.61,9.48,8.24,8.54" transform="translate(-71.31 -15.75)"/><path id="path7854" class="cls-14" d="M201,189.81c.12.34,4.17,5.67,8.85,4.69" transform="translate(-71.31 -15.75)"/><path id="path7856" class="cls-14" d="M205,184.87c.12.33,2.18,5.49,5.08,7.62" transform="translate(-71.31 -15.75)"/></g></g><g id="g7858"><g id="g7860"><path id="path7862" class="cls-14" d="M214.17,180.38c1,11.29-4.07,12.84-4.09,11.81" transform="translate(-71.31 -15.75)"/><path id="path7864" class="cls-14" d="M216.89,185.58c0,.37-1.55,7.19-6.13,8.67" transform="translate(-71.31 -15.75)"/><path id="path7866" class="cls-14" d="M211.32,183.2c0,.36.17,6-1.61,9.39" transform="translate(-71.31 -15.75)"/></g></g></g><g id="g7892"><g id="g7894"><g id="g7896"><path id="path7898" class="cls-15" d="M188.24,206l16.39-3.77" transform="translate(-71.31 -15.75)"/><path id="path7900" class="cls-15" d="M192.22,197.41c9.91-.79,11.13,5,10.23,5" transform="translate(-71.31 -15.75)"/><path id="path7902" class="cls-15" d="M196.85,194.46c.32,0,6.26,2,7.42,7.24" transform="translate(-71.31 -15.75)"/><path id="path7904" class="cls-15" d="M194.6,200.74c.32,0,5.28,0,8.19,2.11" transform="translate(-71.31 -15.75)"/></g></g><g id="g7906"><g id="g7908"><path id="path7910" class="cls-15" d="M194.81,212.1c9.41-3.67,8.56-9.55,7.73-9.15" transform="translate(-71.31 -15.75)"/><path id="path7912" class="cls-15" d="M200.09,212.76c.3-.13,5.09-4.59,4.37-9.95" transform="translate(-71.31 -15.75)"/><path id="path7914" class="cls-15" d="M195.88,208c.3-.13,4.87-2.32,6.83-5.57" transform="translate(-71.31 -15.75)"/></g></g></g><g id="g7868"><g id="g7870"><g id="g7872"><path id="path7874" class="cls-16" d="M235.59,195.88l-16.47,3.28" transform="translate(-71.31 -15.75)"/><path id="path7876" class="cls-16" d="M229.15,189.53c-9.49,3.38-8.77,9.29-7.93,8.91" transform="translate(-71.31 -15.75)"/><path id="path7878" class="cls-16" d="M223.89,188.7c-.3.13-5.2,4.44-4.6,9.82" transform="translate(-71.31 -15.75)"/><path id="path7880" class="cls-16" d="M228,193.62c-.3.12-4.93,2.17-7,5.36" transform="translate(-71.31 -15.75)"/></g></g><g id="g7882"><g id="g7884"><path id="path7886" class="cls-16" d="M231.41,204.28c-9.93.5-11-5.34-10.11-5.31" transform="translate(-71.31 -15.75)"/><path id="path7888" class="cls-16" d="M226.71,207.09c-.33,0-6.21-2.17-7.25-7.46" transform="translate(-71.31 -15.75)"/><path id="path7890" class="cls-16" d="M229.1,200.89c-.32,0-5.28-.15-8.13-2.36" transform="translate(-71.31 -15.75)"/></g></g></g><path id="path6857" class="cls-17" d="M204,204.59c-.87-4.91,2.11-9.71,6.64-10.75s8.93,2.06,9.8,7-2.11,9.74-6.66,10.78-8.91-2.08-9.78-7" transform="translate(-71.31 -15.75)"/><path id="path6860" class="cls-9" d="M393.69,209.23a15.15,15.15,0,0,0,2.76-6.55c.46-2.6-2.58-3.76-3.2-5.81a108.71,108.71,0,0,1,9.48-6c2.53-1.31,6.87-1.61,8.18-1.73l3.94-.41s-.29,1-1.19,3.34c-1.1,2.8-2,4.56-2,4.56,4.2,1.44,7.57,6.17,9.49,11.75-3.66,4.24-8.34,7-12.72,6.55,0,0,.25,2,.31,5.08.06,2.49,0,3.58,0,3.58l-3.5-2.07c-1.16-.73-5.06-2.91-7-5.25a44.26,44.26,0,0,1-4.54-7.06" transform="translate(-71.31 -15.75)"/><path id="path6862" class="cls-9" d="M382.48,206.65a16.12,16.12,0,0,1-.32-7.26c.46-2.6,3.44-4.45,4.7-6.06,0,0-4-4.53-6.49-7.57-1.9-2.32-5.79-4.52-7-5.21l-3.49-2.11s-.09,1.08,0,3.61c.07,3.07.31,5.08.31,5.08-4.36-.52-9.07,2.35-12.73,6.64,1.93,5.54,5.29,10.17,9.5,11.66a49,49,0,0,0-2,4.55c-.9,2.28-1.19,3.32-1.19,3.32l3.93-.36c1.31-.16,5.65-.45,8.19-1.77a37.87,37.87,0,0,0,6.59-4.5" transform="translate(-71.31 -15.75)"/><path id="path6864" class="cls-9" d="M396.33,197.91c-4.37-5.45-7.63-4.82-11.68-2.74,0,0-2.12-5.93-3.6-9.75-1.14-2.89-1.41-7.84-1.52-9.33s-.35-4.49-.35-4.49a28.27,28.27,0,0,1,2.93,1.36,40.15,40.15,0,0,1,4,2.29c1.27-4.79,5.41-8.62,10.3-10.82,3.73,4.18,6.17,9.51,5.74,14.51a37.28,37.28,0,0,1,4.46-.35,26.3,26.3,0,0,1,3.14,0s-1.21,2.66-1.81,4-2.55,5.76-4.6,7.93c-2.67,2.86-7,7.36-7,7.36Z" transform="translate(-71.31 -15.75)"/><g id="g8054"><g id="g8006"><g id="g8008"><g id="g8010"><path id="path8012" class="cls-18" d="M149.48,207.19l-12.66,12.45" transform="translate(-71.31 -15.75)"/><path id="path8014" class="cls-18" d="M141.1,205.51c-6.63,8.44-3.36,13.1-2.81,12.29" transform="translate(-71.31 -15.75)"/><path id="path8016" class="cls-18" d="M136.21,207.87c-.2.29-2.46,6.85.47,11.12" transform="translate(-71.31 -15.75)"/><path id="path8018" class="cls-18" d="M141.94,209.69c-.2.29-3.25,4.75-3.56,8.68" transform="translate(-71.31 -15.75)"/></g></g><g id="g8020"><g id="g8022"><path id="path8024" class="cls-18" d="M149.67,216.86c-8.31,6.22-11.86,1.84-11.07,1.34" transform="translate(-71.31 -15.75)"/><path id="path8026" class="cls-18" d="M146.89,222c-.27.19-6.3,1.76-9.57-2.17" transform="translate(-71.31 -15.75)"/><path id="path8028" class="cls-18" d="M146.16,215.29c-.27.18-4.59,3-8,2.73" transform="translate(-71.31 -15.75)"/></g></g></g><g id="g8030"><g id="g8032"><g id="g8034"><path id="path8036" class="cls-19" d="M116.45,205.52,128.27,219" transform="translate(-71.31 -15.75)"/><path id="path8042" class="cls-19" d="M123.53,216.46a9.72,9.72,0,0,0,3.51.86" transform="translate(-71.31 -15.75)"/></g></g><g id="g8044"><g id="g8046"><path id="path8048" class="cls-19" d="M124.88,204.59c6.07,9,2.5,13.35,2,12.49" transform="translate(-71.31 -15.75)"/><path id="path8050" class="cls-19" d="M129.6,207.36c.19.3,2,7-1.18,11" transform="translate(-71.31 -15.75)"/><path id="path8052" class="cls-19" d="M123.77,208.7c.19.29,2.94,5,3,8.94" transform="translate(-71.31 -15.75)"/></g></g></g></g><path id="path4627" class="cls-9" d="M463.37,225.63a14.83,14.83,0,0,1,3-6.43c1.55-2,4.94-1.84,6.75-2.49,0,0-1.4-6.21-2.2-10.28-.6-3.1-3-7.26-3.66-8.53l-2.06-3.84a34.29,34.29,0,0,0-1.64,3.08c-1.32,2.67-2,4.55-2,4.55-3.52-3-8.85-3.25-13.93-1.69-.81,5.89,0,11.83,3,15.56a41.71,41.71,0,0,0-3.76,2.74,33,33,0,0,0-2.51,2.17l3.54,2c1.21.63,5.07,2.9,7.84,3.24a33.88,33.88,0,0,0,7.68,0" transform="translate(-71.31 -15.75)"/><path id="path6873" class="cls-9" d="M474.67,225c-1.32-7.23.11-7.45-4.31-8,0,0,.83-6.34,1.27-10.48.31-3.15,2.29-7.57,2.86-8.91l1.7-4.07s.63.8,1.91,2.87c1.56,2.51,2.42,4.29,2.42,4.29,3.23-3.38,15.65,2.34,20.84,3.29-12.72,7.21-10.86,4-18,9.78a15.25,15.25,0,0,0-4.59,5.65c-1.59,3.59-5.08,5.32-4.06,5.59Z" transform="translate(-71.31 -15.75)"/><path id="path7228" class="cls-20" d="M126.92,219.45c2.2-4.65,8.61-3.41,11.55.31s3.43,11.29-.92,13.14A10.28,10.28,0,0,1,126.92,219.45Z" transform="translate(-71.31 -15.75)"/><g id="g8078"><g id="g8080"><g id="g8082"><g id="g8084"><path id="path8086" class="cls-18" d="M453.85,207.19l12.67,12.45" transform="translate(-71.31 -15.75)"/><path id="path8088" class="cls-18" d="M462.24,205.51c6.63,8.44,3.36,13.1,2.8,12.29" transform="translate(-71.31 -15.75)"/><path id="path8090" class="cls-18" d="M467.13,207.87c.2.29,2.46,6.85-.47,11.12" transform="translate(-71.31 -15.75)"/><path id="path8092" class="cls-18" d="M461.4,209.69c.2.29,3.25,4.75,3.56,8.68" transform="translate(-71.31 -15.75)"/></g></g><g id="g8094"><g id="g8096"><path id="path8098" class="cls-18" d="M453.67,216.86c8.3,6.22,11.86,1.84,11.07,1.34" transform="translate(-71.31 -15.75)"/><path id="path8100" class="cls-18" d="M456.44,222c.28.19,6.31,1.76,9.58-2.17" transform="translate(-71.31 -15.75)"/><path id="path8102" class="cls-18" d="M457.17,215.29c.28.18,4.6,3,8.05,2.73" transform="translate(-71.31 -15.75)"/></g></g></g><g id="g8104"><g id="g8106"><g id="g8108"><path id="path8110" class="cls-19" d="M486.89,205.52,475.06,219" transform="translate(-71.31 -15.75)"/><path id="path8112" class="cls-19" d="M479.81,216.46a9.72,9.72,0,0,1-3.52.86" transform="translate(-71.31 -15.75)"/></g></g><g id="g8114"><g id="g8116"><path id="path8118" class="cls-19" d="M478.45,204.59c-6.06,9-2.5,13.35-2,12.49" transform="translate(-71.31 -15.75)"/><path id="path8120" class="cls-19" d="M473.73,207.36c-.18.3-2,7,1.19,11" transform="translate(-71.31 -15.75)"/><path id="path8122" class="cls-19" d="M479.57,208.7c-.19.29-2.94,5-3,8.94" transform="translate(-71.31 -15.75)"/></g></g></g></g><path id="path6875" class="cls-20" d="M476.25,219.43c-2.2-4.64-8.61-3.41-11.55.31s-3.43,11.3.92,13.15A10.29,10.29,0,0,0,476.25,219.43Z" transform="translate(-71.31 -15.75)"/><g id="g7928"><g id="g7930"><g id="g7932"><path id="path7934" class="cls-14" d="M394.84,176.09l-3.79,18.57" transform="translate(-71.31 -15.75)"/><path id="path7936" class="cls-14" d="M400,183.77c-3.49,10.63-8.62,9.48-8.24,8.54" transform="translate(-71.31 -15.75)"/><path id="path7938" class="cls-14" d="M400.47,189.81c-.13.34-4.18,5.67-8.85,4.69" transform="translate(-71.31 -15.75)"/><path id="path7940" class="cls-14" d="M396.39,184.87c-.12.33-2.17,5.49-5.08,7.62" transform="translate(-71.31 -15.75)"/></g></g><g id="g7942"><g id="g7944"><path id="path7946" class="cls-14" d="M387.25,180.38c-1,11.29,4.06,12.84,4.09,11.81" transform="translate(-71.31 -15.75)"/><path id="path7948" class="cls-14" d="M384.53,185.58c0,.37,1.55,7.19,6.12,8.67" transform="translate(-71.31 -15.75)"/><path id="path7950" class="cls-14" d="M390.09,183.2c0,.36-.17,6,1.61,9.39" transform="translate(-71.31 -15.75)"/></g></g></g><g id="g7952"><g id="g7954"><g id="g7956"><path id="path7958" class="cls-15" d="M413.17,206l-16.39-3.77" transform="translate(-71.31 -15.75)"/><path id="path7960" class="cls-15" d="M409.19,197.41c-9.92-.79-11.13,5-10.23,5" transform="translate(-71.31 -15.75)"/><path id="path7962" class="cls-15" d="M404.55,194.46c-.32,0-6.25,2-7.41,7.24" transform="translate(-71.31 -15.75)"/><path id="path7964" class="cls-15" d="M406.81,200.74c-.32,0-5.28,0-8.19,2.11" transform="translate(-71.31 -15.75)"/></g></g><g id="g7966"><g id="g7968"><path id="path7970" class="cls-15" d="M406.59,212.1c-9.41-3.67-8.55-9.55-7.72-9.15" transform="translate(-71.31 -15.75)"/><path id="path7972" class="cls-15" d="M401.31,212.76c-.29-.13-5.09-4.59-4.37-9.95" transform="translate(-71.31 -15.75)"/><path id="path7974" class="cls-15" d="M405.53,208c-.3-.13-4.88-2.32-6.83-5.57" transform="translate(-71.31 -15.75)"/></g></g></g><g id="g7976"><g id="g7978"><g id="g7980"><path id="path7982" class="cls-16" d="M365.82,195.88l16.47,3.28" transform="translate(-71.31 -15.75)"/><path id="path7984" class="cls-16" d="M372.27,189.53c9.49,3.38,8.77,9.29,7.93,8.91" transform="translate(-71.31 -15.75)"/><path id="path7986" class="cls-16" d="M377.53,188.7c.3.13,5.19,4.44,4.59,9.82" transform="translate(-71.31 -15.75)"/><path id="path7988" class="cls-16" d="M373.42,193.62c.31.12,4.93,2.17,7,5.36" transform="translate(-71.31 -15.75)"/></g></g><g id="g7990"><g id="g7992"><path id="path7994" class="cls-16" d="M370,204.28c9.93.5,11-5.34,10.11-5.31" transform="translate(-71.31 -15.75)"/><path id="path7996" class="cls-16" d="M374.71,207.09c.32,0,6.21-2.17,7.24-7.46" transform="translate(-71.31 -15.75)"/><path id="path7998" class="cls-16" d="M372.31,200.89c.32,0,5.28-.15,8.14-2.36" transform="translate(-71.31 -15.75)"/></g></g></g><path id="path4613" class="cls-17" d="M397.44,204.59c.87-4.91-2.11-9.71-6.65-10.75s-8.92,2.06-9.79,7,2.11,9.74,6.66,10.78,8.91-2.08,9.78-7" transform="translate(-71.31 -15.75)"/><g id="g6416"><g id="g6324"><path id="path6269" class="cls-21" d="M177.87,275.65c-1.33-2.44-1.4-4.89-4.05-7.33l18.94,2.47L180,282.11l-2.09-5.87" transform="translate(-71.31 -15.75)"/><path id="path868" class="cls-6" d="M171.15,277.12l4.71-7,13,1.88-10.41,8.66-7.32-3.51" transform="translate(-71.31 -15.75)"/><path id="path6444" class="cls-6" d="M171.24,277.12l3.36-4.74,8.75,1.27-7.17,5.73-4.94-2.15" transform="translate(-71.31 -15.75)"/></g><path id="path6732" class="cls-21" d="M184.25,297c30-9.6,70.75-15.55,116-15.64,45.28.09,86.24,6,116.22,15.64" transform="translate(-71.31 -15.75)"/><g id="g6350"><path id="path6279" class="cls-22" d="M429.84,277.12l-4.71-7-13,1.88,10.41,8.66,7.32-3.51" transform="translate(-71.31 -15.75)"/></g><g id="g6448"><path id="path6450" class="cls-21" d="M422.89,275.65c1.32-2.44,1.39-4.89,4-7.33L408,270.79l12.79,11.32,2.1-5.87" transform="translate(-71.31 -15.75)"/><path id="path6452" class="cls-6" d="M429.61,277.12l-4.72-7-13,1.88,10.41,8.66,7.33-3.51" transform="translate(-71.31 -15.75)"/><path id="path6454" class="cls-6" d="M429.51,277.12l-3.35-4.74-8.76,1.27,7.17,5.73,4.94-2.15" transform="translate(-71.31 -15.75)"/></g><path id="path6495" class="cls-10" d="M412.16,271.92l5.71,1.93" transform="translate(-71.31 -15.75)"/></g><g id="g6398"><g id="g6315"><path id="path864" class="cls-23" d="M235.87,267.88l-9.14,1.21a4.38,4.38,0,0,1-4.79-4,4.51,4.51,0,0,1,3.71-5.1l9.19-1.23,9.35-1.22a4.3,4.3,0,0,1,4.72,4,4.56,4.56,0,0,1-3.74,5.11l-9.3,1.23" transform="translate(-71.31 -15.75)"/><path id="path6261" class="cls-24" d="M235.79,266l-8.37,1.17a3,3,0,0,1-3.47-2.36,2.88,2.88,0,0,1,2.61-3.18l8.4-1.18,8.77-1a3,3,0,0,1,3.44,2.36,2.92,2.92,0,0,1-2.64,3.18L235.79,266" transform="translate(-71.31 -15.75)"/><path id="path6263" class="cls-25" d="M236,269.63l-9.18,1.18a6.13,6.13,0,0,1-6.7-5.55,6.32,6.32,0,0,1,5.19-7.15l9.25-1.19,9.54-1.43a6,6,0,0,1,6.62,5.56c.38,3.5-1.73,6.87-5,7.29L236,269.63" transform="translate(-71.31 -15.75)"/></g><g id="g6341"><path id="path6273" class="cls-24" d="M363.77,267.88l9.14,1.21a4.36,4.36,0,0,0,4.78-4A4.5,4.5,0,0,0,374,260l-9.19-1.23-9.35-1.22a4.3,4.3,0,0,0-4.73,4,4.57,4.57,0,0,0,3.74,5.11l9.31,1.23" transform="translate(-71.31 -15.75)"/><path id="path6281" class="cls-24" d="M363.85,266l8.36,1.17a3,3,0,0,0,3.48-2.36,2.88,2.88,0,0,0-2.61-3.18l-8.4-1.18-8.78-1a3,3,0,0,0-3.43,2.36,2.91,2.91,0,0,0,2.64,3.18l8.74,1.05" transform="translate(-71.31 -15.75)"/><path id="path6283" class="cls-25" d="M363.59,269.63l9.18,1.18a6.13,6.13,0,0,0,6.71-5.55,6.33,6.33,0,0,0-5.19-7.15L365,256.92l-9.55-1.43a6,6,0,0,0-6.62,5.56c-.38,3.5,1.74,6.87,5,7.29l9.73,1.29" transform="translate(-71.31 -15.75)"/></g></g><g id="g6408"><g id="g6320"><path id="path866" class="cls-26" d="M198.73,268.79a4.25,4.25,0,1,1,4.23,4.59,4.42,4.42,0,0,1-4.23-4.59" transform="translate(-71.31 -15.75)"/><path id="path6267" class="cls-25" d="M197,268.79a6,6,0,1,1,6,6.47,6.23,6.23,0,0,1-6-6.47" transform="translate(-71.31 -15.75)"/></g><g id="g6346"><path id="path6275" class="cls-27" d="M400.91,268.79a4.25,4.25,0,1,0-4.23,4.59,4.42,4.42,0,0,0,4.23-4.59" transform="translate(-71.31 -15.75)"/><path id="path6287" class="cls-25" d="M402.64,268.79a6,6,0,1,0-6,6.47,6.22,6.22,0,0,0,6-6.47" transform="translate(-71.31 -15.75)"/></g></g><g id="g6369"><g id="g6311"><path id="path860" class="cls-26" d="M262.55,260.29a4.26,4.26,0,1,1,4.24,4.59,4.42,4.42,0,0,1-4.24-4.59" transform="translate(-71.31 -15.75)"/><path id="path6265" class="cls-25" d="M261.07,260.29a5.74,5.74,0,1,1,5.71,6.19,6,6,0,0,1-5.71-6.19" transform="translate(-71.31 -15.75)"/></g><g id="g6337"><path id="path6271" class="cls-27" d="M337.08,260.29a4.25,4.25,0,1,0-4.23,4.59,4.41,4.41,0,0,0,4.23-4.59" transform="translate(-71.31 -15.75)"/><path id="path6285" class="cls-25" d="M338.57,260.29a5.75,5.75,0,1,0-5.72,6.19,6,6,0,0,0,5.72-6.19" transform="translate(-71.31 -15.75)"/></g></g><g id="g6356"><g id="g6300"><g id="g4103"><path id="path4105" class="cls-28" d="M299.8,268.6l-18-8.85,18-7.94,18.07,7.94Z" transform="translate(-71.31 -15.75)"/><path id="path6259" class="cls-25" d="M299.8,270.33,278,259.75l21.84-9.67,21.88,9.67Z" transform="translate(-71.31 -15.75)"/></g><g id="g6247"><path id="path6249" class="cls-28" d="M299.8,265.13l-10.44-5.38,10.44-4.47,10.47,4.47Z" transform="translate(-71.31 -15.75)"/></g><path id="path6251" class="cls-10" d="M299.62,251.75v3.65" transform="translate(-71.31 -15.75)"/><path id="path6253" class="cls-10" d="M299.81,264.78v3.65" transform="translate(-71.31 -15.75)"/><path id="path6255" class="cls-10" d="M289.33,259.67H281.9" transform="translate(-71.31 -15.75)"/><path id="path6257" class="cls-10" d="M316.89,259.67h-6.67" transform="translate(-71.31 -15.75)"/></g></g><path id="path6446" class="cls-10" d="M182.87,273.71,188.6,272" transform="translate(-71.31 -15.75)"/><path class="cls-29" d="M284.09,109.45c0-.75,0-1.5,0-2.27q.06-4.28.32-8.33c-8.53-6.58-20.54-10.68-33.82-10.68-25.94,0-44.33,13.48-45.17,32.6a35.84,35.84,0,0,0,5.75,23.77c9.62-1.95,18.33-4.71,25.14-8.22,11.86-5.36,28-9.19,47-10.53.37-4.31.61-8.88.69-13.63C283.94,111.27,284.09,110.33,284.09,109.45Z" transform="translate(-71.31 -15.75)"/><path class="cls-29" d="M394.35,120.77c-.83-19.12-19.25-32.6-45.16-32.6-13.34,0-25.36,4.11-33.91,10.73.17,2.68.29,5.44.34,8.28,0,.77-.05,1.52-.05,2.27s.17,1.82.18,2.71c.07,4.82.31,9.46.68,13.82,18.24,1.5,34.14,5.23,45.45,10.34,7.15,3.68,16.36,6.54,26.53,8.5a35.51,35.51,0,0,0,6.15-20A37.9,37.9,0,0,0,394.35,120.77Z" transform="translate(-71.31 -15.75)"/><path class="cls-29" d="M188.59,136.87a7.79,7.79,0,0,1-7.17-7,8.36,8.36,0,0,1,6.79-9.35,7.53,7.53,0,0,1,1.41-.09l.09-.38a7.75,7.75,0,0,1-6.54-6.43c-2.95-.28-6-.45-9-.45-28.1,0-47.55,7.83-54.37,24.68a36.45,36.45,0,0,0,.62,29.56,130.08,130.08,0,0,1,15.89-9.5c15.25-7.66,30.5-11.18,41-11,2.6.23,5.33.34,8.15.34a8.55,8.55,0,0,1,3.14-10.39Z" transform="translate(-71.31 -15.75)"/><path class="cls-29" d="M480,137.81c-6.8-16.85-26.26-24.68-54.37-24.68-3.1,0-6.14.17-9.12.46A7.77,7.77,0,0,1,410,120c0,.13.07.26.1.39a8.11,8.11,0,0,1,8.1,9.44,7.79,7.79,0,0,1-7.17,7,8.55,8.55,0,0,1,3.72,8.16,8.43,8.43,0,0,1-.58,2.22c2.29,0,4.52-.14,6.66-.33,10.54-.23,25.79,3.29,41,11A127.46,127.46,0,0,1,479,168.19a36.48,36.48,0,0,0,1-30.38Z" transform="translate(-71.31 -15.75)"/></g></g></g><path class="cls-30" d="M77.82,630.59c8.23,106.52,99.58,191,212.45,194.73,2.58.08,5.17.14,7.77.14s5.2-.06,7.78-.14C418.69,821.59,510,737.11,518.27,630.59Z" transform="translate(-71.31 -15.75)"/><g id="layer4"><g id="g32781"><path id="path19867" class="cls-31" d="M260.59,757.38l-1.37,1.31c17.44,6.1,33.67,13.49,41.63,22.32a134.69,134.69,0,0,1-2.52,15.38c2.88.92,7.1,2.29,10.65-3.06a47,47,0,0,1-1.09-5.63c6.82-9.47,22.14-18.12,38.86-25.59l-1.53-1.21c-13.26,7.7-29.58,11.84-37.74,20.32-.05-6.41-.06-23.83,1.59-30.56l-11-.52c.85,4.36,3.19,20.89,3.12,25.06-9-8.22-26.17-11-40.61-17.82Z" transform="translate(-71.31 -15.75)"/><g id="g20060"><path id="path20062" class="cls-32" d="M397.3,735.21c.46.46.09,2.79-.94,4.63a50.28,50.28,0,0,1-2.71,4.71c-1.39,1.94-3.13,3.63-4.52,5.57-1.09,1.52-2.71,2.32-4,3.48a30.22,30.22,0,0,1-5.77,3.55c-2.2,1.06-4.48,3.53-6,4.9a15.17,15.17,0,0,1-3.82,2.3c-2.19,1.06-3.52,2.33-5.86,3.13-3.62,1.26-6.71,2.78-10.46,3.49a45.93,45.93,0,0,1-8.57,1h-1c-2.76.05-5.34.28-8.07.33-2,0-4.06,1.18-5.68,2a5.82,5.82,0,0,1-.84.25c-2.78.82-4.91,1.78-7.42,2.64a21.71,21.71,0,0,0-5,2.09,43.67,43.67,0,0,0-5.29,3.64,4,4,0,0,1-3.81.9,26.32,26.32,0,0,0-4.77.13c-.38,0,3.28-2.15,4-2.68,2-1.56,4.39-3.45,5.64-4.57,2.13-1.91,2.88-2.06,4.51-4.18a30.15,30.15,0,0,1,5.61-5.18c2-1.54,3.56-3.84,5.15-5.26s3.29-2.34,4.46-3.39a34.47,34.47,0,0,1,5.23-3.45c1.76-1.12,4.09-3.34,6.81-4.35a24.84,24.84,0,0,0,5.39-3.22c1.51-1.17,6.15-1.83,8.38-1.87,3.6-.06,7.28-1.38,10.88-1.21,1.81.08,5.41-1,7.24-1.48a30,30,0,0,0,6-2.11c2.36-1.13,5.84-1.88,7.72-2.79a66.08,66.08,0,0,1,6.19-2.67c.44-.15.91-.23,1.37-.35Z" transform="translate(-71.31 -15.75)"/><path id="path20064" class="cls-32" d="M386.89,743.31c.58-.2-2.51,1.75-4.93,3.3-3.18,2-7.85,3-11.5,4.3a70.11,70.11,0,0,1-8.72,2.81c-3.66.7-6.71,2.68-10.16,3.34-1.63.31-4.32,2.15-6,2.72a48.3,48.3,0,0,0-8.2,4.1c-.57.33-1.21.58-1.81.87-2.95,1.42-5.5,3.58-8.24,4.9-1.81.86-3.14,1.81-5,2.69s-3.21,2.42-5.1,3.07c-2.35.82-4.14,3.38-6.17,4.68a33.84,33.84,0,0,1-2.92,1.87" transform="translate(-71.31 -15.75)"/></g><g id="g11679"><path id="path11681" class="cls-32" d="M198.61,747.69c-.18.57,1,2.72,2.44,4.21,1.28,1.29,2.43,2.63,3.82,3.79,1.79,1.48,3.76,2.64,5.55,4.13,1.4,1.16,2.94,1.48,4.36,2.24a25.57,25.57,0,0,0,5.76,1.82c2.1.41,4.77,2.16,6.45,3.06a12.68,12.68,0,0,0,3.8,1.16c2.08.41,3.58,1.27,5.68,1.39,3.26.2,6.21.81,9.36.46a30.45,30.45,0,0,0,7-1.38l.78-.27c2.14-.72,4.22-1.21,6.35-1.93,1.57-.52,3.57,0,5.11.32a3.56,3.56,0,0,0,.73,0c2.46,0,4.46.36,6.71.49a16.59,16.59,0,0,1,4.62.63,38,38,0,0,1,5.43,2,2.84,2.84,0,0,0,3.27-.19,17.65,17.65,0,0,1,3.73-1.2c.3-.1-3.32-1.16-4-1.48-2.12-1-4.66-2.11-6-2.85-2.35-1.25-3-1.19-5-2.78a28.93,28.93,0,0,0-6.24-3.44c-2.1-.94-4.16-2.71-5.91-3.65s-3.41-1.33-4.7-2a29.23,29.23,0,0,0-5.31-1.88c-1.77-.59-4.39-2.09-6.86-2.31a21,21,0,0,1-5.35-1.6c-1.59-.72-5.42-.06-7.16.52-2.8.94-6.13.69-8.85,1.86-1.37.58-4.55.53-6.14.59a23,23,0,0,1-5.39-.37c-2.25-.45-5.21-.2-7-.55a48.19,48.19,0,0,0-5.76-.86,11.84,11.84,0,0,0-1.19.05Z" transform="translate(-71.31 -15.75)"/><path id="path11683" class="cls-32" d="M209.63,752.62c-.51,0,2.59,1,5,1.81,3.21,1.09,7.18.75,10.47,1a51.05,51.05,0,0,0,7.77.29c3.08-.34,6.16.72,9.08.4,1.37-.15,4.12.87,5.6,1a38.31,38.31,0,0,1,7.84,1.68c.56.16,1.15.23,1.72.34,2.79.55,5.56,1.92,8.17,2.43,1.71.34,3.09.89,4.82,1.23s3.36,1.44,5.06,1.54c2.12.13,4.45,2.11,6.49,2.8a29.1,29.1,0,0,0,2.94,1" transform="translate(-71.31 -15.75)"/></g><g id="g27688"><g id="g5361"><g id="g32765"><g id="g5324"><path id="path5266" class="cls-33" d="M302.75,751.62c-26.78-.41-53.43-14.91-51.35-44.8,1.75-25.17,13.44-31.73,33.12-37.15l-7.6-16.89L290,658.45l5.64-6.51,8.17,6.51,7.46-6.68,6.34,6.68,13.74-6-7.78,17.19c19.84,5.81,32.41,8.53,33.57,38.75,1.42,37.25-27.6,43.59-54.38,43.2Z" transform="translate(-71.31 -15.75)"/><path id="path5270" class="cls-34" d="M303.39,671.71a19.42,19.42,0,0,0-2.67,2c-.73.62-1.77,2-2.67,3a5.72,5.72,0,0,0,5.34,3,5.8,5.8,0,0,0,5.27-2.85c-.89-1-1.88-2.41-2.6-3A18.88,18.88,0,0,0,303.39,671.71Zm-8.64,8.79a41,41,0,0,0-2.95,5c2.12-.65,3.79-1.86,3.79-3.57C295.59,681.35,295,681,294.75,680.5Zm17.21.09c-.23.45-.77.8-.77,1.31,0,1.67,1.61,2.85,3.65,3.52A43.41,43.41,0,0,0,312,680.59Zm-8.57,1.4c-3.35,0-6,1.88-6,4.2s2.69,4.25,6,4.25,6.11-1.92,6.11-4.25S306.74,682,303.39,682Zm-12.85,6.76c-.5,1.23-1,2.33-1.48,3.72-.37,1.2-.6,2.68-.91,4,.51.1.85.43,1.4.43,3.36,0,6-1.92,6-4.25C295.59,690.61,293.34,689.12,290.54,688.75Zm25.63,0c-2.77.39-5,1.87-5,3.91,0,2.33,2.69,4.25,6,4.25a7.22,7.22,0,0,0,1.4-.38c-.3-1.28-.55-2.7-.91-3.87C317.26,691.21,316.7,690,316.17,688.75Zm-12.78,4.06c-3.35,0-6,1.92-6,4.25s2.69,4.2,6,4.2,6.11-1.88,6.11-4.2S306.74,692.81,303.39,692.81Zm-13.84,6.47a6.81,6.81,0,0,0-2.17.63c-.07.39-.22.7-.28,1.11-.27,1.79-.3,3.89-.43,5.89a7.35,7.35,0,0,0,2.88.82c3.36,0,6-1.88,6-4.2S292.91,699.28,289.55,699.28Zm27.68,0c-3.35,0-6,1.92-6,4.25s2.69,4.2,6,4.2a7.26,7.26,0,0,0,2.88-.82c-.13-2-.16-4-.42-5.8-.07-.44-.21-.77-.28-1.2A6.87,6.87,0,0,0,317.23,699.28Zm-13.84,4.34c-3.35,0-6,1.88-6,4.2s2.69,4.21,6,4.21,6.11-1.88,6.11-4.21S306.74,703.62,303.39,703.62Zm-13.84,6.47a7.49,7.49,0,0,0-3.16.87v.34c0,2.36.23,4.38.42,6.47a7.25,7.25,0,0,0,2.74.77c3.36,0,6-1.92,6-4.24S292.91,710.09,289.55,710.09Zm27.68,0c-3.35,0-6,1.88-6,4.21s2.69,4.24,6,4.24a7.07,7.07,0,0,0,2.74-.82c.19-2.08.42-4.08.42-6.42V711A7.49,7.49,0,0,0,317.23,710.09Zm-13.84,4.3c-3.35,0-6,1.92-6,4.25s2.69,4.2,6,4.2,6.11-1.87,6.11-4.2S306.74,714.39,303.39,714.39Zm-13.84,6.52a7.13,7.13,0,0,0-2.38.68,52.22,52.22,0,0,0,1.75,7.53c.24,0,.38.19.63.19,3.36,0,6-1.87,6-4.2S292.91,720.91,289.55,720.91Zm27.68,0c-3.35,0-6,1.87-6,4.2s2.69,4.2,6,4.2c.27,0,.44-.17.7-.19a52.89,52.89,0,0,0,1.76-7.53A7.06,7.06,0,0,0,317.23,720.91Zm-13.84,4.35c-3.35,0-6,1.87-6,4.2s2.69,4.2,6,4.2,6.11-1.88,6.11-4.2S306.74,725.26,303.39,725.26Zm-13.48,6.56a44.12,44.12,0,0,0,1.82,4.49c.53,1,1.13,1.82,1.69,2.71a3.82,3.82,0,0,0,2.17-3.09C295.59,733.69,293.07,732,289.91,731.82Zm27,0c-3.2.12-5.76,1.86-5.76,4.11a3.85,3.85,0,0,0,2.24,3.13c.53-.84,1.12-1.58,1.62-2.55A46.18,46.18,0,0,0,317,731.82Zm-13.56,4.25c-3.35,0-6,1.88-6,4.2s2.69,4.2,6,4.2,6.11-1.87,6.11-4.2S306.74,736.07,303.39,736.07Zm0,10.77a7,7,0,0,0-2.53.77,22,22,0,0,0,2.53,1.69,18.65,18.65,0,0,0,2.6-1.69A7.16,7.16,0,0,0,303.39,746.84Z" transform="translate(-71.31 -15.75)"/></g></g></g></g></g></g><rect class="cls-29" x="194.97" y="295.35" width="63.15" height="319.49"/><rect class="cls-35" x="258.12" y="295.35" width="63.15" height="319.49"/><rect class="cls-29" x="321.27" y="295.35" width="63.15" height="319.49"/><rect class="cls-35" x="384.42" y="295.35" width="63.15" height="319.49"/><rect class="cls-35" x="5.53" y="295.35" width="63.15" height="319.49"/><rect class="cls-29" x="68.67" y="295.35" width="63.15" height="319.49"/><rect class="cls-35" x="131.82" y="295.35" width="63.15" height="319.49"/><ellipse class="cls-36" cx="226.74" cy="461.65" rx="88.52" ry="88.52"/><path class="cls-37" d="M298.05,565.92a88.52,88.52,0,1,0-88.52-88.52A88.61,88.61,0,0,0,298.05,565.92Zm-28.69-7A86.85,86.85,0,0,1,230,530.63l10.6-9L263,528l13.43,19.09ZM227.21,480.3l14.92-20.09,18.19,6.49,15.13,41.68L263.2,525.92l-22.74-6.45ZM278,545.72l-13.09-18.6,12.26-17.55,41.36.1,14.81,14.74-14,20.74Zm49.14,13.09-5.48-13.36,13.67-20.28,22.33-6.82,9.63,10.79A86.83,86.83,0,0,1,327.12,558.81Zm41.51-131.24a85.86,85.86,0,0,1,15.79,46.59L371,475.3l-14.2-16.66L356,433.29Zm.84,49.08-11.83,39.53-22.7,6.93-15-14.92,14.14-40.63,21.38-7.32Zm-14.71-18.34-21.41,7.32L299.8,439.39l.15-21.57,19.78-7.65,34.2,23.1ZM298.05,391a86.06,86.06,0,0,1,23.29,3.22l-3.13,14.37L298.89,416l-22.74-7.12L275.2,394A86.14,86.14,0,0,1,298.05,391Zm-23.28,19.68,23.11,7.24-.15,21.42-36.36,25.59-18.61-6.64-1-24.22ZM239.7,435l1,23.7L225.57,479l-13.93-3.19a85.92,85.92,0,0,1,16.13-48.7Z" transform="translate(-71.31 -15.75)"/><circle class="cls-38" cx="228.48" cy="461.65" r="44.1"/><polygon class="cls-39" points="248.66 492.44 263.63 507.36 286.33 500.43 298.16 460.9 284.18 444.5 262.8 451.81 248.66 492.44"/><polygon class="cls-39" points="283.45 442.56 282.61 417.52 248.42 394.42 228.64 402.07 228.49 423.65 262.04 449.88 283.45 442.56"/><polygon class="cls-39" points="205.84 493.82 193.58 511.37 206.67 529.98 248.03 529.4 262 508.66 247.2 493.92 205.84 493.82"/><polygon class="cls-39" points="189.01 450.95 170.82 444.47 155.9 464.56 169.15 503.72 191.89 510.18 204.14 492.63 189.01 450.95"/><polygon class="cls-39" points="190.06 449.13 226.42 423.54 226.57 402.12 203.46 394.89 170.42 418.27 171.45 442.49 190.06 449.13"/><path class="cls-40" d="M371,475.3l13.38-1.14a85.86,85.86,0,0,0-15.79-46.59L356,433.29l.84,25.35Z" transform="translate(-71.31 -15.75)"/><path class="cls-40" d="M335.31,525.17l-13.67,20.28,5.48,13.36a86.83,86.83,0,0,0,40.15-29.67l-9.63-10.79Z" transform="translate(-71.31 -15.75)"/><path class="cls-40" d="M240.61,521.67l-10.6,9a86.85,86.85,0,0,0,39.35,28.31l7.06-11.83L263,528Z" transform="translate(-71.31 -15.75)"/><path class="cls-40" d="M298.89,416l19.32-7.47,3.13-14.37A85.93,85.93,0,0,0,275.2,394l.95,14.85Z" transform="translate(-71.31 -15.75)"/><path class="cls-40" d="M225.57,479l15.14-20.38-1-23.7-11.93-7.81a85.92,85.92,0,0,0-16.13,48.7Z" transform="translate(-71.31 -15.75)"/><text class="cls-41" transform="matrix(0.81, 0.52, -0.54, 0.84, 40.16, 542.4)">G</text><text class="cls-41" transform="translate(78.12 565.96) rotate(22.61) scale(0.97 1)">R</text><text class="cls-41" transform="translate(117.68 582.05) rotate(14.36) scale(0.97 1)">A</text><text class="cls-41" transform="matrix(0.96, 0.12, -0.12, 0.99, 160.97, 592.8)">N</text><text class="cls-41" transform="matrix(0.97, 0.01, -0.01, 1, 203.66, 597.85)">A</text><text class="cls-41" transform="translate(247.58 597.96) rotate(-6.12) scale(0.97 1)">D</text><text class="cls-41" transform="translate(289.39 592.91) rotate(-11.38) scale(0.97 1)">I</text><text class="cls-41" transform="translate(312.01 588.48) rotate(-16.28) scale(0.97 1)">L</text><text class="cls-41" transform="matrix(0.89, -0.38, 0.39, 0.92, 345.32, 578.56)">L</text><text class="cls-41" transform="translate(379.7 563.96) rotate(-32.62) scale(0.97 1)">A</text><text class="cls-42" transform="translate(39.53 399.44) rotate(-21.33)">A</text><text class="cls-42" transform="translate(88.32 381.18) rotate(-10.86)">T</text><text class="cls-42" transform="translate(137.13 371.85) rotate(-5.81)">L</text><text class="cls-42" transform="matrix(1, -0.03, 0.03, 1, 181.96, 367.12)">E</text><text class="cls-42" transform="matrix(1, 0.05, -0.05, 1, 231.5, 365.64)">T</text><text class="cls-42" transform="translate(282.11 368.25) rotate(6.34)">I</text><text class="cls-42" transform="matrix(0.98, 0.18, -0.18, 0.98, 310.38, 370.77)">C</text><text class="cls-42" transform="translate(358.73 379.06) rotate(19.03)">O</text><path class="cls-43" d="M518.88,614.89V311.1H77.21V614.89q0,7.92.61,15.7H518.27Q518.87,622.82,518.88,614.89Z" transform="translate(-71.31 -15.75)"/><path class="cls-43" d="M77.82,630.59c8.23,106.52,99.58,191,212.45,194.73,2.58.08,5.17.14,7.77.14s5.2-.06,7.78-.14C418.69,821.59,510,737.11,518.27,630.59Z" transform="translate(-71.31 -15.75)"/></svg>