<svg id="Capa_1" data-name="Capa 1" xmlns="http://www.w3.org/2000/svg" viewBox="0 0 585.54 549.54"><defs><style>.cls-1{fill:#bce1ea;}.cls-2,.cls-26{fill:#24366e;}.cls-3,.cls-4{fill:#5baf35;stroke-width:0.49px;}.cls-3{stroke:#063;}.cls-14,.cls-20,.cls-25,.cls-27,.cls-28,.cls-29,.cls-3,.cls-4,.cls-9{stroke-miterlimit:10;}.cls-29,.cls-4{stroke:#182249;}.cls-11,.cls-22,.cls-25,.cls-5{fill:none;}.cls-22,.cls-23,.cls-27,.cls-5,.cls-6{stroke:#24366e;}.cls-10,.cls-11,.cls-12,.cls-13,.cls-22,.cls-23,.cls-5,.cls-6{stroke-linejoin:round;}.cls-5,.cls-6{stroke-width:6.81px;}.cls-14,.cls-20,.cls-23,.cls-28,.cls-6{fill:#fff;}.cls-7{fill:#fffffe;}.cls-15,.cls-19,.cls-8{fill:#282e69;}.cls-9{fill:#a1cde7;}.cls-14,.cls-9{stroke:#282e69;stroke-width:0.6px;}.cls-10{fill:#f7b282;}.cls-10,.cls-11,.cls-12,.cls-13{stroke:#010101;stroke-linecap:round;stroke-width:0.3px;}.cls-12{fill:#e5e5e4;}.cls-13{fill:#808181;}.cls-15{font-size:9.84px;letter-spacing:0.18em;}.cls-15,.cls-19{font-family:GillSans-UltraBold, Gill Sans Ultra Bold;font-weight:700;}.cls-16{letter-spacing:0.2em;}.cls-17{letter-spacing:0.16em;}.cls-18{letter-spacing:0.14em;}.cls-19{font-size:9.22px;letter-spacing:0.1em;}.cls-20{stroke:#1d1d1b;stroke-width:0.35px;}.cls-21{fill:#1d1d1b;}.cls-22{stroke-width:1.67px;}.cls-23{stroke-width:1.67px;}.cls-24,.cls-27{fill:#282e68;}.cls-25,.cls-28{stroke:#282e68;}.cls-25{stroke-width:0.97px;}.cls-26{font-size:30.17px;font-family:TimesNewRomanPSMT, Times New Roman;}.cls-27{stroke-width:2.38px;}.cls-28{stroke-width:0.6px;}.cls-29{font-size:48.67px;fill:#182249;stroke-width:0.97px;font-family:ArialMT, Arial;letter-spacing:-0.08em;}.cls-30{letter-spacing:-0.01em;}</style></defs><path class="cls-1" d="M297.46,564.19V694a125.31,125.31,0,0,0,14.87-1.14c17.9-2.46,31.2-8.3,40.9-13,49.71-24.2,103.36-50.32,142.21-109.69,1.28-1.95,2.58-3.95,3.88-6Z" transform="translate(-4.87 -147.87)"/><path class="cls-2" d="M297.82,564.19V694A125,125,0,0,1,283,692.87c-17.9-2.46-31.21-8.3-40.9-13-49.72-24.2-103.37-50.32-142.22-109.69-1.28-1.95-2.58-3.95-3.88-6Z" transform="translate(-4.87 -147.87)"/><path class="cls-2" d="M524.26,505.11c2.45-14,3-30.12,3-42.14H297.46V564.19H499.32C509.52,548.3,519.89,530.07,524.26,505.11Z" transform="translate(-4.87 -147.87)"/><path class="cls-1" d="M71,505.11c-2.45-14-3-30.12-3-42.14H297.82V564.19H96C85.76,548.3,75.39,530.07,71,505.11Z" transform="translate(-4.87 -147.87)"/><path class="cls-3" d="M473.19,478.47a4,4,0,0,0-1.95-2,3.49,3.49,0,0,0-1.95,0c-1.62.34-3.26.56-4.86,1a29.31,29.31,0,0,1-4.87,1c-1.18.11-1.11,0-5.84,0-2.88,0-2.75,0-2.92,0a1.64,1.64,0,0,0-1,0,1.87,1.87,0,0,0-1,1,2.92,2.92,0,0,0,0,1.95c.3,1.07-.13,2.33-1,4.87-.41,1.22-1.07,2.9-3.89,7.78-2,3.5-3.13,5.14-4.87,6.82-1.1,1.05-2.36,2-3.89,1.94-.66,0-1.73-.3-2-1s.63-1.33,2-2.92c1.62-2,3.2-3.86,2.92-5.84a3.53,3.53,0,0,0-1-1.95c-.43-.42-1.12-.81-3.89-1a23,23,0,0,0-3.89,0,12.55,12.55,0,0,0-1.71.32l-1.21.65a77.57,77.57,0,0,0-8.76,5.84c-7,5.25-10.58,7.87-11.68,9.74a19.41,19.41,0,0,0-2.62,8.3,6,6,0,0,1-5.17-.52,6.4,6.4,0,0,1-1.94-2.92c-.32-1-.21-1.48,0-4.86a30.45,30.45,0,0,0,0-4.87c-.15-1.54-.38-2.32-1-2.92a3.83,3.83,0,0,0-1.94-1,1.76,1.76,0,0,0-1,0,1.85,1.85,0,0,0-1,1c-.57,1.11-2.95,2.88-6.81,6.81-5,5.1-4.77,5.94-8.76,9.74A59.81,59.81,0,0,1,371,519.6v-1.22c0-2.45.06-3.4,0-4.87-.15-3.44-.76-3.8-1-3.89a1.63,1.63,0,0,0-1,0,4,4,0,0,0-1.94,1c-3.68,3.19-8,5.58-11.68,8.76l-3.53,3c-.11-.65-.24-1.33-.37-2.06-.65-3.61-1.12-4.53-1.94-4.86-.34-.14-1.33-.41-4.87,1.94a34.62,34.62,0,0,0-4.87,3.9c-5,4.94-7.57,7.41-8.76,8.76a49.12,49.12,0,0,1-6.81,6.81c-2.06,1.65-3.33,2.34-3.89,1.94s-.17-2.29,0-2.92c.47-1.73,1.12-1.91,1.94-3.89a10.58,10.58,0,0,0,1-3.89,17.69,17.69,0,0,1,0-2.92c.06-.54.27-1,0-1h-3.9a3.32,3.32,0,0,0-1.94,1c-1.33,1.24-1.23,1.28-1.95,1.95a15.4,15.4,0,0,1-1,3.89,36.5,36.5,0,0,1-8.76,13.62c-3,2.54-4.71,2.89-5.84,2.92a6.71,6.71,0,0,1-2.33-.32c.46-.79.87-1.62,1.35-2.6a31.16,31.16,0,0,0,2-4.86,28.34,28.34,0,0,0,1-4.87c.36-2.57.16-2.82,0-2.92-.71-.44-2.7,1.14-3.89,2.92a8.91,8.91,0,0,0-1,2,43.25,43.25,0,0,1-3.9,7.78,29,29,0,0,1-3.89,4.87c-2,2-11.28,10.38-13.63,8.76a2.93,2.93,0,0,1-1-1.95,4.67,4.67,0,0,1,1-2.92c3.9-6.81,3.9-6.81,6.82-12.65.61-1.22,2.42-2.67,1.94-3.89a2.13,2.13,0,0,0-1-1c-.81-.4-1.26,0-2.92,0-1.2,0-1.47-.26-2,0-.82.46-3.77,6.59-3.89,6.82-4.87,9.73-4.87,9.78-6.81,12.65a68.5,68.5,0,0,1-18.5,18.49c-1.77,1.17-3.53,2.19-5.23,3.09.13-.39.25-.77.37-1.14,2-6.41,2.1-9.86,2.92-13.63a39.74,39.74,0,0,1,8.28-16.54h-6.07l.22-.49c-.42.51-.83,1-1.24,1.46h.1c-.51.57-1,1.11-1.51,1.62A36.79,36.79,0,0,1,243,552c-3.9,2.92-1.95,1.95-7.79,5.84a10.87,10.87,0,0,1-3.89,2c-1.13.36-2.82.86-3.89,0-.83-.65-.9-1.79-1-2.92a9.62,9.62,0,0,1,.28-2.91,85.33,85.33,0,0,0,10.43-9.74c5.2-5.76,15.08-16.95,18.49-34.07a62.43,62.43,0,0,0,.88-18.25,1.85,1.85,0,0,0-2.22-1.63c-.5.12-1,.25-1.58.42A30,30,0,0,0,242,496.48c-10.82,8.77-19,27.26-19.46,28.22a93.26,93.26,0,0,0-6.81,22.39c-.6,3.74-1.31,11.22-1.45,14.64-3.12,2.18-6,4-8.29,5.8a52.66,52.66,0,0,1-6.32,4.38,22.34,22.34,0,0,1-5.36,2.43,10.14,10.14,0,0,1-4.86,0c-3.76-1.17-5.29-6-5.84-7.79-3.22-10.2,5.08-26.25,9.73-35,6.37-12.06,11.92-22.3,16.29-30.26-1,0-2,0-2.66.08-2.32.17-3.56.27-4.87,1a7.85,7.85,0,0,0-2.92,2.92c-4.13,6.63-15.26,32-19.47,40.87a41.79,41.79,0,0,0-2.92,5.84,32.37,32.37,0,0,0-1.94,9.74c-.16,3.31-.31,6.5,1,9.73,2.61,6.58,9.57,9.29,10.71,9.73,9.46,3.69,21.9-1.46,33.58-14.11l-.49-.7a5,5,0,0,1,.54.78,14,14,0,0,0,4.33,1.38c7.12,1,14.94-3.77,20.41-12.19-.49,1.68-1,3.33-1.44,4.89-3.41,11.39-4.85,14.55-5.84,16.55-2.66,5.39-5.26,10.53-10.7,14.6-3.4,2.54-3.88,1.66-8.76,4.86a40.42,40.42,0,0,0-11.68,10.71c-3.16,4.55-4.12,8.53-5.84,15.57-.66,2.72,0,.57-1.95,16.55-.49,4-.9,7.09,1,8.76,1.67,1.49,4.28,1.07,4.86,1,4.66-.75,8.22-5.6,13.63-17.52,6.53-14.39,4.77-14.86,9.73-24.33,3.76-7.18,5.44-8.17,10.71-18.49l.56-1.11a9.55,9.55,0,0,0,3.33.13c2.33-.32,4-1.45,5.84-2.92a92.72,92.72,0,0,0,8.76-7.78c7.44-7.4,8.94-9.09,10.71-11.68.93-1.38,1.67-2.62,2.25-3.65a10.35,10.35,0,0,0,3.59,1.7,10.13,10.13,0,0,0,4.86,0,12.06,12.06,0,0,0,6.82-4.87c.64-1,.86-.86,1.94-1.94a31.25,31.25,0,0,1,2.53-2.66,22,22,0,0,0,8.18-.26,25.16,25.16,0,0,0,10.71-5.84c.76-.64,1.41-1.26,2-1.85,1.51,1.44,4.17,3.48,6.76,2.82.82-.21,1.44-.64,2.92-1.95a56.23,56.23,0,0,0,5.84-5.84,127.7,127.7,0,0,1,12.65-12.65c1.06-.94,2.81-2.48,3.89-1.94.84.4,1.05,1.93,1,2.92-.12,1.43-.85,1.64-1,2.92a3.93,3.93,0,0,0,1.95,3.89c1.36.56,2.8-.36,3.89-1a7.87,7.87,0,0,0,2.92-2.91,7,7,0,0,0,.58-1.21,12.3,12.3,0,0,0,2.34-2.69c1.14-1.78,1.29-3.05,2.92-4.86.94-1.05,1.89-2.1,2.92-2,.75.11,1.48,1.37,2.92,3.89,1.74,3,2.16,3.77,2.92,3.9,1.13.18,2.19-1.1,2.92-1.95,3-3.49,6.64-6.35,9.74-9.73,0,0,4.44-4.87,6.81-4.87h2.92c1.33.11,2.13,1.87,2.92,2.92a9.06,9.06,0,0,0,4.87,2.92,10.73,10.73,0,0,0,7.6-.79,4.81,4.81,0,0,0,1.15,1.76c2.27,2.13,6.27,1.29,7.79,1,4.45-.93,7.71-4,9.73-5.84,2.6-2.42,3.26-3.88,5.84-4.87a18.34,18.34,0,0,1,4.87-1c3-.27,3.4.24,4.87,0,2.49-.43,4.29-2.89,7.78-7.79,1.49-2.08,2.62-4,4.87-7.79,2.63-4.42,2.82-5.16,2.92-5.84a4.73,4.73,0,0,1,1-2.92c.54-.54,1.24-.78,2.92-1,3.05-.34,5.1-.05,8.76,0h.88a25.43,25.43,0,0,0-1.85,1.94,24.47,24.47,0,0,0-3.89,5.84c-1.27,2.68-2.32,4.89-1.95,7.78a10.74,10.74,0,0,0,1.95,4.87,7.82,7.82,0,0,0,1.94,1.95,7.57,7.57,0,0,0,5,1.09c.18-1.47.37-3,.55-4.43a22.32,22.32,0,0,1-1.63-2.5,10.92,10.92,0,0,1-1-1.95c-.54-1.91,1.16-3.3,3.9-7.79a53,53,0,0,0,2.92-5.84,7.57,7.57,0,0,0,1-3.89A6.51,6.51,0,0,0,473.19,478.47ZM227.43,539.3a41.46,41.46,0,0,1,1-4.87,51.2,51.2,0,0,1,1.94-5.83c2.41-6,6.58-12.65,10.71-19.47,5.12-8.45,7.18-12.12,8.76-11.68,1.13.31,1.66,2.61,1.95,3.89a12.62,12.62,0,0,1,0,4.87,19.12,19.12,0,0,1-1,3.89A141,141,0,0,1,243,526.65c-5.38,9.67-8.3,16-12.66,17.52-.52.18-2.09.72-2.91,0C227,543.79,226.8,543.11,227.43,539.3Zm-6.33,69.59c-.88,3.64-1,3.9-1,3.9-3.2,8.23-4.95,12.38-6.82,16.54-3.14,7-4.81,10-5.84,9.74-.47-.12-.77-.91-1-2.92a33.45,33.45,0,0,1,1.95-14.6,44.14,44.14,0,0,1,4.86-9.74c1-1.49,4.84-7.5,6.82-6.81a2.2,2.2,0,0,1,1,1A4,4,0,0,1,221.1,608.89Zm192.71-95.38c-.19.06-.73.24-1,0s-.06-.79,0-1a21.55,21.55,0,0,1,5.84-8.76c2.09-1.76,7.67-5.95,8.76-4.87C429.21,500.67,415.65,512.9,413.81,513.51Z" transform="translate(-4.87 -147.87)"/><path class="cls-4" d="M278,512.05c-1.69.45-1.93,3.55-2,3.89,0,.58-.24,3.58,2,4.87a3.62,3.62,0,0,0,3.89,0c1.63-1.31.83-4.31,0-5.84C281.24,513.69,279.57,511.63,278,512.05Z" transform="translate(-4.87 -147.87)"/><path class="cls-4" d="M294.58,512.05c-1.35.22-1.87,2.61-1.94,2.92a6.62,6.62,0,0,0,1,4.87,5.05,5.05,0,0,0,1.95,1.94c1.19.62,3.11.92,3.89,0,.48-.56.33-1.35,0-2.92a10,10,0,0,0-2.92-5.84C295.89,512.46,295.28,511.94,294.58,512.05Z" transform="translate(-4.87 -147.87)"/><path class="cls-4" d="M318.92,496.48c-2.76.24-4.33,3.69-4.87,4.86a11.15,11.15,0,0,0-1,3.9,7.23,7.23,0,0,0,1,4.86c.35.5,1.37,1.95,2.92,1.95s2.53-1.4,2.92-1.95a4.37,4.37,0,0,0,1-2.92c-.13-1.38-1.07-1.69-1-2.92a4.54,4.54,0,0,1,1-1.94c1.21-1.82,1.91-2,1.95-2.92a2.79,2.79,0,0,0-1-1.95A3.9,3.9,0,0,0,318.92,496.48Z" transform="translate(-4.87 -147.87)"/><path class="cls-5" d="M297.82,463H68c0,12,.58,28.13,3,42.14,4.37,25,14.74,43.19,24.93,59.08,1.3,2,2.6,4,3.88,6,38.85,59.37,92.5,85.49,142.22,109.69,9.69,4.71,23,10.55,40.9,13A125,125,0,0,0,297.46,694h.36a125.19,125.19,0,0,0,14.51-1.13c17.9-2.46,31.2-8.3,40.9-13,49.71-24.2,103.36-50.32,142.21-109.69,1.28-1.95,2.58-3.95,3.88-6,10.2-15.89,20.57-34.12,24.94-59.08,2.45-14,3-30.12,3-42.14Z" transform="translate(-4.87 -147.87)"/><path class="cls-6" d="M528.9,374.05c4.85-24.45,15.29-41.79,20.45-50.19,4.66-7.59,9-13.12,17.66-24.17,7.44-9.49,14.28-17.54,20-24-22.58-2-53.57-8.67-81.33-29-17.48-12.79-31.17-29.17-36.25-35.32a266.7,266.7,0,0,1-27.89-41.83C438,163,435,156.83,432.47,151.28a146.39,146.39,0,0,1-38.34,14.56c-11.21,2.52-33.67,7.58-59.49.93-11.53-3-24.18-8.37-37.18-13.94V375.37H528.65C528.73,374.93,528.81,374.5,528.9,374.05Z" transform="translate(-4.87 -147.87)"/><path class="cls-7" d="M421,262.2v77.53a87.8,87.8,0,0,0,13.34-2.79v-84.7Z" transform="translate(-4.87 -147.87)"/><path class="cls-7" d="M394.28,282.14v62a33.43,33.43,0,0,1,3.77,2.41,31,31,0,0,1,9.57-4.85V272.17Z" transform="translate(-4.87 -147.87)"/><path class="cls-7" d="M465.32,282.69c-1.45-7-2.23-7.69-4.35-17.21-1.44-6.45-1.9-9.82-1.74-13.84a36.7,36.7,0,0,1,1.16-8,32.3,32.3,0,0,1,4.93-10.45,29.18,29.18,0,0,1,2-2.52v-3.15l-19.72,14.74v88.86a47.14,47.14,0,0,0,7.25-5.4,35.46,35.46,0,0,0,7.83-9.23c4.47-7.82,4.61-15.61,4.64-19.36C467.38,292.58,466.69,289.29,465.32,282.69Z" transform="translate(-4.87 -147.87)"/><path class="cls-7" d="M338.88,323.54c.8.79,1.59,1.5,2.34,2.19a48.11,48.11,0,0,0,13,8.42V312Z" transform="translate(-4.87 -147.87)"/><path class="cls-7" d="M367.6,302.07v36.36c3.68.78,7.24,1.27,10.73,1.74,1,.14,1.85.24,2.61.33V292.11Z" transform="translate(-4.87 -147.87)"/><path class="cls-8" d="M354.27,312v22.11c2.05.91,3.84,1.55,5.22,2a68.4,68.4,0,0,0,8.11,2.25V302.07Z" transform="translate(-4.87 -147.87)"/><path class="cls-8" d="M380.94,292.11V340.5c3.53.41,4.94.43,7.54,1.21a30.26,30.26,0,0,1,5.8,2.44v-62Z" transform="translate(-4.87 -147.87)"/><path class="cls-8" d="M407.62,272.17v69.54c3.16-.94,4.56-.77,10.15-1.54l3.18-.44V262.2Z" transform="translate(-4.87 -147.87)"/><path class="cls-8" d="M434.29,252.24v84.7c.77-.24,1.54-.49,2.32-.76a55.58,55.58,0,0,0,11-5.05V242.27Z" transform="translate(-4.87 -147.87)"/><path class="cls-9" d="M449.89,206.12c-2,.64-4.07,1.29-6.17,1.93q-3.5,1.06-7.11,2.1a46.58,46.58,0,0,1-15.37,2.15,47.34,47.34,0,0,1-15.36-3.38,50.54,50.54,0,0,1-7.83-3.95,50.54,50.54,0,0,1-7.83,3.95,47.33,47.33,0,0,1-15.37,3.38,46.47,46.47,0,0,1-15.36-2.15c-4.57-1.3-9-2.67-13.28-4l-17.46,18.75v5.81a31.21,31.21,0,0,1,2,2.52,32.3,32.3,0,0,1,4.93,10.45,36.7,36.7,0,0,1,1.16,8c.16,4-.3,7.39-1.74,13.84-2.12,9.52-2.9,10.25-4.35,17.21a90.94,90.94,0,0,0-1.92,11.2c-.08,1.05-.12,2.11-.11,3.25,0,3.75.17,11.54,4.64,19.36a31.21,31.21,0,0,0,5.49,7l7.14-5.33,113.25-84.64,8.08-6v-2.66ZM343.54,240.58c-.84-7.22-1.92-10.66-3.19-13.53-.13-.29-.27-.58-.4-.86s-.25-.52-.38-.77a35.79,35.79,0,0,0,3.89-2.64q.77-.59,1.53-1.26a36.83,36.83,0,0,0,4.07-4.18c.35-.42.68-.84,1-1.26l.2.09a43.33,43.33,0,0,0,9.52,2.89c4.43.8,3.79.69,5.8.62.84,0,3.47,0,6.66,0,3.77,0,3.38.09,5.32,0a41.92,41.92,0,0,0,13.57-3,43.46,43.46,0,0,0,6.83-3.43l.11,0a43.92,43.92,0,0,0,6.9,3.47,41.92,41.92,0,0,0,13.57,3,38.81,38.81,0,0,0,11.31-1.29L338.7,286.54a88.47,88.47,0,0,0,4.84-18C345.41,256.74,344.38,247.83,343.54,240.58Z" transform="translate(-4.87 -147.87)"/><path class="cls-10" d="M382.11,265.89a43.31,43.31,0,0,0,7.67-5.57,4.62,4.62,0,0,0,1.28-2.31,6,6,0,0,1,1.05-2.08c.59-.69,1.16-1.49,1.89-2.39.95-1.17,1.43-1.33,2.32-1.41a24.16,24.16,0,0,0,2.44-.45l8.18-.51,4.42,4.25a1.45,1.45,0,0,1,.15,2.28,1.53,1.53,0,0,1-1,.13c.52.38.16,1.72-.32,2a1.72,1.72,0,0,1-1.18.2c.53.54.07,1.9-.41,2.13a2.17,2.17,0,0,1-1.3.08,1.38,1.38,0,0,1-.78,1.86,4,4,0,0,1-1.48-.21l-9.62,3.49c-.83,0-1.57.76-2.64,1.85Z" transform="translate(-4.87 -147.87)"/><path class="cls-11" d="M407.5,261.56a5.76,5.76,0,0,0,.14-.8" transform="translate(-4.87 -147.87)"/><path class="cls-11" d="M407.91,259.14a2.42,2.42,0,0,0,.14-.84" transform="translate(-4.87 -147.87)"/><path class="cls-11" d="M408.09,256.56a2.4,2.4,0,0,0,.17-1.05" transform="translate(-4.87 -147.87)"/><path class="cls-11" d="M410.55,257.83a39,39,0,0,1-7.11-1.34" transform="translate(-4.87 -147.87)"/><path class="cls-11" d="M409.05,260a38,38,0,0,1-5.45-1" transform="translate(-4.87 -147.87)"/><path class="cls-11" d="M407.34,262.24c-.94-.11-2.49-.54-3.47-.76" transform="translate(-4.87 -147.87)"/><path class="cls-10" d="M435.25,224.8c-8,3.5-14.75,10.59-20.8,16.77h0A43.35,43.35,0,0,1,407,247.4a4,4,0,0,1-2.47.52,5.35,5.35,0,0,0-2.21.36c-.81.36-1.71.67-2.75,1.1a2.93,2.93,0,0,0-2,1.86c-.36.84-.9,1.74-1.2,2.29a2.37,2.37,0,0,0-.36,1.85,17.79,17.79,0,0,0-.36,2.14c.51.63,1.62.51,2.22-.47.81-1.32.79-2.29.42-2.56a.69.69,0,0,0,.73-.14A3,3,0,0,0,400,252.7a16.34,16.34,0,0,1,5.31,1.31c1.34.72,5.19,1,6,1.41.3-.82,1.2-1.32,2.53-2A204.33,204.33,0,0,0,439.5,238a9.19,9.19,0,0,0,3.63-2.83c8.57-4.36,14.88-6.88,20.82-14l-11.61-12.47C445.43,212.36,436.58,219.85,435.25,224.8Z" transform="translate(-4.87 -147.87)"/><path class="cls-12" d="M395.94,255.38a1.12,1.12,0,0,0,.43,0c.05,1.3-.43,2.28-.79,2.1a6.46,6.46,0,0,1,.36-2.14Z" transform="translate(-4.87 -147.87)"/><path class="cls-10" d="M403,263.45a2.4,2.4,0,0,0-.08,2.16,1.23,1.23,0,0,0,1.91-.17,4.94,4.94,0,0,0,.3-1.55c0-.9-1.76-1.43-2.13-.44Z" transform="translate(-4.87 -147.87)"/><path class="cls-10" d="M402.94,264.65c-.13-.94-1.63-1.5-2.17-.56a2.87,2.87,0,0,0-.44,2.5c.31.71,1.67.7,2,.29a2.6,2.6,0,0,0,.51-1.27,4.1,4.1,0,0,0,.07-1Z" transform="translate(-4.87 -147.87)"/><path class="cls-10" d="M400.49,265.15c-.06-.82-1.73-1.21-2.18-.34a3.46,3.46,0,0,0-.44,2.55c.17.65,1.49.73,1.9.34a2,2,0,0,0,.56-1.11,5.78,5.78,0,0,0,.16-1.44Z" transform="translate(-4.87 -147.87)"/><path class="cls-10" d="M398,266.3a1.13,1.13,0,0,0-2-.63,3.74,3.74,0,0,0-.52,1.71,1.29,1.29,0,0,0,2,.89,1.65,1.65,0,0,0,.43-.91,3.79,3.79,0,0,0,.12-1.06Z" transform="translate(-4.87 -147.87)"/><path class="cls-13" d="M378.44,284.55c7.06-6.17,12-11.93,16.39-16.19l-6.12-7.87c-8.53,6.17-26.5,15.73-36.46,22.82a153.87,153.87,0,0,0-18.48,13.28l-4.93,3.79a36.47,36.47,0,0,0,4.55,16.12c.22.39.45.77.68,1.13,8.54-1.93,18.06-9.2,25.61-16.59C364,297.66,375.72,286.93,378.44,284.55Z" transform="translate(-4.87 -147.87)"/><path class="cls-12" d="M403.38,264.13a1.08,1.08,0,0,0,1.08.15l0,.39a.8.8,0,0,1-1-.08Z" transform="translate(-4.87 -147.87)"/><path class="cls-12" d="M401.05,264.79a1.43,1.43,0,0,0,1.35.29l-.14.52a1.14,1.14,0,0,1-1.31-.26Z" transform="translate(-4.87 -147.87)"/><path class="cls-12" d="M398.56,265.48a1.12,1.12,0,0,0,1.36.28l-.14.6a1.18,1.18,0,0,1-1.32-.27Z" transform="translate(-4.87 -147.87)"/><path class="cls-12" d="M396.13,266.37a1.13,1.13,0,0,0,1.33.34l-.13.6a1,1,0,0,1-1.27-.44Z" transform="translate(-4.87 -147.87)"/><path class="cls-11" d="M405.4,254a6.9,6.9,0,0,0,1.71-1.74" transform="translate(-4.87 -147.87)"/><path class="cls-11" d="M407.44,249.22a6.21,6.21,0,0,1,1.16,2.29,5.27,5.27,0,0,1,1.27,1.19" transform="translate(-4.87 -147.87)"/><path class="cls-11" d="M411.29,255.32a2.6,2.6,0,0,0-.41-1.24" transform="translate(-4.87 -147.87)"/><path class="cls-11" d="M435.25,224.8a11.56,11.56,0,0,0-.45,3.13" transform="translate(-4.87 -147.87)"/><path class="cls-11" d="M386,268.19a1,1,0,0,0,.62,1.16.89.89,0,0,0,1.1-.66,1,1,0,0,0-.62-1.16.88.88,0,0,0-1.1.66Z" transform="translate(-4.87 -147.87)"/><path class="cls-11" d="M383,270.42a1,1,0,0,0,.62,1.17.9.9,0,0,0,1.1-.66,1,1,0,0,0-.62-1.17A.89.89,0,0,0,383,270.42Z" transform="translate(-4.87 -147.87)"/><path class="cls-11" d="M390.73,263.11C386,267,380.13,271.17,374,275.52" transform="translate(-4.87 -147.87)"/><path class="cls-11" d="M376.92,274.77a1,1,0,0,0,.62,1.16.89.89,0,0,0,1.1-.66,1,1,0,0,0-.63-1.16.88.88,0,0,0-1.09.66Z" transform="translate(-4.87 -147.87)"/><path class="cls-11" d="M380.07,272.53a1,1,0,0,0,.62,1.17.89.89,0,0,0,1.1-.66,1,1,0,0,0-.62-1.17A.9.9,0,0,0,380.07,272.53Z" transform="translate(-4.87 -147.87)"/><path class="cls-13" d="M392.7,270.48a1.56,1.56,0,0,0,2.1.16c.78-.69,1.2-3-1.64-6.74-2.49-3.3-4.73-5.13-6-4.27a1.78,1.78,0,0,0-.45,2.26c.5-.37.89-.61,1.35-.95,2.41,1.75,5.58,5.76,5.86,8.3Z" transform="translate(-4.87 -147.87)"/><path class="cls-13" d="M372.72,270.41c.84,3.45,5.95,10.91,7.92,12.17l1.32-1.2s.94,1.71,0,2.69-3.48.3-7.62-6.07c-2.46-3.79-4.41-8-2.7-9.17,1.29-.9,2.62.66,2.62.66Z" transform="translate(-4.87 -147.87)"/><path class="cls-11" d="M388.85,266a1,1,0,0,0,.62,1.17.9.9,0,0,0,1.1-.66,1,1,0,0,0-.62-1.17.9.9,0,0,0-1.1.66Z" transform="translate(-4.87 -147.87)"/><path class="cls-13" d="M348.35,285.8c4.61,4,9.79,12.75,10.83,15.72l-1.77,1.68s1.92,1.69,3.35.57.39-4.81-4.66-12.43c-3.31-5-7.22-8.68-9.19-7.46-1.07.67-.77,2.56-.61,3.29Z" transform="translate(-4.87 -147.87)"/><path class="cls-13" d="M346.79,298.9a2.7,2.7,0,0,1-2.68,1.85,34.14,34.14,0,0,1-6.31-7.49s1.28-1.83,2.56-1.94Z" transform="translate(-4.87 -147.87)"/><path class="cls-13" d="M343.08,289.38c1.24,1.21,4.25,5.27,6,7.25-.19,1.88-2,2.46-2.27,2.27a42.48,42.48,0,0,1-6.43-7.58,5.4,5.4,0,0,1,2.72-1.94Z" transform="translate(-4.87 -147.87)"/><path class="cls-13" d="M351.45,294.47a2.86,2.86,0,0,1-2.39,2.16,45.85,45.85,0,0,1-6-7.25s1.6-1.88,2.88-2Z" transform="translate(-4.87 -147.87)"/><path class="cls-13" d="M348.35,285.8a25.31,25.31,0,0,1,5.75,6.75c-.36,1.58-2.65,1.92-2.65,1.92A75.46,75.46,0,0,1,346,287.4a5.07,5.07,0,0,1,2.39-1.6Z" transform="translate(-4.87 -147.87)"/><path class="cls-11" d="M352.05,293.41a.74.74,0,0,0,.73-.75.72.72,0,1,0-1.44,0,.74.74,0,0,0,.71.76Z" transform="translate(-4.87 -147.87)"/><path class="cls-11" d="M349.46,295.47a.76.76,0,1,0-.71-.76.74.74,0,0,0,.71.76Z" transform="translate(-4.87 -147.87)"/><path class="cls-11" d="M347,297.65a.75.75,0,0,0,.73-.76.72.72,0,1,0-1.44,0,.75.75,0,0,0,.71.77Z" transform="translate(-4.87 -147.87)"/><path class="cls-14" d="M338.7,286.54l91.15-68.13a38.81,38.81,0,0,1-11.31,1.29,41.92,41.92,0,0,1-13.57-3,43.92,43.92,0,0,1-6.9-3.47l-.11,0a43.46,43.46,0,0,1-6.83,3.43,41.92,41.92,0,0,1-13.57,3c-1.94.07-1.55,0-5.32,0-3.19,0-5.82,0-6.66,0-2,.07-1.37.18-5.8-.62a43.33,43.33,0,0,1-9.52-2.89l-.2-.09c-.32.42-.65.84-1,1.26a36.83,36.83,0,0,1-4.07,4.18q-.76.67-1.53,1.26a35.79,35.79,0,0,1-3.89,2.64c.13.25.25.51.38.77s.27.57.4.86c1.27,2.87,2.35,6.31,3.19,13.53s1.87,16.16,0,28A88.47,88.47,0,0,1,338.7,286.54Z" transform="translate(-4.87 -147.87)"/><text class="cls-15" transform="translate(350.56 80.6) scale(0.94 1)">U<tspan class="cls-16" x="10.23" y="0">.</tspan><tspan class="cls-17" x="16.19" y="0">D</tspan><tspan class="cls-18" x="26.47" y="0">.</tspan></text><text class="cls-19" transform="translate(342.25 91.07) scale(0.94 1)">GÜIMAR</text><path class="cls-20" d="M360.43,244.63l-3.77-1.75a10.67,10.67,0,0,0-5,4.15l.53,4.09,4.27,1,3.88-3Z" transform="translate(-4.87 -147.87)"/><path class="cls-20" d="M360.34,249.17l3.86,3,3.79-1.29.34-5a10.79,10.79,0,0,0-3.81-2.85l-4.09,1.61Z" transform="translate(-4.87 -147.87)"/><path class="cls-20" d="M349.82,254.54a11.55,11.55,0,0,0,1.4,4.6l3.81,1.31,2.9-3.48-.73-2.42-.74-2.41-4.27-1Z" transform="translate(-4.87 -147.87)"/><path class="cls-20" d="M365.29,260.6l-2.09,3.76a10.08,10.08,0,0,1-6.34-.26L355,260.45l2.9-3.48h4.79Z" transform="translate(-4.87 -147.87)"/><path class="cls-20" d="M362.72,257l1.48-4.82,3.79-1.29,3,3.83a11.84,11.84,0,0,1-1.52,4.68l-4.21,1.23Z" transform="translate(-4.87 -147.87)"/><path class="cls-21" d="M349.82,254.54l2.37-3.42-.53-4.09A11.7,11.7,0,0,0,349.82,254.54Z" transform="translate(-4.87 -147.87)"/><path class="cls-21" d="M360.43,244.63l4.09-1.61a10.06,10.06,0,0,0-7.37-.32,4.09,4.09,0,0,0-.49.18Z" transform="translate(-4.87 -147.87)"/><polygon class="cls-21" points="351.59 104.27 352.33 106.68 353.06 109.09 357.85 109.1 359.33 104.28 355.47 101.29 351.59 104.27"/><path class="cls-21" d="M351.22,259.14l3.81,1.31,1.83,3.65A10.8,10.8,0,0,1,351.22,259.14Z" transform="translate(-4.87 -147.87)"/><path class="cls-21" d="M365.29,260.6l4.21-1.23a10.75,10.75,0,0,1-5.8,4.83l-.5.16Z" transform="translate(-4.87 -147.87)"/><path class="cls-21" d="M368,250.86l3,3.83a12.14,12.14,0,0,0-.45-4.72,11.48,11.48,0,0,0-2.24-4.1Z" transform="translate(-4.87 -147.87)"/><path class="cls-21" d="M360.43,242.15A10.74,10.74,0,0,1,370.57,250c1.8,5.94-1.27,12.31-6.87,14.23a10.17,10.17,0,0,1-3.28.55,10.74,10.74,0,0,1-10.14-7.83c-1.81-5.94,1.27-12.3,6.87-14.22a9.91,9.91,0,0,1,3.28-.55m0-.6a10.9,10.9,0,0,0-3.48.58c-5.89,2-9.14,8.73-7.24,15a11.31,11.31,0,0,0,10.71,8.25,10.84,10.84,0,0,0,3.47-.58c5.9-2,9.15-8.74,7.25-15a11.31,11.31,0,0,0-10.71-8.25Z" transform="translate(-4.87 -147.87)"/><path class="cls-22" d="M465.32,282.69c-1.45-7-2.23-7.69-4.35-17.21-1.44-6.45-1.9-9.82-1.74-13.84a36.7,36.7,0,0,1,1.16-8,32.3,32.3,0,0,1,4.93-10.45,29.18,29.18,0,0,1,2-2.52v-5.81l-17.46-18.75c-2,.64-4.07,1.29-6.17,1.93q-3.5,1.06-7.11,2.1a46.58,46.58,0,0,1-15.37,2.15,47.34,47.34,0,0,1-15.36-3.38,50.54,50.54,0,0,1-7.83-3.95,50.54,50.54,0,0,1-7.83,3.95,47.33,47.33,0,0,1-15.37,3.38,46.47,46.47,0,0,1-15.36-2.15c-4.57-1.3-9-2.67-13.28-4l-17.46,18.75v5.81a31.21,31.21,0,0,1,2,2.52,32.3,32.3,0,0,1,4.93,10.45,36.7,36.7,0,0,1,1.16,8c.16,4-.3,7.39-1.74,13.84-2.12,9.52-2.9,10.25-4.35,17.21a90.94,90.94,0,0,0-1.92,11.2c-.08,1.05-.12,2.11-.11,3.25,0,3.75.17,11.54,4.64,19.36a31.21,31.21,0,0,0,5.49,7c.8.79,1.59,1.5,2.34,2.19a51.14,51.14,0,0,0,18.27,10.45c6.65,2.33,12.85,3.17,18.84,4,5.59.77,7,.6,10.15,1.54a31,31,0,0,1,9.57,4.85,31,31,0,0,1,9.57-4.85c3.16-.94,4.56-.77,10.15-1.54,6-.82,12.19-1.66,18.84-4a51.14,51.14,0,0,0,18.27-10.45,35.46,35.46,0,0,0,7.83-9.23c4.47-7.82,4.61-15.61,4.64-19.36C467.38,292.58,466.69,289.29,465.32,282.69Z" transform="translate(-4.87 -147.87)"/><path class="cls-6" d="M66.37,374.05c-4.85-24.45-15.29-41.79-20.45-50.19-4.66-7.59-9-13.12-17.66-24.17-7.44-9.49-14.28-17.54-20-24,22.57-2,53.57-8.67,81.33-29,17.47-12.79,31.16-29.17,36.25-35.32a266.7,266.7,0,0,0,27.89-41.83c3.57-6.58,6.55-12.73,9.06-18.28a146.25,146.25,0,0,0,38.34,14.56c11.21,2.52,33.66,7.58,59.49.93,11.53-3,24.17-8.37,37.18-13.94V375.37H66.62C66.54,374.93,66.46,374.5,66.37,374.05Z" transform="translate(-4.87 -147.87)"/><path class="cls-23" d="M192.87,274.07v69.09h0c3.16-1.3,7.54-3.21,12.62-5.82A120.14,120.14,0,0,0,226,324.69c7-5.48,11-8.61,14.59-14.6a40.46,40.46,0,0,0,5.84-17.52c.1-1.22,0-1.32,0-7.79,0-3.94.19-7.79.43-10.71Z" transform="translate(-4.87 -147.87)"/><path class="cls-2" d="M241.54,306.19a34.81,34.81,0,0,0-7.79-6.81c-3.53-2.36-6-3.41-5.84-3.89.12-.3,1.18-.21,2,0a6.1,6.1,0,0,1,2.92,1.94c1.23,1.44,1.66,1,7.78,4.87,1.08.68,2.07,1.33,3,1.93l.33-.81a153,153,0,0,0-16.92-11.83,20.2,20.2,0,0,0-1.95-1,12.37,12.37,0,0,0-2.92-1c-1.65-.26-3,.23-4.86,1a23.84,23.84,0,0,0-3.9,1.95c-6.57,4.05-5.63,3.12-9.73,5.84a66.52,66.52,0,0,0-6.81,4.86,49.87,49.87,0,0,0-3.9,3.67v6.31a11.13,11.13,0,0,0,2.92-3.16c1.74-2.9,1.78-6.22,3.9-6.82.85-.24,2.06,0,2.92-1,.4-.44.56-.95,1-1s.87.47,1,1-.33,1.19-1,1.95c-2.54,3-2.8,3.28-2.92,3.89a2.94,2.94,0,0,0,1,2.92,3.15,3.15,0,0,0,2.92,0c.71-.29,1.87-1,1.95-1.95v-1.94c0-.93.87-1.35,1.95-2.92a4.34,4.34,0,0,0,1-1.95c.07-.81-.28-1.21,0-1.95,0,0,.38-1,1-1s1,.93,1,1c.28.75-.22,1.11,0,1.95s.65,1,1,1.95a5.06,5.06,0,0,1,0,2.92,4.72,4.72,0,0,1-1,1.94c-1.14,1.3-2.19.8-2.92,1.95-.54.84-.35,1.7-1,1.95-.41.16-.62-.16-1,0-.73.33-.13,1.88-1,2.92-.72.88-2,.77-1.95,1s1.57.63,2.92,0,2-2,2.92-3.89a11.63,11.63,0,0,1,1-1.95c.17-.23,1.66-2.31,2.92-1.95a1.56,1.56,0,0,1,1,1,1.27,1.27,0,0,1,0,1c-.39.68-1.57.31-1.95,1-.12.22-.08.47,0,1,0,.08.32,1.88,1,1.94.12,0,.37,0,1-1,1.25-2,.89-2.94,1.94-3.89.5-.45,1-.6,1-1s-.49-.49-1-1c-.28-.28-.46-.56-1-1.95a20.86,20.86,0,0,1-1-2.92c-.2-.9-.58-2.59,0-2.92.32-.18.72.21,1,0s-.42-1.52,0-1.94a.86.86,0,0,1,1,0c.69.41.28,1.51,1,1.94a.83.83,0,0,0,1,0c.13-.15,0-.34,0-1a2.93,2.93,0,0,1,0-1,1.89,1.89,0,0,1,1.95-1c1.26.16,1.84,1.68,1.94,1.95a4.93,4.93,0,0,1,0,2.92,21.62,21.62,0,0,1-1,2.92c-.36,1.23,0,1.21,0,5.84,0,2.49,0,3.73,0,3.89-.13.67-.4,1.69,0,1.95.17.11.3,0,1,0s.82.14,1,0,0-.82,0-1c-.69-2.17,0-4.55,0-6.82,0-1,.09-1.95,0-2.92-.14-1.46-.47-2.64,0-2.92.11-.07.16,0,1,0a8.29,8.29,0,0,1,1,0c.73.19.79,1.91,1,2.92.23,1.27.69,1.64,3.89,5.84,0,0,1.4,1.84,2.92,3.9.52.7,1,1.35,1.42,2l.81-.78c-.4-.7-.82-1.43-1.26-2.16-1.14-1.88-1.78-2.69-2.92-4.86-1.25-2.38-1.07-2.51-1.94-3.9s-1.27-1.55-3.9-4.86c-1.57-2-2.29-3-1.94-3.9a2,2,0,0,1,1-1,3.54,3.54,0,0,1,2.92,0c3.62,1.22,9,6.2,10.7,7.79,1.39,1.27,3,2.72,4.14,3.71.14-.28.3-.57.46-.89Z" transform="translate(-4.87 -147.87)"/><path class="cls-23" d="M138.91,274.07c.24,2.92.46,6.77.43,10.71,0,6.47-.1,6.57,0,7.79a40.74,40.74,0,0,0,5.84,17.52c3.61,6,7.61,9.12,14.6,14.6a119.75,119.75,0,0,0,20.44,12.65c5.07,2.61,9.45,4.52,12.61,5.82h0V274.07Z" transform="translate(-4.87 -147.87)"/><path class="cls-2" d="M139.33,285.75h53.54v-5.84H139.26c.06,1.57.09,3.21.08,4.87C139.34,285.13,139.34,285.44,139.33,285.75Z" transform="translate(-4.87 -147.87)"/><path class="cls-2" d="M139.34,292.57a37.27,37.27,0,0,0,.73,4.86h52.8v-5.84H139.29C139.3,292,139.31,292.21,139.34,292.57Z" transform="translate(-4.87 -147.87)"/><path class="cls-2" d="M144.61,309.11h48.26v-5.84h-51A42.1,42.1,0,0,0,144.61,309.11Z" transform="translate(-4.87 -147.87)"/><path class="cls-2" d="M154.88,320.79h38V315H148.7A49.93,49.93,0,0,0,154.88,320.79Z" transform="translate(-4.87 -147.87)"/><path class="cls-2" d="M162.35,326.63a104.09,104.09,0,0,0,8.9,5.84h21.62v-5.84Z" transform="translate(-4.87 -147.87)"/><path class="cls-23" d="M245.43,233.19a50.08,50.08,0,0,1-8.76-8.59c-.72-.86-2.75-4.63-5.81-10.27-.88-1.62-1.61-3.13-2.23-4.5a62.23,62.23,0,0,1-12.4,4.87c-2.75.62-8.21.57-14.56-1.06a65.39,65.39,0,0,1-8.8-3.28,65.39,65.39,0,0,1-8.8,3.28c-6.34,1.63-11.8,1.68-14.56,1.06a61.89,61.89,0,0,1-12.39-4.87c-.62,1.37-1.35,2.88-2.23,4.5-3.07,5.64-5.1,9.41-5.82,10.27a49.71,49.71,0,0,1-8.76,8.59c-6.82,5-11,8.27-16.54,8.76,11.56,13.63,13.62,22.39,14.6,27.26.11.58.34,2.38.54,4.86H246.83c.21-2.48.43-4.28.55-4.86,1-4.87,3-13.63,14.6-27.26C256.43,241.46,252.25,238.19,245.43,233.19Z" transform="translate(-4.87 -147.87)"/><path class="cls-24" d="M241.54,256.55c-1.11-4.74,0-6.25-1.95-13.62-.79-3-.55-1.16-2.92-7.79a6.33,6.33,0,0,0-1.95-2.92,3.69,3.69,0,0,0-2.92-1c-1.06.27-1.59,1.34-1.94,1.94a9.93,9.93,0,0,1-1,1.35v-.37h-2.52a13.18,13.18,0,0,0,.57-1.95c.34-1.64.58-2.8,0-3.89a3.77,3.77,0,0,0-1.95-1.65,3.75,3.75,0,0,0-1.94,1.65c-.59,1.09-.35,2.25,0,3.89a13.25,13.25,0,0,0,.56,1.95H221.1v.37a8.45,8.45,0,0,1-1-1.35c-.36-.6-.89-1.67-1.95-1.94a3.7,3.7,0,0,0-2.92,1,6.33,6.33,0,0,0-1.95,2.92c-2.37,6.63-2.13,4.76-2.92,7.79-1.92,7.37-.84,8.88-1.94,13.62a9.26,9.26,0,0,0,0,3.9c.17.84.37,1.73,1,1.94.85.3,2-.95,2.92-1.94,1.15-1.26,1.15-1.69,2.92-3.9a9.91,9.91,0,0,1,2-1.94,3.61,3.61,0,0,1,1.94-1,2.68,2.68,0,0,1,1.95,1.31v19.13h7.79V254.94a2.66,2.66,0,0,1,1.94-1.31,3.63,3.63,0,0,1,1.95,1,10.11,10.11,0,0,1,1.94,1.94c1.77,2.21,1.77,2.64,2.92,3.9.92,1,2.08,2.24,2.92,1.94.6-.21.8-1.1,1-1.94A9.65,9.65,0,0,0,241.54,256.55Z" transform="translate(-4.87 -147.87)"/><path class="cls-25" d="M226.94,219.57a2.55,2.55,0,0,0-3.89,0,1.64,1.64,0,0,0-.23,1h4.34A1.71,1.71,0,0,0,226.94,219.57Z" transform="translate(-4.87 -147.87)"/><polygon class="cls-24" points="222.29 72.67 217.96 72.67 217.2 72.67 217.2 77.53 223.04 77.53 223.04 72.67 222.29 72.67"/><text class="cls-26" transform="translate(148.32 118.9) rotate(-35)">C.D.</text><circle class="cls-27" cx="187.68" cy="125.55" r="15.89"/><path class="cls-28" d="M192.55,289.31a15.89,15.89,0,1,0-15.89-15.89A15.91,15.91,0,0,0,192.55,289.31Zm-5.15-1.25a15.64,15.64,0,0,1-7.07-5.08l1.91-1.61,4,1.14,2.41,3.43Zm-7.57-14.12,2.68-3.6,3.27,1.16,2.71,7.48-2.2,3.15L182.21,281ZM189,285.69l-2.35-3.34,2.2-3.15h7.43l2.65,2.65-2.51,3.72Zm8.82,2.35-1-2.4,2.45-3.64,4-1.23,1.73,1.94A15.58,15.58,0,0,1,197.77,288Zm7.45-23.57a15.48,15.48,0,0,1,2.84,8.37l-2.4.2-2.55-3L203,265.5Zm.15,8.82-2.12,7.09-4.07,1.25L196.49,279l2.53-7.3,3.84-1.31Zm-2.64-3.3-3.84,1.32-6-4.71,0-3.88,3.55-1.37,6.14,4.15ZM192.55,257.9a15.18,15.18,0,0,1,4.18.58l-.56,2.58-3.47,1.34-4.08-1.28-.17-2.67A15.43,15.43,0,0,1,192.55,257.9Zm-4.18,3.53,4.15,1.3,0,3.85L186,271.17,182.62,270l-.18-4.35Zm-6.3,4.37.19,4.26-2.72,3.66-2.5-.58a15.39,15.39,0,0,1,2.89-8.74Z" transform="translate(-4.87 -147.87)"/><circle class="cls-24" cx="188" cy="125.55" r="7.92"/><polygon class="cls-28" points="191.62 131.08 194.31 133.76 198.38 132.51 200.51 125.41 198 122.47 194.16 123.78 191.62 131.08"/><polygon class="cls-28" points="197.86 122.12 197.71 117.63 191.57 113.48 188.02 114.85 188 118.72 194.02 123.43 197.86 122.12"/><polygon class="cls-28" points="183.93 131.32 181.73 134.47 184.08 137.82 191.5 137.71 194.01 133.99 191.36 131.34 183.93 131.32"/><polygon class="cls-28" points="180.91 123.63 177.64 122.46 174.96 126.07 177.34 133.1 181.43 134.26 183.62 131.11 180.91 123.63"/><polygon class="cls-28" points="181.1 123.3 187.62 118.7 187.65 114.86 183.5 113.56 177.57 117.76 177.75 122.11 181.1 123.3"/><path class="cls-24" d="M205.66,273l2.4-.2a15.48,15.48,0,0,0-2.84-8.37l-2.26,1,.15,4.55Z" transform="translate(-4.87 -147.87)"/><path class="cls-24" d="M199.24,282l-2.45,3.64,1,2.4a15.58,15.58,0,0,0,7.21-5.33l-1.73-1.94Z" transform="translate(-4.87 -147.87)"/><path class="cls-24" d="M182.24,281.37,180.33,283a15.64,15.64,0,0,0,7.07,5.08l1.27-2.12-2.41-3.43Z" transform="translate(-4.87 -147.87)"/><path class="cls-24" d="M192.7,262.4l3.47-1.34.56-2.58a15.18,15.18,0,0,0-4.18-.58,15.43,15.43,0,0,0-4.1.55l.17,2.67Z" transform="translate(-4.87 -147.87)"/><path class="cls-24" d="M179.54,273.72l2.72-3.66-.19-4.26-2.14-1.4a15.39,15.39,0,0,0-2.89,8.74Z" transform="translate(-4.87 -147.87)"/><path class="cls-6" d="M526.11,408.44c.43-15.13.66-23,2.54-33.07h-462c1.89,10.06,2.12,17.94,2.54,33.07.48,17.21-.52,25.67-.93,39-.09,3-.26,8.57-.24,15.49h459.3c0-6.92-.15-12.48-.25-15.49C526.64,434.11,525.63,425.65,526.11,408.44Z" transform="translate(-4.87 -147.87)"/><text class="cls-29" transform="translate(93.46 288.65)">A<tspan class="cls-30" x="28.36" y="0">TLÉTICO UNIÓN</tspan></text></svg>