<svg id="Capa_1" data-name="Capa 1" xmlns="http://www.w3.org/2000/svg" xmlns:xlink="http://www.w3.org/1999/xlink" viewBox="0 0 499.22 499.22"><defs><style>.cls-1,.cls-44{fill:#fff;}.cls-2{fill:#27347f;}.cls-15,.cls-2,.cls-3,.cls-31,.cls-43,.cls-44,.cls-5,.cls-6,.cls-9{fill-rule:evenodd;}.cls-3{fill:#28306c;}.cls-10,.cls-4{fill:none;}.cls-5{fill:#272f6a;}.cls-6{fill:#1c1a19;}.cls-7{fill:url(#Degradado_sin_nombre_29);}.cls-8{fill:url(#Degradado_sin_nombre_29-2);}.cls-9{fill:#91bae5;}.cls-10,.cls-35{stroke:#1c1a19;}.cls-10{stroke-width:0.62px;}.cls-11{fill:url(#Degradado_sin_nombre_29-3);}.cls-12{fill:url(#Degradado_sin_nombre_29-4);}.cls-13{fill:url(#Degradado_sin_nombre_29-5);}.cls-14{fill:url(#Degradado_sin_nombre_29-6);}.cls-15{fill:#282e6a;}.cls-16{fill:url(#Degradado_sin_nombre_29-7);}.cls-17{fill:url(#Degradado_sin_nombre_29-8);}.cls-18{fill:url(#Degradado_sin_nombre_29-9);}.cls-19{fill:url(#Degradado_sin_nombre_29-10);}.cls-20{fill:url(#Degradado_sin_nombre_29-11);}.cls-21{fill:url(#Degradado_sin_nombre_31);}.cls-22{fill:url(#Degradado_sin_nombre_31-2);}.cls-23{fill:url(#Degradado_sin_nombre_31-3);}.cls-24{fill:url(#Degradado_sin_nombre_31-4);}.cls-25{fill:url(#Degradado_sin_nombre_31-5);}.cls-26{fill:url(#Degradado_sin_nombre_31-6);}.cls-27{fill:url(#Degradado_sin_nombre_31-7);}.cls-28{fill:url(#Degradado_sin_nombre_31-8);}.cls-29{fill:url(#Degradado_sin_nombre_21);}.cls-30{fill:url(#Degradado_sin_nombre_21-2);}.cls-31{fill:#282f6c;}.cls-32{fill:url(#Degradado_sin_nombre_31-9);}.cls-33{fill:url(#Degradado_sin_nombre_23);}.cls-34{fill:url(#Degradado_sin_nombre_25);}.cls-35{stroke-width:0.49px;fill:url(#Degradado_sin_nombre_25-2);}.cls-36{fill:url(#Degradado_sin_nombre_26);}.cls-37{fill:url(#Degradado_sin_nombre_29-12);}.cls-38{fill:url(#Degradado_sin_nombre_29-13);}.cls-39{fill:url(#Degradado_sin_nombre_29-14);}.cls-40{fill:url(#Degradado_sin_nombre_30);}.cls-41{fill:url(#Degradado_sin_nombre_31-10);}.cls-42{fill:url(#Degradado_sin_nombre_32);}.cls-43{fill:#b4954d;}</style><linearGradient id="Degradado_sin_nombre_29" x1="206.42" y1="170.7" x2="206.42" y2="152.95" gradientTransform="matrix(1.04, 0, 0, -0.96, 19.64, 346.89)" gradientUnits="userSpaceOnUse"><stop offset="0" stop-color="#e8e8cd"/><stop offset="0.12" stop-color="#fff"/><stop offset="0.12" stop-color="#d6d7d7"/><stop offset="1" stop-color="#fff"/><stop offset="1" stop-color="#010101"/></linearGradient><linearGradient id="Degradado_sin_nombre_29-2" x1="91.53" y1="131.12" x2="91.53" y2="113.99" gradientTransform="matrix(1.17, 0, 0, -0.85, 124.07, 286.94)" xlink:href="#Degradado_sin_nombre_29"/><linearGradient id="Degradado_sin_nombre_29-3" x1="-56.39" y1="84.71" x2="-56.39" y2="69.21" gradientTransform="matrix(1.43, 0, 0, -0.7, 330.92, 201.01)" xlink:href="#Degradado_sin_nombre_29"/><linearGradient id="Degradado_sin_nombre_29-4" x1="-156.81" y1="-0.28" x2="-156.81" y2="-13.97" gradientTransform="matrix(1.65, 0, 0, -0.61, 499.53, 151.27)" xlink:href="#Degradado_sin_nombre_29"/><linearGradient id="Degradado_sin_nombre_29-5" x1="-121.67" y1="19.57" x2="-121.67" y2="5.46" gradientTransform="matrix(1.55, 0, 0, -0.64, 423.94, 171.87)" xlink:href="#Degradado_sin_nombre_29"/><linearGradient id="Degradado_sin_nombre_29-6" x1="-51.93" y1="59.51" x2="-51.93" y2="44.29" gradientTransform="matrix(1.4, 0, 0, -0.71, 305.21, 209.93)" xlink:href="#Degradado_sin_nombre_29"/><linearGradient id="Degradado_sin_nombre_29-7" x1="263.08" y1="182.07" x2="263.08" y2="163.03" gradientTransform="matrix(0.99, 0, 0, -1.01, -20.81, 374.46)" xlink:href="#Degradado_sin_nombre_29"/><linearGradient id="Degradado_sin_nombre_29-8" x1="252.47" y1="169.46" x2="252.47" y2="151.83" gradientTransform="matrix(1, 0, 0, -1, -7.55, 365.11)" xlink:href="#Degradado_sin_nombre_29"/><linearGradient id="Degradado_sin_nombre_29-9" x1="264.47" y1="165.43" x2="264.47" y2="147.19" gradientTransform="matrix(1, 0, 0, -1, -12.16, 368.33)" xlink:href="#Degradado_sin_nombre_29"/><linearGradient id="Degradado_sin_nombre_29-10" x1="269.56" y1="158.28" x2="269.56" y2="139.89" gradientTransform="matrix(1, 0, 0, -1, -11.38, 367.78)" xlink:href="#Degradado_sin_nombre_29"/><linearGradient id="Degradado_sin_nombre_29-11" x1="37.07" y1="32.85" x2="37.07" y2="15.72" gradientTransform="matrix(1.29, 0, 0, -0.78, 216.99, 244)" xlink:href="#Degradado_sin_nombre_29"/><linearGradient id="Degradado_sin_nombre_31" x1="7.82" y1="-180.35" x2="7.82" y2="-190.18" gradientTransform="matrix(1.36, 0, 0, -0.73, 274.28, 221.23)" gradientUnits="userSpaceOnUse"><stop offset="0" stop-color="#cfced2"/><stop offset="0.12" stop-color="#fff"/><stop offset="0.12" stop-color="#d6d7d7"/><stop offset="1" stop-color="#fff"/></linearGradient><linearGradient id="Degradado_sin_nombre_31-2" x1="-5.19" y1="-185.67" x2="-5.19" y2="-195.02" gradientTransform="matrix(1.39, 0, 0, -0.72, 293.42, 214.16)" xlink:href="#Degradado_sin_nombre_31"/><linearGradient id="Degradado_sin_nombre_31-3" x1="-72.29" y1="-246.35" x2="-72.29" y2="-255.29" gradientTransform="matrix(1.52, 0, 0, -0.66, 395.14, 180.4)" xlink:href="#Degradado_sin_nombre_31"/><linearGradient id="Degradado_sin_nombre_31-4" x1="45.48" y1="-124.98" x2="45.48" y2="-134.74" gradientTransform="matrix(1.3, 0, 0, -0.77, 225.12, 240.61)" xlink:href="#Degradado_sin_nombre_31"/><linearGradient id="Degradado_sin_nombre_31-5" x1="121.35" y1="-60.77" x2="121.35" y2="-71.35" gradientTransform="matrix(1.19, 0, 0, -0.84, 137.76, 280.08)" xlink:href="#Degradado_sin_nombre_31"/><linearGradient id="Degradado_sin_nombre_31-6" x1="180.62" y1="-15.22" x2="180.62" y2="-26.13" gradientTransform="matrix(1.11, 0, 0, -0.9, 77.46, 311.93)" xlink:href="#Degradado_sin_nombre_31"/><linearGradient id="Degradado_sin_nombre_31-7" x1="197.68" y1="2.23" x2="197.68" y2="-8.6" gradientTransform="matrix(1.09, 0, 0, -0.92, 59.24, 322.44)" xlink:href="#Degradado_sin_nombre_31"/><linearGradient id="Degradado_sin_nombre_31-8" x1="205.79" y1="14.27" x2="205.79" y2="3.23" gradientTransform="matrix(1.08, 0, 0, -0.93, 49.02, 328.53)" xlink:href="#Degradado_sin_nombre_31"/><linearGradient id="Degradado_sin_nombre_21" x1="173.89" y1="25.47" x2="189.75" y2="25.47" gradientTransform="matrix(1.05, 0, 0, -0.95, 28.49, 341.23)" gradientUnits="userSpaceOnUse"><stop offset="0" stop-color="#e8e8cd"/><stop offset="0.12" stop-color="#fff"/><stop offset="0.12" stop-color="#d6d7d7"/><stop offset="1" stop-color="#fff"/></linearGradient><linearGradient id="Degradado_sin_nombre_21-2" x1="107.43" y1="-18.06" x2="123.01" y2="-18.06" gradientTransform="matrix(1.12, 0, 0, -0.89, 87.17, 306.5)" xlink:href="#Degradado_sin_nombre_21"/><linearGradient id="Degradado_sin_nombre_31-9" x1="-1.58" y1="-195.46" x2="-1.58" y2="-203.27" gradientTransform="matrix(1.37, 0, 0, -0.73, 283.41, 217.83)" xlink:href="#Degradado_sin_nombre_31"/><linearGradient id="Degradado_sin_nombre_23" x1="167.92" y1="-61.99" x2="167.92" y2="-70.58" gradientTransform="matrix(1.12, 0, 0, -0.89, 86.8, 306.71)" gradientUnits="userSpaceOnUse"><stop offset="0" stop-color="#bbb"/><stop offset="0.12" stop-color="#fff"/><stop offset="0.12" stop-color="#d6d7d7"/></linearGradient><linearGradient id="Degradado_sin_nombre_25" x1="354.73" y1="38.01" x2="361.64" y2="38.01" gradientTransform="matrix(0.93, 0, 0, -1.07, -64.36, 407.55)" gradientUnits="userSpaceOnUse"><stop offset="0" stop-color="#c3bdca"/><stop offset="1" stop-color="#a79686"/></linearGradient><linearGradient id="Degradado_sin_nombre_25-2" x1="381.07" y1="51.5" x2="387.27" y2="51.5" gradientTransform="matrix(0.91, 0, 0, -1.1, -84.2, 423.97)" xlink:href="#Degradado_sin_nombre_25"/><linearGradient id="Degradado_sin_nombre_26" x1="50.31" y1="-60.4" x2="64.15" y2="-60.4" gradientTransform="matrix(1.2, 0, 0, -0.84, 144.67, 276.69)" gradientUnits="userSpaceOnUse"><stop offset="0" stop-color="#d5d5d4"/><stop offset="0.12" stop-color="#fff"/><stop offset="0.12" stop-color="#d6d7d7"/><stop offset="1" stop-color="#fff"/></linearGradient><linearGradient id="Degradado_sin_nombre_29-12" x1="-30.62" y1="-30.74" x2="-30.62" y2="-43.23" gradientTransform="matrix(1.41, 0, 0, -0.71, 314, 206.83)" xlink:href="#Degradado_sin_nombre_29"/><linearGradient id="Degradado_sin_nombre_29-13" x1="7.77" y1="-15.49" x2="7.77" y2="-29.45" gradientTransform="matrix(1.35, 0, 0, -0.74, 260.82, 226.36)" xlink:href="#Degradado_sin_nombre_29"/><linearGradient id="Degradado_sin_nombre_29-14" x1="137.5" y1="53.21" x2="137.5" y2="38.46" gradientTransform="matrix(1.16, 0, 0, -0.87, 111.51, 293.42)" xlink:href="#Degradado_sin_nombre_29"/><linearGradient id="Degradado_sin_nombre_30" x1="607.41" y1="215.6" x2="607.41" y2="205.63" gradientTransform="matrix(0.76, 0, 0, -1.31, -197.23, 538.29)" gradientUnits="userSpaceOnUse"><stop offset="0" stop-color="#a09165"/><stop offset="1" stop-color="#706f53"/></linearGradient><linearGradient id="Degradado_sin_nombre_31-10" x1="254.19" y1="46.06" x2="254.19" y2="35.56" gradientTransform="matrix(1.02, 0, 0, -0.98, 7.16, 355.11)" xlink:href="#Degradado_sin_nombre_31"/><linearGradient id="Degradado_sin_nombre_32" x1="670.8" y1="190.54" x2="676.92" y2="190.54" gradientTransform="matrix(0.73, 0, 0, -1.38, -225.4, 573.84)" gradientUnits="userSpaceOnUse"><stop offset="0" stop-color="#867a68"/><stop offset="1" stop-color="#867a68"/></linearGradient></defs><g id="Layer1000"><circle class="cls-1" cx="248.7" cy="249.39" r="239.98"/><g id="Layer1003"><path id="path24" class="cls-2" d="M392.71,180.1l2.92,5.91a7.82,7.82,0,0,0-3.6,3.91,7.31,7.31,0,0,0,.3,5.08,7.59,7.59,0,0,0,3,4.09,4,4,0,0,0,3.53.42,3,3,0,0,0,1.61-1.34,5.46,5.46,0,0,0,.47-2.75c0-.83-.21-2.67-.55-5.52-.45-3.67-.32-6.41.37-8.22a8.53,8.53,0,0,1,10-5.5,8.89,8.89,0,0,1,4.57,2.71,16.63,16.63,0,0,1,3.37,5.71q2.2,5.85.77,9.76a9.59,9.59,0,0,1-5.63,5.68l-2.6-6.24a5.6,5.6,0,0,0,2.76-3,6.79,6.79,0,0,0-.45-4.35,7.77,7.77,0,0,0-2.72-3.84,2.41,2.41,0,0,0-2.29-.27A2.49,2.49,0,0,0,407,184c-.37,1-.32,3.22.12,6.54a33.31,33.31,0,0,1,.35,7.6,9.24,9.24,0,0,1-1.82,4.61,9.77,9.77,0,0,1-14.89.53,19.08,19.08,0,0,1-3.68-6.36q-2.22-5.91-.74-10.08c1-2.79,3.11-5,6.36-6.72Z" transform="translate(-0.86 0.06)"/><path id="path26" class="cls-2" d="M381.4,151.46q-4.69,3-5.74,6.72a8.64,8.64,0,0,0,1.12,7.15,8.52,8.52,0,0,0,5.94,4.08c2.53.45,5.39-.34,8.61-2.37s5.1-4.2,5.76-6.61a8.59,8.59,0,0,0-1.22-7.13,8.68,8.68,0,0,0-5.95-4.19q-3.74-.66-8.52,2.35Zm-3.88-5.75a20.66,20.66,0,0,1,7.93-3.18,15,15,0,0,1,5.45.23,13.12,13.12,0,0,1,4.79,2.06,18.66,18.66,0,0,1,4.93,5.4c2.62,4.16,3.44,8.27,2.49,12.37s-3.71,7.56-8.22,10.4-8.76,3.79-12.85,2.91-7.44-3.4-10-7.54S368.51,160,369.47,156s3.63-7.48,8-10.27Z" transform="translate(-0.86 0.06)"/><path id="path28" class="cls-2" d="M341.73,134l22-24.16,4.82,4.4L364,139.63l14.77-16.18,4.61,4.2L361.28,151.8l-5-4.54,4.52-25-14.49,15.88Z" transform="translate(-0.86 0.06)"/><path id="path30" class="cls-2" d="M335.67,114l1.77-12.84-9.77,8.44Zm4.56,17.3-6.37-3.5,1.06-7.91-11.71-6.43-6,5.19L311,115.25,338,92.81l6.25,3.44Z" transform="translate(-0.86 0.06)"/><path id="path32" class="cls-2" d="M282.88,107.43l5.75-26.56L279,78.78l1.17-5.4L306,79l-1.17,5.4-9.6-2.07-5.74,26.56Z" transform="translate(-0.86 0.06)"/><path id="path34" class="cls-2" d="M244.14,92.81l6.58-.43A7.85,7.85,0,0,0,253,97.2a7.35,7.35,0,0,0,4.81,1.67,7.5,7.5,0,0,0,4.92-1.19,4,4,0,0,0,1.75-3.09,2.94,2.94,0,0,0-.63-2,5.36,5.36,0,0,0-2.36-1.49q-1.15-.45-5.31-1.6-5.34-1.5-7.45-3.5a8.54,8.54,0,0,1-1.25-11.34,9,9,0,0,1,4.26-3.18,16.87,16.87,0,0,1,6.57-.93q6.24.21,9.31,3A9.58,9.58,0,0,1,270.65,81H263.9a5.64,5.64,0,0,0-1.72-3.7A6.74,6.74,0,0,0,258,76a7.64,7.64,0,0,0-4.59,1,2.36,2.36,0,0,0-1.12,2,2.47,2.47,0,0,0,.93,2c.82.74,2.85,1.53,6.09,2.4a32.38,32.38,0,0,1,7.15,2.59A9.31,9.31,0,0,1,270,89.52a9.59,9.59,0,0,1,1.15,5.25,9.62,9.62,0,0,1-6.37,8.71,19.16,19.16,0,0,1-7.29,1q-6.31-.21-9.6-3.18t-3.77-8.45Z" transform="translate(-0.86 0.06)"/><path id="path36" class="cls-2" d="M233.38,104.63,231.5,72l6.73-.38,1.88,32.64Z" transform="translate(-0.86 0.06)"/><path id="path38" class="cls-2" d="M203.73,91.92l4.81-1.28a26.64,26.64,0,0,0,5.73-1.94,3.62,3.62,0,0,0,1.46-1.83,4.16,4.16,0,0,0,0-2.55A3.86,3.86,0,0,0,214.2,82a4,4,0,0,0-2.77-.58c-.55.06-2.14.45-4.77,1.15l-5.07,1.35Zm-1.66,20-8.43-31.6,13.69-3.65a24.67,24.67,0,0,1,7.73-1.15,7.59,7.59,0,0,1,4.55,2,9.24,9.24,0,0,1,2.74,4.6,8.67,8.67,0,0,1-.55,6.44,10.65,10.65,0,0,1-5.57,4.62,15.29,15.29,0,0,1,4.17,1.72,37.63,37.63,0,0,1,5,4.15l5.57,5.12-7.77,2.07-6.5-5.66a44.69,44.69,0,0,0-4.67-3.71,5.23,5.23,0,0,0-2.31-.79,11.44,11.44,0,0,0-3.38.52l-1.32.35,3.52,13.2Z" transform="translate(-0.86 0.06)"/><path id="path40" class="cls-2" d="M186,105.62l6.64-1.48a14.5,14.5,0,0,1-.42,9.44,15.87,15.87,0,0,1-18.13,8.08q-5.91-1.78-9.69-8.52-4-7.11-2.48-13.17a14.85,14.85,0,0,1,7.64-9.47,14,14,0,0,1,10.4-1.77,12.77,12.77,0,0,1,5.93,3.59l-5,4.61a7,7,0,0,0-4.11-2.29,7.16,7.16,0,0,0-4.7,1,7.64,7.64,0,0,0-4,5.22q-.73,3.41,2.13,8.5,3,5.4,6.31,6.58a7.46,7.46,0,0,0,6.44-.61,6.75,6.75,0,0,0,3.21-3.72,9.6,9.6,0,0,0-.16-5.95Z" transform="translate(-0.86 0.06)"/><path id="path42" class="cls-2" d="M132.33,147.3l4.48-4.83a7.8,7.8,0,0,0,4.94,2,7.39,7.39,0,0,0,4.64-2.1,7.55,7.55,0,0,0,2.75-4.25,4,4,0,0,0-.87-3.45,3,3,0,0,0-1.83-1,5.53,5.53,0,0,0-2.73.55q-1.16.48-5,2.49-4.91,2.59-7.81,2.59a8.47,8.47,0,0,1-6.67-2.9,8.38,8.38,0,0,1-2-4.46,9,9,0,0,1,.89-5.24,17,17,0,0,1,4.13-5.19q4.68-4.15,8.84-4.21a9.63,9.63,0,0,1,7.32,3.23l-4.89,4.66a5.6,5.6,0,0,0-3.79-1.5,6.78,6.78,0,0,0-3.9,2,7.66,7.66,0,0,0-2.61,3.91,2.38,2.38,0,0,0,.56,2.23,2.46,2.46,0,0,0,2.06.83q1.66-.06,6.07-2.45a32.54,32.54,0,0,1,7-3.05,9.37,9.37,0,0,1,5,0,9.64,9.64,0,0,1,4.45,3,9.62,9.62,0,0,1,1.37,10.71,19.08,19.08,0,0,1-4.62,5.71q-4.72,4.2-9.16,4.3t-8.55-3.54Z" transform="translate(-0.86 0.06)"/><path id="path44" class="cls-2" d="M110.49,169.36q4.58,3.16,8.43,2.65a8.61,8.61,0,0,0,6.14-3.83,8.52,8.52,0,0,0,1.43-7.07c-.58-2.5-2.43-4.82-5.56-7s-5.86-3-8.33-2.7a8.57,8.57,0,0,0-6.09,3.92,8.66,8.66,0,0,0-1.52,7.11Q105.86,166.14,110.49,169.36Zm-3.76,5.83a20.58,20.58,0,0,1-6-6A15.57,15.57,0,0,1,98.76,164a13.27,13.27,0,0,1,0-5.22,18.79,18.79,0,0,1,3-6.64c2.8-4.05,6.27-6.42,10.41-7.15s8.4.45,12.79,3.49,6.92,6.57,7.71,10.67-.21,8.18-3,12.2-6.29,6.47-10.4,7.18-8.31-.41-12.6-3.38Z" transform="translate(-0.86 0.06)"/><path id="path46" class="cls-2" d="M111.3,208.2,81.07,196.47l2.44-6.29,25.08,9.73,6-15.57,5.16,2Z" transform="translate(-0.86 0.06)"/><path id="path48" class="cls-2" d="M80.94,246.06H91.59v3H85.26v2.43h5.42v2.83H85.26V260H80.94Zm22,0h4.3v8.31a7.16,7.16,0,0,1-.38,2.33,5.09,5.09,0,0,1-1.21,1.92,4.88,4.88,0,0,1-1.73,1.16,8.9,8.9,0,0,1-3,.46,20,20,0,0,1-2.22-.14,5.81,5.81,0,0,1-2-.57,5,5,0,0,1-1.47-1.2,4.26,4.26,0,0,1-.92-1.61,8.14,8.14,0,0,1-.4-2.35v-8.31h4.3v8.51a2.43,2.43,0,0,0,.63,1.77,2.37,2.37,0,0,0,1.76.65,2.33,2.33,0,0,0,1.74-.64,2.39,2.39,0,0,0,.63-1.78Zm7.19,0h4l5.23,7.7v-7.7h4.07V260h-4.07l-5.2-7.66V260h-4Zm16.24,0h6.41a7.74,7.74,0,0,1,3.06.51,5.15,5.15,0,0,1,1.93,1.48,6.21,6.21,0,0,1,1.1,2.23,10.3,10.3,0,0,1,.34,2.7,9.37,9.37,0,0,1-.51,3.47,5.85,5.85,0,0,1-1.41,2.07,4.72,4.72,0,0,1-1.94,1.11,10.18,10.18,0,0,1-2.57.38h-6.41Zm4.31,3.15v7.62h1.06a4.51,4.51,0,0,0,1.93-.3,2.06,2.06,0,0,0,.89-1,6.47,6.47,0,0,0,.33-2.42,4.67,4.67,0,0,0-.73-3,3.08,3.08,0,0,0-2.4-.82Zm18.53,8.5h-4.88l-.7,2.3h-4.4l5.25-13.95h4.72L154.47,260H150Zm-.91-3-1.52-5-1.53,5Zm7.54-8.63h6.41a7.74,7.74,0,0,1,3.06.51,5,5,0,0,1,1.92,1.48,6.07,6.07,0,0,1,1.11,2.23,10.3,10.3,0,0,1,.34,2.7,9.37,9.37,0,0,1-.51,3.47,5.85,5.85,0,0,1-1.41,2.07,4.79,4.79,0,0,1-1.94,1.11,10.25,10.25,0,0,1-2.57.38h-6.41Zm4.31,3.15v7.62h1.06a4.43,4.43,0,0,0,1.92-.3,2.08,2.08,0,0,0,.9-1,6.51,6.51,0,0,0,.32-2.42,4.74,4.74,0,0,0-.72-3,3.1,3.1,0,0,0-2.41-.82ZM170.44,253a6.61,6.61,0,0,1,7.21-7.22,7.3,7.3,0,0,1,5.36,1.87,7.06,7.06,0,0,1,1.89,5.24,8.58,8.58,0,0,1-.83,4,5.81,5.81,0,0,1-2.38,2.43,7.84,7.84,0,0,1-3.88.87,8.92,8.92,0,0,1-3.9-.75,5.85,5.85,0,0,1-2.51-2.38,7.88,7.88,0,0,1-1-4.07Zm4.31,0a4.72,4.72,0,0,0,.78,3,2.69,2.69,0,0,0,2.14.92,2.66,2.66,0,0,0,2.16-.91,5.13,5.13,0,0,0,.76-3.24,4.28,4.28,0,0,0-.8-2.87,2.7,2.7,0,0,0-2.15-.91,2.64,2.64,0,0,0-2.1.92,4.65,4.65,0,0,0-.79,3.05Z" transform="translate(-0.86 0.06)"/><path id="path50" class="cls-2" d="M380,245.48v14.68h-3.91v-9.6a13,13,0,0,1-1.84,1.2,15.24,15.24,0,0,1-2.23.88v-3.27a9.24,9.24,0,0,0,3.07-1.59,6.45,6.45,0,0,0,1.71-2.3Zm4.38,11.45,3.86-.5a2.13,2.13,0,0,0,.51,1.17,1.24,1.24,0,0,0,.89.34,1.59,1.59,0,0,0,1.45-1,9.19,9.19,0,0,0,.58-3,4.78,4.78,0,0,1-1.43,1.09,3.94,3.94,0,0,1-1.7.34,4.15,4.15,0,0,1-3.16-1.38,4.9,4.9,0,0,1-1.29-3.48,5.32,5.32,0,0,1,.66-2.63,4.35,4.35,0,0,1,1.8-1.78,6.11,6.11,0,0,1,2.9-.61,6.63,6.63,0,0,1,3.35.74,5.14,5.14,0,0,1,2,2.37,10.08,10.08,0,0,1,.76,4.27c0,2.61-.53,4.51-1.59,5.73a5.54,5.54,0,0,1-4.4,1.81,7.18,7.18,0,0,1-2.63-.39,4.18,4.18,0,0,1-1.6-1.17,5.47,5.47,0,0,1-1-1.91Zm7.14-6.44a2.72,2.72,0,0,0-.57-1.84,1.75,1.75,0,0,0-1.39-.67,1.62,1.62,0,0,0-1.28.6,2.73,2.73,0,0,0-.51,1.81,2.87,2.87,0,0,0,.53,1.85,1.63,1.63,0,0,0,1.32.64,1.75,1.75,0,0,0,1.36-.62,2.62,2.62,0,0,0,.54-1.77Zm9.43-.59-3.66-.68a4.78,4.78,0,0,1,1.76-2.77,7.65,7.65,0,0,1,7.6.08,3.38,3.38,0,0,1,1.22,2.65,3,3,0,0,1-.5,1.69,4.12,4.12,0,0,1-1.48,1.33,4.36,4.36,0,0,1,1.23.48,3,3,0,0,1,1.08,1.17,3.59,3.59,0,0,1,.39,1.73,4.93,4.93,0,0,1-.64,2.42,4.31,4.31,0,0,1-1.83,1.78,6.92,6.92,0,0,1-3.15.62,7.87,7.87,0,0,1-3-.46,4.44,4.44,0,0,1-1.8-1.36,6.25,6.25,0,0,1-1.09-2.24l3.87-.53a3.22,3.22,0,0,0,.71,1.68,1.77,1.77,0,0,0,2.52-.12,2.32,2.32,0,0,0,.51-1.57,2.26,2.26,0,0,0-.49-1.56,1.73,1.73,0,0,0-1.35-.55,4.92,4.92,0,0,0-1.25.23l.2-2.86a3.83,3.83,0,0,0,.49.05,1.74,1.74,0,0,0,1.26-.5,1.65,1.65,0,0,0,.5-1.19,1.45,1.45,0,0,0-.38-1,1.37,1.37,0,0,0-1-.39,1.47,1.47,0,0,0-1.11.43,2.7,2.7,0,0,0-.58,1.49Zm13,0-3.66-.68a4.82,4.82,0,0,1,1.75-2.77,7.67,7.67,0,0,1,7.61.08,3.38,3.38,0,0,1,1.22,2.65,3,3,0,0,1-.5,1.69,4.2,4.2,0,0,1-1.48,1.33,4.36,4.36,0,0,1,1.23.48,3.11,3.11,0,0,1,1.08,1.17,3.59,3.59,0,0,1,.39,1.73,5,5,0,0,1-.64,2.42,4.42,4.42,0,0,1-1.83,1.78,6.92,6.92,0,0,1-3.15.62,7.87,7.87,0,0,1-3-.46,4.54,4.54,0,0,1-1.81-1.36,6.24,6.24,0,0,1-1.08-2.24l3.87-.53a3.22,3.22,0,0,0,.71,1.68,1.77,1.77,0,0,0,2.52-.12,2.32,2.32,0,0,0,.51-1.57,2.22,2.22,0,0,0-.5-1.56,1.71,1.71,0,0,0-1.35-.55,4.86,4.86,0,0,0-1.24.23l.2-2.86a3.83,3.83,0,0,0,.49.05,1.74,1.74,0,0,0,1.26-.5,1.65,1.65,0,0,0,.5-1.19,1.45,1.45,0,0,0-.38-1,1.38,1.38,0,0,0-1-.39,1.46,1.46,0,0,0-1.1.43,2.56,2.56,0,0,0-.58,1.49Z" transform="translate(-0.86 0.06)"/><path id="path52" class="cls-2" d="M302.13,112.52l11.16-30.74,6.34,2.3-11.16,30.75Z" transform="translate(-0.86 0.06)"/></g><g id="Layer1005"><path id="path56" class="cls-3" d="M263.06,156.35c.08,0-1.2,1.18.24,0l1.71.09a104.69,104.69,0,0,1,16.5,2.15c5,1.17,9.32,2.87,12.2,5.4a2.9,2.9,0,0,1,.79,1.19l.08.24a44.92,44.92,0,0,1,6.44.33,58.05,58.05,0,0,1,6.46,1.19,2.82,2.82,0,0,1,1.39.66,2.24,2.24,0,0,1,.62,1.18,18.23,18.23,0,0,1,.34,1.8,12.43,12.43,0,0,1,.08,1.85,10.16,10.16,0,0,1-.17,1.74,8.71,8.71,0,0,1-.48,1.73,1.59,1.59,0,0,1-.65.75,5.18,5.18,0,0,1-.7.36,24.69,24.69,0,0,1-6.46,1.66,49.19,49.19,0,0,1-6.78.35c-.26.7-1.21,1.14-1.75,1.39l-.05,0a57.86,57.86,0,0,1-8.55,3.22,56,56,0,0,1-10.18,1.88c-4.94.46-9.7.82-14.51,1s-9.66.17-14.75-.09c-1.73-.09-3.4-.16-5.08-.23a169.87,169.87,0,0,1-18.65-1.49l-1.42-.21c-3.51-.51-6.55-1-9.65-3.24a6.55,6.55,0,0,1-1.27-1.26,3,3,0,0,1-.44-.86,49.11,49.11,0,0,1-7-.35,24.28,24.28,0,0,1-6.47-1.66,3.8,3.8,0,0,1-.69-.36,1.67,1.67,0,0,1-.66-.75,8.81,8.81,0,0,1-.48-1.72,12.65,12.65,0,0,1-.17-1.75,11.25,11.25,0,0,1,.09-1.85,15.09,15.09,0,0,1,.33-1.79,2.24,2.24,0,0,1,.62-1.19,2.91,2.91,0,0,1,1.39-.66,63,63,0,0,1,6.46-1.19,45,45,0,0,1,6.65-.32,2.9,2.9,0,0,1,.39-.71,3.62,3.62,0,0,1,1.24-1.08,51.44,51.44,0,0,1,10-4A59.77,59.77,0,0,1,230,158c-.11,0,1.5,1.08,1.39,1.09l-1.26.13A58.34,58.34,0,0,0,220.4,161a51.18,51.18,0,0,0-9.77,3.9,2.46,2.46,0,0,0-.81.71,1.27,1.27,0,0,0-.29.7l0,12.37a1.32,1.32,0,0,0,.3.65,4.91,4.91,0,0,0,1,1c2.85,2.11,5.75,2.53,9.1,3l1.43.21a170.2,170.2,0,0,0,18.5,1.47l5.1.23c5.06.26,9.88.27,14.65.09s9.53-.52,14.44-1a54.33,54.33,0,0,0,10-1.85,57.84,57.84,0,0,0,8.37-3.15l0,0c.39-.18,1.11-.51,1.11-.64l0-11.92a3.16,3.16,0,0,0-.19-1.13,1.64,1.64,0,0,0-.44-.69c-2.71-2.37-6.81-4-11.66-5.12a102.33,102.33,0,0,0-16.3-2.12c-1.1-.07-2.2-.12-3.29-.16Zm31.7,10.32v.08l0,11.06a47.33,47.33,0,0,0,6.55-.34,23.43,23.43,0,0,0,6.14-1.57,4.66,4.66,0,0,0,.5-.25.57.57,0,0,0,.19-.19,7.36,7.36,0,0,0,.41-1.48,10.45,10.45,0,0,0,.16-1.57,11.47,11.47,0,0,0-.09-1.66,15.61,15.61,0,0,0-.3-1.66,1.16,1.16,0,0,0-.27-.58,1.81,1.81,0,0,0-.82-.35,59.13,59.13,0,0,0-6.34-1.17,43.53,43.53,0,0,0-6.11-.32Zm-86.47,11.26,0-11.13a41.44,41.44,0,0,0-6.37.32,56.15,56.15,0,0,0-6.33,1.16,1.76,1.76,0,0,0-.82.35,1.08,1.08,0,0,0-.27.58,13.47,13.47,0,0,0-.31,1.66,11.47,11.47,0,0,0-.09,1.66,11.93,11.93,0,0,0,.16,1.57,7.19,7.19,0,0,0,.41,1.48.57.57,0,0,0,.19.19,3.89,3.89,0,0,0,.5.25,23,23,0,0,0,6.14,1.57,47.42,47.42,0,0,0,6.77.34Z" transform="translate(-0.86 0.06)"/><path id="path58" class="cls-3" d="M223.77,166.43a51.3,51.3,0,0,0-5.35,1.86.49.49,0,0,1-.37-.91,56,56,0,0,1,5.46-1.9c.05,0,.21,1,.26,1Zm21.83-3.13c.05,0,.51-1,.56-1l1.06-.05c3.45-.14,6.88-.15,10.28-.08s6.79.23,10.13.41a28.73,28.73,0,0,1,7,1.1,15.84,15.84,0,0,1,5.92,3.23.5.5,0,0,1,0,.7.49.49,0,0,1-.69,0,14.85,14.85,0,0,0-5.56-3,27.73,27.73,0,0,0-6.75-1.06c-3.36-.18-6.72-.33-10.1-.41s-6.78-.06-10.22.08l-1.66.07Z" transform="translate(-0.86 0.06)"/><path id="path60" class="cls-3" d="M282.1,177.23a.49.49,0,0,1,.67.16.5.5,0,0,1-.16.68c-7.54,4.6-22.08,4.06-35.83,3.54l-6.24-.21a.49.49,0,0,1,0-1l6.24.21c13.61.51,28,1.05,35.29-3.4Z" transform="translate(-0.86 0.06)"/><path id="path62" class="cls-4" d="M209.33,175.61l16,5,18.09,3.51q17.52.48,35.36-.49a33.89,33.89,0,0,0,15.32-7.5" transform="translate(-0.86 0.06)"/><path id="path64" class="cls-5" d="M225.34,180.6l-16-5-.07,3a1.78,1.78,0,0,0,.34.78,6.51,6.51,0,0,0,1,1.15c2.85,2.1,5.72,2.77,9.07,3.25l1.65.38c6.09.94,12.24.91,18.42,1.17,1.73.08,3.67.23,5.32.32,5.06.26,9.74-.17,14.51-.35s9.52-.27,14.42-.72a55.37,55.37,0,0,0,10-1.81,57.12,57.12,0,0,0,8.42-3l0,0a5,5,0,0,0,1.32-.83l0-2.5a35.26,35.26,0,0,1-14.95,7.18q-17.85,1-35.36.49Z" transform="translate(-0.86 0.06)"/><g id="Layer1006"><path id="path66" class="cls-6" d="M237.08,193.91c3.36-3.08,5.11-5.33,5.78-7a3.26,3.26,0,0,0-.6-3.73c-.84-.91-2-.82-3.7,0a54.82,54.82,0,0,0-7,4.65c-.45.33-.88.66-1.3,1a17.9,17.9,0,0,0-4.9,5.56c-.81,1.67-.86,3.16,0,4.31l.1.14a.76.76,0,0,0,.09.09c.59.66,1.63.9,3.12.51a17.83,17.83,0,0,0,6.21-3.59c.69-.56,1.42-1.19,2.2-1.9Zm6.35-6.82c-.7,1.8-2.5,4.12-5.94,7.27-.78.71-1.52,1.35-2.23,1.93a18.69,18.69,0,0,1-6.44,3.71c-1.74.45-3,.13-3.73-.69l-.11-.13h0l-.12-.15c-1-1.36-1-3.07,0-4.95a18.39,18.39,0,0,1,5.06-5.77c.42-.33.86-.67,1.33-1a55.45,55.45,0,0,1,7.07-4.72c1.93-.94,3.36-1,4.42.15a3.8,3.8,0,0,1,.72,4.36Z" transform="translate(-0.86 0.06)"/><path id="path86" class="cls-7" d="M230.28,188.79a17.9,17.9,0,0,0-4.9,5.56c-.81,1.67-.86,3.16,0,4.31l.1.13.09.1c.59.66,1.63.9,3.12.51a17.83,17.83,0,0,0,6.21-3.59c.69-.56,1.42-1.19,2.19-1.9,3.36-3.08,5.12-5.33,5.79-7a3.26,3.26,0,0,0-.6-3.73c-.84-.91-2-.82-3.7,0a54.82,54.82,0,0,0-7,4.65c-.45.33-.88.66-1.3,1Z" transform="translate(-0.86 0.06)"/></g><g id="Layer1007"><path id="path89" class="cls-6" d="M233.79,185.46c3.83-2.47,5.91-4.39,6.87-5.94a3.16,3.16,0,0,0,.2-3.55v0h0c-.54-.89-1.72-1.15-3.48-.79a25.63,25.63,0,0,0-7.36,3.26h0l-.53.32a28.75,28.75,0,0,0-6.93,5.37c-1.31,1.58-1.68,3-.9,4.43l.06.11c.47.72,1.39,1.1,2.85.94a18.3,18.3,0,0,0,6.47-2.47c.85-.48,1.77-1,2.76-1.66Zm7.39-5.62c-1,1.63-3.14,3.62-7.06,6.14-1,.63-1.92,1.19-2.79,1.67a18.86,18.86,0,0,1-6.7,2.55c-1.72.19-2.84-.29-3.43-1.22l-.09-.14c-.91-1.65-.52-3.33,1-5.12a29,29,0,0,1,7.1-5.5l.53-.32h0a26,26,0,0,1,7.55-3.34c2-.42,3.43-.06,4.12,1.07h0l0,0a3.72,3.72,0,0,1-.21,4.18Z" transform="translate(-0.86 0.06)"/><path id="path109" class="cls-8" d="M222.55,184.11c-1.31,1.58-1.68,3-.9,4.43l.06.11c.47.72,1.39,1.1,2.85.94a18.3,18.3,0,0,0,6.47-2.47c.85-.48,1.77-1,2.76-1.66,3.83-2.47,5.91-4.39,6.87-5.94a3.16,3.16,0,0,0,.2-3.55v0c-.54-.89-1.72-1.15-3.48-.79a25.63,25.63,0,0,0-7.36,3.26l-.53.32A28.75,28.75,0,0,0,222.55,184.11Z" transform="translate(-0.86 0.06)"/></g><path id="path112" class="cls-4" d="M193.67,172c5.66-.33,8.63,1.44,9.34,6" transform="translate(-0.86 0.06)"/><path id="path114" class="cls-4" d="M309.2,172.24c-5.11,1.64-10.14,2.94-14.82,3" transform="translate(-0.86 0.06)"/><path id="path116" class="cls-5" d="M308.69,172.4a51.55,51.55,0,0,1-13.95,2.82v2.59a47.33,47.33,0,0,0,6.55-.34,23.43,23.43,0,0,0,6.14-1.57,4.66,4.66,0,0,0,.5-.25.57.57,0,0,0,.19-.19,7.36,7.36,0,0,0,.41-1.48,10.45,10.45,0,0,0,.16-1.57Z" transform="translate(-0.86 0.06)"/><path id="path118" class="cls-5" d="M203,177.75c-.77-4.25-3.6-6-8.84-5.75v.53a11.93,11.93,0,0,0,.16,1.57,7.19,7.19,0,0,0,.41,1.48.57.57,0,0,0,.19.19,3.89,3.89,0,0,0,.5.25,23,23,0,0,0,6.14,1.57C202,177.66,202.48,177.71,203,177.75Z" transform="translate(-0.86 0.06)"/><path id="path120" class="cls-9" d="M194.12,172c5.24-.21,8.07,1.5,8.84,5.75,1.7.15,3.48.2,5.33.18l0-11.13a41.44,41.44,0,0,0-6.37.32,56.15,56.15,0,0,0-6.33,1.16,1.76,1.76,0,0,0-.82.35,1.08,1.08,0,0,0-.27.58,13.47,13.47,0,0,0-.31,1.66,10.75,10.75,0,0,0-.09,1.13Z" transform="translate(-0.86 0.06)"/><path id="path122" class="cls-9" d="M294.76,166.75l0,8.47a51.55,51.55,0,0,0,13.95-2.82,11.41,11.41,0,0,0-.09-1.65,15.61,15.61,0,0,0-.3-1.66,1.16,1.16,0,0,0-.27-.58,1.81,1.81,0,0,0-.82-.35,59.13,59.13,0,0,0-6.34-1.17,43.53,43.53,0,0,0-6.11-.32Z" transform="translate(-0.86 0.06)"/><path id="path124" class="cls-10" d="M242.1,202.82c6.36-6.68,7.12-10.22,5.08-12.17s-6.58.22-11.9,5.55-7.25,9.71-4.89,12.27c1.58,1.7,5.46.9,11.71-5.65Z" transform="translate(-0.86 0.06)"/><path id="path126" class="cls-6" d="M238.7,174.42a11.1,11.1,0,0,0,3.68-2.91,2.79,2.79,0,0,0,.54-2.71c-.34-.91-1.73-1.34-3.72-1.31a24.7,24.7,0,0,0-7.8,1.66,35.44,35.44,0,0,0-7.36,3.4c-1.71,1.16-2.63,2.41-2.2,3.78a2.93,2.93,0,0,0,2.63,1.93,15,15,0,0,0,6-.7l.16.59a15.26,15.26,0,0,1-6.27.71,3.5,3.5,0,0,1-3.13-2.34c-.53-1.69.51-3.16,2.45-4.48a35.89,35.89,0,0,1,7.49-3.47,25.4,25.4,0,0,1,8-1.69c2.26,0,3.87.53,4.31,1.71a3.39,3.39,0,0,1-.63,3.28A11.64,11.64,0,0,1,239,175Z" transform="translate(-0.86 0.06)"/><path id="path128" class="cls-3" d="M246.06,160.66s-.7-.72-.61-.74l1.54-.33a18.93,18.93,0,0,0,3.63.35,20.47,20.47,0,0,0,13.83-5.43,17.42,17.42,0,0,0,5.84-12.71A17.8,17.8,0,0,0,264.53,129a19.85,19.85,0,0,0-13.61-5.44,20.76,20.76,0,0,0-13.92,5.4h0a16.66,16.66,0,0,0-2.33,22.94s-1.35.23-1.38.19a17.87,17.87,0,0,1,2.88-24h0a22,22,0,0,1,14.74-5.73,21.08,21.08,0,0,1,14.45,5.79,19,19,0,0,1,6.15,13.74,18.67,18.67,0,0,1-6.24,13.61,21.72,21.72,0,0,1-14.66,5.76,20.83,20.83,0,0,1-4.56-.51Zm4.7-30.5a13,13,0,0,0-8.88,3.42,11,11,0,0,0,0,16.38,13.23,13.23,0,0,0,17.75,0,11,11,0,0,0,0-16.38A13,13,0,0,0,250.76,130.16ZM241,132.68a14.46,14.46,0,0,1,19.43,0,12.23,12.23,0,0,1,0,18.18,14.46,14.46,0,0,1-19.43,0,12.25,12.25,0,0,1,0-18.18Z" transform="translate(-0.86 0.06)"/><path id="path130" class="cls-6" d="M239.82,166.91a13.88,13.88,0,0,0,4.66-2.86c1.12-1.1,1.58-2.16,1.39-2.94-.23-.93-1.47-1.5-3.38-1.73a28.64,28.64,0,0,0-8.19.51l-.53.1h0a25,25,0,0,0-7.39,2.43c-1.69,1-2.61,2.16-2.36,3.53h0v0h0c.17.92.9,1.65,2.34,2.05a16.44,16.44,0,0,0,6.08.11l.07.61a17,17,0,0,1-6.31-.13c-1.71-.47-2.56-1.37-2.79-2.52h0v0h0c-.31-1.66.73-3.05,2.65-4.17a25.46,25.46,0,0,1,7.58-2.5h0l.54-.1a29.54,29.54,0,0,1,8.37-.52c2.17.26,3.6,1,3.9,2.19.25,1-.27,2.27-1.55,3.53a14.4,14.4,0,0,1-4.87,3Z" transform="translate(-0.86 0.06)"/><path id="path132" class="cls-6" d="M251.23,152.8a30.51,30.51,0,0,0,6.67-1.75c1.86-.8,3.19-1.83,3.23-3.18,0-.18,0-.36,0-.54a4.58,4.58,0,0,0-2.38-3.8,12.41,12.41,0,0,0-6-1.54c-.76,0-1.58,0-2.42,0-3.44.2-6.57.52-8.67,1.47h0a4.36,4.36,0,0,0-2.8,3.72,3.69,3.69,0,0,0,.69,2.26,5.11,5.11,0,0,0,2,1.43l-.24.56a5.73,5.73,0,0,1-2.3-1.61,4.31,4.31,0,0,1-.81-2.63,4.87,4.87,0,0,1,3.16-4.29h0c2.17-1,5.37-1.32,8.88-1.53.85,0,1.69,0,2.48,0a13,13,0,0,1,6.26,1.63,5.12,5.12,0,0,1,2.67,4.29,3.83,3.83,0,0,1,0,.59c-.05,1.63-1.53,2.84-3.6,3.72a30.81,30.81,0,0,1-6.81,1.79Z" transform="translate(-0.86 0.06)"/><path id="path152" class="cls-11" d="M238.89,147.2a3.69,3.69,0,0,0,.69,2.26,4.9,4.9,0,0,0,2,1.4,31,31,0,0,1,3.89.06,13.31,13.31,0,0,1,5.07,1.29,5.84,5.84,0,0,1,.84.56,29.8,29.8,0,0,0,6.53-1.72c1.86-.8,3.19-1.83,3.23-3.18,0-.18,0-.36,0-.54a4.58,4.58,0,0,0-2.38-3.8,12.19,12.19,0,0,0-6-1.54c-.76,0-1.58,0-2.42,0-3.44.2-6.65.56-8.75,1.51a4.19,4.19,0,0,0-2.72,3.68Z" transform="translate(-0.86 0.06)"/><path id="path172" class="cls-12" d="M240.92,151.51a36.73,36.73,0,0,0-8.21,1.16c-2,.62-3.13,1.55-3.16,3a2.78,2.78,0,0,0,.82,2.34c.71.64,2,1.08,4.22,1.22a28.56,28.56,0,0,1,8-.45,6.66,6.66,0,0,1,3,1l0-.16a15.76,15.76,0,0,0,4.94-1.43,2.83,2.83,0,0,0,1.62-2.29,2.71,2.71,0,0,0,0-.49,3.21,3.21,0,0,0-1.89-2.62,12.34,12.34,0,0,0-4.82-1.21,31.79,31.79,0,0,0-4.49,0Z" transform="translate(-0.86 0.06)"/><path id="path174" class="cls-6" d="M245.27,159.63a17.85,17.85,0,0,0,5.22-1.48,2.83,2.83,0,0,0,1.62-2.29,2.71,2.71,0,0,0,0-.49,3.21,3.21,0,0,0-1.89-2.62,12.34,12.34,0,0,0-4.82-1.21,31.79,31.79,0,0,0-4.49,0,36.73,36.73,0,0,0-8.21,1.16c-2,.62-3.13,1.55-3.16,3a2.78,2.78,0,0,0,.82,2.34c.71.65,2,1.09,4.25,1.22l0,.61c-2.4-.14-3.82-.64-4.63-1.37a3.41,3.41,0,0,1-1-2.82c0-1.75,1.39-2.85,3.59-3.55a36.48,36.48,0,0,1,8.36-1.19,31.64,31.64,0,0,1,4.58,0,13.31,13.31,0,0,1,5.07,1.29,3.78,3.78,0,0,1,2.2,3.12,3.74,3.74,0,0,1,0,.58,3.4,3.4,0,0,1-1.94,2.77,16.74,16.74,0,0,1-5.25,1.53Z" transform="translate(-0.86 0.06)"/><path id="path176" class="cls-9" d="M234.48,151.6a47.45,47.45,0,0,1,5.88-.67,4.71,4.71,0,0,1-1.27-1.09,4.31,4.31,0,0,1-.81-2.63v0a12.12,12.12,0,0,1-1.28-5.42,12.37,12.37,0,0,1,4-9.09,14.46,14.46,0,0,1,19.43,0,12.23,12.23,0,0,1,0,18.18,14.11,14.11,0,0,1-7.89,3.64,2.84,2.84,0,0,1,.15.83,5.61,5.61,0,0,1,0,.58,3.4,3.4,0,0,1-1.94,2.77,11.39,11.39,0,0,1-2.91,1.06,19.11,19.11,0,0,0,2.74.2,20.47,20.47,0,0,0,13.83-5.43,17.42,17.42,0,0,0,5.84-12.71A17.8,17.8,0,0,0,264.53,129a19.85,19.85,0,0,0-13.61-5.44,20.76,20.76,0,0,0-13.92,5.4,16.66,16.66,0,0,0-2.52,22.69Z" transform="translate(-0.86 0.06)"/><path id="path196" class="cls-13" d="M242.49,159.38a28.64,28.64,0,0,0-8.19.51l-.53.1a25,25,0,0,0-7.39,2.43c-1.69,1-2.61,2.16-2.36,3.53v0c.18.92.91,1.65,2.35,2.05a16.3,16.3,0,0,0,6,.11,23.86,23.86,0,0,1,6.77-1.26c.24,0,.46,0,.69,0a13.89,13.89,0,0,0,4.6-2.84c1.12-1.1,1.58-2.16,1.39-2.94-.23-.93-1.47-1.5-3.38-1.73Z" transform="translate(-0.86 0.06)"/><path id="path216" class="cls-14" d="M239.2,167.49a24.7,24.7,0,0,0-7.8,1.66,35.44,35.44,0,0,0-7.36,3.4c-1.71,1.16-2.63,2.41-2.2,3.78a2.93,2.93,0,0,0,2.63,1.93,14.89,14.89,0,0,0,6-.69,25.49,25.49,0,0,1,7-3,8.18,8.18,0,0,1,1.31-.16,11.06,11.06,0,0,0,3.62-2.88,2.79,2.79,0,0,0,.54-2.71C242.58,167.89,241.19,167.46,239.2,167.49Z" transform="translate(-0.86 0.06)"/><path id="path218" class="cls-9" d="M223.7,172a32.27,32.27,0,0,1,6.46-3.09,13.22,13.22,0,0,1-3.95-.33,3.53,3.53,0,0,1-2.68-2.12,51.54,51.54,0,0,0-5.11,1.79.49.49,0,0,1-.37-.91,50.56,50.56,0,0,1,5.31-1.85c0-1.43,1-2.64,2.71-3.64a23.53,23.53,0,0,1,6.56-2.29,7.38,7.38,0,0,1-1.57-.46l-.89.09A58.34,58.34,0,0,0,220.4,161a51.18,51.18,0,0,0-9.77,3.9,2.46,2.46,0,0,0-.81.71,1.27,1.27,0,0,0-.29.7v9.39l15.82,4.93.17,0c.87-.64,1.84-1.29,2.91-2a12,12,0,0,1-4,.18,3.5,3.5,0,0,1-3.13-2.34c-.53-1.69.51-3.16,2.45-4.48Z" transform="translate(-0.86 0.06)"/><path id="path220" class="cls-9" d="M242.87,171.87a10.25,10.25,0,0,1-3.09,2.63,2.51,2.51,0,0,1,1.59,1.13h0l0,0a3.72,3.72,0,0,1-.21,4.18,6.7,6.7,0,0,1-.4.58l6,.21c13.61.51,28,1.05,35.29-3.4a.49.49,0,0,1,.67.16.5.5,0,0,1-.16.68c-7.54,4.6-22.08,4.06-35.83,3.54l-6.24-.21a.53.53,0,0,1-.39-.21,13.52,13.52,0,0,1-1,1c1.5-.56,2.66-.46,3.56.52a4.26,4.26,0,0,1,.88,1.38q17.44.48,35.2-.49a35.43,35.43,0,0,0,14.72-7l0-9.88a3.16,3.16,0,0,0-.19-1.13,1.64,1.64,0,0,0-.44-.69c-2.71-2.37-6.81-4-11.66-5.12a102.33,102.33,0,0,0-16.3-2.12l-2.41-.13a21.65,21.65,0,0,1-11.91,3.61,20.44,20.44,0,0,1-4.23-.44,1.55,1.55,0,0,1,.07.23,2.36,2.36,0,0,1-.08,1.33l.84,0c3.45-.14,6.88-.15,10.28-.08s6.79.23,10.13.41a28.73,28.73,0,0,1,7,1.1,15.84,15.84,0,0,1,5.92,3.23.5.5,0,0,1,0,.7.49.49,0,0,1-.69,0,14.85,14.85,0,0,0-5.56-3,27.73,27.73,0,0,0-6.75-1.06c-3.36-.18-6.72-.33-10.1-.41s-6.78-.06-10.22.08l-1.36.06a6.54,6.54,0,0,1-1,1.2,13.46,13.46,0,0,1-3.8,2.53,2.89,2.89,0,0,1,2.39,1.57,3.39,3.39,0,0,1-.63,3.28Z" transform="translate(-0.86 0.06)"/><path id="path222" class="cls-6" d="M248.8,207.68c3.15-3.31,4.88-5.6,5.56-7.29a2.83,2.83,0,0,0-.61-3.51c-.91-.87-2.23-.79-4,.12a45.62,45.62,0,0,0-12.16,12c-.88,1.65-.87,3,.2,4.14l.1.11a2.9,2.9,0,0,0,3,.37,16.8,16.8,0,0,0,5.75-3.86c.66-.61,1.36-1.3,2.09-2.06Zm6.13-7.07c-.71,1.77-2.48,4.12-5.69,7.49-.74.78-1.45,1.48-2.11,2.09a17.46,17.46,0,0,1-6,4,3.45,3.45,0,0,1-3.63-.52l-.13-.13c-1.28-1.39-1.31-2.94-.3-4.85a32.71,32.71,0,0,1,5.57-6.64,31.61,31.61,0,0,1,6.85-5.59c2-1.05,3.55-1.11,4.68,0a3.4,3.4,0,0,1,.75,4.18Z" transform="translate(-0.86 0.06)"/><path id="path224" class="cls-6" d="M254.79,214.52c3.1-3.35,4.88-5.81,5.63-7.65s.45-2.92-.47-3.8-2.37-.66-4.22.38a35.16,35.16,0,0,0-7,5.74,31.79,31.79,0,0,0-5.53,6.63c-.88,1.69-.84,3,.43,4.08a3.45,3.45,0,0,0,3.79.6c1.75-.66,4.07-2.43,7.35-6Zm6.2-7.43c-.78,1.92-2.59,4.44-5.75,7.85-3.35,3.62-5.75,5.44-7.59,6.14a4,4,0,0,1-4.39-.71c-1.54-1.28-1.61-2.86-.58-4.83s3-4.1,5.64-6.78a35.88,35.88,0,0,1,7.11-5.85c2.11-1.18,3.81-1.37,4.94-.29S261.8,205.07,261,207.09Z" transform="translate(-0.86 0.06)"/><path id="path226" class="cls-6" d="M266.83,228.87c1.09-.5,2.06-1,2.92-1.45a15.45,15.45,0,0,0,5.35-4.18,3.13,3.13,0,0,0,.49-3.22h0l-.1-.21c-.59-1.08-2.22-1.47-4.5-1.21a28,28,0,0,0-8.75,2.91c-3.34,1.66-5.81,3.2-7.21,4.7s-1.66,2.76-.85,4.11,2.33,1.7,4.44,1.39a33.8,33.8,0,0,0,8.21-2.84Zm3.22-.91q-1.33.73-3,1.47a33.72,33.72,0,0,1-8.37,2.88c-2.36.35-4.12-.09-5.06-1.67s-.59-3.22.94-4.86A27,27,0,0,1,262,221a28.4,28.4,0,0,1,8.95-3c2.54-.29,4.39.2,5.11,1.53,0,.08.09.17.12.25h0a3.68,3.68,0,0,1-.55,3.82,16,16,0,0,1-5.55,4.37Z" transform="translate(-0.86 0.06)"/><path id="path228" class="cls-6" d="M260.88,221.54l.22-.23c.85-.84,1.59-1.63,2.24-2.38a15.5,15.5,0,0,0,3.55-5.79,3.13,3.13,0,0,0-.66-3.18l-.17-.16c-.93-.81-2.59-.61-4.64.44a28,28,0,0,0-7.19,5.77,26.32,26.32,0,0,0-5.11,6.92c-.75,1.78-.6,3.17.63,4.16h0a2.82,2.82,0,0,0,1.74.63,5.22,5.22,0,0,0,2.17-.52l.25.56a5.64,5.64,0,0,1-2.44.57,3.39,3.39,0,0,1-2.11-.76h0c-1.48-1.19-1.68-2.82-.82-4.88a27.29,27.29,0,0,1,5.24-7.1,28.44,28.44,0,0,1,7.35-5.9c2.28-1.16,4.18-1.34,5.32-.36l.2.19a3.72,3.72,0,0,1,.82,3.78,16,16,0,0,1-3.68,6c-.66.76-1.41,1.56-2.26,2.41l-.23.22Z" transform="translate(-0.86 0.06)"/><path id="path230" class="cls-6" d="M261.35,237.28a30.88,30.88,0,0,0,3.16.14c1.14,0,2.38,0,3.69-.14s2.27-.17,3.25-.31a15.45,15.45,0,0,0,6.49-2,3.13,3.13,0,0,0,1.61-2.82c0-.08,0-.16,0-.24-.15-1.08-1.25-1.95-3.06-2.53a23.32,23.32,0,0,0-7.69-.77l0-.61a23.51,23.51,0,0,1,7.9.8c2,.65,3.29,1.69,3.47,3a1.41,1.41,0,0,1,0,.28,3.7,3.7,0,0,1-1.88,3.37,16.08,16.08,0,0,1-6.75,2.1c-1,.14-2.09.24-3.29.32s-2.56.13-3.73.13-2.24,0-3.22-.13Z" transform="translate(-0.86 0.06)"/><path id="path232" class="cls-6" d="M261.43,246.56a22.65,22.65,0,0,0,3.13.87c1.18.25,2.47.45,3.85.6.77.08,1.49.14,2.16.17,3.66.19,6.14-.25,7.73-1a3.87,3.87,0,0,0,2.35-3.06c0-.07,0-.14,0-.21.07-1.33-1.15-2.69-3.3-3.8a23.54,23.54,0,0,0-8.7-2.18l0-.61a24,24,0,0,1,8.94,2.25c2.37,1.21,3.71,2.78,3.63,4.38a1.94,1.94,0,0,1,0,.24,4.45,4.45,0,0,1-2.68,3.54c-1.68.85-4.26,1.31-8,1.12q-1-.06-2.19-.18c-1.41-.15-2.72-.35-3.92-.6a23.38,23.38,0,0,1-3.21-.9Z" transform="translate(-0.86 0.06)"/><path id="path234" class="cls-6" d="M261.33,254.28c.68.45,1.44.91,2.26,1.36s1.7.93,2.62,1.39c4.07,2.06,6.94,3,8.93,3.09a3.28,3.28,0,0,0,3.55-2h0l0,0h0c.55-1.31-.15-2.86-1.81-4.46a28.16,28.16,0,0,0-8-4.87l-.46-.19.24-.57.47.2a28.39,28.39,0,0,1,8.16,5c1.86,1.78,2.61,3.57,1.95,5.14h0v0h0a3.85,3.85,0,0,1-4.14,2.39c-2.09-.09-5-1.07-9.19-3.16-.94-.48-1.82-.94-2.64-1.4s-1.59-.92-2.3-1.38Z" transform="translate(-0.86 0.06)"/><path id="path236" class="cls-6" d="M261.44,267a9.53,9.53,0,0,0,4.56,1.47,3.54,3.54,0,0,0,3-1.34c.76-1,.51-2.7-.64-4.73a25.41,25.41,0,0,0-6-6.72l-.65-.53-.65-.51.38-.48.65.51.67.54a26,26,0,0,1,6.14,6.89c1.27,2.26,1.51,4.19.59,5.41A4.15,4.15,0,0,1,266,269a10.36,10.36,0,0,1-4.87-1.56Z" transform="translate(-0.86 0.06)"/><path id="path238" class="cls-6" d="M289.17,354.67a4.38,4.38,0,0,0,2.58-1,3.24,3.24,0,0,0,1-2.23,2.5,2.5,0,0,0-1.43-2.23,10.27,10.27,0,0,0-4.45-1.16,11.28,11.28,0,0,0-5,.66c-1.24.5-2,1.24-2.09,2.1a1.71,1.71,0,0,0,.32,1.11,4,4,0,0,0,1.19,1.09l-.32.52a4.38,4.38,0,0,1-1.38-1.27,2.43,2.43,0,0,1-.43-1.5c.08-1.1,1-2,2.47-2.62a12,12,0,0,1,5.28-.7,10.81,10.81,0,0,1,4.73,1.25,3,3,0,0,1,1.72,2.78,3.75,3.75,0,0,1-1.15,2.65,4.93,4.93,0,0,1-2.93,1.16Z" transform="translate(-0.86 0.06)"/><path id="path240" class="cls-6" d="M290.62,348.28a2.21,2.21,0,0,0,1.31-.91,2.58,2.58,0,0,0,.32-1.68,2.86,2.86,0,0,0-1.83-2.23h0a8.75,8.75,0,0,0-4.41-.58,12.44,12.44,0,0,0-5.21,1.62c-1.31.78-2.15,1.72-2.08,2.57a1.58,1.58,0,0,0,.52,1.05,2.92,2.92,0,0,0,1.37.63l-.12.6a3.43,3.43,0,0,1-1.67-.78,2.17,2.17,0,0,1-.71-1.45h0c-.09-1.1.86-2.25,2.37-3.15a13.24,13.24,0,0,1,5.48-1.7,9.38,9.38,0,0,1,4.72.63h0a3.46,3.46,0,0,1,2.18,2.73,3.23,3.23,0,0,1-.41,2.07,2.8,2.8,0,0,1-1.66,1.17Z" transform="translate(-0.86 0.06)"/><path id="path242" class="cls-6" d="M289.48,342.49a2.36,2.36,0,0,0,1-1.66,5.19,5.19,0,0,0-.26-2.71,2.46,2.46,0,0,0-2.26-1.36,10.17,10.17,0,0,0-4.51.93h0a12.73,12.73,0,0,0-4.37,2.84c-1,1-1.43,2-1.11,2.82h0a1.36,1.36,0,0,0,.77.77,2.48,2.48,0,0,0,1.43.05l.13.6a3.19,3.19,0,0,1-1.79-.07,2,2,0,0,1-1.11-1.12h0c-.42-1,.1-2.29,1.23-3.48a13.72,13.72,0,0,1,4.58-3h0a11,11,0,0,1,4.79-1,3,3,0,0,1,2.77,1.74,5.83,5.83,0,0,1,.31,3.07,3,3,0,0,1-1.34,2.07Z" transform="translate(-0.86 0.06)"/><path id="path244" class="cls-6" d="M279.51,325.39a4.93,4.93,0,0,0,.83-2,2.82,2.82,0,0,0-.31-1.74l-.06-.1a2.46,2.46,0,0,0-2.12-1.12,7.63,7.63,0,0,0-3.86,1.13l-.67.39a16,16,0,0,0-1.47,1,10.27,10.27,0,0,0-2.82,3.23,2.85,2.85,0,0,0-.16,2.82l.15.22h0a2.61,2.61,0,0,0,1.74,1.11A5.94,5.94,0,0,0,273,330l.16.6a6.62,6.62,0,0,1-2.43.33,3.18,3.18,0,0,1-2.15-1.34h0a2.75,2.75,0,0,1-.19-.28,3.42,3.42,0,0,1,.13-3.42,10.91,10.91,0,0,1,3-3.43,15.43,15.43,0,0,1,1.53-1.07c.23-.15.46-.28.69-.4a8.3,8.3,0,0,1,4.18-1.22,3.06,3.06,0,0,1,2.62,1.42l.08.13a3.45,3.45,0,0,1,.38,2.11,5.44,5.44,0,0,1-.92,2.29Z" transform="translate(-0.86 0.06)"/><path id="path246" class="cls-6" d="M275.41,320.27a5,5,0,0,0,.89-2.06,2.62,2.62,0,0,0-.27-1.72,2.33,2.33,0,0,0-.17-.26,2.52,2.52,0,0,0-2-1,6.28,6.28,0,0,0-3.33.91,14.44,14.44,0,0,0-1.47.95h0l-.24.18h0a14.83,14.83,0,0,0-3.78,3.89c-.69,1.18-.84,2.26-.22,3.1h0l0,0h0a2.71,2.71,0,0,0,1.82,1.18,5,5,0,0,0,2.32-.38l.2.58a5.56,5.56,0,0,1-2.6.41,3.32,3.32,0,0,1-2.23-1.42h0l0,0h0c-.79-1.06-.64-2.37.19-3.77a15.37,15.37,0,0,1,3.92-4.06h0l.24-.18h0a14.08,14.08,0,0,1,1.54-1,7,7,0,0,1,3.67-1,3.19,3.19,0,0,1,2.43,1.21,2.39,2.39,0,0,1,.21.34,3.22,3.22,0,0,1,.34,2.1,5.84,5.84,0,0,1-1,2.32Z" transform="translate(-0.86 0.06)"/><path id="path248" class="cls-6" d="M271.47,315.07a5.32,5.32,0,0,0,.9-2.06,2.68,2.68,0,0,0-.28-1.72v0h0a2.44,2.44,0,0,0-1.94-1.18,6.08,6.08,0,0,0-3.52.9l-.14.08-.29-.54.13-.08h0a6.69,6.69,0,0,1,3.87-1,3,3,0,0,1,2.41,1.49h0l0,0h0a3.21,3.21,0,0,1,.34,2.1,5.81,5.81,0,0,1-1,2.31Zm-10.07,4.57a2.44,2.44,0,0,0,1.63.68,5.61,5.61,0,0,0,2-.4l.2.58a6.09,6.09,0,0,1-2.27.43,3,3,0,0,1-2-.84Z" transform="translate(-0.86 0.06)"/><path id="path250" class="cls-6" d="M261.36,307a6.11,6.11,0,0,1,2.51-.39,2.92,2.92,0,0,1,1.86.85,1.55,1.55,0,0,1,.24.27,3.58,3.58,0,0,1,.73,2.78,6.32,6.32,0,0,1-2,3.53h0a11.3,11.3,0,0,1-.93.83c-.4.32-.8.62-1.19.89h0c-.4.28-.78.54-1.16.77l-.32-.53c.37-.22.75-.47,1.12-.74h0c.39-.27.78-.56,1.16-.87a10,10,0,0,0,.89-.79h0a5.7,5.7,0,0,0,1.82-3.18,3,3,0,0,0-.6-2.31,2,2,0,0,0-.19-.22,2.32,2.32,0,0,0-1.49-.66,5.42,5.42,0,0,0-2.26.35Z" transform="translate(-0.86 0.06)"/><path id="path252" class="cls-6" d="M275.27,361.07a15.72,15.72,0,0,0,1.54,1.49,24.8,24.8,0,0,0,2.14,1.6,4.73,4.73,0,0,0,.44.28h0a10.18,10.18,0,0,0,4.2,1.28c1.31.08,2.4-.15,2.81-.74l0-.05a1.85,1.85,0,0,0,0-1.61,6.5,6.5,0,0,0-1.53-2.21l.44-.43A7.33,7.33,0,0,1,287,363.1a2.43,2.43,0,0,1,0,2.13.31.31,0,0,1,0,.1c-.54.79-1.85,1.1-3.36,1a10.68,10.68,0,0,1-4.47-1.36h0l-.48-.3a26,26,0,0,1-2.18-1.65,14,14,0,0,1-1.61-1.55Z" transform="translate(-0.86 0.06)"/><path id="path254" class="cls-6" d="M270.58,362.5a11.17,11.17,0,0,0,.95,2.37,8.36,8.36,0,0,0,1.31,1.89l.37.36a10.16,10.16,0,0,0,3.84,2.13c1.26.36,2.38.37,2.9-.13l.05,0h0a1.88,1.88,0,0,0,.31-1.57,6.88,6.88,0,0,0-1-2.49l.52-.33a7.31,7.31,0,0,1,1.11,2.72,2.43,2.43,0,0,1-.46,2.08h0l-.08.08c-.69.66-2,.69-3.49.27a10.71,10.71,0,0,1-4.08-2.26l-.4-.4a9.26,9.26,0,0,1-1.42-2,12,12,0,0,1-1-2.5Z" transform="translate(-0.86 0.06)"/><path id="path256" class="cls-6" d="M266,363.24a8,8,0,0,0,.17,1.47,12.6,12.6,0,0,0,.38,1.35,8.27,8.27,0,0,0,.65,1.42,7.53,7.53,0,0,0,2.09,2.35,2.32,2.32,0,0,0,2,.55.88.88,0,0,0,.2-.09,1.85,1.85,0,0,0,.9-1.12,4.27,4.27,0,0,0-.13-2.25l.6-.16a4.85,4.85,0,0,1,.12,2.58,2.45,2.45,0,0,1-1.19,1.49l-.3.14a3,3,0,0,1-2.54-.64,8.15,8.15,0,0,1-2.26-2.54,8.79,8.79,0,0,1-.7-1.53,12.81,12.81,0,0,1-.4-1.43,9.91,9.91,0,0,1-.19-1.57Z" transform="translate(-0.86 0.06)"/><path id="path258" class="cls-6" d="M261.35,365a8.21,8.21,0,0,0,.18,1.84,5.48,5.48,0,0,0,1.27,2.59,2.48,2.48,0,0,0,1.73.9,2.07,2.07,0,0,0,.35,0,1.76,1.76,0,0,0,1.17-.77,3.66,3.66,0,0,0,.36-2.14l.62,0a4.21,4.21,0,0,1-.46,2.51,2.33,2.33,0,0,1-1.56,1,2.61,2.61,0,0,1-.48,0,3.12,3.12,0,0,1-2.18-1.1,6.19,6.19,0,0,1-1.42-2.88,8.73,8.73,0,0,1-.19-2Z" transform="translate(-0.86 0.06)"/><path id="path260" class="cls-6" d="M204.52,325.21a7.32,7.32,0,0,1-.21-1.73,2.67,2.67,0,0,1,.53-1.7h0a3,3,0,0,1,2.21-1,6.94,6.94,0,0,1,2.85.62,18,18,0,0,1,2.67,1.38,26.68,26.68,0,0,1,2.8,1.95l1.1.87c3.23,2.56,5.88,4.66,5.63,7.67l-.61-.05c.22-2.68-2.32-4.7-5.4-7.14l-1.1-.87a26.12,26.12,0,0,0-2.74-1.9,16.88,16.88,0,0,0-2.57-1.34,6.49,6.49,0,0,0-2.6-.58,2.41,2.41,0,0,0-1.77.84h0a2.05,2.05,0,0,0-.39,1.3,6.87,6.87,0,0,0,.2,1.6Z" transform="translate(-0.86 0.06)"/><path id="path262" class="cls-15" d="M260.83,186.06a.6.6,0,0,1,.58-.64.61.61,0,0,1,.64.59c0,.19-.07,26.86-.16,56.91-.11,38-.24,81.48-.23,83.44a10.31,10.31,0,0,0,.76,4.26,4.13,4.13,0,0,0,2.39,2.26,15.84,15.84,0,0,0,3.45.81,21.32,21.32,0,0,0,3.68.06c4.75-.3,9.05-1.95,13.36-3.61l1.47-.57c3.91-1.49,6.73-4.25,9.19-6.66l.05-.05a4.69,4.69,0,0,0,1.42-3,9.37,9.37,0,0,0-.54-3.66,11.72,11.72,0,0,0-2.14-3.53l-.23-.3v-.74c4.67-6.34,9.36-12.64,14.23-18.38a98.54,98.54,0,0,1,15.36-15l.89.16A79.31,79.31,0,0,1,333.56,296a62.65,62.65,0,0,1,3.25,18.68,56.21,56.21,0,0,1-2.75,17.85,110.88,110.88,0,0,1-7,16.72l-.93.21c-1.08-.86-2.26-1.76-3.45-2.66l-1.89-1.44a7.46,7.46,0,0,0-2.72-1.45,2.62,2.62,0,0,0-2.32.5,58.55,58.55,0,0,1-11.18,6.87,127.49,127.49,0,0,1-13,5.28l-1.68.6c-3.05,1.08-6.05,2.15-9.25,3.16-2.39.75-4.8,1.39-7.24,2s-4.88,1.07-7.34,1.56l-1.42.24a9.6,9.6,0,0,0-4.81,1.66,34.33,34.33,0,0,0-4.93,4.83,22,22,0,0,0-3.43,6.32l-1.15,0a32.3,32.3,0,0,0-2.76-5.53,12,12,0,0,0-2.86-3.23,8.38,8.38,0,0,0-1.56-.88,8.86,8.86,0,0,0-1.78-.51,148,148,0,0,1-17.58-4.5c-5.74-1.85-11.41-4-17.06-6.39-3.66-1.55-7.13-3.1-10.46-4.79a92.79,92.79,0,0,1-9.72-5.63,5.67,5.67,0,0,0-3.38-1.11,4.44,4.44,0,0,0-2.89,1.36,21.15,21.15,0,0,0-2.58,3.37c-.4.62-.81,1.23-1.26,1.84l-.94.06a35.66,35.66,0,0,1-7.66-12.39c-1.95-5.26-3.15-11.89-3.13-20.48a71.26,71.26,0,0,1,3.25-20.4,122.35,122.35,0,0,1,7.93-19.49l1-.15c5.11,5.26,10.17,10.59,15.23,15.91s10.16,10.69,15.21,15.9l-.06.91a10.87,10.87,0,0,0-2.86,3.32,15.82,15.82,0,0,0-1.67,4.72,5.36,5.36,0,0,0,1,4.47,16.44,16.44,0,0,0,3.81,3.35,39.06,39.06,0,0,0,8.88,4.72h0a41.92,41.92,0,0,0,10,2.38c1.18.13,2.4.24,3.6.29a28.39,28.39,0,0,0,3.58-.06,6,6,0,0,0,4.12-2.27,8.26,8.26,0,0,0,1.77-5.11l.27-112.71a.62.62,0,0,1,1.23,0l-.27,112.71a9.54,9.54,0,0,1-2,5.88,7.19,7.19,0,0,1-5,2.72,29,29,0,0,1-3.73.07c-1.26,0-2.5-.17-3.7-.3a43,43,0,0,1-10.3-2.45h0a40.3,40.3,0,0,1-9.16-4.86,18,18,0,0,1-4.09-3.63,6.53,6.53,0,0,1-1.23-5.43,16.88,16.88,0,0,1,1.82-5.1,12.22,12.22,0,0,1,2.63-3.25c-4.94-5.1-9.85-10.26-14.75-15.42s-9.76-10.27-14.61-15.28a120.43,120.43,0,0,0-7.47,18.51,70.8,70.8,0,0,0-3.2,20.05c0,8.43,1.16,14.91,3.06,20.06a34.49,34.49,0,0,0,6.89,11.41c.27-.38.53-.78.8-1.18a21,21,0,0,1,2.75-3.57,5.55,5.55,0,0,1,3.69-1.7,6.86,6.86,0,0,1,4.12,1.31,91.71,91.71,0,0,0,9.58,5.56c3.32,1.68,6.76,3.21,10.39,4.75,5.61,2.37,11.24,4.51,17,6.35a146.41,146.41,0,0,0,17.43,4.46,9.85,9.85,0,0,1,2,.59,9.16,9.16,0,0,1,1.79,1,12.9,12.9,0,0,1,3.18,3.57,32.37,32.37,0,0,1,2.29,4.32,21.9,21.9,0,0,1,3.06-5.23,34.18,34.18,0,0,1,5.1-5c1.57-1.32,3.5-1.63,5.41-1.93.44-.07.88-.14,1.37-.24,2.46-.48,4.89-1,7.3-1.55s4.79-1.19,7.15-1.94c3.22-1,6.19-2.07,9.22-3.14l1.67-.6a125.57,125.57,0,0,0,12.9-5.22A58,58,0,0,0,315,343.45a3.75,3.75,0,0,1,3.35-.72,8.55,8.55,0,0,1,3.2,1.66l1.89,1.44,2.87,2.21a110.13,110.13,0,0,0,6.55-15.86,55.42,55.42,0,0,0,2.7-17.47,61.33,61.33,0,0,0-3.2-18.32,77.77,77.77,0,0,0-8.08-16.81A99.35,99.35,0,0,0,309.68,294c-4.75,5.6-9.33,11.74-13.9,17.94a12.81,12.81,0,0,1,2.28,3.84,10.58,10.58,0,0,1,.59,4.15,5.87,5.87,0,0,1-1.78,3.79l-.05.06c-2.55,2.49-5.47,5.35-9.61,6.93l-1.47.56C281.34,333,277,334.67,272,335a21.8,21.8,0,0,1-3.89-.06,16.82,16.82,0,0,1-3.73-.88,5.26,5.26,0,0,1-3.09-2.9,11.73,11.73,0,0,1-.87-4.76c0-2,.12-45.42.23-83.45.09-30,.17-56.67.17-56.86Z" transform="translate(-0.86 0.06)"/><path id="path264" class="cls-6" d="M283.31,330.88a3.65,3.65,0,0,0,1.05-2.31,3.38,3.38,0,0,0-.48-1.67l-.06-.1h0a2.58,2.58,0,0,0-2.17-1.16,7.42,7.42,0,0,0-3.91,1.11l-.62.36c-.24.14-.47.29-.69.44a12.27,12.27,0,0,0-3.51,3.5h0c-.69,1.13-.91,2.21-.42,3h0l.05.08a3,3,0,0,0,1.67,1.23h0a3.05,3.05,0,0,0,2.07-.29l.27.55a3.61,3.61,0,0,1-2.49.33h0a3.54,3.54,0,0,1-2-1.48l-.06-.1h0c-.61-1-.38-2.31.42-3.64h0a12.89,12.89,0,0,1,3.69-3.68c.23-.16.47-.32.72-.47s.43-.26.64-.37a8.13,8.13,0,0,1,4.25-1.19,3.18,3.18,0,0,1,2.65,1.46h0l.08.14a3.84,3.84,0,0,1,.55,2,4.22,4.22,0,0,1-1.2,2.7Z" transform="translate(-0.86 0.06)"/><path id="path266" class="cls-6" d="M285.82,354.05h0a11.41,11.41,0,0,0-5-.3c-1.31.26-2.23.84-2.45,1.67s.29,1.78,1.29,2.66a11.3,11.3,0,0,0,4.5,2.25h0a11.41,11.41,0,0,0,5,.3c1.31-.26,2.23-.84,2.45-1.67s-.29-1.79-1.29-2.67a11.42,11.42,0,0,0-4.47-2.24Zm-5.2-.92a12.13,12.13,0,0,1,5.27.3h.05a12.08,12.08,0,0,1,4.76,2.39c1.18,1,1.76,2.22,1.47,3.29s-1.38,1.8-2.92,2.11a11.82,11.82,0,0,1-5.27-.3h-.05a12.07,12.07,0,0,1-4.76-2.38c-1.18-1-1.76-2.22-1.47-3.29s1.38-1.81,2.92-2.12Z" transform="translate(-0.86 0.06)"/><path id="path268" class="cls-6" d="M219.71,328.23a10.15,10.15,0,0,0,4,1.26,1.56,1.56,0,0,0,1.54-.84c.44-.8.29-1.74-.66-3.09a35.59,35.59,0,0,0-5.91-5.84q-1.08-.92-2-1.59a12.19,12.19,0,0,0-5.4-2.47,2.94,2.94,0,0,0-2.69.85l-.12.14a2.45,2.45,0,0,0-.43,1.82h0a5.6,5.6,0,0,0,1.54,2.76l-.45.41a6.23,6.23,0,0,1-1.7-3.08h0a3,3,0,0,1,.54-2.26l.15-.19a3.52,3.52,0,0,1,3.22-1.06,12.76,12.76,0,0,1,5.7,2.58,25.84,25.84,0,0,1,2.07,1.62,36.56,36.56,0,0,1,6,5.95c1.11,1.58,1.26,2.72.7,3.74a2.16,2.16,0,0,1-2.09,1.17,11,11,0,0,1-4.25-1.32Z" transform="translate(-0.86 0.06)"/><path id="path270" class="cls-6" d="M222.71,322.52c1.23,1.38,2.15,1.93,2.86,2a1.91,1.91,0,0,0,1.62-.83c.63-.75.67-1.88-.3-3.56a26.58,26.58,0,0,0-5.44-6c-3.06-2.69-5.17-4-6.69-4.48a3,3,0,0,0-3,.34h0l0,0h0a2.56,2.56,0,0,0-.75,2,5.09,5.09,0,0,0,1.2,3.13l.17.21-.47.39a2.13,2.13,0,0,1-.18-.22,5.73,5.73,0,0,1-1.33-3.51,3.2,3.2,0,0,1,1-2.44h0l0,0h0a3.53,3.53,0,0,1,3.55-.45c1.6.51,3.79,1.86,6.91,4.61a27.13,27.13,0,0,1,5.57,6.15c1.13,1.95,1,3.32.24,4.27a2.49,2.49,0,0,1-2.14,1.05c-.86-.08-1.92-.68-3.26-2.2Z" transform="translate(-0.86 0.06)"/><path id="path290" class="cls-16" d="M230.39,208.47c1.58,1.7,5.46.9,11.71-5.65s7.12-10.22,5.08-12.17c-1.52-1.44-4.41-.62-8,2.07-.51.52-1.08,1.07-1.71,1.64-.78.71-1.52,1.35-2.23,1.93l-.34.27c-5,5.16-6.83,9.41-4.53,11.91Z" transform="translate(-0.86 0.06)"/><path id="path292" class="cls-6" d="M230.57,208.3l.1.1c.65.62,1.72.81,3.21.31a17.82,17.82,0,0,0,6-4q1-.91,2.07-2c3.16-3.32,4.92-5.84,5.64-7.77s.39-3.15-.55-4a3,3,0,0,0-2.95-.47,14.32,14.32,0,0,0-4.69,2.55l-.81.79-.9.84c-.38.35-.76.69-1.14,1l-1.1.93-.18.13h0l-.16.12a22.22,22.22,0,0,0-5,6.94c-.72,1.89-.59,3.47.47,4.62Zm-.24.45a.68.68,0,0,1-.12-.12h0c-1.21-1.3-1.36-3-.57-5.12a22.44,22.44,0,0,1,5.1-7.12h0l.17-.14.17-.14c.36-.28.72-.59,1.09-.91s.74-.64,1.12-1l.9-.84.81-.79h0a14.65,14.65,0,0,1,4.88-2.64,3.47,3.47,0,0,1,3.41.58c1.09,1.05,1.44,2.51.67,4.58s-2.54,4.57-5.74,7.94c-.73.76-1.43,1.45-2.09,2.06a18.41,18.41,0,0,1-6.15,4.12c-1.69.57-2.93.33-3.71-.42Z" transform="translate(-0.86 0.06)"/><path id="path312" class="cls-17" d="M243.08,202.48a31.82,31.82,0,0,0-5.45,6.5c-.88,1.65-.87,3,.2,4.14l.1.11a2.9,2.9,0,0,0,3,.37,16.8,16.8,0,0,0,5.75-3.86c.66-.61,1.36-1.3,2.09-2.06,3.15-3.31,4.88-5.6,5.56-7.29a2.83,2.83,0,0,0-.61-3.51c-.91-.87-2.23-.79-4,.12a31.5,31.5,0,0,0-6.71,5.48Z" transform="translate(-0.86 0.06)"/><path id="path332" class="cls-18" d="M248.75,209.19a31.79,31.79,0,0,0-5.53,6.63c-.88,1.69-.84,3,.43,4.08a3.45,3.45,0,0,0,3.79.6c1.75-.66,4.07-2.43,7.35-6,3.1-3.35,4.88-5.81,5.63-7.65s.45-2.92-.47-3.8-2.37-.66-4.22.38a35.16,35.16,0,0,0-7,5.74Z" transform="translate(-0.86 0.06)"/><path id="path352" class="cls-19" d="M261.42,210.24a28,28,0,0,0-7.19,5.77,26.32,26.32,0,0,0-5.11,6.92c-.75,1.78-.6,3.17.64,4.16a2.82,2.82,0,0,0,1.74.63,5.11,5.11,0,0,0,2-.45,6.35,6.35,0,0,1,1.08-1.49,24.54,24.54,0,0,1,6.34-4.3l.17-.17c.85-.84,1.59-1.63,2.24-2.38a15.5,15.5,0,0,0,3.55-5.79,3.13,3.13,0,0,0-.66-3.18l-.17-.16c-.93-.81-2.59-.61-4.64.44Z" transform="translate(-0.86 0.06)"/><path id="path372" class="cls-20" d="M271,218.6a28,28,0,0,0-8.75,2.91c-3.34,1.66-5.81,3.2-7.21,4.7s-1.66,2.76-.85,4.11,2.33,1.7,4.44,1.39a33.8,33.8,0,0,0,8.21-2.84c1.09-.5,2.06-1,2.92-1.45a15.45,15.45,0,0,0,5.35-4.18,3.13,3.13,0,0,0,.49-3.22l-.1-.21c-.59-1.08-2.22-1.47-4.5-1.21Z" transform="translate(-0.86 0.06)"/><path id="path388" class="cls-21" d="M285.78,354a11.41,11.41,0,0,0-5-.3c-1.31.26-2.23.84-2.45,1.67s.29,1.78,1.29,2.66a11.3,11.3,0,0,0,4.5,2.25h0a11.41,11.41,0,0,0,5,.3c1.31-.26,2.23-.84,2.45-1.67s-.29-1.79-1.29-2.67a11.42,11.42,0,0,0-4.47-2.24Z" transform="translate(-0.86 0.06)"/><path id="path404" class="cls-22" d="M281.24,353a12.81,12.81,0,0,1,4.65.4h.05a14.06,14.06,0,0,1,3.24,1.32v-.09a4.38,4.38,0,0,0,2.58-1,3.24,3.24,0,0,0,1-2.23,2.5,2.5,0,0,0-1.43-2.23,10.27,10.27,0,0,0-4.45-1.16,11.28,11.28,0,0,0-5,.66c-1.24.5-2,1.24-2.09,2.1a1.71,1.71,0,0,0,.32,1.11,4,4,0,0,0,1.19,1.09Z" transform="translate(-0.86 0.06)"/><path id="path420" class="cls-23" d="M281.59,348.14a12,12,0,0,1,5.28-.7,12.63,12.63,0,0,1,3.85.81,2.14,2.14,0,0,0,1.21-.88,2.58,2.58,0,0,0,.32-1.68,2.86,2.86,0,0,0-1.83-2.23,8.75,8.75,0,0,0-4.41-.58,12.53,12.53,0,0,0-5.22,1.62c-1.3.78-2.14,1.72-2.07,2.57a1.58,1.58,0,0,0,.52,1.05,2.75,2.75,0,0,0,1.25.6,6,6,0,0,1,1.1-.58Z" transform="translate(-0.86 0.06)"/><path id="path436" class="cls-24" d="M280.48,344a13.39,13.39,0,0,1,5.48-1.71,11.12,11.12,0,0,1,3.52.22,2.33,2.33,0,0,0,1-1.65,5.19,5.19,0,0,0-.26-2.71,2.46,2.46,0,0,0-2.26-1.36,10.17,10.17,0,0,0-4.51.93,12.73,12.73,0,0,0-4.37,2.84c-1,1-1.43,2-1.11,2.82a1.36,1.36,0,0,0,.77.77,2.47,2.47,0,0,0,1.38.06l.32-.21Z" transform="translate(-0.86 0.06)"/><path id="path452" class="cls-25" d="M278.74,340a13.73,13.73,0,0,1,4.52-2.91,12.75,12.75,0,0,1,3.84-1,2.23,2.23,0,0,0,1.13-1.39,3.55,3.55,0,0,0-.28-2.18,2.46,2.46,0,0,0-2.26-1.36,10.17,10.17,0,0,0-4.51.93l-.63.28a10.81,10.81,0,0,0-3.83,3c-.83,1.1-1.2,2.21-.87,3l0,.08a2.88,2.88,0,0,0,1.3,1.28A2.26,2.26,0,0,0,278.74,340Z" transform="translate(-0.86 0.06)"/><path id="path468" class="cls-26" d="M276.23,335.08a11.43,11.43,0,0,1,4-3.21c.22-.11.45-.21.67-.3a14.55,14.55,0,0,1,2.42-.77,3.6,3.6,0,0,0,1-2.23,3.38,3.38,0,0,0-.48-1.67l-.06-.11a2.58,2.58,0,0,0-2.17-1.16,7.42,7.42,0,0,0-3.91,1.11l-.62.36a8.18,8.18,0,0,0-.69.45,12.12,12.12,0,0,0-3.51,3.49c-.69,1.13-.91,2.21-.42,3l.05.08a3,3,0,0,0,1.67,1.23,3,3,0,0,0,2-.26Z" transform="translate(-0.86 0.06)"/><path id="path484" class="cls-27" d="M276.08,327c.23-.16.47-.32.72-.47l.64-.37a11.4,11.4,0,0,1,2.14-.91,4.79,4.79,0,0,0,.76-1.94,2.82,2.82,0,0,0-.31-1.74l-.06-.1a2.46,2.46,0,0,0-2.12-1.12,7.63,7.63,0,0,0-3.86,1.13l-.67.39a16,16,0,0,0-1.47,1,10.27,10.27,0,0,0-2.82,3.23,2.85,2.85,0,0,0-.16,2.82l.15.22a2.61,2.61,0,0,0,1.74,1.11,6,6,0,0,0,2.1-.29,13.93,13.93,0,0,1,3.22-3Z" transform="translate(-0.86 0.06)"/><path id="path500" class="cls-28" d="M271.47,322.46a15.43,15.43,0,0,1,1.53-1.07c.23-.15.46-.28.69-.4a11.65,11.65,0,0,1,1.77-.8,4.93,4.93,0,0,0,.84-2,2.62,2.62,0,0,0-.27-1.72,2.33,2.33,0,0,0-.17-.26,2.52,2.52,0,0,0-2-1,6.28,6.28,0,0,0-3.33.91,14.44,14.44,0,0,0-1.47.95l-.24.18a14.83,14.83,0,0,0-3.78,3.89c-.69,1.18-.84,2.26-.22,3.1l0,0a2.71,2.71,0,0,0,1.82,1.18,5,5,0,0,0,2.22-.34,11.73,11.73,0,0,1,2.56-2.7Z" transform="translate(-0.86 0.06)"/><path id="path517" class="cls-29" d="M226.89,320.12a26.58,26.58,0,0,0-5.44-6c-3.06-2.69-5.17-4-6.69-4.48a3,3,0,0,0-3,.34l0,0a2.56,2.56,0,0,0-.75,2,5.09,5.09,0,0,0,1.2,3.13l.11.13a14.88,14.88,0,0,1,4.69,2.39,25.84,25.84,0,0,1,2.07,1.62c1.47,1.24,2.68,2.32,3.65,3.27h0l.06.06c.3.3.58.58.83.85a3.57,3.57,0,0,0,2,1.08,1.93,1.93,0,0,0,1.62-.83c.63-.75.67-1.88-.3-3.56Z" transform="translate(-0.86 0.06)"/><path id="path534" class="cls-30" d="M222.33,323c-1-.95-2.18-2-3.66-3.29q-1.08-.92-2-1.59a12.19,12.19,0,0,0-5.4-2.47,2.91,2.91,0,0,0-2.69.85l-.12.14a2.45,2.45,0,0,0-.43,1.82,5.53,5.53,0,0,0,1.51,2.72l.4.16a18,18,0,0,1,2.67,1.38,26.68,26.68,0,0,1,2.8,1.95l1.1.87a41.51,41.51,0,0,1,3.22,2.72l0,0a10.15,10.15,0,0,0,4,1.26,1.56,1.56,0,0,0,1.54-.84c.44-.8.29-1.74-.66-3.09a15.38,15.38,0,0,0-1.43-1.71c-.26-.24-.53-.52-.82-.84Z" transform="translate(-0.86 0.06)"/><path id="path536" class="cls-4" d="M176.06,280c-.71,5.05-1,22.47,2.9,32,3.38,8.21,4.22,9.86,4.76,14.41.7,5.94-1.25,9-4,12.29a15.84,15.84,0,0,1-8.26,5.42" transform="translate(-0.86 0.06)"/><path id="path538" class="cls-9" d="M179,312c-3.72-9-3.63-25.14-3-31.1a117.82,117.82,0,0,0-6.81,17.16,70.86,70.86,0,0,0-3.2,20.05c0,8.43,1.16,14.91,3.06,20.06a36.23,36.23,0,0,0,2.78,5.86,15.89,15.89,0,0,0,7.95-5.33c2.74-3.29,4.69-6.35,4-12.29C183.18,321.86,182.34,320.21,179,312Z" transform="translate(-0.86 0.06)"/><path id="path540" class="cls-4" d="M235.42,334.59v4.76c-19.74,2.75-37.9-11.28-40.31-24.48a12.12,12.12,0,0,1,.52-7.46c.33-1,0-1.19-.43-1.37a8.67,8.67,0,0,0-7.33,1,6.65,6.65,0,0,0-2.67,6.12c1.16,6.72,6.69,20.76,24.34,29.55,8.27,4.12,15.14,7.3,28.62,9-.22,1.29-1,2.09-1.34,3.19-.27.92-.55,2,.13,2.67,2.68,2.59,7.87,4.69,7.69,9.72" transform="translate(-0.86 0.06)"/><path id="path542" class="cls-4" d="M255.7,367.85c2.86-7.22-.83-12-4.54-14,10.71,1.17,18.59-4,27.39-9.15l8.13-12.55a10.54,10.54,0,0,0,6.51.34,2.83,2.83,0,0,0-1,2c-.13,1.58.49,2.16,1.49,2.3,1.59.22,2.61-.45,3.36-2.47a2.44,2.44,0,0,1,1.24-1.59c5.42-2.42,11.6-7.78,16.62-16.46.22-2.61.43-5.22.65-7.82,9.5-8.72,9.21-21.14,9.13-29.47" transform="translate(-0.86 0.06)"/><path id="path544" class="cls-6" d="M287,336.17a2.27,2.27,0,0,0,1.19-1.42,3.55,3.55,0,0,0-.28-2.18,2.46,2.46,0,0,0-2.26-1.36,10.17,10.17,0,0,0-4.51.93h0l-.63.28a10.81,10.81,0,0,0-3.83,3c-.83,1.1-1.2,2.21-.87,3h0a.59.59,0,0,1,0,.08,2.88,2.88,0,0,0,1.3,1.28h0a2.26,2.26,0,0,0,1.63.17l.16.59a2.83,2.83,0,0,1-2.06-.21h0a3.52,3.52,0,0,1-1.58-1.57l-.06-.12h0c-.42-1,0-2.37,1-3.63a11.43,11.43,0,0,1,4-3.21c.22-.11.44-.21.67-.3h0a11,11,0,0,1,4.79-1,3,3,0,0,1,2.77,1.74,4.07,4.07,0,0,1,.32,2.57,2.93,2.93,0,0,1-1.49,1.81Z" transform="translate(-0.86 0.06)"/><path id="path546" class="cls-4" d="M260.71,323.15c-6.51,1.6-9.84,4.32-11,5.48a4.09,4.09,0,0,0-1.18,3c.42,4,2.37,6.58,4.22,7.22a3.27,3.27,0,0,1,.68-1.64c2.45-2.84,7.23-3.68,10.27-3.8" transform="translate(-0.86 0.06)"/><path id="path548" class="cls-31" d="M260.44,323.22c-6.33,1.61-9.59,4.27-10.75,5.41a4.09,4.09,0,0,0-1.18,3c.42,4,2.37,6.58,4.22,7.22a3.27,3.27,0,0,1,.68-1.64c2.33-2.7,6.77-3.59,9.81-3.78a5.32,5.32,0,0,1-1.92-2.31,11.73,11.73,0,0,1-.87-4.76c0-.28,0-1.37,0-3.15Z" transform="translate(-0.86 0.06)"/><path id="path550" class="cls-31" d="M209.54,342.76c-17.65-8.79-23.18-22.83-24.34-29.55a6.65,6.65,0,0,1,2.67-6.12,8.67,8.67,0,0,1,7.33-1c.45.18.76.4.43,1.37a12.12,12.12,0,0,0-.52,7.46c2.41,13.2,20.57,27.23,40.31,24.48v-4.52a7.05,7.05,0,0,1-1.69.37,29,29,0,0,1-3.73.07c-1.26,0-2.5-.17-3.7-.3a43,43,0,0,1-10.3-2.45,40.3,40.3,0,0,1-9.16-4.86,18,18,0,0,1-4.09-3.63,6.53,6.53,0,0,1-1.23-5.43,17,17,0,0,1,1.82-5.1,12.22,12.22,0,0,1,2.63-3.25c-4.94-5.1-9.85-10.26-14.75-15.42s-9.76-10.27-14.61-15.28L176,280.9c-.62,6-.71,22.08,3,31.1,3.38,8.21,4.22,9.86,4.76,14.41.7,5.94-1.25,9-4,12.29a15.89,15.89,0,0,1-7.95,5.33,34,34,0,0,0,4.11,5.55c.27-.38.53-.78.8-1.18a21,21,0,0,1,2.75-3.57,5.55,5.55,0,0,1,3.69-1.7,6.86,6.86,0,0,1,4.12,1.31,91.71,91.71,0,0,0,9.58,5.56c3.32,1.68,6.76,3.21,10.39,4.75,5.61,2.37,11.24,4.51,17,6.35a146.41,146.41,0,0,0,17.43,4.46,9.85,9.85,0,0,1,2,.59,9.1,9.1,0,0,1,1,.49c-.3-4.53-5.13-6.54-7.68-9-.68-.66-.4-1.75-.13-2.67.33-1.1,1.12-1.9,1.34-3.19C224.68,350.06,217.81,346.88,209.54,342.76Z" transform="translate(-0.86 0.06)"/><path id="path552" class="cls-31" d="M278.55,344.7c-8.8,5.16-16.68,10.32-27.39,9.15,3.71,2,7.4,6.78,4.54,14,1-1,2.12-2,3.36-3,1.57-1.32,3.5-1.63,5.41-1.93.44-.07.88-.14,1.37-.24,2.46-.48,4.89-1,7.3-1.55s4.64-1.15,6.93-1.87a9.61,9.61,0,0,1-.9-.68c-1.18-1-1.76-2.22-1.47-3.29a3.3,3.3,0,0,1,2.72-2.07,4.15,4.15,0,0,1-.87-.92,2.28,2.28,0,0,1,.36-3.07,2.94,2.94,0,0,1-1.09-.62,2.17,2.17,0,0,1-.71-1.45,2.9,2.9,0,0,1,1.16-2.27,2.71,2.71,0,0,1-.72-.15Z" transform="translate(-0.86 0.06)"/><path id="path554" class="cls-31" d="M291.6,348.69a3,3,0,0,1,1.72,2.78,3.75,3.75,0,0,1-1.15,2.65,4.65,4.65,0,0,1-2.31,1.07,6.45,6.45,0,0,1,.63.47l.69-.25a125.57,125.57,0,0,0,12.9-5.22A58,58,0,0,0,315,343.45a3.75,3.75,0,0,1,3.35-.72,8.55,8.55,0,0,1,3.2,1.66l1.89,1.44,2.87,2.21a110.13,110.13,0,0,0,6.55-15.86,55.42,55.42,0,0,0,2.7-17.47,61.33,61.33,0,0,0-3.2-18.32,76.47,76.47,0,0,0-7.66-16.13c.08,8.28-.1,19.93-9.14,28.23l-.65,7.82c-5,8.68-11.2,14-16.62,16.46a2.44,2.44,0,0,0-1.24,1.59c-.75,2-1.77,2.69-3.36,2.47-1-.14-1.62-.72-1.49-2.3a2.83,2.83,0,0,1,1-2,10.81,10.81,0,0,1-4.53.21,3.85,3.85,0,0,1,.17,2.2,2.78,2.78,0,0,1-.73,1.25,3,3,0,0,1,2.72,1.73,5.83,5.83,0,0,1,.31,3.07,3.17,3.17,0,0,1-.92,1.76l.47.19a3.46,3.46,0,0,1,2.18,2.73,3.23,3.23,0,0,1-.41,2.07,2.55,2.55,0,0,1-1,.9l.14.09Z" transform="translate(-0.86 0.06)"/><path id="path556" class="cls-9" d="M251.16,353.85c10.71,1.17,18.59-4,27.39-9.15a2,2,0,0,1-1.11-1.12,3,3,0,0,1,.72-2.88,3,3,0,0,1-1.24-.3,3.52,3.52,0,0,1-1.58-1.57l-.06-.12a3.29,3.29,0,0,1,.39-2.77,3.2,3.2,0,0,1-1.6,0,3.4,3.4,0,0,1-1.64-1l-.42,0a21.8,21.8,0,0,1-3.89-.06,16.82,16.82,0,0,1-3.73-.88,5.34,5.34,0,0,1-1.17-.59c-3,.19-7.48,1.08-9.81,3.77a3.33,3.33,0,0,0-.68,1.65c-1.85-.64-3.8-3.24-4.22-7.22a4.09,4.09,0,0,1,1.18-3c1.16-1.14,4.42-3.8,10.75-5.41,0-10.9.13-47.61.22-80.3,0-3.75,0-7.44,0-11a15.6,15.6,0,0,1-2,.43c-2.36.35-4.12-.09-5.06-1.67a3.29,3.29,0,0,1-.43-2.61,5,5,0,0,1-1.73.3,3.4,3.4,0,0,1-2.12-.76c-1.48-1.19-1.68-2.82-.82-4.88a16.08,16.08,0,0,1,2-3.35,12,12,0,0,1-2.94,1.74,4,4,0,0,1-4.39-.71c-1.54-1.28-1.61-2.86-.58-4.83a21.26,21.26,0,0,1,3.21-4.25,15,15,0,0,1-4.75,2.9l-.13,0-.27,112.37a9.54,9.54,0,0,1-2,5.88,7.29,7.29,0,0,1-3.28,2.35v4.52c-19.74,2.75-37.9-11.28-40.31-24.48a12.12,12.12,0,0,1,.52-7.46c.33-1,0-1.19-.43-1.37a8.67,8.67,0,0,0-7.33,1,6.65,6.65,0,0,0-2.67,6.12c1.16,6.72,6.69,20.76,24.34,29.55,8.27,4.12,15.14,7.3,28.62,9-.22,1.29-1,2.09-1.34,3.19-.27.92-.55,2,.13,2.67,2.55,2.47,7.38,4.48,7.68,9,.27.16.54.33.8.52a12.9,12.9,0,0,1,3.18,3.57,31.77,31.77,0,0,1,2.29,4.32,21.9,21.9,0,0,1,3.06-5.23,23.12,23.12,0,0,1,1.74-2c2.86-7.22-.83-12-4.54-14Z" transform="translate(-0.86 0.06)"/><path id="path558" class="cls-9" d="M288.51,332.33c.05.11.1.24.15.37a10.81,10.81,0,0,0,4.53-.21,2.83,2.83,0,0,0-1,2c-.13,1.58.49,2.16,1.49,2.3,1.59.22,2.61-.45,3.36-2.47a2.44,2.44,0,0,1,1.24-1.59c5.42-2.42,11.6-7.78,16.62-16.46l.65-7.82c9-8.3,9.22-19.95,9.14-28.23l-.42-.68A99.35,99.35,0,0,0,309.68,294c-4.75,5.6-9.33,11.74-13.9,17.94a12.81,12.81,0,0,1,2.28,3.84,10.58,10.58,0,0,1,.59,4.15,5.87,5.87,0,0,1-1.78,3.79l-.05.06c-2.55,2.49-5.47,5.35-9.61,6.93l-.31.12a2.67,2.67,0,0,1,1.61,1.49Z" transform="translate(-0.86 0.06)"/><path id="path560" class="cls-9" d="M255.43,202.91c2.11-1.18,3.81-1.37,4.94-.29a4.36,4.36,0,0,1,.41.46c0-8.83,0-15,.05-16.59l-1.2,0c-4.81.18-9.66.17-14.75-.09l-1.22-.06a5.7,5.7,0,0,1-.23.7,15.69,15.69,0,0,1-3.27,4.65,12.78,12.78,0,0,1,3.78-1.85,3.47,3.47,0,0,1,3.41.58c1.09,1.05,1.44,2.51.67,4.58a18,18,0,0,1-2.73,4.5,22.37,22.37,0,0,1,4.21-3.09c2-1.05,3.55-1.11,4.68,0a3.4,3.4,0,0,1,.75,4.18,21.5,21.5,0,0,1-4,5.67,26.86,26.86,0,0,1,4.51-3.37Z" transform="translate(-0.86 0.06)"/><path id="path562" class="cls-9" d="M260.77,207.59a21.44,21.44,0,0,1-2.67,4,22.35,22.35,0,0,1,2.66-1.75c0-.78,0-1.55,0-2.3Z" transform="translate(-0.86 0.06)"/><path id="path578" class="cls-32" d="M281.53,360.05l-.87.28q-2.39.75-4.8,1.36c.3.29.62.58.95.87a24.8,24.8,0,0,0,2.14,1.6l.44.28a10.18,10.18,0,0,0,4.2,1.28c1.31.08,2.4-.15,2.81-.74l0-.05a1.85,1.85,0,0,0,0-1.61,6.6,6.6,0,0,0-1.49-2.17c-.31-.06-.62-.13-.94-.22h0a14.72,14.72,0,0,1-2.4-.87Z" transform="translate(-0.86 0.06)"/><path id="path590" class="cls-33" d="M278.6,364.67a26,26,0,0,1-2.18-1.65,15.49,15.49,0,0,1-1.25-1.15c-.58.14-1.16.29-1.75.42-.9.21-1.81.42-2.72.61a11.36,11.36,0,0,0,.83,2,8.36,8.36,0,0,0,1.31,1.89l.37.36a10.16,10.16,0,0,0,3.84,2.13c1.26.36,2.38.37,2.9-.13l.05,0a1.88,1.88,0,0,0,.31-1.57,6.79,6.79,0,0,0-1-2.39l-.26-.15-.48-.3Z" transform="translate(-0.86 0.06)"/><path id="path599" class="cls-34" d="M272.22,367a9.8,9.8,0,0,1-1.24-1.83,13.07,13.07,0,0,1-.89-2.13c-1.33.29-2.67.55-4,.82H266c0,.29.08.57.13.85a12.6,12.6,0,0,0,.38,1.35,8.27,8.27,0,0,0,.65,1.42,7.53,7.53,0,0,0,2.09,2.35,2.32,2.32,0,0,0,2,.55.88.88,0,0,0,.2-.09,1.85,1.85,0,0,0,.9-1.12,4.28,4.28,0,0,0-.11-2.18Z" transform="translate(-0.86 0.06)"/><path id="path608" class="cls-35" d="M266.42,367.4a8.16,8.16,0,0,1-.49-1.14,12.81,12.81,0,0,1-.4-1.43c-.06-.28-.1-.57-.14-.86l-.73.12a14.24,14.24,0,0,0-3.5.86h.19a8.21,8.21,0,0,0,.18,1.84,5.48,5.48,0,0,0,1.27,2.59,2.48,2.48,0,0,0,1.73.9,2.07,2.07,0,0,0,.35,0,1.76,1.76,0,0,0,1.17-.77,3.55,3.55,0,0,0,.37-2.08Z" transform="translate(-0.86 0.06)"/><path id="path625" class="cls-36" d="M216.43,331.37a40,40,0,0,0,5.07,1.53c0-2.55-2.43-4.51-5.41-6.87l-1.1-.87a26.12,26.12,0,0,0-2.74-1.9,16.88,16.88,0,0,0-2.57-1.34,6.49,6.49,0,0,0-2.6-.58,2.41,2.41,0,0,0-1.77.84,2.05,2.05,0,0,0-.39,1.3,6.26,6.26,0,0,0,.12,1.23,26.07,26.07,0,0,0,2.51,1.94,39.06,39.06,0,0,0,8.88,4.72Z" transform="translate(-0.86 0.06)"/><path id="path645" class="cls-37" d="M264.51,237.42c1.14,0,2.38,0,3.69-.14s2.27-.17,3.25-.31a15.45,15.45,0,0,0,6.49-2,3.13,3.13,0,0,0,1.61-2.82l0-.24c-.15-1.08-1.25-1.95-3.06-2.53a23.23,23.23,0,0,0-7.67-.77c-.54.28-1.11.55-1.72.82a53,53,0,0,1-5.15,2.08c0,1.91,0,3.86,0,5.82.8.07,1.67.09,2.6.09Z" transform="translate(-0.86 0.06)"/><path id="path665" class="cls-38" d="M268.24,237.9c-1.32.08-2.56.13-3.73.13-.92,0-1.8,0-2.6-.08,0,1.64,0,3.3,0,5,0,1.26,0,2.53,0,3.8a23.57,23.57,0,0,0,2.68.71c1.18.25,2.47.45,3.85.6l.25,0,0-.06.2.09,1.68.12c3.66.19,6.14-.25,7.73-1a3.87,3.87,0,0,0,2.35-3.06l0-.21c.07-1.33-1.15-2.69-3.3-3.8a23.54,23.54,0,0,0-8.7-2.18v0l-.43,0Z" transform="translate(-0.86 0.06)"/><path id="path685" class="cls-39" d="M268.91,248.75l-.17-.07-.39,0c-1.41-.15-2.72-.35-3.92-.6-.92-.2-1.77-.42-2.55-.67q0,3.52,0,7.08l.21.17.65.52c.28.17.57.34.87.5.82.46,1.7.93,2.62,1.39,4.07,2.06,6.94,3,8.93,3.09a3.28,3.28,0,0,0,3.55-2l0,0c.55-1.31-.15-2.86-1.81-4.46a28.16,28.16,0,0,0-8-4.87Z" transform="translate(-0.86 0.06)"/><path id="path695" class="cls-40" d="M268.34,262.35a25.27,25.27,0,0,0-6-6.7l-.51-.31c0,4,0,7.91,0,11.82a9.19,9.19,0,0,0,4.18,1.26,3.54,3.54,0,0,0,3-1.34C269.74,266.08,269.49,264.38,268.34,262.35Z" transform="translate(-0.86 0.06)"/><path id="path711" class="cls-41" d="M266.6,311a6.7,6.7,0,0,1-1.9,3.05,11.3,11.3,0,0,1-.93.83c-.4.32-.8.62-1.19.89l-.9.61c0,1.27,0,2.43,0,3.49a2.44,2.44,0,0,0,1.36.46,5.61,5.61,0,0,0,2-.4l.05.13a17.7,17.7,0,0,1,3.36-3.23l.24-.18a14.08,14.08,0,0,1,1.54-1,8.37,8.37,0,0,1,1.23-.57h0a5.32,5.32,0,0,0,.9-2.06,2.68,2.68,0,0,0-.28-1.72v0a2.44,2.44,0,0,0-1.94-1.18,6.08,6.08,0,0,0-3.52.9Z" transform="translate(-0.86 0.06)"/><path id="path720" class="cls-42" d="M264.27,313.6a5.7,5.7,0,0,0,1.82-3.18,3,3,0,0,0-.6-2.31l-.19-.22a2.32,2.32,0,0,0-1.49-.66,5.24,5.24,0,0,0-2.11.3c0,3,0,5.72,0,8.1l.54-.37c.39-.27.78-.56,1.16-.87a10,10,0,0,0,.89-.79Z" transform="translate(-0.86 0.06)"/></g><path id="path723" class="cls-2" d="M443.06,175.61q-6.62,1.8-8.83,5.06a9.69,9.69,0,0,0,3.62,13.48c2.33,1.08,5.92.95,10.82-.39q6.16-1.69,8.32-5a8.85,8.85,0,0,0,1-7.54,8.55,8.55,0,0,0-4.69-5.78Q449.73,173.77,443.06,175.61Zm-3.66-13.5q10.69-2.93,18.28,1.41t10.51,15q3,10.91-1.25,18.42t-14.8,10.39c-5.11,1.39-9.52,1.68-13.26.86a19.24,19.24,0,0,1-9.67-5.37,25.57,25.57,0,0,1-6-11.42,29.05,29.05,0,0,1-1-12.88,19.16,19.16,0,0,1,5.31-9.89Q431.73,164.22,439.4,162.11Z" transform="translate(-0.86 0.06)"/><path id="path725" class="cls-2" d="M418.79,93.91,427,104.05l-8.69,29,19.41-15.79,8.34,10.26L411,156.08l-8.35-10.26L411.25,117l-19.31,15.7-8.3-10.21Z" transform="translate(-0.86 0.06)"/><path id="path727" class="cls-2" d="M388.05,66.65l11.08,8.64L371.27,111l-11.08-8.64Z" transform="translate(-0.86 0.06)"/><path id="path729" class="cls-2" d="M334.74,57.1l5.4,2.43a21.94,21.94,0,0,0,3.64.95,3.61,3.61,0,0,0,2.65-.37,4.59,4.59,0,0,0,2-5.69c-.52-1.11-1.95-2.17-4.29-3.22l-5.62-2.53ZM310.91,75.89l18.55-41.34,21.29,9.55a33.5,33.5,0,0,1,8.59,5.08,10.62,10.62,0,0,1,3.36,6,12.5,12.5,0,0,1-1.1,7.58,12.17,12.17,0,0,1-10,7.52,17.18,17.18,0,0,1-5.22-.37A13.31,13.31,0,0,1,349,73,14.67,14.67,0,0,1,350.09,76a16.72,16.72,0,0,1,.62,3.36l.85,14.73-14.43-6.47L336,72a10.61,10.61,0,0,0-.88-4.22,5.9,5.9,0,0,0-2.71-2.36l-1.13-.51-7.51,16.75Z" transform="translate(-0.86 0.06)"/><path id="path731" class="cls-2" d="M283.08,51.56l-2.72-16.8-7.11,15.47Zm1.61,10.12L269,59.55l-3.26,7.09-14.16-1.92,23-42.61,15.19,2.06,10.73,47.18-14.52-2Z" transform="translate(-0.86 0.06)"/><path id="path733" class="cls-2" d="M183.35,28.92l18.24-3,11.35,26.09,2.56-28.35,18.14-2.94,7.25,44.74-11.31,1.83-5.52-34.1-3.2,35.51-10.25,1.66L196.38,37.72l5.53,34.1L190.6,73.65Z" transform="translate(-0.86 0.06)"/><path id="path735" class="cls-2" d="M140.35,87.22l11.18-7.41,7,10.49-11.18,7.42Z" transform="translate(-0.86 0.06)"/><path id="path737" class="cls-2" d="M92.18,100l17.69,17.31,2.4-2.46q3.08-3.15,3.69-5.16a6.65,6.65,0,0,0-.39-4.46c-.67-1.64-2.29-3.71-4.89-6.25q-5.15-5-8.68-5.21c-2.37-.12-4.82,1.12-7.37,3.72ZM75.07,102.8,89.63,87.93A24.93,24.93,0,0,1,97.77,82a16.31,16.31,0,0,1,7.8-1.12,19.84,19.84,0,0,1,7.7,2.52,33.52,33.52,0,0,1,7,5.34q5.19,5.08,6.89,9.06a18.63,18.63,0,0,1,1.59,8,15.05,15.05,0,0,1-1.83,7,32.58,32.58,0,0,1-5,6.82L107.46,134.5Z" transform="translate(-0.86 0.06)"/><path id="path739" class="cls-2" d="M80.83,151.88l6.92-11.49,10.79,6.49-6.92,11.5Z" transform="translate(-0.86 0.06)"/><path id="path741" class="cls-2" d="M63.22,175l8.19-9.86a22.34,22.34,0,0,1,6.42,7,16.83,16.83,0,0,1,2.23,8.11,24.88,24.88,0,0,1-2.29,9.93,29.2,29.2,0,0,1-6.69,10.29,19.14,19.14,0,0,1-10.1,4.5c-4.2.68-8.9-.07-14.06-2.26q-10.35-4.38-13.58-12.24t1-18q3.34-7.87,8.44-11.05c3.4-2.1,7.61-3,12.64-2.55l-2.3,12.43a10.34,10.34,0,0,0-3.3.08,8.11,8.11,0,0,0-3.38,1.69,8.36,8.36,0,0,0-2.29,3.17,8.26,8.26,0,0,0,.67,8.22c1.24,1.91,3.73,3.67,7.45,5.24,4.62,2,8.07,2.6,10.39,1.92a7.86,7.86,0,0,0,5.07-4.84q1.57-3.71.29-6.48a13.93,13.93,0,0,0-4.85-5.3Z" transform="translate(-0.86 0.06)"/><path id="path743" class="cls-2" d="M443.82,350.61l2-5.81a7.23,7.23,0,0,0,4.94-.17A6.8,6.8,0,0,0,454,341.1a7,7,0,0,0,.76-4.65,3.72,3.72,0,0,0-2-2.62,2.8,2.8,0,0,0-1.94-.19,5.1,5.1,0,0,0-2.13,1.5c-.54.55-1.63,1.88-3.3,4-2.15,2.69-4,4.4-5.7,5.13a7.94,7.94,0,0,1-10.18-3,8.34,8.34,0,0,1-1.19-4.8,15.6,15.6,0,0,1,1.58-6q2.44-5.29,6-6.9a9,9,0,0,1,7.46,0l-2.44,5.8a5.31,5.31,0,0,0-3.8.14,6.32,6.32,0,0,0-2.58,3.15,7,7,0,0,0-.77,4.31,2.22,2.22,0,0,0,1.31,1.7,2.3,2.3,0,0,0,2.07-.08q1.4-.66,4.26-4.36a30.66,30.66,0,0,1,4.81-5.21,8.72,8.72,0,0,1,4.25-1.81,9.43,9.43,0,0,1,8.76,4.3,8.81,8.81,0,0,1,1.33,5.23,17.86,17.86,0,0,1-1.82,6.61q-2.46,5.34-6.2,7.09a11.51,11.51,0,0,1-8.62.18Z" transform="translate(-0.86 0.06)"/><path id="path745" class="cls-2" d="M436.32,358.65l-11.84-2.37,7.3,9.56Zm16.35-3.27-3.62,5.72-7.29-1.43-6.65,10.53,4.49,5.89-3.55,5.62-19.32-26.45,3.54-5.62Z" transform="translate(-0.86 0.06)"/><path id="path747" class="cls-2" d="M423,380.87l5.28-3.52a13.78,13.78,0,0,1-10.25,21.47q-5.73.42-11.28-4.15-5.87-4.85-6.57-10.62a13.89,13.89,0,0,1,3.46-10.8,13,13,0,0,1,8.45-5,11.91,11.91,0,0,1,6.36,1.13l-2.84,5.7a6.46,6.46,0,0,0-4.34-.61,6.71,6.71,0,0,0-3.76,2.41,7.12,7.12,0,0,0-1.7,5.87c.34,2.14,1.9,4.36,4.7,6.67q4.45,3.67,7.69,3.6a7,7,0,0,0,5.4-2.69,6.38,6.38,0,0,0,1.54-4.32,9,9,0,0,0-2.14-5.11Z" transform="translate(-0.86 0.06)"/><path id="path749" class="cls-2" d="M410.91,411.35l-22.2-20.85,4.3-4.58,22.21,20.85Z" transform="translate(-0.86 0.06)"/><path id="path751" class="cls-2" d="M381.62,413.86l3.49-3.06a24,24,0,0,0,4-4,3.42,3.42,0,0,0,.47-2.12,3.94,3.94,0,0,0-1-2.15,3.65,3.65,0,0,0-2.28-1.31,3.83,3.83,0,0,0-2.55.65c-.43.29-1.61,1.27-3.51,2.94L376.52,408Zm6.85,17.35-20.07-22.9,9.93-8.71a23.12,23.12,0,0,1,6-4.15,7.15,7.15,0,0,1,4.64-.19,8.61,8.61,0,0,1,4.18,2.72,8.08,8.08,0,0,1,2.2,5.61,9.92,9.92,0,0,1-2.75,6.15,14,14,0,0,1,4.19-.28,33.49,33.49,0,0,1,5.94,1.37l6.76,2-5.63,4.94-7.77-2a39.29,39.29,0,0,0-5.43-1.17,4.77,4.77,0,0,0-2.25.29,10.49,10.49,0,0,0-2.62,1.84l-.95.83,8.38,9.57Z" transform="translate(-0.86 0.06)"/><path id="path753" class="cls-2" d="M364.73,447,348,421.56,367.25,409l2.83,4.3-14,9.16,3.71,5.65,13-8.51,2.82,4.31-13,8.51,4.53,6.9,14.47-9.49,2.82,4.31Z" transform="translate(-0.86 0.06)"/><path id="path755" class="cls-2" d="M333.12,462.4l-13-27.53,8.51-4,13.92,16.39-3.92-21.13,8.53-4,13,27.53-5.25,2.49-10.29-21.66,4.74,24.29-5.46,2.58-15.77-19.06,10.24,21.68Z" transform="translate(-0.86 0.06)"/><path id="path757" class="cls-2" d="M316.72,455l-7.21-9.68-1,12Zm14.34,8.51-6.51,1.83-4.47-5.94-12,3.38-.6,7.37L301.1,472l3.33-32.59,6.4-1.8Z" transform="translate(-0.86 0.06)"/><path id="path759" class="cls-2" d="M258.23,467l6.07-.93a7.25,7.25,0,0,0,2.47,4.29,6.83,6.83,0,0,0,4.6,1.17,7.06,7.06,0,0,0,4.47-1.5,3.73,3.73,0,0,0,1.37-3,2.77,2.77,0,0,0-.74-1.8,5.15,5.15,0,0,0-2.32-1.19c-.74-.22-2.42-.56-5.06-1.06q-5.07-1-7.2-2.64a7.9,7.9,0,0,1-3.17-6,7.8,7.8,0,0,1,1.09-4.43,8.42,8.42,0,0,1,3.7-3.3,15.79,15.79,0,0,1,6-1.39q5.82-.32,8.9,2.06a8.94,8.94,0,0,1,3.45,6.6l-6.27.56a5.24,5.24,0,0,0-1.89-3.3,6.4,6.4,0,0,0-4-.82,7.18,7.18,0,0,0-4.18,1.34,2.24,2.24,0,0,0-.88,1.95,2.33,2.33,0,0,0,1,1.8q1.23.92,5.85,1.73a30.67,30.67,0,0,1,6.85,1.82,8.68,8.68,0,0,1,3.59,2.91,9.06,9.06,0,0,1,1.5,4.78,8.87,8.87,0,0,1-1.22,5,8.76,8.76,0,0,1-4,3.61,17.51,17.51,0,0,1-6.69,1.48q-5.86.31-9.17-2.17a11.49,11.49,0,0,1-4.18-7.54Z" transform="translate(-0.86 0.06)"/><path id="path761" class="cls-2" d="M247.33,465.09l-3.87-11.43-4.63,11.1Zm11,12.52-6.77-.26-2.41-7-12.45-.48-2.84,6.83-6.65-.26,13.23-30,6.64.26Z" transform="translate(-0.86 0.06)"/><path id="path763" class="cls-2" d="M205.23,472.73l5-29.79,6.2,1.05-4.16,24.71,15.35,2.59-.86,5.07Z" transform="translate(-0.86 0.06)"/><path id="path765" class="cls-2" d="M161.57,459l11.19-28.32,21.38,8.44-1.89,4.79-15.53-6.14-2.49,6.29,14.44,5.71-1.89,4.79-14.44-5.71-3,7.68,16.09,6.35-1.89,4.79Z" transform="translate(-0.86 0.06)"/><path id="path767" class="cls-2" d="M151.85,425.94l-9.63,17.72,4.09,2.22a17,17,0,0,0,3.46,1.55,5.66,5.66,0,0,0,2.82.09,6.35,6.35,0,0,0,2.84-1.8,19.35,19.35,0,0,0,3.22-4.6,17.87,17.87,0,0,0,2-5.06,7,7,0,0,0-.15-3.44,6,6,0,0,0-1.85-2.64,29.52,29.52,0,0,0-4.37-2.7Zm-3.06-7.52,10,5.46a22.29,22.29,0,0,1,4.9,3.33,10.21,10.21,0,0,1,2.76,4.69,13.15,13.15,0,0,1,.25,5.75,22.3,22.3,0,0,1-2.55,6.81,19.85,19.85,0,0,1-3.93,5.24,13.37,13.37,0,0,1-5.49,3.14,11,11,0,0,1-5,0,19.25,19.25,0,0,1-5.17-2.08l-10.35-5.63Z" transform="translate(-0.86 0.06)"/><path id="path769" class="cls-2" d="M117.4,418.8l3.84-11.44-10.41,6Zm1.2,16.63-5.23-4.3,2.33-7.06-9.61-7.91-6.4,3.71-5.13-4.22,28.66-15.86,5.13,4.22Z" transform="translate(-0.86 0.06)"/><path id="path771" class="cls-2" d="M85.88,406l9.38-8.73,5.16-20.35,5,5.38-3.83,13.59,13.7-3,4.92,5.28-20.7,3.71-9.36,8.71Z" transform="translate(-0.86 0.06)"/><path id="path773" class="cls-2" d="M83.24,385.24l6.19-10.36L78,378.56Zm-2.39,16.5-4.19-5.32,3.8-6.39-7.7-9.79-7.05,2.26-4.11-5.23L93,367.92l4.11,5.22Z" transform="translate(-0.86 0.06)"/><path id="path775" class="cls-2" d="M51,358l26.36-14.73,3.07,5.49L58.59,361l7.59,13.59-4.49,2.51Z" transform="translate(-0.86 0.06)"/><path id="path777" class="cls-2" d="M64.36,327.46,56.45,331l1.4,3.12a16.45,16.45,0,0,0,2.47,4.3,4,4,0,0,0,2.17,1.16,4,4,0,0,0,2.46-.33,3.91,3.91,0,0,0,2.1-2,4.34,4.34,0,0,0,.21-2.85,30.11,30.11,0,0,0-1.66-4.19ZM38.7,332.11l27.78-12.5,4.12,9.17a36,36,0,0,1,2.64,7,8.19,8.19,0,0,1-.88,5.3,9.43,9.43,0,0,1-4.68,4.08,9.8,9.8,0,0,1-4.72,1A8.45,8.45,0,0,1,59.14,345a9.24,9.24,0,0,1-2.65-2.36,37.34,37.34,0,0,1-3.06-5.74l-1.67-3.72-10.48,4.72Z" transform="translate(-0.86 0.06)"/><path id="path779" class="cls-2" d="M353,408.65l5.67-3.65-1.69,8.61-2.93,2Z" transform="translate(-0.86 0.06)"/><g id="Layer1008"><path id="path781" class="cls-2" d="M74,73.05A249.62,249.62,0,1,1,.86,249.56,248.88,248.88,0,0,1,74,73.05ZM250.47,9.8A239.75,239.75,0,1,0,420,80,239,239,0,0,0,250.47,9.8Z" transform="translate(-0.86 0.06)"/></g><path id="path784" class="cls-43" d="M250.47,8.57A241,241,0,1,0,420.88,79.15,240.23,240.23,0,0,0,250.47,8.57ZM74.84,73.92A248.39,248.39,0,1,1,2.09,249.56,247.65,247.65,0,0,1,74.84,73.92Z" transform="translate(-0.86 0.06)"/><path id="path786" class="cls-4" d="M250.47,13.92c-130.13,0-235.63,105.5-235.63,235.64s105.5,235.63,235.63,235.63,235.64-105.5,235.64-235.63S380.61,13.92,250.47,13.92Z" transform="translate(-0.86 0.06)"/><path id="path788" class="cls-2" d="M14.84,249.56c0-130.14,105.5-235.64,235.63-235.64s235.64,105.5,235.64,235.64S380.61,485.19,250.47,485.19,14.84,379.69,14.84,249.56ZM250.47,9.8A239.75,239.75,0,1,0,420,80,239,239,0,0,0,250.47,9.8Z" transform="translate(-0.86 0.06)"/><path id="path790" class="cls-44" d="M46.92,202.67q-10.35-4.38-13.58-12.24t1-18q3.34-7.87,8.44-11.05c3.4-2.1,7.61-3,12.64-2.55l-2.3,12.43a10.34,10.34,0,0,0-3.3.08,8.11,8.11,0,0,0-3.38,1.69,8.36,8.36,0,0,0-2.29,3.17,8.26,8.26,0,0,0,.67,8.22c1.24,1.91,3.73,3.67,7.45,5.24,4.62,2,8.07,2.6,10.39,1.92a7.86,7.86,0,0,0,5.07-4.84q1.57-3.71.29-6.48a13.93,13.93,0,0,0-4.85-5.3l8.19-9.86a22.34,22.34,0,0,1,6.42,7,16.83,16.83,0,0,1,2.23,8.11,24.88,24.88,0,0,1-2.29,9.93,29.2,29.2,0,0,1-6.69,10.29,19.14,19.14,0,0,1-10.1,4.5c-4.2.68-8.9-.07-14.06-2.26Zm24.74,46.86A178.42,178.42,0,0,1,250.25,70.94l3.15,0a19.33,19.33,0,0,1,4.86-.41,19.83,19.83,0,0,1,5.54.89q8.28.63,16.35,2v-.05l1.06.23c4.69.82,9.32,1.83,13.88,3L306,79l-.17.78c2.45.8,4.87,1.65,7.28,2.56l.19-.53,6.34,2.3-.26.72c1.65.7,3.29,1.41,4.91,2.16q6.62,3,12.93,6.54l.82-.69,6.25,3.44-.15,1.32a180.46,180.46,0,0,1,18.68,13.29l1-1.06,4.83,4.41-.25,1.34q4.88,4.31,9.42,8.94l1-1,4.61,4.2L382.07,129q2,2.21,4,4.49,4.35,5.08,8.31,10.48a12,12,0,0,1,1.34.82,18.66,18.66,0,0,1,4.93,5.4,17.63,17.63,0,0,1,2.77,7.36,178.42,178.42,0,0,1,10.35,19.95,10.27,10.27,0,0,1,1.56,1.36,16.63,16.63,0,0,1,3.37,5.71q1.89,5,1.11,8.6A178.5,178.5,0,0,1,250.25,428.13a180.72,180.72,0,0,1-28.48-2.26A178.65,178.65,0,0,1,73.33,274.07a180.5,180.5,0,0,1-1.67-24.54Zm20-91.15-10.79-6.5,6.92-11.49,10.79,6.49Zm15.84-23.88L75.07,102.8,89.63,87.93A24.93,24.93,0,0,1,97.77,82a16.31,16.31,0,0,1,7.8-1.12,19.84,19.84,0,0,1,7.7,2.52,33.52,33.52,0,0,1,7,5.34q5.19,5.08,6.89,9.06a18.63,18.63,0,0,1,1.59,8,15.05,15.05,0,0,1-1.83,7,32.58,32.58,0,0,1-5,6.82Zm143-120.58c-130.13,0-235.63,105.5-235.63,235.64s105.5,235.63,235.63,235.63,235.64-105.5,235.64-235.63S380.61,13.92,250.47,13.92ZM147.31,97.72l-7-10.5,11.18-7.41,7,10.49ZM190.6,73.65l-7.25-44.73,18.24-3,11.35,26.09,2.56-28.35,18.14-2.94,7.25,44.74-11.31,1.83-5.52-34.1-3.2,35.51-10.25,1.66L196.38,37.72l5.53,34.1Zm161,20.48-14.43-6.47L336,72a10.61,10.61,0,0,0-.88-4.22,5.9,5.9,0,0,0-2.71-2.36l-1.13-.51-7.51,16.75-12.82-5.76,18.55-41.34,21.29,9.55a33.32,33.32,0,0,1,8.59,5.08,10.62,10.62,0,0,1,3.36,6,12.5,12.5,0,0,1-1.1,7.58,12.17,12.17,0,0,1-10,7.52,17.18,17.18,0,0,1-5.22-.37A13.31,13.31,0,0,1,349,73,14.67,14.67,0,0,1,350.09,76a16.72,16.72,0,0,1,.62,3.36ZM371.27,111l-11.08-8.64,27.86-35.74,11.08,8.64ZM411,156.08l-8.35-10.26L411.25,117l-19.31,15.7-8.3-10.21,35.15-28.59L427,104.05l-8.69,29,19.41-15.79,8.34,10.26Zm18.26,46.72a25.57,25.57,0,0,1-6-11.42,29.05,29.05,0,0,1-1-12.88,19.16,19.16,0,0,1,5.31-9.89c2.84-2.93,6.82-5.11,11.93-6.5q10.69-2.93,18.28,1.41t10.51,15q3,10.91-1.25,18.42t-14.8,10.39c-5.11,1.39-9.52,1.68-13.26.86A19.24,19.24,0,0,1,429.21,202.8ZM353,408.65l5.67-3.65-1.69,8.61-2.93,2ZM338.59,426.1l8.53-4,13,27.53-5.25,2.49-10.29-21.66,4.74,24.29-5.46,2.58-15.78-19.06,10.25,21.68-5.25,2.49-13-27.53,8.51-4,13.92,16.39ZM364.73,447,348,421.56,367.25,409l2.83,4.3-14,9.16,3.71,5.65,13-8.51,2.82,4.31-13,8.51,4.53,6.9,14.47-9.49,2.82,4.31Zm3.67-38.72,9.93-8.7a23.22,23.22,0,0,1,6-4.16,7.15,7.15,0,0,1,4.64-.19,8.61,8.61,0,0,1,4.18,2.72,8.08,8.08,0,0,1,2.2,5.61,9.92,9.92,0,0,1-2.75,6.15,14,14,0,0,1,4.19-.28,33.49,33.49,0,0,1,5.94,1.37l6.76,2-5.63,4.94-7.77-2a39.29,39.29,0,0,0-5.43-1.17,4.83,4.83,0,0,0-2.26.29,10.67,10.67,0,0,0-2.61,1.84l-.95.83,8.38,9.57-4.73,4.14Zm42.51,3-22.2-20.85,4.3-4.58,22.21,20.85ZM70.6,328.78a36,36,0,0,1,2.64,7,8.19,8.19,0,0,1-.88,5.3,9.43,9.43,0,0,1-4.68,4.08,9.8,9.8,0,0,1-4.72,1A8.45,8.45,0,0,1,59.14,345a9.24,9.24,0,0,1-2.65-2.36,37.34,37.34,0,0,1-3.06-5.74l-1.67-3.72-10.48,4.72-2.58-5.74,27.78-12.5ZM51,358l26.36-14.73,3.07,5.49L58.59,361l7.59,13.59-4.49,2.51ZM61.6,377.27,93,367.92l4.11,5.22-16.25,28.6-4.19-5.32,3.8-6.39-7.7-9.79-7.05,2.26Zm33.66,20,5.16-20.35,5,5.38-3.83,13.59,13.7-3,4.92,5.28-20.7,3.71-9.36,8.71L85.88,406Zm-.7,18.43,28.66-15.86,5.13,4.22-9.75,31.42-5.23-4.3,2.33-7.06-9.61-7.91-6.4,3.71Zm54.23,2.77,10,5.46a22.29,22.29,0,0,1,4.9,3.33,10.21,10.21,0,0,1,2.76,4.69,13.15,13.15,0,0,1,.25,5.75,22.3,22.3,0,0,1-2.55,6.81,19.85,19.85,0,0,1-3.93,5.24,13.37,13.37,0,0,1-5.49,3.14,11,11,0,0,1-5,0,19.25,19.25,0,0,1-5.17-2.08l-10.35-5.63ZM265.71,66.64l-14.16-1.92,23-42.61,15.19,2.06,10.73,47.18-14.52-2-1.25-7.7L269,59.55Zm138,306.61a13,13,0,0,1,8.45-5,12,12,0,0,1,6.36,1.12l-2.84,5.71a6.46,6.46,0,0,0-4.34-.61,6.71,6.71,0,0,0-3.76,2.41,7.12,7.12,0,0,0-1.7,5.87c.34,2.14,1.9,4.36,4.7,6.67q4.45,3.67,7.69,3.6a7,7,0,0,0,5.4-2.69,6.38,6.38,0,0,0,1.54-4.32,9,9,0,0,0-2.14-5.11l5.28-3.52a13.78,13.78,0,0,1-10.25,21.47q-5.73.42-11.28-4.15-5.87-4.85-6.57-10.62a13.89,13.89,0,0,1,3.46-10.8Zm13.05-18,3.54-5.62,32.4,5.74-3.62,5.72-7.29-1.43-6.65,10.53,4.49,5.89-3.55,5.62Zm27.09-4.65,2-5.81a7.23,7.23,0,0,0,4.94-.17A6.8,6.8,0,0,0,454,341.1a7,7,0,0,0,.76-4.65,3.7,3.7,0,0,0-2-2.62,2.8,2.8,0,0,0-1.94-.19,5.1,5.1,0,0,0-2.13,1.5c-.54.55-1.63,1.88-3.3,4-2.15,2.69-4,4.4-5.7,5.13a7.94,7.94,0,0,1-10.18-3,8.34,8.34,0,0,1-1.19-4.8,15.6,15.6,0,0,1,1.58-6q2.44-5.29,6-6.9a9,9,0,0,1,7.46,0l-2.44,5.8a5.31,5.31,0,0,0-3.8.14,6.32,6.32,0,0,0-2.58,3.15,7,7,0,0,0-.77,4.31,2.22,2.22,0,0,0,1.31,1.7,2.3,2.3,0,0,0,2.07-.08q1.4-.66,4.26-4.36a30.66,30.66,0,0,1,4.81-5.21,8.72,8.72,0,0,1,4.25-1.81,9.43,9.43,0,0,1,8.76,4.3,8.81,8.81,0,0,1,1.33,5.23,17.86,17.86,0,0,1-1.82,6.61q-2.46,5.34-6.2,7.09a11.51,11.51,0,0,1-8.62.18ZM227.23,476.4l13.23-30,6.64.26,11.25,30.92-6.77-.26-2.41-7-12.45-.48-2.84,6.83Zm31-9.44,6.07-.93a7.25,7.25,0,0,0,2.47,4.29,6.83,6.83,0,0,0,4.6,1.17,7.06,7.06,0,0,0,4.47-1.5,3.73,3.73,0,0,0,1.37-3,2.77,2.77,0,0,0-.74-1.8,5.15,5.15,0,0,0-2.32-1.19c-.74-.22-2.42-.57-5.06-1.06q-5.07-1-7.2-2.64a7.9,7.9,0,0,1-3.17-6,7.8,7.8,0,0,1,1.09-4.43,8.42,8.42,0,0,1,3.7-3.3,15.79,15.79,0,0,1,6-1.39q5.82-.32,8.9,2.06a8.94,8.94,0,0,1,3.45,6.6l-6.27.56a5.24,5.24,0,0,0-1.89-3.3,6.4,6.4,0,0,0-4-.82,7.18,7.18,0,0,0-4.18,1.34,2.24,2.24,0,0,0-.88,1.95,2.33,2.33,0,0,0,1,1.8q1.23.92,5.85,1.73a30.67,30.67,0,0,1,6.85,1.82,8.68,8.68,0,0,1,3.59,2.91,9.06,9.06,0,0,1,1.5,4.78,8.87,8.87,0,0,1-1.22,5,8.76,8.76,0,0,1-4,3.61,17.51,17.51,0,0,1-6.69,1.48q-5.86.31-9.17-2.17a11.49,11.49,0,0,1-4.18-7.54Zm42.87,5,3.33-32.59,6.4-1.8,20.23,25.94-6.51,1.83-4.47-5.94-12,3.38-.6,7.37ZM161.57,459l11.19-28.32,21.38,8.44-1.89,4.79-15.53-6.14-2.49,6.29,14.44,5.71-1.89,4.79-14.44-5.71-3,7.68,16.09,6.35-1.89,4.79Zm43.66,13.72,5-29.79,6.2,1.05-4.16,24.71,15.35,2.59-.86,5.07Z" transform="translate(-0.86 0.06)"/><path id="path792" class="cls-44" d="M92.18,100l17.69,17.31,2.4-2.46q3.08-3.15,3.69-5.16a6.65,6.65,0,0,0-.39-4.46c-.67-1.64-2.29-3.71-4.89-6.25q-5.15-5-8.68-5.21c-2.37-.12-4.82,1.12-7.37,3.72Z" transform="translate(-0.86 0.06)"/><path id="path794" class="cls-44" d="M280.36,34.76l-7.11,15.47,9.83,1.33Z" transform="translate(-0.86 0.06)"/><path id="path796" class="cls-44" d="M338.52,48.67l-3.78,8.44,5.4,2.42a21.94,21.94,0,0,0,3.64.95,3.65,3.65,0,0,0,2.66-.37,4.6,4.6,0,0,0,2-5.69c-.52-1.11-1.95-2.17-4.29-3.22Z" transform="translate(-0.86 0.06)"/><path id="path798" class="cls-44" d="M338.52,48.67l-3.78,8.44,5.4,2.42a21.94,21.94,0,0,0,3.64.95,3.65,3.65,0,0,0,2.66-.37,4.6,4.6,0,0,0,2-5.69c-.52-1.11-1.95-2.17-4.29-3.22Z" transform="translate(-0.86 0.06)"/><path id="path800" class="cls-44" d="M434.23,180.67a9.69,9.69,0,0,0,3.62,13.48c2.33,1.08,5.92.95,10.82-.39q6.16-1.69,8.32-5a8.85,8.85,0,0,0,1-7.54,8.55,8.55,0,0,0-4.69-5.78q-3.57-1.71-10.24.13t-8.83,5.06Z" transform="translate(-0.86 0.06)"/><path id="path802" class="cls-44" d="M67.26,334.39a30.11,30.11,0,0,0-1.66-4.19l-1.24-2.74L56.45,331l1.4,3.12a16.45,16.45,0,0,0,2.47,4.3,4,4,0,0,0,2.17,1.16,4,4,0,0,0,2.46-.33,3.91,3.91,0,0,0,2.1-2A4.34,4.34,0,0,0,67.26,334.39Z" transform="translate(-0.86 0.06)"/><path id="path804" class="cls-44" d="M89.43,374.88,78,378.56l5.26,6.68Z" transform="translate(-0.86 0.06)"/><path id="path806" class="cls-44" d="M121.24,407.36l-10.41,6,6.57,5.4Z" transform="translate(-0.86 0.06)"/><path id="path808" class="cls-44" d="M151.85,425.94l-9.63,17.72,4.09,2.22a17,17,0,0,0,3.46,1.55,5.66,5.66,0,0,0,2.82.09,6.35,6.35,0,0,0,2.84-1.8,19.35,19.35,0,0,0,3.22-4.6,17.87,17.87,0,0,0,2-5.06,7,7,0,0,0-.15-3.44,6,6,0,0,0-1.85-2.64,29.52,29.52,0,0,0-4.37-2.7Z" transform="translate(-0.86 0.06)"/><path id="path810" class="cls-44" d="M243.46,453.66l-4.63,11.1,8.5.33Z" transform="translate(-0.86 0.06)"/><path id="path812" class="cls-44" d="M309.51,445.36l-1,12,8.18-2.31Z" transform="translate(-0.86 0.06)"/><path id="path814" class="cls-44" d="M376.52,408l5.1,5.82,3.49-3.06a24.45,24.45,0,0,0,4-4,3.42,3.42,0,0,0,.47-2.12,3.94,3.94,0,0,0-1-2.15,3.65,3.65,0,0,0-2.28-1.31,3.83,3.83,0,0,0-2.55.65c-.43.29-1.61,1.27-3.51,2.94Z" transform="translate(-0.86 0.06)"/><path id="path816" class="cls-44" d="M424.48,356.28l7.3,9.56,4.54-7.19Z" transform="translate(-0.86 0.06)"/></g></svg>