<svg id="Capa_1" data-name="Capa 1" xmlns="http://www.w3.org/2000/svg" xmlns:xlink="http://www.w3.org/1999/xlink" viewBox="0 0 585 585"><defs><style>.cls-1,.cls-44{fill:#fff;}.cls-2{fill:#27347f;}.cls-15,.cls-2,.cls-3,.cls-31,.cls-43,.cls-44,.cls-5,.cls-6,.cls-9{fill-rule:evenodd;}.cls-3{fill:#28306c;}.cls-10,.cls-4{fill:none;}.cls-5{fill:#272f6a;}.cls-6{fill:#1c1a19;}.cls-7{fill:url(#Degradado_sin_nombre_29);}.cls-8{fill:url(#Degradado_sin_nombre_29-2);}.cls-9{fill:#91bae5;}.cls-10,.cls-35{stroke:#1c1a19;}.cls-10{stroke-width:0.72px;}.cls-11{fill:url(#Degradado_sin_nombre_29-3);}.cls-12{fill:url(#Degradado_sin_nombre_29-4);}.cls-13{fill:url(#Degradado_sin_nombre_29-5);}.cls-14{fill:url(#Degradado_sin_nombre_29-6);}.cls-15{fill:#282e6a;}.cls-16{fill:url(#Degradado_sin_nombre_29-7);}.cls-17{fill:url(#Degradado_sin_nombre_29-8);}.cls-18{fill:url(#Degradado_sin_nombre_29-9);}.cls-19{fill:url(#Degradado_sin_nombre_29-10);}.cls-20{fill:url(#Degradado_sin_nombre_29-11);}.cls-21{fill:url(#Degradado_sin_nombre_31);}.cls-22{fill:url(#Degradado_sin_nombre_31-2);}.cls-23{fill:url(#Degradado_sin_nombre_31-3);}.cls-24{fill:url(#Degradado_sin_nombre_31-4);}.cls-25{fill:url(#Degradado_sin_nombre_31-5);}.cls-26{fill:url(#Degradado_sin_nombre_31-6);}.cls-27{fill:url(#Degradado_sin_nombre_31-7);}.cls-28{fill:url(#Degradado_sin_nombre_31-8);}.cls-29{fill:url(#Degradado_sin_nombre_21);}.cls-30{fill:url(#Degradado_sin_nombre_21-2);}.cls-31{fill:#282f6c;}.cls-32{fill:url(#Degradado_sin_nombre_31-9);}.cls-33{fill:url(#Degradado_sin_nombre_23);}.cls-34{fill:url(#Degradado_sin_nombre_25);}.cls-35{stroke-width:0.58px;fill:url(#Degradado_sin_nombre_25-2);}.cls-36{fill:url(#Degradado_sin_nombre_26);}.cls-37{fill:url(#Degradado_sin_nombre_29-12);}.cls-38{fill:url(#Degradado_sin_nombre_29-13);}.cls-39{fill:url(#Degradado_sin_nombre_29-14);}.cls-40{fill:url(#Degradado_sin_nombre_30);}.cls-41{fill:url(#Degradado_sin_nombre_31-10);}.cls-42{fill:url(#Degradado_sin_nombre_32);}.cls-43{fill:#b4954d;}</style><linearGradient id="Degradado_sin_nombre_29" x1="273.32" y1="353.61" x2="273.32" y2="332.81" gradientTransform="matrix(1.04, 0, 0, -0.96, -5.75, 682.48)" gradientUnits="userSpaceOnUse"><stop offset="0" stop-color="#e8e8cd"/><stop offset="0.12" stop-color="#fff"/><stop offset="0.12" stop-color="#d6d7d7"/><stop offset="1" stop-color="#fff"/><stop offset="1" stop-color="#010101"/></linearGradient><linearGradient id="Degradado_sin_nombre_29-2" x1="225.73" y1="317.07" x2="225.73" y2="297" gradientTransform="matrix(1.17, 0, 0, -0.85, 10.49, 603.83)" xlink:href="#Degradado_sin_nombre_29"/><linearGradient id="Degradado_sin_nombre_29-3" x1="177.16" y1="282.18" x2="177.16" y2="264.02" gradientTransform="matrix(1.43, 0, 0, -0.7, 42.64, 491.09)" xlink:href="#Degradado_sin_nombre_29"/><linearGradient id="Degradado_sin_nombre_29-4" x1="131.69" y1="198.47" x2="131.69" y2="182.43" gradientTransform="matrix(1.65, 0, 0, -0.61, 68.84, 425.84)" xlink:href="#Degradado_sin_nombre_29"/><linearGradient id="Degradado_sin_nombre_29-5" x1="142.97" y1="214.62" x2="142.97" y2="198.07" gradientTransform="matrix(1.55, 0, 0, -0.64, 57.1, 452.86)" xlink:href="#Degradado_sin_nombre_29"/><linearGradient id="Degradado_sin_nombre_29-6" x1="169.44" y1="250.22" x2="169.44" y2="232.39" gradientTransform="matrix(1.4, 0, 0, -0.71, 38.64, 502.79)" xlink:href="#Degradado_sin_nombre_29"/><linearGradient id="Degradado_sin_nombre_29-7" x1="299.7" y1="363.12" x2="299.7" y2="340.81" gradientTransform="matrix(0.99, 0, 0, -1.01, -12.03, 718.64)" xlink:href="#Degradado_sin_nombre_29"/><linearGradient id="Degradado_sin_nombre_29-8" x1="300.83" y1="349.59" x2="300.83" y2="328.93" gradientTransform="matrix(1, 0, 0, -1, -9.97, 706.38)" xlink:href="#Degradado_sin_nombre_29"/><linearGradient id="Degradado_sin_nombre_29-9" x1="310.23" y1="344.44" x2="310.23" y2="323.07" gradientTransform="matrix(1, 0, 0, -1, -10.69, 710.6)" xlink:href="#Degradado_sin_nombre_29"/><linearGradient id="Degradado_sin_nombre_29-10" x1="316.99" y1="336.14" x2="316.99" y2="314.58" gradientTransform="matrix(1, 0, 0, -1, -10.57, 709.88)" xlink:href="#Degradado_sin_nombre_29"/><linearGradient id="Degradado_sin_nombre_29-11" x1="224.26" y1="210.67" x2="224.26" y2="190.6" gradientTransform="matrix(1.29, 0, 0, -0.78, 24.93, 547.49)" xlink:href="#Degradado_sin_nombre_29"/><linearGradient id="Degradado_sin_nombre_31" x1="223.04" y1="-33.76" x2="223.04" y2="-45.28" gradientTransform="matrix(1.36, 0, 0, -0.73, 33.83, 517.62)" gradientUnits="userSpaceOnUse"><stop offset="0" stop-color="#cfced2"/><stop offset="0.12" stop-color="#fff"/><stop offset="0.12" stop-color="#d6d7d7"/><stop offset="1" stop-color="#fff"/></linearGradient><linearGradient id="Degradado_sin_nombre_31-2" x1="218.06" y1="-38.19" x2="218.06" y2="-49.15" gradientTransform="matrix(1.39, 0, 0, -0.72, 36.81, 508.35)" xlink:href="#Degradado_sin_nombre_31"/><linearGradient id="Degradado_sin_nombre_31-3" x1="188.44" y1="-99.71" x2="188.44" y2="-110.18" gradientTransform="matrix(1.52, 0, 0, -0.66, 52.62, 464.06)" xlink:href="#Degradado_sin_nombre_31"/><linearGradient id="Degradado_sin_nombre_31-4" x1="239.04" y1="26.49" x2="239.04" y2="15.05" gradientTransform="matrix(1.3, 0, 0, -0.77, 26.19, 543.04)" xlink:href="#Degradado_sin_nombre_31"/><linearGradient id="Degradado_sin_nombre_31-5" x1="270.64" y1="93.5" x2="270.64" y2="81.11" gradientTransform="matrix(1.19, 0, 0, -0.84, 12.61, 594.82)" xlink:href="#Degradado_sin_nombre_31"/><linearGradient id="Degradado_sin_nombre_31-6" x1="293.85" y1="141.19" x2="293.85" y2="128.41" gradientTransform="matrix(1.11, 0, 0, -0.9, 3.24, 636.61)" xlink:href="#Degradado_sin_nombre_31"/><linearGradient id="Degradado_sin_nombre_31-7" x1="298.59" y1="159.93" x2="298.59" y2="147.23" gradientTransform="matrix(1.09, 0, 0, -0.92, 0.41, 650.39)" xlink:href="#Degradado_sin_nombre_31"/><linearGradient id="Degradado_sin_nombre_31-8" x1="299.25" y1="173.07" x2="299.25" y2="160.13" gradientTransform="matrix(1.08, 0, 0, -0.93, -1.18, 658.38)" xlink:href="#Degradado_sin_nombre_31"/><linearGradient id="Degradado_sin_nombre_21" x1="243.43" y1="184.26" x2="262.02" y2="184.26" gradientTransform="matrix(1.05, 0, 0, -0.95, -4.37, 675.04)" gradientUnits="userSpaceOnUse"><stop offset="0" stop-color="#e8e8cd"/><stop offset="0.12" stop-color="#fff"/><stop offset="0.12" stop-color="#d6d7d7"/><stop offset="1" stop-color="#fff"/></linearGradient><linearGradient id="Degradado_sin_nombre_21-2" x1="215.97" y1="138.79" x2="234.22" y2="138.79" gradientTransform="matrix(1.12, 0, 0, -0.89, 4.75, 629.49)" xlink:href="#Degradado_sin_nombre_21"/><linearGradient id="Degradado_sin_nombre_31-9" x1="216.96" y1="-50.6" x2="216.96" y2="-59.76" gradientTransform="matrix(1.37, 0, 0, -0.73, 35.25, 513.16)" xlink:href="#Degradado_sin_nombre_31"/><linearGradient id="Degradado_sin_nombre_23" x1="286.56" y1="87.27" x2="286.56" y2="77.2" gradientTransform="matrix(1.12, 0, 0, -0.89, 4.69, 629.76)" gradientUnits="userSpaceOnUse"><stop offset="0" stop-color="#bbb"/><stop offset="0.12" stop-color="#fff"/><stop offset="0.12" stop-color="#d6d7d7"/></linearGradient><linearGradient id="Degradado_sin_nombre_25" x1="359.05" y1="190.2" x2="367.14" y2="190.2" gradientTransform="matrix(0.93, 0, 0, -1.07, -18.8, 762.05)" gradientUnits="userSpaceOnUse"><stop offset="0" stop-color="#c3bdca"/><stop offset="1" stop-color="#a79686"/></linearGradient><linearGradient id="Degradado_sin_nombre_25-2" x1="366.09" y1="204.14" x2="373.35" y2="204.14" gradientTransform="matrix(0.91, 0, 0, -1.1, -21.89, 783.6)" xlink:href="#Degradado_sin_nombre_25"/><linearGradient id="Degradado_sin_nombre_26" x1="192.32" y1="94.58" x2="208.54" y2="94.58" gradientTransform="matrix(1.2, 0, 0, -0.84, 13.69, 590.37)" gradientUnits="userSpaceOnUse"><stop offset="0" stop-color="#d5d5d4"/><stop offset="0.12" stop-color="#fff"/><stop offset="0.12" stop-color="#d6d7d7"/><stop offset="1" stop-color="#fff"/></linearGradient><linearGradient id="Degradado_sin_nombre_29-12" x1="198.91" y1="145.3" x2="198.91" y2="130.67" gradientTransform="matrix(1.41, 0, 0, -0.71, 40.01, 498.73)" xlink:href="#Degradado_sin_nombre_29"/><linearGradient id="Degradado_sin_nombre_29-13" x1="215.54" y1="158.16" x2="215.54" y2="141.8" gradientTransform="matrix(1.35, 0, 0, -0.74, 31.74, 524.35)" xlink:href="#Degradado_sin_nombre_29"/><linearGradient id="Degradado_sin_nombre_29-14" x1="270.2" y1="224.59" x2="270.2" y2="207.31" gradientTransform="matrix(1.16, 0, 0, -0.87, 8.53, 612.32)" xlink:href="#Degradado_sin_nombre_29"/><linearGradient id="Degradado_sin_nombre_30" x1="465.34" y1="385.79" x2="465.34" y2="374.11" gradientTransform="matrix(0.76, 0, 0, -1.31, -39.45, 933.57)" gradientUnits="userSpaceOnUse"><stop offset="0" stop-color="#a09165"/><stop offset="1" stop-color="#706f53"/></linearGradient><linearGradient id="Degradado_sin_nombre_31-10" x1="317.38" y1="206.38" x2="317.38" y2="194.08" gradientTransform="matrix(1.02, 0, 0, -0.98, -7.69, 693.25)" xlink:href="#Degradado_sin_nombre_31"/><linearGradient id="Degradado_sin_nombre_32" x1="488.01" y1="353.77" x2="495.18" y2="353.77" gradientTransform="matrix(0.73, 0, 0, -1.38, -43.83, 980.21)" gradientUnits="userSpaceOnUse"><stop offset="0" stop-color="#867a68"/><stop offset="1" stop-color="#867a68"/></linearGradient></defs><g id="Layer1000"><circle class="cls-1" cx="291.43" cy="292.24" r="281.21"/><g id="Layer1003"><path id="path24" class="cls-2" d="M464.07,339.11l3.41,6.92a9.12,9.12,0,0,0-4.21,4.59,8.52,8.52,0,0,0,.35,5.95,8.82,8.82,0,0,0,3.49,4.79,4.67,4.67,0,0,0,4.14.5,3.5,3.5,0,0,0,1.88-1.57,6.38,6.38,0,0,0,.55-3.23c0-1-.24-3.12-.65-6.47-.51-4.3-.37-7.51.44-9.63a10,10,0,0,1,11.71-6.45,10.56,10.56,0,0,1,5.35,3.18,19.69,19.69,0,0,1,4,6.69q2.58,6.86.9,11.44a11.21,11.21,0,0,1-6.61,6.65l-3-7.3a6.56,6.56,0,0,0,3.23-3.52,7.9,7.9,0,0,0-.53-5.09,8.92,8.92,0,0,0-3.18-4.5,2.77,2.77,0,0,0-2.68-.32,2.9,2.9,0,0,0-1.76,1.91c-.43,1.22-.38,3.78.13,7.67a38.06,38.06,0,0,1,.42,8.91,11,11,0,0,1-2.13,5.41,11.26,11.26,0,0,1-5.16,3.6,11.25,11.25,0,0,1-12.29-3,22.53,22.53,0,0,1-4.31-7.46c-1.74-4.62-2-8.55-.87-11.82s3.64-5.88,7.46-7.87Z" transform="translate(-4.89 -128)"/><path id="path26" class="cls-2" d="M450.81,305.55q-5.51,3.48-6.72,7.87a10.69,10.69,0,0,0,8.26,13.17q4.45.78,10.09-2.78c3.72-2.34,6-4.93,6.75-7.74a10,10,0,0,0-1.43-8.36,10.14,10.14,0,0,0-7-4.91q-4.38-.76-10,2.75Zm-4.55-6.73a24,24,0,0,1,9.29-3.74,18.11,18.11,0,0,1,6.39.27,15.42,15.42,0,0,1,5.62,2.42,21.92,21.92,0,0,1,5.77,6.32c3.07,4.88,4,9.7,2.92,14.5s-4.35,8.86-9.64,12.19-10.26,4.44-15.05,3.41-8.72-4-11.77-8.83-4.09-9.76-3-14.52,4.27-8.76,9.44-12Z" transform="translate(-4.89 -128)"/><path id="path28" class="cls-2" d="M404.32,285l25.83-28.3,5.65,5.15-5.44,29.8,17.31-19,5.4,4.93L427.23,306l-5.83-5.32,5.3-29.27-17,18.61Z" transform="translate(-4.89 -128)"/><path id="path30" class="cls-2" d="M397.22,261.69l2.08-15.05-11.45,9.9ZM402.56,282l-7.46-4.1,1.25-9.27-13.72-7.54-7.05,6.08-7.32-4L400,236.83l7.32,4Z" transform="translate(-4.89 -128)"/><path id="path32" class="cls-2" d="M335.37,254l6.73-31.13-11.3-2.44,1.37-6.33,30.27,6.55-1.37,6.32-11.24-2.43-6.74,31.13Z" transform="translate(-4.89 -128)"/><path id="path34" class="cls-2" d="M290,236.82l7.71-.5a9.19,9.19,0,0,0,2.61,5.65,8.59,8.59,0,0,0,5.64,2c2.53.08,4.45-.38,5.76-1.4a4.64,4.64,0,0,0,2.05-3.62,3.53,3.53,0,0,0-.73-2.35,6.47,6.47,0,0,0-2.77-1.74c-.91-.35-3-1-6.22-1.88q-6.25-1.75-8.73-4.1a10,10,0,0,1-1.47-13.28,10.48,10.48,0,0,1,5-3.73,19.83,19.83,0,0,1,7.7-1.09c4.87.16,8.52,1.34,10.91,3.56A11.23,11.23,0,0,1,321,223h-7.91a6.6,6.6,0,0,0-2-4.34,7.91,7.91,0,0,0-4.9-1.46,9,9,0,0,0-5.38,1.22,2.79,2.79,0,0,0-1.32,2.34,2.92,2.92,0,0,0,1.09,2.37c1,.86,3.34,1.8,7.14,2.81a38,38,0,0,1,8.38,3,10.81,10.81,0,0,1,4.18,4,11.3,11.3,0,0,1,1.35,6.15,11.25,11.25,0,0,1-7.47,10.21,22.44,22.44,0,0,1-8.53,1.12q-7.41-.24-11.26-3.72c-2.57-2.32-4-5.62-4.41-9.91Z" transform="translate(-4.89 -128)"/><path id="path36" class="cls-2" d="M277.35,250.68l-2.2-38.26,7.9-.46,2.19,38.26Z" transform="translate(-4.89 -128)"/><path id="path38" class="cls-2" d="M242.61,235.78l5.64-1.5c3.65-1,5.88-1.73,6.71-2.28a4.18,4.18,0,0,0,1.72-2.14,4.89,4.89,0,0,0,0-3,4.55,4.55,0,0,0-1.83-2.75,4.78,4.78,0,0,0-3.24-.68c-.65.08-2.51.53-5.6,1.35l-5.94,1.58Zm-2,23.4-9.87-37,16-4.28c4-1.07,7.06-1.52,9.06-1.34a9,9,0,0,1,5.33,2.37,10.87,10.87,0,0,1,3.21,5.4,10.13,10.13,0,0,1-.65,7.55q-1.77,3.38-6.52,5.4a18,18,0,0,1,4.88,2,43.58,43.58,0,0,1,5.92,4.87l6.53,6-9.11,2.42-7.61-6.63a52.4,52.4,0,0,0-5.48-4.35,6.23,6.23,0,0,0-2.7-.93,13.72,13.72,0,0,0-4,.62l-1.55.41,4.12,15.46Z" transform="translate(-4.89 -128)"/><path id="path40" class="cls-2" d="M221.8,251.83l7.78-1.74c1,4.26.88,7.94-.49,11.07a16.77,16.77,0,0,1-7.54,7.75,17,17,0,0,1-13.71,1.73q-6.92-2.1-11.35-10-4.69-8.34-2.9-15.43t8.94-11.11q6.25-3.51,12.19-2.07a15,15,0,0,1,6.95,4.21l-5.9,5.4a8.17,8.17,0,0,0-4.83-2.68,8.39,8.39,0,0,0-5.5,1.12,8.94,8.94,0,0,0-4.64,6.12q-.87,4,2.49,10c2.37,4.21,4.83,6.79,7.38,7.71a8.76,8.76,0,0,0,7.56-.71A8,8,0,0,0,222,258.8a11.3,11.3,0,0,0-.19-7Z" transform="translate(-4.89 -128)"/><path id="path42" class="cls-2" d="M159,300.68l5.24-5.67a9.15,9.15,0,0,0,5.79,2.3,8.57,8.57,0,0,0,5.44-2.46,8.84,8.84,0,0,0,3.22-5,4.7,4.7,0,0,0-1-4,3.48,3.48,0,0,0-2.15-1.19,6.36,6.36,0,0,0-3.21.64c-.9.37-2.83,1.35-5.8,2.92q-5.76,3-9.16,3a9.94,9.94,0,0,1-7.81-3.41,9.79,9.79,0,0,1-2.39-5.22,10.55,10.55,0,0,1,1-6.14,19.67,19.67,0,0,1,4.83-6.09q5.47-4.86,10.37-4.93a11.23,11.23,0,0,1,8.57,3.79l-5.73,5.45a6.61,6.61,0,0,0-4.45-1.76,8,8,0,0,0-4.56,2.32,9,9,0,0,0-3.07,4.58,2.83,2.83,0,0,0,.66,2.62,2.9,2.9,0,0,0,2.42,1q1.94-.06,7.12-2.87a37.87,37.87,0,0,1,8.16-3.57,10.8,10.8,0,0,1,5.81,0,11.9,11.9,0,0,1,7.93,9.38,11.1,11.1,0,0,1-1.11,6.7,22.42,22.42,0,0,1-5.42,6.69c-3.69,3.27-7.26,5-10.72,5s-6.8-1.3-10-4.15Z" transform="translate(-4.89 -128)"/><path id="path44" class="cls-2" d="M133.36,326.53q5.35,3.71,9.87,3.1a10.69,10.69,0,0,0,8.87-12.77c-.68-2.93-2.85-5.65-6.51-8.19s-6.87-3.56-9.77-3.17a10.06,10.06,0,0,0-7.13,4.59,10.17,10.17,0,0,0-1.78,8.34Q127.92,322.77,133.36,326.53ZM129,333.36a24.11,24.11,0,0,1-7.08-7.08,17.8,17.8,0,0,1-2.26-6,15.49,15.49,0,0,1,0-6.11,21.88,21.88,0,0,1,3.55-7.79q4.92-7.11,12.2-8.37t15,4.08q7.65,5.29,9,12.51c.94,4.81-.24,9.58-3.5,14.29s-7.37,7.59-12.19,8.42-9.73-.48-14.76-4Z" transform="translate(-4.89 -128)"/><path id="path46" class="cls-2" d="M134.3,372,98.88,358.29l2.86-7.37,29.39,11.41,7.08-18.25,6,2.34Z" transform="translate(-4.89 -128)"/><path id="path48" class="cls-2" d="M98.72,416.4h12.49v3.52h-7.42v2.85h6.34v3.31h-6.34v6.67H98.72Zm25.84,0h5.05v9.74a8.23,8.23,0,0,1-.46,2.73,5.88,5.88,0,0,1-1.41,2.25,5.67,5.67,0,0,1-2,1.36,10.3,10.3,0,0,1-3.54.54,22.61,22.61,0,0,1-2.6-.17,6.8,6.8,0,0,1-2.36-.66,5.84,5.84,0,0,1-1.73-1.41,5.09,5.09,0,0,1-1.08-1.88,9.79,9.79,0,0,1-.46-2.76V416.4h5v10a2.87,2.87,0,0,0,.74,2.09,3.18,3.18,0,0,0,4.09,0,2.84,2.84,0,0,0,.74-2.1Zm8.42,0h4.72l6.13,9v-9h4.77v16.35h-4.77l-6.1-9v9H133Zm19,0h7.51a9,9,0,0,1,3.58.6,5.9,5.9,0,0,1,2.26,1.73,7,7,0,0,1,1.29,2.62,12.08,12.08,0,0,1,.41,3.17,10.93,10.93,0,0,1-.6,4.06,6.74,6.74,0,0,1-1.66,2.42,5.3,5.3,0,0,1-2.27,1.3,11.63,11.63,0,0,1-3,.45H152Zm5,3.7V429h1.24a5.31,5.31,0,0,0,2.26-.35,2.49,2.49,0,0,0,1.05-1.23,7.75,7.75,0,0,0,.38-2.84,5.46,5.46,0,0,0-.85-3.55,3.61,3.61,0,0,0-2.82-1Zm21.71,9.95h-5.72l-.82,2.7h-5.15l6.15-16.35h5.53l6.12,16.35H179.6Zm-1.06-3.53-1.79-5.88-1.79,5.88Zm8.83-10.12h7.51a9,9,0,0,1,3.58.6,5.9,5.9,0,0,1,2.26,1.73,7,7,0,0,1,1.29,2.62,12.08,12.08,0,0,1,.41,3.17,10.93,10.93,0,0,1-.6,4.06,6.84,6.84,0,0,1-1.65,2.42,5.39,5.39,0,0,1-2.28,1.3,11.63,11.63,0,0,1-3,.45h-7.51Zm5,3.7V429h1.24a5.31,5.31,0,0,0,2.26-.35,2.49,2.49,0,0,0,1.05-1.23,7.75,7.75,0,0,0,.38-2.84,5.46,5.46,0,0,0-.85-3.55,3.61,3.61,0,0,0-2.82-1Zm12,4.49a7.74,7.74,0,0,1,8.45-8.46,8.52,8.52,0,0,1,6.28,2.19,8.21,8.21,0,0,1,2.21,6.13,10.1,10.1,0,0,1-1,4.7,6.9,6.9,0,0,1-2.79,2.85,9.22,9.22,0,0,1-4.55,1,10.4,10.4,0,0,1-4.57-.88,6.91,6.91,0,0,1-2.94-2.79,9.19,9.19,0,0,1-1.13-4.76Zm5.05,0a5.48,5.48,0,0,0,.92,3.55,3.49,3.49,0,0,0,5,0,6,6,0,0,0,.9-3.8,5,5,0,0,0-.94-3.36,3.15,3.15,0,0,0-2.53-1.07,3.05,3.05,0,0,0-2.45,1.08,5.49,5.49,0,0,0-.93,3.58Z" transform="translate(-4.89 -128)"/><path id="path50" class="cls-2" d="M449.15,415.73v17.2h-4.59V421.67a13,13,0,0,1-2.16,1.41,15.41,15.41,0,0,1-2.61,1v-3.82a11,11,0,0,0,3.6-1.87,7.83,7.83,0,0,0,2-2.69Zm5.13,13.41,4.52-.58a2.54,2.54,0,0,0,.6,1.37,1.5,1.5,0,0,0,1,.4,1.89,1.89,0,0,0,1.71-1.14,11.2,11.2,0,0,0,.67-3.56,5.6,5.6,0,0,1-1.68,1.27,4.58,4.58,0,0,1-2,.4,4.9,4.9,0,0,1-3.71-1.61,5.74,5.74,0,0,1-1.51-4.09,6.17,6.17,0,0,1,.77-3.07,5.08,5.08,0,0,1,2.12-2.09,7.08,7.08,0,0,1,3.38-.71,7.75,7.75,0,0,1,3.94.87,6.07,6.07,0,0,1,2.37,2.77,12.1,12.1,0,0,1,.88,5q0,4.58-1.86,6.7a6.49,6.49,0,0,1-5.16,2.13,8.29,8.29,0,0,1-3.08-.46,4.76,4.76,0,0,1-1.87-1.37,6.15,6.15,0,0,1-1.15-2.24Zm8.37-7.55a3.22,3.22,0,0,0-.67-2.15,2.08,2.08,0,0,0-1.63-.78,1.88,1.88,0,0,0-1.5.7,3.19,3.19,0,0,0-.6,2.12,3.36,3.36,0,0,0,.62,2.17,1.93,1.93,0,0,0,1.55.75,2,2,0,0,0,1.59-.73,3.1,3.1,0,0,0,.64-2.08Zm11.05-.69-4.29-.79a5.62,5.62,0,0,1,2-3.25,7.05,7.05,0,0,1,4.3-1.13q3.19,0,4.62,1.23a4,4,0,0,1,1.42,3.1,3.51,3.51,0,0,1-.58,2,5,5,0,0,1-1.74,1.56,4.73,4.73,0,0,1,1.45.57,3.58,3.58,0,0,1,1.26,1.36,4.28,4.28,0,0,1,.45,2,5.75,5.75,0,0,1-.74,2.83,5.1,5.1,0,0,1-2.15,2.09,8,8,0,0,1-3.69.73,9.3,9.3,0,0,1-3.51-.54,5.26,5.26,0,0,1-2.12-1.59,7.5,7.5,0,0,1-1.27-2.63l4.54-.63a3.74,3.74,0,0,0,.83,2,1.94,1.94,0,0,0,1.43.55,2,2,0,0,0,1.52-.69,2.73,2.73,0,0,0,.6-1.85,2.62,2.62,0,0,0-.58-1.82,2,2,0,0,0-1.58-.65,5.32,5.32,0,0,0-1.47.28l.24-3.36a3.9,3.9,0,0,0,.58.06,2,2,0,0,0,1.47-.59,1.89,1.89,0,0,0,.59-1.38,1.7,1.7,0,0,0-.44-1.23,1.62,1.62,0,0,0-1.22-.46,1.75,1.75,0,0,0-1.3.5,3.08,3.08,0,0,0-.67,1.74Zm15.22,0-4.29-.79a5.62,5.62,0,0,1,2.05-3.25,7.05,7.05,0,0,1,4.3-1.13q3.19,0,4.62,1.23a4,4,0,0,1,1.42,3.1,3.51,3.51,0,0,1-.58,2,5,5,0,0,1-1.74,1.56,4.84,4.84,0,0,1,1.45.57,3.58,3.58,0,0,1,1.26,1.36,4.28,4.28,0,0,1,.45,2,5.75,5.75,0,0,1-.74,2.83,5.1,5.1,0,0,1-2.15,2.09,8,8,0,0,1-3.69.73,9.3,9.3,0,0,1-3.51-.54,5.26,5.26,0,0,1-2.12-1.59,7.33,7.33,0,0,1-1.27-2.63l4.54-.63a3.74,3.74,0,0,0,.83,2,1.94,1.94,0,0,0,1.43.55,2,2,0,0,0,1.52-.69,2.73,2.73,0,0,0,.6-1.85,2.62,2.62,0,0,0-.58-1.82,2,2,0,0,0-1.58-.65,5.32,5.32,0,0,0-1.47.28l.24-3.36a3.9,3.9,0,0,0,.58.06,2,2,0,0,0,1.47-.59,1.89,1.89,0,0,0,.59-1.38,1.7,1.7,0,0,0-.44-1.23,1.62,1.62,0,0,0-1.22-.46,1.75,1.75,0,0,0-1.3.5,3.08,3.08,0,0,0-.67,1.74Z" transform="translate(-4.89 -128)"/><path id="path52" class="cls-2" d="M357.92,259.93l13.07-36,7.43,2.7-13.07,36Z" transform="translate(-4.89 -128)"/></g><g id="Layer1005"><path id="path56" class="cls-3" d="M312.14,311.29c.09,0-1.41,1.38.28,0l2,.11a122.13,122.13,0,0,1,19.33,2.52c5.9,1.37,10.92,3.37,14.3,6.32a3.56,3.56,0,0,1,.92,1.4l.09.29a51.52,51.52,0,0,1,7.55.38,68,68,0,0,1,7.57,1.4,3.31,3.31,0,0,1,1.63.76,2.62,2.62,0,0,1,.72,1.39,19,19,0,0,1,.4,2.11,15.26,15.26,0,0,1,.1,2.16,14,14,0,0,1-.2,2.05,9.49,9.49,0,0,1-.57,2,1.89,1.89,0,0,1-.76.89,5.7,5.7,0,0,1-.82.41,28.9,28.9,0,0,1-7.57,1.95,59.38,59.38,0,0,1-7.94.41c-.31.82-1.42,1.33-2.06,1.62l-.05,0a68.47,68.47,0,0,1-10,3.77,64.52,64.52,0,0,1-11.93,2.21c-5.79.54-11.37.95-17,1.16s-11.32.2-17.29-.11l-5.95-.27A198,198,0,0,1,263,344.54l-1.66-.25c-4.12-.59-7.68-1.11-11.31-3.8a7.11,7.11,0,0,1-1.49-1.47,3.35,3.35,0,0,1-.52-1,59.92,59.92,0,0,1-8.21-.41,28.51,28.51,0,0,1-7.57-2,4.82,4.82,0,0,1-.82-.41,1.89,1.89,0,0,1-.76-.89,9.49,9.49,0,0,1-.57-2,14,14,0,0,1-.2-2.05,15.26,15.26,0,0,1,.1-2.16,18.83,18.83,0,0,1,.4-2.1,2.65,2.65,0,0,1,.72-1.4,3.4,3.4,0,0,1,1.63-.76,70.32,70.32,0,0,1,7.57-1.4,52,52,0,0,1,7.79-.37,3.44,3.44,0,0,1,.46-.84A4.2,4.2,0,0,1,250,320a60.76,60.76,0,0,1,11.73-4.68,69.94,69.94,0,0,1,11.67-2.08c-.13,0,1.76,1.26,1.63,1.28l-1.48.15a68,68,0,0,0-11.44,2,59.24,59.24,0,0,0-11.46,4.57,2.88,2.88,0,0,0-.94.82,1.54,1.54,0,0,0-.34.83l0,14.49a1.5,1.5,0,0,0,.34.76,6.19,6.19,0,0,0,1.18,1.17c3.34,2.46,6.74,3,10.66,3.53l1.68.25a198,198,0,0,0,21.68,1.72l6,.27c5.92.31,11.57.31,17.16.11s11.17-.62,16.92-1.15a63.46,63.46,0,0,0,11.67-2.17,66.47,66.47,0,0,0,9.81-3.69l0,0c.45-.2,1.3-.59,1.3-.75l0-14a3.79,3.79,0,0,0-.22-1.33,1.84,1.84,0,0,0-.51-.8c-3.18-2.79-8-4.69-13.67-6a120.43,120.43,0,0,0-19.1-2.48c-1.29-.08-2.58-.15-3.86-.19Zm37.14,12.08v.1l0,13a57.23,57.23,0,0,0,7.68-.4,27.67,27.67,0,0,0,7.19-1.84,3.94,3.94,0,0,0,.58-.3.54.54,0,0,0,.23-.22,8.83,8.83,0,0,0,.48-1.73,11.47,11.47,0,0,0,.18-1.84,12.73,12.73,0,0,0-.09-2,18.42,18.42,0,0,0-.37-1.94,1.27,1.27,0,0,0-.31-.68,2.07,2.07,0,0,0-1-.41,70.67,70.67,0,0,0-7.43-1.37,50.67,50.67,0,0,0-7.16-.38ZM248,336.57l0-13.05a49,49,0,0,0-7.45.38,68.17,68.17,0,0,0-7.43,1.36,2.07,2.07,0,0,0-1,.41,1.39,1.39,0,0,0-.32.68c-.15.65-.27,1.29-.36,1.95a12.68,12.68,0,0,0-.09,1.95,11.69,11.69,0,0,0,.18,1.84,8.53,8.53,0,0,0,.48,1.73.61.61,0,0,0,.23.22,3.92,3.92,0,0,0,.58.29,26.9,26.9,0,0,0,7.19,1.84,56,56,0,0,0,7.93.4Z" transform="translate(-4.89 -128)"/><path id="path58" class="cls-3" d="M266.1,323.09a63.87,63.87,0,0,0-6.28,2.18.57.57,0,0,1-.75-.32.58.58,0,0,1,.32-.75,66.32,66.32,0,0,1,6.4-2.22c.06,0,.25,1.13.31,1.11Zm25.58-3.66c.06,0,.59-1.18.65-1.18l1.24-.06c4.05-.16,8.07-.17,12.05-.09s7.95.27,11.87.48a33.27,33.27,0,0,1,8.19,1.29,18.68,18.68,0,0,1,6.94,3.79.57.57,0,1,1-.76.86,17.45,17.45,0,0,0-6.51-3.55,32.51,32.51,0,0,0-7.92-1.24c-3.93-.21-7.88-.39-11.83-.48s-8-.07-12,.09l-1.94.09Z" transform="translate(-4.89 -128)"/><path id="path60" class="cls-3" d="M334.44,335.75a.58.58,0,0,1,.8.19.57.57,0,0,1-.2.79c-8.83,5.39-25.87,4.76-42,4.16-2.48-.1-4.94-.19-7.31-.26a.57.57,0,0,1-.56-.59.59.59,0,0,1,.59-.56q3.62.11,7.32.26c15.94.59,32.81,1.22,41.34-4Z" transform="translate(-4.89 -128)"/><path id="path62" class="cls-4" d="M249.17,333.85l18.77,5.85,21.19,4.11q20.53.56,41.44-.57a39.7,39.7,0,0,0,17.95-8.79" transform="translate(-4.89 -128)"/><path id="path64" class="cls-5" d="M267.94,339.7l-18.77-5.85-.08,3.51a2.08,2.08,0,0,0,.41.92,6.59,6.59,0,0,0,1.19,1.34c3.33,2.47,6.7,3.25,10.63,3.82l1.93.44c7.13,1.1,14.34,1.06,21.59,1.38,2,.08,4.29.26,6.23.36,5.92.31,11.41-.2,17-.4s11.15-.31,16.9-.85a63.66,63.66,0,0,0,11.69-2.12,67,67,0,0,0,9.87-3.5l.05,0a5.87,5.87,0,0,0,1.56-1l-.05-2.92a41.59,41.59,0,0,1-17.52,8.41q-20.91,1.15-41.44.57Z" transform="translate(-4.89 -128)"/><g id="Layer1006"><path id="path66" class="cls-6" d="M281.69,355.29c3.93-3.61,6-6.24,6.78-8.25a3.81,3.81,0,0,0-.71-4.36c-1-1.08-2.38-1-4.34,0a64.51,64.51,0,0,0-8.18,5.46c-.52.38-1,.77-1.52,1.16a20.89,20.89,0,0,0-5.73,6.52c-1,2-1,3.71,0,5.06l.12.15.1.11c.7.77,1.91,1.06,3.66.6s4.26-1.79,7.27-4.21c.81-.66,1.67-1.4,2.58-2.23Zm7.45-8c-.83,2.11-2.94,4.83-7,8.52-.91.84-1.78,1.59-2.61,2.26a21.73,21.73,0,0,1-7.54,4.35c-2,.53-3.5.15-4.37-.81a.64.64,0,0,1-.13-.15h0a1.41,1.41,0,0,1-.14-.18c-1.16-1.58-1.12-3.59,0-5.8a21.78,21.78,0,0,1,5.93-6.76c.48-.39,1-.78,1.55-1.18a64.39,64.39,0,0,1,8.29-5.53c2.26-1.11,3.93-1.19,5.18.17a4.46,4.46,0,0,1,.85,5.11Z" transform="translate(-4.89 -128)"/><path id="path86" class="cls-7" d="M273.72,349.29a20.78,20.78,0,0,0-5.73,6.52c-1,2-1,3.71,0,5.06l.12.15.1.11c.7.77,1.91,1.06,3.66.6s4.26-1.79,7.27-4.21c.81-.66,1.67-1.4,2.58-2.23,3.93-3.61,6-6.24,6.78-8.25a3.81,3.81,0,0,0-.71-4.36c-1-1.08-2.38-1-4.34,0a64.51,64.51,0,0,0-8.18,5.46c-.52.38-1,.77-1.52,1.16Z" transform="translate(-4.89 -128)"/></g><g id="Layer1007"><path id="path89" class="cls-6" d="M277.83,345.39c4.5-2.89,6.93-5.14,8.05-7a3.69,3.69,0,0,0,.24-4.16v0h0c-.64-1-2-1.36-4.08-.93a30.22,30.22,0,0,0-8.62,3.83h0l-.62.37c-3.73,2.28-6.52,4.35-8.13,6.29s-2,3.56-1.05,5.19l.08.13c.54.85,1.62,1.29,3.34,1.1a21.36,21.36,0,0,0,7.58-2.9c1-.55,2.07-1.2,3.22-1.94Zm8.66-6.58c-1.17,1.91-3.67,4.23-8.27,7.19-1.15.74-2.24,1.39-3.26,2a22.28,22.28,0,0,1-7.86,3c-2,.22-3.33-.35-4-1.43l-.1-.17c-1.07-1.93-.61-3.9,1.12-6s4.52-4.13,8.32-6.45l.62-.37h0a31.07,31.07,0,0,1,8.85-3.92c2.38-.49,4-.06,4.83,1.27h0l0,0a4.35,4.35,0,0,1-.25,4.91Z" transform="translate(-4.89 -128)"/><path id="path109" class="cls-8" d="M264.66,343.81c-1.53,1.85-2,3.56-1.05,5.19l.08.13c.54.85,1.62,1.29,3.34,1.1a21.36,21.36,0,0,0,7.58-2.9c1-.55,2.07-1.2,3.22-1.94,4.5-2.89,6.93-5.14,8.05-7a3.69,3.69,0,0,0,.24-4.16v0c-.64-1-2-1.36-4.08-.93a30.22,30.22,0,0,0-8.62,3.83l-.62.37C269.06,339.8,266.27,341.87,264.66,343.81Z" transform="translate(-4.89 -128)"/></g><path id="path112" class="cls-4" d="M230.83,329.64c6.62-.38,10.11,1.69,10.94,7.07" transform="translate(-4.89 -128)"/><path id="path114" class="cls-4" d="M366.21,329.9c-6,1.92-11.89,3.45-17.38,3.5" transform="translate(-4.89 -128)"/><path id="path116" class="cls-5" d="M365.6,330.09c-5.63,1.78-11.16,3.18-16.34,3.3v3a57.23,57.23,0,0,0,7.68-.4,27.67,27.67,0,0,0,7.19-1.84,3.94,3.94,0,0,0,.58-.3.54.54,0,0,0,.23-.22,8.83,8.83,0,0,0,.48-1.73,11.47,11.47,0,0,0,.18-1.84Z" transform="translate(-4.89 -128)"/><path id="path118" class="cls-5" d="M241.71,336.36c-.9-5-4.21-7-10.36-6.74,0,.21,0,.41,0,.63a11.69,11.69,0,0,0,.18,1.84,8.53,8.53,0,0,0,.48,1.73.61.61,0,0,0,.23.22,3.92,3.92,0,0,0,.58.29,26.9,26.9,0,0,0,7.19,1.84C240.58,336.25,241.14,336.31,241.71,336.36Z" transform="translate(-4.89 -128)"/><path id="path120" class="cls-9" d="M231.35,329.62c6.15-.25,9.46,1.76,10.36,6.74,2,.18,4.07.23,6.24.21l0-13.05a49,49,0,0,0-7.45.38,68.17,68.17,0,0,0-7.43,1.36,2.07,2.07,0,0,0-1,.41,1.39,1.39,0,0,0-.32.68c-.15.65-.27,1.29-.36,1.95,0,.44-.09.88-.1,1.32Z" transform="translate(-4.89 -128)"/><path id="path122" class="cls-9" d="M349.28,323.47l0,9.92c5.18-.12,10.71-1.52,16.34-3.3a12.6,12.6,0,0,0-.09-1.94,18.42,18.42,0,0,0-.37-1.94,1.27,1.27,0,0,0-.31-.68,2.07,2.07,0,0,0-1-.41,70.67,70.67,0,0,0-7.43-1.37,50.67,50.67,0,0,0-7.16-.38Z" transform="translate(-4.89 -128)"/><path id="path124" class="cls-10" d="M287.57,365.73c7.46-7.82,8.34-12,5.95-14.25s-7.71.25-13.94,6.49-8.49,11.39-5.73,14.38c1.85,2,6.41,1.06,13.72-6.62Z" transform="translate(-4.89 -128)"/><path id="path126" class="cls-6" d="M283.59,332.46a13.18,13.18,0,0,0,4.31-3.41,3.27,3.27,0,0,0,.63-3.18c-.39-1.07-2-1.57-4.36-1.53a29,29,0,0,0-9.14,1.94,42.09,42.09,0,0,0-8.61,4c-2,1.37-3.09,2.83-2.59,4.44.34,1.08,1.26,2,3.09,2.25a17.39,17.39,0,0,0,7.05-.81l.19.69a18,18,0,0,1-7.35.83c-2.15-.34-3.25-1.41-3.67-2.75-.62-2,.59-3.69,2.87-5.24a42.16,42.16,0,0,1,8.78-4.07,29.78,29.78,0,0,1,9.37-2c2.65,0,4.54.62,5,2a4,4,0,0,1-.73,3.85,13.61,13.61,0,0,1-4.55,3.62Z" transform="translate(-4.89 -128)"/><path id="path128" class="cls-3" d="M292.22,316.33s-.83-.85-.72-.87c.48-.1,1.75-.39,1.8-.38a23.12,23.12,0,0,0,4.26.4,24,24,0,0,0,16.2-6.36,20.41,20.41,0,0,0,6.85-14.89,20.87,20.87,0,0,0-6.75-15.06,23.3,23.3,0,0,0-15.95-6.38,24.32,24.32,0,0,0-16.31,6.33h0a20.12,20.12,0,0,0-6.87,14.78,20.33,20.33,0,0,0,4.14,12.1c0-.05-1.59.27-1.62.22a20.93,20.93,0,0,1,3.38-28.17h0a25.81,25.81,0,0,1,17.28-6.71,24.72,24.72,0,0,1,16.94,6.78,22.29,22.29,0,0,1,7.2,16.1,21.87,21.87,0,0,1-7.31,15.95,25.45,25.45,0,0,1-17.18,6.75,24.15,24.15,0,0,1-5.34-.6Zm5.5-35.74a15.24,15.24,0,0,0-10.4,4,12.92,12.92,0,0,0,0,19.21,15.52,15.52,0,0,0,20.8,0,12.92,12.92,0,0,0,0-19.21A15.25,15.25,0,0,0,297.72,280.59Zm-11.38,3a16.94,16.94,0,0,1,22.76,0,14.35,14.35,0,0,1,0,21.31,16.94,16.94,0,0,1-22.76,0,14.33,14.33,0,0,1,0-21.31Z" transform="translate(-4.89 -128)"/><path id="path130" class="cls-6" d="M284.9,323.66a16.71,16.71,0,0,0,5.47-3.35c1.3-1.29,1.85-2.54,1.62-3.45-.27-1.09-1.73-1.76-4-2a33.83,33.83,0,0,0-9.6.6l-.62.12h0a29.14,29.14,0,0,0-8.66,2.85c-2,1.15-3.06,2.53-2.76,4.13h0v0h0c.21,1.07,1.06,1.93,2.75,2.4a19.57,19.57,0,0,0,7.13.13l.08.71a19.82,19.82,0,0,1-7.39-.15c-2-.55-3-1.61-3.27-3h0v0h0c-.36-2,.86-3.57,3.11-4.89a30,30,0,0,1,8.88-2.93h0l.63-.11a34.64,34.64,0,0,1,9.81-.62c2.55.31,4.23,1.16,4.58,2.58.29,1.15-.32,2.65-1.82,4.13a17.14,17.14,0,0,1-5.71,3.51Z" transform="translate(-4.89 -128)"/><path id="path132" class="cls-6" d="M298.27,307.12a35.6,35.6,0,0,0,7.82-2.05c2.17-.93,3.74-2.15,3.78-3.72a4.53,4.53,0,0,0,0-.64,5.36,5.36,0,0,0-2.79-4.45,14.62,14.62,0,0,0-7-1.81c-.9,0-1.86,0-2.84,0-4,.24-7.7.61-10.15,1.73h0a5.07,5.07,0,0,0-3.28,4.36,4.22,4.22,0,0,0,.8,2.65,6,6,0,0,0,2.41,1.67l-.29.66a6.54,6.54,0,0,1-2.69-1.89,5,5,0,0,1-.95-3.08c0-1.94,1.31-3.94,3.7-5h0c2.54-1.16,6.29-1.55,10.41-1.8,1-.06,2,0,2.9,0a15.32,15.32,0,0,1,7.33,1.91,6,6,0,0,1,3.14,5,5.4,5.4,0,0,1,0,.7c-.06,1.91-1.8,3.32-4.22,4.36a36.24,36.24,0,0,1-8,2.1Z" transform="translate(-4.89 -128)"/><path id="path152" class="cls-11" d="M283.82,300.56a4.22,4.22,0,0,0,.8,2.65,5.9,5.9,0,0,0,2.33,1.64,35.88,35.88,0,0,1,4.56.07,15.29,15.29,0,0,1,5.94,1.51,6.55,6.55,0,0,1,1,.66,35.19,35.19,0,0,0,7.65-2c2.17-.93,3.74-2.15,3.78-3.72a4.53,4.53,0,0,0,0-.64,5.36,5.36,0,0,0-2.79-4.45,14.28,14.28,0,0,0-7-1.81c-.9,0-1.86,0-2.84,0-4,.24-7.79.66-10.25,1.78a4.87,4.87,0,0,0-3.18,4.31Z" transform="translate(-4.89 -128)"/><path id="path172" class="cls-12" d="M286.19,305.61a42.33,42.33,0,0,0-9.62,1.36c-2.28.73-3.67,1.81-3.71,3.5a3.35,3.35,0,0,0,1,2.75c.84.75,2.35,1.26,4.95,1.42a33.79,33.79,0,0,1,9.34-.53,7.88,7.88,0,0,1,3.54,1.14l0-.19a17.91,17.91,0,0,0,5.78-1.67,3.34,3.34,0,0,0,1.91-2.69,5.51,5.51,0,0,0,0-.57,3.79,3.79,0,0,0-2.21-3.07,14.8,14.8,0,0,0-5.66-1.42,36.67,36.67,0,0,0-5.26,0Z" transform="translate(-4.89 -128)"/><path id="path174" class="cls-6" d="M291.29,315.12a20.48,20.48,0,0,0,6.11-1.73,3.34,3.34,0,0,0,1.91-2.69,5.51,5.51,0,0,0,0-.57,3.79,3.79,0,0,0-2.21-3.07,14.8,14.8,0,0,0-5.66-1.42,36.67,36.67,0,0,0-5.26,0,42.33,42.33,0,0,0-9.62,1.36c-2.28.73-3.67,1.81-3.71,3.5a3.35,3.35,0,0,0,1,2.75c.84.75,2.35,1.27,5,1.42l0,.72c-2.81-.16-4.47-.75-5.42-1.61a4,4,0,0,1-1.21-3.3c.05-2.05,1.63-3.34,4.21-4.17a44,44,0,0,1,9.79-1.39,38.2,38.2,0,0,1,5.37,0,15.29,15.29,0,0,1,5.94,1.51,4.44,4.44,0,0,1,2.59,3.66,5,5,0,0,1,0,.67,4,4,0,0,1-2.27,3.25,19.6,19.6,0,0,1-6.16,1.79Z" transform="translate(-4.89 -128)"/><path id="path176" class="cls-9" d="M278.65,305.71a58.11,58.11,0,0,1,6.89-.78,5.53,5.53,0,0,1-1.49-1.28,5,5,0,0,1-.95-3.08v0a14.12,14.12,0,0,1-1.51-6.36,14.5,14.5,0,0,1,4.75-10.65,16.94,16.94,0,0,1,22.76,0,14.35,14.35,0,0,1,0,21.31,16.53,16.53,0,0,1-9.24,4.26,4.25,4.25,0,0,1,.17,1.65,4,4,0,0,1-2.27,3.25,13.35,13.35,0,0,1-3.42,1.25,22.92,22.92,0,0,0,3.22.22,24,24,0,0,0,16.2-6.36,20.41,20.41,0,0,0,6.85-14.89,20.87,20.87,0,0,0-6.75-15.06,23.3,23.3,0,0,0-15.95-6.38,24.28,24.28,0,0,0-16.31,6.34,19.49,19.49,0,0,0-3,26.58Z" transform="translate(-4.89 -128)"/><path id="path196" class="cls-13" d="M288,314.83a33.83,33.83,0,0,0-9.6.6l-.62.12a29.14,29.14,0,0,0-8.66,2.85c-2,1.15-3.06,2.53-2.76,4.13v0c.21,1.07,1.06,1.93,2.75,2.4a19.4,19.4,0,0,0,7.1.13,28,28,0,0,1,7.92-1.48c.28,0,.55,0,.81,0a16.5,16.5,0,0,0,5.4-3.32c1.3-1.29,1.85-2.54,1.62-3.45-.27-1.09-1.73-1.76-4-2Z" transform="translate(-4.89 -128)"/><path id="path216" class="cls-14" d="M284.17,324.34a29,29,0,0,0-9.14,1.94,42.09,42.09,0,0,0-8.61,4c-2,1.37-3.09,2.83-2.59,4.44.34,1.08,1.26,2,3.09,2.25a17.45,17.45,0,0,0,7-.8,29.41,29.41,0,0,1,8.21-3.54,8.86,8.86,0,0,1,1.53-.19,13,13,0,0,0,4.24-3.37,3.27,3.27,0,0,0,.63-3.18C288.14,324.8,286.51,324.3,284.17,324.34Z" transform="translate(-4.89 -128)"/><path id="path218" class="cls-9" d="M266,329.67a37.76,37.76,0,0,1,7.57-3.62,15.47,15.47,0,0,1-4.63-.39,4.14,4.14,0,0,1-3.14-2.49,61.64,61.64,0,0,0-6,2.1.57.57,0,0,1-.75-.32.58.58,0,0,1,.32-.75,65.58,65.58,0,0,1,6.23-2.17c0-1.67,1.16-3.09,3.17-4.26a27.68,27.68,0,0,1,7.68-2.68,8.89,8.89,0,0,1-1.83-.54l-1.05.11a68,68,0,0,0-11.44,2,59.24,59.24,0,0,0-11.46,4.57,2.88,2.88,0,0,0-.94.82,1.54,1.54,0,0,0-.34.83v11l18.54,5.78.19,0c1-.75,2.16-1.51,3.42-2.3a14.21,14.21,0,0,1-4.74.22c-2.15-.34-3.25-1.41-3.67-2.75-.62-2,.59-3.69,2.87-5.24Z" transform="translate(-4.89 -128)"/><path id="path220" class="cls-9" d="M288.48,329.47a12.19,12.19,0,0,1-3.62,3.08,2.9,2.9,0,0,1,1.86,1.33h0l0,0a4.35,4.35,0,0,1-.25,4.91,8.16,8.16,0,0,1-.46.68c2.33.07,4.69.16,7.07.25,15.94.59,32.81,1.22,41.34-4a.58.58,0,0,1,.8.19.57.57,0,0,1-.2.79c-8.83,5.39-25.87,4.76-42,4.16-2.48-.1-4.94-.19-7.31-.26a.59.59,0,0,1-.46-.24c-.34.38-.73.78-1.17,1.19,1.76-.66,3.11-.54,4.17.61a4.94,4.94,0,0,1,1,1.62q20.44.56,41.25-.57a41.61,41.61,0,0,0,17.25-8.19l0-11.58a3.79,3.79,0,0,0-.22-1.33,1.84,1.84,0,0,0-.51-.8c-3.18-2.79-8-4.69-13.67-6a120.4,120.4,0,0,0-19.11-2.48c-.94-.06-1.87-.11-2.81-.15a25.37,25.37,0,0,1-14,4.23,24,24,0,0,1-5-.52l.09.27a3,3,0,0,1-.09,1.56l1-.05c4.05-.16,8.07-.17,12.05-.09s7.95.27,11.87.48a33.27,33.27,0,0,1,8.19,1.29,18.68,18.68,0,0,1,6.94,3.79.57.57,0,1,1-.76.86,17.45,17.45,0,0,0-6.51-3.55,32.51,32.51,0,0,0-7.92-1.24c-3.93-.21-7.88-.39-11.83-.48s-8-.07-12,.09l-1.59.07a8,8,0,0,1-1.16,1.41,15.89,15.89,0,0,1-4.46,3c1.45.27,2.45.88,2.8,1.83a4,4,0,0,1-.73,3.85Z" transform="translate(-4.89 -128)"/><path id="path222" class="cls-6" d="M295.42,371.43c3.7-3.88,5.72-6.56,6.52-8.55s.38-3.07-.71-4.11-2.62-.92-4.65.15a36.5,36.5,0,0,0-7.85,6.42c-3.1,3.09-5.31,5.56-6.39,7.61s-1,3.49.23,4.86l.12.12c.75.71,1.91,1,3.54.44s4-1.95,6.75-4.53c.77-.71,1.59-1.52,2.44-2.41Zm7.19-8.28c-.84,2.07-2.91,4.83-6.67,8.77-.87.92-1.69,1.73-2.47,2.45-2.87,2.66-5.19,4.1-7,4.68s-3.32.29-4.25-.6l-.16-.15c-1.5-1.63-1.53-3.45-.34-5.68s3.38-4.65,6.52-7.79a37.23,37.23,0,0,1,8-6.55c2.32-1.23,4.15-1.29,5.48,0s1.76,2.7.88,4.9Z" transform="translate(-4.89 -128)"/><path id="path224" class="cls-6" d="M302.45,379.45c3.63-3.93,5.72-6.81,6.59-9s.53-3.42-.55-4.46-2.77-.77-4.95.45a41.84,41.84,0,0,0-8.17,6.73c-3.09,3.1-5.38,5.66-6.48,7.77s-1,3.55.5,4.78a4,4,0,0,0,4.44.7c2.05-.77,4.77-2.84,8.62-7Zm7.26-8.71c-.91,2.25-3,5.2-6.74,9.2-3.93,4.25-6.74,6.38-8.89,7.19a4.72,4.72,0,0,1-5.15-.82c-1.8-1.51-1.89-3.36-.68-5.67s3.47-4.8,6.61-7.95a42.13,42.13,0,0,1,8.33-6.85c2.48-1.38,4.46-1.61,5.79-.34S310.66,368.38,309.71,370.74Z" transform="translate(-4.89 -128)"/><path id="path226" class="cls-6" d="M316.55,396.26c1.28-.58,2.42-1.15,3.43-1.7,3.25-1.77,5.23-3.41,6.26-4.9a3.66,3.66,0,0,0,.58-3.77h0l-.12-.24c-.69-1.27-2.6-1.73-5.27-1.42a32.82,32.82,0,0,0-10.26,3.41c-3.91,1.94-6.8,3.75-8.44,5.5s-2,3.24-1,4.83,2.73,2,5.2,1.61a38.81,38.81,0,0,0,9.62-3.32Zm3.77-1.06c-1,.56-2.19,1.14-3.47,1.72A39.9,39.9,0,0,1,307,400.3c-2.77.4-4.82-.12-5.93-2s-.7-3.77,1.1-5.68,4.66-3.68,8.64-5.66a33.79,33.79,0,0,1,10.5-3.48c3-.34,5.13.24,6,1.79a2.7,2.7,0,0,1,.15.29h0a4.34,4.34,0,0,1-.65,4.48c-1.09,1.57-3.15,3.29-6.51,5.13Z" transform="translate(-4.89 -128)"/><path id="path228" class="cls-6" d="M309.58,387.67l.26-.26c1-1,1.86-1.92,2.62-2.79,2.42-2.8,3.71-5,4.16-6.79a3.69,3.69,0,0,0-.77-3.73l-.2-.19c-1.09-.94-3-.71-5.44.51a33,33,0,0,0-8.42,6.78c-3,3.18-5.06,5.89-6,8.1s-.7,3.72.74,4.87h0a3.27,3.27,0,0,0,2,.74,6,6,0,0,0,2.54-.61l.3.66a6.78,6.78,0,0,1-2.86.67,4,4,0,0,1-2.48-.9h0c-1.73-1.39-2-3.29-.95-5.71s3.08-5.07,6.13-8.32a33.49,33.49,0,0,1,8.62-6.92c2.67-1.36,4.89-1.57,6.23-.41l.24.22a4.36,4.36,0,0,1,1,4.42c-.48,1.86-1.81,4.19-4.32,7.08-.77.89-1.65,1.83-2.65,2.83l-.26.26Z" transform="translate(-4.89 -128)"/><path id="path230" class="cls-6" d="M310.14,406.12c1.12.11,2.36.16,3.7.16s2.78-.06,4.32-.16q2.08-.14,3.81-.36c3.66-.5,6.1-1.33,7.6-2.35a3.67,3.67,0,0,0,1.89-3.31l0-.27c-.17-1.27-1.46-2.29-3.58-3a27,27,0,0,0-9-.9l0-.72a27.59,27.59,0,0,1,9.26.94c2.39.77,3.86,2,4.07,3.55,0,.11,0,.22,0,.33A4.38,4.38,0,0,1,330,404c-1.58,1.08-4.12,1.95-7.91,2.46-1.16.16-2.45.28-3.86.37s-3,.15-4.36.16-2.63-.05-3.78-.16Z" transform="translate(-4.89 -128)"/><path id="path232" class="cls-6" d="M310.23,417a26.89,26.89,0,0,0,3.66,1,45,45,0,0,0,4.52.69c.89.1,1.74.16,2.53.21,4.29.22,7.19-.3,9.06-1.24a4.52,4.52,0,0,0,2.75-3.58c0-.08,0-.17,0-.25.08-1.56-1.35-3.16-3.86-4.45a27.64,27.64,0,0,0-10.2-2.56l.05-.72a28.5,28.5,0,0,1,10.48,2.64c2.77,1.43,4.34,3.26,4.25,5.13l0,.28a5.18,5.18,0,0,1-3.14,4.15c-2,1-5,1.55-9.42,1.31-.81,0-1.66-.11-2.57-.2-1.65-.18-3.18-.42-4.59-.71a27.37,27.37,0,0,1-3.76-1.05Z" transform="translate(-4.89 -128)"/><path id="path234" class="cls-6" d="M310.11,426c.8.53,1.69,1.06,2.65,1.6s2,1.08,3.06,1.62c4.78,2.41,8.14,3.53,10.47,3.62s3.48-.78,4.17-2.36h0v0h0c.65-1.53-.17-3.35-2.12-5.22a32.55,32.55,0,0,0-9.35-5.71l-.55-.23.28-.66.55.23a33.23,33.23,0,0,1,9.57,5.85c2.17,2.09,3.06,4.18,2.28,6h0v0h0c-.81,1.88-2.29,2.9-4.86,2.8s-5.89-1.24-10.76-3.7c-1.1-.55-2.14-1.1-3.1-1.64s-1.86-1.08-2.68-1.61Z" transform="translate(-4.89 -128)"/><path id="path236" class="cls-6" d="M310.23,440.88a11.32,11.32,0,0,0,5.35,1.73,4.13,4.13,0,0,0,3.49-1.57c.9-1.17.6-3.16-.74-5.55a30.1,30.1,0,0,0-7-7.87l-.77-.63-.76-.59.44-.57.77.6.78.64a30.56,30.56,0,0,1,7.2,8.07c1.49,2.65,1.77,4.92.68,6.34a4.85,4.85,0,0,1-4.06,1.85,12,12,0,0,1-5.7-1.82Z" transform="translate(-4.89 -128)"/><path id="path238" class="cls-6" d="M342.74,543.67a5.13,5.13,0,0,0,3-1.17,3.74,3.74,0,0,0,1.12-2.61,2.91,2.91,0,0,0-1.67-2.61,12,12,0,0,0-5.22-1.36,13.32,13.32,0,0,0-5.86.77c-1.45.59-2.38,1.46-2.45,2.46a2,2,0,0,0,.38,1.31,4.49,4.49,0,0,0,1.4,1.27l-.39.61a5.29,5.29,0,0,1-1.61-1.48,2.75,2.75,0,0,1-.5-1.76c.09-1.3,1.19-2.38,2.89-3.08a14.22,14.22,0,0,1,6.19-.82,12.63,12.63,0,0,1,5.54,1.47,3.56,3.56,0,0,1,2,3.26,4.41,4.41,0,0,1-1.36,3.1,5.77,5.77,0,0,1-3.43,1.36Z" transform="translate(-4.89 -128)"/><path id="path240" class="cls-6" d="M344.43,536.19a2.62,2.62,0,0,0,1.54-1.06,3.09,3.09,0,0,0,.37-2,3.36,3.36,0,0,0-2.14-2.62h0a10.18,10.18,0,0,0-5.17-.68,14.7,14.7,0,0,0-6.11,1.9c-1.53.92-2.51,2-2.43,3a1.85,1.85,0,0,0,.6,1.23,3.4,3.4,0,0,0,1.62.74l-.15.7a3.94,3.94,0,0,1-1.95-.91,2.57,2.57,0,0,1-.84-1.7h0c-.11-1.29,1-2.63,2.78-3.69a15.5,15.5,0,0,1,6.42-2,10.88,10.88,0,0,1,5.53.75h0a4.06,4.06,0,0,1,2.56,3.19,3.8,3.8,0,0,1-.48,2.43,3.28,3.28,0,0,1-2,1.37Z" transform="translate(-4.89 -128)"/><path id="path242" class="cls-6" d="M343.09,529.4a2.75,2.75,0,0,0,1.23-1.94,6.14,6.14,0,0,0-.31-3.18,2.91,2.91,0,0,0-2.65-1.59,12,12,0,0,0-5.29,1.09h0A15.18,15.18,0,0,0,331,527.1c-1.13,1.19-1.67,2.39-1.29,3.31h0a1.59,1.59,0,0,0,.89.91,3,3,0,0,0,1.69,0l.14.7a3.6,3.6,0,0,1-2.09-.08,2.3,2.3,0,0,1-1.3-1.31h0c-.49-1.21.12-2.68,1.44-4.07a15.67,15.67,0,0,1,5.37-3.49h0a12.72,12.72,0,0,1,5.61-1.14,3.57,3.57,0,0,1,3.26,2,6.78,6.78,0,0,1,.35,3.59,3.39,3.39,0,0,1-1.56,2.43Z" transform="translate(-4.89 -128)"/><path id="path244" class="cls-6" d="M331.42,509.36a5.77,5.77,0,0,0,1-2.38,3.28,3.28,0,0,0-.37-2l-.07-.12a2.89,2.89,0,0,0-2.48-1.32,9,9,0,0,0-4.53,1.34q-.37.2-.78.45a18.26,18.26,0,0,0-1.73,1.2,12.15,12.15,0,0,0-3.3,3.79,3.35,3.35,0,0,0-.18,3.31l.17.25h0a3.07,3.07,0,0,0,2,1.3,7.07,7.07,0,0,0,2.58-.37l.19.7a7.74,7.74,0,0,1-2.86.38,3.69,3.69,0,0,1-2.51-1.57h0a3.71,3.71,0,0,1-.23-.32,4,4,0,0,1,.16-4,12.75,12.75,0,0,1,3.5-4,17,17,0,0,1,1.8-1.26l.8-.47a9.81,9.81,0,0,1,4.9-1.42,3.61,3.61,0,0,1,3.07,1.66l.09.16a4,4,0,0,1,.45,2.47,6.53,6.53,0,0,1-1.08,2.68Z" transform="translate(-4.89 -128)"/><path id="path246" class="cls-6" d="M326.6,503.37a6.1,6.1,0,0,0,1.06-2.42,3.14,3.14,0,0,0-.32-2,3.28,3.28,0,0,0-.2-.31,3,3,0,0,0-2.31-1.13,7.44,7.44,0,0,0-3.91,1.08,14.55,14.55,0,0,0-1.72,1.11h0l-.28.21h0a17.15,17.15,0,0,0-4.42,4.56c-.82,1.38-1,2.64-.27,3.62h0l0,0h0a3.24,3.24,0,0,0,2.14,1.38,5.81,5.81,0,0,0,2.72-.44l.23.68a6.61,6.61,0,0,1-3,.48,3.9,3.9,0,0,1-2.61-1.66h0l0,0h0c-.93-1.24-.75-2.78.22-4.41a17.84,17.84,0,0,1,4.6-4.77h0l.29-.22h0a14.71,14.71,0,0,1,1.81-1.16,8.07,8.07,0,0,1,4.29-1.17,3.73,3.73,0,0,1,2.85,1.42c.09.13.17.26.25.4a3.81,3.81,0,0,1,.4,2.46,6.66,6.66,0,0,1-1.17,2.71Z" transform="translate(-4.89 -128)"/><path id="path248" class="cls-6" d="M322,497.27a6.06,6.06,0,0,0,1.05-2.42,3.15,3.15,0,0,0-.32-2l0,0h0a2.85,2.85,0,0,0-2.27-1.39,7.18,7.18,0,0,0-4.12,1.06l-.16.09-.35-.63.16-.09h0a7.93,7.93,0,0,1,4.55-1.15,3.58,3.58,0,0,1,2.82,1.75h0l0,0h0a3.75,3.75,0,0,1,.4,2.46,6.66,6.66,0,0,1-1.17,2.71Zm-11.8,5.36a2.89,2.89,0,0,0,1.91.79,6.75,6.75,0,0,0,2.39-.46l.24.68a7.27,7.27,0,0,1-2.66.5,3.54,3.54,0,0,1-2.36-1Z" transform="translate(-4.89 -128)"/><path id="path250" class="cls-6" d="M310.14,487.81a7.31,7.31,0,0,1,2.94-.45,3.42,3.42,0,0,1,2.19,1c.1.1.19.21.28.31a4.24,4.24,0,0,1,.85,3.26,7.43,7.43,0,0,1-2.34,4.14h0a13.34,13.34,0,0,1-1.09,1c-.47.38-.94.73-1.4,1.06h0c-.46.33-.92.63-1.36.9l-.37-.62c.44-.26.88-.55,1.32-.86h0c.45-.32.9-.67,1.35-1a11.93,11.93,0,0,0,1-.92h0a6.71,6.71,0,0,0,2.14-3.72,3.52,3.52,0,0,0-.7-2.71c-.08-.09-.15-.18-.23-.26a2.74,2.74,0,0,0-1.74-.78,6.42,6.42,0,0,0-2.65.41Z" transform="translate(-4.89 -128)"/><path id="path252" class="cls-6" d="M326.45,551.17a15,15,0,0,0,1.8,1.75c.8.67,1.67,1.31,2.51,1.88l.51.33h0a11.93,11.93,0,0,0,4.92,1.49c1.53.1,2.82-.17,3.29-.86a.25.25,0,0,0,0-.07,2.18,2.18,0,0,0,0-1.87,7.85,7.85,0,0,0-1.79-2.6l.51-.5a8.47,8.47,0,0,1,2,2.84,2.87,2.87,0,0,1,0,2.5l-.07.1c-.63.93-2.16,1.29-3.93,1.18a12.64,12.64,0,0,1-5.24-1.59h0l-.56-.35c-.86-.59-1.75-1.25-2.56-1.93a17.38,17.38,0,0,1-1.89-1.83Z" transform="translate(-4.89 -128)"/><path id="path254" class="cls-6" d="M321,552.85a13.09,13.09,0,0,0,1.11,2.78,9.89,9.89,0,0,0,1.54,2.21,6,6,0,0,0,.44.43,11.62,11.62,0,0,0,4.49,2.49c1.48.42,2.79.43,3.4-.15l.05-.05h0a2.17,2.17,0,0,0,.37-1.84,8,8,0,0,0-1.21-2.92l.61-.39a8.67,8.67,0,0,1,1.31,3.2,2.87,2.87,0,0,1-.55,2.43h0a.38.38,0,0,1-.09.09c-.81.77-2.38.81-4.08.32a12.42,12.42,0,0,1-4.79-2.65c-.16-.15-.32-.3-.47-.47a10.4,10.4,0,0,1-1.66-2.36,14.78,14.78,0,0,1-1.17-2.93Z" transform="translate(-4.89 -128)"/><path id="path256" class="cls-6" d="M315.53,553.72a9,9,0,0,0,.21,1.72,14,14,0,0,0,.44,1.58,9.61,9.61,0,0,0,.76,1.66,8.86,8.86,0,0,0,2.45,2.76,2.76,2.76,0,0,0,2.32.65,1,1,0,0,0,.23-.11,2.18,2.18,0,0,0,1.06-1.31,5,5,0,0,0-.15-2.64l.69-.19a5.65,5.65,0,0,1,.15,3,2.87,2.87,0,0,1-1.39,1.74,2.83,2.83,0,0,1-.36.16,3.43,3.43,0,0,1-3-.74,9.61,9.61,0,0,1-2.65-3,9.37,9.37,0,0,1-.82-1.79,14.2,14.2,0,0,1-.47-1.66,11.27,11.27,0,0,1-.22-1.85Z" transform="translate(-4.89 -128)"/><path id="path258" class="cls-6" d="M310.13,555.73a10.22,10.22,0,0,0,.21,2.14,6.61,6.61,0,0,0,1.49,3,3,3,0,0,0,2,1.05,1.9,1.9,0,0,0,.41,0,2.09,2.09,0,0,0,1.37-.9,4.27,4.27,0,0,0,.43-2.51l.71,0a4.81,4.81,0,0,1-.54,2.94,2.72,2.72,0,0,1-1.82,1.21,2.6,2.6,0,0,1-.56.06,3.66,3.66,0,0,1-2.56-1.28,7.3,7.3,0,0,1-1.66-3.38,10.39,10.39,0,0,1-.23-2.31Z" transform="translate(-4.89 -128)"/><path id="path260" class="cls-6" d="M243.53,509.15a9.18,9.18,0,0,1-.24-2,3,3,0,0,1,.63-2h0a3.41,3.41,0,0,1,2.58-1.23,8.1,8.1,0,0,1,3.34.72,20.48,20.48,0,0,1,3.13,1.62,30.16,30.16,0,0,1,3.28,2.28l1.29,1c3.78,3,6.9,5.46,6.6,9l-.72-.06c.27-3.14-2.71-5.5-6.32-8.36l-1.3-1a31.17,31.17,0,0,0-3.2-2.23,21.56,21.56,0,0,0-3-1.57,7.82,7.82,0,0,0-3.05-.67,2.81,2.81,0,0,0-2.07,1h0a2.35,2.35,0,0,0-.45,1.52,8.11,8.11,0,0,0,.23,1.87Z" transform="translate(-4.89 -128)"/><path id="path262" class="cls-15" d="M309.52,346.09A.72.72,0,1,1,311,346c0,.23-.08,31.48-.18,66.69-.14,44.57-.29,95.48-.27,97.78a12.22,12.22,0,0,0,.88,5,4.83,4.83,0,0,0,2.81,2.65,17.68,17.68,0,0,0,4,1,25.6,25.6,0,0,0,4.31.07c5.57-.35,10.6-2.29,15.66-4.23l1.72-.66c4.58-1.75,7.89-5,10.76-7.81l.07-.06a5.53,5.53,0,0,0,1.66-3.55,10.92,10.92,0,0,0-.63-4.29,14.09,14.09,0,0,0-2.51-4.14l-.27-.35v-.87c5.48-7.43,11-14.81,16.68-21.53a115.42,115.42,0,0,1,18-17.61l1,.19a92.3,92.3,0,0,1,10,20.68,73.4,73.4,0,0,1,3.82,21.9,66.18,66.18,0,0,1-3.22,20.92,131.28,131.28,0,0,1-8.16,19.59l-1.09.24c-1.26-1-2.65-2.06-4-3.11l-2.21-1.7a8.89,8.89,0,0,0-3.2-1.69,3.06,3.06,0,0,0-2.71.58,69.19,69.19,0,0,1-13.1,8.06,151.6,151.6,0,0,1-15.26,6.19l-2,.69c-3.57,1.27-7.09,2.52-10.84,3.71-2.8.88-5.63,1.63-8.48,2.3s-5.72,1.25-8.61,1.82c-.51.1-1.08.19-1.66.28-2,.33-4.1.66-5.64,1.95a40.43,40.43,0,0,0-5.78,5.66,25.89,25.89,0,0,0-4,7.4l-1.35,0a38.91,38.91,0,0,0-3.23-6.47,14,14,0,0,0-3.35-3.78,9.05,9.05,0,0,0-1.83-1,10.25,10.25,0,0,0-2.09-.61,171.77,171.77,0,0,1-20.6-5.27c-6.73-2.16-13.37-4.69-20-7.49-4.29-1.82-8.36-3.63-12.26-5.61a105.39,105.39,0,0,1-11.38-6.6,6.67,6.67,0,0,0-4-1.3,5.15,5.15,0,0,0-3.39,1.6,23.35,23.35,0,0,0-3,4c-.47.72-1,1.44-1.48,2.15l-1.1.07a41.91,41.91,0,0,1-9-14.51c-2.28-6.18-3.69-13.94-3.66-24a84.1,84.1,0,0,1,3.8-23.92A145.14,145.14,0,0,1,210,454.09l1.16-.18c6,6.17,11.91,12.41,17.84,18.65s11.91,12.52,17.83,18.63l-.08,1.07a12.55,12.55,0,0,0-3.34,3.89,18.21,18.21,0,0,0-2,5.53,6.31,6.31,0,0,0,1.18,5.24,19.69,19.69,0,0,0,4.46,3.93,46.14,46.14,0,0,0,10.42,5.53h0a49.27,49.27,0,0,0,11.72,2.78c1.39.16,2.82.29,4.23.34a32.25,32.25,0,0,0,4.18-.07,7,7,0,0,0,4.84-2.66,9.71,9.71,0,0,0,2.07-6l.32-132.08a.72.72,0,1,1,1.43,0L286,510.79a11.12,11.12,0,0,1-2.39,6.88,8.36,8.36,0,0,1-5.83,3.19,33.43,33.43,0,0,1-4.37.08c-1.47-.06-2.92-.19-4.33-.35A50.4,50.4,0,0,1,257,517.72h0a47.57,47.57,0,0,1-10.74-5.7,21,21,0,0,1-4.79-4.25A7.7,7.7,0,0,1,240,501.4a19.88,19.88,0,0,1,2.13-6,14.19,14.19,0,0,1,3.09-3.81c-5.79-6-11.54-12-17.29-18.08s-11.43-12-17.12-17.9a140.74,140.74,0,0,0-8.75,21.69,82.81,82.81,0,0,0-3.75,23.5c0,9.87,1.35,17.47,3.59,23.5A40.35,40.35,0,0,0,210,537.72c.32-.46.62-.92.93-1.39a24.45,24.45,0,0,1,3.23-4.18,6.52,6.52,0,0,1,4.32-2,8,8,0,0,1,4.83,1.54,105.67,105.67,0,0,0,11.23,6.51c3.89,2,7.92,3.77,12.17,5.56,6.57,2.78,13.17,5.3,19.87,7.45A170.36,170.36,0,0,0,287,556.44a11,11,0,0,1,2.37.69,10.54,10.54,0,0,1,2.11,1.18,15.38,15.38,0,0,1,3.73,4.18,36.53,36.53,0,0,1,2.67,5.07,26.13,26.13,0,0,1,3.59-6.13,40.57,40.57,0,0,1,6-5.87c1.85-1.55,4.1-1.91,6.35-2.27.51-.08,1-.16,1.6-.27,2.88-.57,5.74-1.15,8.56-1.82s5.61-1.4,8.37-2.27c3.78-1.19,7.26-2.43,10.81-3.69l2-.69a149.49,149.49,0,0,0,15.11-6.13A67,67,0,0,0,373,530.53a4.44,4.44,0,0,1,3.93-.85,10.13,10.13,0,0,1,3.76,2l2.21,1.69,3.36,2.58A127.85,127.85,0,0,0,394,517.33a64.74,64.74,0,0,0,3.16-20.48,71.85,71.85,0,0,0-3.74-21.47,90.92,90.92,0,0,0-9.47-19.69,115.61,115.61,0,0,0-17.14,16.91c-5.57,6.55-10.94,13.76-16.3,21a14.68,14.68,0,0,1,2.68,4.49,12.4,12.4,0,0,1,.69,4.87,6.9,6.9,0,0,1-2.08,4.44l-.07.06c-3,2.93-6.4,6.28-11.26,8.13l-1.71.66c-5.16,2-10.31,4-16.1,4.33a26.34,26.34,0,0,1-4.55-.08,19.32,19.32,0,0,1-4.38-1,6.24,6.24,0,0,1-3.62-3.39,13.62,13.62,0,0,1-1-5.59c0-2.31.14-53.22.27-97.79.1-35.18.2-66.4.19-66.63Z" transform="translate(-4.89 -128)"/><path id="path264" class="cls-6" d="M335.86,515.79a4.24,4.24,0,0,0,1.23-2.7,3.82,3.82,0,0,0-.56-2l-.07-.12h0a3,3,0,0,0-2.54-1.37,8.86,8.86,0,0,0-4.58,1.3c-.24.13-.48.27-.73.43s-.55.34-.81.52a14.38,14.38,0,0,0-4.11,4.09h0c-.81,1.33-1.06,2.6-.49,3.52h0l.05.09a3.5,3.5,0,0,0,2,1.44h0a3.52,3.52,0,0,0,2.43-.33l.31.65a4.27,4.27,0,0,1-2.92.38h0a4.17,4.17,0,0,1-2.37-1.73l-.08-.12h0c-.72-1.18-.45-2.71.49-4.27h0a15.11,15.11,0,0,1,4.32-4.31c.27-.19.55-.37.84-.55l.76-.44a9.56,9.56,0,0,1,5-1.39,3.73,3.73,0,0,1,3.1,1.72h0l.09.15a4.55,4.55,0,0,1,.65,2.31,5,5,0,0,1-1.41,3.16Z" transform="translate(-4.89 -128)"/><path id="path266" class="cls-6" d="M338.8,543h0l0,0a13.6,13.6,0,0,0-5.91-.35c-1.53.31-2.61,1-2.87,2s.34,2.09,1.51,3.12a13.42,13.42,0,0,0,5.27,2.64h0a13.45,13.45,0,0,0,5.91.35c1.53-.31,2.61-1,2.86-2s-.33-2.09-1.5-3.12A13.32,13.32,0,0,0,338.8,543Zm-6.09-1.07a13.89,13.89,0,0,1,6.18.35h.05a14,14,0,0,1,5.58,2.8c1.38,1.21,2.07,2.59,1.73,3.85s-1.62,2.11-3.42,2.48a14.24,14.24,0,0,1-6.19-.35h0l0,0a14.11,14.11,0,0,1-5.58-2.79c-1.38-1.22-2.07-2.6-1.73-3.86s1.62-2.11,3.42-2.47Z" transform="translate(-4.89 -128)"/><path id="path268" class="cls-6" d="M261.34,512.7a12,12,0,0,0,4.67,1.47,1.85,1.85,0,0,0,1.81-1c.51-.93.34-2-.77-3.62a42.57,42.57,0,0,0-6.94-6.84c-.83-.71-1.63-1.33-2.38-1.86A14.18,14.18,0,0,0,251.4,498a3.44,3.44,0,0,0-3.15,1l-.14.18a2.84,2.84,0,0,0-.51,2.13h0a6.69,6.69,0,0,0,1.81,3.23l-.53.48a7.3,7.3,0,0,1-2-3.6h0a3.52,3.52,0,0,1,.64-2.66,1.84,1.84,0,0,1,.17-.22,4.11,4.11,0,0,1,3.77-1.24,14.92,14.92,0,0,1,6.68,3c.77.54,1.58,1.17,2.43,1.9a42.59,42.59,0,0,1,7.05,7c1.3,1.84,1.47,3.18.82,4.38a2.51,2.51,0,0,1-2.45,1.36,12.64,12.64,0,0,1-5-1.54Z" transform="translate(-4.89 -128)"/><path id="path270" class="cls-6" d="M264.86,506c1.43,1.62,2.51,2.26,3.35,2.34a2.26,2.26,0,0,0,1.89-1c.74-.88.79-2.2-.35-4.17a30.72,30.72,0,0,0-6.38-7c-3.58-3.15-6.05-4.69-7.84-5.26a3.45,3.45,0,0,0-3.49.41h0l0,0h0a3,3,0,0,0-.87,2.3,6,6,0,0,0,1.41,3.67l.19.24-.55.46c-.06-.07-.14-.16-.21-.26a6.72,6.72,0,0,1-1.56-4.11,3.75,3.75,0,0,1,1.13-2.85h0l.06,0h0a4.12,4.12,0,0,1,4.16-.52c1.88.6,4.44,2.17,8.1,5.39a31.86,31.86,0,0,1,6.52,7.22c1.32,2.29,1.22,3.89.28,5a2.9,2.9,0,0,1-2.5,1.24c-1-.09-2.26-.8-3.83-2.58Z" transform="translate(-4.89 -128)"/><path id="path290" class="cls-16" d="M273.85,372.35c1.85,2,6.41,1.06,13.72-6.62s8.34-12,5.95-14.25c-1.77-1.7-5.16-.74-9.34,2.42q-.92.92-2,1.92c-.91.84-1.78,1.59-2.61,2.26l-.4.32c-5.91,6.05-8,11-5.31,14Z" transform="translate(-4.89 -128)"/><path id="path292" class="cls-6" d="M274.07,372.16a1.13,1.13,0,0,0,.11.11c.77.73,2,1,3.76.37a21,21,0,0,0,7-4.71q1.15-1.06,2.43-2.4c3.69-3.88,5.76-6.84,6.6-9.1s.46-3.68-.65-4.74a3.48,3.48,0,0,0-3.45-.55,16.79,16.79,0,0,0-5.5,3l-.95.93c-.33.32-.68.65-1.05,1s-.89.81-1.33,1.19l-1.3,1.08-.2.16h0l-.19.15c-3,3-5,5.79-5.84,8.13s-.69,4.06.56,5.42Zm-.29.53-.14-.14h0c-1.41-1.53-1.59-3.58-.67-6s3-5.25,6-8.34l0,0h0l.2-.16.2-.16c.42-.33.85-.69,1.28-1.07s.87-.75,1.32-1.17l1-1,1-.93h0l0,0a17.33,17.33,0,0,1,5.72-3.09,4,4,0,0,1,4,.69c1.28,1.22,1.69,2.93.79,5.36s-3,5.36-6.73,9.3c-.85.89-1.67,1.7-2.45,2.42-2.91,2.69-5.31,4.2-7.21,4.83s-3.42.39-4.34-.49Z" transform="translate(-4.89 -128)"/><path id="path312" class="cls-17" d="M288.73,365.34c-3.1,3.09-5.31,5.56-6.39,7.61s-1,3.49.23,4.86l.12.12c.75.71,1.91,1,3.54.44s4-1.95,6.75-4.53c.77-.71,1.59-1.52,2.44-2.41,3.7-3.88,5.72-6.56,6.52-8.55s.38-3.07-.71-4.11-2.62-.92-4.65.15a36.5,36.5,0,0,0-7.85,6.42Z" transform="translate(-4.89 -128)"/><path id="path332" class="cls-18" d="M295.37,373.2c-3.09,3.1-5.38,5.66-6.48,7.77s-1,3.55.5,4.78a4,4,0,0,0,4.44.7c2.05-.77,4.77-2.84,8.62-7,3.63-3.93,5.72-6.81,6.59-9s.53-3.42-.55-4.46-2.77-.77-4.95.45a41.84,41.84,0,0,0-8.17,6.73Z" transform="translate(-4.89 -128)"/><path id="path352" class="cls-19" d="M310.21,374.42a33,33,0,0,0-8.42,6.78c-3,3.18-5.06,5.89-6,8.1s-.7,3.72.75,4.87a3.24,3.24,0,0,0,2,.74,5.74,5.74,0,0,0,2.36-.53,7.28,7.28,0,0,1,1.26-1.73,28.11,28.11,0,0,1,7.43-5l.2-.2c1-1,1.86-1.92,2.62-2.79,2.42-2.8,3.71-5,4.16-6.79a3.69,3.69,0,0,0-.77-3.73l-.2-.19c-1.09-.94-3-.71-5.44.51Z" transform="translate(-4.89 -128)"/><path id="path372" class="cls-20" d="M321.43,384.23a32.82,32.82,0,0,0-10.26,3.41c-3.91,1.94-6.8,3.75-8.44,5.5s-2,3.24-1,4.82,2.73,2,5.2,1.62a39.23,39.23,0,0,0,9.62-3.32c1.28-.58,2.42-1.15,3.43-1.7,3.25-1.77,5.23-3.41,6.26-4.9a3.66,3.66,0,0,0,.58-3.77l-.12-.24c-.69-1.27-2.6-1.73-5.27-1.42Z" transform="translate(-4.89 -128)"/><path id="path388" class="cls-21" d="M338.76,542.93a13.6,13.6,0,0,0-5.91-.35c-1.53.31-2.61,1-2.87,2s.34,2.09,1.51,3.12a13.42,13.42,0,0,0,5.27,2.64h0a13.45,13.45,0,0,0,5.91.35c1.53-.31,2.61-1,2.86-2s-.33-2.09-1.5-3.12A13.32,13.32,0,0,0,338.8,543Z" transform="translate(-4.89 -128)"/><path id="path404" class="cls-22" d="M333.44,541.76a14.66,14.66,0,0,1,5.45.47h.05a16.3,16.3,0,0,1,3.81,1.54v-.11a5.13,5.13,0,0,0,3-1.17,3.74,3.74,0,0,0,1.12-2.61,2.91,2.91,0,0,0-1.67-2.61,12,12,0,0,0-5.22-1.36,13.32,13.32,0,0,0-5.86.77c-1.45.59-2.38,1.46-2.45,2.46a2,2,0,0,0,.38,1.31,4.49,4.49,0,0,0,1.4,1.27Z" transform="translate(-4.89 -128)"/><path id="path420" class="cls-23" d="M333.85,536a14.22,14.22,0,0,1,6.19-.82,14.73,14.73,0,0,1,4.5.95,2.54,2.54,0,0,0,1.43-1,3.09,3.09,0,0,0,.37-2,3.36,3.36,0,0,0-2.14-2.62,10.18,10.18,0,0,0-5.17-.68,14.7,14.7,0,0,0-6.11,1.9c-1.54.92-2.51,2-2.43,3a1.85,1.85,0,0,0,.6,1.23,3.31,3.31,0,0,0,1.47.71,6.82,6.82,0,0,1,1.29-.69Z" transform="translate(-4.89 -128)"/><path id="path436" class="cls-24" d="M332.55,531.14a15.5,15.5,0,0,1,6.42-2,12.51,12.51,0,0,1,4.13.26,2.75,2.75,0,0,0,1.22-1.94,6.14,6.14,0,0,0-.31-3.18,2.91,2.91,0,0,0-2.65-1.59,12,12,0,0,0-5.29,1.09A15.18,15.18,0,0,0,331,527.1c-1.13,1.19-1.67,2.39-1.29,3.31a1.59,1.59,0,0,0,.89.91,3,3,0,0,0,1.62.06l.38-.24Z" transform="translate(-4.89 -128)"/><path id="path452" class="cls-25" d="M330.51,526.52a16.06,16.06,0,0,1,5.29-3.41,15.19,15.19,0,0,1,4.5-1.15,2.58,2.58,0,0,0,1.33-1.63,4,4,0,0,0-.33-2.55,2.89,2.89,0,0,0-2.65-1.6,12,12,0,0,0-5.28,1.1c-.26.1-.5.21-.74.33a12.5,12.5,0,0,0-4.48,3.54c-1,1.29-1.42,2.59-1,3.55l0,.1a3.34,3.34,0,0,0,1.52,1.5A2.67,2.67,0,0,0,330.51,526.52Z" transform="translate(-4.89 -128)"/><path id="path468" class="cls-26" d="M327.57,520.72a13.4,13.4,0,0,1,4.75-3.76c.25-.13.52-.24.78-.35a18.48,18.48,0,0,1,2.84-.91,4.18,4.18,0,0,0,1.15-2.61,3.82,3.82,0,0,0-.56-2l-.07-.12a3,3,0,0,0-2.54-1.37,8.86,8.86,0,0,0-4.58,1.3l-.73.43c-.28.16-.55.34-.81.52a14.38,14.38,0,0,0-4.11,4.09c-.81,1.33-1.06,2.6-.49,3.52l.05.09a3.23,3.23,0,0,0,4.31,1.14Z" transform="translate(-4.89 -128)"/><path id="path484" class="cls-27" d="M327.39,511.3c.27-.19.55-.37.84-.55l.76-.44a13.12,13.12,0,0,1,2.5-1.06,5.75,5.75,0,0,0,.9-2.27,3.28,3.28,0,0,0-.37-2l-.07-.12a2.89,2.89,0,0,0-2.48-1.32,9,9,0,0,0-4.53,1.34q-.37.2-.78.45a18.26,18.26,0,0,0-1.73,1.2,12.15,12.15,0,0,0-3.3,3.79,3.35,3.35,0,0,0-.18,3.31l.17.25a3.07,3.07,0,0,0,2,1.3,6.75,6.75,0,0,0,2.46-.34,16,16,0,0,1,3.77-3.5Z" transform="translate(-4.89 -128)"/><path id="path500" class="cls-28" d="M322,505.93a17,17,0,0,1,1.8-1.26l.8-.47a15.25,15.25,0,0,1,2.08-.93,6,6,0,0,0,1-2.32,3.14,3.14,0,0,0-.32-2,3.28,3.28,0,0,0-.2-.31,3,3,0,0,0-2.31-1.13,7.44,7.44,0,0,0-3.91,1.08,14.55,14.55,0,0,0-1.72,1.11l-.28.21a17.15,17.15,0,0,0-4.42,4.56c-.82,1.38-1,2.64-.27,3.62l0,0a3.24,3.24,0,0,0,2.14,1.38,5.73,5.73,0,0,0,2.6-.4,14,14,0,0,1,3-3.16Z" transform="translate(-4.89 -128)"/><path id="path517" class="cls-29" d="M269.75,503.19a30.72,30.72,0,0,0-6.38-7c-3.58-3.15-6.05-4.69-7.84-5.26a3.45,3.45,0,0,0-3.49.41l0,0a3,3,0,0,0-.87,2.3,6,6,0,0,0,1.41,3.67l.12.15a17.65,17.65,0,0,1,5.5,2.8c.77.54,1.58,1.17,2.43,1.9,1.72,1.45,3.13,2.72,4.27,3.84h0l.06.07c.36.35.68.68,1,1a4.2,4.2,0,0,0,2.31,1.27,2.26,2.26,0,0,0,1.89-1c.74-.88.79-2.2-.35-4.17Z" transform="translate(-4.89 -128)"/><path id="path534" class="cls-30" d="M264.41,506.58c-1.14-1.12-2.56-2.39-4.3-3.86-.83-.71-1.63-1.33-2.38-1.86A14.18,14.18,0,0,0,251.4,498a3.44,3.44,0,0,0-3.15,1l-.14.18a2.84,2.84,0,0,0-.51,2.13,6.59,6.59,0,0,0,1.77,3.19,3.8,3.8,0,0,1,.47.18,20.48,20.48,0,0,1,3.13,1.62,30.16,30.16,0,0,1,3.28,2.28l1.29,1c1.4,1.11,2.7,2.14,3.78,3.18l0,0a12,12,0,0,0,4.67,1.47,1.85,1.85,0,0,0,1.81-1c.51-.93.34-2-.77-3.62a19.38,19.38,0,0,0-1.68-2c-.3-.28-.62-.61-1-1Z" transform="translate(-4.89 -128)"/><path id="path536" class="cls-4" d="M210.18,456.18c-.82,5.92-1.2,26.33,3.4,37.5,4,9.62,4.95,11.55,5.58,16.88.83,7-1.47,10.55-4.67,14.4a18.56,18.56,0,0,1-9.69,6.35" transform="translate(-4.89 -128)"/><path id="path538" class="cls-9" d="M213.58,493.68c-4.35-10.58-4.25-29.46-3.52-36.46a138,138,0,0,0-8,20.12,82.81,82.81,0,0,0-3.75,23.5c0,9.87,1.35,17.47,3.59,23.5a42.09,42.09,0,0,0,3.25,6.87,18.63,18.63,0,0,0,9.32-6.25c3.2-3.85,5.5-7.44,4.67-14.4C218.53,505.23,217.55,503.3,213.58,493.68Z" transform="translate(-4.89 -128)"/><path id="path540" class="cls-4" d="M279.75,520.15v5.57c-23.14,3.22-44.42-13.21-47.24-28.68a14.2,14.2,0,0,1,.61-8.74c.39-1.15,0-1.4-.5-1.61-2.61-1.06-6.6-.24-8.59,1.23a7.82,7.82,0,0,0-3.13,7.18c1.36,7.87,7.84,24.32,28.52,34.62,9.69,4.83,17.74,8.56,33.53,10.55-.25,1.52-1.17,2.45-1.56,3.75-.32,1.07-.65,2.35.15,3.13,3.14,3,9.22,5.49,9,11.38" transform="translate(-4.89 -128)"/><path id="path542" class="cls-4" d="M303.52,559.12c3.35-8.47-1-14.08-5.33-16.4C310.74,544.09,320,538,330.29,532l9.53-14.71a12.16,12.16,0,0,0,7.62.4,3.41,3.41,0,0,0-1.13,2.39c-.15,1.85.58,2.54,1.75,2.7,1.86.26,3.07-.52,3.94-2.89a2.88,2.88,0,0,1,1.45-1.87c6.35-2.83,13.6-9.12,19.48-19.29.25-3.05.51-6.11.76-9.16,11.13-10.21,10.8-24.78,10.7-34.53" transform="translate(-4.89 -128)"/><path id="path544" class="cls-6" d="M340.24,522a2.69,2.69,0,0,0,1.39-1.67,4,4,0,0,0-.33-2.55,2.89,2.89,0,0,0-2.65-1.6,12,12,0,0,0-5.28,1.1h0c-.26.1-.5.21-.74.33a12.63,12.63,0,0,0-4.49,3.54c-1,1.29-1.41,2.59-1,3.55h0a.42.42,0,0,0,0,.1,3.39,3.39,0,0,0,1.52,1.5h0a2.66,2.66,0,0,0,1.92.19l.19.7a3.45,3.45,0,0,1-2.43-.24h0a4.16,4.16,0,0,1-1.85-1.84l-.06-.14h0c-.5-1.22,0-2.77,1.11-4.25a13.45,13.45,0,0,1,4.74-3.76c.26-.13.53-.25.79-.35h0a12.7,12.7,0,0,1,5.61-1.15,3.55,3.55,0,0,1,3.25,2,4.76,4.76,0,0,1,.37,3,3.38,3.38,0,0,1-1.75,2.12Z" transform="translate(-4.89 -128)"/><path id="path546" class="cls-4" d="M309.38,506.74c-7.63,1.88-11.53,5.06-12.91,6.42a4.77,4.77,0,0,0-1.38,3.53c.48,4.66,2.77,7.71,4.94,8.46a3.85,3.85,0,0,1,.8-1.93c2.87-3.32,8.47-4.31,12-4.45" transform="translate(-4.89 -128)"/><path id="path548" class="cls-31" d="M309.06,506.82c-7.42,1.88-11.23,5-12.59,6.34a4.77,4.77,0,0,0-1.38,3.53c.48,4.66,2.77,7.71,4.94,8.46a3.85,3.85,0,0,1,.8-1.93c2.73-3.16,7.93-4.2,11.49-4.42a6.4,6.4,0,0,1-2.25-2.7,13.62,13.62,0,0,1-1-5.59v-3.69Z" transform="translate(-4.89 -128)"/><path id="path550" class="cls-31" d="M249.42,529.72c-20.68-10.3-27.16-26.75-28.52-34.62a7.82,7.82,0,0,1,3.13-7.18c2-1.47,6-2.29,8.59-1.23.52.21.89.46.5,1.61a14.2,14.2,0,0,0-.61,8.74c2.82,15.47,24.1,31.9,47.24,28.68v-5.29a8.37,8.37,0,0,1-2,.43,33.43,33.43,0,0,1-4.37.08c-1.47-.06-2.92-.19-4.33-.35A50.4,50.4,0,0,1,257,517.72a47.57,47.57,0,0,1-10.74-5.7,20.72,20.72,0,0,1-4.79-4.25A7.7,7.7,0,0,1,240,501.4a19.88,19.88,0,0,1,2.13-6,14.19,14.19,0,0,1,3.09-3.81c-5.79-6-11.54-12-17.29-18.08s-11.43-12-17.12-17.9c-.26.52-.52,1.05-.77,1.57-.73,7-.83,25.88,3.52,36.46,4,9.62,4.95,11.55,5.58,16.88.83,7-1.47,10.55-4.67,14.4a18.63,18.63,0,0,1-9.32,6.25,40.56,40.56,0,0,0,4.82,6.51c.32-.46.63-.92.93-1.39a24.45,24.45,0,0,1,3.23-4.18,6.52,6.52,0,0,1,4.32-2,8,8,0,0,1,4.83,1.54,105.67,105.67,0,0,0,11.23,6.51c3.89,2,7.92,3.77,12.17,5.56,6.57,2.78,13.17,5.3,19.87,7.45A170.84,170.84,0,0,0,287,556.44a11,11,0,0,1,2.37.69,9.09,9.09,0,0,1,1.17.58c-.36-5.31-6-7.67-9-10.56-.8-.78-.47-2.06-.15-3.13.39-1.3,1.31-2.23,1.56-3.75C267.16,538.28,259.11,534.55,249.42,529.72Z" transform="translate(-4.89 -128)"/><path id="path552" class="cls-31" d="M330.29,532c-10.31,6-19.55,12.1-32.1,10.73,4.35,2.32,8.68,7.93,5.33,16.4,1.18-1.2,2.48-2.35,3.92-3.56,1.85-1.55,4.1-1.91,6.35-2.27.51-.08,1-.16,1.6-.27,2.88-.57,5.74-1.15,8.56-1.82s5.44-1.35,8.12-2.19a10.29,10.29,0,0,1-1.05-.8c-1.38-1.22-2.07-2.6-1.73-3.86s1.51-2,3.19-2.42a5.08,5.08,0,0,1-1-1.07,2.75,2.75,0,0,1-.5-1.76,2.86,2.86,0,0,1,.92-1.84,3.45,3.45,0,0,1-1.27-.73,2.55,2.55,0,0,1-.84-1.7,3.38,3.38,0,0,1,1.36-2.66,2.72,2.72,0,0,1-.84-.18Z" transform="translate(-4.89 -128)"/><path id="path554" class="cls-31" d="M345.58,536.67a3.56,3.56,0,0,1,2,3.26,4.41,4.41,0,0,1-1.36,3.1,5.28,5.28,0,0,1-2.69,1.25c.26.18.5.37.73.55l.81-.28a149.49,149.49,0,0,0,15.11-6.13A67,67,0,0,0,373,530.53a4.44,4.44,0,0,1,3.93-.85,10.13,10.13,0,0,1,3.76,2l2.21,1.69,3.36,2.58A127.85,127.85,0,0,0,394,517.33a64.74,64.74,0,0,0,3.16-20.48,71.85,71.85,0,0,0-3.74-21.47,90.43,90.43,0,0,0-9-18.9c.09,9.7-.12,23.36-10.71,33.08l-.76,9.16c-5.88,10.17-13.13,16.46-19.48,19.29a2.88,2.88,0,0,0-1.45,1.87c-.87,2.37-2.08,3.15-3.94,2.89-1.17-.16-1.9-.85-1.75-2.7a3.41,3.41,0,0,1,1.13-2.39,12.67,12.67,0,0,1-5.31.25,4.45,4.45,0,0,1,.2,2.58,3.14,3.14,0,0,1-.85,1.46,3.55,3.55,0,0,1,3.19,2,6.78,6.78,0,0,1,.35,3.59,3.59,3.59,0,0,1-1.07,2.07l.55.23a4.06,4.06,0,0,1,2.56,3.19,3.74,3.74,0,0,1-.49,2.43,3,3,0,0,1-1.16,1.06,1,1,0,0,1,.17.1Z" transform="translate(-4.89 -128)"/><path id="path556" class="cls-9" d="M298.19,542.72C310.74,544.09,320,538,330.29,532a2.3,2.3,0,0,1-1.3-1.31,3.46,3.46,0,0,1,.84-3.37,3.53,3.53,0,0,1-1.46-.36,4.16,4.16,0,0,1-1.85-1.84l-.06-.14a3.83,3.83,0,0,1,.46-3.25,3.9,3.9,0,0,1-1.89,0,4.09,4.09,0,0,1-1.92-1.17l-.49,0a26.34,26.34,0,0,1-4.55-.08,19.32,19.32,0,0,1-4.38-1,6.07,6.07,0,0,1-1.37-.69c-3.56.21-8.76,1.26-11.49,4.42a3.85,3.85,0,0,0-.8,1.93c-2.17-.75-4.46-3.8-4.94-8.46a4.77,4.77,0,0,1,1.38-3.53c1.36-1.34,5.17-4.46,12.59-6.34,0-12.77.15-55.78.27-94.1,0-4.39,0-8.72,0-12.93a20.22,20.22,0,0,1-2.33.51c-2.77.4-4.82-.12-5.93-2a3.83,3.83,0,0,1-.5-3.05,5.92,5.92,0,0,1-2,.35,3.91,3.91,0,0,1-2.47-.9c-1.74-1.39-2-3.29-1-5.71a19,19,0,0,1,2.38-3.93,13.84,13.84,0,0,1-3.44,2,4.72,4.72,0,0,1-5.15-.82c-1.8-1.51-1.89-3.36-.68-5.67a25.2,25.2,0,0,1,3.76-5,17.31,17.31,0,0,1-5.56,3.39l-.16.05L286,510.79a11.18,11.18,0,0,1-2.39,6.88,8.55,8.55,0,0,1-3.84,2.76v5.29c-23.14,3.22-44.42-13.21-47.24-28.68a14.2,14.2,0,0,1,.61-8.74c.39-1.15,0-1.4-.5-1.61-2.61-1.06-6.6-.24-8.59,1.23a7.82,7.82,0,0,0-3.13,7.18c1.36,7.87,7.84,24.32,28.52,34.62,9.69,4.83,17.74,8.56,33.53,10.55-.25,1.52-1.17,2.45-1.56,3.75-.32,1.07-.65,2.35.15,3.13,3,2.89,8.64,5.25,9,10.56a10.61,10.61,0,0,1,.94.6,15.38,15.38,0,0,1,3.73,4.18,36.53,36.53,0,0,1,2.67,5.07,26.13,26.13,0,0,1,3.59-6.13,28,28,0,0,1,2-2.31c3.35-8.47-1-14.08-5.33-16.4Z" transform="translate(-4.89 -128)"/><path id="path558" class="cls-9" d="M342,517.5a4.28,4.28,0,0,1,.17.43,12.67,12.67,0,0,0,5.31-.25,3.41,3.41,0,0,0-1.13,2.39c-.15,1.85.58,2.54,1.75,2.7,1.86.26,3.07-.52,3.94-2.89a2.88,2.88,0,0,1,1.45-1.87c6.35-2.83,13.6-9.12,19.48-19.29l.76-9.16c10.59-9.72,10.8-23.38,10.71-33.08l-.49-.79a115.61,115.61,0,0,0-17.14,16.91c-5.57,6.55-10.94,13.76-16.3,21a14.68,14.68,0,0,1,2.68,4.49,12.4,12.4,0,0,1,.69,4.87,6.9,6.9,0,0,1-2.08,4.44l-.07.06c-3,2.93-6.4,6.28-11.26,8.13l-.36.14A3.12,3.12,0,0,1,342,517.5Z" transform="translate(-4.89 -128)"/><path id="path560" class="cls-9" d="M303.19,365.84c2.48-1.38,4.46-1.61,5.79-.34a5,5,0,0,1,.49.54c0-10.35,0-17.52,0-19.44l-1.4.06c-5.64.2-11.32.2-17.29-.11l-1.43-.07a5.53,5.53,0,0,1-.26.82,18.49,18.49,0,0,1-3.84,5.45,14.94,14.94,0,0,1,4.43-2.17,4,4,0,0,1,4,.69c1.28,1.22,1.69,2.93.79,5.36a20.65,20.65,0,0,1-3.2,5.27,26.68,26.68,0,0,1,4.94-3.62c2.32-1.23,4.15-1.29,5.48,0s1.76,2.7.88,4.9a25.28,25.28,0,0,1-4.7,6.64,32.38,32.38,0,0,1,5.28-4Z" transform="translate(-4.89 -128)"/><path id="path562" class="cls-9" d="M309.45,371.32a25,25,0,0,1-3.13,4.76,23.49,23.49,0,0,1,3.12-2.06c0-.92,0-1.82,0-2.7Z" transform="translate(-4.89 -128)"/><path id="path578" class="cls-32" d="M333.78,550l-1,.33c-1.86.58-3.74,1.11-5.62,1.6.34.34.72.67,1.11,1,.8.67,1.67,1.31,2.51,1.88l.51.33a11.93,11.93,0,0,0,4.92,1.49c1.53.1,2.82-.17,3.29-.86l0-.07a2.18,2.18,0,0,0,0-1.87,7.94,7.94,0,0,0-1.74-2.55c-.37-.07-.74-.16-1.11-.25l0,0a17.32,17.32,0,0,1-2.82-1Z" transform="translate(-4.89 -128)"/><path id="path590" class="cls-33" d="M330.35,555.4c-.86-.59-1.75-1.25-2.56-1.93a19.33,19.33,0,0,1-1.46-1.36l-2.05.5c-1.06.25-2.13.48-3.19.71a12.93,12.93,0,0,0,1,2.31,9.89,9.89,0,0,0,1.54,2.21l.44.43a11.62,11.62,0,0,0,4.49,2.49c1.48.42,2.79.43,3.4-.15l.05-.05a2.17,2.17,0,0,0,.37-1.84,7.83,7.83,0,0,0-1.14-2.8l-.3-.17-.56-.35Z" transform="translate(-4.89 -128)"/><path id="path599" class="cls-34" d="M322.87,558.11a11.49,11.49,0,0,1-1.45-2.14,14.37,14.37,0,0,1-1-2.49c-1.57.33-3.13.64-4.71.95l-.09,0c0,.33.09.66.16,1a14,14,0,0,0,.44,1.58,9.61,9.61,0,0,0,.76,1.66,8.86,8.86,0,0,0,2.45,2.76,2.76,2.76,0,0,0,2.32.65,1,1,0,0,0,.23-.11,2.18,2.18,0,0,0,1.06-1.31,4.9,4.9,0,0,0-.13-2.56Z" transform="translate(-4.89 -128)"/><path id="path608" class="cls-35" d="M316.07,558.59a9.3,9.3,0,0,1-.57-1.34,14.2,14.2,0,0,1-.47-1.66c-.07-.33-.12-.67-.16-1l-.86.13a17.17,17.17,0,0,0-4.11,1h.23a10.22,10.22,0,0,0,.21,2.14,6.61,6.61,0,0,0,1.49,3,3,3,0,0,0,2,1.05,1.9,1.9,0,0,0,.41,0,2.09,2.09,0,0,0,1.37-.9,4.21,4.21,0,0,0,.43-2.43Z" transform="translate(-4.89 -128)"/><path id="path625" class="cls-36" d="M257.5,516.38a46.87,46.87,0,0,0,5.94,1.79c.05-3-2.85-5.29-6.34-8l-1.3-1a31.17,31.17,0,0,0-3.2-2.23,21.56,21.56,0,0,0-3-1.57,7.82,7.82,0,0,0-3.05-.67,2.81,2.81,0,0,0-2.07,1,2.35,2.35,0,0,0-.45,1.52,7.64,7.64,0,0,0,.14,1.44,32.16,32.16,0,0,0,2.93,2.28,46.14,46.14,0,0,0,10.42,5.53Z" transform="translate(-4.89 -128)"/><path id="path645" class="cls-37" d="M313.84,406.28c1.33,0,2.78-.06,4.32-.16q2.08-.14,3.81-.36c3.66-.5,6.1-1.33,7.6-2.35a3.67,3.67,0,0,0,1.89-3.31l0-.27c-.17-1.27-1.46-2.29-3.58-3a26.85,26.85,0,0,0-9-.9q-.94.48-2,1a61,61,0,0,1-6,2.43q0,3.38,0,6.83c.94.07,2,.1,3,.1Z" transform="translate(-4.89 -128)"/><path id="path665" class="cls-38" d="M318.2,406.84c-1.54.09-3,.15-4.36.16-1.09,0-2.11,0-3.06-.1,0,1.92,0,3.87,0,5.82,0,1.48,0,3,0,4.46a27.85,27.85,0,0,0,3.14.84,45,45,0,0,0,4.52.69l.29,0,0-.07.24.1,2,.15c4.29.22,7.19-.3,9.06-1.24a4.52,4.52,0,0,0,2.75-3.58l0-.25c.08-1.56-1.35-3.16-3.86-4.45a27.64,27.64,0,0,0-10.2-2.56v0l-.51,0Z" transform="translate(-4.89 -128)"/><path id="path685" class="cls-39" d="M319,419.56l-.21-.09-.46,0c-1.65-.18-3.18-.42-4.59-.71-1.07-.23-2.07-.49-3-.78q0,4.13,0,8.3l.25.19.75.62,1,.59c1,.53,2,1.08,3.06,1.62,4.78,2.41,8.14,3.53,10.47,3.62s3.48-.78,4.17-2.36v0c.65-1.53-.17-3.35-2.12-5.22a32.55,32.55,0,0,0-9.35-5.71Z" transform="translate(-4.89 -128)"/><path id="path695" class="cls-40" d="M318.33,435.49a29.93,29.93,0,0,0-7-7.85l-.6-.36c0,4.63,0,9.27,0,13.85a10.83,10.83,0,0,0,4.9,1.48,4.13,4.13,0,0,0,3.49-1.57C320,439.87,319.67,437.88,318.33,435.49Z" transform="translate(-4.89 -128)"/><path id="path711" class="cls-41" d="M316.29,492.49a7.94,7.94,0,0,1-2.23,3.58c-.32.31-.69.64-1.09,1s-.94.73-1.4,1.05-.71.49-1.05.71c0,1.49,0,2.86,0,4.09a2.77,2.77,0,0,0,1.59.54,6.75,6.75,0,0,0,2.39-.46l.05.15a21.09,21.09,0,0,1,3.94-3.78l.29-.22a14.63,14.63,0,0,1,1.8-1.16,13,13,0,0,1,1.44-.67h0a6.06,6.06,0,0,0,1.05-2.42,3.15,3.15,0,0,0-.32-2l0,0a2.85,2.85,0,0,0-2.27-1.39,7.18,7.18,0,0,0-4.12,1.06Z" transform="translate(-4.89 -128)"/><path id="path720" class="cls-42" d="M313.55,495.55a6.71,6.71,0,0,0,2.14-3.72,3.52,3.52,0,0,0-.7-2.71l-.23-.26a2.74,2.74,0,0,0-1.74-.78,6,6,0,0,0-2.47.36c0,3.51,0,6.7,0,9.49l.64-.43c.45-.32.9-.67,1.35-1a11.93,11.93,0,0,0,1-.92Z" transform="translate(-4.89 -128)"/></g><path id="path723" class="cls-2" d="M523.06,333.85c-5.16,1.41-8.62,3.39-10.35,5.93A11.36,11.36,0,0,0,517,355.57c2.72,1.27,6.94,1.11,12.67-.45q7.23-2,9.75-5.81a10.32,10.32,0,0,0,1.17-8.84,10,10,0,0,0-5.49-6.78C532.28,332.36,528.27,332.42,523.06,333.85ZM518.77,318q12.54-3.43,21.43,1.65t12.31,17.56Q556,350,551,358.82T533.7,371q-9,2.46-15.53,1a22.39,22.39,0,0,1-11.33-6.29q-4.77-4.86-7.1-13.38t-1.16-15.09a22.43,22.43,0,0,1,6.22-11.6Q509.79,320.5,518.77,318Z" transform="translate(-4.89 -128)"/><path id="path725" class="cls-2" d="M494.63,238.11,504.29,250,494.1,283.94l22.75-18.5,9.78,12L485.43,311l-9.78-12,10.13-33.76-22.62,18.4-9.73-12Z" transform="translate(-4.89 -128)"/><path id="path727" class="cls-2" d="M458.61,206.17l13,10.13-32.65,41.87-13-10.12Z" transform="translate(-4.89 -128)"/><path id="path729" class="cls-2" d="M396.13,195l6.33,2.84a24.45,24.45,0,0,0,4.27,1.12,4.24,4.24,0,0,0,3.11-.44,5.39,5.39,0,0,0,2.34-6.67c-.61-1.29-2.29-2.54-5-3.77l-6.58-3Zm-27.92,22L390,168.55l24.94,11.2q6.94,3.1,10.07,5.95a12.4,12.4,0,0,1,3.94,7.06,16.36,16.36,0,0,1-6.14,15.07,14.54,14.54,0,0,1-6.87,2.63,20.11,20.11,0,0,1-6.11-.44,16.4,16.4,0,0,1,3.09,3.53,17.42,17.42,0,0,1,1.25,3.62,20.85,20.85,0,0,1,.73,3.94l1,17.26-16.92-7.59-1.37-18.36a12.38,12.38,0,0,0-1-4.94,7,7,0,0,0-3.17-2.77l-1.32-.59-8.81,19.62Z" transform="translate(-4.89 -128)"/><path id="path731" class="cls-2" d="M335.59,188.48l-3.18-19.68-8.33,18.12Zm1.9,11.86-18.42-2.5-3.83,8.32-16.59-2.26L325.59,154l17.8,2.42L356,211.68l-17-2.31Z" transform="translate(-4.89 -128)"/><path id="path733" class="cls-2" d="M218.73,162l21.37-3.46,13.3,30.58,3-33.21,21.27-3.45,8.48,52.42L272.9,207l-6.47-40-3.75,41.62-12,1.94L234,172.27l6.47,39.95-13.25,2.15Z" transform="translate(-4.89 -128)"/><path id="path735" class="cls-2" d="M168.34,230.27l13.1-8.68,8.16,12.3-13.1,8.68Z" transform="translate(-4.89 -128)"/><path id="path737" class="cls-2" d="M111.9,245.22l20.72,20.28,2.82-2.88c2.4-2.45,3.84-4.47,4.32-6a7.85,7.85,0,0,0-.46-5.22q-1.17-2.88-5.72-7.33-6-5.91-10.18-6.11t-8.63,4.37Zm-20.05,3.31L108.9,231.1a29.45,29.45,0,0,1,9.54-6.95,19,19,0,0,1,9.15-1.32,23.16,23.16,0,0,1,9,3,39.51,39.51,0,0,1,8.26,6.25q6.09,6,8.08,10.62a21.94,21.94,0,0,1,1.86,9.35,17.6,17.6,0,0,1-2.15,8.23,38,38,0,0,1-5.81,8l-17,17.43Z" transform="translate(-4.89 -128)"/><path id="path739" class="cls-2" d="M98.6,306l8.11-13.47,12.64,7.62-8.11,13.46Z" transform="translate(-4.89 -128)"/><path id="path741" class="cls-2" d="M78,333.14l9.6-11.56a26.28,26.28,0,0,1,7.52,8.15,19.61,19.61,0,0,1,2.61,9.51A28.79,28.79,0,0,1,95,350.87c-2.26,5.33-4.87,9.34-7.83,12.07a22.53,22.53,0,0,1-11.85,5.26c-4.91.81-10.42-.08-16.47-2.64Q46.74,360.43,43,351.21t1.23-21q3.91-9.24,9.89-13c4-2.46,8.92-3.47,14.81-3l-2.7,14.57a12.3,12.3,0,0,0-3.86.09,9.43,9.43,0,0,0-6.64,5.7,9.65,9.65,0,0,0,.78,9.63c1.45,2.24,4.37,4.3,8.73,6.14,5.41,2.3,9.46,3,12.17,2.25a9.27,9.27,0,0,0,6-5.67c1.22-2.89,1.34-5.42.34-7.59A16.36,16.36,0,0,0,78,333.14Z" transform="translate(-4.89 -128)"/><path id="path743" class="cls-2" d="M524,538.92l2.37-6.8a8.5,8.5,0,0,0,5.79-.21,8,8,0,0,0,3.72-4.13,8.23,8.23,0,0,0,.9-5.45,4.39,4.39,0,0,0-2.38-3.07,3.19,3.19,0,0,0-2.28-.22,5.88,5.88,0,0,0-2.49,1.75q-.95,1-3.87,4.66-3.78,4.74-6.68,6a9.33,9.33,0,0,1-11.93-3.55,9.84,9.84,0,0,1-1.39-5.63,18.32,18.32,0,0,1,1.85-7q2.85-6.19,7-8.09a10.51,10.51,0,0,1,8.73,0l-2.85,6.8a6.14,6.14,0,0,0-4.45.16,7.4,7.4,0,0,0-3,3.69,8.37,8.37,0,0,0-.91,5.06,2.64,2.64,0,0,0,1.54,2,2.71,2.71,0,0,0,2.43-.08q1.63-.78,5-5.11a35.77,35.77,0,0,1,5.64-6.11,10.26,10.26,0,0,1,5-2.13,10.47,10.47,0,0,1,5.77,1.07,10.49,10.49,0,0,1,6.05,10.1,20.68,20.68,0,0,1-2.13,7.74q-2.88,6.27-7.27,8.32c-2.91,1.37-6.28,1.43-10.1.21Z" transform="translate(-4.89 -128)"/><path id="path745" class="cls-2" d="M515.16,548.34l-13.87-2.77,8.55,11.2Zm19.16-3.84-4.23,6.72-8.55-1.68-7.79,12.34,5.26,6.89-4.16,6.59-22.64-31,4.15-6.58Z" transform="translate(-4.89 -128)"/><path id="path747" class="cls-2" d="M499.61,574.37l6.18-4.12a15.84,15.84,0,0,1,3.28,9.78,15.64,15.64,0,0,1-3.95,9.27,15.85,15.85,0,0,1-11.34,6.11q-6.7.5-13.22-4.87-6.87-5.67-7.69-12.43t4.05-12.66a15.26,15.26,0,0,1,9.89-5.9,14.14,14.14,0,0,1,7.46,1.32L491,567.56a7.52,7.52,0,0,0-5.09-.71,7.78,7.78,0,0,0-4.41,2.82,8.33,8.33,0,0,0-2,6.88q.57,3.75,5.5,7.82,5.2,4.29,9,4.21a8.16,8.16,0,0,0,6.33-3.15,7.46,7.46,0,0,0,1.8-5.06,10.58,10.58,0,0,0-2.5-6Z" transform="translate(-4.89 -128)"/><path id="path749" class="cls-2" d="M485.39,610.1l-26-24.43,5.05-5.38,26,24.44Z" transform="translate(-4.89 -128)"/><path id="path751" class="cls-2" d="M451.07,613l4.09-3.58a28.41,28.41,0,0,0,4.67-4.68,4,4,0,0,0,.55-2.5,4.62,4.62,0,0,0-1.21-2.51,4.27,4.27,0,0,0-2.66-1.54,4.47,4.47,0,0,0-3,.77c-.5.33-1.88,1.48-4.11,3.44l-4.31,3.78Zm8,20.34-23.53-26.84,11.64-10.2a26.9,26.9,0,0,1,7-4.86,8.27,8.27,0,0,1,5.43-.23,10.22,10.22,0,0,1,4.91,3.18,9.46,9.46,0,0,1,2.57,6.58c-.05,2.36-1.13,4.76-3.22,7.2a16.93,16.93,0,0,1,4.91-.33,40.41,40.41,0,0,1,7,1.62l7.93,2.31-6.61,5.79L468,615.2a47.94,47.94,0,0,0-6.37-1.37,5.76,5.76,0,0,0-2.64.34,13.07,13.07,0,0,0-3.06,2.15l-1.12,1,9.83,11.2Z" transform="translate(-4.89 -128)"/><path id="path753" class="cls-2" d="M431.28,651.91l-19.57-29.85,22.52-14.77,3.31,5.05-16.36,10.72,4.34,6.63,15.22-10,3.3,5-15.21,10,5.3,8.09,17-11.11,3.31,5Z" transform="translate(-4.89 -128)"/><path id="path755" class="cls-2" d="M394.23,669.91,379,637.66l10-4.73,16.31,19.21-4.6-24.76,10-4.73,15.28,32.26-6.15,2.91-12.06-25.38,5.55,28.46-6.4,3L388.38,641.6l12,25.4Z" transform="translate(-4.89 -128)"/><path id="path757" class="cls-2" d="M375,661.29,366.57,650l-1.14,14Zm16.8,10-7.63,2.15-5.23-7-14,4-.7,8.64-7.5,2.11L360.62,643l7.49-2.11Z" transform="translate(-4.89 -128)"/><path id="path759" class="cls-2" d="M306.48,675.26l7.11-1.09a8.49,8.49,0,0,0,2.89,5,8,8,0,0,0,5.39,1.36,8.23,8.23,0,0,0,5.24-1.75,4.39,4.39,0,0,0,1.61-3.54,3.28,3.28,0,0,0-.87-2.11,6,6,0,0,0-2.72-1.39c-.87-.26-2.84-.66-5.92-1.25-4-.75-6.79-1.77-8.44-3.09a9.34,9.34,0,0,1-2.44-12.21,9.81,9.81,0,0,1,4.33-3.86,18.27,18.27,0,0,1,7.06-1.63q6.81-.37,10.42,2.41a10.48,10.48,0,0,1,4.05,7.74l-7.34.64a6.15,6.15,0,0,0-2.22-3.85,7.41,7.41,0,0,0-4.68-1,8.31,8.31,0,0,0-4.89,1.56,2.62,2.62,0,0,0-1,2.29,2.73,2.73,0,0,0,1.21,2.1c1,.72,3.25,1.4,6.85,2a35.39,35.39,0,0,1,8,2.14,10.13,10.13,0,0,1,4.21,3.41A10.69,10.69,0,0,1,330,684.91a21,21,0,0,1-7.84,1.73q-6.89.38-10.74-2.54t-4.9-8.84Z" transform="translate(-4.89 -128)"/><path id="path761" class="cls-2" d="M293.7,673.07l-4.54-13.4-5.42,13Zm12.91,14.67-7.93-.31-2.82-8.24-14.59-.57-3.33,8-7.79-.3,15.5-35.11,7.78.3Z" transform="translate(-4.89 -128)"/><path id="path763" class="cls-2" d="M244.37,682l5.89-34.9,7.26,1.22-4.88,28.95,18,3-1,5.95Z" transform="translate(-4.89 -128)"/><path id="path765" class="cls-2" d="M193.21,666l13.11-33.2,25.05,9.9-2.21,5.61L211,641.07l-2.91,7.37L225,655.12l-2.22,5.61-16.92-6.68-3.55,9,18.86,7.45-2.22,5.61Z" transform="translate(-4.89 -128)"/><path id="path767" class="cls-2" d="M181.82,627.19,170.53,648l4.8,2.61a19.5,19.5,0,0,0,4,1.81,6.65,6.65,0,0,0,3.3.11,7.48,7.48,0,0,0,3.33-2.11,22.65,22.65,0,0,0,3.78-5.39,20.67,20.67,0,0,0,2.37-5.93,8,8,0,0,0-.17-4,7.1,7.1,0,0,0-2.17-3.09,35.3,35.3,0,0,0-5.11-3.17Zm-3.59-8.82,11.77,6.4a27,27,0,0,1,5.74,3.9,12.15,12.15,0,0,1,3.24,5.51,15.48,15.48,0,0,1,.29,6.74,26.06,26.06,0,0,1-3,8,23,23,0,0,1-4.61,6.14,15.58,15.58,0,0,1-6.43,3.68,12.86,12.86,0,0,1-5.88,0,22.23,22.23,0,0,1-6.06-2.44l-12.12-6.59Z" transform="translate(-4.89 -128)"/><path id="path769" class="cls-2" d="M141.45,618.83l4.49-13.41-12.18,7.07Zm1.4,19.49-6.13-5.05,2.74-8.27-11.26-9.27-7.5,4.35-6-5,33.59-18.58,6,5Z" transform="translate(-4.89 -128)"/><path id="path771" class="cls-2" d="M104.51,603.77l11-10.23,6-23.85,5.87,6.3-4.48,15.93,16.05-3.5,5.76,6.19L120.49,599l-11,10.21Z" transform="translate(-4.89 -128)"/><path id="path773" class="cls-2" d="M101.42,579.5l7.26-12.14-13.42,4.31Zm-2.8,19.34-4.91-6.24,4.45-7.49-9-11.47-8.25,2.65-4.82-6.13,36.79-11,4.81,6.11Z" transform="translate(-4.89 -128)"/><path id="path775" class="cls-2" d="M63.67,547.56l30.9-17.26,3.59,6.43L72.53,551.05,81.43,567l-5.27,2.95Z" transform="translate(-4.89 -128)"/><path id="path777" class="cls-2" d="M79.3,511.79,70,516l1.64,3.65a19.33,19.33,0,0,0,2.89,5,4.71,4.71,0,0,0,5.42,1,4.61,4.61,0,0,0,2.47-2.38,5.08,5.08,0,0,0,.24-3.34,36.45,36.45,0,0,0-1.94-4.9Zm-30.07,5.45,32.55-14.65,4.83,10.74a43.82,43.82,0,0,1,3.1,8.18,9.59,9.59,0,0,1-1,6.21,11,11,0,0,1-5.48,4.77,11.54,11.54,0,0,1-5.54,1.17,10,10,0,0,1-4.47-1.37,10.73,10.73,0,0,1-3.1-2.77,42.41,42.41,0,0,1-3.59-6.73l-2-4.35L52.25,524Z" transform="translate(-4.89 -128)"/><path id="path779" class="cls-2" d="M417.47,606.93l6.65-4.27-2,10.08-3.43,2.37Z" transform="translate(-4.89 -128)"/><g id="Layer1008"><path id="path781" class="cls-2" d="M90.56,213.67A292.51,292.51,0,1,1,4.89,420.5,291.61,291.61,0,0,1,90.56,213.67Zm206.83-74.12a281,281,0,1,0,198.66,82.29A280.08,280.08,0,0,0,297.39,139.55Z" transform="translate(-4.89 -128)"/></g><path id="path784" class="cls-43" d="M297.39,138.1a282.39,282.39,0,1,0,199.68,82.71A281.55,281.55,0,0,0,297.39,138.1ZM91.58,214.69A291.06,291.06,0,1,1,6.33,420.5,290.16,290.16,0,0,1,91.58,214.69Z" transform="translate(-4.89 -128)"/><path id="path786" class="cls-4" d="M297.39,144.38C144.89,144.38,21.27,268,21.27,420.5S144.89,696.62,297.39,696.62,573.51,573,573.51,420.5,449.88,144.38,297.39,144.38Z" transform="translate(-4.89 -128)"/><path id="path788" class="cls-2" d="M21.27,420.5c0-152.5,123.62-276.12,276.12-276.12S573.51,268,573.51,420.5,449.88,696.62,297.39,696.62,21.27,573,21.27,420.5ZM297.39,139.55a281,281,0,1,0,198.66,82.29,280.08,280.08,0,0,0-198.66-82.29Z" transform="translate(-4.89 -128)"/><path id="path790" class="cls-44" d="M58.86,365.56Q46.74,360.43,43,351.21t1.23-21q3.91-9.24,9.89-13c4-2.46,8.92-3.47,14.81-3l-2.7,14.57a12.3,12.3,0,0,0-3.86.09,9.43,9.43,0,0,0-6.64,5.7,9.65,9.65,0,0,0,.78,9.63c1.45,2.24,4.37,4.3,8.73,6.14,5.41,2.3,9.46,3,12.17,2.25a9.27,9.27,0,0,0,6-5.67c1.22-2.89,1.34-5.42.34-7.59A16.36,16.36,0,0,0,78,333.14l9.6-11.56a26.28,26.28,0,0,1,7.52,8.15,19.61,19.61,0,0,1,2.61,9.51A28.79,28.79,0,0,1,95,350.87c-2.26,5.33-4.87,9.34-7.83,12.07a22.53,22.53,0,0,1-11.85,5.26c-4.91.81-10.42-.08-16.47-2.64Zm29,54.91A209.08,209.08,0,0,1,297.13,211.19c1.23,0,2.46,0,3.68,0a22.09,22.09,0,0,1,5.7-.48,23.45,23.45,0,0,1,6.49,1q9.71.74,19.16,2.33v-.05l1.24.27q8.25,1.44,16.27,3.52l12.76,2.76-.2.91q4.31,1.41,8.53,3l.22-.62,7.43,2.7-.3.84q2.89,1.22,5.76,2.52c5.16,2.36,10.22,4.92,15.14,7.67l1-.8,7.32,4-.18,1.55A208.48,208.48,0,0,1,429,258l1.13-1.24,5.65,5.15-.29,1.58q5.72,5,11,10.48l1.12-1.23,5.4,4.93-1.48,1.61q2.37,2.6,4.66,5.27,5.08,6,9.73,12.28a14.76,14.76,0,0,1,1.58,1,21.92,21.92,0,0,1,5.77,6.32,21,21,0,0,1,3.25,8.64A208.26,208.26,0,0,1,488.7,336.1a11.71,11.71,0,0,1,1.83,1.59,19.69,19.69,0,0,1,4,6.69c1.47,3.91,1.91,7.28,1.29,10.08a209.32,209.32,0,1,1-406,94.77,211.44,211.44,0,0,1-2-28.76Zm23.39-106.82L98.6,306l8.11-13.47,12.64,7.62Zm18.56-28-38-37.14L108.9,231.1a29.45,29.45,0,0,1,9.54-6.95,19,19,0,0,1,9.15-1.32,23.16,23.16,0,0,1,9,3,39.51,39.51,0,0,1,8.26,6.25q6.09,6,8.08,10.62a21.94,21.94,0,0,1,1.86,9.35,17.6,17.6,0,0,1-2.15,8.23,38,38,0,0,1-5.81,8ZM297.39,144.38C144.89,144.38,21.27,268,21.27,420.5S144.89,696.62,297.39,696.62,573.51,573,573.51,420.5,449.88,144.38,297.39,144.38ZM176.5,242.57l-8.16-12.3,13.1-8.68,8.16,12.3Zm50.72-28.2L218.73,162l21.37-3.45,13.3,30.57,3-33.21,21.27-3.45,8.48,52.42L272.9,207l-6.47-40-3.75,41.62-12,1.94L234,172.27l6.47,39.95Zm188.63,24-16.92-7.59-1.37-18.36a12.38,12.38,0,0,0-1-4.94,7,7,0,0,0-3.17-2.77l-1.32-.59-8.81,19.62-15-6.74L390,168.55l24.94,11.2q6.94,3.1,10.07,5.95a12.4,12.4,0,0,1,3.94,7.06,16.33,16.33,0,0,1-6.14,15.06,14.45,14.45,0,0,1-6.87,2.64,20.11,20.11,0,0,1-6.11-.44,16.4,16.4,0,0,1,3.09,3.53,17.42,17.42,0,0,1,1.25,3.62,20.85,20.85,0,0,1,.73,3.94Zm23.09,19.8-13-10.12,32.66-41.88,13,10.13ZM485.43,311l-9.78-12,10.13-33.76-22.62,18.4-9.73-12,41.2-33.5L504.29,250,494.1,283.94l22.75-18.5,9.78,12Zm21.41,54.74q-4.77-4.86-7.1-13.38t-1.16-15.09a22.43,22.43,0,0,1,6.22-11.6c3.33-3.43,8-6,14-7.61q12.54-3.43,21.43,1.65t12.31,17.56Q556,350,551,358.82T533.7,371q-9,2.46-15.53,1A22.39,22.39,0,0,1,506.84,365.71ZM417.47,606.93l6.65-4.27-2,10.08-3.43,2.36Zm-16.83,20.45,10-4.73,15.28,32.26-6.15,2.91-12.06-25.38,5.55,28.46-6.4,3L388.38,641.6l12,25.4-6.16,2.91L379,637.66l10-4.73,16.31,19.21Zm30.64,24.53-19.57-29.85,22.52-14.77,3.31,5.05-16.36,10.72,4.34,6.63,15.22-10,3.3,5-15.21,10,5.3,8.09,17-11.11,3.31,5Zm4.29-45.38,11.64-10.2a26.9,26.9,0,0,1,7-4.86,8.27,8.27,0,0,1,5.43-.23,10.22,10.22,0,0,1,4.91,3.18,9.46,9.46,0,0,1,2.57,6.58c-.05,2.36-1.13,4.76-3.22,7.2a16.93,16.93,0,0,1,4.91-.33,40.41,40.41,0,0,1,7,1.62l7.93,2.31-6.61,5.79L468,615.2a47.94,47.94,0,0,0-6.37-1.37,5.76,5.76,0,0,0-2.64.34,12.86,12.86,0,0,0-3.05,2.15l-1.13,1,9.83,11.2-5.54,4.86Zm49.82,3.57-26-24.43,5.05-5.38,26,24.44ZM86.61,513.33a43.82,43.82,0,0,1,3.1,8.18,9.65,9.65,0,0,1-1,6.21,11,11,0,0,1-5.48,4.77,11.54,11.54,0,0,1-5.54,1.17,10,10,0,0,1-4.47-1.37,10.73,10.73,0,0,1-3.1-2.77,42.41,42.41,0,0,1-3.59-6.73l-2-4.35L52.25,524l-3-6.72,32.55-14.65ZM63.67,547.56l30.9-17.26,3.59,6.43L72.53,551.05,81.43,567l-5.27,2.95Zm12.39,22.6,36.79-11,4.81,6.11-19,33.53-4.91-6.24,4.45-7.49-9-11.47-8.25,2.65Zm39.45,23.38,6-23.85,5.87,6.3-4.48,15.93,16.05-3.5,5.76,6.19L120.49,599l-11,10.21-5-5.4Zm-.83,21.59,33.59-18.58,6,5-11.43,36.82-6.13-5.05,2.74-8.27-11.26-9.27-7.5,4.35Zm63.55,3.24,11.77,6.4a27,27,0,0,1,5.74,3.9,12.15,12.15,0,0,1,3.24,5.51,15.48,15.48,0,0,1,.29,6.74,26.06,26.06,0,0,1-3,8,22.79,22.79,0,0,1-4.61,6.14,15.58,15.58,0,0,1-6.43,3.68,12.86,12.86,0,0,1-5.88,0,22.23,22.23,0,0,1-6.06-2.44l-12.12-6.59Zm137-412.21-16.59-2.26L325.59,154l17.8,2.42L356,211.68l-17-2.31-1.45-9-18.42-2.5ZM476.92,565.45a15.26,15.26,0,0,1,9.89-5.9,14,14,0,0,1,7.46,1.32L491,567.56a7.52,7.52,0,0,0-5.09-.71,7.78,7.78,0,0,0-4.41,2.82,8.29,8.29,0,0,0-2,6.88q.57,3.75,5.5,7.82,5.2,4.29,9,4.21a8.16,8.16,0,0,0,6.33-3.15,7.46,7.46,0,0,0,1.8-5.06,10.58,10.58,0,0,0-2.5-6l6.18-4.12a15.84,15.84,0,0,1,3.28,9.78,15.64,15.64,0,0,1-3.95,9.27,15.85,15.85,0,0,1-11.34,6.11q-6.7.5-13.22-4.87-6.87-5.67-7.69-12.43t4.05-12.66Zm15.29-21.08,4.15-6.58,38,6.71-4.23,6.72-8.55-1.68-7.79,12.34,5.26,6.89-4.16,6.59ZM524,538.92l2.37-6.8a8.5,8.5,0,0,0,5.79-.21,8,8,0,0,0,3.72-4.13,8.23,8.23,0,0,0,.9-5.45,4.39,4.39,0,0,0-2.38-3.07,3.19,3.19,0,0,0-2.28-.22,5.88,5.88,0,0,0-2.49,1.75q-.95,1-3.87,4.66-3.78,4.74-6.68,6a9.33,9.33,0,0,1-11.93-3.55,9.84,9.84,0,0,1-1.39-5.63,18.32,18.32,0,0,1,1.85-7q2.85-6.19,7-8.09a10.51,10.51,0,0,1,8.73,0l-2.85,6.8a6.14,6.14,0,0,0-4.45.16,7.4,7.4,0,0,0-3,3.69,8.37,8.37,0,0,0-.91,5.06,2.64,2.64,0,0,0,1.54,2,2.71,2.71,0,0,0,2.43-.08q1.63-.78,5-5.11a35.77,35.77,0,0,1,5.64-6.11,10.26,10.26,0,0,1,5-2.13,10.47,10.47,0,0,1,5.77,1.07,10.49,10.49,0,0,1,6.05,10.1,20.68,20.68,0,0,1-2.13,7.74q-2.88,6.27-7.27,8.32c-2.91,1.37-6.28,1.43-10.1.21Zm-253.8,147.4,15.5-35.11,7.78.3,13.18,36.23-7.93-.31-2.82-8.24-14.59-.57-3.33,8Zm36.33-11.06,7.11-1.09a8.49,8.49,0,0,0,2.89,5,8,8,0,0,0,5.39,1.36,8.23,8.23,0,0,0,5.24-1.75,4.39,4.39,0,0,0,1.61-3.54,3.28,3.28,0,0,0-.87-2.11,6,6,0,0,0-2.72-1.39c-.87-.26-2.84-.67-5.92-1.25-4-.75-6.79-1.77-8.44-3.09a9.34,9.34,0,0,1-2.44-12.21,9.81,9.81,0,0,1,4.33-3.86,18.27,18.27,0,0,1,7.06-1.63q6.81-.37,10.42,2.41a10.48,10.48,0,0,1,4.05,7.74l-7.34.64a6.19,6.19,0,0,0-2.22-3.85,7.34,7.34,0,0,0-4.68-1,8.31,8.31,0,0,0-4.89,1.56,2.62,2.62,0,0,0-1,2.29,2.73,2.73,0,0,0,1.21,2.1c1,.72,3.25,1.4,6.85,2a35.55,35.55,0,0,1,8,2.14,10.06,10.06,0,0,1,4.21,3.41A10.69,10.69,0,0,1,330,684.91a21,21,0,0,1-7.84,1.73q-6.89.38-10.75-2.55t-4.89-8.83Zm50.23,5.9L360.62,643l7.49-2.11,23.71,30.4-7.63,2.15-5.23-7-14,4-.7,8.64ZM193.21,666l13.11-33.2,25.05,9.9-2.21,5.61L211,641.07l-2.91,7.37L225,655.12l-2.22,5.61-16.92-6.68-3.55,9,18.86,7.45-2.22,5.61ZM244.37,682l5.89-34.9,7.26,1.22-4.88,28.95,18,3-1,5.95Z" transform="translate(-4.89 -128)"/><path id="path792" class="cls-44" d="M111.9,245.22l20.72,20.28,2.82-2.88c2.4-2.45,3.84-4.47,4.32-6a7.85,7.85,0,0,0-.46-5.22q-1.17-2.88-5.72-7.33-6-5.91-10.18-6.11t-8.63,4.37Z" transform="translate(-4.89 -128)"/><path id="path794" class="cls-44" d="M332.41,168.8l-8.33,18.12,11.51,1.57Z" transform="translate(-4.89 -128)"/><path id="path796" class="cls-44" d="M400.57,185.1,396.13,195l6.33,2.84a24.45,24.45,0,0,0,4.27,1.12,4.24,4.24,0,0,0,3.11-.44,5.39,5.39,0,0,0,2.34-6.67c-.61-1.29-2.29-2.54-5-3.77Z" transform="translate(-4.89 -128)"/><path id="path798" class="cls-44" d="M400.57,185.1,396.13,195l6.33,2.84a24.45,24.45,0,0,0,4.27,1.12,4.24,4.24,0,0,0,3.11-.44,5.39,5.39,0,0,0,2.34-6.67c-.61-1.29-2.29-2.54-5-3.77Z" transform="translate(-4.89 -128)"/><path id="path800" class="cls-44" d="M512.71,339.78A11.36,11.36,0,0,0,517,355.57c2.72,1.27,6.94,1.11,12.67-.45q7.23-2,9.75-5.81a10.32,10.32,0,0,0,1.17-8.84,10,10,0,0,0-5.49-6.78c-2.78-1.33-6.79-1.27-12,.16s-8.62,3.39-10.35,5.93Z" transform="translate(-4.89 -128)"/><path id="path802" class="cls-44" d="M82.69,519.91a36.45,36.45,0,0,0-1.94-4.9l-1.45-3.22L70,516l1.64,3.65a19.33,19.33,0,0,0,2.89,5,4.71,4.71,0,0,0,5.42,1,4.61,4.61,0,0,0,2.47-2.38A5.08,5.08,0,0,0,82.69,519.91Z" transform="translate(-4.89 -128)"/><path id="path804" class="cls-44" d="M108.68,567.36l-13.42,4.31,6.16,7.83Z" transform="translate(-4.89 -128)"/><path id="path806" class="cls-44" d="M145.94,605.42l-12.18,7.07,7.69,6.34Z" transform="translate(-4.89 -128)"/><path id="path808" class="cls-44" d="M181.82,627.19,170.53,648l4.8,2.61a19.5,19.5,0,0,0,4,1.81,6.65,6.65,0,0,0,3.3.11,7.48,7.48,0,0,0,3.33-2.11,22.65,22.65,0,0,0,3.78-5.39,20.67,20.67,0,0,0,2.37-5.93,8,8,0,0,0-.17-4,7.1,7.1,0,0,0-2.17-3.09,35.3,35.3,0,0,0-5.11-3.17Z" transform="translate(-4.89 -128)"/><path id="path810" class="cls-44" d="M289.16,659.67l-5.42,13,10,.39Z" transform="translate(-4.89 -128)"/><path id="path812" class="cls-44" d="M366.57,650l-1.14,14,9.59-2.7Z" transform="translate(-4.89 -128)"/><path id="path814" class="cls-44" d="M445.09,606.21l6,6.82,4.09-3.58a28.41,28.41,0,0,0,4.67-4.68,4,4,0,0,0,.55-2.5,4.62,4.62,0,0,0-1.21-2.51,4.27,4.27,0,0,0-2.66-1.54,4.47,4.47,0,0,0-3,.77c-.5.33-1.88,1.48-4.11,3.44Z" transform="translate(-4.89 -128)"/><path id="path816" class="cls-44" d="M501.29,545.57l8.55,11.2,5.32-8.43Z" transform="translate(-4.89 -128)"/></g></svg>