<svg id="Capa_1" data-name="Capa 1" xmlns="http://www.w3.org/2000/svg" viewBox="0 0 456.08 757.8"><defs><style>.cls-1,.cls-3{fill:#fff;}.cls-2{fill:#0a9239;}.cls-3,.cls-4{stroke:#0a9239;stroke-miterlimit:10;}.cls-3{stroke-width:1.24px;}.cls-4,.cls-6{fill:none;}.cls-4{stroke-width:2.62px;}.cls-5,.cls-7{fill:#029239;}.cls-6{stroke:#fff;stroke-linejoin:round;stroke-width:10.49px;}.cls-7{font-size:100.35px;font-family:BodoniMT-Bold, Bodoni MT;font-weight:700;}.cls-8{letter-spacing:0.04em;}.cls-9{letter-spacing:-0.04em;}</style></defs><path class="cls-1" d="M297.64,793.4A221.6,221.6,0,0,1,76.05,571.81V54.94a6.45,6.45,0,0,1,6.45-6.45H512.78a6.45,6.45,0,0,1,6.45,6.45V571.81A221.6,221.6,0,0,1,297.64,793.4Z" transform="translate(-69.6 -42.04)"/><path class="cls-2" d="M512.78,55V571.81C512.78,690.62,416.46,787,297.64,787S82.5,690.62,82.5,571.81V55H512.78m0-12.91H82.5A12.9,12.9,0,0,0,69.6,55V571.81a228,228,0,1,0,456.08,0V55A12.91,12.91,0,0,0,512.78,42Z" transform="translate(-69.6 -42.04)"/><path class="cls-2" d="M297.64,356.67C178.82,356.67,82.5,453,82.5,571.81s96.32,215.13,215.14,215.13,215.14-96.32,215.14-215.13S416.46,356.67,297.64,356.67Zm0,377.7A161.36,161.36,0,1,1,459,573,161.35,161.35,0,0,1,297.64,734.37Z" transform="translate(-69.6 -42.04)"/><path class="cls-2" d="M297.64,676.65a103.64,103.64,0,1,1,52.47-193v-36.5a136.34,136.34,0,1,0,0,251.71v-36.5A103.1,103.1,0,0,1,297.64,676.65Z" transform="translate(-69.6 -42.04)"/><path class="cls-2" d="M347.49,411.76v96.88a81.44,81.44,0,1,0,0,128.75V640h35.42V411.76ZM297.64,625.39a52.35,52.35,0,1,1,49.85-36.3A52.37,52.37,0,0,1,297.64,625.39Z" transform="translate(-69.6 -42.04)"/><path class="cls-3" d="M297.42,540,282,533.26a43.22,43.22,0,0,0-20.41,16L263.78,565l17.46,3.94,15.82-11.46Z" transform="translate(-69.6 -42.04)"/><path class="cls-3" d="M297.06,557.46,312.84,569l15.45-5,1.39-19.21a43.74,43.74,0,0,0-15.56-11L297.42,540Z" transform="translate(-69.6 -42.04)"/><path class="cls-3" d="M254.1,578.17a43.78,43.78,0,0,0,5.72,17.7l15.57,5,11.85-13.4-3-9.29-3-9.29L263.78,565Z" transform="translate(-69.6 -42.04)"/><path class="cls-3" d="M317.28,601.48,308.74,616a43.29,43.29,0,0,1-25.88-1l-7.47-14.05,11.85-13.4,19.53,0Z" transform="translate(-69.6 -42.04)"/><path class="cls-3" d="M306.77,587.53,312.84,569l15.45-5,12.36,14.76a43.61,43.61,0,0,1-6.19,18l-17.18,4.73Z" transform="translate(-69.6 -42.04)"/><path class="cls-2" d="M254.1,578.17,263.78,565l-2.16-15.76A43.51,43.51,0,0,0,254.1,578.17Z" transform="translate(-69.6 -42.04)"/><path class="cls-2" d="M297.42,540l16.7-6.21A43.4,43.4,0,0,0,284,532.55c-.68.22-1.34.46-2,.71Z" transform="translate(-69.6 -42.04)"/><polygon class="cls-2" points="211.64 526.87 214.64 536.16 217.65 545.45 237.17 545.49 243.24 526.92 227.46 515.42 211.64 526.87"/><path class="cls-2" d="M259.82,595.87l15.57,5L282.86,615A43.52,43.52,0,0,1,259.82,595.87Z" transform="translate(-69.6 -42.04)"/><path class="cls-2" d="M317.28,601.48l17.18-4.73a43.35,43.35,0,0,1-23.68,18.61q-1,.32-2,.6Z" transform="translate(-69.6 -42.04)"/><path class="cls-2" d="M328.29,564l12.36,14.76a43.51,43.51,0,0,0-11-34Z" transform="translate(-69.6 -42.04)"/><circle class="cls-4" cx="227.81" cy="531.91" r="43.51"/><path class="cls-5" d="M512.78,170.39H82.5V571.81a214.49,214.49,0,0,1,64.28-153.37V196.62h48.54V382.51a213.35,213.35,0,0,1,68.21-23.14V196.62h69.53v163a213.62,213.62,0,0,1,68.21,23.66V196.62h48.54v223.1a214.47,214.47,0,0,1,63,152.09Z" transform="translate(-69.6 -42.04)"/><circle class="cls-6" cx="228.04" cy="529.76" r="215.14"/><path class="cls-6" d="M82.5,54.94V571.81c0-118.82,96.32-215.14,215.14-215.14S512.78,453,512.78,571.81V54.94Z" transform="translate(-69.6 -42.04)"/><text class="cls-7" transform="translate(17.46 117.06) scale(0.9 1.25)"><tspan class="cls-8">C</tspan><tspan x="58.02" y="0">.</tspan><tspan class="cls-9" x="85.21" y="0">D</tspan><tspan x="151.56" y="0">. OFRA</tspan></text></svg>