<svg id="Capa_1" data-name="Capa 1" xmlns="http://www.w3.org/2000/svg" viewBox="0 0 485.5 777.16"><defs><style>.cls-1{fill:#3592d0;}.cls-11,.cls-12,.cls-2{fill:none;}.cls-10,.cls-11,.cls-12,.cls-13,.cls-2,.cls-20,.cls-21,.cls-22,.cls-23,.cls-5,.cls-6,.cls-8,.cls-9{stroke:#1d1d1b;}.cls-10,.cls-11,.cls-12,.cls-2,.cls-20,.cls-22,.cls-23,.cls-5,.cls-6,.cls-8,.cls-9{stroke-miterlimit:10;}.cls-10,.cls-2{stroke-width:5.54px;}.cls-10,.cls-20,.cls-21,.cls-3{fill:#e73632;}.cls-13,.cls-4{fill:#f7e822;}.cls-14,.cls-17,.cls-5,.cls-7{fill:#1d1d1b;}.cls-5{stroke-width:5.79px;}.cls-6,.cls-8{fill:#fff;}.cls-6{stroke-width:3.17px;}.cls-8{stroke-width:0.92px;}.cls-9{stroke-width:0.46px;}.cls-11,.cls-13{stroke-width:3.69px;}.cls-12{stroke-width:7.38px;}.cls-13,.cls-21{stroke-linejoin:round;}.cls-14{font-size:57.21px;}.cls-14,.cls-17{font-family:Calibri-Bold, Calibri;font-weight:700;}.cls-15{letter-spacing:-0.01em;}.cls-16{letter-spacing:-0.01em;}.cls-17{font-size:47.98px;}.cls-18{letter-spacing:-0.02em;}.cls-19,.cls-22{fill:#f4e70b;}.cls-20,.cls-21,.cls-22,.cls-23{stroke-width:1.85px;}.cls-23{fill:#28306b;}</style></defs><path class="cls-1" d="M68.08,256.19V578.4c0,126.89,102.85,229.74,229.74,229.74S527.55,705.29,527.55,578.4V256.19Z" transform="translate(-54.89 -33.75)"/><path class="cls-2" d="M68.08,256.19V578.4c0,126.89,102.85,229.74,229.74,229.74S527.55,705.29,527.55,578.4V256.19Z" transform="translate(-54.89 -33.75)"/><path class="cls-3" d="M103.5,543.24v39.11A193.4,193.4,0,0,0,136.83,691.2v-148Z" transform="translate(-54.89 -33.75)"/><path class="cls-3" d="M492.13,543.24h-41V701.73a193.43,193.43,0,0,0,41-119.38Z" transform="translate(-54.89 -33.75)"/><path class="cls-3" d="M271.53,543.24V774.89a196.52,196.52,0,0,0,26.29,1.78c6.28,0,12.48-.31,18.61-.89V543.24Z" transform="translate(-54.89 -33.75)"/><path class="cls-4" d="M316.43,543.24V775.78a193.59,193.59,0,0,0,44.9-9.74V543.24Z" transform="translate(-54.89 -33.75)"/><path class="cls-3" d="M361.33,766a193.8,193.8,0,0,0,44.91-22.41V543.24H361.33Z" transform="translate(-54.89 -33.75)"/><path class="cls-4" d="M406.24,543.24V743.63a195.66,195.66,0,0,0,44.9-41.9V543.24Z" transform="translate(-54.89 -33.75)"/><path class="cls-4" d="M226.63,543.24v220a192.41,192.41,0,0,0,44.9,11.68V543.24Z" transform="translate(-54.89 -33.75)"/><path class="cls-3" d="M181.73,543.24v195a193.63,193.63,0,0,0,44.9,25v-220Z" transform="translate(-54.89 -33.75)"/><path class="cls-4" d="M181.73,738.19v-195h-44.9v148A195.41,195.41,0,0,0,181.73,738.19Z" transform="translate(-54.89 -33.75)"/><path class="cls-2" d="M451.14,543.24H103.5v39.11A193.4,193.4,0,0,0,136.83,691.2a194.91,194.91,0,0,0,89.8,72,192.41,192.41,0,0,0,44.9,11.68,196.52,196.52,0,0,0,26.29,1.78c6.28,0,12.48-.31,18.61-.89a193.37,193.37,0,0,0,89.81-32.15,195.66,195.66,0,0,0,44.9-41.9,193.43,193.43,0,0,0,41-119.38V543.24Z" transform="translate(-54.89 -33.75)"/><ellipse class="cls-5" cx="242.93" cy="626.21" rx="92.65" ry="92.64"/><path class="cls-6" d="M297.82,752.6A92.65,92.65,0,1,0,205.17,660,92.75,92.75,0,0,0,297.82,752.6Zm-30-7.31a90.85,90.85,0,0,1-41.19-29.63l11.09-9.38,23.43,6.65,14.06,20ZM223.67,663l15.62-21,19,6.8,15.83,43.61-12.82,18.37L237.53,704Zm53.14,68.47L263.11,712l12.82-18.37,43.3.1,15.49,15.43-14.62,21.7Zm51.43,13.69-5.74-14,14.31-21.23,23.37-7.13,10.08,11.29A90.79,90.79,0,0,1,328.24,745.15ZM371.69,607.8a90,90,0,0,1,16.52,48.76l-14,1.19-14.86-17.44-.89-26.52Zm.87,51.36-12.38,41.38-23.75,7.25-15.68-15.61,14.8-42.53L357.93,642ZM357.17,640l-22.41,7.66-35.12-27.46.17-22.58,20.69-8,35.79,24.18Zm-59.35-70.5a90,90,0,0,1,24.37,3.37l-3.27,15-20.23,7.82-23.8-7.45-1-15.54A89.91,89.91,0,0,1,297.82,569.47Zm-24.37,20.6,24.19,7.57-.16,22.42-38.06,26.79-19.47-7-1.08-25.35Zm-36.71,25.46,1.06,24.8L222,661.67l-14.57-3.34a89.87,89.87,0,0,1,16.88-51Z" transform="translate(-54.89 -33.75)"/><circle class="cls-7" cx="244.75" cy="626.21" r="46.16"/><polygon class="cls-8" points="265.86 658.43 281.54 674.04 305.29 666.79 317.68 625.41 303.04 608.25 280.66 615.9 265.86 658.43"/><polygon class="cls-8" points="302.28 606.22 301.4 580.02 265.61 555.84 244.92 563.85 244.75 586.43 279.87 613.88 302.28 606.22"/><polygon class="cls-8" points="221.04 659.87 208.22 678.24 221.92 697.71 265.21 697.11 279.83 675.41 264.34 659.98 221.04 659.87"/><polygon class="cls-8" points="203.44 615.01 184.4 608.22 168.78 629.24 182.65 670.24 206.45 676.99 219.27 658.63 203.44 615.01"/><polygon class="cls-8" points="204.53 613.1 242.59 586.32 242.75 563.89 218.56 556.33 183.98 580.8 185.06 606.15 204.53 613.1"/><path class="cls-9" d="M374.21,657.75l14-1.19a90,90,0,0,0-16.52-48.76l-13.23,6,.89,26.52Z" transform="translate(-54.89 -33.75)"/><path class="cls-9" d="M336.81,709.94,322.5,731.17l5.74,14a90.79,90.79,0,0,0,42-31l-10.08-11.29Z" transform="translate(-54.89 -33.75)"/><path class="cls-9" d="M237.69,706.28l-11.09,9.38a90.85,90.85,0,0,0,41.19,29.63l7.39-12.38-14.06-20Z" transform="translate(-54.89 -33.75)"/><path class="cls-9" d="M298.69,595.7l20.23-7.82,3.27-15a89.86,89.86,0,0,0-48.29-.13l1,15.54Z" transform="translate(-54.89 -33.75)"/><path class="cls-9" d="M222,661.67l15.85-21.34-1.06-24.8-12.48-8.17a89.87,89.87,0,0,0-16.88,51Z" transform="translate(-54.89 -33.75)"/><rect class="cls-10" x="48.61" y="281.09" width="179.61" height="179.61"/><path class="cls-1" d="M259.36,362.05a30.53,30.53,0,0,0-18.74-8.76c-21.47-1.56-37.3,23-40.39,20.44-1.95-1.63,2.94-12.45,10.7-19.71,8-7.5,21.42-13.35,32.13-10,2.27.72,4.41,1.84,4.87,1.22.93-1.3-6.16-8.87-14.12-13.87-6.92-4.35-10.35-6.57-14.85-6.33-15.87.84-27.28,30.54-26.74,37.23,0,.13.07.81-.18.92-1.3.52-5.63-16.38-17.79-27-3.28-2.86-11.48-10-22.45-9.49,0,0-13,.65-27,19.53-.57.77-2.14,2.89-1.64,3.47s2.16-.36,2.55-.55c5.63-2.64,17.62.72,20.26,1.46a51.41,51.41,0,0,1,20.26,10.77c3.7,3.28,9.68,9.67,9.68,9.67-3.77-1.37-17.59-5.87-32.13.55-19.43,8.59-25.95,30.44-24.82,40.71.27,2.4,1.94,6.7,5.28,15.3,1,2.46,2,3.52,2.2,2.95,4-9.68,11.32-18.44,20.63-26.83,4.41-4,7.2-6.34,16.24-10,5.65-2.31,11.12-4.55,14.42-2.19,4.48,3.2,1.06,29.14-.12,46.85-.65,9.72-.73,18.25-2.25,26.16-.65,3.37-.7,9-4.74,12.41-2.88,2.39-6.26,2.56-7.85,2.74-11.1,1.24-17.19,8.86-22.07,14.78h91.14c-3.8-4.12-11.42-9.59-17-12.77a30.56,30.56,0,0,1-7.3-5.12,27.14,27.14,0,0,1-7.67-13.5c-3.35-18.25-4.44-28.35-5.9-67.17-.16-4.06,6.5-3.28,8.52-3.65,25.84-4.82,48.36,29.74,49.75,32,1.5-2.85,1.69-3.55,2.08-9.6.13-1.9.92-18.82-12.9-29.21a33.23,33.23,0,0,0-32-4.12c-2.27,1-4.54,2.41-4.69,2.18-.3-.47,7.15-8.14,17.76-11.44,13.84-4.31,26.51.84,29.69,2.19,9.35,3.95,12.92,9.19,14.85,7.79C269.41,380.18,266.41,369.21,259.36,362.05Z" transform="translate(-54.89 -33.75)"/><path class="cls-11" d="M259.36,362.05a30.53,30.53,0,0,0-18.74-8.76c-21.47-1.56-37.3,23-40.39,20.44-1.95-1.63,2.94-12.45,10.7-19.71,8-7.5,21.42-13.35,32.13-10,2.27.72,4.41,1.84,4.87,1.22.93-1.3-6.16-8.87-14.12-13.87-6.92-4.35-10.35-6.57-14.85-6.33-15.87.84-27.28,30.54-26.74,37.23,0,.13.07.81-.18.92-1.3.52-5.63-16.38-17.79-27-3.28-2.86-11.48-10-22.45-9.49,0,0-13,.65-27,19.53-.57.77-2.14,2.89-1.64,3.47s2.16-.36,2.55-.55c5.63-2.64,17.62.72,20.26,1.46a51.41,51.41,0,0,1,20.26,10.77c3.7,3.28,9.68,9.67,9.68,9.67-3.77-1.37-17.59-5.87-32.13.55-19.43,8.59-25.95,30.44-24.82,40.71.27,2.4,1.94,6.7,5.28,15.3,1,2.46,2,3.52,2.2,2.95,4-9.68,11.32-18.44,20.63-26.83,4.41-4,7.2-6.34,16.24-10,5.65-2.31,11.12-4.55,14.42-2.19,4.48,3.2,1.06,29.14-.12,46.85-.65,9.72-.73,18.25-2.25,26.16-.65,3.37-.7,9-4.74,12.41-2.88,2.39-6.26,2.56-7.85,2.74-11.1,1.24-17.19,8.86-22.07,14.78h91.14c-3.8-4.12-11.42-9.59-17-12.77a30.56,30.56,0,0,1-7.3-5.12,27.14,27.14,0,0,1-7.67-13.5c-3.35-18.25-4.44-28.35-5.9-67.17-.16-4.06,6.5-3.28,8.52-3.65,25.84-4.82,48.36,29.74,49.75,32,1.5-2.85,1.69-3.55,2.08-9.6.13-1.9.92-18.82-12.9-29.21a33.23,33.23,0,0,0-32-4.12c-2.27,1-4.54,2.41-4.69,2.18-.3-.47,7.15-8.14,17.76-11.44,13.84-4.31,26.51.84,29.69,2.19,9.35,3.95,12.92,9.19,14.85,7.79C269.41,380.18,266.41,369.21,259.36,362.05Z" transform="translate(-54.89 -33.75)"/><rect class="cls-2" x="48.61" y="281.09" width="179.61" height="179.61"/><rect class="cls-10" x="257.64" y="281.09" width="179.61" height="179.61"/><line class="cls-12" x1="278.73" y1="303.15" x2="423.63" y2="435.91"/><polygon class="cls-13" points="287.74 336.26 272.46 320.97 272.46 297.39 312.17 333.43 287.74 336.26"/><polygon class="cls-13" points="329.76 350.95 331.12 350.62 350.44 368.15 325.52 374.04 307.75 356.26 329.76 350.95"/><polygon class="cls-13" points="337.69 326.06 354.71 343.09 350.44 368.15 331.12 350.62 330.15 349.74 337.69 326.06"/><polygon class="cls-13" points="354.71 343.09 374.09 362.47 368.69 384.71 350.44 368.15 354.71 343.09"/><polygon class="cls-13" points="368.69 384.71 386.33 400.72 359.41 407.93 341.93 390.45 368.69 384.71 368.69 384.71"/><polygon class="cls-13" points="350.44 368.15 368.69 384.71 368.69 384.71 341.93 390.45 325.52 374.04 350.44 368.15 350.44 368.15"/><polygon class="cls-13" points="386.33 400.72 408.99 421.27 372.75 421.27 359.41 407.93 386.33 400.72"/><polygon class="cls-13" points="393.31 381.69 408.99 397.36 408.99 421.27 386.33 400.72 393.31 381.69"/><polygon class="cls-13" points="374.09 362.47 392.87 381.24 393.31 381.69 386.33 400.72 368.69 384.71 374.09 362.47"/><polygon class="cls-13" points="312.17 333.43 330.15 349.74 331.12 350.62 329.76 350.95 307.75 356.26 287.74 336.26 312.17 333.43"/><polygon class="cls-13" points="315.04 303.42 337.69 326.06 330.15 349.74 312.17 333.43 315.04 303.42"/><polygon class="cls-13" points="309.02 297.39 315.04 303.42 312.17 333.43 311.27 332.61 272.46 297.39 309.02 297.39"/><line class="cls-12" x1="417.35" y1="303.15" x2="272.46" y2="435.91"/><polygon class="cls-13" points="408.34 336.26 423.63 320.97 423.63 297.39 383.91 333.43 408.34 336.26"/><polygon class="cls-13" points="366.32 350.95 364.96 350.62 345.64 368.15 370.56 374.04 388.34 356.26 366.32 350.95"/><polygon class="cls-13" points="358.4 326.06 341.37 343.09 345.64 368.15 364.96 350.62 365.94 349.74 358.4 326.06"/><polygon class="cls-13" points="341.37 343.09 321.99 362.47 327.4 384.71 345.64 368.15 341.37 343.09"/><polygon class="cls-13" points="327.4 384.71 309.75 400.72 336.67 407.93 354.15 390.45 327.4 384.71 327.4 384.71"/><polygon class="cls-13" points="345.64 368.15 327.4 384.71 327.4 384.71 354.15 390.45 370.56 374.04 345.64 368.15 345.64 368.15"/><polygon class="cls-13" points="309.75 400.72 287.1 421.27 323.33 421.27 336.67 407.93 309.75 400.72"/><polygon class="cls-13" points="302.78 381.69 287.1 397.36 287.1 421.27 309.75 400.72 302.78 381.69"/><polygon class="cls-13" points="321.99 362.47 303.22 381.24 302.78 381.69 309.75 400.72 327.4 384.71 321.99 362.47"/><polygon class="cls-13" points="383.91 333.43 365.94 349.74 364.96 350.62 366.32 350.95 388.34 356.26 408.34 336.26 383.91 333.43"/><polygon class="cls-13" points="381.04 303.42 358.4 326.06 365.94 349.74 383.91 333.43 381.04 303.42"/><polygon class="cls-13" points="387.07 297.39 381.04 303.42 383.91 333.43 384.81 332.61 423.63 297.39 387.07 297.39"/><text class="cls-14" transform="translate(65.49 270.45)">CD <tspan class="cls-15" x="79.28" y="0">S</tspan><tspan x="105.62" y="0">AN ISID</tspan><tspan class="cls-16" x="284.52" y="0">R</tspan><tspan x="316.17" y="0">O</tspan></text><text class="cls-17" transform="translate(85.94 502.45)">FUN<tspan class="cls-18" x="84.96" y="0">D</tspan><tspan x="114.08" y="0">ADO 1970</tspan></text><path class="cls-19" d="M462,257.06a4.68,4.68,0,0,1-2.54-.75,301.47,301.47,0,0,0-323.7,0,4.7,4.7,0,0,1-6.46-1.35L120.09,241a4.72,4.72,0,0,1,1.38-6.59c4-2.54,8.09-5,12.31-7.48-6-1-12.58-3.52-20.09-7.59-21-11.39-40.6-31-56.67-56.59a1.85,1.85,0,0,1,1.48-2.83c1.72-.07,3.45-.1,5.16-.1a125.06,125.06,0,0,1,28,3.16c1,.24,2,.49,3.07.75,8.58-21.23,20.54-39.37,34.61-52.48,14.58-13.57,31.11-21.41,47.8-22.66,1.56-.12,3.15-.17,4.73-.17a68.26,68.26,0,0,1,13,1.27l.12-.12c14.35-13.43,35.54-15,51-16.07,3-.22,6.12-.33,9.17-.33a130.51,130.51,0,0,1,27.5,3c3.5-11.36,8.86-17.88,14.87-18h.26c6,.1,11.37,6.62,14.86,18a130.58,130.58,0,0,1,27.5-3c3.05,0,6.13.11,9.17.33,15.48,1.12,36.67,2.64,51,16.07l.12.12a68.23,68.23,0,0,1,13-1.27c1.59,0,3.18,0,4.74.17,16.69,1.25,33.21,9.09,47.79,22.66,14.07,13.11,26,31.25,34.62,52.48,1-.26,2-.51,3.07-.75a125,125,0,0,1,28-3.16c1.71,0,3.44,0,5.15.1a1.85,1.85,0,0,1,1.49,2.83c-16.07,25.63-35.67,45.2-56.67,56.59-7.51,4.07-14.14,6.58-20.09,7.59,4.21,2.44,8.33,4.94,12.3,7.48a4.72,4.72,0,0,1,1.38,6.59L465.94,255A4.7,4.7,0,0,1,462,257.06Zm-270-74.69c-6.76,8.69-13.82,17.07-21,24.93l-1.69,1.83a326.46,326.46,0,0,1,48.69-16.34A110,110,0,0,1,192.05,182.37Zm185.18,10.42a326.34,326.34,0,0,1,48.68,16.34l-1.69-1.83c-7.18-7.86-14.24-16.24-21-24.93A109.73,109.73,0,0,1,377.23,192.79Zm27.42-34.5a1.84,1.84,0,0,1,1.37.61c13.15,14.63,32.46,32.59,49.76,35.1a53,53,0,0,0,7.78.69,27.23,27.23,0,0,0,13.69-3.39,25.91,25.91,0,0,0,4-2.82,57.1,57.1,0,0,1-14.69-7.35,1.86,1.86,0,0,1-.79-1.58,1.84,1.84,0,0,1,.89-1.51,125,125,0,0,1,29.77-13.16A182.58,182.58,0,0,0,481.18,152c-10.69-8-16.58-12.43-24.21-14.54a35.69,35.69,0,0,0-9.63-1.29c-12.46,0-24.13,6-31.92,11.16l-.3,1.73a1.85,1.85,0,0,1-1.4,1.49,1.54,1.54,0,0,1-.43,0,1.84,1.84,0,0,1-1.48-.75,124.45,124.45,0,0,0-9.72-11.69c-8.2-8.72-20.67-19.35-30-23.42a38.4,38.4,0,0,0-15.43-3c-11.41,0-24.37,4.07-37.6,11.78a111.15,111.15,0,0,0,30.5,23.57,1.84,1.84,0,0,1,.7,2.61c-.77,1.22-1.55,2.34-2.38,3.42-.37.48-3.65,4.7-5.9,6.24a8.65,8.65,0,0,1-5,1.38c-5.67,0-12.68-3.74-18.31-7.51a35.89,35.89,0,0,0,1.47,10.55,31.42,31.42,0,0,0,14.58,7.58,51,51,0,0,0,9.43.73c5.15,0,10.35-.44,14.15-.76,8.77-.74,22-1.86,37.23-8.65a92.37,92.37,0,0,0,8.24-4.18A1.89,1.89,0,0,1,404.65,158.29ZM114,188.48a25.53,25.53,0,0,0,4,2.82,27.21,27.21,0,0,0,13.69,3.39,52.69,52.69,0,0,0,7.77-.69c17.31-2.51,36.62-20.47,49.77-35.1a1.84,1.84,0,0,1,2.28-.37c2.7,1.54,5.47,2.94,8.24,4.18,15.22,6.79,28.47,7.91,37.24,8.65,3.79.32,9,.76,14.14.76a51.07,51.07,0,0,0,9.44-.73,31.44,31.44,0,0,0,14.57-7.58,35.57,35.57,0,0,0,1.47-10.55c-5.62,3.77-12.63,7.51-18.3,7.51a8.7,8.7,0,0,1-5-1.38c-2.25-1.54-5.53-5.76-5.89-6.24-.83-1.08-1.61-2.2-2.38-3.42a1.87,1.87,0,0,1-.22-1.46,1.82,1.82,0,0,1,.92-1.15,111.15,111.15,0,0,0,30.5-23.57c-13.23-7.71-26.19-11.78-37.61-11.78a38.39,38.39,0,0,0-15.42,3c-9.38,4.07-21.85,14.7-30.06,23.42a124.36,124.36,0,0,0-9.71,11.69,1.84,1.84,0,0,1-1.49.75,1.63,1.63,0,0,1-.43,0,1.83,1.83,0,0,1-1.39-1.49l-.3-1.73c-7.8-5.19-19.46-11.16-31.92-11.16a35.82,35.82,0,0,0-9.64,1.29c-7.62,2.11-13.51,6.53-24.21,14.54a182.45,182.45,0,0,0-15.28,12.84A125.14,125.14,0,0,1,128.58,178a1.83,1.83,0,0,1,.88,1.51,1.85,1.85,0,0,1-.78,1.58A57.17,57.17,0,0,1,114,188.48Zm183.66-21a82.55,82.55,0,0,1-10,9.74,85.18,85.18,0,0,1-9.23,6.42c6.43-.38,12.85-.57,19.19-.57s12.76.19,19.19.57a84.71,84.71,0,0,1-9.24-6.42A83.2,83.2,0,0,1,297.64,167.44Z" transform="translate(-54.89 -33.75)"/><path class="cls-7" d="M297.65,60h0c5.62,0,10.59,7.22,13.7,18.31A128.62,128.62,0,0,1,340.13,75c2.91,0,5.93.1,9,.32,15.08,1.09,36,2.59,49.89,15.58.26.24.49.52.74.78a66.49,66.49,0,0,1,13.64-1.44c1.62,0,3.15.06,4.6.17C451.62,93,481.94,122.3,499,164.73a183.41,183.41,0,0,0-16.7-14.17c-10.68-8-16.86-12.63-24.83-14.84a37.54,37.54,0,0,0-10.12-1.35c-14.24,0-27.06,7.46-33.62,11.92-.12.83-.28,1.67-.42,2.51a126.56,126.56,0,0,0-9.86-11.86c-8.49-9-21-19.65-30.67-23.85a40.24,40.24,0,0,0-16.16-3.16c-12.62,0-26.77,4.84-40.46,13.18a113.52,113.52,0,0,0,32.5,25.64c-.68,1.06-1.42,2.16-2.28,3.27a33.17,33.17,0,0,1-5.48,5.84,6.85,6.85,0,0,1-3.95,1.07c-4.88,0-12-3.32-19.95-9.06-.09.92-.17,1.88-.19,2.88a37.13,37.13,0,0,0,1.69,12.09,33.42,33.42,0,0,0,15.83,8.36,53.31,53.31,0,0,0,9.79.76c5.23,0,10.55-.45,14.3-.76,9.35-.79,22.64-2,37.84-8.81,2.42-1.08,5.27-2.48,8.4-4.25,12.73,14.15,32.75,33.06,50.87,35.69a54.43,54.43,0,0,0,8,.71,29.27,29.27,0,0,0,14.59-3.63,28.28,28.28,0,0,0,6.71-5.28,55.43,55.43,0,0,1-17.2-8,122.94,122.94,0,0,1,64-17.93c1.75,0,3.45,0,5.08.1-11,17.51-29.44,41.56-56,55.95-11.25,6.1-19.2,7.89-25,7.89h-.25q8.86,4.92,17.4,10.37a2.88,2.88,0,0,1,.84,4l-9.25,13.94a2.85,2.85,0,0,1-2.37,1.27,2.93,2.93,0,0,1-1.55-.45,303.25,303.25,0,0,0-325.68,0,2.93,2.93,0,0,1-1.55.45,2.87,2.87,0,0,1-2.38-1.27L121.63,240a2.87,2.87,0,0,1,.84-4q8.52-5.46,17.4-10.37h-.25c-5.85,0-13.81-1.79-25.05-7.89-26.55-14.39-45-38.44-56-55.95,1.63-.06,3.32-.1,5.08-.1a122.94,122.94,0,0,1,64,17.93,55.48,55.48,0,0,1-17.21,8,28.69,28.69,0,0,0,6.71,5.28,29.33,29.33,0,0,0,14.6,3.63,54.56,54.56,0,0,0,8-.71c18.11-2.63,38.14-21.54,50.87-35.69,3.12,1.77,6,3.17,8.4,4.25,15.2,6.79,28.49,8,37.83,8.81,3.76.31,9.08.76,14.3.76a53.49,53.49,0,0,0,9.8-.76,33.47,33.47,0,0,0,15.83-8.36,37.68,37.68,0,0,0,1.69-12.09c0-1-.1-2-.2-2.88-7.94,5.74-15.07,9.06-19.94,9.06a6.91,6.91,0,0,1-4-1.07,33.52,33.52,0,0,1-5.47-5.84c-.86-1.11-1.61-2.21-2.28-3.27a113.65,113.65,0,0,0,32.5-25.64c-13.7-8.34-27.84-13.18-40.47-13.18a40.31,40.31,0,0,0-16.16,3.16c-9.68,4.2-22.18,14.82-30.66,23.85A125,125,0,0,0,182,148.8c-.14-.84-.31-1.68-.42-2.51-6.56-4.46-19.39-11.92-33.62-11.92a37.61,37.61,0,0,0-10.13,1.35c-8,2.21-14.14,6.84-24.82,14.84a185.06,185.06,0,0,0-16.71,14.17c17.06-42.43,47.37-71.76,81-74.28,1.44-.11,3-.17,4.59-.17a66.35,66.35,0,0,1,13.64,1.44c.26-.26.49-.54.75-.78C210.09,78,231,76.45,246.11,75.36c3.11-.22,6.12-.32,9-.32a129.23,129.23,0,0,1,28.79,3.28C287,67.23,292,60,297.62,60h0M270.21,186c9-.75,18.19-1.15,27.43-1.15s18.39.4,27.43,1.15a91.17,91.17,0,0,1-16.3-10.28,80.62,80.62,0,0,1-11.13-11.18,81.18,81.18,0,0,1-11.13,11.18A91.17,91.17,0,0,1,270.21,186m163.58,28.62c-2.33-2.29-5-5.1-8.21-8.6-5.92-6.48-13.5-15.22-21.88-26.07a104.89,104.89,0,0,1-35,12.68,323,323,0,0,1,65.13,22m-272.3,0a322.55,322.55,0,0,1,65.13-22c-15.06-2.35-27.76-8.5-35.05-12.68-8.38,10.85-16,19.59-21.88,26.07-3.19,3.5-5.88,6.31-8.2,8.6M297.65,56.32h-.21c-6.63.13-12.26,6.37-16.05,17.68a132.23,132.23,0,0,0-26.25-2.65c-3.09,0-6.22.11-9.3.33-15.55,1.12-36.77,2.65-51.58,16a70.42,70.42,0,0,0-12.43-1.13c-1.63,0-3.27.06-4.87.18-17.11,1.29-34,9.29-48.91,23.15-13.94,13-25.83,30.81-34.46,51.65L92,161.2A126.9,126.9,0,0,0,63.66,158c-1.74,0-3.49,0-5.23.11a3.69,3.69,0,0,0-3,5.65c16.24,25.9,36.08,45.69,57.36,57.23a77.8,77.8,0,0,0,16,6.74q-4.26,2.55-8.34,5.16a6.57,6.57,0,0,0-1.93,9.16L127.8,256a6.51,6.51,0,0,0,5.45,2.92,6.6,6.6,0,0,0,3.53-1,299.62,299.62,0,0,1,321.71,0,6.64,6.64,0,0,0,3.54,1,6.53,6.53,0,0,0,5.45-2.92L476.72,242a6.56,6.56,0,0,0-1.92-9.16q-4.08-2.61-8.35-5.16a78.09,78.09,0,0,0,16-6.74c21.28-11.54,41.11-31.33,57.35-57.23a3.69,3.69,0,0,0-3-5.65c-1.74-.07-3.5-.11-5.23-.11a127.06,127.06,0,0,0-28.38,3.21l-1.55.37c-8.63-20.84-20.52-38.67-34.46-51.65-14.89-13.86-31.8-21.86-48.91-23.15-1.61-.12-3.25-.18-4.88-.18A70.51,70.51,0,0,0,401,87.72c-14.8-13.39-36-14.92-51.58-16-3.07-.22-6.2-.33-9.3-.33A132.3,132.3,0,0,0,313.88,74c-3.79-11.31-9.42-17.55-16.05-17.68ZM322,124c12.24-6.8,24.15-10.38,34.66-10.38a36.73,36.73,0,0,1,14.69,2.85c9.14,4,21.38,14.41,29.45,23A123.58,123.58,0,0,1,410.32,151a3.7,3.7,0,0,0,3,1.51,3.58,3.58,0,0,0,.85-.1,3.71,3.71,0,0,0,2.79-3c0-.28.09-.56.14-.85l0-.09c7.57-4.94,18.58-10.41,30.24-10.41a34.17,34.17,0,0,1,9.14,1.22c7.29,2,13.08,6.36,23.59,14.24,4.4,3.29,8.68,6.82,12.79,10.54a126.7,126.7,0,0,0-27.12,12.4,3.7,3.7,0,0,0-.2,6.18,58.17,58.17,0,0,0,11.9,6.4l-1.1.65a25.4,25.4,0,0,1-12.78,3.16,50.23,50.23,0,0,1-7.51-.67c-13.08-1.9-30.36-14.16-48.66-34.51a3.68,3.68,0,0,0-2.74-1.22,3.63,3.63,0,0,0-1.83.48c-2.64,1.5-5.36,2.88-8.08,4.09-14.93,6.67-28,7.77-36.64,8.5-3.76.32-8.92.75-14,.75a48.14,48.14,0,0,1-9.08-.7,29.24,29.24,0,0,1-13.3-6.8,34.18,34.18,0,0,1-1.12-6.06c5.25,3.18,11.23,5.91,16.33,5.91a10.47,10.47,0,0,0,6-1.71c2.44-1.66,5.7-5.82,6.32-6.64.87-1.12,1.68-2.28,2.48-3.55a3.71,3.71,0,0,0-1.4-5.24A109,109,0,0,1,322,124ZM182,152.49a3.71,3.71,0,0,0,3-1.51,123.58,123.58,0,0,1,9.57-11.52c8.07-8.58,20.31-19,29.44-23a36.73,36.73,0,0,1,14.69-2.85c10.52,0,22.43,3.58,34.67,10.38a109.12,109.12,0,0,1-28.42,21.48,3.71,3.71,0,0,0-1.4,5.24c.8,1.27,1.61,2.43,2.47,3.55.63.82,3.89,5,6.32,6.64a10.52,10.52,0,0,0,6,1.71c5.1,0,11.08-2.73,16.32-5.91a33.28,33.28,0,0,1-1.11,6.06,29.24,29.24,0,0,1-13.3,6.8,48.25,48.25,0,0,1-9.09.7c-5.06,0-10.22-.43-14-.75-8.64-.73-21.7-1.83-36.63-8.5-2.73-1.21-5.45-2.59-8.09-4.09a3.62,3.62,0,0,0-1.82-.48,3.7,3.7,0,0,0-2.75,1.22c-18.3,20.35-35.58,32.61-48.65,34.51a50.23,50.23,0,0,1-7.51.67,25.46,25.46,0,0,1-12.79-3.16c-.37-.21-.73-.43-1.09-.65a58.43,58.43,0,0,0,11.9-6.4,3.7,3.7,0,0,0-.2-6.18,126.92,126.92,0,0,0-27.12-12.4c4.11-3.72,8.39-7.25,12.78-10.54,10.51-7.88,16.31-12.22,23.6-14.24a34.11,34.11,0,0,1,9.14-1.22c11.66,0,22.67,5.47,30.24,10.41v.09l.15.85a3.69,3.69,0,0,0,2.79,3,3.53,3.53,0,0,0,.85.1Zm103.13,28.94c2.13-1.51,3.45-2.58,3.75-2.83a85.74,85.74,0,0,0,8.78-8.38,83.73,83.73,0,0,0,8.78,8.38c.3.25,1.62,1.32,3.75,2.83-4.2-.16-8.39-.24-12.53-.24s-8.33.08-12.53.24Zm99.08,11.27a113.8,113.8,0,0,0,18.54-8c5.29,6.75,10.76,13.31,16.33,19.58a327.62,327.62,0,0,0-34.87-11.62Zm-208,11.62c5.56-6.27,11-12.83,16.32-19.58a114.57,114.57,0,0,0,18.54,8,326.7,326.7,0,0,0-34.86,11.62Z" transform="translate(-54.89 -33.75)"/><path class="cls-20" d="M195.47,91.72c.26-.26.49-.54.75-.78C210.09,78,231,76.45,246.11,75.36a128.4,128.4,0,0,1,37.82,3,102.07,102.07,0,0,0-3.36,27,110.44,110.44,0,0,0,1.72,19.8c-20.88-13.59-43.17-19.22-59.79-12-9.68,4.2-22.18,14.82-30.66,23.85A125,125,0,0,0,182,148.8c-.14-.84-.31-1.68-.42-2.51C178.42,124.28,183,104.07,195.47,91.72Z" transform="translate(-54.89 -33.75)"/><path class="cls-20" d="M177.24,90.45a65.31,65.31,0,0,1,18.23,1.27c-12.52,12.35-17.05,32.56-13.91,54.57-8.09-5.5-25.71-15.57-43.75-10.57-8,2.21-14.14,6.84-24.82,14.84a183.67,183.67,0,0,0-16.71,14.17C113.34,122.3,143.65,93,177.24,90.45Z" transform="translate(-54.89 -33.75)"/><line class="cls-11" x1="242.93" y1="29.93" x2="242.93"/><line class="cls-11" x1="250.54" y1="9.49" x2="235.31" y2="9.49"/><path class="cls-21" d="M311.35,78.32C308.24,67.23,303.27,60,297.65,60h0C292,60,287,67.23,283.93,78.32a102.07,102.07,0,0,0-3.36,27,110.44,110.44,0,0,0,1.72,19.8c2.76,15,8.59,25.43,15.33,25.46h0c6.75,0,12.57-10.41,15.34-25.46a110.44,110.44,0,0,0,1.72-19.8A102.07,102.07,0,0,0,311.35,78.32Z" transform="translate(-54.89 -33.75)"/><path class="cls-20" d="M399.8,91.72c-.25-.26-.48-.54-.74-.78-13.88-13-34.81-14.49-49.89-15.58a128.37,128.37,0,0,0-37.82,3,102.07,102.07,0,0,1,3.36,27,110.44,110.44,0,0,1-1.72,19.8c20.88-13.59,43.17-19.22,59.78-12,9.68,4.2,22.18,14.82,30.67,23.85a126.56,126.56,0,0,1,9.86,11.86c.14-.84.3-1.68.42-2.51C416.86,124.28,412.33,104.07,399.8,91.72Z" transform="translate(-54.89 -33.75)"/><path class="cls-20" d="M418,90.45a65.35,65.35,0,0,0-18.24,1.27c12.53,12.35,17.06,32.56,13.92,54.57,8.09-5.5,25.71-15.57,43.74-10.57,8,2.21,14.15,6.84,24.83,14.84A183.41,183.41,0,0,1,499,164.73C481.94,122.3,451.62,93,418,90.45Z" transform="translate(-54.89 -33.75)"/><path class="cls-22" d="M504.07,164.8a123.38,123.38,0,0,0-36.41,14.81,55.43,55.43,0,0,0,17.2,8,28.28,28.28,0,0,1-6.71,5.28c-8.77,4.93-17.68,3.64-22.63,2.92-18.12-2.63-38.14-21.54-50.87-35.69-3.13,1.77-6,3.17-8.4,4.25-15.2,6.79-28.49,8-37.84,8.81-6.25.52-16.84,1.42-24.09,0a33.42,33.42,0,0,1-15.83-8.36,37.13,37.13,0,0,1-1.69-12.09c0-1,.1-2,.19-2.88,10.5,7.59,19.59,10.94,23.9,8a33.17,33.17,0,0,0,5.48-5.84c.86-1.11,1.6-2.21,2.28-3.27A112.37,112.37,0,0,1,308,112.6a110,110,0,0,1-10.4-19.2,110,110,0,0,1-10.4,19.2,112.45,112.45,0,0,1-40.61,36.15c.67,1.06,1.42,2.16,2.28,3.27a33.52,33.52,0,0,0,5.47,5.84c4.32,2.95,13.41-.4,23.9-8,.1.92.17,1.88.2,2.88a37.68,37.68,0,0,1-1.69,12.09A33.47,33.47,0,0,1,261,173.2c-7.25,1.42-17.85.52-24.1,0-9.34-.79-22.63-2-37.83-8.81-2.43-1.08-5.28-2.48-8.4-4.25-12.73,14.15-32.76,33.06-50.87,35.69-5,.72-13.86,2-22.64-2.92a28.69,28.69,0,0,1-6.71-5.28,55.48,55.48,0,0,0,17.21-8,123,123,0,0,0-69-17.83c11,17.51,29.44,41.56,56,55.95,16.61,9,26,8.62,32.12,6.94,5.61-1.55,10.3-4.72,23-18.62,5.92-6.48,13.5-15.22,21.88-26.07,11.91,6.83,38.24,18.92,65.73,11.1,15.87-4.51,28.27-14.56,29.21-15.33a81.18,81.18,0,0,0,11.13-11.18,80.62,80.62,0,0,0,11.13,11.18c.93.77,13.33,10.82,29.2,15.33,27.5,7.82,53.83-4.27,65.73-11.1,8.38,10.85,16,19.59,21.88,26.07,12.7,13.9,17.39,17.07,23,18.62,6.09,1.68,15.52,2.07,32.13-6.94,26.55-14.39,45-38.44,56-55.95A123.45,123.45,0,0,0,504.07,164.8Z" transform="translate(-54.89 -33.75)"/><path class="cls-22" d="M472.81,236a325.74,325.74,0,0,0-350.34,0,2.87,2.87,0,0,0-.84,4l9.24,13.94a2.87,2.87,0,0,0,3.93.82,303.25,303.25,0,0,1,325.68,0,2.85,2.85,0,0,0,3.92-.82L473.65,240A2.88,2.88,0,0,0,472.81,236Z" transform="translate(-54.89 -33.75)"/><circle class="cls-20" cx="242.73" cy="116.8" r="13.73"/><circle class="cls-20" cx="352.93" cy="122.33" r="12.33"/><ellipse class="cls-20" cx="506.46" cy="196.94" rx="11.75" ry="7.59" transform="translate(-45.81 382.05) rotate(-45)"/><circle class="cls-23" cx="344.98" cy="179.38" r="11.23"/><circle class="cls-20" cx="242.73" cy="116.8" r="13.73"/><circle class="cls-20" cx="132.54" cy="122.33" r="12.33"/><ellipse class="cls-20" cx="88.79" cy="196.94" rx="7.59" ry="11.75" transform="translate(-168.14 86.72) rotate(-45)"/><circle class="cls-23" cx="242.72" cy="162.36" r="11.23"/><circle class="cls-23" cx="140.49" cy="179.38" r="11.23"/></svg>