<svg id="Capa_1" data-name="Capa 1" xmlns="http://www.w3.org/2000/svg" viewBox="0 0 558.79 734.95"><defs><style>.cls-1{fill:#054368;}.cls-1,.cls-10,.cls-2,.cls-3,.cls-5,.cls-6,.cls-7,.cls-8,.cls-9{stroke:#1d1d1b;stroke-miterlimit:10;}.cls-1,.cls-2,.cls-5,.cls-6,.cls-7,.cls-8{stroke-width:3.47px;}.cls-2{fill:#fff;}.cls-3,.cls-7{fill:#e2b106;}.cls-3{stroke-width:2.31px;}.cls-10,.cls-4{fill:#1d1d1b;}.cls-5{fill:#723b10;}.cls-6{fill:#797162;}.cls-8{fill:#1b3c68;}.cls-9{fill:#831811;stroke-width:4.63px;}.cls-10{font-size:59.01px;stroke-width:1.16px;font-family:ArialMT, Arial;}.cls-11{letter-spacing:-0.06em;}</style></defs><path class="cls-1" d="M297.64,565.51H74.73v44.76a93.07,93.07,0,0,0,3.62,25.91l0,.13c5.3,18.24,10.68,36.71,26.24,54.32,13.41,15.17,27.5,21.91,51.88,33.57,10.92,5.22,29.37,14,54.32,19.34,8.83,1.87,15.34,2.64,28.23,6.14,13.46,3.66,23.6,6.41,33.11,11.6,6.06,3.3,15.92,9.81,25.47,22.51,9.54-12.7,19.41-19.21,25.47-22.51,9.51-5.19,19.64-7.94,33.11-11.6,12.89-3.5,19.39-4.27,28.22-6.14,24.95-5.29,43.41-14.12,54.32-19.34,24.38-11.66,38.47-18.4,51.88-33.57,15.57-17.61,20.94-36.08,26.25-54.32l0-.13a93.08,93.08,0,0,0,3.63-25.91V565.51Z" transform="translate(-18.24 -53.47)"/><path class="cls-2" d="M369.26,604.2c-3.15,1-14,4.82-29.87,9a473.81,473.81,0,0,1-51.51,10.68c-49.14,7.05-91.3,2-113.39-.74a503.41,503.41,0,0,1-57.22-10.6v50.22a503.41,503.41,0,0,0,57.22,10.6c22.09,2.77,64.25,7.79,113.39.74a473.81,473.81,0,0,0,51.51-10.68c15.83-4.23,26.72-8,29.87-9.05,18.8-6.11,51.64-7.75,113.29,11.88V616.08C420.9,596.45,388.06,598.09,369.26,604.2Z" transform="translate(-18.24 -53.47)"/><path class="cls-3" d="M351.79,671.53l18.69-21.08a72.52,72.52,0,0,0-15-40.78L329.28,605,314,630.82,324.12,662Z" transform="translate(-18.24 -53.47)"/><path class="cls-3" d="M324.12,662l-26.48,19.24v27.22l29.91,12.11a73.15,73.15,0,0,0,25.54-19.16l-1.3-29.83Z" transform="translate(-18.24 -53.47)"/><path class="cls-3" d="M313.22,582.76a73.13,73.13,0,0,0-31.17,0L266,605l15.27,25.82H314L329.28,605Z" transform="translate(-18.24 -53.47)"/><path class="cls-3" d="M243.49,671.53l-18.7-21.08a72.6,72.6,0,0,1,15-40.78L266,605l15.27,25.82L271.16,662Z" transform="translate(-18.24 -53.47)"/><path class="cls-3" d="M271.16,662l26.48,19.24v27.22l-29.92,12.11a73.11,73.11,0,0,1-25.53-19.16l1.3-29.83Z" transform="translate(-18.24 -53.47)"/><path class="cls-4" d="M313.22,582.76,329.28,605l26.25,4.67A72.89,72.89,0,0,0,313.22,582.76Z" transform="translate(-18.24 -53.47)"/><path class="cls-4" d="M351.79,671.53l1.3,29.83A72.64,72.64,0,0,0,370.57,654c0-1.2,0-2.38-.09-3.56Z" transform="translate(-18.24 -53.47)"/><polygon class="cls-4" points="295.76 577.35 279.4 577.35 263.03 577.35 252.91 608.48 279.4 627.72 305.88 608.48 295.76 577.35"/><path class="cls-4" d="M282.05,582.76,266,605l-26.26,4.67A72.92,72.92,0,0,1,282.05,582.76Z" transform="translate(-18.24 -53.47)"/><path class="cls-4" d="M243.49,671.53l-1.3,29.83A72.6,72.6,0,0,1,224.7,654c0-1.2,0-2.38.09-3.56Z" transform="translate(-18.24 -53.47)"/><path class="cls-4" d="M297.64,708.41l-29.92,12.11a72.91,72.91,0,0,0,59.83,0Z" transform="translate(-18.24 -53.47)"/><path class="cls-4" d="M297.64,581.08A72.93,72.93,0,1,1,224.7,654a72.93,72.93,0,0,1,72.94-72.93m0-2.32A75.25,75.25,0,1,0,372.89,654a75.34,75.34,0,0,0-75.25-75.25Z" transform="translate(-18.24 -53.47)"/><polygon class="cls-2" points="279.4 275.84 56.49 275.84 56.49 452.84 279.4 452.84 502.31 452.84 502.31 275.84 279.4 275.84"/><polygon class="cls-2" points="279.4 452.84 56.49 452.84 56.49 512.04 279.4 512.04 502.31 512.04 502.31 452.84 279.4 452.84"/><path class="cls-5" d="M412.33,355V405H348.85V355H246.42V405H183V355H116.42V486.78H257.71V437.94a39.46,39.46,0,0,1,.43-5.79,39.92,39.92,0,0,1,79,0,40.89,40.89,0,0,1,.42,5.79v48.84H478.85V355Z" transform="translate(-18.24 -53.47)"/><polygon class="cls-6" points="429.37 141.14 441.88 175.89 489.92 153.37 470.13 107.37 429.37 141.14"/><polygon class="cls-6" points="325.74 117.87 354.08 158.78 385.73 112.49 359.36 83.11 325.74 117.87"/><polygon class="cls-6" points="129.42 141.14 116.91 175.89 68.87 153.37 88.67 107.37 129.42 141.14"/><polygon class="cls-6" points="233.05 117.87 204.72 158.78 173.07 112.49 199.44 83.11 233.05 117.87"/><path class="cls-7" d="M508.16,206.84l-48,22.52-12.51-34.75L425.81,134,404,166l-31.65,46.29L344,171.34l-41-59.12a16.62,16.62,0,0,1-10.79,0l-41,59.12L223,212.25,191.31,166,169.47,134l-21.81,60.59-12.51,34.75-48-22.52L22.87,176.72l51.86,90.65H520.55l51.86-90.65Zm-210.52,6.9-26.49-40,26.49-37.83,26.49,37.83Z" transform="translate(-18.24 -53.47)"/><path class="cls-7" d="M297.64,58.1c-11.71,0-21.2,12.32-21.2,27.51,0,12.77,6.71,23.51,15.8,26.61a16.62,16.62,0,0,0,10.79,0c9.1-3.1,15.8-13.84,15.8-26.61C318.83,70.42,309.34,58.1,297.64,58.1Z" transform="translate(-18.24 -53.47)"/><polygon class="cls-6" points="279.4 82.42 252.91 120.25 279.4 160.27 305.89 120.25 279.4 82.42"/><polygon class="cls-2" points="279.4 261.98 184.75 275.84 279.4 275.84 374.05 275.84 279.4 261.98"/><polygon class="cls-2" points="279.4 246.55 79.4 275.84 184.75 275.84 279.4 261.98 374.05 275.84 479.39 275.84 279.4 246.55"/><polygon class="cls-8" points="279.4 181.24 56.49 213.9 56.49 229.33 56.49 243.19 56.49 275.84 79.4 275.84 279.4 246.55 479.39 275.84 502.31 275.84 502.31 243.19 502.31 229.33 502.31 213.9 279.4 181.24"/><rect class="cls-9" x="92.11" y="282.33" width="44.86" height="26.35" rx="13.17" transform="translate(241.18 523.9) rotate(173.98)"/><rect class="cls-9" x="257.18" y="204.21" width="44.86" height="29.52" rx="14.76"/><rect class="cls-9" x="336.44" y="265.19" width="44.86" height="26.35" rx="13.17" transform="translate(12.91 -89.55) rotate(6.02)"/><rect class="cls-9" x="397.64" y="274.03" width="44.86" height="26.35" rx="13.17" transform="translate(14.17 -95.91) rotate(6.02)"/><rect class="cls-9" x="458.74" y="282.33" width="44.86" height="26.35" rx="13.17" transform="translate(15.38 -102.27) rotate(6.02)"/><rect class="cls-9" x="275.42" y="257.68" width="44.86" height="29.52" rx="14.76" transform="translate(577.47 491.41) rotate(-180)"/><rect class="cls-9" x="214.41" y="265.19" width="44.86" height="26.35" rx="13.17" transform="translate(483.3 476.89) rotate(173.98)"/><rect class="cls-9" x="153.21" y="274.03" width="44.86" height="26.35" rx="13.17" transform="translate(362.17 500.94) rotate(173.98)"/><text class="cls-10" transform="translate(133.47 503.57)">C.D. VER<tspan class="cls-11" x="255.75" y="0">A</tspan></text><path class="cls-4" d="M297.64,58.1c11.7,0,21.19,12.32,21.19,27.51,0,12.77-6.7,23.51-15.8,26.61l41,59.12,33.62-34.76L404,166,425.81,134l21.8,60.59,40.76-33.76,19.79,46,64.25-30.12-51.86,90.65v342.9a93.08,93.08,0,0,1-3.63,25.91l0,.13c-5.31,18.24-10.68,36.71-26.25,54.32-13.41,15.17-27.5,21.91-51.88,33.57-10.91,5.22-29.37,14-54.32,19.34-8.83,1.87-15.33,2.64-28.22,6.14-13.47,3.66-23.6,6.41-33.11,11.6-6.06,3.3-15.93,9.81-25.47,22.51-9.55-12.7-19.41-19.21-25.47-22.51-9.51-5.19-19.65-7.94-33.11-11.6-12.89-3.5-19.4-4.27-28.23-6.14-25-5.29-43.4-14.12-54.32-19.34-24.38-11.66-38.47-18.4-51.88-33.57C89.07,673,83.69,654.55,78.39,636.31l0-.13a93.07,93.07,0,0,1-3.62-25.91V267.37L22.87,176.72l64.24,30.12,19.8-46,40.75,33.76L169.47,134,191.31,166l26.37-29.38,33.61,34.76,41-59.12c-9.09-3.1-15.8-13.84-15.8-26.61,0-15.19,9.49-27.51,21.2-27.51m0-4.63c-14.24,0-25.83,14.42-25.83,32.14,0,12,5.38,22.84,13.61,28.34L250.7,164.07,221,133.36a4.62,4.62,0,0,0-3.32-1.41h-.09a4.6,4.6,0,0,0-3.36,1.54l-22.43,25-18.51-27.07a4.64,4.64,0,0,0-3.82-2,5.85,5.85,0,0,0-.59,0,4.64,4.64,0,0,0-3.77,3l-19.57,54.39-35.68-29.56a4.66,4.66,0,0,0-3-1.06,4.51,4.51,0,0,0-1.09.13,4.61,4.61,0,0,0-3.16,2.67l-17.91,41.6L24.83,172.53a4.55,4.55,0,0,0-2-.44,4.63,4.63,0,0,0-4,6.93L70.1,268.6V610.27a97.46,97.46,0,0,0,3.81,27.2l0,.13c5.39,18.54,11,37.71,27.22,56.1,14,15.87,28.83,22.95,53.34,34.67,11.18,5.35,29.88,14.29,55.36,19.7,2.74.58,5.29,1.06,7.76,1.53,5.62,1.06,11.42,2.16,20.22,4.55,13.39,3.63,23.07,6.26,32.1,11.19a75.15,75.15,0,0,1,24,21.23,4.62,4.62,0,0,0,7.4,0,75.23,75.23,0,0,1,24-21.23c9-4.93,18.72-7.56,32.11-11.19,8.79-2.39,14.6-3.49,20.21-4.55,2.47-.47,5-1,7.76-1.53,25.49-5.41,44.19-14.35,55.36-19.7,24.52-11.72,39.32-18.8,53.35-34.67,16.25-18.39,21.83-37.56,27.22-56.1l0-.13a97.46,97.46,0,0,0,3.81-27.2V268.6L576.42,179a4.63,4.63,0,0,0-4-6.93,4.56,4.56,0,0,0-2,.44l-59.92,28.09L492.62,159a4.63,4.63,0,0,0-3.17-2.67,4.43,4.43,0,0,0-1.08-.13,4.62,4.62,0,0,0-2.95,1.06l-35.68,29.56-19.58-54.39a4.63,4.63,0,0,0-3.77-3,5.65,5.65,0,0,0-.58,0,4.63,4.63,0,0,0-3.82,2l-18.51,27.07-22.43-25a4.62,4.62,0,0,0-3.36-1.54h-.09a4.66,4.66,0,0,0-3.33,1.41l-29.7,30.71L309.86,114c8.22-5.5,13.6-16.33,13.6-28.34,0-17.72-11.58-32.14-25.82-32.14Z" transform="translate(-18.24 -53.47)"/></svg>