<svg id="Capa_1" data-name="Capa 1" xmlns="http://www.w3.org/2000/svg" viewBox="0 0 555.38 701.52"><defs><style>.cls-1,.cls-4{fill:#fff;}.cls-16,.cls-2{fill:#1d1d1b;}.cls-15,.cls-3{fill:#7e4412;}.cls-10,.cls-11,.cls-16,.cls-3,.cls-4,.cls-7{stroke:#1d1d1b;}.cls-10,.cls-11,.cls-12,.cls-16,.cls-3,.cls-4,.cls-7{stroke-miterlimit:10;}.cls-10,.cls-11,.cls-12,.cls-13,.cls-16,.cls-3{stroke-width:1.32px;}.cls-4{stroke-width:2.22px;}.cls-5{fill:#158752;}.cls-6{fill:#063;}.cls-7{fill:none;stroke-width:11.92px;}.cls-8{fill:#2c2763;}.cls-9{fill:#228ccc;}.cls-10{fill:#f9fcfa;}.cls-11{fill:#61320f;}.cls-12{fill:#794311;stroke:#432918;}.cls-13{fill:#c31d18;stroke:#be1622;stroke-linejoin:round;}.cls-14{fill:#2a245a;}.cls-16{font-size:39.74px;font-family:ArialMT, Arial;}.cls-17{letter-spacing:-0.06em;}</style></defs><path class="cls-1" d="M222.34,769.72a2,2,0,0,1-.87-.2c-.79-.39-1.59-.8-2.4-1.25a61.59,61.59,0,0,1-6.42-4,63.65,63.65,0,0,1-8.21-7,2,2,0,0,1,1-3.35l2.15-.44a258.7,258.7,0,0,0,72-26.35c-4-3.07-7.87-6.26-11.6-9.51h-.21c-34.44,0-64-9-87.9-26.69-2.11-1.56-4.22-3.23-6.26-5a2,2,0,0,1,1.2-3.5,62,62,0,0,0,6.65-.59c4.53-.69,7.41-2,7.92-3.55a2.19,2.19,0,0,0,.08-.83c-3.68-.66-7.37-1.44-11-2.32a158.67,158.67,0,0,1-47.34-20.06c-3.41-2.17-6.76-4.5-10.23-7.13a2,2,0,0,1,1-3.56,28.88,28.88,0,0,0,4.27-.8,23.05,23.05,0,0,0,7.32-3.39,23.62,23.62,0,0,0,4.89-4.7l1.66-2c-2.43-.66-4.82-1.43-7.15-2.28-15.38-5.64-27-15-33.62-27a52,52,0,0,1-4.36-10.57c-16.08-4.54-37.67-14.26-51.49-34.87a76.39,76.39,0,0,1-6.25-11.35,2,2,0,0,1,.51-2.31,2,2,0,0,1,1.31-.48,2,2,0,0,1,1,.3,33.44,33.44,0,0,0,11.69,4.75,24.51,24.51,0,0,0,4.45.42c.49,0,1,0,1.47,0,1.87-.13,5-.33,6.2-2.13a5.25,5.25,0,0,0,.38-4c-.5,0-1,0-1.5,0a22.11,22.11,0,0,1-5.58-.7,19.39,19.39,0,0,1-6.56-3.07c-3.06-2.18-5.89-5.36-9.47-9.38a85.76,85.76,0,0,1-14.65-23.46A91.14,91.14,0,0,1,22,493.83a2,2,0,0,1,.78-2.09,2,2,0,0,1,2.23-.05,22.39,22.39,0,0,0,8.93,3.47,20.54,20.54,0,0,0,2.28.21h.46c3.95,0,7.22-1.24,11-2.67a52.1,52.1,0,0,0,6.87-3.2c-.19-.57-.38-1.17-.56-1.79a41.83,41.83,0,0,1-1.65-9.46c-.2-3.43-.38-6.68,1-10.55,2.42-6.89,8-10.46,14.94-15a84.19,84.19,0,0,1,11-6,2,2,0,0,1,.82-.18,1.91,1.91,0,0,1,1,.25,2,2,0,0,1,1,1.46,42.55,42.55,0,0,0,1.32,6.12l0,.1c.1.35.21.71.32,1,.37,1.12.77,2.18,1.19,3.16a45.15,45.15,0,0,0,2.49,4.84,25.13,25.13,0,0,1,3.25,19.14c-.22,1.08-.49,2.18-.82,3.29h.5a29.68,29.68,0,0,0,18.25-6.23c.91-3.61,1.81-6.75,2.64-9.63a111.22,111.22,0,0,1,8.89-22.13,113.39,113.39,0,0,0,9.55-24.57l.73-2.64c2.86-10.44,6-22.82,6.57-37.72a126,126,0,0,0-.65-19.06l-.23-1.91-.14-1-.16-1.13-.19-1.23-.21-1.34c-.08-.45-.16-.92-.25-1.41-.19-1-.4-2.11-.64-3.26l0-.12c-.12-.58-.23-1.08-.35-1.59l-.41-1.8-.46-1.91-.13-.5c-.13-.5-.26-1-.4-1.52l-.13-.47q-.22-.86-.48-1.74l-.09-.31c-.42-1.47-.87-3-1.35-4.42h0c-.37-1.13-.76-2.28-1.17-3.46l-.09-.25c-.39-1.12-.82-2.26-1.26-3.42l-.2-.51c-.44-1.14-.91-2.3-1.4-3.48l-.2-.48c-.52-1.22-1-2.45-1.62-3.7s-1.19-2.54-1.8-3.79l-.24-.5c-.6-1.2-1.23-2.43-1.89-3.65l-.37-.69c-.66-1.23-1.35-2.46-2.07-3.7l-.34-.58c-.85-1.46-1.63-2.74-2.38-3.92A141.26,141.26,0,0,0,95,280.44a2,2,0,0,1,.19-3,400.11,400.11,0,0,0,60-56.24l-1.73-.19-2-.28-.79-.13a73.16,73.16,0,0,1-7.16-1.55l-.3-.08c-.75-.21-1.49-.43-2.23-.66l-.54-.17c-.76-.24-1.5-.49-2.25-.75h0A72.65,72.65,0,0,1,121.56,209l-.2-.14c-.77-.53-1.53-1.08-2.28-1.64l-.35-.25c-.72-.55-1.44-1.11-2.15-1.69l-.36-.3c-.7-.59-1.4-1.18-2.08-1.79l-.31-.28c-.7-.64-1.39-1.28-2.07-1.94l-.1-.11a71.7,71.7,0,0,1-11.69-15h0a70.79,70.79,0,0,1-3.42-6.65l-.1-.22c-.43-1-.86-2-1.3-3.12l-.2-.49c-.48-1.23-.91-2.45-1.29-3.63l0-.08c-.36-1.13-.73-2.38-1.07-3.66l-.13-.54c-.3-1.17-.55-2.24-.76-3.27l0-.17a71.37,71.37,0,0,1-.46-26.42l0-.22c.17-.94.35-1.87.55-2.79l.08-.41c.2-.9.41-1.79.64-2.67l.12-.46c.24-.88.49-1.76.76-2.63l.13-.4c.28-.9.57-1.79.89-2.67l0-.15a72.8,72.8,0,0,1,8.52-16.58h0q.67-1,1.38-1.92l.34-.46c.47-.62.94-1.23,1.42-1.84l.21-.24c1.51-1.86,3.14-3.68,4.84-5.39l.61-.62,1.48-1.41L114,96c1.6-1.44,3.27-2.83,5-4.11l.1-.08,1-.74,1.4-1,1.26-.84.19-.12,1.17-.76c.58-.36,1.18-.71,1.77-1.06s1.19-.68,1.8-1,1.16-.63,1.76-.94l1.24-.61,1.74-.82,1.32-.59c.65-.28,1.32-.54,2-.81,1.66-.65,3.05-1.16,4.39-1.59,1.1-.35,2.2-.68,3.38-1l.75-.19.43-.1c.73-.19,1.46-.37,2.2-.53l1.09-.22.35-.07c.65-.13,1.29-.26,1.94-.37l1.52-.23c.65-.1,1.24-.18,1.84-.25l1.69-.19,1.64-.14,1.81-.11,1.46-.06c.65,0,1.3,0,2,0h1.21c.73,0,1.45,0,2.18.06l.65,0a71.26,71.26,0,0,1,12.27,1.74l20.63-7a2.05,2.05,0,0,1,.64-.11,2,2,0,0,1,1.31.49l59.14,51.77a12.25,12.25,0,0,1,3.56,13l33.73,29.06,33.73-29.06a12.25,12.25,0,0,1,3.56-13l59.13-51.77a2,2,0,0,1,1.95-.38L415.56,79l.88-.17c.64-.13,1.29-.26,1.94-.37l1.52-.23c.65-.1,1.24-.18,1.83-.25l1.7-.19,1.63-.14,1.81-.11,1.46-.06,2,0h1.21l2.18.06.65,0A72.07,72.07,0,0,1,449.13,80l.15,0c1,.25,1.88.53,2.82.83l.21.07c.93.29,1.85.61,2.77.95l.16.05c2.16.8,4.3,1.71,6.37,2.71l.1,0A72.57,72.57,0,0,1,486.22,104c.79,1,1.53,1.92,2.24,2.89l.06.08c.71,1,1.37,1.93,2,2.89l.19.29c.57.88,1.14,1.79,1.72,2.78l.28.47c.47.82.95,1.7,1.48,2.7l.35.66c.44.86.85,1.74,1.26,2.63l.14.3.25.52c.39.88.75,1.78,1.11,2.68l.14.34.21.51c.47,1.24.9,2.46,1.28,3.63s.74,2.4,1.08,3.68c.05.19.09.38.13.56l.09.35c.23.94.46,1.87.66,2.81,0,.19.07.37.11.56l.06.34c.19,1,.37,1.91.51,2.86,0,.16.11.75.11.75.14,1,.27,2,.38,3l0,.56c.11,1.11.19,2.21.24,3.25v.36c.05,1.15.07,2.31.06,3.44v.2c0,1.15-.05,2.37-.12,3.58s-.18,2.52-.32,3.73a71.59,71.59,0,0,1-8.25,26.34l-.05.1c-1.09,2-2.3,4-3.59,5.91l-.09.14c-.55.81-1.11,1.61-1.69,2.4l-.11.14c-.61.82-1.21,1.6-1.82,2.36l-.07.09a72.6,72.6,0,0,1-10.63,10.62l-.51.42c-.57.45-1.15.88-1.74,1.32,0,0-.74.56-1,.72-.53.38-1.06.75-1.6,1.11l-1.22.82-1.53,1-1.41.84c-.49.29-1,.57-1.49.85l-1.58.84-1.42.73c-.59.29-1.19.56-1.79.83l-.33.16-1,.45c-.7.3-1.41.58-2.11.86l-.39.16-.73.29c-1.18.44-2.27.83-3.33,1.17s-2.17.67-3.37,1l-.71.17-.4.1c-.69.18-1.39.35-2.09.51l-1.41.29c-.6.12-1.21.24-1.82.34l-.1,0-1.34.23-1.4.19c5.95,6.89,12.15,13.58,18.45,19.92,8.24,8.29,17.13,16.46,26.42,24.27,5.39,4.53,10.42,8.57,15.38,12.34a2,2,0,0,1,.78,1.46,2,2,0,0,1-.6,1.54A143.5,143.5,0,0,0,485.08,298c-2,2.72-3.79,5.36-5.51,8.09A139.06,139.06,0,0,0,458.91,364a124.76,124.76,0,0,0-.65,19.06c.61,14.9,3.71,27.28,6.56,37.72l.73,2.64a112.77,112.77,0,0,0,9.56,24.57A111.32,111.32,0,0,1,484,470.07c.84,2.89,1.74,6,2.64,9.63a29.68,29.68,0,0,0,18.26,6.23h.5c-.33-1.11-.61-2.21-.82-3.29a26.81,26.81,0,0,1,.41-12.92,26.52,26.52,0,0,1,2.83-6.22,41.75,41.75,0,0,0,2.49-4.84c.43-1,.83-2,1.2-3.16.1-.3.19-.62.29-.94l.06-.21a40.84,40.84,0,0,0,1.32-6.11,2,2,0,0,1,1-1.46,2,2,0,0,1,1.78-.07,84.09,84.09,0,0,1,11,6c7,4.52,12.53,8.09,15,15,1.36,3.87,1.17,7.11,1,10.55a41.83,41.83,0,0,1-1.65,9.46c-.18.62-.37,1.22-.56,1.79a51.51,51.51,0,0,0,6.87,3.2c3.79,1.43,7.07,2.67,11,2.67h.46a20.54,20.54,0,0,0,2.28-.21,22.33,22.33,0,0,0,8.93-3.47,2,2,0,0,1,1.08-.32,2,2,0,0,1,1.15.37,2,2,0,0,1,.78,2.09,91.14,91.14,0,0,1-4.48,13.55,85.43,85.43,0,0,1-14.64,23.46c-3.59,4-6.42,7.2-9.48,9.38a19.26,19.26,0,0,1-6.55,3.07,22.11,22.11,0,0,1-5.58.7c-.5,0-1,0-1.51,0a5.29,5.29,0,0,0,.38,4c1.2,1.8,4.33,2,6.21,2.13.49,0,1,0,1.46,0a24.7,24.7,0,0,0,4.46-.42A33.32,33.32,0,0,0,555.23,545a2,2,0,0,1,1.06-.3,2,2,0,0,1,1.81,2.79,75,75,0,0,1-6.25,11.35c-13.81,20.61-35.4,30.33-51.48,34.87A52.58,52.58,0,0,1,496,604.29c-6.62,12-18.24,21.38-33.63,27-2.32.85-4.71,1.62-7.14,2.28l1.65,2a23.72,23.72,0,0,0,4.9,4.7,23,23,0,0,0,7.32,3.39,28.74,28.74,0,0,0,4.26.8,2,2,0,0,1,1,3.56c-3.48,2.63-6.83,5-10.24,7.13a158.61,158.61,0,0,1-47.33,20.06c-3.6.88-7.28,1.66-11,2.32a2,2,0,0,0,.08.83c.5,1.56,3.39,2.86,7.92,3.55a61.84,61.84,0,0,0,6.64.59,2,2,0,0,1,1.21,3.5c-2.05,1.73-4.16,3.4-6.26,5C391.53,708.7,362,717.68,327.5,717.68h-.2c-3.73,3.25-7.62,6.44-11.6,9.51a258.58,258.58,0,0,0,72,26.35l2.15.44a2,2,0,0,1,1,3.35,62.9,62.9,0,0,1-8.2,7,63.77,63.77,0,0,1-6.42,4c-.82.45-1.62.86-2.41,1.25a2,2,0,0,1-.87.2,1.47,1.47,0,0,1-.36,0q-1.43-.25-2.85-.54c-2.86-.58-5.45-1.15-7.92-1.75a213.12,213.12,0,0,1-64.16-27.5,213.34,213.34,0,0,1-64.16,27.5c-2.48.6-5.07,1.17-7.92,1.75l-2.85.55A2.31,2.31,0,0,1,222.34,769.72Zm63.32-62.27c1.71,1.34,3.19,2.46,4.6,3.49,2.21,1.62,4.58,3.29,7.38,5.18,2.79-1.89,5.16-3.55,7.38-5.18,1.4-1,2.88-2.15,4.6-3.49v0c.23-6.52,1.33-16,5.34-24.62,6.71-14.35,18-22.56,26.3-26.92a2,2,0,0,1,.93-.23,2,2,0,0,1,.81.18,2,2,0,0,1,1.12,1.34,14.33,14.33,0,0,0,1.8,4.39,11.55,11.55,0,0,0,1.51,1.91c2.54,2.54,6.46,3.95,11,3.95a28.8,28.8,0,0,0,12.65-3.18l-.46-.91a61,61,0,0,1-3.29-8.16,59.34,59.34,0,0,1-2.19-9.37l-2.38.24c-7.91.79-14.75,1.47-23.61,4.63-14.67,5.23-28.13,15-40,29.16a2,2,0,0,1-3,0c-11.89-14.12-25.36-23.93-40-29.16-8.87-3.16-15.7-3.84-23.61-4.63l-2.38-.24a60.46,60.46,0,0,1-2.19,9.37,61.09,61.09,0,0,1-3.3,8.16c-.14.3-.3.6-.46.91a28.83,28.83,0,0,0,12.65,3.18c4.58,0,8.5-1.41,11-4a11.07,11.07,0,0,0,1.51-1.9,15,15,0,0,0,1.8-4.39,2,2,0,0,1,1.11-1.34,2,2,0,0,1,.82-.18,2,2,0,0,1,.92.23c8.3,4.36,19.6,12.57,26.3,26.92,4,8.59,5.12,18.1,5.34,24.57A.28.28,0,0,0,285.66,707.45Zm-49-473.23c22.08-1.34,43.14-8.22,59.81-19.61a2,2,0,0,1,1.12-.35,2,2,0,0,1,1.12.35,109.78,109.78,0,0,0,26.08,13,124.45,124.45,0,0,0,26.13,6c2.36.28,4.75.5,7.15.65l-60.69-54ZM376,234.13h0l1.12-.07a127.67,127.67,0,0,0,26.14-4.81,115.77,115.77,0,0,0,20.11-8.05l-1-.1-.79-.09-2-.28-.83-.14c-2.41-.4-4.8-.92-7.11-1.54l-.3-.08c-.75-.21-1.49-.43-2.23-.66l-.47-.15c-.83-.26-1.57-.51-2.32-.77l-.08,0A72.82,72.82,0,0,1,389.74,209l-.21-.14c-.77-.53-1.53-1.08-2.28-1.64l-.33-.25c-.73-.55-1.45-1.11-2.16-1.69l-.36-.3c-.71-.59-1.4-1.18-2.08-1.79l-.31-.28c-.71-.64-1.39-1.28-2.07-1.94l-.11-.11a72,72,0,0,1-11.68-15h0a74.32,74.32,0,0,1-3.41-6.64l-.12-.25c-.42-.94-.84-2-1.29-3.1,0,0-.16-.38-.2-.5-.47-1.22-.9-2.44-1.28-3.62l0-.09c-.37-1.14-.72-2.35-1.07-3.65l-.13-.55c-.3-1.15-.55-2.22-.77-3.26l0-.19a73.06,73.06,0,0,1-1.13-7.44v0a71.91,71.91,0,0,1,.66-18.93l0-.23c.14-.83.3-1.64.47-2.45l-9.06,7.93a12.23,12.23,0,0,1-13.32,1.81l-32.18,28.62ZM172.32,221.42l1.61.8.18.08c.58.28,1.16.57,1.75.84l2,.9,1.62.7,2.19.91,1.47.57c.8.31,1.61.61,2.42.9l1.26.44c.89.31,1.79.62,2.7.91l.94.29c1,.32,2.05.63,3.1.93l.37.1a128.36,128.36,0,0,0,25,4.31l70.65-60.87-32.17-28.62a12.25,12.25,0,0,1-13.33-1.81l-11.89-10.42c.2.8.39,1.59.55,2.38,0,.19.07.38.11.56l.06.34c.19,1,.37,1.91.52,2.86l.1.76c.15,1,.28,2,.38,3l.05.56c.1,1.12.18,2.21.23,3.25v.36c0,1.16.07,2.32.07,3.44V150c0,1.27-.06,2.48-.13,3.67a72.55,72.55,0,0,1-8.57,30.07l-.05.1c-.63,1.16-1.28,2.29-1.95,3.38-.53.85-1.07,1.7-1.63,2.53l-.1.14c-.55.81-1.11,1.61-1.69,2.4l-.1.13c-.62.83-1.22,1.61-1.83,2.37l-.07.08a72.18,72.18,0,0,1-10.63,10.63L207,206c-.57.45-1.15.88-1.73,1.32l-.26.19-.72.53c-.52.38-1.06.74-1.6,1.11s-.81.55-1.22.82l-1.53,1-1.41.84-1.48.85-1.59.84-.1.05-1.32.68c-.59.29-1.19.56-1.79.84l-.34.15-1,.45c-.7.3-1.4.58-2.11.86l-.39.16-.73.29c-1.17.44-2.26.82-3.33,1.17s-2.17.67-3.37,1h0l-.71.17-.39.1-2.09.51-1.42.29c-.6.12-1.21.24-1.81.34l-.13,0-1.31.22-1.7.23Z" transform="translate(-19.95 -70.18)"/><path class="cls-2" d="M395.16,74.16l20.28,6.91c.46-.11.92-.19,1.38-.28q.94-.2,1.89-.36c.51-.09,1-.16,1.54-.24L422,80q.82-.1,1.65-.18l1.59-.14,1.76-.11,1.42,0,1.9,0h0l1.14,0c.71,0,1.42,0,2.13.06.21,0,.42,0,.63,0a70,70,0,0,1,14.39,2.31l.14,0c.93.25,1.84.52,2.75.81l.2.07c.91.29,1.81.6,2.7.92l.15.06c2.11.78,4.18,1.65,6.2,2.63l.09,0a70.23,70.23,0,0,1,23.84,18.8l0,0c.74.9,1.45,1.83,2.15,2.77l.1.14c.65.9,1.29,1.82,1.91,2.75l.19.29c.58.88,1.13,1.79,1.67,2.7l.27.46c.5.86,1,1.73,1.44,2.62.11.22.23.43.34.64.43.84.83,1.7,1.22,2.56.13.27.26.53.38.8.38.85.73,1.73,1.08,2.6l.34.84c.44,1.15.86,2.33,1.25,3.52s.73,2.38,1.05,3.58c.08.29.14.59.21.89.23.91.45,1.82.65,2.73.06.29.1.58.16.88.18.92.36,1.85.5,2.78,0,.24.06.48.1.73.14,1,.27,2,.37,2.95,0,.18,0,.36.05.54.09,1.06.17,2.11.22,3.16,0,.12,0,.23,0,.35.05,1.12.07,2.24.07,3.35a.91.91,0,0,1,0,.17c0,1.18,0,2.34-.11,3.51v0c-.07,1.2-.17,2.39-.3,3.58h0a70.39,70.39,0,0,1-8,25.61l-.06.1q-1.6,3-3.48,5.75l-.1.14c-.53.79-1.08,1.56-1.64,2.33l-.13.17c-.57.77-1.15,1.52-1.75,2.26l-.1.12a69.65,69.65,0,0,1-10.3,10.3l-.5.4c-.55.44-1.12.86-1.68,1.28l-.95.71c-.51.37-1,.72-1.56,1.08l-1.18.79-1.49.94-1.37.82-1.44.82c-.51.28-1,.55-1.55.82l-1.38.7c-.57.28-1.16.55-1.74.82l-1.3.59c-.67.29-1.36.56-2,.84l-1.09.43q-1.61.6-3.24,1.14c-1.09.35-2.19.67-3.28,1h0l-1.08.27c-.67.17-1.35.34-2,.49l-1.37.28-1.77.34-1.4.23c-.64.1-1.28.18-1.93.27l-2,.22-1.15.1q10,11.82,21,22.89,12.66,12.74,26.55,24.39c5,4.24,10.18,8.39,15.45,12.4a144.49,144.49,0,0,0-15.45,17.83q-2.84,3.86-5.59,8.2a141.41,141.41,0,0,0-21,58.68,127.45,127.45,0,0,0-.66,19.36c.61,14.92,3.71,27.47,6.64,38.16.24.89.49,1.78.73,2.65,6.9,24.9,11.85,24.15,18.44,46.73.82,2.8,1.81,6.24,2.79,10.22a32,32,0,0,0,11.89,6,31.56,31.56,0,0,0,8.13,1.05c1.13,0,2.2-.06,3.21-.16a35.5,35.5,0,0,1-1.58-5.5,24.81,24.81,0,0,1,.37-12c1.25-4.24,3.12-5.93,5.24-10.83.43-1,.85-2.11,1.25-3.32.13-.39.25-.8.37-1.21a42.47,42.47,0,0,0,1.39-6.4,82.46,82.46,0,0,1,10.78,5.87c7.15,4.62,12,7.85,14.15,14,1.23,3.5,1.06,6.47.88,9.78a40.17,40.17,0,0,1-1.58,9c-.33,1.14-.7,2.23-1.08,3.25a54.29,54.29,0,0,0,8.59,4.16c3.87,1.46,7.42,2.8,11.72,2.8h.51a22.7,22.7,0,0,0,2.52-.22,24.63,24.63,0,0,0,9.72-3.77A88.32,88.32,0,0,1,567,506.61a83.11,83.11,0,0,1-14.29,22.91c-3.65,4.09-6.3,7.05-9.15,9.08a17.42,17.42,0,0,1-5.9,2.77,20.26,20.26,0,0,1-5.08.64,21.66,21.66,0,0,1-2.94-.2c-1.05,2.85-1.05,5.46.16,7.29,1.7,2.56,5.32,2.85,7.73,3,.53,0,1.07,0,1.6,0a26,26,0,0,0,4.8-.45,35.66,35.66,0,0,0,12.39-5,73.06,73.06,0,0,1-6.09,11c-13.69,20.43-35.08,29.91-51.44,34.37a50.58,50.58,0,0,1-4.49,11.22c-7.81,14.22-21.16,21.93-32.57,26.11a88.92,88.92,0,0,1-10,3l3.63,4.43a25.9,25.9,0,0,0,5.28,5.06,25.05,25.05,0,0,0,7.95,3.68,31.16,31.16,0,0,0,4.56.85c-3.16,2.4-6.51,4.76-10.1,7a156.48,156.48,0,0,1-46.75,19.81c-4.16,1-8.21,1.85-12.1,2.51A4.77,4.77,0,0,0,404,679c.86,2.67,4.59,4.15,9.51,4.9a59.29,59.29,0,0,0,6.87.61q-3,2.49-6.16,4.89c-29.76,22.06-63.6,26.3-86.73,26.3h-.95c-4.45,3.91-9.28,7.86-14.46,11.76a259.29,259.29,0,0,0,75.17,28c.72.16,1.44.3,2.17.45a61.16,61.16,0,0,1-7.95,6.74,62.64,62.64,0,0,1-6.22,3.86c-.79.43-1.57.83-2.33,1.2l-2.83-.54c-2.58-.52-5.19-1.09-7.84-1.73a210.92,210.92,0,0,1-64.62-27.93A211,211,0,0,1,233,765.46c-2.64.64-5.25,1.21-7.84,1.73l-2.83.54c-.76-.37-1.53-.77-2.32-1.2a60.08,60.08,0,0,1-14.17-10.6l2.17-.45a259.5,259.5,0,0,0,75.17-28c-5.18-3.9-10-7.85-14.47-11.76h-.94c-23.13,0-57-4.24-86.73-26.3q-3.23-2.4-6.16-4.89a59.7,59.7,0,0,0,6.87-.61c4.92-.75,8.65-2.23,9.51-4.9a4.83,4.83,0,0,0-.19-3.18c-3.89-.66-7.94-1.49-12.11-2.51a156.54,156.54,0,0,1-46.74-19.81c-3.59-2.28-6.94-4.64-10.11-7a31,31,0,0,0,4.57-.85,25,25,0,0,0,7.94-3.68,26,26,0,0,0,5.29-5.06l3.63-4.43a88.3,88.3,0,0,1-10-3c-11.42-4.18-24.76-11.89-32.57-26.11a50.1,50.1,0,0,1-4.49-11.22c-16.36-4.46-37.75-13.94-51.45-34.37a73,73,0,0,1-6.08-11,35.69,35.69,0,0,0,12.38,5,26.15,26.15,0,0,0,4.81.45c.53,0,1.06,0,1.6,0,2.41-.16,6-.45,7.73-3,1.21-1.83,1.21-4.44.15-7.29a21.4,21.4,0,0,1-2.93.2,20.21,20.21,0,0,1-5.08-.64,17.47,17.47,0,0,1-5.91-2.77c-2.84-2-5.49-5-9.14-9.08a83.06,83.06,0,0,1-14.3-22.91,89.48,89.48,0,0,1-4.38-13.25,24.62,24.62,0,0,0,9.73,3.77,22.52,22.52,0,0,0,2.51.22h.51c4.31,0,7.85-1.34,11.72-2.8A54.43,54.43,0,0,0,57,490.4c-.39-1-.75-2.11-1.09-3.25a40.19,40.19,0,0,1-1.57-9c-.19-3.31-.36-6.28.87-9.78,2.16-6.12,7-9.35,14.15-14a83.13,83.13,0,0,1,10.78-5.87,43.73,43.73,0,0,0,1.39,6.4c.12.41.24.82.37,1.21.4,1.21.83,2.32,1.26,3.32,2.12,4.9,4,6.59,5.24,10.83a24.93,24.93,0,0,1,.37,12,36.64,36.64,0,0,1-1.58,5.5c1,.1,2.08.16,3.21.16a31.77,31.77,0,0,0,20-7.07c1-4,2-7.42,2.79-10.22,6.6-22.58,11.54-21.83,18.45-46.73.24-.87.48-1.76.73-2.65,2.93-10.69,6-23.24,6.63-38.16a127.45,127.45,0,0,0-.66-19.36c0-.22-.05-.48-.08-.74l0-.26c0-.2,0-.41-.08-.63s0-.21,0-.31l-.09-.69c0-.12,0-.24-.05-.37s-.07-.49-.1-.75l-.06-.4c0-.28-.09-.56-.13-.86l-.06-.39c-.05-.33-.11-.67-.17-1,0-.12,0-.23,0-.35-.08-.46-.17-.94-.26-1.43h0c-.18-1-.4-2.14-.64-3.31,0-.07,0-.15-.05-.22-.1-.49-.21-1-.33-1.52,0-.13-.06-.26-.08-.39-.11-.47-.22-1-.34-1.44,0-.16-.07-.32-.11-.48-.12-.48-.23-1-.36-1.45,0-.17-.08-.34-.13-.52-.13-.5-.26-1-.4-1.53,0-.16-.08-.32-.13-.48-.16-.58-.32-1.17-.49-1.77l-.09-.31c-.41-1.44-.87-2.94-1.37-4.48h0c-.37-1.15-.77-2.32-1.19-3.51l-.08-.26c-.41-1.14-.84-2.3-1.29-3.47-.06-.17-.13-.34-.2-.52-.44-1.16-.92-2.33-1.41-3.52l-.21-.49c-.52-1.24-1.07-2.49-1.64-3.76l0-.06q-.85-1.87-1.8-3.78l-.24-.5c-.61-1.23-1.25-2.46-1.92-3.71-.12-.23-.24-.46-.37-.69-.67-1.25-1.37-2.5-2.1-3.76l-.34-.58c-.78-1.32-1.58-2.65-2.42-4a143.43,143.43,0,0,0-21-26,400.62,400.62,0,0,0,62.85-59.51c-1.54-.07-3.07-.2-4.59-.37l-1-.1-2-.28-.84-.13c-2.33-.39-4.62-.89-6.89-1.5l-.29-.08c-.73-.2-1.45-.41-2.17-.64l-.53-.16-2.18-.73h0a70.34,70.34,0,0,1-16.1-8.18l-.2-.13c-.75-.52-1.49-1-2.22-1.6l-.33-.24c-.7-.54-1.4-1.09-2.09-1.65l-.35-.29c-.69-.57-1.36-1.15-2-1.74l-.3-.28c-.68-.61-1.35-1.24-2-1.88l-.16-.16a69.71,69.71,0,0,1-11.3-14.57h0a69.16,69.16,0,0,1-3.33-6.47l-.1-.21c-.44-1-.86-2-1.26-3-.07-.16-.14-.32-.2-.48-.45-1.17-.87-2.35-1.25-3.55h0c-.39-1.2-.74-2.4-1.06-3.6l-.12-.52c-.28-1.07-.53-2.13-.75-3.19a1.85,1.85,0,0,1,0-.23,69.54,69.54,0,0,1-.44-25.62l0-.22c.16-.91.34-1.81.53-2.7,0-.14,0-.27.08-.41.19-.87.4-1.73.63-2.59,0-.15.07-.3.11-.44.23-.86.48-1.72.74-2.56l.12-.4c.27-.87.56-1.73.87-2.59a2,2,0,0,1,.08-.22,70.27,70.27,0,0,1,8.26-16h0c.43-.63.88-1.25,1.34-1.87l.33-.45c.45-.6.91-1.2,1.38-1.78l.2-.24a68.54,68.54,0,0,1,4.71-5.24l.59-.6c.48-.46,1-.92,1.44-1.37l.71-.65q2.33-2.1,4.85-4c.35-.27.71-.54,1.07-.79s.9-.64,1.35-1l1.23-.82,1.32-.85c.57-.35,1.15-.69,1.73-1s1.15-.67,1.74-1l1.71-.91,1.28-.63,1.62-.76,1.29-.57c.63-.27,1.28-.53,1.92-.79,1.4-.55,2.82-1.08,4.27-1.55h0c1.08-.35,2.17-.66,3.26-1l1.14-.28c.72-.18,1.43-.36,2.15-.52l1.4-.28c.62-.13,1.25-.25,1.88-.36s1-.16,1.54-.24L153.8,80q.82-.1,1.65-.18l1.58-.14,1.76-.11,1.42,0,1.91,0h0l1.15,0c.71,0,1.41,0,2.12.06.21,0,.42,0,.63,0a70.34,70.34,0,0,1,12.48,1.82l21.17-7.21,59.14,51.77a10.19,10.19,0,0,1,2.5,12l36.1,31.09L333.52,138a10.22,10.22,0,0,1,2.5-12l59.14-51.77m-175.57,162,73-62.89-34.93-31.06a10.3,10.3,0,0,1-5.56,1.64,10.15,10.15,0,0,1-6.72-2.53L228.3,126.36c.19.54.39,1.06.57,1.61.38,1.19.73,2.38,1,3.58.08.29.14.59.21.89.23.91.46,1.82.65,2.73.06.29.11.58.16.88.19.92.36,1.85.5,2.78,0,.24.07.48.1.73.14,1,.27,2,.37,2.95,0,.18,0,.36.05.55.1,1.05.17,2.1.22,3.15,0,.12,0,.23,0,.35,0,1.12.07,2.24.06,3.35v.18c0,1.17,0,2.33-.12,3.5v0a70.17,70.17,0,0,1-8.33,29.19l-.05.1c-.61,1.11-1.24,2.21-1.9,3.29h0c-.52.83-1,1.65-1.59,2.46l-.09.14c-.54.79-1.09,1.56-1.65,2.33l-.13.17c-.57.77-1.15,1.52-1.75,2.26l-.1.12A69.11,69.11,0,0,1,206.25,204l-.5.41c-.55.44-1.11.86-1.68,1.28l-.95.71c-.51.37-1,.72-1.55,1.08l-1.19.79c-.49.32-1,.63-1.49.94s-.91.55-1.37.82l-1.44.82-1.54.82-1.39.7c-.57.28-1.15.55-1.74.82l-1.29.59c-.68.29-1.36.56-2.05.84L187,215c-1.07.4-2.14.78-3.24,1.14s-2.18.67-3.28,1h0l-1.07.27c-.68.17-1.36.34-2,.49l-1.37.28-1.77.34-1.4.23-1.92.27-2,.22-2,.17c-.53,0-1.05.06-1.57.08l-.53,0,.91.53c.73.43,1.45.86,2.19,1.27l1.59.85c.64.34,1.28.69,1.93,1s1.21.6,1.82.9l1.78.85,2,.92c.55.24,1.09.48,1.65.71l2.23.92,1.49.58c.81.32,1.63.63,2.46.92l1.27.45c.92.32,1.83.63,2.76.92l.95.3c1,.32,2.09.64,3.15.94l.38.1a129.53,129.53,0,0,0,26.21,4.44m143.77-107L349.48,141.3a10.12,10.12,0,0,1-6.71,2.53,10.25,10.25,0,0,1-5.56-1.64l-34.93,31.06,73,62.91c.66,0,1.33-.07,2-.12a128.72,128.72,0,0,0,26.55-4.89,115.63,115.63,0,0,0,26.55-11.57h0l-1.32,0q-3.17-.06-6.27-.41l-1-.1-2-.28-.83-.13q-3.5-.58-6.89-1.5l-.29-.08c-.73-.2-1.45-.41-2.17-.64l-.53-.16-2.18-.73h0a70.47,70.47,0,0,1-16.09-8.18l-.2-.13c-.75-.52-1.49-1-2.22-1.6l-.33-.24c-.71-.54-1.4-1.09-2.09-1.65l-.36-.29c-.68-.57-1.36-1.15-2-1.74l-.3-.28c-.68-.61-1.35-1.24-2-1.88l-.16-.16a69.37,69.37,0,0,1-11.3-14.57h0a68.91,68.91,0,0,1-3.32-6.46l-.1-.22c-.45-1-.86-2-1.27-3l-.19-.48c-.45-1.17-.87-2.35-1.26-3.55h0c-.39-1.2-.74-2.4-1.06-3.6-.05-.18-.08-.35-.13-.53-.27-1.06-.52-2.12-.74-3.18,0-.08,0-.16-.05-.24a68.4,68.4,0,0,1-1.08-7.18h0a69.84,69.84,0,0,1,.64-18.41,2.23,2.23,0,0,0,0-.23c.16-.91.33-1.81.53-2.71,0-.13.05-.26.08-.39.19-.88.4-1.74.62-2.6l.12-.44c.21-.79.43-1.57.67-2.35M231.24,236.43c25.42-.48,48.58-8,66.4-20.18a112.23,112.23,0,0,0,26.55,13.23,127.51,127.51,0,0,0,26.55,6.05q6.31.75,12.88.9l-66.19-58.87-66.19,58.87m66.4,442.11c-14.4-17.09-28.79-25.44-40.87-29.75-10.7-3.82-18.55-4.12-28.37-5.18A58.27,58.27,0,0,1,226,654.55a59.06,59.06,0,0,1-3.19,7.89c-.45.93-.91,1.79-1.37,2.61a31.65,31.65,0,0,0,15.34,4.34c5.06,0,9.49-1.56,12.45-4.53a13.41,13.41,0,0,0,1.77-2.24,16.65,16.65,0,0,0,2.06-5c7.65,4,18.84,11.9,25.42,26,3.76,8,4.93,17.22,5.16,23.79l0,1c1.76,1.38,3.54,2.75,5.38,4.1,2.83,2.08,5.69,4.05,8.56,6,2.87-1.92,5.72-3.89,8.56-6q2.74-2,5.38-4.1,0-.5,0-1c.22-6.57,1.4-15.74,5.15-23.79,6.59-14.1,17.77-22,25.43-26a16.66,16.66,0,0,0,2.05,5,13.36,13.36,0,0,0,1.78,2.24c3,3,7.39,4.53,12.45,4.53a31.65,31.65,0,0,0,15.34-4.34c-.46-.82-.92-1.68-1.37-2.61a57.73,57.73,0,0,1-5.56-18.83c-9.82,1.06-17.68,1.36-28.37,5.18-12.09,4.31-26.48,12.66-40.87,29.75M395.16,70.18a3.92,3.92,0,0,0-2.61,1l-59.14,51.77a14.25,14.25,0,0,0-4.5,13.77l-31.48,27.12-31.49-27.12a14.24,14.24,0,0,0-4.49-13.77L202.31,71.17a3.94,3.94,0,0,0-2.62-1,3.79,3.79,0,0,0-1.28.22l-20.09,6.84a74.16,74.16,0,0,0-12.06-1.65l-.22,0-.45,0c-.78,0-1.56,0-2.24-.06h-1.21c-.7,0-1.37,0-2,0l-1.5,0q-.93,0-1.86.12l-1.68.14-1.75.19-1.82.25h-.08l-1.55.25c-.66.11-1.32.24-2,.37l-.37.07-1.11.23c-.74.16-1.46.34-2.26.54l-.4.1c-.27.07-.54.13-.81.21-1.18.31-2.32.65-3.41,1l-.08,0c-1.37.44-2.8,1-4.49,1.63-.68.27-1.36.54-2,.83-.46.19-.91.4-1.36.6s-1.15.53-1.72.81l-.05,0c-.43.21-.87.42-1.29.64-.62.31-1.22.64-1.82,1s-1.23.68-1.84,1-1.22.71-1.82,1.09l-1.23.79-.16.11c-.44.28-.88.57-1.3.87s-1,.66-1.44,1l-1,.77-.09.07c-1.76,1.32-3.48,2.74-5.12,4.22l-.17.16-.59.53c-.51.47-1,1-1.51,1.45l-.55.54-.08.09a74.33,74.33,0,0,0-5,5.54l-.06.07-.14.18c-.46.57-.94,1.18-1.47,1.88l-.35.48c-.54.74-1,1.36-1.4,2l0,0a74.48,74.48,0,0,0-8.72,17l0,.06-.06.17c-.31.86-.61,1.76-.92,2.74l0,.14-.09.28c-.27.86-.53,1.77-.78,2.7l-.12.47c-.24.92-.46,1.85-.66,2.74l-.06.29,0,.14c-.21,1-.4,1.94-.55,2.85l0,.18v.07a73.34,73.34,0,0,0,.46,27.07c0,.08,0,.16,0,.23.22,1.07.48,2.17.79,3.38l0,.14c0,.14.07.27.1.4q.52,2,1.11,3.78l0,.1c.39,1.22.83,2.45,1.31,3.7l.15.37.06.14c.45,1.15.89,2.2,1.33,3.2,0,.08.07.14.1.21a75,75,0,0,0,3.52,6.85l0,0a73.69,73.69,0,0,0,11.93,15.37l0,0,.12.12c.66.65,1.35,1.3,2.12,2l.11.09.21.2c.69.61,1.41,1.23,2.14,1.84l.38.31c.74.6,1.48,1.19,2.21,1.74l.23.17.11.08c.83.62,1.6,1.17,2.35,1.69l.15.1.06,0a74.1,74.1,0,0,0,17,8.64h0c.69.25,1.42.49,2.3.77l.56.18c.84.26,1.59.48,2.29.67l.22.06.09,0c2.38.64,4.83,1.17,7.28,1.58h.1l.78.13h.1a397.91,397.91,0,0,1-57.24,53.16,4,4,0,0,0-.37,6A139.61,139.61,0,0,1,114,307.17c.74,1.17,1.51,2.43,2.35,3.87l.14.24.19.33c.68,1.17,1.37,2.39,2,3.65l.36.67c.66,1.25,1.29,2.47,1.86,3.61l.13.26.11.23c.65,1.32,1.22,2.52,1.74,3.67l0,.08c.5,1.11,1,2.3,1.59,3.63l.09.22.11.26c.47,1.12.93,2.27,1.38,3.43l.19.5c.46,1.19.88,2.32,1.25,3.38l0,.1,0,.14c.42,1.19.81,2.34,1.16,3.42v0c.46,1.43.91,2.89,1.32,4.34l0,.15,0,.15c.16.58.32,1.16.48,1.72l.08.32,0,.15c.14.5.27,1,.39,1.49l.13.5c.12.47.23.94.34,1.4l0,.12.09.35c.11.48.22.94.32,1.4l0,.16.05.22c.12.51.22,1,.32,1.48l0,.12,0,.09c.22,1.08.43,2.15.62,3.21.09.48.17.94.25,1.39l0,.18,0,.15c.06.33.11.66.16,1l.05.29v.09c.05.28.09.56.13.83l.05.39.1.72.05.36.09.66,0,.12,0,.18.07.61,0,.13v.12l.08.72a123.44,123.44,0,0,1,.64,18.76c-.6,14.69-3.67,26.94-6.5,37.27q-.36,1.33-.72,2.64A110.54,110.54,0,0,1,118.4,447a112.2,112.2,0,0,0-9,22.47c-.79,2.72-1.64,5.67-2.49,9A27.72,27.72,0,0,1,97.51,483a28.41,28.41,0,0,1-5,.84c.06-.28.12-.56.17-.84a27.12,27.12,0,0,0-3.47-20.52,43.3,43.3,0,0,1-2.38-4.63c-.4-.93-.78-1.94-1.14-3-.1-.31-.2-.65-.3-1l0-.11A40.17,40.17,0,0,1,84.07,448a4,4,0,0,0-3.94-3.42,4,4,0,0,0-1.64.36,87.42,87.42,0,0,0-11.3,6.15c-7,4.54-13.09,8.46-15.74,16-1.49,4.25-1.29,7.85-1.09,11.33a43.78,43.78,0,0,0,1.73,9.89c0,.09,0,.18.08.27A49.63,49.63,0,0,1,47,490.84c-3.62,1.37-6.74,2.55-10.32,2.55h-.41a14.6,14.6,0,0,1-2-.19A20.49,20.49,0,0,1,26.08,490a4,4,0,0,0-2.16-.63,4,4,0,0,0-3.85,4.92,92.33,92.33,0,0,0,4.57,13.84,87.65,87.65,0,0,0,15,24c3.67,4.12,6.57,7.37,9.81,9.67a21,21,0,0,0,7.21,3.38,24,24,0,0,0,5.8.77,1.92,1.92,0,0,1-.25.92c-.65,1-3.48,1.17-4.68,1.24-.44,0-.89.05-1.34.05a23.43,23.43,0,0,1-4.1-.38,31.6,31.6,0,0,1-11-4.48,3.94,3.94,0,0,0-2.11-.61,4,4,0,0,0-3.63,5.59A78.58,78.58,0,0,0,41.77,560C55.63,580.62,77,590.57,93.32,595.34a53.28,53.28,0,0,0,4.21,9.9c6.85,12.47,18.84,22.13,34.68,27.94,1.44.52,2.9,1,4.38,1.47a20.27,20.27,0,0,1-10.94,7.12,26.36,26.36,0,0,1-4,.75,4,4,0,0,0-2,7.11c3.52,2.66,6.91,5,10.37,7.23A160.78,160.78,0,0,0,178,677.17c2.53.62,5.09,1.19,7.66,1.7a21.64,21.64,0,0,1-4.53,1.11,57.58,57.58,0,0,1-6.41.56,4,4,0,0,0-2.42,7c2.08,1.76,4.22,3.45,6.36,5a133.94,133.94,0,0,0,47.24,22.08,170.24,170.24,0,0,0,41.31,5c2.84,2.45,5.76,4.87,8.74,7.22A257.5,257.5,0,0,1,207.2,751.6l-2.14.44a4,4,0,0,0-2,6.7,65.33,65.33,0,0,0,8.47,7.17,64.42,64.42,0,0,0,6.62,4.11c.85.46,1.68.89,2.48,1.28a3.9,3.9,0,0,0,1.74.41,4.4,4.4,0,0,0,.73-.07c1-.18,1.92-.36,2.88-.56,2.87-.57,5.48-1.15,8-1.76a214.88,214.88,0,0,0,63.69-27.08,214.77,214.77,0,0,0,63.69,27.08c2.51.61,5.13,1.19,8,1.76,1,.2,1.93.38,2.89.56a4.39,4.39,0,0,0,.72.07,4,4,0,0,0,1.75-.41c.79-.39,1.63-.82,2.48-1.28a64.09,64.09,0,0,0,15.08-11.28,4,4,0,0,0-2-6.7l-2.14-.44a257.55,257.55,0,0,1-68.76-24.71c3-2.35,5.9-4.77,8.73-7.22a170.18,170.18,0,0,0,41.31-5,133.86,133.86,0,0,0,47.24-22.08c2.14-1.59,4.28-3.28,6.36-5a4,4,0,0,0-2.41-7,58,58,0,0,1-6.42-.56,22,22,0,0,1-4.53-1.11c2.58-.51,5.14-1.08,7.66-1.7a160.72,160.72,0,0,0,47.93-20.31c3.46-2.2,6.85-4.57,10.37-7.23a4,4,0,0,0-1.95-7.11,26.13,26.13,0,0,1-4-.75,21.19,21.19,0,0,1-6.7-3.09,20.83,20.83,0,0,1-4.24-4c1.48-.45,2.94-.95,4.38-1.47,15.84-5.81,27.83-15.47,34.68-27.94a54.66,54.66,0,0,0,4.21-9.9c16.28-4.77,37.69-14.72,51.54-35.38a77.73,77.73,0,0,0,6.42-11.65,4,4,0,0,0-5.74-5,31.65,31.65,0,0,1-11,4.48,23.32,23.32,0,0,1-4.09.38c-.45,0-.9,0-1.34-.05-1.21-.07-4-.26-4.68-1.24a1.91,1.91,0,0,1-.26-.92,23.84,23.84,0,0,0,5.8-.77,21,21,0,0,0,7.22-3.38c3.24-2.3,6.13-5.55,9.8-9.67a87.41,87.41,0,0,0,15-24,91.24,91.24,0,0,0,4.58-13.84,4,4,0,0,0-6-4.29,20.49,20.49,0,0,1-8.14,3.17,14.87,14.87,0,0,1-2,.19h-.41c-3.58,0-6.7-1.18-10.31-2.55a48.71,48.71,0,0,1-5.18-2.31c0-.09,0-.18.07-.27a43.23,43.23,0,0,0,1.73-9.89c.2-3.48.41-7.08-1.09-11.33-2.65-7.53-8.71-11.45-15.74-16a87.42,87.42,0,0,0-11.3-6.15,4,4,0,0,0-5.57,3.06,41.54,41.54,0,0,1-1.26,5.83l0,.11c-.1.33-.19.66-.3,1-.35,1.06-.73,2.07-1.13,3a41.42,41.42,0,0,1-2.39,4.63A27.12,27.12,0,0,0,502.62,483l.18.84a28.25,28.25,0,0,1-5-.84,27.72,27.72,0,0,1-9.38-4.49c-.86-3.36-1.7-6.31-2.49-9a112.81,112.81,0,0,0-9-22.47,109.52,109.52,0,0,1-9.41-24.2c-.24-.87-.49-1.75-.73-2.64-2.83-10.33-5.9-22.58-6.5-37.27a123.44,123.44,0,0,1,.64-18.76,137,137,0,0,1,20.37-57c1.7-2.69,3.48-5.3,5.44-8a140.36,140.36,0,0,1,15-17.34,4,4,0,0,0-.37-6c-4.94-3.76-9.95-7.78-15.3-12.28-9.25-7.78-18.1-15.9-26.29-24.15-5.44-5.48-10.81-11.21-16-17.12l1.19-.23,1.46-.31c.71-.15,1.43-.33,2.14-.51l.38-.09.75-.2c1.24-.33,2.37-.66,3.47-1s2.23-.75,3.42-1.2l.78-.31.37-.15c.76-.3,1.45-.58,2.16-.89l1-.46.34-.16c.62-.28,1.24-.56,1.84-.86s.94-.48,1.41-.72l.05,0c.55-.28,1.1-.57,1.63-.86l1.53-.87c.48-.28,1-.57,1.45-.87s1.05-.65,1.57-1,.84-.55,1.25-.84,1.11-.75,1.65-1.14l.75-.55.25-.19c.55-.41,1.18-.87,1.78-1.36l.35-.28.18-.15a73.69,73.69,0,0,0,10.89-10.88l.11-.13c.6-.75,1.21-1.53,1.84-2.38l0-.06.09-.12c.6-.8,1.18-1.63,1.74-2.46l.07-.1,0-.05c1.32-2,2.56-4,3.69-6.07l.05-.11A73.74,73.74,0,0,0,504,157.65c.14-1.26.25-2.53.32-3.78v-.07c.07-1.21.11-2.46.12-3.68v-.18c0-1.17,0-2.36-.07-3.55V146c-.05-1.08-.13-2.17-.24-3.34v-.19c0-.13,0-.26,0-.38-.09-1-.22-2-.39-3.13l0-.26c0-.17-.05-.34-.07-.51-.14-.86-.3-1.77-.53-2.94L503,135c0-.21-.07-.41-.12-.61-.21-1-.45-2-.68-2.89,0-.11-.05-.21-.07-.31l-.15-.63c-.35-1.3-.72-2.57-1.11-3.78s-.84-2.47-1.32-3.72c-.07-.2-.15-.39-.23-.59s-.09-.19-.13-.29c-.32-.83-.72-1.8-1.14-2.75-.08-.2-.17-.38-.26-.57l-.14-.28c-.5-1.09-.9-1.93-1.29-2.7l-.24-.46-.12-.22c-.54-1-1-1.93-1.52-2.77l-.19-.33-.1-.16c-.59-1-1.18-2-1.76-2.85l-.14-.21-.07-.1c-.65-1-1.33-2-2-2.91l-.08-.1,0,0c-.73-1-1.49-2-2.27-2.93l0-.06a74.71,74.71,0,0,0-25.18-19.85l-.09,0c-2.13-1-4.34-2-6.55-2.78l-.05,0-.11,0c-.95-.34-1.91-.67-2.86-1l-.14,0-.07,0c-1-.31-2-.6-2.9-.85l-.12,0a73.39,73.39,0,0,0-15.24-2.46l-.22,0-.45,0c-.79,0-1.56,0-2.25-.06h-1.2c-.7,0-1.37,0-2,0l-1.5,0-1.87.12-1.67.14-1.75.19-1.82.25h-.08l-1.55.25c-.66.11-1.33.24-2,.37l-.35.07L396.44,70.4a3.75,3.75,0,0,0-1.28-.22ZM177.83,221.86l.39-.09c.71-.15,1.43-.33,2.15-.51l.37-.09.76-.2c1.23-.33,2.36-.66,3.46-1s2.23-.75,3.42-1.2l.78-.31.37-.15c.73-.29,1.45-.58,2.17-.89l1-.46.34-.16c.62-.28,1.24-.56,1.84-.86l1.38-.7.09-.05c.54-.28,1.09-.57,1.63-.87l1.52-.86c.49-.28,1-.57,1.45-.87s1.05-.65,1.57-1,.84-.56,1.26-.85,1.1-.75,1.64-1.14c.26-.18.51-.37.76-.56l.25-.18c.57-.43,1.17-.88,1.77-1.36.13-.09.24-.19.36-.29l.17-.14a73.62,73.62,0,0,0,10.89-10.87l.11-.14c.61-.75,1.21-1.53,1.84-2.38l0-.06.09-.12c.59-.8,1.17-1.63,1.74-2.46l.06-.1,0-.05c.58-.87,1.15-1.75,1.67-2.6.69-1.12,1.37-2.29,2-3.48l.05-.1a74.37,74.37,0,0,0,8.8-30.84v-.05c.07-1.23.11-2.47.12-3.7v-.18c0-1.17,0-2.36-.06-3.55V146c-.05-1.08-.13-2.17-.24-3.34v-.19l0-.38c-.1-1-.23-2-.4-3.13l0-.26c0-.17,0-.34-.07-.51s-.05-.3-.07-.46l7.46,6.53a14.15,14.15,0,0,0,9.33,3.51,14.3,14.3,0,0,0,4.91-.87l29.55,26.27-68.31,58.85a125.51,125.51,0,0,1-23.79-4.17l-.23-.06-.14,0c-1.11-.32-2.22-.66-3.05-.92l-.37-.11-.55-.17c-.77-.25-1.59-.52-2.66-.89l-.18-.07-1.06-.37c-.8-.28-1.59-.58-2.38-.89l-1.44-.56c-.72-.29-1.44-.58-2.15-.89q-.8-.33-1.59-.69l-.82-.36ZM342.77,147.8a14.17,14.17,0,0,0,9.33-3.51L357,140a74,74,0,0,0-.26,16.63v0a73.26,73.26,0,0,0,1.14,7.58c0,.1,0,.17,0,.25.22,1.06.48,2.16.79,3.37l0,.14c0,.13.06.27.1.4.35,1.31.72,2.59,1.11,3.79l0,.07h0c.4,1.22.84,2.46,1.32,3.71l.15.37.06.14c.45,1.15.88,2.2,1.33,3.2a2,2,0,0,0,.1.21,72.15,72.15,0,0,0,3.51,6.83l0,0a73.36,73.36,0,0,0,11.93,15.37l0,0,.13.12c.66.65,1.35,1.3,2.12,2l.11.09.21.2c.68.61,1.4,1.23,2.14,1.84l.38.31c.74.6,1.48,1.19,2.21,1.74l.23.17.11.08c.83.62,1.6,1.17,2.35,1.69l.15.1.05,0a74.5,74.5,0,0,0,17,8.64h0c.69.25,1.42.49,2.3.77l.56.18c.84.26,1.59.48,2.29.67l.22.06.09,0c1.81.49,3.67.91,5.53,1.27a115.15,115.15,0,0,1-13.92,5.1A124.91,124.91,0,0,1,377,232.08l-.29,0-68.37-58.9,29.54-26.27a14.4,14.4,0,0,0,4.92.87ZM242.49,231.75l54.94-48.87,54.9,48.83-1.13-.13a123.11,123.11,0,0,1-25.71-5.86A107.89,107.89,0,0,1,299.88,213a3.93,3.93,0,0,0-2.24-.7,3.88,3.88,0,0,0-2.24.7c-14.89,10.17-33.36,16.68-52.91,18.78ZM226.85,663.28A61.58,61.58,0,0,0,231.76,648l.53.06c7.78.77,14.51,1.44,23.14,4.52,14.33,5.11,27.51,14.72,39.17,28.57a4,4,0,0,0,6.08,0c11.66-13.85,24.84-23.46,39.16-28.57,8.64-3.08,15.36-3.75,23.14-4.52l.53-.06a62.16,62.16,0,0,0,4.92,15.33,25.91,25.91,0,0,1-10,2.14c-4.05,0-7.47-1.2-9.64-3.37a9.89,9.89,0,0,1-1.24-1.56,12.89,12.89,0,0,1-1.54-3.81,4,4,0,0,0-2.23-2.67,3.89,3.89,0,0,0-1.63-.35,4,4,0,0,0-1.85.45c-8.57,4.5-20.24,13-27.18,27.84-4,8.53-5.19,17.88-5.49,24.5-1.39,1.07-2.63,2-3.83,2.89-1.9,1.39-3.91,2.81-6.2,4.38-2.3-1.57-4.31-3-6.21-4.38-1.19-.88-2.44-1.82-3.83-2.89-.29-6.62-1.51-16-5.49-24.5-6.94-14.85-18.61-23.34-27.17-27.84a4,4,0,0,0-1.85-.45,3.86,3.86,0,0,0-1.63.35,4,4,0,0,0-2.23,2.67,12.58,12.58,0,0,1-1.55,3.81,8.86,8.86,0,0,1-1.24,1.56c-2.16,2.17-5.59,3.37-9.63,3.37a25.83,25.83,0,0,1-10-2.14Z" transform="translate(-19.95 -70.18)"/><path class="cls-3" d="M335.07,140.34h0a10.22,10.22,0,0,1,.95-14.42l59.14-51.76,22.34,7.61-68,59.53A10.2,10.2,0,0,1,335.07,140.34Z" transform="translate(-19.95 -70.18)"/><polygon class="cls-3" points="383.57 13.02 382.19 11.44 380.81 9.87 179.45 183.34 182.22 186.49 184.98 189.65 383.57 13.02"/><path class="cls-3" d="M259.79,140.34h0a10.21,10.21,0,0,0-1-14.42L199.69,74.16l-22.33,7.61,68,59.53A10.21,10.21,0,0,0,259.79,140.34Z" transform="translate(-19.95 -70.18)"/><polygon class="cls-3" points="171.38 13.02 172.77 11.44 174.15 9.87 375.5 183.34 372.74 186.49 369.98 189.65 171.38 13.02"/><path class="cls-4" d="M430.4,94.84,405.62,84a69.66,69.66,0,0,0-32.86,25.7l3.48,25.38,28.11,6.33L429.82,123Z" transform="translate(-19.95 -70.18)"/><path class="cls-4" d="M429.82,123l25.41,18.52,24.88-8,2.23-30.92a70.22,70.22,0,0,0-25.06-17.68l-26.88,10Z" transform="translate(-19.95 -70.18)"/><path class="cls-4" d="M360.66,156.3a70.07,70.07,0,0,0,9.2,28.49l25.07,8.11L414,171.31l-4.84-15-4.83-15-28.11-6.33Z" transform="translate(-19.95 -70.18)"/><path class="cls-4" d="M462.38,193.82l-13.74,23.32A69.81,69.81,0,0,1,407,215.52l-12-22.62L414,171.31l31.44.06Z" transform="translate(-19.95 -70.18)"/><path class="cls-4" d="M445.46,171.37l9.77-29.89,24.88-8L500,157.21a70.16,70.16,0,0,1-10,29l-27.65,7.61Z" transform="translate(-19.95 -70.18)"/><path class="cls-2" d="M360.66,156.3l15.58-21.24-3.48-25.38A70,70,0,0,0,360.66,156.3Z" transform="translate(-19.95 -70.18)"/><path class="cls-2" d="M430.4,94.84l26.88-10a69.73,69.73,0,0,0-48.43-2c-1.1.36-2.17.74-3.23,1.14Z" transform="translate(-19.95 -70.18)"/><polygon class="cls-2" points="384.4 71.21 389.24 86.17 394.07 101.13 425.51 101.18 435.27 71.3 409.87 52.77 384.4 71.21"/><path class="cls-2" d="M369.86,184.79l25.07,8.11,12,22.62A70.13,70.13,0,0,1,369.86,184.79Z" transform="translate(-19.95 -70.18)"/><path class="cls-2" d="M462.38,193.82,490,186.21a69.75,69.75,0,0,1-38.11,30c-1.09.35-2.19.67-3.28,1Z" transform="translate(-19.95 -70.18)"/><path class="cls-2" d="M480.11,133.44,500,157.21a70,70,0,0,0-17.67-54.69Z" transform="translate(-19.95 -70.18)"/><path class="cls-2" d="M430.4,79.43a70.11,70.11,0,1,1-21.55,3.41,70.1,70.1,0,0,1,21.55-3.41m0-2.22h0a72.31,72.31,0,1,0,42.11,13.56A72.11,72.11,0,0,0,430.4,77.21Z" transform="translate(-19.95 -70.18)"/><path class="cls-4" d="M162.23,94.84,137.44,84a69.63,69.63,0,0,0-32.85,25.7l3.48,25.38,28.1,6.33L161.64,123Z" transform="translate(-19.95 -70.18)"/><path class="cls-4" d="M161.64,123l25.41,18.52,24.88-8,2.23-30.92a70.27,70.27,0,0,0-25-17.68l-26.88,10Z" transform="translate(-19.95 -70.18)"/><path class="cls-4" d="M92.48,156.3A70.71,70.71,0,0,0,95.54,171a70,70,0,0,0,6.15,13.75l25.06,8.11,19.09-21.59-4.83-15-4.84-15-28.1-6.33Z" transform="translate(-19.95 -70.18)"/><path class="cls-4" d="M194.21,193.82l-13.75,23.32a69.81,69.81,0,0,1-41.68-1.62l-12-22.62,19.09-21.59,31.44.06Z" transform="translate(-19.95 -70.18)"/><path class="cls-4" d="M177.28,171.37l9.77-29.89,24.88-8,19.9,23.77a70.29,70.29,0,0,1-10,29l-27.65,7.61Z" transform="translate(-19.95 -70.18)"/><path class="cls-2" d="M92.48,156.3l15.59-21.24-3.48-25.38A70,70,0,0,0,92.48,156.3Z" transform="translate(-19.95 -70.18)"/><path class="cls-2" d="M162.23,94.84l26.88-10a69.76,69.76,0,0,0-48.44-2c-1.09.36-2.17.74-3.23,1.14Z" transform="translate(-19.95 -70.18)"/><polygon class="cls-2" points="116.22 71.21 121.06 86.17 125.89 101.13 157.33 101.18 167.1 71.3 141.69 52.77 116.22 71.21"/><path class="cls-2" d="M101.69,184.79l25.06,8.11,12,22.62A70.07,70.07,0,0,1,101.69,184.79Z" transform="translate(-19.95 -70.18)"/><path class="cls-2" d="M194.21,193.82l27.65-7.61a69.74,69.74,0,0,1-38.12,30c-1.09.35-2.18.67-3.28,1Z" transform="translate(-19.95 -70.18)"/><path class="cls-2" d="M211.93,133.44l19.9,23.77a70,70,0,0,0-17.67-54.69Z" transform="translate(-19.95 -70.18)"/><path class="cls-2" d="M162.22,79.43a70.11,70.11,0,1,1-21.55,3.41,70.08,70.08,0,0,1,21.55-3.41m0-2.22h0a72.29,72.29,0,1,0,42.12,13.56,72.11,72.11,0,0,0-42.12-13.56Z" transform="translate(-19.95 -70.18)"/><path class="cls-5" d="M222.63,765.66c-.55-.28-1.1-.57-1.66-.88a58.35,58.35,0,0,1-6-3.73,60.18,60.18,0,0,1-5-3.95c36.62-7.91,69.38-22.36,97.39-43,1.63-1.2,3.36-2.51,5.43-4.13l.75-.58,0-.94c0-.32,0-.65,0-1,.21-6.11,1.25-15.06,5-23A54.32,54.32,0,0,1,341,660.55a16.72,16.72,0,0,0,1.56,3.14,15.27,15.27,0,0,0,2,2.57c3.3,3.3,8.21,5.12,13.85,5.12a33.52,33.52,0,0,0,16.32-4.6l1.72-1-1-1.72c-.49-.9-.93-1.72-1.32-2.53a56.18,56.18,0,0,1-5.71-22.14l-.11-2.3-2.81.55,111.49-162a35.46,35.46,0,0,0,19.17,13.14,33.85,33.85,0,0,0,8.64,1.12c1.12,0,2.27-.06,3.4-.17l2.57-.25-.9-2.42a33.39,33.39,0,0,1-1.49-5.2,21.21,21.21,0,0,1,2.79-16.39,47.53,47.53,0,0,0,2.69-5.24c.47-1.09.91-2.27,1.32-3.49.11-.33.22-.69.32-1.05l.07-.2c.39-1.32.73-2.68,1-4.07a80.19,80.19,0,0,1,8.19,4.62c7.27,4.7,11.47,7.62,13.35,13,1.1,3.12.94,5.85.76,9a37.34,37.34,0,0,1-1.5,8.57c-.32,1.12-.67,2.16-1,3.09l-.6,1.56,1.44.86a55.83,55.83,0,0,0,8.91,4.32c4,1.5,7.75,2.93,12.42,2.93h.56a22.4,22.4,0,0,0,2.76-.25,24.91,24.91,0,0,0,6.3-1.8,89.37,89.37,0,0,1-3.08,8.55,81.45,81.45,0,0,1-13.95,22.35c-3.55,4-6.12,6.87-8.81,8.79a15.59,15.59,0,0,1-5.25,2.47,18.36,18.36,0,0,1-4.58.57h0a20.33,20.33,0,0,1-2.68-.18l-1.57-.2-.55,1.48c-1.31,3.53-1.18,6.75.36,9.08,2.28,3.43,6.82,3.73,9.26,3.89.58,0,1.15.06,1.72.06a28.84,28.84,0,0,0,5.17-.48,34.15,34.15,0,0,0,7.51-2.33c-1,1.83-2.08,3.6-3.22,5.3C535.1,576.7,513.77,586,498.24,590.19l-1.1.3-.3,1.1a48.37,48.37,0,0,1-4.31,10.78c-6.24,11.35-16.84,19.83-31.51,25.21a87.83,87.83,0,0,1-9.75,2.93l-3.09.73,2,2.46q1.8,2.2,3.64,4.43a26.48,26.48,0,0,0,14.24,9.4l.2.05c-2.1,1.5-4.18,2.91-6.29,4.25a154.74,154.74,0,0,1-46.15,19.55c-3.93,1-7.95,1.8-12,2.49l-1.14.19-.39,1.09a6.77,6.77,0,0,0-.21,4.46c1,3.23,4.67,5.27,11.1,6.26.64.1,1.32.18,2,.26-.73.57-1.46,1.13-2.2,1.67-23.18,17.19-52,25.91-85.54,25.91h-1.69l-.56.5c-28.13,24.65-59.32,41.25-92.71,49.33-2.42.59-5,1.15-7.76,1.71Z" transform="translate(-19.95 -70.18)"/><path class="cls-6" d="M518,454.36c2,1.05,3.9,2.18,5.74,3.36,7.1,4.6,10.89,7.21,12.55,12,1,2.75.83,5.17.66,8.23a36.14,36.14,0,0,1-1.42,8.12c-.32,1.07-.65,2.06-1,2.94l-1.2,3.12,2.87,1.72a58.55,58.55,0,0,0,9.23,4.47c4,1.5,8.09,3.05,13.12,3.05h.61a28.31,28.31,0,0,0,3-.27,26.44,26.44,0,0,0,2.89-.59c-.55,1.56-1.15,3.09-1.78,4.6a79.63,79.63,0,0,1-13.6,21.8c-3.47,3.89-6,6.7-8.48,8.49a13.27,13.27,0,0,1-4.6,2.16,16.23,16.23,0,0,1-4.08.51,18.21,18.21,0,0,1-2.42-.16l-3.14-.41-1.1,3c-1.54,4.13-1.34,8,.57,10.86,2.82,4.26,8.19,4.61,10.77,4.78.62,0,1.25.07,1.87.07a31,31,0,0,0,5.52-.52c.87-.15,1.74-.35,2.61-.58l-.33.49c-13.11,19.56-34,28.6-49.19,32.75l-2.2.6-.59,2.2a46.27,46.27,0,0,1-4.14,10.34c-6,10.91-16.24,19.09-30.45,24.29a84.35,84.35,0,0,1-9.52,2.86L444.64,630l4,4.91q1.8,2.22,3.65,4.45a29.43,29.43,0,0,0,6.06,5.78,27.86,27.86,0,0,0,5.53,3c-1,.67-2,1.32-3,1.95a152.47,152.47,0,0,1-45.56,19.3c-3.87.95-7.85,1.78-11.82,2.46l-2.28.39-.79,2.17a8.75,8.75,0,0,0-.23,5.76c1.47,4.55,6.55,6.35,10,7.12-22.56,16.17-50.4,24.37-82.78,24.37h-2.43l-1.13,1c-27.89,24.45-58.8,40.9-91.86,48.9-2.42.58-4.93,1.14-7.69,1.69l-1.46.29-1-.54a57.82,57.82,0,0,1-5.81-3.61c-.58-.41-1.16-.84-1.73-1.28,35.3-8.14,67-22.39,94.18-42.41,1.67-1.23,3.41-2.55,5.48-4.16l1.48-1.17,0-1.88,0-1c.17-4.84,1-14.16,4.78-22.25a51.93,51.93,0,0,1,19.75-21.91c.25.47.51.92.78,1.36a16.59,16.59,0,0,0,2.32,2.9c3.66,3.68,9.08,5.71,15.26,5.71a35.51,35.51,0,0,0,17.29-4.86l3.44-1.94-1.92-3.45c-.48-.87-.9-1.66-1.28-2.43a56.77,56.77,0,0,1-3-7.35,54.5,54.5,0,0,1-2.53-14l-.22-4.6-.28.06L477.21,479a36.86,36.86,0,0,0,18.53,11.76,36,36,0,0,0,9.15,1.17c1.19,0,2.39-.06,3.59-.17l5.14-.5-1.8-4.84a31.7,31.7,0,0,1-1.4-4.9,20.9,20.9,0,0,1,.28-10.08,20.5,20.5,0,0,1,2.29-4.93,49.71,49.71,0,0,0,2.78-5.45c.5-1.13,1-2.36,1.38-3.64.13-.39.26-.8.38-1.22l0-.1c.17-.56.33-1.13.47-1.7m-2.89-5.84a42.47,42.47,0,0,1-1.39,6.4c-.12.41-.24.82-.37,1.21-.4,1.2-.82,2.32-1.25,3.32-2.12,4.9-4,6.59-5.24,10.83a24.81,24.81,0,0,0-.37,12,35.5,35.5,0,0,0,1.58,5.5c-1,.1-2.08.16-3.21.16a31.56,31.56,0,0,1-8.13-1.05,33.78,33.78,0,0,1-18.49-12.94c-.46-.63-.86-1.22-1.21-1.76L361.3,640.4c1.78-.24,3.51-.55,5.23-.89a58.08,58.08,0,0,0,5.91,22.93c.45.93.91,1.79,1.37,2.61a31.65,31.65,0,0,1-15.34,4.34c-5.06,0-9.49-1.56-12.45-4.53a13.36,13.36,0,0,1-1.78-2.24,16.66,16.66,0,0,1-2.05-5c-7.66,4-18.84,11.9-25.43,26-3.75,8-4.93,17.22-5.15,23.79q0,.52,0,1-2.64,2.07-5.38,4.1C274.27,736,239.91,748.78,208,755.48l-2.17.45A60.08,60.08,0,0,0,220,766.53c.79.43,1.56.83,2.32,1.2l2.83-.54c2.59-.52,5.2-1.09,7.84-1.73,40.32-9.76,71.4-30.36,93.54-49.77h.95c23.13,0,57-4.24,86.73-26.3q3.21-2.4,6.16-4.89a59.29,59.29,0,0,1-6.87-.61c-4.92-.75-8.65-2.23-9.51-4.9a4.77,4.77,0,0,1,.19-3.18c3.89-.66,7.94-1.49,12.1-2.51a156.48,156.48,0,0,0,46.75-19.81c3.59-2.28,6.94-4.64,10.1-7a31.16,31.16,0,0,1-4.56-.85,25.05,25.05,0,0,1-7.95-3.68,25.9,25.9,0,0,1-5.28-5.06l-3.63-4.43a88.92,88.92,0,0,0,10-3c11.41-4.18,24.76-11.89,32.57-26.11a50.58,50.58,0,0,0,4.49-11.22c16.36-4.46,37.75-13.94,51.44-34.37a73.06,73.06,0,0,0,6.09-11,35.66,35.66,0,0,1-12.39,5,26,26,0,0,1-4.8.45c-.53,0-1.07,0-1.6,0-2.41-.16-6-.45-7.73-3-1.21-1.83-1.21-4.44-.16-7.29a21.66,21.66,0,0,0,2.94.2,20.26,20.26,0,0,0,5.08-.64,17.42,17.42,0,0,0,5.9-2.77c2.85-2,5.5-5,9.15-9.08A83.11,83.11,0,0,0,567,506.61a88.32,88.32,0,0,0,4.38-13.25,24.63,24.63,0,0,1-9.72,3.77,22.7,22.7,0,0,1-2.52.22h-.51c-4.3,0-7.85-1.34-11.72-2.8a54.29,54.29,0,0,1-8.59-4.16c.38-1,.75-2.11,1.08-3.25a40.17,40.17,0,0,0,1.58-9c.18-3.31.35-6.28-.88-9.78-2.15-6.12-7-9.35-14.15-14a82.46,82.46,0,0,0-10.78-5.87Z" transform="translate(-19.95 -70.18)"/><path class="cls-5" d="M479.08,641.76l.38-.31-.53.2Z" transform="translate(-19.95 -70.18)"/><path class="cls-6" d="M479.46,641.45l-.53.2.15.11.38-.31Z" transform="translate(-19.95 -70.18)"/><path class="cls-5" d="M372.64,765.66l-2.14-.42c-2.81-.56-5.35-1.12-7.77-1.71-33.38-8.08-64.57-24.68-92.7-49.33l-.57-.5h-1.69c-33.57,0-62.35-8.72-85.54-25.91-.73-.54-1.46-1.1-2.19-1.67.7-.08,1.37-.16,2-.26,6.43-1,10.06-3,11.1-6.26a6.77,6.77,0,0,0-.21-4.46l-.4-1.09-1.14-.19c-4-.69-8-1.53-12-2.49a154.63,154.63,0,0,1-46.15-19.55c-2.11-1.34-4.19-2.75-6.3-4.25l.21-.05a27.25,27.25,0,0,0,8.57-4,27.93,27.93,0,0,0,5.67-5.42l3.64-4.43,2-2.46-3.08-.73a87.83,87.83,0,0,1-9.75-2.93c-14.68-5.38-25.28-13.86-31.51-25.21a48.18,48.18,0,0,1-4.31-10.78l-.3-1.1-1.1-.3C81.51,586,60.17,576.7,46.72,556.64q-1.71-2.55-3.21-5.3A33.82,33.82,0,0,0,51,553.67a28.73,28.73,0,0,0,5.16.48c.57,0,1.15,0,1.73-.06,2.44-.16,7-.46,9.25-3.89,1.55-2.33,1.68-5.55.36-9.08L67,539.64l-1.57.2a20.3,20.3,0,0,1-2.67.18,17.86,17.86,0,0,1-4.58-.58A15.38,15.38,0,0,1,52.9,537c-2.7-1.92-5.26-4.8-8.82-8.79a81.34,81.34,0,0,1-13.94-22.35,84.23,84.23,0,0,1-3.08-8.55,24.91,24.91,0,0,0,6.3,1.8,22.23,22.23,0,0,0,2.76.25h.55c4.67,0,8.44-1.43,12.42-2.93A55.52,55.52,0,0,0,58,492.1l1.43-.86-.6-1.56c-.35-.93-.7-2-1-3.09a38.46,38.46,0,0,1-1.5-8.56c-.18-3.16-.33-5.89.77-9,1.88-5.35,6.08-8.27,13.35-13a81.12,81.12,0,0,1,8.18-4.62c.28,1.39.62,2.75,1,4.06l0,.1c.11.39.23.79.36,1.17.4,1.22.85,2.39,1.32,3.48A49.52,49.52,0,0,0,84,465.48a22.52,22.52,0,0,1,2.47,5.36,22.91,22.91,0,0,1,.33,11,35.73,35.73,0,0,1-1.49,5.2l-.9,2.42,2.57.25c1.13.11,2.27.17,3.4.17A34,34,0,0,0,99,488.79a35.46,35.46,0,0,0,19.17-13.14l111.48,162-2.81-.55-.11,2.3a56.48,56.48,0,0,1-5.7,22.14c-.4.8-.83,1.63-1.33,2.53l-1,1.72,1.72,1a33.55,33.55,0,0,0,16.32,4.6c5.64,0,10.56-1.82,13.85-5.12a15.32,15.32,0,0,0,2.05-2.57,18,18,0,0,0,1.56-3.14,54.31,54.31,0,0,1,22.44,23.92c3.73,8,4.76,16.93,5,23l0,1,0,.94.74.58c2.08,1.62,3.8,2.93,5.43,4.13,28,20.6,60.77,35.05,97.4,43a61.9,61.9,0,0,1-5,3.95,59.44,59.44,0,0,1-6,3.73C373.75,765.09,373.19,765.38,372.64,765.66Z" transform="translate(-19.95 -70.18)"/><path class="cls-6" d="M77.24,454.36c.15.57.31,1.14.47,1.7l0,.1c.13.42.25.83.38,1.22.43,1.28.89,2.51,1.38,3.64a51.36,51.36,0,0,0,2.79,5.45,21.29,21.29,0,0,1,2.29,4.93,21,21,0,0,1,.28,10.08,31.77,31.77,0,0,1-1.41,4.9l-1.79,4.84,5.14.5c1.19.11,2.4.17,3.58.17a36,36,0,0,0,9.15-1.17A37,37,0,0,0,118.07,479L225.28,634.78l-.28-.06-.22,4.6a54.26,54.26,0,0,1-5.51,21.37c-.37.77-.79,1.56-1.28,2.43l-1.91,3.45,3.43,1.94a35.51,35.51,0,0,0,17.3,4.86c6.17,0,11.59-2,15.26-5.71a17,17,0,0,0,2.31-2.9c.28-.44.54-.89.78-1.36a51.8,51.8,0,0,1,19.75,21.91c3.78,8.09,4.62,17.41,4.78,22.25,0,.33,0,.65,0,1l0,1.88,1.49,1.17c2.07,1.61,3.81,2.93,5.48,4.16,27.21,20,58.87,34.27,94.17,42.41-.57.44-1.14.87-1.72,1.28a58,58,0,0,1-5.82,3.61l-1,.54-1.46-.29c-2.76-.55-5.28-1.11-7.69-1.69-33.07-8-64-24.45-91.86-48.9l-1.13-1h-2.43c-32.39,0-60.23-8.2-82.79-24.37,3.5-.77,8.59-2.57,10.06-7.12a8.75,8.75,0,0,0-.23-5.76L194,672.3l-2.28-.39c-4-.68-7.95-1.51-11.83-2.46a152.69,152.69,0,0,1-45.56-19.3q-1.49-.95-3-1.95a28.43,28.43,0,0,0,5.53-3A29.69,29.69,0,0,0,143,639.4l3.65-4.45,4-4.91-6.17-1.47a84.52,84.52,0,0,1-9.53-2.86c-14.21-5.2-24.45-13.38-30.45-24.29a47.24,47.24,0,0,1-4.14-10.34l-.59-2.2-2.2-.6c-15.2-4.15-36.08-13.19-49.19-32.75l-.32-.49c.87.23,1.74.43,2.61.58a30.84,30.84,0,0,0,5.52.52c.62,0,1.25,0,1.86-.07,2.58-.17,7.95-.52,10.78-4.78,1.9-2.87,2.11-6.73.57-10.86l-1.11-3-3.14.41a18,18,0,0,1-2.41.16,16.23,16.23,0,0,1-4.08-.51,13.27,13.27,0,0,1-4.6-2.16c-2.51-1.79-5-4.6-8.49-8.49A79.6,79.6,0,0,1,32,505.07q-1-2.26-1.78-4.6a26.26,26.26,0,0,0,2.88.59,28.72,28.72,0,0,0,3,.27h.6c5,0,9.15-1.55,13.13-3.05A59,59,0,0,0,59,493.81l2.86-1.72L60.7,489c-.34-.88-.67-1.87-1-2.94a35.59,35.59,0,0,1-1.42-8.12c-.18-3.06-.32-5.48.65-8.23,1.67-4.75,5.45-7.36,12.56-12,1.83-1.18,3.75-2.31,5.73-3.36m2.89-5.84a83.13,83.13,0,0,0-10.78,5.87c-7.15,4.62-12,7.85-14.15,14-1.23,3.5-1.06,6.47-.87,9.78a40.19,40.19,0,0,0,1.57,9c.34,1.14.7,2.23,1.09,3.25a54.43,54.43,0,0,1-8.6,4.16c-3.87,1.46-7.41,2.8-11.72,2.8h-.51a22.52,22.52,0,0,1-2.51-.22,24.62,24.62,0,0,1-9.73-3.77,89.48,89.48,0,0,0,4.38,13.25,83.06,83.06,0,0,0,14.3,22.91c3.65,4.09,6.3,7.05,9.14,9.08a17.47,17.47,0,0,0,5.91,2.77,20.21,20.21,0,0,0,5.08.64,21.4,21.4,0,0,0,2.93-.2c1.06,2.85,1.06,5.46-.15,7.29-1.7,2.56-5.32,2.85-7.73,3-.54,0-1.07,0-1.6,0a26.15,26.15,0,0,1-4.81-.45,35.69,35.69,0,0,1-12.38-5,73,73,0,0,0,6.08,11c13.7,20.43,35.09,29.91,51.45,34.37A50.1,50.1,0,0,0,101,603.33c7.81,14.22,21.15,21.93,32.57,26.11a88.3,88.3,0,0,0,10,3l-3.63,4.43a26,26,0,0,1-5.29,5.06,25,25,0,0,1-7.94,3.68,31,31,0,0,1-4.57.85c3.17,2.4,6.52,4.76,10.11,7A156.54,156.54,0,0,0,179,673.31c4.17,1,8.22,1.85,12.11,2.51a4.83,4.83,0,0,1,.19,3.18c-.86,2.67-4.59,4.15-9.51,4.9a59.7,59.7,0,0,1-6.87.61q2.94,2.49,6.16,4.89c29.76,22.06,63.6,26.3,86.73,26.3h.94c22.15,19.41,53.22,40,93.54,49.77,2.65.64,5.26,1.21,7.85,1.73l2.82.54c.76-.37,1.54-.77,2.33-1.2a62.64,62.64,0,0,0,6.22-3.86,61.16,61.16,0,0,0,7.95-6.74c-.73-.15-1.45-.29-2.17-.45-31.89-6.7-66.26-19.46-98.18-42.94-1.84-1.35-3.62-2.72-5.38-4.1l0-1c-.23-6.57-1.4-15.74-5.16-23.79-6.58-14.1-17.77-22-25.42-26a16.65,16.65,0,0,1-2.06,5,13.41,13.41,0,0,1-1.77,2.24c-3,3-7.39,4.53-12.45,4.53a31.65,31.65,0,0,1-15.34-4.34c.46-.82.92-1.68,1.37-2.61a58.08,58.08,0,0,0,5.91-22.93c1.71.34,3.45.65,5.22.89L118.22,472.17c-.35.54-.75,1.13-1.22,1.76a33.71,33.71,0,0,1-18.48,12.94,31.64,31.64,0,0,1-8.14,1.05c-1.12,0-2.19-.06-3.2-.16a36.64,36.64,0,0,0,1.58-5.5,24.93,24.93,0,0,0-.37-12c-1.25-4.24-3.12-5.93-5.24-10.83-.43-1-.86-2.12-1.26-3.32-.13-.39-.25-.8-.37-1.21a43.73,43.73,0,0,1-1.39-6.4Z" transform="translate(-19.95 -70.18)"/><path class="cls-5" d="M116.19,641.76l-.38-.31.53.2Z" transform="translate(-19.95 -70.18)"/><path class="cls-6" d="M115.81,641.45l.38.31.15-.11-.53-.2Z" transform="translate(-19.95 -70.18)"/><path class="cls-7" d="M430.38,219.58a115.63,115.63,0,0,1-26.55,11.57A128.72,128.72,0,0,1,377.28,236c-3.5.28-7.06.44-10.66.44a135.59,135.59,0,0,1-15.88-.95,127.51,127.51,0,0,1-26.55-6.05,112.23,112.23,0,0,1-26.55-13.23c-18.42,12.58-42.55,20.23-69,20.23-25.74,0-49.29-7.25-67.51-19.25A400.72,400.72,0,0,1,96.34,279a143.43,143.43,0,0,1,21,26,141.1,141.1,0,0,1,21,58.68,127.45,127.45,0,0,1,.66,19.36c-.61,14.92-3.7,27.47-6.63,38.16-.25.89-.49,1.78-.73,2.65-6.91,24.9-11.85,24.15-18.45,46.73-3.93,13.46-11.72,41.36-4.53,74.93.12.52.22,1.05.34,1.57,2.64,11.61,8.76,37.06,30.39,58.69,17.71,17.7,37.18,24.23,55.55,30.39,31.7,10.63,41.78,5.43,61.83,12.58,12.08,4.31,26.47,12.66,40.87,29.75,14.39-17.09,28.78-25.44,40.87-29.75,20-7.15,30.12-1.95,61.83-12.58,18.36-6.16,37.84-12.69,55.54-30.39,21.64-21.63,27.76-47.08,30.4-58.69.12-.52.22-1,.33-1.57,7.19-33.57-.59-61.47-4.53-74.93-6.59-22.58-11.54-21.83-18.44-46.73-.24-.87-.49-1.76-.73-2.65-2.93-10.69-6-23.24-6.64-38.16a127.45,127.45,0,0,1,.66-19.36,141.41,141.41,0,0,1,21-58.68q2.75-4.35,5.59-8.2A144.49,144.49,0,0,1,498.93,279c-5.27-4-10.4-8.16-15.45-12.4Q469.62,255,456.93,242.23q-12-12-22.8-25c-1.22.81-2.48,1.59-3.75,2.35" transform="translate(-19.95 -70.18)"/><path class="cls-8" d="M109,547.13c2.64,11.61,8.76,37.06,30.39,58.69,17.71,17.7,37.18,24.23,55.55,30.39,31.7,10.63,41.78,5.43,61.83,12.58,12.08,4.31,26.47,12.66,40.87,29.75,14.39-17.09,28.78-25.44,40.87-29.75,20-7.15,30.12-1.95,61.83-12.58,18.36-6.16,37.84-12.69,55.54-30.39,21.64-21.63,27.76-47.08,30.4-58.69.12-.52.22-1,.33-1.57h-378C108.78,546.08,108.88,546.61,109,547.13Z" transform="translate(-19.95 -70.18)"/><path class="cls-9" d="M482.08,470.63c-6.59-22.58-11.54-21.83-18.44-46.73-.24-.87-.49-1.76-.73-2.65H132.37c-.25.89-.49,1.78-.73,2.65-6.91,24.9-11.85,24.15-18.45,46.73-3.93,13.46-11.72,41.36-4.53,74.93h378C493.8,512,486,484.09,482.08,470.63Z" transform="translate(-19.95 -70.18)"/><path class="cls-10" d="M287.42,429c-2.45,1.88-2.18,4.54-4.72,6.55-2,1.6-4.64,1.86-7.15,1.63a19.62,19.62,0,0,0,3.35,3.22c1.74,1.29,5.76,4.3,8.91,3,2-.81,1.8-2.58,3.67-3.67a6.17,6.17,0,0,1,4.72-.34V428C291.5,426.94,288.92,427.82,287.42,429Z" transform="translate(-19.95 -70.18)"/><polygon class="cls-11" points="276.25 357.32 276.25 357.78 276.25 369.19 276.25 390.75 279 390.75 279 370.16 279 358.52 279 357.32 276.25 357.32"/><polygon class="cls-10" points="271.2 388.39 261.51 398.09 277.69 414.26 293.87 398.09 284.17 388.39 271.2 388.39"/><path class="cls-10" d="M362,468.27H230.52a85,85,0,0,1,12.36,40.61c1.1,28.92-13.48,50.47-23.53,61.83H331.71c12.72-14.79,29.94-40.66,32-75.19V482.68A118.15,118.15,0,0,0,362,468.27Z" transform="translate(-19.95 -70.18)"/><path class="cls-12" d="M302.87,567.88a141.49,141.49,0,0,0-16.41,5.1,144,144,0,0,0-41,24.07c2,1.44,4,2.75,5.87,3.91,8.86-1.27,18.42-2.28,28.63-2.83,11-.59,21.34-.58,31-.18.8-1.14,1.6-2.34,2.38-3.66s2-3.42,3.24-5.85a25,25,0,0,0-13.73-20.56Z" transform="translate(-19.95 -70.18)"/><path class="cls-12" d="M315.45,565.3a25.53,25.53,0,0,0-8.37-7.07,299.9,299.9,0,0,0-71.85,30.46c.72.67,1.47,1.35,2.24,2,2.74,2.39,5.43,4.48,8,6.34a144,144,0,0,1,41-24.07,141.49,141.49,0,0,1,16.41-5.1,25,25,0,0,1,13.73,20.56,49.06,49.06,0,0,0,3.87-10.26A26.88,26.88,0,0,0,315.45,565.3Z" transform="translate(-19.95 -70.18)"/><path class="cls-12" d="M319.82,563.2c-.41-1-.37-.67-3.84-6.29-3.06-4.95-5.6-9.26-7.58-12.72q-21.16,9.94-42.73,20.5-18.44,9-36.34,18.1c1.76,1.91,3.72,3.9,5.9,5.9a299.9,299.9,0,0,1,71.85-30.46,25.53,25.53,0,0,1,8.37,7.07,26.88,26.88,0,0,1,5,12.88C321.63,573.34,321.84,568.1,319.82,563.2Z" transform="translate(-19.95 -70.18)"/><path class="cls-13" d="M332.22,535.77V488.91a30.88,30.88,0,0,1-7.41,9.7,41,41,0,0,1-14.92,8.26,29.51,29.51,0,0,1,9.9-17.64,39.05,39.05,0,0,1,9.24-6H273.32a38.81,38.81,0,0,1,9.23,6,29.48,29.48,0,0,1,9.91,17.64,41,41,0,0,1-14.92-8.26,30.88,30.88,0,0,1-7.41-9.7v46.86a31,31,0,0,1,7.41-9.69,41,41,0,0,1,14.94-8.27,29.43,29.43,0,0,1-9.93,17.75,37.46,37.46,0,0,1-7.73,5.28h52.71a37.78,37.78,0,0,1-7.74-5.28,29.46,29.46,0,0,1-9.92-17.75,41,41,0,0,1,14.94,8.27A31,31,0,0,1,332.22,535.77Z" transform="translate(-19.95 -70.18)"/><path class="cls-1" d="M498.93,279c-5.27-4-10.4-8.16-15.45-12.4v30.23A144.49,144.49,0,0,1,498.93,279Z" transform="translate(-19.95 -70.18)"/><path class="cls-14" d="M297.64,216.25V383.09h26.55V229.48A112.23,112.23,0,0,1,297.64,216.25Z" transform="translate(-19.95 -70.18)"/><path class="cls-1" d="M324.19,229.48V383.09h26.55V235.53A127.51,127.51,0,0,1,324.19,229.48Z" transform="translate(-19.95 -70.18)"/><path class="cls-14" d="M366.62,236.48a135.59,135.59,0,0,1-15.88-.95V383.09h26.54V236C373.78,236.32,370.22,236.48,366.62,236.48Z" transform="translate(-19.95 -70.18)"/><path class="cls-1" d="M377.28,236v147h26.55V231.15A128.72,128.72,0,0,1,377.28,236Z" transform="translate(-19.95 -70.18)"/><path class="cls-14" d="M403.83,231.15V383.09h26.55V219.58A115.63,115.63,0,0,1,403.83,231.15Z" transform="translate(-19.95 -70.18)"/><path class="cls-1" d="M456.93,363.73V242.23q-12-12-22.8-25c-1.22.81-2.48,1.59-3.75,2.35V383.09h25.89A127.45,127.45,0,0,1,456.93,363.73Z" transform="translate(-19.95 -70.18)"/><path class="cls-14" d="M456.93,363.73a141.41,141.41,0,0,1,21-58.68q2.75-4.35,5.59-8.2V266.62Q469.62,255,456.93,242.23Z" transform="translate(-19.95 -70.18)"/><path class="cls-9" d="M228.66,236.48h-.56c1.89,1.59,3,4.4,3.51,5.7,3.85,9.34,9.93,16.48,19.16,26.24,1.56,1.65,3.2,3.37,4.95,5.2,11.59,12.12,16.27,8.49,32,22.53a114,114,0,0,1,10,10.09v-90C279.22,228.83,255.09,236.48,228.66,236.48Z" transform="translate(-19.95 -70.18)"/><path class="cls-15" d="M287.68,296.14c-15.69-14-20.37-10.41-32-22.53-1.75-1.83-3.39-3.55-4.95-5.2a33.25,33.25,0,0,0-3.7,11.49c-.58,4.72-.19,10.58-1.31,10.74-.71.1-1.11-2.23-3.4-5.24-2.08-2.72-3.31-2.85-5.77-5.24-4.85-4.72-4.7-8.69-6.55-8.65s-2.48,3.65-6.81,12.84c-3.42,7.26-4.35,7.95-5,7.86-1.37-.19-1.68-4.14-2.53-9.67-1.07-6.93-3.25-21-6.11-21.25s-5.05,14.55-8.13,14.41c-1.72-.07-3.09-4.59-4.17-11C188.85,275,182,283.08,170.83,288.8c-6.14,3.16-10.66,4.12-14.67,9.43s-3,10.37-5.24,15.2a75.22,75.22,0,0,1-18.3,24.21,131.26,131.26,0,0,1,5.72,26.09,127.45,127.45,0,0,1,.66,19.36H297.64V306.23A114,114,0,0,0,287.68,296.14Z" transform="translate(-19.95 -70.18)"/><path class="cls-1" d="M214.85,243.74c-5.39,6.49-10.91,12.86-16.25,19.39l-1.29,1.58c1.08,6.4,2.45,10.92,4.17,11,3.08.14,5.16-14.65,8.13-14.41s5,14.32,6.11,21.25c.85,5.53,1.16,9.48,2.53,9.67.63.09,1.56-.6,5-7.86,4.33-9.19,5.06-12.8,6.81-12.84s1.7,3.93,6.55,8.65c2.46,2.39,3.69,2.52,5.77,5.24,2.29,3,2.69,5.34,3.4,5.24,1.12-.16.73-6,1.31-10.74a33.25,33.25,0,0,1,3.7-11.49c-9.23-9.76-15.31-16.9-19.16-26.24-.53-1.3-1.62-4.11-3.51-5.7q-3,0-6-.17C219.81,237.75,217.45,240.6,214.85,243.74Z" transform="translate(-19.95 -70.18)"/><path class="cls-9" d="M161.15,217.23A400.72,400.72,0,0,1,96.34,279a143.43,143.43,0,0,1,21,26,143.88,143.88,0,0,1,15.24,32.59,75.22,75.22,0,0,0,18.3-24.21c2.28-4.83,1.28-9.95,5.24-15.2s8.53-6.27,14.67-9.43c11.12-5.72,18-13.77,26.48-24.09l1.29-1.58c5.34-6.53,10.86-12.9,16.25-19.39,2.6-3.14,5-6,7.27-7.44C199,235.18,177.81,228.21,161.15,217.23Z" transform="translate(-19.95 -70.18)"/><path class="cls-1" d="M129.76,423.24l.69-2.51c2.86-10.44,6-22.82,6.57-37.72l.08-1.91H458.18l.08,1.91c.61,14.9,3.71,27.28,6.56,37.72l.69,2.51Z" transform="translate(-19.95 -70.18)"/><path class="cls-2" d="M456.27,383.09c.61,14.92,3.71,27.47,6.64,38.16H132.37c2.93-10.69,6-23.24,6.63-38.16H456.27m3.82-4H135.19l-.16,3.82c-.6,14.69-3.67,26.94-6.5,37.27l-1.37,5h341l-1.38-5c-2.83-10.33-5.9-22.58-6.5-37.27l-.15-3.82Z" transform="translate(-19.95 -70.18)"/><text class="cls-16" transform="translate(159.56 346.21)">U.D. IBARR<tspan class="cls-17" x="211.95" y="0">A</tspan></text></svg>