<svg id="Capa_1" data-name="Capa 1" xmlns="http://www.w3.org/2000/svg" viewBox="0 0 570.38 619.79"><defs><style>.cls-1,.cls-3{fill:#fff;}.cls-10,.cls-11,.cls-12,.cls-2,.cls-8,.cls-9{fill:#1d1d1b;}.cls-3,.cls-4,.cls-5{stroke:#010101;stroke-width:0.92px;}.cls-13,.cls-14,.cls-15,.cls-16,.cls-17,.cls-3,.cls-4,.cls-5{stroke-miterlimit:10;}.cls-4{fill:#010101;fill-rule:evenodd;}.cls-14,.cls-17,.cls-5,.cls-6{fill:none;}.cls-7{fill:#e52320;}.cls-8{font-size:82.32px;}.cls-10,.cls-11,.cls-12,.cls-8,.cls-9{font-family:ArialMT, Arial;}.cls-9{font-size:29.57px;}.cls-10{font-size:52.71px;}.cls-11{font-size:53.99px;}.cls-12{font-size:78.42px;letter-spacing:0.03em;}.cls-13{fill:#a78653;}.cls-13,.cls-14,.cls-15,.cls-16,.cls-17{stroke:#1d1d1b;}.cls-13,.cls-14,.cls-15,.cls-16{stroke-width:2.57px;}.cls-15{fill:#e52520;}.cls-16{fill:#7095ab;}.cls-17{stroke-width:3.86px;}</style></defs><path class="cls-1" d="M504.28,358.15a75.58,75.58,0,1,1,20.51-2.84A75.65,75.65,0,0,1,504.28,358.15Z" transform="translate(-12.69 -112.95)"/><path class="cls-2" d="M504.28,210.23A72.33,72.33,0,1,1,438,253.67a72.33,72.33,0,0,1,66.33-43.44m0-6.43a78.81,78.81,0,1,0,21.38,3,78.79,78.79,0,0,0-21.38-3Z" transform="translate(-12.69 -112.95)"/><path class="cls-1" d="M91.47,358.15a75.6,75.6,0,1,1,20.5-2.84A75.65,75.65,0,0,1,91.47,358.15Z" transform="translate(-12.69 -112.95)"/><path class="cls-2" d="M91.47,210.23a72.33,72.33,0,1,1-66.33,43.44,72.2,72.2,0,0,1,66.33-43.44m0-6.43a78.81,78.81,0,1,0,21.37,3,78.78,78.78,0,0,0-21.37-3Z" transform="translate(-12.69 -112.95)"/><path class="cls-3" d="M443.11,266.48a63.25,63.25,0,1,1,45.07,77.27A63.26,63.26,0,0,1,443.11,266.48Z" transform="translate(-12.69 -112.95)"/><path class="cls-4" d="M490.63,230.36c7.69-5.49,16.36-8.12,25.31-10-15.29-2.17-30-.59-43.8,7.7C478.48,227.36,486.36,227.33,490.63,230.36Z" transform="translate(-12.69 -112.95)"/><path class="cls-4" d="M441.25,288c2.93-11.72,6.5-20.61,11.5-23.27q-4.41-6.75-.28-18.47C443.46,259.85,440,273.79,441.25,288Z" transform="translate(-12.69 -112.95)"/><path class="cls-4" d="M488.57,329.82a42.35,42.35,0,0,1-18-21.16,45,45,0,0,1-17.2,0l-.7,10.48a58.74,58.74,0,0,0,20.16,18.34l9.62,2A28,28,0,0,1,488.57,329.82Z" transform="translate(-12.69 -112.95)"/><path class="cls-4" d="M467.32,266.81A63.81,63.81,0,0,0,476.77,288l27.29-4.89,7.83-25.76a83.49,83.49,0,0,0-23.08-11.49A62.23,62.23,0,0,0,467.32,266.81Z" transform="translate(-12.69 -112.95)"/><path class="cls-4" d="M513.24,326.78q10.15,8.37,24.52,5.07c6.49-5.85,12-12.14,14.89-19.67a42.49,42.49,0,0,0-5.76-15.53c-8.72,3.36-17.12,5.53-24.83,5.09A113.35,113.35,0,0,1,513.24,326.78Z" transform="translate(-12.69 -112.95)"/><path class="cls-4" d="M533.54,252.9a38.5,38.5,0,0,1,18.92,20.39l13-6.73a66.39,66.39,0,0,0-17.1-29.34L536.05,235A24.13,24.13,0,0,1,533.54,252.9Z" transform="translate(-12.69 -112.95)"/><path class="cls-5" d="M488.57,329.82c7.45,1.91,15.84.24,24.67-3" transform="translate(-12.69 -112.95)"/><path class="cls-5" d="M470.55,308.66q1.74-13.91,6.22-20.62" transform="translate(-12.69 -112.95)"/><path class="cls-5" d="M504.06,283.15c3.41,3.86,9.8,10.33,18.22,18.6" transform="translate(-12.69 -112.95)"/><path class="cls-5" d="M511.89,257.39c8.42-4.91,15.37-5.65,21.66-4.49" transform="translate(-12.69 -112.95)"/><path class="cls-5" d="M515.94,220.41A63.71,63.71,0,0,1,536.05,235" transform="translate(-12.69 -112.95)"/><path class="cls-5" d="M488.81,245.9a28.33,28.33,0,0,1,1.82-15.54" transform="translate(-12.69 -112.95)"/><path class="cls-5" d="M453.35,308.65q-8.24-7.95-12.1-20.63" transform="translate(-12.69 -112.95)"/><path class="cls-5" d="M452.75,264.75a42.27,42.27,0,0,1,14.57,2.06" transform="translate(-12.69 -112.95)"/><path class="cls-5" d="M537.76,331.85l.15,4.31" transform="translate(-12.69 -112.95)"/><path class="cls-5" d="M552.65,312.18a21.08,21.08,0,0,1,6.67,1.6" transform="translate(-12.69 -112.95)"/><path class="cls-5" d="M552.46,273.29c.7,7.21.33,15.86-5.57,23.36" transform="translate(-12.69 -112.95)"/><path class="cls-5" d="M484.85,342.78a4.52,4.52,0,0,1-2.42-3.28" transform="translate(-12.69 -112.95)"/><path class="cls-3" d="M30.3,266.48a63.25,63.25,0,1,1,45.07,77.27A63.26,63.26,0,0,1,30.3,266.48Z" transform="translate(-12.69 -112.95)"/><path class="cls-4" d="M77.82,230.36c7.69-5.49,16.36-8.12,25.31-10-15.29-2.17-30-.59-43.8,7.7C65.67,227.36,73.55,227.33,77.82,230.36Z" transform="translate(-12.69 -112.95)"/><path class="cls-4" d="M28.43,288c2.94-11.72,6.51-20.61,11.51-23.27q-4.41-6.75-.29-18.47C30.65,259.85,27.23,273.79,28.43,288Z" transform="translate(-12.69 -112.95)"/><path class="cls-4" d="M75.76,329.82a42.35,42.35,0,0,1-18-21.16,45,45,0,0,1-17.2,0l-.7,10.48A58.74,58.74,0,0,0,60,337.47l9.62,2A28,28,0,0,1,75.76,329.82Z" transform="translate(-12.69 -112.95)"/><path class="cls-4" d="M54.51,266.81A63.61,63.61,0,0,0,64,288l27.29-4.89,7.83-25.76A83.49,83.49,0,0,0,76,245.9,62.15,62.15,0,0,0,54.51,266.81Z" transform="translate(-12.69 -112.95)"/><path class="cls-4" d="M100.42,326.78q10.17,8.37,24.53,5.07c6.49-5.85,12-12.14,14.89-19.67a42.49,42.49,0,0,0-5.76-15.53c-8.72,3.36-17.12,5.53-24.83,5.09A112.88,112.88,0,0,1,100.42,326.78Z" transform="translate(-12.69 -112.95)"/><path class="cls-4" d="M120.73,252.9a38.5,38.5,0,0,1,18.92,20.39l13-6.73a66.39,66.39,0,0,0-17.1-29.34L123.24,235A24.13,24.13,0,0,1,120.73,252.9Z" transform="translate(-12.69 -112.95)"/><path class="cls-5" d="M75.76,329.82c7.45,1.91,15.84.24,24.66-3" transform="translate(-12.69 -112.95)"/><path class="cls-5" d="M57.74,308.66Q59.48,294.76,64,288" transform="translate(-12.69 -112.95)"/><path class="cls-5" d="M91.25,283.15c3.41,3.86,9.8,10.33,18.22,18.6" transform="translate(-12.69 -112.95)"/><path class="cls-5" d="M99.08,257.39c8.42-4.91,15.37-5.65,21.66-4.49" transform="translate(-12.69 -112.95)"/><path class="cls-5" d="M103.13,220.41A63.71,63.71,0,0,1,123.24,235" transform="translate(-12.69 -112.95)"/><path class="cls-5" d="M76,245.9a28.33,28.33,0,0,1,1.82-15.54" transform="translate(-12.69 -112.95)"/><path class="cls-5" d="M40.54,308.65Q32.3,300.7,28.43,288" transform="translate(-12.69 -112.95)"/><path class="cls-5" d="M39.94,264.75a42.27,42.27,0,0,1,14.57,2.06" transform="translate(-12.69 -112.95)"/><path class="cls-5" d="M125,331.85l.15,4.31" transform="translate(-12.69 -112.95)"/><path class="cls-5" d="M139.84,312.18a21.08,21.08,0,0,1,6.67,1.6" transform="translate(-12.69 -112.95)"/><path class="cls-5" d="M139.65,273.29c.69,7.21.33,15.86-5.57,23.36" transform="translate(-12.69 -112.95)"/><path class="cls-5" d="M72,342.78a4.52,4.52,0,0,1-2.42-3.28" transform="translate(-12.69 -112.95)"/><path class="cls-1" d="M295.48,725.94c-62.13-47.07-101-80.14-153.91-140.73-38.17-43.7-58.58-85.77-75-124.72l-.31-.74v-80l3.29-.58a271.12,271.12,0,0,0,47.53-12.86c15.53-5.76,39-14.48,57.87-29.59,2.49-2,4.63-3.84,6.55-5.67,9.34-8.87,16.26-17,21.17-24.83a61.92,61.92,0,0,0,9-23,128.93,128.93,0,0,0,1.4-17.37c.14-3.67.28-7.44.6-11.4L66.3,160.07V118.25l5.07,1.45a779.78,779.78,0,0,0,107.53,23,786.4,786.4,0,0,0,109,7.62c3.34,0,6.64,0,9.89-.07s6.64.07,10,.07a786.43,786.43,0,0,0,109.05-7.62,779.32,779.32,0,0,0,107.52-23l5.07-1.47v41.84L382,254.43c.33,4,.47,7.73.6,11.4a129.06,129.06,0,0,0,1.41,17.37,61.73,61.73,0,0,0,9,23c4.91,7.84,11.84,16,21.17,24.83,1.93,1.83,4.07,3.68,6.55,5.67,18.88,15.11,42.35,23.83,57.88,29.59a270.89,270.89,0,0,0,47.53,12.86l3.28.58v80l-.31.74c-16.37,38.95-36.79,81-74.95,124.72-52.91,60.59-91.79,93.66-153.91,140.73l-2.4,1.82Z" transform="translate(-12.69 -112.95)"/><path class="cls-2" d="M525.48,123.51V157.9L377.87,252.38c1.14,11.29.49,21.13,2.27,31.49a65.33,65.33,0,0,0,9.54,24.45c4.77,7.61,11.67,16,21.8,25.6,2.17,2.07,4.46,4,6.8,5.89,19.32,15.46,43.34,24.41,59,30.22a274.85,274.85,0,0,0,48.22,13V459c-15.05,35.79-35.09,78.76-74.28,123.65-53.46,61.22-93.32,94.71-153.32,140.18-60-45.47-99.86-79-153.32-140.18C105.36,537.71,85.32,494.74,70.27,459V383.07a274.69,274.69,0,0,0,48.23-13c15.64-5.81,39.66-14.76,59-30.22,2.34-1.87,4.62-3.82,6.8-5.89,10.12-9.62,17-18,21.8-25.6a65.33,65.33,0,0,0,9.54-24.45c1.77-10.36,1.12-20.2,2.27-31.49L70.27,157.9V123.51A780,780,0,0,0,178.35,146.6a786.15,786.15,0,0,0,109.59,7.66c3.36,0,6.67,0,9.94-.07s6.57.07,9.93.07a786.28,786.28,0,0,0,109.6-7.66,779.52,779.52,0,0,0,108.07-23.09M62.33,113v49.3L66,164.59l143.59,91.9c-.21,3.18-.33,6.22-.43,9.2a127.69,127.69,0,0,1-1.36,16.84,58.07,58.07,0,0,1-8.44,21.58c-4.73,7.54-11.45,15.41-20.54,24.05-1.85,1.75-3.9,3.54-6.3,5.45-18.37,14.71-41.48,23.29-56.78,29A267.52,267.52,0,0,1,68.9,375.25l-6.57,1.15v84.15L63,462c16.51,39.25,37.09,81.66,75.63,125.79,53.13,60.86,92.15,94,154.5,141.29l4.8,3.63,4.79-3.63C365,681.87,404,648.68,457.18,587.82,495.71,543.69,516.3,501.28,532.8,462l.62-1.48V376.4l-6.57-1.15A267.75,267.75,0,0,1,480,362.58c-15.29-5.68-38.4-14.26-56.78-29-2.39-1.91-4.45-3.7-6.29-5.45-9.09-8.64-15.81-16.51-20.54-24.05A58.09,58.09,0,0,1,388,282.53a126,126,0,0,1-1.35-16.84c-.11-3-.22-6-.43-9.2l143.58-91.9,3.66-2.34V113l-10.14,2.91a776.24,776.24,0,0,1-107,22.86,781.55,781.55,0,0,1-108.49,7.57c-3.26,0-6.57,0-9.83-.06h-.2c-3.27,0-6.58.06-9.84.06a781.55,781.55,0,0,1-108.49-7.57,775.79,775.79,0,0,1-107-22.86L62.33,113Z" transform="translate(-12.69 -112.95)"/><path class="cls-1" d="M295.48,725.94c-62.13-47.07-101-80.14-153.91-140.73-38.17-43.7-58.58-85.77-75-124.72l-.31-.74v-80l3.29-.58a271.12,271.12,0,0,0,47.53-12.86c15.53-5.76,39-14.48,57.87-29.59,2.49-2,4.63-3.84,6.55-5.67,9.34-8.87,16.26-17,21.17-24.83a61.92,61.92,0,0,0,9-23,128.93,128.93,0,0,0,1.4-17.37c.14-3.67.28-7.44.6-11.4L66.3,160.07V118.25l5.07,1.45a779.78,779.78,0,0,0,107.53,23,786.4,786.4,0,0,0,109,7.62c3.34,0,6.64,0,9.89-.07s6.64.07,10,.07a786.43,786.43,0,0,0,109.05-7.62,779.32,779.32,0,0,0,107.52-23l5.07-1.47v41.84L382,254.43c.33,4,.47,7.73.6,11.4a129.06,129.06,0,0,0,1.41,17.37,61.73,61.73,0,0,0,9,23c4.91,7.84,11.84,16,21.17,24.83,1.93,1.83,4.07,3.68,6.55,5.67,18.88,15.11,42.35,23.83,57.88,29.59a270.89,270.89,0,0,0,47.53,12.86l3.28.58v80l-.31.74c-16.37,38.95-36.79,81-74.95,124.72-52.91,60.59-91.79,93.66-153.91,140.73l-2.4,1.82Z" transform="translate(-12.69 -112.95)"/><path class="cls-2" d="M525.48,123.51V157.9L377.87,252.38c1.14,11.29.49,21.13,2.27,31.49a65.33,65.33,0,0,0,9.54,24.45c4.77,7.61,11.67,16,21.8,25.6,2.17,2.07,4.46,4,6.8,5.89,19.32,15.46,43.34,24.41,59,30.22a274.85,274.85,0,0,0,48.22,13V459c-15.05,35.79-35.09,78.76-74.28,123.65-53.46,61.22-93.32,94.71-153.32,140.18-60-45.47-99.86-79-153.32-140.18C105.36,537.71,85.32,494.74,70.27,459V383.07a274.69,274.69,0,0,0,48.23-13c15.64-5.81,39.66-14.76,59-30.22,2.34-1.87,4.62-3.82,6.8-5.89,10.12-9.62,17-18,21.8-25.6a65.33,65.33,0,0,0,9.54-24.45c1.77-10.36,1.12-20.2,2.27-31.49L70.27,157.9V123.51A780,780,0,0,0,178.35,146.6a786.15,786.15,0,0,0,109.59,7.66c3.36,0,6.67,0,9.94-.07s6.57.07,9.93.07a786.28,786.28,0,0,0,109.6-7.66,779.52,779.52,0,0,0,108.07-23.09M62.33,113v49.3L66,164.59l143.59,91.9c-.21,3.18-.33,6.22-.43,9.2a127.69,127.69,0,0,1-1.36,16.84,58.07,58.07,0,0,1-8.44,21.58c-4.73,7.54-11.45,15.41-20.54,24.05-1.85,1.75-3.9,3.54-6.3,5.45-18.37,14.71-41.48,23.29-56.78,29A267.52,267.52,0,0,1,68.9,375.25l-6.57,1.15v84.15L63,462c16.51,39.25,37.09,81.66,75.63,125.79,53.13,60.86,92.15,94,154.5,141.29l4.8,3.63,4.79-3.63C365,681.87,404,648.68,457.18,587.82,495.71,543.69,516.3,501.28,532.8,462l.62-1.48V376.4l-6.57-1.15A267.75,267.75,0,0,1,480,362.58c-15.29-5.68-38.4-14.26-56.78-29-2.39-1.91-4.45-3.7-6.29-5.45-9.09-8.64-15.81-16.51-20.54-24.05A58.09,58.09,0,0,1,388,282.53a126,126,0,0,1-1.35-16.84c-.11-3-.22-6-.43-9.2l143.58-91.9,3.66-2.34V113l-10.14,2.91a776.24,776.24,0,0,1-107,22.86,781.55,781.55,0,0,1-108.49,7.57c-3.26,0-6.57,0-9.83-.06h-.2c-3.27,0-6.58.06-9.84.06a781.55,781.55,0,0,1-108.49-7.57,775.79,775.79,0,0,1-107-22.86L62.33,113Z" transform="translate(-12.69 -112.95)"/><path class="cls-6" d="M477.26,370c-15.64-5.81-39.66-14.76-59-30.22H177.48c-19.32,15.46-43.34,24.41-59,30.22a274.69,274.69,0,0,1-48.23,13V459c15,35.79,35.09,78.76,74.29,123.65,53.46,61.22,93.31,94.71,153.32,140.18,60-45.47,99.86-79,153.32-140.18,39.19-44.89,59.23-87.86,74.28-123.65V383.07A274.85,274.85,0,0,1,477.26,370Z" transform="translate(-12.69 -112.95)"/><path class="cls-7" d="M377.87,252.38h-160c-1.15,11.29-.5,21.13-2.27,31.49H380.14C378.36,273.51,379,263.67,377.87,252.38Z" transform="translate(-12.69 -112.95)"/><path class="cls-6" d="M380.14,283.87H215.62a65.33,65.33,0,0,1-9.54,24.45h183.6A65.33,65.33,0,0,1,380.14,283.87Z" transform="translate(-12.69 -112.95)"/><path class="cls-7" d="M411.48,333.92c-10.13-9.62-17-18-21.8-25.6H206.08c-4.77,7.61-11.68,16-21.8,25.6-2.18,2.07-4.46,4-6.8,5.89h240.8C415.94,337.94,413.65,336,411.48,333.92Z" transform="translate(-12.69 -112.95)"/><polygon class="cls-1" points="363.88 137.93 514.78 6.21 514.78 46.03 366.25 141.1 363.88 137.93"/><path class="cls-2" d="M525.48,123.53V157.9L377.87,252.38,525.48,123.53m4-8.74-6.58,5.75L375.26,249.39l4.75,6.34,147.61-94.49,1.83-1.17V114.79Z" transform="translate(-12.69 -112.95)"/><polygon class="cls-1" points="55.6 46.03 55.6 6.21 206.5 137.93 204.13 141.1 55.6 46.03"/><path class="cls-2" d="M70.27,123.53,217.89,252.38,70.27,157.9V123.53m-4-8.74v45.28l1.83,1.17,147.61,94.49,4.76-6.34L72.88,120.54l-6.58-5.75Z" transform="translate(-12.69 -112.95)"/><path class="cls-1" d="M216.44,256.24l-150-131V118.4l4.92,1.41a781.42,781.42,0,0,0,107.54,23,786.68,786.68,0,0,0,109.06,7.61q5,0,9.89-.06c3.35,0,6.64.06,10,.06a786.57,786.57,0,0,0,109.06-7.61,781.1,781.1,0,0,0,107.54-23l4.93-1.42v6.88L528,126.44l-148.7,129.8Z" transform="translate(-12.69 -112.95)"/><path class="cls-2" d="M525.48,123.51v0L377.87,252.38h-160L70.27,123.53v0A780,780,0,0,0,178.35,146.6a786.15,786.15,0,0,0,109.59,7.66c3.36,0,6.67,0,9.94-.07s6.57.07,9.93.07a786.28,786.28,0,0,0,109.6-7.66,779.52,779.52,0,0,0,108.07-23.09M62.56,113.26V127l2.64,2.32L212.81,258.19,215,260.1H380.76l2.18-1.91L530.55,129.34l2.64-2.3V113.28l-9.85,2.82a776.69,776.69,0,0,1-107,22.87,783.42,783.42,0,0,1-108.52,7.57c-3.26,0-6.57,0-9.84-.06h-.19c-3.27,0-6.58.06-9.84.06A783.53,783.53,0,0,1,179.42,139a776.69,776.69,0,0,1-107-22.87l-9.85-2.84Z" transform="translate(-12.69 -112.95)"/><text class="cls-8" transform="translate(193.78 116.91)">1986</text><text class="cls-9" transform="matrix(0.99, -0.17, 0.17, 0.99, 147.2, 268.34)">U</text><text class="cls-9" transform="translate(168.65 264.75) rotate(-7.91)">N</text><text class="cls-9" transform="translate(190.26 261.82) rotate(-6.58)">I</text><text class="cls-9" transform="matrix(1, -0.09, 0.09, 1, 198.83, 260.75)">O</text><text class="cls-9" transform="translate(222.1 258.65) rotate(-3.56)">N</text><text class="cls-9" transform="matrix(1, -0.04, 0.04, 1, 243.93, 257.36)"> </text><text class="cls-9" transform="translate(252.64 256.92) rotate(-1.51)">D</text><text class="cls-9" transform="translate(274.42 256.36) rotate(-0.07)">E</text><text class="cls-9" transform="matrix(1, 0.02, -0.02, 1, 294.55, 256.34)">P</text><text class="cls-9" transform="translate(314.69 256.8) rotate(2.78)">O</text><text class="cls-9" transform="translate(338.06 257.94) rotate(4.36)">R</text><text class="cls-9" transform="translate(359.21 259.57) rotate(5.88)">T</text><text class="cls-9" transform="translate(377.63 261.52) rotate(7.11)">I</text><text class="cls-9" transform="translate(386.27 262.55) rotate(8.3)">V</text><text class="cls-9" transform="translate(404.06 265.13) rotate(9.58)">A</text><text class="cls-10" transform="translate(330.72 546.93) rotate(-37.2)">O</text><text class="cls-10" transform="matrix(0.77, -0.64, 0.64, 0.77, 365.77, 520.25)">C</text><text class="cls-10" transform="translate(397.5 493.43) rotate(-42.99)">A</text><text class="cls-10" transform="matrix(0.7, -0.71, 0.71, 0.7, 425.12, 467.56)">S</text><text class="cls-11" transform="translate(103.74 427.39) rotate(48.17)"> </text><text class="cls-11" transform="translate(115.71 440.59) rotate(46.29)"> </text><text class="cls-11" transform="translate(127.23 452.61) rotate(45.34)"> </text><text class="cls-11" transform="matrix(0.72, 0.7, -0.7, 0.72, 139.2, 464.71)"> </text><text class="cls-11" transform="matrix(0.74, 0.68, -0.68, 0.74, 151.83, 477.15)">L</text><text class="cls-11" transform="translate(176.51 499.81) rotate(39.86)">A</text><text class="cls-11" transform="matrix(0.8, 0.61, -0.61, 0.8, 206.62, 524.81)">S</text><text class="cls-11" transform="translate(236.68 547.49) rotate(35.99)"> </text><text class="cls-12" transform="translate(260.93 574.66)">Z</text><path class="cls-13" d="M429.74,435.63a20.1,20.1,0,0,0-10.68-8.14c-3.81-1.09-7.14-.6-11.7.51A110.26,110.26,0,0,0,386,435.63c-8.78,4.23-6.36,1.94-28,10.17-14.8,5.64-16.13,6.79-38.14,15.77-14.88,6.06-23.14,9.43-28.21,11.12a42.37,42.37,0,0,0,7.36,3.62c3.23,1.22,6.83,2.13,24.41,3.06,8.76.46,15.51.63,28.48,1,18.1.53,21.34.68,26.44,2a62.37,62.37,0,0,1,18.82,8.64,62.37,62.37,0,0,0-18.82-8.64c-5.1-1.36-8.34-1.51-26.44-2-13-.38-19.72-.55-28.48-1-17.58-.93-21.18-1.84-24.41-3.06a42.37,42.37,0,0,1-7.36-3.62q-1,.33-1.8.57c-19.8,5.88-22.69,2.28-44.24,6.61-23.32,4.69-40.92,13.12-54.92,19.84-8.19,3.92-15.32,7.81-21.36,11.34q10.08,10.32,21.21,20.7a638.39,638.39,0,0,0,107.31,80.44,639.19,639.19,0,0,0,107.31-80.44c13.57-12.63,25.95-25.28,37.25-37.75-5.72-23.88-8.28-37.91-8.64-45.15A25.3,25.3,0,0,0,429.74,435.63Z" transform="translate(-12.69 -112.95)"/><path class="cls-14" d="M508.82,405.94c-7.76-2-16.22-4.2-25.17-6.37l5.87,21.05c3.19.3,6.29.61,9.28.94Q504.13,413.52,508.82,405.94Z" transform="translate(-12.69 -112.95)"/><path class="cls-15" d="M254.7,376.88l27,53.69c5.74-1.44,11.67-2.82,17.82-4.09,6.47-1.35,12.64-2.46,18.62-3.42L297,375.65C287,375.66,272.08,375.9,254.7,376.88Z" transform="translate(-12.69 -112.95)"/><path class="cls-15" d="M218.6,379.86c-12.95,1.43-26.22,3.37-39.4,5.64l28.38,71.13a418.48,418.48,0,0,1,43.74-17.21l-27.53-60.11Z" transform="translate(-12.69 -112.95)"/><path class="cls-14" d="M297.88,375.64H297l21.19,47.41c10.53-1.67,20.41-2.81,30-3.61l-19-43.14C316.47,375.78,305.62,375.64,297.88,375.64Z" transform="translate(-12.69 -112.95)"/><path class="cls-14" d="M135.54,394.14l40.49,79q4.64-2.72,9.6-5.44c4.48-2.45,11.92-6.41,22-11L179.2,385.5C164.33,388.07,149.58,391,135.54,394.14Z" transform="translate(-12.69 -112.95)"/><path class="cls-15" d="M86.94,405.94a609.72,609.72,0,0,0,62.74,84c7.55-5.27,16.36-11,26.35-16.85l-40.49-79C117.8,398.06,101.2,402.18,86.94,405.94Z" transform="translate(-12.69 -112.95)"/><path class="cls-14" d="M223.79,379.31l27.53,60.11c9.35-3.1,19.51-6.1,30.41-8.85l-27-53.69C245,377.43,234.6,378.21,223.79,379.31Z" transform="translate(-12.69 -112.95)"/><path class="cls-14" d="M421.45,386.36l10.94,30.93c9.37.2,18.33.56,26.83,1l-7.33-26C442,390.23,431.76,388.2,421.45,386.36Z" transform="translate(-12.69 -112.95)"/><path class="cls-15" d="M451.89,392.34l7.33,26c10.87.61,21,1.41,30.3,2.3l-5.87-21.05C473.6,397.14,462.92,394.68,451.89,392.34Z" transform="translate(-12.69 -112.95)"/><path class="cls-14" d="M377.15,379.86c-5.64-.62-11.2-1.15-16.63-1.61l17.84,39.57c6.17-.2,12.41-.35,18.83-.5,2.45-.06,4.88-.1,7.29-.14l-14.84-35.8Q383.36,380.54,377.15,379.86Z" transform="translate(-12.69 -112.95)"/><path class="cls-15" d="M329.24,376.31l19,43.14c10.17-.84,20.07-1.3,30.15-1.63l-17.84-39.57C349.35,377.31,338.76,376.7,329.24,376.31Z" transform="translate(-12.69 -112.95)"/><path class="cls-15" d="M389.64,381.38l14.84,35.8q14.49-.19,27.91.11l-10.94-30.93C410.87,384.48,400.19,382.78,389.64,381.38Z" transform="translate(-12.69 -112.95)"/><path class="cls-16" d="M291.68,472.69c5.07-1.69,13.33-5.06,28.21-11.12,22-9,23.34-10.13,38.14-15.77,21.61-8.23,19.19-5.94,28-10.17A110.26,110.26,0,0,1,407.36,428c4.56-1.11,7.89-1.6,11.7-.51a20.1,20.1,0,0,1,10.68,8.14,25.3,25.3,0,0,1,4.06,13.22c.36,7.24,2.92,21.27,8.64,45.15a612.44,612.44,0,0,0,56.36-72.44,777.54,777.54,0,0,0-101.61-4.24c-32.43.77-60.38,1.43-97.64,9.16-59.09,12.25-100.22,33.69-113.92,41.19A389.74,389.74,0,0,0,149.68,490q9.31,10.47,19.68,21.09c6-3.53,13.17-7.42,21.36-11.34,14-6.72,31.6-15.15,54.92-19.84,21.55-4.33,24.44-.73,44.24-6.61q.83-.24,1.8-.57" transform="translate(-12.69 -112.95)"/><path class="cls-17" d="M377.15,379.86a746.72,746.72,0,0,0-158.55,0c-46,5.07-96.11,16.71-131.66,26.08A612.89,612.89,0,0,0,190.57,531.75a638.39,638.39,0,0,0,107.31,80.44,639.19,639.19,0,0,0,107.31-80.44A613.55,613.55,0,0,0,508.82,405.94C473.27,396.57,423.18,384.93,377.15,379.86Z" transform="translate(-12.69 -112.95)"/></svg>