<svg id="Capa_1" data-name="Capa 1" xmlns="http://www.w3.org/2000/svg" viewBox="0 0 581.14 630.38"><defs><style>.cls-1,.cls-5{fill:#fff;}.cls-1,.cls-11,.cls-12,.cls-4,.cls-7,.cls-8{stroke:#1d1d1b;stroke-miterlimit:10;stroke-width:4.28px;}.cls-2,.cls-7{fill:none;}.cls-3{font-size:54.25px;font-family:Arial-BoldMT, Arial;font-weight:700;}.cls-10,.cls-14,.cls-3{fill:#1d1d1b;}.cls-4{fill:#8b6535;}.cls-6{fill:#3363ab;}.cls-8{fill:#fdfeff;}.cls-9{fill:#cd1618;}.cls-11{fill:#8d6238;}.cls-12{fill:#008c3c;}.cls-13{fill:#b17f4a;}.cls-13,.cls-14{fill-rule:evenodd;}</style></defs><circle class="cls-1" cx="290.57" cy="339.81" r="207.36"/><path class="cls-2" d="M297.64,317.63c-14.07-21.86-51.24-37.47-94.89-37.47a172.83,172.83,0,0,0-34.58,3.43,207,207,0,0,0-77.89,162c0,114.52,92.84,207.36,207.36,207.36S505,560.09,505,445.57a207,207,0,0,0-77.9-162,172.83,172.83,0,0,0-34.58-3.43C348.88,280.16,311.71,295.77,297.64,317.63Z" transform="translate(-7.07 -105.76)"/><path class="cls-1" d="M502.54,242.59c-3.71,29.07-7.75,55.7-12.25,80.28C482,304.65,458.1,290,427.1,283.59a207,207,0,0,1,77.9,162c0,114.52-92.84,207.36-207.36,207.36S90.28,560.09,90.28,445.57a207,207,0,0,1,77.89-162c-31,6.38-54.9,21.06-63.18,39.28-4.5-24.58-8.54-51.21-12.25-80.28a287.51,287.51,0,0,0-83.53,203C9.21,604.86,138.34,734,297.64,734S586.06,604.86,586.06,445.57A287.5,287.5,0,0,0,502.54,242.59Z" transform="translate(-7.07 -105.76)"/><text class="cls-3" transform="translate(40.06 243.1) rotate(106.91)">U</text><text class="cls-3" transform="translate(27.06 288.24) rotate(96.83)">N</text><text class="cls-3" transform="translate(22.7 333) rotate(89.07)">I</text><text class="cls-3" transform="matrix(0.13, 0.99, -0.99, 0.13, 22.32, 353.17)">O</text><text class="cls-3" transform="translate(29.56 402.93) rotate(72.23)">N</text><text class="cls-3" transform="translate(44.16 444.99) rotate(65.24)"> </text><text class="cls-3" transform="translate(51.9 461.61) rotate(60.98)">·</text><text class="cls-3" transform="matrix(0.55, 0.84, -0.84, 0.55, 62.39, 480.16)"> </text><text class="cls-3" transform="matrix(0.65, 0.76, -0.76, 0.65, 73.26, 497.48)">D</text><text class="cls-3" transform="matrix(0.76, 0.65, -0.65, 0.76, 103.87, 532.58)">E</text><text class="cls-3" transform="translate(137.29 560.11) rotate(31.01)">P</text><text class="cls-3" transform="matrix(0.93, 0.36, -0.36, 0.93, 175.21, 582.42)">O</text><text class="cls-3" transform="translate(222.49 599.57) rotate(10.44)">R</text><text class="cls-3" transform="matrix(1, 0.02, -0.02, 1, 268.1, 607.14)">T</text><text class="cls-3" transform="translate(305.94 607.23) rotate(-4.84)">I</text><text class="cls-3" transform="translate(326.06 605.84) rotate(-11.41)">V</text><text class="cls-3" transform="matrix(0.94, -0.34, 0.34, 0.94, 364.13, 598.07)">A</text><text class="cls-3" transform="translate(403.4 582.81) rotate(-26.56)"> </text><text class="cls-3" transform="translate(419.76 574.56) rotate(-30.81)">·</text><text class="cls-3" transform="matrix(0.82, -0.57, 0.57, 0.82, 437.99, 563.48)"> </text><text class="cls-3" transform="matrix(0.74, -0.67, 0.67, 0.74, 454.95, 552.07)">R</text><text class="cls-3" transform="translate(489.07 520.4) rotate(-51.54)">E</text><text class="cls-3" transform="translate(515.81 485.94) rotate(-61.16)">A</text><text class="cls-3" transform="translate(537.45 444.93) rotate(-70.47)">L</text><text class="cls-3" transform="translate(550.43 407.05) rotate(-79.42)">E</text><text class="cls-3" transform="translate(557.57 364.96) rotate(-87.88)">J</text><text class="cls-3" transform="matrix(-0.12, -0.99, 0.99, -0.12, 558.87, 327.72)">O</text><text class="cls-3" transform="translate(551.83 278.25) rotate(-107.11)">S</text><path class="cls-1" d="M252.08,173c2.18,2.41,3.63,3.64,5.64,4a8.42,8.42,0,0,0,4.9-.94c3.11-1.5,3-3.38,5.84-4.52a7.88,7.88,0,0,1,5.08-.38c2.3.7,2.88,2.38,6,6a61.48,61.48,0,0,0,5.65,5.65c3,2.71,3.16,2.48,7.53,6.22,4.17,3.55,4.24,4,5.84,4.7.67.31,5.35,2.43,9,.38,1.19-.66,1.06-1.09,3.76-4.33a84.27,84.27,0,0,1,6-6.4c3.23-3.24,4.87-4.86,5.83-4.9.56,0,1.35.08,8.66,5.46a11.63,11.63,0,0,0,2.83,1.7c.48.19,4.31,1.71,6.4,0,1-.83.55-1.56,1.69-3.39a9.71,9.71,0,0,1,4-3.58c2.59-1.14,5.23-.3,7.34.38,4,1.27,4.45,2.92,7.72,3.2a6.65,6.65,0,0,0,4.7-.94c1.3-1,1.61-2.35,2.45-5.84.62-2.57,1.45-5.11,1.88-7.72a10.71,10.71,0,0,1,1.52-3.7,27,27,0,0,0-6.51-6.89c-4.66-3.4-9.36-4.89-13.55-6.21-8.28-2.62-9.9-1.45-16.8-4.24a32,32,0,0,1-10.17-5.79,33.12,33.12,0,0,1-8.19-11.86c-2.9-6.3-1.79-7.58-4.94-13-3.91-6.7-7.37-7.7-8.19-7.91a9.82,9.82,0,0,0-5.93.43c-2.71,1.13-4.06,3.28-5.51,5.65a32.47,32.47,0,0,0-3.53,9.32c-1.7,6.84-.57,7.46-2.12,10-2.11,3.51-5.81,5-9.46,6.35-5.2,2-7.5,1.47-11.86,2.41-7.29,1.56-12.58,5.81-23.15,14.3-.6.48-1.13.92-1.61,1.32a57.71,57.71,0,0,1,5.18,7.34A41.19,41.19,0,0,0,252.08,173Z" transform="translate(-7.07 -105.76)"/><path class="cls-4" d="M495.88,273.57c2.72-8.1,4.34-23.88-3.57-32-.68-.69-.39-.27-13.37-9.6-5.53-4-8.35-6-11.11-8.09-6.34-4.81-9.5-7.22-13.18-10.55-5.15-4.68-5.1-5.42-7.72-6.78-3.58-1.85-6.89-2.07-13.36-2.44-6.83-.39-7,.38-12.62-.19-4.39-.45-8.36-.89-12.4-3.22a23.46,23.46,0,0,1-6.8-6.19c-10.64-13.21-14.83-11.84-26.12-26.17-1.33-1.69-2.35-3.07-3.24-4.27a10.71,10.71,0,0,0-1.52,3.7c-.43,2.61-1.26,5.15-1.88,7.72-.84,3.49-1.15,4.85-2.45,5.84a6.65,6.65,0,0,1-4.7.94c-3.27-.28-3.75-1.93-7.72-3.2-2.11-.68-4.75-1.52-7.34-.38a9.71,9.71,0,0,0-4,3.58c-1.14,1.83-.68,2.56-1.69,3.39-2.09,1.71-5.92.19-6.4,0a11.63,11.63,0,0,1-2.83-1.7c-7.31-5.38-8.1-5.48-8.66-5.46-1,0-2.6,1.66-5.83,4.9a84.27,84.27,0,0,0-6,6.4c-2.7,3.24-2.57,3.67-3.76,4.33-3.69,2-8.37-.07-9-.38-1.6-.72-1.67-1.15-5.84-4.7-4.37-3.74-4.58-3.51-7.53-6.22a61.48,61.48,0,0,1-5.65-5.65c-3.14-3.64-3.72-5.32-6-6a7.88,7.88,0,0,0-5.08.38c-2.82,1.14-2.73,3-5.84,4.52a8.42,8.42,0,0,1-4.9.94c-2-.32-3.46-1.55-5.64-4a41.19,41.19,0,0,1-6-7.72,57.71,57.71,0,0,0-5.18-7.34c-3.66,3-4.53,4.13-8.56,7-5.94,4.18-8.91,6.27-13,7.53-7.54,2.32-9.5-.81-22.59.56-4.64.49-8,.87-12,2.64-4.25,1.84-7,4.2-11.86,8.66-7.53,7-12.93,12.53-13.94,13.55-6.19,6.31-10,7.84-27.67,18.27-19.27,11.39-28.91,17.08-30.5,19.2-7.35,9.76-5,27.12,1.91,44.24H493.13A32.21,32.21,0,0,0,495.88,273.57Z" transform="translate(-7.07 -105.76)"/><path class="cls-5" d="M252.64,420.23v192q12.74,12,26.85,24.13V420.23Z" transform="translate(-7.07 -105.76)"/><path class="cls-5" d="M315.78,420.23V636.38q14.12-12.2,26.86-24.13v-192Z" transform="translate(-7.07 -105.76)"/><path class="cls-5" d="M189.49,420.23V542.12c8.29,11.32,17.21,22.29,26.86,33.09v-155Z" transform="translate(-7.07 -105.76)"/><path class="cls-5" d="M128.67,420.23a465.41,465.41,0,0,0,24.54,61.7v-61.7Z" transform="translate(-7.07 -105.76)"/><path class="cls-5" d="M378.93,420.23v155c9.64-10.8,18.57-21.77,26.85-33.09V420.23Z" transform="translate(-7.07 -105.76)"/><path class="cls-5" d="M466.61,420.23H442.07v61.7A466.78,466.78,0,0,0,466.61,420.23Z" transform="translate(-7.07 -105.76)"/><path class="cls-6" d="M297.64,420.23H279.49V636.38c5.87,5.07,11.9,10.18,18.15,15.36Q307,644,315.78,636.38V420.23Z" transform="translate(-7.07 -105.76)"/><path class="cls-6" d="M216.35,420.23v155c11.11,12.46,23.16,24.71,36.29,37v-192Z" transform="translate(-7.07 -105.76)"/><path class="cls-6" d="M153.21,420.23v61.7a390.08,390.08,0,0,0,36.28,60.19V420.23Z" transform="translate(-7.07 -105.76)"/><path class="cls-6" d="M442.07,420.23H405.78V542.12a390.13,390.13,0,0,0,36.29-60.19Z" transform="translate(-7.07 -105.76)"/><path class="cls-6" d="M342.64,420.23v192c13.12-12.33,25.17-24.58,36.29-37v-155Z" transform="translate(-7.07 -105.76)"/><path class="cls-7" d="M297.64,420.23h-169c32,99.46,81.9,159.29,169,231.51,87.07-72.22,137-132,169-231.51Z" transform="translate(-7.07 -105.76)"/><path class="cls-8" d="M202.75,280.16c-47.06,0-86.6,18.15-97.76,42.71q3.87,21.17,8.24,40.38c4.65,20.44,9.76,39.33,15.44,57h169V317.63C283.57,295.77,246.4,280.16,202.75,280.16Z" transform="translate(-7.07 -105.76)"/><path class="cls-9" d="M201.29,413a.73.73,0,0,1-.69-.6l-9.18-52.77-.42-2.37a1,1,0,0,1,.74-1.15,6.84,6.84,0,0,0,4-3.28,7,7,0,0,0,.95-3.56v-4q0-4.67,0-9.35h-9.94a10.88,10.88,0,0,0-4.64.88,5,5,0,0,0-2.43,2.06,2.12,2.12,0,0,0-.33,1.44,1.88,1.88,0,0,0,1.69,1.51,5.52,5.52,0,0,0,1.09.1,9,9,0,0,0,2.71-.48c.36-.1.71-.22,1.09-.35l.56-.18a.62.62,0,0,1,.23,0,.71.71,0,0,1,.55.26.73.73,0,0,1,.07.8l-.3.55c-.21.37-.41.73-.61,1.07a9.67,9.67,0,0,1-4.72,4.28,7.47,7.47,0,0,1-2.86.55,7.9,7.9,0,0,1-7.48-5.14,6.48,6.48,0,0,1,1-6.11,11.56,11.56,0,0,1,.83-1l.24-.26a3.7,3.7,0,0,0,.71-1.06h-2.66a9.66,9.66,0,0,1-1.29,1.47,4.12,4.12,0,0,1-2.81,1.23,4.17,4.17,0,0,1-2.85-1.27,18,18,0,0,1-2.11-2.55,4.3,4.3,0,0,0-1.93-1.65l-.22-.11a.81.81,0,0,1-.37-.65.73.73,0,0,1,.34-.63l.13-.07a2,2,0,0,1,.36-.18,3.4,3.4,0,0,0,1.46-1.25l.42-.54a22.06,22.06,0,0,1,1.39-1.74,6.52,6.52,0,0,1,1.5-1.28,3.49,3.49,0,0,1,3.82,0,7.6,7.6,0,0,1,2.17,2.13h2.66a4.14,4.14,0,0,0-.94-1.33,7.68,7.68,0,0,1-1.92-3.09,6.43,6.43,0,0,1,1.48-6.47,7.74,7.74,0,0,1,6-2.69,8,8,0,0,1,6,2.66,13.82,13.82,0,0,1,2.13,3.05l.09.17a1.56,1.56,0,0,0,.21.34.72.72,0,0,1-.13,1.09.92.92,0,0,1-.51.15,1.15,1.15,0,0,1-.42-.09l-.56-.19a14.88,14.88,0,0,0-2.26-.61,8,8,0,0,0-1.29-.11,4.36,4.36,0,0,0-1.39.21,1.92,1.92,0,0,0-1.21,1,2,2,0,0,0,.07,1.56,4.47,4.47,0,0,0,1.9,2,8.51,8.51,0,0,0,3.91,1.15c1,.06,2,.09,3.39.09h2l2,0h4V311a4.19,4.19,0,0,0-.34-1.8,1.27,1.27,0,0,0-.59-.68l-.16,0s-.14,0-.22.19a1.38,1.38,0,0,0,0,.86,2.59,2.59,0,0,0,.21.61,3.29,3.29,0,0,1-.07,3.25,3.48,3.48,0,0,1-3,1.58h-.19a4.39,4.39,0,0,1-4.07-3.07,8.26,8.26,0,0,1,.74-7.57,17.05,17.05,0,0,1,3.55-4c.79-.69,1.59-1.37,2.39-2.05s1.42-1.2,2.12-1.81a17,17,0,0,0,2.07-2.16,9,9,0,0,0,1.39-2.61c0-.1.08-.19.12-.3l.07-.17a.73.73,0,0,1,.66-.43h0a.71.71,0,0,1,.66.44l.13.29c.09.23.18.43.26.65a8.8,8.8,0,0,0,2,3,37.64,37.64,0,0,0,3.39,3.05l.69.58a31.44,31.44,0,0,1,4.15,3.95,9.73,9.73,0,0,1,2.28,4.54,7.51,7.51,0,0,1-1.12,5.84,4.35,4.35,0,0,1-3.5,1.83,4,4,0,0,1-1.56-.32,3.25,3.25,0,0,1-1.77-1.78,3.21,3.21,0,0,1,.08-2.52,2.59,2.59,0,0,0,.33-1.56c0-.08-.08-.34-.27-.34a.48.48,0,0,0-.28.12,2.06,2.06,0,0,0-.69,1.35,5.79,5.79,0,0,0-.11,1.26v.65q0,7.41,0,14.83H216.3a10,10,0,0,0,4.55-1,5,5,0,0,0,2.09-1.85,2.11,2.11,0,0,0,.23-2,2.09,2.09,0,0,0-1.68-1.08,6,6,0,0,0-1-.08,9.13,9.13,0,0,0-2.67.46l-1,.32-.38.13a1.32,1.32,0,0,1-.42.09.93.93,0,0,1-.51-.16.71.71,0,0,1-.3-.47.67.67,0,0,1,.12-.53c.19-.27.35-.57.53-.89s.21-.39.33-.59a9.94,9.94,0,0,1,4.32-4.11,7.63,7.63,0,0,1,3.24-.72,7.87,7.87,0,0,1,7.54,5.31,6.51,6.51,0,0,1-1.14,6c-.22.29-.46.56-.71.83s-.34.36-.49.55a3.45,3.45,0,0,0-.54.87h2.67a9,9,0,0,1,1.59-1.74,4,4,0,0,1,2.52-1,3.91,3.91,0,0,1,2.58,1.05,13.24,13.24,0,0,1,2,2.23l.71.92a3.05,3.05,0,0,0,1.36,1.13,3,3,0,0,1,.36.18l.13.07a.69.69,0,0,1,.37.52.71.71,0,0,1-.19.61,2,2,0,0,1-.72.44,3.26,3.26,0,0,0-1.3,1.09L240,334c-.39.52-.8,1.05-1.24,1.56a7.45,7.45,0,0,1-1.33,1.23,3.55,3.55,0,0,1-4.27.07,7.47,7.47,0,0,1-2-2h-2.67a3.48,3.48,0,0,0,.78,1.13,8.45,8.45,0,0,1,1.94,2.89,6.47,6.47,0,0,1-1.55,7.06,7.73,7.73,0,0,1-5.8,2.49h-.28a8.13,8.13,0,0,1-5.65-2.61,15.71,15.71,0,0,1-2.52-3.73.78.78,0,0,1-.07-.52.74.74,0,0,1,.34-.5.72.72,0,0,1,.4-.12.58.58,0,0,1,.19,0l1.41.46a9.16,9.16,0,0,0,2.93.53h.18a3.86,3.86,0,0,0,1.35-.25,1.7,1.7,0,0,0,1.09-2.3,4.08,4.08,0,0,0-1.82-2.11,8.79,8.79,0,0,0-3.79-1.23,20.16,20.16,0,0,0-2.34-.1H206v13.31a7.2,7.2,0,0,0,4.92,6.83,1,1,0,0,1,.74,1.25c-.3,1.64-.58,3.29-.87,4.94L203,406.84c-.33,1.86-.65,3.72-1,5.58a.71.71,0,0,1-.7.58Z" transform="translate(-7.07 -105.76)"/><path class="cls-10" d="M201.32,291.48c.14.33.27.61.37.9a9.4,9.4,0,0,0,2.14,3.3,46.8,46.8,0,0,0,4.14,3.69,30.86,30.86,0,0,1,4.06,3.86,8.71,8.71,0,0,1,2.12,4.2,6.76,6.76,0,0,1-1,5.3,3.62,3.62,0,0,1-2.92,1.53A3.19,3.19,0,0,1,209,314a2.44,2.44,0,0,1-1.31-3.35,3.23,3.23,0,0,0,.37-2,1,1,0,0,0-1-.9,1.18,1.18,0,0,0-.71.26,2.77,2.77,0,0,0-1,1.78,6.57,6.57,0,0,0-.12,1.4q0,7.9,0,15.81c0,.3.06.38.37.38H216.3a10.68,10.68,0,0,0,4.87-1.09,5.49,5.49,0,0,0,2.38-2.12,2.58,2.58,0,0,0-1.94-4.11,6.54,6.54,0,0,0-1.08-.08,9.83,9.83,0,0,0-2.88.49l-1.39.45a.76.76,0,0,1-.2.06.17.17,0,0,1-.11,0c.34-.48.59-1,.89-1.52a9.27,9.27,0,0,1,4-3.83,6.94,6.94,0,0,1,2.94-.65,7.18,7.18,0,0,1,6.86,4.8,5.82,5.82,0,0,1-1,5.4c-.35.49-.81.89-1.18,1.35a3.55,3.55,0,0,0-.76,1.45c-.07.33,0,.46.34.53a2,2,0,0,0,.42.05h2.8a.47.47,0,0,0,.41-.22,8.38,8.38,0,0,1,1.52-1.68,3.27,3.27,0,0,1,2.07-.82,3.23,3.23,0,0,1,2.12.88,15.85,15.85,0,0,1,2.08,2.4l.49.64a4,4,0,0,0,1.67,1.37,3.29,3.29,0,0,1,.42.21,1.42,1.42,0,0,1-.5.29,3.89,3.89,0,0,0-1.57,1.3c-.58.74-1.12,1.51-1.74,2.22a6.7,6.7,0,0,1-1.2,1.12,2.89,2.89,0,0,1-3.47.06,7.27,7.27,0,0,1-1.82-1.85.63.63,0,0,0-.59-.31H228.4c-.77,0-.91.23-.62.94a4.23,4.23,0,0,0,.95,1.41,7.61,7.61,0,0,1,1.78,2.64,5.75,5.75,0,0,1-1.39,6.32,7.06,7.06,0,0,1-5.29,2.26h-.26a7.37,7.37,0,0,1-5.16-2.41,15.08,15.08,0,0,1-2.41-3.56.81.81,0,0,1,0-.09l1.41.46a10,10,0,0,0,3.15.57h.2a4.75,4.75,0,0,0,1.58-.29,2.41,2.41,0,0,0,1.51-3.2,4.71,4.71,0,0,0-2.11-2.48,9.38,9.38,0,0,0-4.09-1.34,19.44,19.44,0,0,0-2.41-.11h-9.65c-.28,0-.36.08-.36.36,0,4.56,0,9.11,0,13.66a7.89,7.89,0,0,0,5.4,7.5c.25.09.31.18.27.45-.43,2.36-.83,4.72-1.24,7.07l-1.23,7.08-1.23,7.07q-.63,3.69-1.28,7.37l-1.23,7.08q-.63,3.56-1.24,7.1l-1.17,6.73c-.32,1.85-.64,3.71-1,5.56-.18-1-.37-2.1-.55-3.15l-1.17-6.72-1.23-7.07-1.23-7.11-1.23-7.07q-.62-3.54-1.24-7.08-.57-3.34-1.16-6.69l-1.23-7.11c-.19-1-.37-2.1-.56-3.15,0-.24.08-.29.26-.34a8,8,0,0,0,5.43-7.52c0-4.55,0-9.1,0-13.66,0-.28-.07-.36-.36-.36H186.74a11.66,11.66,0,0,0-4.94.94,5.74,5.74,0,0,0-2.75,2.35,2.86,2.86,0,0,0-.41,1.93,2.58,2.58,0,0,0,2.24,2.08,6.59,6.59,0,0,0,1.24.12,10.12,10.12,0,0,0,2.92-.51c.53-.16,1.06-.34,1.67-.54-.33.58-.61,1.1-.9,1.6a9,9,0,0,1-4.38,4,6.89,6.89,0,0,1-2.59.5,7.17,7.17,0,0,1-6.8-4.66,5.75,5.75,0,0,1,.94-5.46,11.51,11.51,0,0,1,1-1.18,3.8,3.8,0,0,0,1-1.67c.09-.37,0-.57-.38-.57-1.1,0-2.2,0-3.3,0h0c-.13,0-.18.1-.24.18a10,10,0,0,1-1.28,1.47,3.11,3.11,0,0,1-4.69,0,18.16,18.16,0,0,1-2.06-2.49,5,5,0,0,0-2.22-1.86,1.65,1.65,0,0,1-.16-.09,3.41,3.41,0,0,1,.41-.22,4.15,4.15,0,0,0,1.77-1.47c.58-.76,1.13-1.53,1.76-2.24a6.14,6.14,0,0,1,1.34-1.15,3,3,0,0,1,1.52-.44,3,3,0,0,1,1.57.48,6.81,6.81,0,0,1,2,2,.5.5,0,0,0,.46.24h2.77c.78,0,.94-.23.64-.95a4.88,4.88,0,0,0-1.1-1.59,6.92,6.92,0,0,1-1.75-2.8,5.68,5.68,0,0,1,1.34-5.78,7,7,0,0,1,5.42-2.46,6.79,6.79,0,0,1,.78,0,7.44,7.44,0,0,1,4.73,2.41,12.93,12.93,0,0,1,2,2.89,2.77,2.77,0,0,0,.4.66.19.19,0,0,1-.12,0,.94.94,0,0,1-.22-.07,18.48,18.48,0,0,0-2.91-.81,8.29,8.29,0,0,0-1.4-.13,5.07,5.07,0,0,0-1.62.25,2.45,2.45,0,0,0-1.56,3.52,5.1,5.1,0,0,0,2.18,2.32,9.37,9.37,0,0,0,4.24,1.26c1.14.06,2.29.08,3.44.08l3.93,0h4.46c.22,0,.27-.06.27-.29q0-8.05,0-16.11a4.91,4.91,0,0,0-.4-2.1,1.93,1.93,0,0,0-1-1,1,1,0,0,0-.44-.1.94.94,0,0,0-.88.64,2.07,2.07,0,0,0,0,1.3,3.41,3.41,0,0,0,.26.76,2.57,2.57,0,0,1-2.44,3.8h-.17a3.68,3.68,0,0,1-3.43-2.6,7.62,7.62,0,0,1,.68-6.95,16.49,16.49,0,0,1,3.41-3.85c1.49-1.3,3-2.57,4.51-3.86a19.14,19.14,0,0,0,2.16-2.25,10.15,10.15,0,0,0,1.5-2.81l.18-.44M216,320.93h0m-29.25,0h0m14.62-30.88a1.43,1.43,0,0,0-1.31.88l-.07.15c-.05.12-.1.23-.14.34a8.27,8.27,0,0,1-1.28,2.41,15.6,15.6,0,0,1-2,2.07l-2.11,1.81c-.8.68-1.61,1.36-2.4,2.05a17.81,17.81,0,0,0-3.69,4.19,9.08,9.08,0,0,0-.8,8.2,5.12,5.12,0,0,0,4.7,3.52h.24A4.22,4.22,0,0,0,196,314v12h-7.23c-1.35,0-2.38,0-3.35-.08a7.81,7.81,0,0,1-3.6-1.06,3.72,3.72,0,0,1-1.6-1.66,1.25,1.25,0,0,1-.08-1,1.32,1.32,0,0,1,.79-.61,3.77,3.77,0,0,1,1.16-.17,6.8,6.8,0,0,1,1.18.11,13.27,13.27,0,0,1,2.15.58l.54.18a1.71,1.71,0,0,0,.66.13,1.64,1.64,0,0,0,.91-.27,1.44,1.44,0,0,0,.63-1,1.49,1.49,0,0,0-.38-1.14,1.31,1.31,0,0,1-.09-.17l-.1-.19a14.67,14.67,0,0,0-2.24-3.2,8.87,8.87,0,0,0-5.63-2.85c-.3,0-.61,0-.91,0a8.57,8.57,0,0,0-6.49,2.93,7.1,7.1,0,0,0-1.63,7.16,8.14,8.14,0,0,0,2.08,3.37l.12.12h-1a7.71,7.71,0,0,0-2.16-2,4.22,4.22,0,0,0-4.56,0,7.55,7.55,0,0,0-1.66,1.41c-.53.59-1,1.2-1.44,1.79l-.4.54a2.77,2.77,0,0,1-1.16,1,2.8,2.8,0,0,0-.46.23l-.11.06a1.43,1.43,0,0,0,0,2.49,1.81,1.81,0,0,0,.37.2,3.47,3.47,0,0,1,1.58,1.36l0,0a18.51,18.51,0,0,0,2.2,2.65,4.91,4.91,0,0,0,3.34,1.47,4.83,4.83,0,0,0,3.3-1.43,11.09,11.09,0,0,0,1.16-1.27h1l-.13.14a10.6,10.6,0,0,0-.88,1.05,7.15,7.15,0,0,0-1.13,6.75,8.61,8.61,0,0,0,8.15,5.63,8.3,8.3,0,0,0,3.13-.6A10.43,10.43,0,0,0,187,344c.21-.35.41-.71.62-1.1l.3-.54a1.43,1.43,0,0,0-1.69-2.05l-.57.19-1.06.34a8.66,8.66,0,0,1-2.51.45,4.94,4.94,0,0,1-1-.09c-1-.21-1.09-.73-1.12-.93a1.35,1.35,0,0,1,.24-1,4.39,4.39,0,0,1,2.11-1.76,10.1,10.1,0,0,1,4.34-.81H196v12.59a6.38,6.38,0,0,1-.85,3.2,6.19,6.19,0,0,1-3.58,3,1.66,1.66,0,0,0-1.23,2c.15.81.29,1.62.43,2.43l.12.71,1.24,7.1.46,2.67.7,4,.56,3.23.67,3.84.66,3.82.57,3.26.94,5.43.3,1.67.46,2.66.77,4.42.64,3.68.53,3,.38,2.2.16.95a1.44,1.44,0,0,0,1.4,1.18h0a1.42,1.42,0,0,0,1.4-1.15c.38-1.9.7-3.78,1-5.6l.71-4.07.46-2.65.3-1.72.93-5.39.67-3.8.57-3.27,1.28-7.37.55-3.17.67-3.91.62-3.54.62-3.53.37-2.14c.28-1.65.57-3.29.86-4.93a1.72,1.72,0,0,0-1.22-2.05,6.48,6.48,0,0,1-4.42-6.15V336.68h8.58a18.92,18.92,0,0,1,2.25.1A8,8,0,0,1,221,337.9a3.4,3.4,0,0,1,1.52,1.74,1,1,0,0,1-.67,1.4,3.18,3.18,0,0,1-1.11.21h-.16a8.91,8.91,0,0,1-2.71-.49l-1-.32-.45-.15a1.31,1.31,0,0,0-.44-.07,1.41,1.41,0,0,0-.77.22,1.43,1.43,0,0,0-.65,1,1.66,1.66,0,0,0,.15,1,16.51,16.51,0,0,0,2.64,3.89,8.91,8.91,0,0,0,6.14,2.83h.3a8.53,8.53,0,0,0,6.32-2.71,7.15,7.15,0,0,0,1.7-7.79,8.84,8.84,0,0,0-2-3.07h1a8,8,0,0,0,2,1.91,4.52,4.52,0,0,0,2.49.79,4.43,4.43,0,0,0,2.59-.87,9,9,0,0,0,1.46-1.35c.46-.53.87-1.07,1.27-1.6.17-.23.34-.46.52-.68a2.48,2.48,0,0,1,1-.86,2.68,2.68,0,0,0,1-.61,1.41,1.41,0,0,0-.35-2.26l-.11-.06a3.11,3.11,0,0,0-.45-.22,2.5,2.5,0,0,1-1.05-.9l-.32-.41-.18-.24-.21-.28a14.91,14.91,0,0,0-2.07-2.34,4.76,4.76,0,0,0-3.05-1.22,4.69,4.69,0,0,0-3,1.14,9.11,9.11,0,0,0-1.5,1.58h-1l.2-.22a8.78,8.78,0,0,0,.76-.89A7.21,7.21,0,0,0,232,319.3a8.58,8.58,0,0,0-8.22-5.8,8.3,8.3,0,0,0-3.55.79,10.69,10.69,0,0,0-4.63,4.39c-.12.2-.23.4-.34.61s-.32.58-.48.81a1.43,1.43,0,0,0-.25,1.08,1.47,1.47,0,0,0,.6.93,1.69,1.69,0,0,0,.92.28,1.75,1.75,0,0,0,.65-.13l.37-.12,1-.32a8.38,8.38,0,0,1,2.46-.43,6,6,0,0,1,.85.07,1.45,1.45,0,0,1,1.14.68,1.43,1.43,0,0,1-.2,1.3,4,4,0,0,1-1.8,1.57,9.21,9.21,0,0,1-4.22.93h-9.62q0-6,0-12a4.23,4.23,0,0,0,1.72,1.36,4.8,4.8,0,0,0,1.84.37,5.06,5.06,0,0,0,4.08-2.13,8.11,8.11,0,0,0,1.24-6.36,10.25,10.25,0,0,0-2.43-4.88,32.13,32.13,0,0,0-4.24-4l-.7-.58a37.1,37.1,0,0,1-3.32-3,8,8,0,0,1-1.83-2.79c-.08-.23-.17-.45-.28-.69l-.12-.29a1.43,1.43,0,0,0-1.31-.88Z" transform="translate(-7.07 -105.76)"/><path class="cls-8" d="M392.52,280.16c47.07,0,86.61,18.15,97.77,42.71Q486.41,344,482,363.25c-4.65,20.44-9.76,39.33-15.43,57h-169V317.63C311.71,295.77,348.88,280.16,392.52,280.16Z" transform="translate(-7.07 -105.76)"/><path class="cls-11" d="M405.78,359.61a78.85,78.85,0,0,1,.48-8.48H380c6.21,8.09,9.27,16.13,7.64,21.84-5.93,20.81-21.23,38.67-40.94,47.26H450.78C427.19,411.67,405.78,387.77,405.78,359.61Z" transform="translate(-7.07 -105.76)"/><path class="cls-12" d="M338.12,342.29c5.29-5.39,4-6.64,12.42-15.25,5-5.19,7.57-7.79,10.54-9.23,3.95-1.91,5.24-1.21,9.61-3.76a51.14,51.14,0,0,0,8.28-6.22c2.37-2.26,2.9-3.28,4.89-4.14a14.15,14.15,0,0,1,6.78-.75,25.59,25.59,0,0,1,6.78,1.32c5.65,1.87,6,3.84,10.54,5.46,2.36.84,5,.94,10.17,1.12,5.75.21,6.62-.3,13-.18,5.83.1,8.75.15,11.11,1.13s4.74,3.33,9.6,8.09c5.52,5.41,6.37,7.05,6.78,7.91A19.77,19.77,0,0,1,460.3,337c-.08,3.65-.18,8.82-3.95,12.05a12.5,12.5,0,0,1-8.29,2.64c-2.49-.07-2.61-.82-8.84-2.26-3.7-.85-5.25-.95-7-.56-1.21.27-3.59.8-4.52,2.82a4.7,4.7,0,0,0,0,3.58c.79,1.82,2.67,2.55,4.9,3.38,2.53.95,2.95.53,5.27,1.32,2.11.73,5.32,1.82,5.83,4,.6,2.47-2.62,5.45-5.27,6.77-4.58,2.29-9.46.58-11.11,0-2.53-.88-4.51-2.41-8.47-5.46a26.93,26.93,0,0,1-5.08-4.51,29.57,29.57,0,0,0-3.39-4.15,10.7,10.7,0,0,0-3-2.26c-2.91-1.26-6,0-7,.38-3.53,1.43-3.81,3.43-8.28,7.34a29,29,0,0,1-7,4.9,25,25,0,0,1-13,2.07c-3.05-.26-5.78-.5-8.66-2.26-3.24-2-3.31-3.84-7.72-6.78a22.83,22.83,0,0,0-5.46-2.82c-3.05-1.07-4-.6-7.72-1.7-3.26-.95-4.89-1.43-6-3-1.93-2.68-.87-6.21-.75-6.59A8.68,8.68,0,0,1,338.12,342.29Z" transform="translate(-7.07 -105.76)"/><path class="cls-8" d="M391.63,274.89c-40.42,0-75.62-21.18-94-52.48-18.38,31.3-53.57,52.48-94,52.48-40.26,0-87.24-21-113.33-52.09,4.36,36.9,9.17,70,14.68,100.07,11.16-24.56,50.7-42.71,97.76-42.71,43.65,0,80.82,15.61,94.89,37.47,14.07-21.86,51.24-37.47,94.88-37.47,47.07,0,86.61,18.15,97.77,42.71,5.5-30.05,10.31-63.17,14.68-100.07C478.87,253.89,431.9,274.89,391.63,274.89Z" transform="translate(-7.07 -105.76)"/><path class="cls-13" d="M306.72,380.37c27.77,5.15,46.25,32.53,41.21,61-5,28.2-31.68,47.15-59.49,42s-46.25-32.54-41.23-60.78c5-28.4,31.7-47.35,59.51-42.17Z" transform="translate(-7.07 -105.76)"/><path class="cls-14" d="M307,378.47h0a49.42,49.42,0,0,1,9.43,2.67l.29.13a53.32,53.32,0,0,1,24.43,19.79,54.71,54.71,0,0,1,9.16,34.35L346.82,434A52.36,52.36,0,0,0,338,403.1a49,49,0,0,0-31.64-20.85h0c-1.21-.21-2.45-.45-3.53-.62-3.9,2.78-6.22,6.07-6.82,9.67-.88,3.56-.1,7.66,2.1,12.26,14.55,1.4,24.56,6.34,32,13.87a57.3,57.3,0,0,1,9.56,13.81l-5.44-2.13a47,47,0,0,0-6.76-8.87c-6.92-7-16.17-11.6-29.82-13a18.64,18.64,0,0,0-2.89,6.45l-3.5-1.37a19.54,19.54,0,0,1,3.33-7.19c-2.47-5.28-3.37-10-2.36-14.44a17.74,17.74,0,0,1,5.05-9.16,48.54,48.54,0,0,0-26.25,7.84l0,.19L271,390a13.12,13.12,0,0,0-.71,2.71q-1.31,5.47-2.11,10.56l-3.62-1.43c.47-2.85,1.08-5.8,1.79-8.76a53.28,53.28,0,0,0-6.79,6.81l-3.71-1.45a54.19,54.19,0,0,1,11.54-11.07A51.68,51.68,0,0,1,307,378.47Zm-38.3,48.71-4.26-1.67a41,41,0,0,1-.76-5.52,67.68,67.68,0,0,1,.82-18.2l3.62,1.42a67.17,67.17,0,0,0-.73,16.37,37.13,37.13,0,0,0,1.31,7.6Zm47.42,18.57-4-1.56a18.66,18.66,0,0,0-3.57-8.17,19.16,19.16,0,0,0-10.2-6.53,29.77,29.77,0,0,1-2.09,8.49l-3.54-1.38a25.22,25.22,0,0,0,2.07-8.86,19,19,0,0,1-4-11.28,15.47,15.47,0,0,1,.42-4.18l3.49,1.37a11.87,11.87,0,0,0-.24,2.63,18.1,18.1,0,0,0,3.12,9.12,23.73,23.73,0,0,1,13.78,8.08,24.27,24.27,0,0,1,4.71,12.27Zm-70-27.42a54.56,54.56,0,0,1,9.67-19.94l3.71,1.44a50.21,50.21,0,0,0-9.8,19.9l-3.58-1.4Zm104.19,17.08a52.93,52.93,0,0,1-.75,6.23h0a55,55,0,0,1-5,15.23L341,455.49a48.56,48.56,0,0,0,2.38-5.35h0c-2.71-8.09-5.56-15.12-9.14-21l5.44,2.13a124.82,124.82,0,0,1,5.57,13.11c.23-1.27.61-2.29.8-3.33h0a45.6,45.6,0,0,0,.74-7l3.53,1.39Zm-76.85,1.52-5.78-2.26a36,36,0,0,1-3.24-9.16l4.26,1.67a31.7,31.7,0,0,0,4.76,9.75Zm17.67,6.92-5.73-2.24a8.17,8.17,0,0,0,4.23-1.27,9.23,9.23,0,0,0,3.12-3.74l3.54,1.38a12.21,12.21,0,0,1-4.65,5.57,3.54,3.54,0,0,1-.51.3ZM329.79,459l-6.42-2.52a20.15,20.15,0,0,0-7.72-4.48,12.06,12.06,0,0,1-.82,1.14l-3.7-1.45c.51-.71,1-1.46,1.57-2.22a30.77,30.77,0,0,0-.51-5.26l4,1.56c.11.75.15,1.57.19,2.4a22.1,22.1,0,0,1,11.84,8.13,17.15,17.15,0,0,1,1.6,2.7Zm-85-33.27c.09-1.18.28-2.33.47-3.52h0c.24-1.31.53-2.62.85-3.86l3.58,1.4c-.28,1-.48,2.09-.7,3.17h0c-.23,1.42-.41,2.83-.54,4.24l-3.66-1.43Zm99.72,31.16a57.49,57.49,0,0,1-3.82,6.4l-3.67-1.44a44,44,0,0,0,4-6.35l3.53,1.39Zm-70-10.06-3.5-1.38a33.79,33.79,0,0,0,1.62-3.65,32.63,32.63,0,0,1-5-7.11l5.78,2.26c.53.71,1.07,1.38,1.63,2l.61.33c3.83,1.65,7,2.46,9.71,2.34l5.72,2.24c-3.8,2.26-8.77,2.08-15.13-.36-.48,1.18-1,2.31-1.48,3.32Zm34.35,13.46L305,458.75a58.18,58.18,0,0,0,6.1-7.08l3.7,1.45a65.21,65.21,0,0,1-5.92,7.15Zm-64.31-25.2a53.33,53.33,0,0,1,.24-9.36l3.66,1.43a51.55,51.55,0,0,0,0,9.46l-3.88-1.53Zm96.14,28.2a52.78,52.78,0,0,1-5.89,7.16l-6.59-2.59a18,18,0,0,0-3.05-9.29,18.46,18.46,0,0,0-1.84-2.09l6.42,2.52a23.25,23.25,0,0,1,2.09,9,48,48,0,0,0,5.19-6.11l3.67,1.44Zm-5.89,7.16a56.43,56.43,0,0,1-7,5.95,51.82,51.82,0,0,1-39.71,8.84h0a48.42,48.42,0,0,1-9.43-2.68l-.3-.12A53.21,53.21,0,0,1,254,462.65a55.61,55.61,0,0,1-9.41-27.58l3.88,1.53a51.4,51.4,0,0,0,3.21,13.76c5,3.12,9.15,3.93,12.65,2.37,2.51-1,4.77-3.5,6.72-7.29l3.5,1.37c-2.4,4.83-5.25,8-8.74,9.49s-7.32,1.47-11.46-.4a29.81,29.81,0,0,0,2.8,4.69,48.33,48.33,0,0,0,8.18,9.44,41.15,41.15,0,0,0,7.35.69,35.67,35.67,0,0,0,7.32-.16,40.79,40.79,0,0,0,25-11.81l3.88,1.52a46,46,0,0,1-28.48,14.09,46.78,46.78,0,0,1-8,.27,2.39,2.39,0,0,0-1.09,0,51.85,51.85,0,0,0,17.42,6.77h0a48.3,48.3,0,0,0,36.77-8.1c1-.68,2-1.59,3-2.28l-.19,0c0-1.11,0-2.19-.1-3.18l6.6,2.58Z" transform="translate(-7.07 -105.76)"/></svg>