<svg id="Capa_1" data-name="Capa 1" xmlns="http://www.w3.org/2000/svg" viewBox="0 0 487.38 622.64"><defs><style>.cls-1,.cls-4{fill:#2d5ca8;}.cls-2{fill:#fdfdfb;}.cls-3{fill:#f6faf4;}.cls-4{font-size:70.7px;font-family:Haettenschweiler;letter-spacing:0.07em;}.cls-5{fill:#2d5ba7;}.cls-6{fill:#936037;stroke:#1d1d1b;stroke-miterlimit:10;stroke-width:0.69px;}.cls-6,.cls-7{fill-rule:evenodd;}.cls-7{fill:#331f11;}.cls-8{fill:#f9fcf8;}.cls-9{fill:#e7352c;}.cls-10{fill:none;stroke:#2d5ba7;stroke-linejoin:round;stroke-width:12.48px;}</style></defs><path class="cls-1" d="M76.07,441.28c-6.64,18.51-11.44,32.58-13.75,49.91-1.68,12.59-5.73,46,9.7,81.8,15.6,36.22,42.81,55.76,58.23,66.54,3.2,2.24,5.84,3.94,8.32,5.37V441.28Z" transform="translate(-54.31 -114.6)"/><path class="cls-1" d="M533.68,491.19c-2.31-17.33-7.11-31.4-13.75-49.91h-62.5V644.9c2.48-1.43,5.12-3.13,8.32-5.37C481.17,628.75,508.38,609.21,524,573,539.41,537.15,535.36,503.78,533.68,491.19Z" transform="translate(-54.31 -114.6)"/><path class="cls-1" d="M184.32,441.28V664.41c8.82,3.88,19.67,8.83,33.27,15.33,24.61,11.75,40,19.86,55.46,30.9V441.28Z" transform="translate(-54.31 -114.6)"/><path class="cls-2" d="M184.32,441.28H138.57V644.9c9.87,5.68,17.05,6.9,45.75,19.51Z" transform="translate(-54.31 -114.6)"/><path class="cls-2" d="M298,441.28H273.05V710.64c2.3,1.64,4.6,3.35,6.93,5.14,6.81,5.25,12.81,10.41,18,15.22,5.21-4.81,11.21-10,18-15.22,2.33-1.79,4.63-3.5,6.93-5.14V441.28Z" transform="translate(-54.31 -114.6)"/><path class="cls-1" d="M323,710.64c15.44-11,30.85-19.15,55.46-30.9,13.6-6.5,24.45-11.45,33.27-15.33V441.28H323Z" transform="translate(-54.31 -114.6)"/><path class="cls-2" d="M411.68,441.28V664.41c28.7-12.61,35.88-13.83,45.75-19.51V441.28Z" transform="translate(-54.31 -114.6)"/><path class="cls-3" d="M518.43,437.12c-9.42-26.19-14.88-32.8-22.18-58.22-1.84-6.4-3.49-12.22-4.84-18H104.59c-1.35,5.81-3,11.63-4.84,18-7.3,25.42-12.76,32-22.18,58.22l-1.5,4.16H519.93Z" transform="translate(-54.31 -114.6)"/><text class="cls-4" transform="translate(70.57 311.23)">C.D. ARRECIFE</text><path class="cls-5" d="M108.07,335.92A168.8,168.8,0,0,0,101.14,286c-7.91-26.19-24.39-49.49-40.59-67.55l51.59-51.6c28.72,10.67,66.2,18,104.06,6.85,36.46-10.77,65.16-36,65.16-36A171.35,171.35,0,0,0,298,120.83v240H104.59A131,131,0,0,0,108.07,335.92Z" transform="translate(-54.31 -114.6)"/><path class="cls-6" d="M216.86,226.89c27.73,5.15,46.2,32.49,41.17,60.9-5,28.16-31.65,47.09-59.42,41.92s-46.2-32.49-41.19-60.7c5-28.37,31.67-47.29,59.44-42.12Z" transform="translate(-54.31 -114.6)"/><path class="cls-7" d="M217.18,225h0a49.75,49.75,0,0,1,9.41,2.67l.3.12a53.44,53.44,0,0,1,24.4,19.77,54.67,54.67,0,0,1,9.15,34.31l-3.53-1.38a52.26,52.26,0,0,0-8.8-30.89,48.87,48.87,0,0,0-31.6-20.82h0c-1.2-.21-2.45-.45-3.52-.62-3.9,2.77-6.21,6.06-6.81,9.66-.88,3.55-.1,7.65,2.09,12.24,14.53,1.4,24.53,6.33,32,13.85a57.21,57.21,0,0,1,9.55,13.8l-5.43-2.13a47,47,0,0,0-6.76-8.86c-6.91-7-16.15-11.58-29.77-13a18.75,18.75,0,0,0-2.9,6.45l-3.49-1.37a19.58,19.58,0,0,1,3.33-7.18c-2.47-5.27-3.37-10-2.36-14.42a17.77,17.77,0,0,1,5-9.15,48.45,48.45,0,0,0-26.22,7.83l0,.19s0,.24-.06.43a13.24,13.24,0,0,0-.72,2.7c-.87,3.65-1.58,7.16-2.1,10.55l-3.62-1.42c.47-2.85,1.08-5.8,1.79-8.75a53.77,53.77,0,0,0-6.79,6.79l-3.7-1.44a54.09,54.09,0,0,1,11.53-11.06A51.6,51.6,0,0,1,217.18,225Zm-38.25,48.65L174.67,272a40.84,40.84,0,0,1-.76-5.51,67.46,67.46,0,0,1,.82-18.17l3.62,1.42a66.89,66.89,0,0,0-.73,16.34,36.92,36.92,0,0,0,1.31,7.59Zm47.36,18.55-4-1.56a18.67,18.67,0,0,0-3.57-8.16A19.16,19.16,0,0,0,208.57,276a29.37,29.37,0,0,1-2.09,8.48L203,283.05A25.1,25.1,0,0,0,205,274.2a18.9,18.9,0,0,1-4-11.26,15.47,15.47,0,0,1,.42-4.18l3.49,1.37a11.27,11.27,0,0,0-.25,2.63,18.13,18.13,0,0,0,3.12,9.1,23.64,23.64,0,0,1,13.76,8.08,24.08,24.08,0,0,1,4.71,12.25ZM156.38,264.8A54.67,54.67,0,0,1,166,244.88l3.7,1.45A50.19,50.19,0,0,0,160,266.2l-3.57-1.4Zm104.06,17.06a55,55,0,0,1-.75,6.22h0a54.87,54.87,0,0,1-5,15.21l-3.53-1.38a45.74,45.74,0,0,0,2.39-5.33h0c-2.71-8.08-5.56-15.11-9.13-21l5.43,2.13a124.44,124.44,0,0,1,5.56,13.09c.23-1.27.61-2.29.8-3.33h0a45.35,45.35,0,0,0,.74-7l3.53,1.38Zm-76.76,1.52-5.77-2.25a36.11,36.11,0,0,1-3.24-9.15l4.26,1.66a31.85,31.85,0,0,0,4.75,9.74Zm17.65,6.92-5.72-2.24a8.14,8.14,0,0,0,4.22-1.28,9.13,9.13,0,0,0,3.12-3.73l3.53,1.38a12.25,12.25,0,0,1-4.64,5.57,4.79,4.79,0,0,1-.51.3Zm38.57,15.1-6.41-2.51a20.11,20.11,0,0,0-7.71-4.48,12.06,12.06,0,0,1-.82,1.14l-3.7-1.44c.51-.72,1-1.46,1.57-2.22a31.86,31.86,0,0,0-.5-5.26l4,1.56c.11.75.15,1.57.19,2.39a22.14,22.14,0,0,1,11.82,8.12,15.75,15.75,0,0,1,1.6,2.7Zm-84.84-33.23c.09-1.18.27-2.32.47-3.51h0c.24-1.31.53-2.62.85-3.86l3.57,1.4c-.28,1-.48,2.09-.7,3.17h0c-.23,1.42-.4,2.82-.54,4.23l-3.65-1.43Zm99.59,31.12a54.13,54.13,0,0,1-3.81,6.39l-3.67-1.43a43.9,43.9,0,0,0,4-6.34l3.52,1.38Zm-69.91-10.05-3.49-1.37a35.9,35.9,0,0,0,1.61-3.65,32.7,32.7,0,0,1-5-7.09l5.77,2.25c.53.71,1.07,1.38,1.63,2l.61.34c3.82,1.65,7,2.45,9.69,2.33l5.72,2.24c-3.8,2.26-8.76,2.08-15.11-.36-.49,1.18-1,2.31-1.48,3.31ZM219,306.69l-3.87-1.52a57,57,0,0,0,6.09-7.06l3.7,1.44a62,62,0,0,1-5.92,7.14Zm-64.22-25.17a53.23,53.23,0,0,1,.23-9.35l3.66,1.43a52.34,52.34,0,0,0,0,9.45l-3.87-1.53Zm96,28.16a52.71,52.71,0,0,1-5.88,7.16l-6.59-2.58a18,18,0,0,0-3-9.28,17.63,17.63,0,0,0-1.84-2.09l6.41,2.51a23.25,23.25,0,0,1,2.09,9,48.73,48.73,0,0,0,5.19-6.11l3.66,1.43ZM245,316.84a55.5,55.5,0,0,1-7,5.94,51.73,51.73,0,0,1-39.66,8.83h0a48.22,48.22,0,0,1-9.41-2.68l-.3-.11a53.11,53.11,0,0,1-24.36-19.75,55.48,55.48,0,0,1-9.4-27.54l3.87,1.52a51.17,51.17,0,0,0,3.21,13.74c5,3.12,9.14,3.93,12.64,2.37,2.5-1,4.76-3.49,6.71-7.28l3.49,1.37c-2.4,4.83-5.24,7.95-8.73,9.47s-7.31,1.48-11.44-.39a28.92,28.92,0,0,0,2.79,4.68,47.94,47.94,0,0,0,8.18,9.43,40.85,40.85,0,0,0,7.33.69,34.87,34.87,0,0,0,7.31-.17,40.65,40.65,0,0,0,25-11.79l3.87,1.52a45.9,45.9,0,0,1-28.45,14.07,47.59,47.59,0,0,1-7.94.28,2.3,2.3,0,0,0-1.1,0A52.28,52.28,0,0,0,199,327.83h0a48.24,48.24,0,0,0,36.72-8.1c1-.67,2-1.58,3-2.27l-.19,0c0-1.11,0-2.19-.1-3.18l6.59,2.58Z" transform="translate(-54.31 -114.6)"/><path class="cls-8" d="M487.93,335.92A168.8,168.8,0,0,1,494.86,286c7.91-26.19,24.39-49.49,40.59-67.55l-51.59-51.6c-28.72,10.67-66.2,18-104.06,6.85-36.46-10.77-65.16-36-65.16-36A171.35,171.35,0,0,1,298,120.83v240H491.41A131,131,0,0,1,487.93,335.92Z" transform="translate(-54.31 -114.6)"/><polygon class="cls-9" points="408.67 133.98 361.53 133.98 361.53 86.84 313.01 86.84 313.01 133.98 265.87 133.98 265.87 182.5 313.01 182.5 313.01 229.64 361.53 229.64 361.53 182.5 408.67 182.5 408.67 133.98"/><path class="cls-8" d="M298,148.79q1.89,1.74,3.81,3.44l0,0c1.78,1.69,3.8,3.26,5.92,4.91,4.75,3.7,9.85,7.33,15.16,10.8,17.15,11.21,34.43,19.42,51.37,24.43a158.73,158.73,0,0,0,45,6.37,198.68,198.68,0,0,0,59.36-9.56l30.48,30.48c-15.72,20.11-26.75,40.49-32.88,60.78a188.22,188.22,0,0,0-7.74,56.33,150.89,150.89,0,0,0,4,28.53c1.42,6.13,3.07,12,5.09,19a259,259,0,0,0,12.88,35.26c2.94,6.81,6,13.85,9.69,24.19l1.49,4.14c6.4,17.82,10.74,30.65,12.78,45.92,1.32,9.87,5.33,39.91-8.29,71.55-13.73,31.89-38.31,49.08-51.52,58.32-2.71,1.89-4.89,3.3-6.88,4.44-4,2.31-7.55,3.7-14.59,6.45-6.56,2.57-15.55,6.09-29.29,12.13-10.21,4.48-21.27,9.58-33.82,15.57-24.89,11.89-41.56,20.61-58.38,32.63-2.51,1.79-5,3.66-7.49,5.56-2.07,1.59-4.14,3.23-6.18,4.9-2-1.67-4.11-3.31-6.18-4.91-2.47-1.89-5-3.76-7.49-5.55-16.82-12-33.49-20.74-58.38-32.63-12.55-6-23.61-11.09-33.82-15.57-13.74-6-22.73-9.56-29.29-12.13-7-2.75-10.58-4.14-14.59-6.45-2-1.14-4.17-2.55-6.88-4.44-13.21-9.24-37.79-26.43-51.52-58.32-13.62-31.64-9.61-61.68-8.29-71.55,2-15.27,6.38-28.1,12.78-45.92l1.49-4.14c3.72-10.34,6.75-17.38,9.69-24.19a259,259,0,0,0,12.88-35.26c2-7,3.67-12.86,5.1-19a151.66,151.66,0,0,0,4-28.54,188.2,188.2,0,0,0-7.74-56.32c-6.13-20.29-17.16-40.67-32.88-60.78l30.48-30.48a198.68,198.68,0,0,0,59.36,9.56,158.73,158.73,0,0,0,45-6.37c16.94-5,34.22-13.22,51.37-24.43,5.31-3.47,10.41-7.1,15.16-10.8,2.12-1.65,4.14-3.22,5.92-4.91l0,0q1.92-1.69,3.81-3.44m0-28a171.35,171.35,0,0,1-16.64,16.84s-28.7,25.27-65.16,36a139.06,139.06,0,0,1-39.52,5.58c-23.67,0-45.94-5.52-64.54-12.43l-51.59,51.6c16.2,18.06,32.68,41.36,40.59,67.55a168.8,168.8,0,0,1,6.93,49.91,131,131,0,0,1-3.48,24.95c-1.35,5.81-3,11.63-4.84,18-7.3,25.42-12.76,32-22.18,58.22l-1.5,4.16c-6.64,18.51-11.44,32.58-13.75,49.91-1.68,12.59-5.73,46,9.7,81.8,15.6,36.22,42.81,55.76,58.23,66.54,3.2,2.24,5.84,3.94,8.32,5.37,9.87,5.68,17.05,6.9,45.75,19.51,8.82,3.88,19.67,8.83,33.27,15.33,24.61,11.75,40,19.86,55.46,30.9,2.3,1.64,4.6,3.35,6.93,5.14,6.81,5.25,12.81,10.41,18,15.22,5.21-4.81,11.21-10,18-15.22,2.33-1.79,4.63-3.5,6.93-5.14,15.44-11,30.85-19.15,55.46-30.9,13.6-6.5,24.45-11.45,33.27-15.33,28.7-12.61,35.88-13.83,45.75-19.51,2.48-1.43,5.12-3.13,8.32-5.37C481.17,628.75,508.38,609.21,524,573c15.43-35.84,11.38-69.21,9.7-81.8-2.31-17.33-7.11-31.4-13.75-49.91l-1.5-4.16c-9.42-26.19-14.88-32.8-22.18-58.22-1.84-6.4-3.49-12.22-4.84-18a131,131,0,0,1-3.48-24.95A168.8,168.8,0,0,1,494.86,286c7.91-26.19,24.39-49.49,40.59-67.55l-51.59-51.6c-18.6,6.91-40.87,12.43-64.54,12.43a138.7,138.7,0,0,1-39.52-5.58c-36.46-10.77-65.16-36-65.16-36A171.35,171.35,0,0,1,298,120.83Z" transform="translate(-54.31 -114.6)"/><path class="cls-10" d="M519.93,441.28l-1.5-4.16c-9.42-26.19-14.88-32.8-22.18-58.22-1.84-6.4-3.49-12.22-4.84-18a131,131,0,0,1-3.48-24.95A168.8,168.8,0,0,1,494.86,286c7.91-26.19,24.39-49.49,40.59-67.55l-51.59-51.6c-28.72,10.67-66.2,18-104.06,6.85-36.46-10.77-65.16-36-65.16-36A171.35,171.35,0,0,1,298,120.83a171.35,171.35,0,0,1-16.64,16.84s-28.7,25.27-65.16,36c-37.86,11.19-75.34,3.82-104.06-6.85l-51.59,51.6c16.2,18.06,32.68,41.36,40.59,67.55a168.8,168.8,0,0,1,6.93,49.91,131,131,0,0,1-3.48,24.95c-1.35,5.81-3,11.63-4.84,18-7.3,25.42-12.76,32-22.18,58.22l-1.5,4.16c-6.64,18.51-11.44,32.58-13.75,49.91-1.68,12.59-5.73,46,9.7,81.8,15.6,36.22,42.81,55.76,58.23,66.54,3.2,2.24,5.84,3.94,8.32,5.37,9.87,5.68,17.05,6.9,45.75,19.51,8.82,3.88,19.67,8.83,33.27,15.33,24.61,11.75,40,19.86,55.46,30.9,2.3,1.64,4.6,3.35,6.93,5.14,6.81,5.25,12.81,10.41,18,15.22,5.21-4.81,11.21-10,18-15.22,2.33-1.79,4.63-3.5,6.93-5.14,15.44-11,30.85-19.15,55.46-30.9,13.6-6.5,24.45-11.45,33.27-15.33,28.7-12.61,35.88-13.83,45.75-19.51,2.48-1.43,5.12-3.13,8.32-5.37C481.17,628.75,508.38,609.21,524,573c15.43-35.84,11.38-69.21,9.7-81.8C531.37,473.86,526.57,459.79,519.93,441.28Z" transform="translate(-54.31 -114.6)"/></svg>