<svg id="Capa_1" data-name="Capa 1" xmlns="http://www.w3.org/2000/svg" viewBox="0 0 573.92 714.12"><defs><style>.cls-1{fill:#c71617;}.cls-2{fill:#1b67b1;}.cls-10,.cls-3,.cls-8{fill:#1d1d1b;}.cls-4{fill:#f2f9fb;}.cls-5{fill:#8a8a8a;}.cls-6{fill:#0d9a39;}.cls-7{fill:#fff;}.cls-7,.cls-8{fill-rule:evenodd;}.cls-9{fill:#fde909;stroke-width:10.02px;}.cls-14,.cls-9{stroke:#1d1d1b;stroke-linejoin:round;}.cls-10{font-size:87.64px;font-family:TwCenMT-CondensedBold, Tw Cen MT Condensed;font-weight:700;}.cls-11{letter-spacing:0.01em;}.cls-12{letter-spacing:-0.05em;}.cls-13{letter-spacing:-0.04em;}.cls-14{fill:none;stroke-width:12.52px;}</style></defs><path class="cls-1" d="M546.7,469.1l.12-.32H49.18a528.21,528.21,0,0,0,28.46,66.36c7.86,15.3,33.14,62.66,79,115.6,53.61-14.53,113.77-35.71,178.89-63C413.06,555.22,450.63,536.44,546.7,469.1Z" transform="translate(-11.04 -63.14)"/><path d="M335.56,587.72c-65.12,27.31-125.28,48.49-178.89,63q3.6,4.15,7.36,8.35A616,616,0,0,0,298,771,616,616,0,0,0,432,659.09c50.58-56.25,78.12-107.85,86.39-124a526.23,526.23,0,0,0,28.34-66C450.63,536.44,413.06,555.22,335.56,587.72Z" transform="translate(-11.04 -63.14)"/><path class="cls-2" d="M300.5,383.64V79.83a389.08,389.08,0,0,0,26.76,43.58c43.32,61.1,94.65,95.28,114.7,107.13,40.61,24,85.76,39.47,134.23,46a605.24,605.24,0,0,1-9.53,107.14Z" transform="translate(-11.04 -63.14)"/><path class="cls-3" d="M303,89.69a388.78,388.78,0,0,0,22.21,35.17c42,59.28,90.38,93,115.47,107.84,40.29,23.82,85,39.28,133,46a602.56,602.56,0,0,1-9.12,102.46H303V89.69M298,69.4V386.14H568.74a607.19,607.19,0,0,0,10-111.84c-39.9-5.11-87.7-17.68-135.46-45.91C429.29,220.14,375.36,186.92,329.3,122A386.16,386.16,0,0,1,298,69.4Z" transform="translate(-11.04 -63.14)"/><path d="M416.94,349.84c-2.92.09-5.85.16-8.76.23v1h-5v-.92c-10.77.2-21.36.31-31.54.74l-17.29,5.19,12.74,10H474.54l6.22-13.34-24.82-3.08C443.37,349.39,430.37,349.41,416.94,349.84Z" transform="translate(-11.04 -63.14)"/><path class="cls-4" d="M438.23,313.53c-12.24-18.47-14.3-36.65-15-43.83a101.43,101.43,0,0,1-.19-18.36L404.8,276h3.38v74.1c2.91-.07,5.84-.14,8.76-.23,13.43-.43,26.43-.45,39-.15q13.9.33,27.08,1.14C472.55,346.67,452.06,334.4,438.23,313.53Z" transform="translate(-11.04 -63.14)"/><path class="cls-4" d="M348,352.77c7.52-1,15.43-1.51,23.6-1.86,10.18-.43,20.77-.54,31.54-.74v-72Z" transform="translate(-11.04 -63.14)"/><path class="cls-5" d="M404.8,276l-1.63,2.2v72l5-.1V276Z" transform="translate(-11.04 -63.14)"/><path class="cls-6" d="M29.34,383.64A605.41,605.41,0,0,1,19.81,276.5c48.47-6.49,93.62-21.95,134.23-46,20.05-11.85,71.38-46,114.7-107.13A390,390,0,0,0,295.5,79.83V383.64Z" transform="translate(-11.04 -63.14)"/><path class="cls-3" d="M293,89.69V381.14H31.44a602.56,602.56,0,0,1-9.12-102.46c48-6.7,92.7-22.16,133-46,25.09-14.83,73.44-48.56,115.47-107.84A388.78,388.78,0,0,0,293,89.69m5-20.29A386.16,386.16,0,0,1,266.7,122c-46.06,65-100,98.18-113.94,106.43C105,256.62,57.2,269.19,17.3,274.3a607.19,607.19,0,0,0,10,111.84H298V69.4Z" transform="translate(-11.04 -63.14)"/><path class="cls-3" d="M221.63,234.65v37l-83.2,83.19h-37v12.52H234.15V234.65Zm0,120.19H150.82L221.63,284Z" transform="translate(-11.04 -63.14)"/><path class="cls-7" d="M182.8,270.91c20.66,3.84,34.42,24.22,30.67,45.38-3.72,21-23.58,35.09-44.28,31.24s-34.42-24.21-30.69-45.23,23.6-35.24,44.3-31.39Z" transform="translate(-11.04 -63.14)"/><path class="cls-8" d="M183,269.5h0a36.6,36.6,0,0,1,7,2l.22.09a39.71,39.71,0,0,1,18.18,14.73,40.69,40.69,0,0,1,6.82,25.57l-2.63-1a39,39,0,0,0-6.56-23,36.41,36.41,0,0,0-23.55-15.52h0c-.89-.16-1.82-.33-2.62-.46-2.9,2.07-4.63,4.52-5.07,7.2-.66,2.64-.08,5.7,1.55,9.12,10.83,1.05,18.28,4.72,23.84,10.32a42.83,42.83,0,0,1,7.12,10.28l-4-1.58a35.42,35.42,0,0,0-5-6.61c-5.15-5.21-12-8.63-22.19-9.7a14,14,0,0,0-2.16,4.8l-2.6-1a14.53,14.53,0,0,1,2.48-5.35c-1.84-3.93-2.51-7.47-1.76-10.75a13.19,13.19,0,0,1,3.76-6.81,36.11,36.11,0,0,0-19.54,5.83v.14s0,.18-.05.32a9.3,9.3,0,0,0-.53,2c-.65,2.72-1.18,5.33-1.57,7.86l-2.7-1.06c.35-2.12.81-4.32,1.34-6.52a39,39,0,0,0-5.06,5.06l-2.76-1.08a40.28,40.28,0,0,1,8.59-8.23A38.44,38.44,0,0,1,183,269.5Zm-28.5,36.25-3.17-1.24a30.35,30.35,0,0,1-.57-4.11,50.46,50.46,0,0,1,.61-13.54l2.7,1.05a50,50,0,0,0-.55,12.18,28.35,28.35,0,0,0,1,5.66Zm35.29,13.82-2.95-1.16a14,14,0,0,0-2.66-6.08,14.29,14.29,0,0,0-7.59-4.86,22,22,0,0,1-1.56,6.32l-2.63-1a18.74,18.74,0,0,0,1.54-6.59,14.08,14.08,0,0,1-3-8.39,11.26,11.26,0,0,1,.31-3.12l2.6,1a8.23,8.23,0,0,0-.18,2,13.48,13.48,0,0,0,2.32,6.79,17.55,17.55,0,0,1,10.25,6,18,18,0,0,1,3.51,9.13Zm-52.09-20.41a40.54,40.54,0,0,1,7.19-14.84l2.76,1.08a37.28,37.28,0,0,0-7.29,14.81l-2.66-1Zm77.54,12.71a40.51,40.51,0,0,1-.56,4.64h0A40.76,40.76,0,0,1,211,327.85l-2.63-1a34.83,34.83,0,0,0,1.77-4h0a77.91,77.91,0,0,0-6.8-15.65l4,1.58a91.8,91.8,0,0,1,4.14,9.76c.17-.95.46-1.7.6-2.48h0a33.28,33.28,0,0,0,.55-5.21l2.63,1ZM158.07,313l-4.3-1.68a26.61,26.61,0,0,1-2.41-6.82l3.17,1.24a23.68,23.68,0,0,0,3.54,7.26Zm13.15,5.15L167,316.49a6.06,6.06,0,0,0,3.15-.95,6.83,6.83,0,0,0,2.32-2.78l2.63,1a9.08,9.08,0,0,1-3.46,4.15,2.48,2.48,0,0,1-.38.22ZM200,329.42l-4.78-1.87a15.07,15.07,0,0,0-5.74-3.34,9.66,9.66,0,0,1-.62.85L186.08,324l1.17-1.65a23.06,23.06,0,0,0-.38-3.92l2.95,1.16a16.66,16.66,0,0,1,.14,1.79,16.36,16.36,0,0,1,8.81,6.05,12.14,12.14,0,0,1,1.2,2Zm-63.23-24.76c.07-.88.21-1.73.35-2.62h0c.18-1,.4-2,.64-2.88l2.66,1c-.21.74-.36,1.55-.52,2.36h0c-.17,1.06-.3,2.1-.41,3.15l-2.72-1.06ZM211,327.85a41,41,0,0,1-2.85,4.76l-2.72-1.07a33.47,33.47,0,0,0,2.94-4.72l2.63,1Zm-52.1-7.49-2.6-1a26.7,26.7,0,0,0,1.2-2.72,24.7,24.7,0,0,1-3.69-5.29l4.3,1.68c.39.53.8,1,1.21,1.49l.46.25a17,17,0,0,0,7.22,1.74l4.27,1.67c-2.84,1.68-6.54,1.55-11.27-.27-.36.88-.71,1.72-1.1,2.47Zm25.56,10-2.88-1.13a44.22,44.22,0,0,0,4.54-5.27l2.75,1.08a47.56,47.56,0,0,1-4.41,5.32Zm-47.86-18.75a39.66,39.66,0,0,1,.18-7l2.72,1.06a38.51,38.51,0,0,0,0,7l-2.89-1.13Zm71.55,21a38.1,38.1,0,0,1-4.38,5.33l-4.9-1.92a13.44,13.44,0,0,0-2.27-6.92,12.75,12.75,0,0,0-1.37-1.55l4.78,1.87a17.27,17.27,0,0,1,1.55,6.67,36.49,36.49,0,0,0,3.87-4.55l2.72,1.07Zm-4.38,5.33a41.33,41.33,0,0,1-5.22,4.43A38.54,38.54,0,0,1,169,349h0a36.51,36.51,0,0,1-7-2l-.22-.08a39.64,39.64,0,0,1-18.15-14.72,41.38,41.38,0,0,1-7-20.52l2.89,1.13A38.23,38.23,0,0,0,141.84,323c3.73,2.33,6.81,2.93,9.42,1.77,1.86-.78,3.54-2.6,5-5.43l2.6,1c-1.79,3.6-3.91,5.93-6.5,7.06a10,10,0,0,1-8.53-.29,21.88,21.88,0,0,0,2.08,3.49,35.58,35.58,0,0,0,6.09,7,29.91,29.91,0,0,0,5.47.52,26,26,0,0,0,5.45-.13,30.29,30.29,0,0,0,18.61-8.78l2.89,1.13a35.46,35.46,0,0,1-27.12,10.69,1.76,1.76,0,0,0-.82,0,38.9,38.9,0,0,0,13,5h0a35.91,35.91,0,0,0,27.37-6c.74-.51,1.51-1.19,2.22-1.7h-.14c0-.83,0-1.63-.08-2.37l4.91,1.92Z" transform="translate(-11.04 -63.14)"/><path class="cls-9" d="M298,386.14H27.26a555.12,555.12,0,0,0,21.92,82.64H546.82a555.12,555.12,0,0,0,21.92-82.64Z" transform="translate(-11.04 -63.14)"/><text class="cls-10" transform="translate(49.18 391.64) scale(0.9 1)"><tspan class="cls-11">C</tspan><tspan x="39.24" y="0">.</tspan><tspan class="cls-12" x="59.31" y="0">D</tspan><tspan x="99.45" y="0">.</tspan><tspan class="cls-13" x="119.52" y="0">O</tspan><tspan x="161.51" y="0">. MARITIMA</tspan></text><path class="cls-3" d="M443.24,228.39C429.29,220.14,375.36,186.92,329.3,122A386.16,386.16,0,0,1,298,69.4v.13a386.83,386.83,0,0,1-31.3,52.57c-46.06,65-100,98.17-113.94,106.42C105,256.75,57.2,269.32,17.3,274.43c0,3.12,0,6.31.06,9.54,42.44-1.69,88.76-10.49,132.9-32.91,57.6-29.26,107.29-79.58,113.94-86.4A479.24,479.24,0,0,0,298,126.09V126a479.24,479.24,0,0,0,33.8,38.57c6.65,6.82,56.34,57.14,113.94,86.39,44.14,22.43,90.46,31.22,132.9,32.92,0-3.23.06-6.42.06-9.54C538.8,269.19,491,256.62,443.24,228.39Z" transform="translate(-11.04 -63.14)"/><path class="cls-14" d="M443.24,228.39C429.29,220.14,375.36,186.92,329.3,122A386.16,386.16,0,0,1,298,69.4,386.16,386.16,0,0,1,266.7,122c-46.06,65-100,98.18-113.94,106.43C105,256.62,57.2,269.19,17.3,274.3a607.19,607.19,0,0,0,10,111.84,555.12,555.12,0,0,0,21.92,82.64,528.21,528.21,0,0,0,28.46,66.36c7.86,15.3,33.14,62.66,79,115.6q3.6,4.15,7.36,8.35A616,616,0,0,0,298,771,616,616,0,0,0,432,659.09c50.58-56.25,78.12-107.85,86.39-124a526.23,526.23,0,0,0,28.34-66l.12-.32a555.12,555.12,0,0,0,21.92-82.64,607.19,607.19,0,0,0,10-111.84C538.8,269.19,491,256.62,443.24,228.39Z" transform="translate(-11.04 -63.14)"/></svg>