<svg id="Capa_1" data-name="Capa 1" xmlns="http://www.w3.org/2000/svg" viewBox="0 0 568.92 629.12"><defs><style>.cls-1{fill:#fff;}.cls-2,.cls-3,.cls-5{fill:none;}.cls-2,.cls-3{stroke:#000;stroke-width:8.6px;}.cls-2,.cls-5{stroke-miterlimit:10;}.cls-3{stroke-linejoin:bevel;}.cls-4{fill:#179938;}.cls-5{stroke:#3d3f25;stroke-width:6.69px;}.cls-6{fill:#dfc903;}.cls-6,.cls-7{fill-rule:evenodd;}.cls-7{fill:#3d3f25;}</style></defs><polygon class="cls-1" points="284.46 621.77 452.78 291.93 116.14 291.93 284.46 621.77"/><polyline class="cls-2" points="180.25 316.3 164.63 316.3 140.94 316.3"/><polyline class="cls-2" points="164.07 316.3 164.07 331.11 288.28 570.93"/><polyline class="cls-2" points="223.09 316.3 190.33 316.3 190.33 332.01 302.14 541.79 313.6 520.77"/><line class="cls-2" x1="260.1" y1="424.27" x2="239.5" y2="424.27"/><polyline class="cls-2" points="260.1 316.3 239.5 316.3 239.5 331.51 326.02 494.97 337.01 474.43 310.28 429.04"/><polyline class="cls-2" points="271.98 316.3 345.56 456.85 357.08 435.25 292.64 316.3"/><line class="cls-2" x1="314.53" y1="316.72" x2="367.59" y2="419.01"/><polyline class="cls-3" points="366.63 328.99 357.08 316.3 338 316.3 338 328.99 349.43 347.35 357.08 352.67 366.63 349.15 372.37 349.26 387.65 372.19 387.65 382.41 378.1 397.04 369.5 392.26 362.83 376.87"/><polyline class="cls-2" points="404.53 316.3 379.33 316.72 379.33 325.96 398.48 356.67 408.67 341.62"/><line class="cls-2" x1="394" y1="331" x2="382.47" y2="331"/><polygon class="cls-4" points="97.62 255.62 471.31 255.62 493.74 211.67 75.19 211.67 97.62 255.62"/><polygon class="cls-1" points="56.66 175.36 75.19 211.67 493.74 211.67 512.26 175.36 56.66 175.36"/><polygon class="cls-1" points="116.14 291.93 452.78 291.93 471.31 255.62 97.62 255.62 116.14 291.93"/><polygon class="cls-4" points="563.46 75.04 284.46 75.04 5.46 75.04 56.66 175.36 512.26 175.36 563.46 75.04"/><path class="cls-1" d="M157.3,255.76c-1.8,1.12-6,2.4-11.36,2.4-15.38,0-23.32-12-23.32-27.85,0-18.94,10.86-29.43,24.28-29.43,5.22,0,9.19,1.28,10.94,2.47l-2.05,9.93a17.45,17.45,0,0,0-8.44-2.09c-7.93,0-14.14,6-14.14,18.39,0,11.13,5.25,18.13,14.19,18.13a20,20,0,0,0,8.41-1.8Z" transform="translate(-13.54 -103.95)"/><path class="cls-1" d="M430,202.51a71,71,0,0,1,13.54-1.2c8.44,0,13.94,1.95,18.2,6,4.62,4.3,7.51,11.08,7.51,20.9,0,10.64-3.08,18-7.34,22.5-4.68,4.87-11.84,7.19-20.5,7.19a67.6,67.6,0,0,1-11.41-.82Zm10,45.33a18.56,18.56,0,0,0,3.51.22c9.1.09,15.08-6.19,15.08-19.47,0-11.54-5.39-17.61-14-17.61a17.51,17.51,0,0,0-4.56.48Z" transform="translate(-13.54 -103.95)"/><polygon class="cls-5" points="97.62 255.62 471.31 255.62 493.74 211.67 75.19 211.67 97.62 255.62"/><polygon class="cls-5" points="563.46 75.04 284.46 75.04 5.46 75.04 56.66 175.36 512.26 175.36 563.46 75.04"/><polygon class="cls-5" points="284.46 621.77 452.78 291.93 116.14 291.93 284.46 621.77"/><polygon class="cls-5" points="56.66 175.36 75.19 211.67 493.74 211.67 512.26 175.36 56.66 175.36"/><polygon class="cls-5" points="116.14 291.93 452.78 291.93 471.31 255.62 97.62 255.62 116.14 291.93"/><path class="cls-6" d="M307.94,107.86c39,7.23,64.93,45.66,57.86,85.58-7,39.59-44.48,66.19-83.51,58.92s-64.92-45.67-57.88-85.31c7.05-39.86,44.51-66.46,83.53-59.19Z" transform="translate(-13.54 -103.95)"/><path class="cls-7" d="M308.39,105.19h0a70.25,70.25,0,0,1,13.23,3.75l.42.18a74.93,74.93,0,0,1,34.29,27.78,76.78,76.78,0,0,1,12.86,48.21l-5-1.94a73.49,73.49,0,0,0-12.37-43.41,68.7,68.7,0,0,0-44.41-29.26h0c-1.69-.3-3.44-.63-4.95-.87-5.48,3.9-8.73,8.51-9.57,13.58-1.23,5-.14,10.75,2.94,17.2,20.42,2,34.47,8.89,45,19.46a80.52,80.52,0,0,1,13.42,19.4l-7.63-3a66.15,66.15,0,0,0-9.5-12.46c-9.71-9.84-22.7-16.28-41.84-18.31a26.23,26.23,0,0,0-4.07,9.06l-4.91-1.92a27.52,27.52,0,0,1,4.68-10.1c-3.48-7.4-4.74-14.07-3.32-20.26.81-4.8,3.42-9,7.09-12.86a68.23,68.23,0,0,0-36.85,11l0,.27-.09.61a18.38,18.38,0,0,0-1,3.8c-1.22,5.13-2.22,10.06-3,14.82l-5.09-2c.66-4,1.52-8.14,2.52-12.29a74.77,74.77,0,0,0-9.54,9.54l-5.2-2a75.79,75.79,0,0,1,16.2-15.53,72.5,72.5,0,0,1,55.68-12.43Zm-53.75,68.37-6-2.34a58.87,58.87,0,0,1-1.07-7.74,95.59,95.59,0,0,1,1.15-25.55l5.09,2a94.39,94.39,0,0,0-1,23,52.73,52.73,0,0,0,1.85,10.67Zm66.56,26.07-5.58-2.19a26.24,26.24,0,0,0-5-11.47c-3.45-4.34-8-7.34-14.33-9.17a41.23,41.23,0,0,1-2.93,11.92l-5-1.94a35.34,35.34,0,0,0,2.91-12.43c-3.83-5.34-5.62-10.58-5.59-15.83a21.46,21.46,0,0,1,.59-5.87l4.9,1.92a16.14,16.14,0,0,0-.34,3.7c.19,4.33,1.56,8.28,4.38,12.8,8.65,1.9,14.86,5.88,19.34,11.34a34,34,0,0,1,6.62,17.22Zm-98.26-38.49a76.83,76.83,0,0,1,13.57-28l5.2,2A70.44,70.44,0,0,0,228,163.11l-5-2Zm146.25,24a76.75,76.75,0,0,1-1.05,8.75h0a77,77,0,0,1-7.09,21.38l-4.95-1.94a67.57,67.57,0,0,0,3.35-7.5h0c-3.8-11.36-7.81-21.24-12.83-29.53l7.63,3a173.3,173.3,0,0,1,7.82,18.41c.32-1.79.86-3.22,1.12-4.68h0a62.77,62.77,0,0,0,1-9.82l5,1.94Zm-107.88,2.14-8.11-3.17a50.22,50.22,0,0,1-4.55-12.86l6,2.34a44.46,44.46,0,0,0,6.67,13.69ZM286.12,197l-8-3.15A11.47,11.47,0,0,0,284,192a13.12,13.12,0,0,0,4.39-5.24l5,1.93a17.21,17.21,0,0,1-6.53,7.83,5.47,5.47,0,0,1-.71.42Zm54.21,21.23-9-3.53a28.15,28.15,0,0,0-10.82-6.29c-.35.56-.74,1.05-1.16,1.6l-5.2-2c.72-1,1.46-2,2.21-3.12a44.34,44.34,0,0,0-.71-7.39l5.57,2.19a32.24,32.24,0,0,1,.26,3.37c7.38,2.32,12.72,6,16.62,11.41a23.67,23.67,0,0,1,2.25,3.79ZM221.09,171.5c.13-1.66.38-3.26.66-4.93h0c.34-1.85.74-3.69,1.19-5.43l5,2c-.39,1.4-.68,2.93-1,4.45h0c-.32,2-.57,4-.76,5.95l-5.13-2Zm140,43.74a77.67,77.67,0,0,1-5.36,9l-5.14-2a62.33,62.33,0,0,0,5.55-8.9l4.95,1.94ZM262.8,201.11l-4.91-1.92a51.48,51.48,0,0,0,2.27-5.13,46.09,46.09,0,0,1-7-10l8.11,3.17c.74,1,1.5,1.94,2.29,2.82l.86.47c5.37,2.32,9.88,3.45,13.62,3.28l8,3.15c-5.34,3.16-12.32,2.91-21.24-.51-.68,1.65-1.35,3.24-2.08,4.65ZM311,220l-5.44-2.14a80.47,80.47,0,0,0,8.56-9.92l5.2,2A90.06,90.06,0,0,1,311,220Zm-90.26-35.37a74.12,74.12,0,0,1,.33-13.14l5.14,2a73.54,73.54,0,0,0,0,13.27l-5.44-2.14Zm134.94,39.58a73.35,73.35,0,0,1-8.26,10.05l-9.25-3.63c-.45-5.29-1.8-9.66-4.27-13a25.18,25.18,0,0,0-2.6-2.93l9,3.53a32.79,32.79,0,0,1,2.93,12.58,67.65,67.65,0,0,0,7.29-8.57l5.14,2Zm-8.26,10.05a79.4,79.4,0,0,1-9.84,8.36A72.76,72.76,0,0,1,281.85,255h0a68.19,68.19,0,0,1-13.23-3.76l-.42-.16A74.79,74.79,0,0,1,234,223.36a78,78,0,0,1-13.21-38.71l5.44,2.14a72,72,0,0,0,4.51,19.3c7,4.39,12.85,5.53,17.76,3.33,3.52-1.45,6.69-4.9,9.43-10.23l4.91,1.92c-3.37,6.79-7.37,11.19-12.26,13.32s-10.28,2.08-16.09-.55a41.71,41.71,0,0,0,3.92,6.58,67.83,67.83,0,0,0,11.5,13.25,57.27,57.27,0,0,0,10.31,1,49.43,49.43,0,0,0,10.27-.24c12.81-1.23,24.68-6.46,35.11-16.57L311,220c-11.85,12.05-25.38,18.18-40,19.78a65.82,65.82,0,0,1-11.17.38,3.38,3.38,0,0,0-1.54,0,73,73,0,0,0,24.46,9.51h0a67.81,67.81,0,0,0,51.62-11.38c1.39-1,2.85-2.23,4.17-3.19l-.26,0c0-1.55,0-3.07-.14-4.46l9.26,3.62Z" transform="translate(-13.54 -103.95)"/></svg>