<svg id="Capa_1" data-name="Capa 1" xmlns="http://www.w3.org/2000/svg" viewBox="0 0 394.54 504.68"><defs><style>.cls-1,.cls-13,.cls-17,.cls-8{fill:#1d1d1b;}.cls-2{fill:#fefefc;}.cls-3{fill:#f0e514;}.cls-4{fill:#459bd6;}.cls-19,.cls-5{fill:#2a683f;}.cls-6{fill:#e94f2b;}.cls-7{fill:#fff;}.cls-10,.cls-11,.cls-18,.cls-19,.cls-7,.cls-8,.cls-9{stroke:#1d1d1b;}.cls-10,.cls-11,.cls-18,.cls-19,.cls-7,.cls-8{stroke-miterlimit:10;}.cls-18,.cls-19,.cls-7{stroke-width:2px;}.cls-8{stroke-width:1.24px;}.cls-9{fill:none;stroke-linejoin:round;stroke-width:3px;}.cls-10{fill:#db7848;}.cls-10,.cls-11{stroke-width:0.62px;}.cls-11{fill:#428d6a;}.cls-12{fill:#040c0b;}.cls-13{font-size:40.48px;}.cls-13,.cls-17{font-family:Arial-BoldMT, Arial;font-weight:700;}.cls-14{letter-spacing:-0.04em;}.cls-15{letter-spacing:-0.11em;}.cls-16{letter-spacing:0em;}.cls-17{font-size:26.05px;}.cls-18{fill:#296335;}</style></defs><path class="cls-1" d="M397.64,177.42V352.36a147.64,147.64,0,1,1-295.28,0V177.42H397.64m0-5H102.36a5,5,0,0,0-5,5V352.36a152.61,152.61,0,0,0,305.22,0V177.42a5,5,0,0,0-5-5Z" transform="translate(-52.73 -0.28)"/><path class="cls-2" d="M145.51,224.57v123.8A104.48,104.48,0,0,0,210.3,445V224.57Z" transform="translate(-52.73 -0.28)"/><path class="cls-3" d="M289.7,224.57V445a104.5,104.5,0,0,0,64.79-96.65V224.57Z" transform="translate(-52.73 -0.28)"/><path class="cls-4" d="M250,224.57H210.3V445a104.56,104.56,0,0,0,79.4,0V224.57Z" transform="translate(-52.73 -0.28)"/><path class="cls-5" d="M354.49,267.24v81.13a104.49,104.49,0,0,1-203.85,32.34l-39.48,22a147.66,147.66,0,0,0,286.48-50.32V243.22Z" transform="translate(-52.73 -0.28)"/><path class="cls-6" d="M145.51,348.37V224.57h209v42.67l43.15-24v-65.8H102.36V352.36a147.46,147.46,0,0,0,8.8,50.32l39.48-22A104.48,104.48,0,0,1,145.51,348.37Z" transform="translate(-52.73 -0.28)"/><circle class="cls-7" cx="197.27" cy="415.35" r="29.78"/><circle class="cls-1" cx="197.27" cy="415.35" r="9.93"/><ellipse class="cls-8" cx="274.3" cy="408.59" rx="4.24" ry="7.97" transform="translate(-126.6 60.51) rotate(-11.16)"/><ellipse class="cls-8" cx="225.54" cy="408.67" rx="7.97" ry="4.24" transform="translate(-256.52 591.57) rotate(-84.21)"/><ellipse class="cls-8" cx="197.62" cy="389.8" rx="7.97" ry="4.24"/><ellipse class="cls-8" cx="266.48" cy="434.75" rx="7.97" ry="4.24" transform="translate(-277.44 297.54) rotate(-42.92)"/><ellipse class="cls-8" cx="233.05" cy="434.75" rx="4.24" ry="7.97" transform="translate(-296.76 309.12) rotate(-47.08)"/><polygon class="cls-6" points="199.75 228.01 102.98 381.86 244.24 302.55 199.75 228.01"/><polygon class="cls-5" points="244.24 302.55 102.98 381.86 291.56 381.86 244.24 302.55"/><polygon class="cls-9" points="244.24 302.55 199.75 228.01 102.98 381.86 291.56 381.86 244.24 302.55"/><path class="cls-1" d="M350.76,228.29V348.37a100.76,100.76,0,1,1-201.52,0V228.29H350.76m3.73-3.72h-209v123.8a104.49,104.49,0,0,0,209,0V224.57Z" transform="translate(-52.73 -0.28)"/><rect class="cls-10" x="191.69" y="291.91" width="9.93" height="67"/><path class="cls-11" d="M226.43,282.88c1.3-2.67.87-3.81,2.48-7.45a28.34,28.34,0,0,1,1.29-2.56,35.08,35.08,0,0,1,2.43-3.64c1.63-2.2,2.48-3.31,3.72-3.72,2.32-.77,4.8.51,6.21,1.24,2.31,1.19,2.07,1.92,3.72,2.48,3.3,1.13,6.84-.9,7.44-1.24,2.63-1.51,2.45-2.81,5-3.72.93-.34,3-1.1,5,0a5.15,5.15,0,0,1,2.48,3.72c.09.73-.11.72,0,1.24.34,1.64,2.35,2,5,3.72,1.62,1.1,3,2,3.72,3.72a6.45,6.45,0,0,1,0,5c-1.09,2.37-3.62,3.25-5,3.72-2.73,1-4.8.54-5,1.24s1.65.9,2.48,2.48-.32,2.81-1.24,7.45c-.68,3.4-.33,4.2-1.24,5-.36.29-1.15.79-6.21,0-2.31-.36-3-.6-6.2-1.24-5-1-4.85-.73-6.2-1.24-3.15-1.2-3-2.33-6.21-3.72-2-.89-4.69-2-7.44-1.25-1.78.52-1.85,1.34-6.2,3.73-2.6,1.43-3.29,1.53-3.73,1.24s-.42-1.35,0-5c.64-5.38.61-6,1.25-7.44C224.89,284.51,225.3,285.19,226.43,282.88Z" transform="translate(-52.73 -0.28)"/><polygon class="cls-12" points="219.6 292.53 219.6 319.82 197.27 319.82 174.94 319.82 174.94 292.53 163.77 292.53 163.77 324.78 163.77 362 174.94 362 174.94 330.99 197.27 330.99 219.6 330.99 219.6 362 230.77 362 230.77 324.78 230.77 292.53 219.6 292.53"/><text class="cls-13" transform="translate(92.32 215.6)">HARI<tspan class="cls-14" x="98.95" y="0">A</tspan><tspan x="126.69" y="0" xml:space="preserve"> C.</tspan><tspan class="cls-15" x="178.42" y="0">F</tspan><tspan class="cls-16" x="198.66" y="0">.</tspan></text><text class="cls-17" transform="translate(69.76 398.1) rotate(65.42)">R</text><text class="cls-17" transform="matrix(0.52, 0.86, -0.86, 0.52, 78.92, 417.04)">I</text><text class="cls-17" transform="matrix(0.61, 0.79, -0.79, 0.61, 83.64, 425.28)">N</text><text class="cls-17" transform="matrix(0.73, 0.69, -0.69, 0.73, 97.24, 442.61)">C</text><text class="cls-17" transform="matrix(0.83, 0.56, -0.56, 0.83, 113.54, 457.68)">Ó</text><text class="cls-17" transform="translate(133.39 470.51) rotate(24.05)">N</text><text class="cls-17" transform="matrix(0.95, 0.3, -0.3, 0.95, 152.81, 478.68)"> </text><text class="cls-17" transform="translate(161.81 481.74) rotate(11.07)">D</text><text class="cls-17" transform="matrix(1, 0.04, -0.04, 1, 183.4, 485.65)">E</text><text class="cls-17" transform="translate(202.84 486.01) rotate(-3.82)"> </text><text class="cls-17" transform="matrix(0.99, -0.17, 0.17, 0.99, 211.18, 485.7)">A</text><text class="cls-17" transform="translate(233.04 481.71) rotate(-19.48)">G</text><text class="cls-17" transform="translate(255.23 473.49) rotate(-29.19)">A</text><text class="cls-17" transform="translate(274.36 462.5) rotate(-38.46)">N</text><text class="cls-17" transform="matrix(0.67, -0.74, 0.74, 0.67, 291.45, 448.59)">A</text><text class="cls-17" transform="matrix(0.55, -0.84, 0.84, 0.55, 306.11, 432.1)">D</text><text class="cls-17" transform="matrix(0.4, -0.92, 0.92, 0.4, 317.93, 413.45)">A</text><path class="cls-1" d="M307.07,40a11.17,11.17,0,1,1,0,22.33l-.54,0,27.32,32.19,30.67-15.79a11.21,11.21,0,1,1,.68.28l21.15,30.21H418a113.82,113.82,0,0,0-9.94,16.36,7.38,7.38,0,0,1-1.82,5.23,7.86,7.86,0,0,1-1,1c-1.13,2.66-2.12,5.28-3,7.83-1.21,3.59-2.16,7-2.93,10.34-.13.56-.27,1.13-.39,1.68-.89,4.13-1.48,8-1.88,11.44-1.68-2.67-6.85-5.2-14.86-7.49C358,148.68,307.88,143.92,250,143.92s-108,4.76-132.17,11.69c-8,2.29-13.18,4.82-14.86,7.49-.4-3.47-1-7.31-1.88-11.44-.12-.55-.26-1.12-.39-1.68-.77-3.3-1.72-6.75-2.93-10.34-.86-2.55-1.85-5.17-3-7.83a7.86,7.86,0,0,1-1-1,7.38,7.38,0,0,1-1.82-5.23A113.82,113.82,0,0,0,82,109.18h31.66L134.8,79a11.17,11.17,0,1,1,.68-.28l30.67,15.79,27.32-32.19-.54,0a11.19,11.19,0,1,1,3.7-.64l25.19,17.09L250,47.66l28.18,31.1,25.19-17.09A11.16,11.16,0,0,1,307.07,40m0-3.72a14.87,14.87,0,0,0-10.44,25.48L278.77,73.86l-26-28.7a3.73,3.73,0,0,0-5.52,0l-26,28.7L203.37,61.74a14.88,14.88,0,1,0-16.77,2.88l-21.38,25.2L142.33,78a14.88,14.88,0,1,0-14.9,5l-15.72,22.46H82a3.73,3.73,0,0,0-3,5.92,108.24,108.24,0,0,1,9.22,15,11.43,11.43,0,0,0,2.7,6.76q.38.44.78.84c1,2.33,1.83,4.62,2.56,6.81,1.09,3.22,2,6.59,2.84,10l.08.35c.1.42.2.85.29,1.27a110.09,110.09,0,0,1,1.82,11.07,3.71,3.71,0,0,0,2.87,3.21,3.85,3.85,0,0,0,.83.1,3.73,3.73,0,0,0,3.15-1.75c.29-.46,2.25-2.9,12.73-5.89,24.5-7,76-11.55,131.15-11.55s106.65,4.53,131.15,11.55c10.48,3,12.44,5.43,12.73,5.89a3.73,3.73,0,0,0,3.15,1.75,3.85,3.85,0,0,0,.83-.1,3.71,3.71,0,0,0,2.87-3.21c.42-3.72,1-7.45,1.82-11.07.09-.42.19-.85.29-1.27l.08-.35c.8-3.42,1.75-6.79,2.84-10,.73-2.19,1.6-4.48,2.56-6.81q.4-.4.78-.84a11.43,11.43,0,0,0,2.7-6.76,108.24,108.24,0,0,1,9.22-15,3.73,3.73,0,0,0-3-5.92H388.29L372.57,83a14.91,14.91,0,1,0-14.9-5L334.78,89.82,313.4,64.62a14.89,14.89,0,0,0-6.33-28.36Z" transform="translate(-52.73 -0.28)"/><path class="cls-1" d="M250,4a21.09,21.09,0,1,1-21.09,21.09A21.09,21.09,0,0,1,250,4m0-3.72a24.82,24.82,0,1,0,24.81,24.81A24.84,24.84,0,0,0,250,.28Z" transform="translate(-52.73 -0.28)"/><path class="cls-1" d="M68.86,94.57A12.41,12.41,0,1,1,56.45,107,12.41,12.41,0,0,1,68.86,94.57m0-3.72A16.13,16.13,0,1,0,85,107,16.15,16.15,0,0,0,68.86,90.85Z" transform="translate(-52.73 -0.28)"/><path class="cls-1" d="M431.14,94.57A12.41,12.41,0,1,1,418.73,107a12.41,12.41,0,0,1,12.41-12.41m0-3.72A16.13,16.13,0,1,0,447.27,107a16.15,16.15,0,0,0-16.13-16.13Z" transform="translate(-52.73 -0.28)"/><path class="cls-6" d="M386.35,109.18,364.88,78.5l-31,16L305,60.53,278.18,78.76,250,47.66l-28.18,31.1L195,60.53l-28.81,34-31-16-21.47,30.68H82a111.78,111.78,0,0,1,10.44,17.37,111.76,111.76,0,0,1,5.34,13.09c13.87-10.29,76.75-18,152.23-18s138.36,7.76,152.23,18A111.93,111.93,0,0,1,418,109.18Z" transform="translate(-52.73 -0.28)"/><path class="cls-6" d="M397.26,150.94c-20.43-8.4-78.64-14.46-147.26-14.46s-126.83,6.06-147.26,14.46q-.87.36-1.65.72c.89,4.13,1.48,8,1.88,11.44,1.68-2.67,6.85-5.2,14.86-7.49,24.2-6.93,74.29-11.69,132.17-11.69s108,4.76,132.17,11.69c8,2.29,13.18,4.82,14.86,7.49.4-3.47,1-7.31,1.88-11.44Q398.13,151.3,397.26,150.94Z" transform="translate(-52.73 -0.28)"/><path class="cls-18" d="M250,121.59c-75.48,0-138.36,7.76-152.23,18,1.21,3.59,2.16,7,2.93,10.34.13.56.27,1.13.39,1.68q.78-.36,1.65-.72c20.43-8.4,78.64-14.46,147.26-14.46s126.83,6.06,147.26,14.46q.87.36,1.65.72c.12-.55.26-1.12.39-1.68.77-3.3,1.72-6.75,2.93-10.34C388.36,129.35,325.48,121.59,250,121.59Z" transform="translate(-52.73 -0.28)"/><polygon class="cls-19" points="197.27 107.66 179.72 86.57 197.27 66.72 214.82 86.57 197.27 107.66"/><ellipse class="cls-19" cx="98.01" cy="127.17" rx="5.58" ry="6.82" transform="translate(-111.63 92.89) rotate(-40.15)"/><ellipse class="cls-19" cx="131.07" cy="104.17" rx="7.32" ry="10.85" transform="translate(-74.18 34.85) rotate(-14.12)"/><ellipse class="cls-19" cx="192.31" cy="101.12" rx="9.31" ry="5.58" transform="translate(-68.1 37) rotate(-10.65)"/><ellipse class="cls-19" cx="401.99" cy="127.17" rx="6.82" ry="5.58" transform="translate(-7.15 352.15) rotate(-49.85)"/><ellipse class="cls-19" cx="368.93" cy="104.17" rx="10.85" ry="7.32" transform="translate(125.16 436.26) rotate(-75.88)"/><ellipse class="cls-19" cx="307.69" cy="101.12" rx="5.58" ry="9.31" transform="translate(98.73 384.55) rotate(-79.35)"/><circle class="cls-5" cx="197.27" cy="24.81" r="21.09"/><circle class="cls-5" cx="140.2" cy="50.87" r="11.17"/><circle class="cls-5" cx="78.16" cy="68.24" r="11.17"/><circle class="cls-5" cx="16.13" cy="106.7" r="12.41"/><circle class="cls-5" cx="254.34" cy="50.87" r="11.17"/><circle class="cls-5" cx="316.38" cy="68.24" r="11.17"/><circle class="cls-5" cx="378.41" cy="106.7" r="12.41"/></svg>