<svg id="Capa_1" data-name="Capa 1" xmlns="http://www.w3.org/2000/svg" viewBox="0 0 578.24 542.14"><defs><style>.cls-1{fill:#fff;}.cls-2{fill:#cfa427;}.cls-3{fill:#32a936;}.cls-12,.cls-4{fill:#2d336c;}.cls-5{fill:#d2a331;}.cls-6,.cls-9{fill:none;}.cls-11,.cls-6,.cls-9{stroke:#2d336c;}.cls-6{stroke-miterlimit:10;stroke-width:4.99px;}.cls-7{font-size:56.1px;fill:#1d1d1b;}.cls-12,.cls-7{font-family:TimesNewRomanPSMT, Times New Roman;}.cls-8{fill:#c4241d;}.cls-11,.cls-9{stroke-linejoin:round;}.cls-9{stroke-width:12.47px;}.cls-10,.cls-11{fill:#ffe500;}.cls-11{stroke-width:1.25px;}.cls-12{font-size:39.89px;}</style></defs><path class="cls-1" d="M502.44,348.26c1.59-18.64,2.34-35.86,2.56-51.35V276.2H304.5V514H464.42a414.33,414.33,0,0,0,17-44.72C495.93,424.08,499.31,384.66,502.44,348.26Z" transform="translate(-9.79 -148.73)"/><path class="cls-2" d="M413.59,363.94c-.2.2-.39.39-.61.59h.67Z" transform="translate(-9.79 -148.73)"/><path class="cls-2" d="M391.52,483.48c-1.11-.47-2.21-.94-3.34-1.4-5.8-2.38-11.48-4.52-17-6.47a68.66,68.66,0,0,0-8.8,29.48H395c-.69-2.33-1.32-4.85-1.86-7.56A86.58,86.58,0,0,1,391.52,483.48Z" transform="translate(-9.79 -148.73)"/><path class="cls-2" d="M428.73,477.16a56,56,0,0,1-1.09-7.25c-.82-7.54.57-9.66-.5-15.12A30,30,0,0,0,421.72,443a35.68,35.68,0,0,0-8.12-8.24c0,.63-.06,1.28-.1,2-.52,7.95-2.29,14-3.78,19.9-2.09,8.25-3.91,12.79-5.43,17.75l-.56,1.89a18.87,18.87,0,0,0,9.6,5A19.4,19.4,0,0,0,428.73,477.16Z" transform="translate(-9.79 -148.73)"/><path class="cls-2" d="M403,370.31c.15,4.1.27,8.24.32,12.47.18,14.37-.25,28.05-1.1,41a38.47,38.47,0,0,0,7.43-10,40.45,40.45,0,0,0,3.95-12.91c2.1-13.55.88-28.83.07-36.33H413a26.61,26.61,0,0,1-4.25,3.21A26.19,26.19,0,0,1,403,370.31Z" transform="translate(-9.79 -148.73)"/><path class="cls-2" d="M424.39,399.43a10,10,0,0,0-3.4-.37c-2.27,5.33-4.95,11-8.19,17s-6.45,11.17-9.63,15.92a6.54,6.54,0,0,0,2.72,2.08,6.84,6.84,0,0,0,5.42-.25,140.76,140.76,0,0,1,18.15-31.17A10.69,10.69,0,0,0,424.39,399.43Z" transform="translate(-9.79 -148.73)"/><path class="cls-2" d="M399.13,437a95.82,95.82,0,0,0-21.7,33.4c2.8,1.65,5.82,3.3,9.11,4.91s6.62,3.05,9.7,4.26A191.33,191.33,0,0,1,401,458.4a189.28,189.28,0,0,1,6.2-18.1,19.48,19.48,0,0,1-8.07-3.27Z" transform="translate(-9.79 -148.73)"/><path class="cls-2" d="M441.44,496.38c-2.41-6.67-7.57-7-11.17-14.8-.13-.27-.24-.53-.35-.8a53.17,53.17,0,0,1-28.29,4.32,118.67,118.67,0,0,0-2.07,20h42.65A18,18,0,0,0,441.44,496.38Z" transform="translate(-9.79 -148.73)"/><path class="cls-3" d="M445.15,413.63h0l0-.16h0Z" transform="translate(-9.79 -148.73)"/><path class="cls-3" d="M484.68,341.85c-2.21-3.05-5.51-4-8-4.69-5.9-1.66-11-.16-14.06.74a32.86,32.86,0,0,0-5.34,2.1,21.67,21.67,0,0,0-.33-3.58c-1.34-7.37-6.2-11.81-8.39-13.81a28.4,28.4,0,0,0-3.89-3c-.62-.41-1.22-.76-1.79-1.08a29.59,29.59,0,0,1,3.34-4.07c1.72-1.73,4.67-4.27,11-6.88,1-.42,2.1-.84,3.28-1.25a78.07,78.07,0,0,1,18.33-4,28.05,28.05,0,0,0-8.13-5.9c-7.1-3.37-13.65-2.68-18.91-2.13-8.34.87-14.3,3.55-19.07,5.75a81.15,81.15,0,0,0-15.27,9.24l-.93.73a29.85,29.85,0,0,1-.4-3.89,30.68,30.68,0,0,1,.2-5c.09-.8.21-1.56.35-2.25a35.19,35.19,0,0,0-7.79,6.11,36,36,0,0,0-8.57,15.29,131.52,131.52,0,0,0-16.91-5.92c-10.65-2.92-16.09-4.35-21.86-2.63-11.46,3.42-16.37,15.13-17.1,16.93a31.38,31.38,0,0,0-1.56,17.79,49.25,49.25,0,0,1,8.79-6.94,50.45,50.45,0,0,1,21.82-7.2l-.8,1.46c-.33.64-.66,1.3-1,2-.15.33-.31.66-.46,1a54.15,54.15,0,0,0-4.44,23.06,63.81,63.81,0,0,0,3.25,20c.15-.42.3-.84.46-1.27A81.24,81.24,0,0,1,391.7,347c.36.37.71.74,1,1.1a33,33,0,0,1,5.89,8.16c.88,1.9,2.23,3.53,4.93,6.78a3.85,3.85,0,0,0,1.6,1.24c2.23.85,4.76-1,4.94-1.11l.36-.31c1.46-1.28,1.5-2.53,2.47-2.65,1.34-.17,2.65,2,3.58,3.57a32.06,32.06,0,0,1,2.77,6.72c.29.82.62,1.72,1.05,2.78,2,5,3,5.39,3.57,5.42.81.05,1.55-.58,2.77-1.78l.56-.56c1.91-1.9,2.35-3.08,3.09-3s1.24,1.69,1.35,2.71c.07.61.1,1.87-1.07,4.21-.16.3-.33.63-.53,1-1.95,3.38-3.34,3.73-4.07,6.41a6.38,6.38,0,0,0-.25,3.09c.56,2.76,3.42,5.25,5.92,5.05,2-.16,1.85-1.9,5.18-3.08a13.09,13.09,0,0,1,3.61-.71h0c.75,3.42,1.52,7,2.06,9.46.61,2.77,1.79,8.2,2.6,12q3-13.94,6.53-28.35,1.08-4.38,2.18-8.71l.1.27.73-3.08a96.53,96.53,0,0,1,10.18,20c.09.24.16.47.25.71a96.58,96.58,0,0,1,5.35,24.48c1.29-7,2.12-12.88,2.66-17.42.9-7.49,1.34-11.33,1.11-16.4-.28-6.21-.71-14-5.18-22.19a40.6,40.6,0,0,0-8.65-10.88,23.2,23.2,0,0,1,11.49-4,22.9,22.9,0,0,1,15.14,4.3h0C487.22,352.17,487.71,346,484.68,341.85Z" transform="translate(-9.79 -148.73)"/><path class="cls-4" d="M304.5,646.61v38A352.82,352.82,0,0,0,380.78,631c43.13-39.85,68.58-83.56,83.64-117H304.5Z" transform="translate(-9.79 -148.73)"/><circle class="cls-5" cx="361.37" cy="577.81" r="39.72" transform="translate(-320.54 541.82) rotate(-67.5)"/><path class="cls-6" d="M341.47,569.25a74,74,0,0,0,20.31-31.15h-.41a39.74,39.74,0,0,0-38.13,28.58A61.68,61.68,0,0,1,341.47,569.25Z" transform="translate(-9.79 -148.73)"/><path class="cls-6" d="M361.82,580.27c-.07-.07-.12-.15-.19-.21-5.37-5.4-13-8.28-16.43-9.55-1.26-.48-2.5-.88-3.73-1.26" transform="translate(-9.79 -148.73)"/><path class="cls-6" d="M341.47,569.25a61.68,61.68,0,0,0-18.23-2.58,39.82,39.82,0,0,0-.44,20.64,74.7,74.7,0,0,0,14.91,5.45,76,76,0,0,0,31.42,1,30.18,30.18,0,0,0-7.31-13.49" transform="translate(-9.79 -148.73)"/><path class="cls-6" d="M378.74,568.61l0,0a104.78,104.78,0,0,0,14.28-14.73,39.63,39.63,0,0,0-31.27-15.76,74,74,0,0,1-20.31,31.15c1.23.38,2.47.78,3.73,1.26,3.39,1.27,11.06,4.15,16.43,9.55.07.06.12.14.19.21a104.73,104.73,0,0,0,16.92-11.66" transform="translate(-9.79 -148.73)"/><path class="cls-6" d="M369.13,593.76c1.8,6.79,1.9,14.67.43,22.92a39.63,39.63,0,0,0,19.69-10.58,71.94,71.94,0,0,0-2.34-18.28,72.73,72.73,0,0,0-8.17-19.21,104.73,104.73,0,0,1-16.92,11.66,30.18,30.18,0,0,1,7.31,13.49" transform="translate(-9.79 -148.73)"/><path class="cls-6" d="M369.13,593.76a76,76,0,0,1-31.42-1,74.7,74.7,0,0,1-14.91-5.45,39.74,39.74,0,0,0,46.76,29.37C371,608.43,370.93,600.55,369.13,593.76Z" transform="translate(-9.79 -148.73)"/><path class="cls-6" d="M378.77,568.59l0,0a72.73,72.73,0,0,1,8.17,19.21,71.94,71.94,0,0,1,2.34,18.28,39.71,39.71,0,0,0,3.8-52.24A104.78,104.78,0,0,1,378.77,568.59Z" transform="translate(-9.79 -148.73)"/><text class="cls-7" transform="translate(301.23 176.04) scale(1 0.87)">1<tspan x="0" y="67.35">9</tspan><tspan x="0" y="134.7">7</tspan><tspan x="0" y="202.05">2</tspan></text><path class="cls-1" d="M115.16,276.2H104c-.29,20.28.22,44.64,2.57,72.06,3.12,36.4,6.5,75.82,21,121v-193Z" transform="translate(-9.79 -148.73)"/><path class="cls-8" d="M269.12,276.2V663.48a357.57,357.57,0,0,0,35.38,21.16V276.2Z" transform="translate(-9.79 -148.73)"/><path class="cls-1" d="M269.12,663.48V276.2H233.75V636A348.8,348.8,0,0,0,269.12,663.48Z" transform="translate(-9.79 -148.73)"/><path class="cls-8" d="M228.22,631q2.76,2.55,5.53,5V276.2H198.37V599.77A349,349,0,0,0,228.22,631Z" transform="translate(-9.79 -148.73)"/><path class="cls-1" d="M198.37,599.77V276.2H163V549.67A358.35,358.35,0,0,0,198.37,599.77Z" transform="translate(-9.79 -148.73)"/><path class="cls-8" d="M163,549.67V276.2H127.61V469.25h0A391.89,391.89,0,0,0,163,549.67Z" transform="translate(-9.79 -148.73)"/><path class="cls-9" d="M505,276.2H104c-.29,20.28.22,44.64,2.57,72.06,3.12,36.4,6.5,75.82,21,121,8.72,27.09,32.9,99.2,100.61,161.77a352.82,352.82,0,0,0,76.28,53.62A352.82,352.82,0,0,0,380.78,631c67.72-62.57,91.9-134.68,100.61-161.77,14.54-45.17,17.92-84.59,21.05-121C504.79,320.84,505.29,296.48,505,276.2Z" transform="translate(-9.79 -148.73)"/><path class="cls-10" d="M580.59,325.1a1.2,1.2,0,0,1-.82-.31,307.41,307.41,0,0,0-57.5-39.86c-5.23-2.8-10.61-5.48-16-8l-3.42-1.55a311.77,311.77,0,0,0-31.08-11.94,1.23,1.23,0,0,1-.87-1.18V239.21l-.27-.1A496.25,496.25,0,0,0,298.9,207.06a496.25,496.25,0,0,0-171.7,32.05l-.27.1v23.07a1.24,1.24,0,0,1-.86,1.18A310.83,310.83,0,0,0,95,275.4c-1.14.51-2.28,1-3.43,1.55-5.39,2.5-10.78,5.18-16,8a307,307,0,0,0-57.49,39.86,1.24,1.24,0,0,1-.82.31,1.24,1.24,0,0,1-1.17-1.69c3.17-8.26,6.71-16.41,10.5-24.22,3.66-7.51,7.68-15,12-22.24l-26.41-3.52a1.25,1.25,0,0,1-.43-2.34c2.32-1.25,4.64-2.53,7-3.83C31.47,260.14,44.1,252.65,56.2,245c12.46-7.89,24.92-16.29,37-25V196.84a1.24,1.24,0,0,1,.73-1.13c10.59-4.86,21.48-9.41,32.36-13.52A499.31,499.31,0,0,1,298.9,150a499.31,499.31,0,0,1,172.6,32.21c10.89,4.11,21.77,8.66,32.37,13.52a1.25,1.25,0,0,1,.72,1.13V220c12.11,8.69,24.57,17.09,37,25,12.09,7.65,24.72,15.14,37.52,22.26q3.51,2,7,3.83a1.25,1.25,0,0,1-.43,2.34L559.29,277c4.29,7.26,8.31,14.73,12,22.24,3.8,7.81,7.33,16,10.5,24.22a1.24,1.24,0,0,1-.45,1.47A1.22,1.22,0,0,1,580.59,325.1Z" transform="translate(-9.79 -148.73)"/><path class="cls-4" d="M298.91,151.23a497.38,497.38,0,0,1,172.15,32.13c11.49,4.33,22.26,8.88,32.29,13.48v23.82c11.72,8.43,24.24,16.93,37.61,25.39,12.82,8.11,25.37,15.51,37.58,22.3q3.53,1.95,7,3.84l-27.22,3.63h-1.15l.21.35c4.3,7.19,8.6,15,12.75,23.57,4,8.31,7.49,16.38,10.46,24.11a308,308,0,0,0-57.73-40q-8.18-4.36-16.08-8l-3.43-1.56a307.53,307.53,0,0,0-31.21-12V238.36c8.3,3.15,16.22,6.41,23.76,9.72-7.87-3.45-16.14-6.86-24.84-10.14a498,498,0,0,0-172.15-32.13,498.18,498.18,0,0,0-172.15,32.13c-8.69,3.28-17,6.69-24.83,10.14,7.53-3.31,15.46-6.57,23.75-9.72v23.92a308.31,308.31,0,0,0-31.2,12L91,275.82q-7.89,3.65-16.07,8a307.62,307.62,0,0,0-57.73,40c3-7.73,6.41-15.8,10.46-24.11,4.14-8.53,8.45-16.38,12.75-23.57l.21-.35H39.5l-27.21-3.63c2.31-1.26,4.65-2.54,7-3.84,12.21-6.79,24.77-14.19,37.58-22.3,13.37-8.46,25.9-17,37.62-25.39V196.84c10-4.6,20.79-9.15,32.28-13.48a497.53,497.53,0,0,1,172.15-32.13m0-2.5h0a500.6,500.6,0,0,0-173,32.29c-10.91,4.12-21.83,8.68-32.44,13.56A2.48,2.48,0,0,0,92,196.84v22.54C80.06,227.93,67.8,236.18,55.53,244c-12.08,7.64-24.68,15.11-37.46,22.22-2.49,1.38-4.77,2.63-7,3.83a2.49,2.49,0,0,0,.86,4.66l24.55,3.28c-3.95,6.77-7.66,13.72-11.06,20.71-3.81,7.84-7.36,16-10.54,24.31a2.49,2.49,0,0,0,4,2.77A305.68,305.68,0,0,1,76.14,286c5.21-2.79,10.57-5.46,16-7.94,1.14-.53,2.27-1,3.41-1.55a308.24,308.24,0,0,1,31-11.89,2.49,2.49,0,0,0,1.73-2.37V240.07A495.61,495.61,0,0,1,298.94,208.3a495.62,495.62,0,0,1,170.71,31.77v22.21a2.48,2.48,0,0,0,1.72,2.37,308.41,308.41,0,0,1,31,11.89c1.13.51,2.27,1,3.41,1.55,5.37,2.48,10.73,5.15,15.94,7.94a305.36,305.36,0,0,1,57.26,39.7,2.51,2.51,0,0,0,1.65.62,2.5,2.5,0,0,0,2.33-3.39c-3.19-8.29-6.74-16.47-10.55-24.31-3.39-7-7.11-13.94-11-20.71l24.55-3.28a2.49,2.49,0,0,0,.86-4.66c-2.21-1.2-4.49-2.45-7-3.83C567,259.06,554.37,251.59,542.3,244c-12.27-7.76-24.53-16-36.46-24.57V196.84a2.49,2.49,0,0,0-1.45-2.26c-10.62-4.88-21.53-9.44-32.45-13.56a500.45,500.45,0,0,0-173-32.29Z" transform="translate(-9.79 -148.73)"/><line class="cls-11" x1="493.55" y1="102.69" x2="493.55" y2="103.13"/><path class="cls-11" d="M503.35,251.43c-4.29,1.2-8.87,3-13.68,4.57-6.9,2.25-12.89,4.47-17.53,6.28a307.53,307.53,0,0,1,31.21,12l3.43,1.56q7.9,3.65,16.08,8a308,308,0,0,1,57.73,40c-3-7.73-6.42-15.8-10.46-24.11-4.15-8.53-8.45-16.38-12.75-23.57l-.21-.35h1.15l27.22-3.63h0q-3.48-1.89-7-3.84c-12.21-6.79-24.76-14.19-37.58-22.3-13.37-8.45-25.89-17-37.61-25.39v30.77" transform="translate(-9.79 -148.73)"/><path class="cls-11" d="M472.14,238.36v23.92c4.64-1.81,10.63-4,17.53-6.28,4.81-1.58,9.39-3.37,13.68-4.57h0C493.64,247,483.22,242.57,472.14,238.36Z" transform="translate(-9.79 -148.73)"/><path class="cls-11" d="M94.48,251.43" transform="translate(-9.79 -148.73)"/><path class="cls-11" d="M94.48,251.43c4.29,1.2,8.86,3,13.68,4.57,6.89,2.25,12.88,4.47,17.52,6.28a308.31,308.31,0,0,0-31.2,12L91,275.82q-7.89,3.65-16.07,8a307.62,307.62,0,0,0-57.73,40c3-7.73,6.41-15.8,10.46-24.11,4.14-8.53,8.45-16.38,12.75-23.57l.21-.35H39.5l-27.21-3.63h0c2.31-1.26,4.65-2.54,7-3.84,12.21-6.79,24.77-14.19,37.58-22.3,13.37-8.45,25.9-17,37.62-25.39v30.77" transform="translate(-9.79 -148.73)"/><path class="cls-11" d="M471.06,183.36a497.38,497.38,0,0,0-172.15-32.13,497.53,497.53,0,0,0-172.15,32.13c-11.49,4.33-22.25,8.88-32.28,13.48v54.59c10-4.61,20.79-9.15,32.28-13.49a498.18,498.18,0,0,1,172.15-32.13,498,498,0,0,1,172.15,32.13c11.49,4.34,22.26,8.88,32.29,13.49V196.84C493.32,192.24,482.55,187.69,471.06,183.36Z" transform="translate(-9.79 -148.73)"/><path class="cls-11" d="M125.68,238.36v23.92c-4.64-1.81-10.63-4-17.52-6.28-4.82-1.58-9.39-3.37-13.68-4.57h0C104.19,247,114.6,242.57,125.68,238.36Z" transform="translate(-9.79 -148.73)"/><text class="cls-12" transform="translate(103.92 80.42) rotate(-21.58)">S</text><text class="cls-12" transform="translate(123.62 72.51) rotate(-18.71)">A</text><text class="cls-12" transform="matrix(0.96, -0.27, 0.27, 0.96, 149.87, 63.58)">N</text><text class="cls-12" transform="translate(176.99 56.27) rotate(-13.23)"> </text><text class="cls-12" transform="translate(186 53.98) rotate(-11.14)">B</text><text class="cls-12" transform="translate(211.05 48.99) rotate(-7.99)">A</text><text class="cls-12" transform="matrix(1, -0.08, 0.08, 1, 238.57, 45.13)">R</text><text class="cls-12" transform="translate(261.84 43.11) rotate(-2.27)">T</text><text class="cls-12" transform="translate(284.17 42.02) rotate(1.62)">O</text><text class="cls-12" transform="translate(312 42.84) rotate(4.59)">L</text><text class="cls-12" transform="translate(335.3 44.63) rotate(7.59)">O</text><text class="cls-12" transform="translate(362.7 48.13) rotate(11.25)">M</text><text class="cls-12" transform="matrix(0.97, 0.25, -0.25, 0.97, 396.34, 54.95)">E</text><text class="cls-12" transform="matrix(0.96, 0.29, -0.29, 0.96, 419.27, 61.07)"> </text><text class="cls-12" transform="translate(428.21 63.57) rotate(18.69)">C</text><text class="cls-12" transform="matrix(0.93, 0.37, -0.37, 0.93, 452.54, 71.83)">F</text></svg>