<svg id="Capa_1" data-name="Capa 1" xmlns="http://www.w3.org/2000/svg" viewBox="0 0 529.34 711.97"><defs><style>.cls-1,.cls-13,.cls-14,.cls-16,.cls-4{fill:#fff;}.cls-12,.cls-2{fill:#1d1d1b;}.cls-3{fill:#dc2b1a;}.cls-4{font-size:54.71px;}.cls-16,.cls-4{font-family:Arial-BoldMT, Arial;font-weight:700;}.cls-5,.cls-9{fill:none;}.cls-10,.cls-11,.cls-12,.cls-13,.cls-14,.cls-15,.cls-17,.cls-18,.cls-19,.cls-20,.cls-21,.cls-22,.cls-23,.cls-5,.cls-6,.cls-9{stroke:#1d1d1b;stroke-miterlimit:10;}.cls-5{stroke-width:4.1px;}.cls-6{fill:#f4ed82;stroke-width:1.37px;}.cls-10,.cls-7{fill:#029546;}.cls-11,.cls-8{fill:#334a95;}.cls-10,.cls-11,.cls-9{stroke-width:2.74px;}.cls-12{stroke-width:4.28px;}.cls-13{stroke-width:2.35px;}.cls-14{stroke-width:0.68px;}.cls-15{stroke-width:0.34px;}.cls-16{font-size:87.53px;}.cls-17{fill:#e2bf49;}.cls-17,.cls-18,.cls-19,.cls-20,.cls-21,.cls-22,.cls-23{stroke-width:1.03px;}.cls-18{fill:#fff7bb;}.cls-19{fill:#b73e2e;}.cls-20{fill:#56507c;}.cls-21{fill:#314329;}.cls-22{fill:#e6e07d;}.cls-23{fill:#dcaa03;}</style></defs><path class="cls-1" d="M74.16,354.86H79q-2.47,4-4.8,8.2Z" transform="translate(-33.51 -68.13)"/><path class="cls-2" d="M82.64,352.81H72.11v18.37q4.89-9.42,10.53-18.37Z" transform="translate(-33.51 -68.13)"/><path class="cls-2" d="M298.46,72.23c7.67,0,13.88,4.94,13.88,11,0,.14,0,.29,0,.43.44,0,.88.1,1.31.17h0c.42.08.83.18,1.24.29l.06,0a11.38,11.38,0,0,1,1.16.41l.11,0c.36.15.72.32,1.07.5l.14.07c.33.18.66.37,1,.58l.18.12c.3.2.59.41.88.64l.21.17q.4.33.78.69c.08.07.16.16.24.24.23.23.46.46.67.71l.27.32c.19.23.38.47.57.73l.27.4c.17.24.33.48.48.73l.27.49c.13.24.26.48.38.72s.18.39.26.59.21.46.3.7.15.45.22.68.16.45.22.68.13.52.19.79.1.41.14.62.09.63.13,1,.06.35.07.52c.05.5.07,1,.07,1.52s0,1-.07,1.51c0,.18-.05.35-.07.52,0,.32-.07.64-.13,1s-.09.42-.14.62-.12.54-.19.8-.14.45-.21.67-.15.46-.23.68-.2.47-.3.7a6.21,6.21,0,0,1-.26.59,7.92,7.92,0,0,1-.37.71c-.09.17-.18.34-.28.51s-.31.48-.47.72l-.28.41c-.18.25-.37.48-.56.72l-.28.33c-.21.24-.43.47-.66.7-.08.08-.16.17-.25.25-.25.23-.5.46-.76.67l-.23.19c-.28.22-.56.43-.86.63l-.19.13q-.46.3-1,.57l-.16.08c-.34.18-.69.34-1.05.49l-.12,0c-.37.15-.75.28-1.14.4l-.08,0a10,10,0,0,1-1.23.29h0a11.44,11.44,0,0,1-1.31.17v.06c0,4.72-3.74,8.74-9,10.31v9.45c.17,11.07,9.54,20,21.09,20,10.18,0,20.73-6.93,23.23-16.16a17.67,17.67,0,1,1,7.82,1.12c0,.94,0,1.9,0,2.87,0,10.31,11.88,18.67,23.09,18.67,8.61,0,17.37-5.44,21-12.63-4-2.9-6-7.41-4.58-11.44a.08.08,0,0,1,0,0c-6-2.62-8.95-9.9-6.59-16.76A13.66,13.66,0,0,1,401,109.8a11.33,11.33,0,0,1,2.93.38c0-.13.06-.26.11-.39,1.33-3.89,5.44-6.21,10.17-6.21a15.36,15.36,0,0,1,5,.85c6.58,2.27,10.46,8.34,8.66,13.56,0,.12-.09.22-.13.33h0c6.58,2.27,9.91,9.92,7.44,17.1A13.67,13.67,0,0,1,422.56,145a11.65,11.65,0,0,1-3.8-.63c-1.33,3.88-5.44,6.2-10.17,6.2l-.95,0c-.24,2.31-.16,4.85-.16,7.52,0,10.61,9.57,19.21,21.38,19.21,6.13,0,16-4.34,22-8.47a17.66,17.66,0,1,1,10.31,3.33,17.34,17.34,0,0,1-3.9-.45c-.24,3.65-.53,9.7-.53,13.16,0,6.5,8.38,14.07,17,14.07a15.67,15.67,0,0,0,15.17-11.78l.55.33c-2.65-3.47-3.65-8.89-2.22-14.07,1.6-5.82,5.76-9.53,10.08-9.53a7.7,7.7,0,0,1,2.35.38c0-.13.05-.26.08-.39a8.28,8.28,0,0,1,8.15-6.21,10.28,10.28,0,0,1,4,.85c5.27,2.27,8.38,8.34,6.94,13.57,0,0-.34.81-.77,1.8a4.3,4.3,0,0,1-1.89,2.07,8.87,8.87,0,0,1-4.4,15.41,3.67,3.67,0,0,1-.25,3.57c-2.91,4.51-7.23,9.12-10.7,9.12a3.54,3.54,0,0,1-1.4-.28c-.31-.14-.62-.29-.92-.45a53.59,53.59,0,0,1-6.38,5.8c-5,3.6-13.1,9.42-22.05,9.42a19.58,19.58,0,0,1-5.45-.76,26.53,26.53,0,0,1-16-12.85c-2.82-5.06-4-12.08-4.48-15.87-2.36,1.6-5.2,5.24-8.6,6.31a28.68,28.68,0,0,1-8.16,1.1,30.75,30.75,0,0,1-13.1-2.86,28.32,28.32,0,0,1-12-10.28c-3.32-4.78-5.09-11.56-6.06-15.16h0c-5.62,6.94-14.21,12.65-23.09,12.65-.48,0-1,0-1.45,0a314.66,314.66,0,0,1,100.62,43.65c1.13.75,2.26,1.5,3.39,2.27a7,7,0,0,1,1.87,9.73h0a7,7,0,0,1-9.81,1.88l-3.3-2.21L462,239.76l8.79,18.9H450l-.27-.58-3.6,5.35q1.92,1.26,3.83,2.57a6.52,6.52,0,0,1-7.32,10.79q-1.91-1.26-3.82-2.49a259.46,259.46,0,0,0-140.59-41.07V217.55h0v15.68a259.47,259.47,0,0,0-140.6,41.07q-1.92,1.23-3.81,2.49a6.6,6.6,0,0,1-3.64,1.1A6.52,6.52,0,0,1,146.45,266q1.91-1.31,3.83-2.57l-3.59-5.35-.28.58H125.58l8.79-18.9-2.5-3.73c-1.11.73-2.21,1.47-3.31,2.21a7,7,0,0,1-9.81-1.88h0a7,7,0,0,1,1.87-9.73c1.13-.77,2.26-1.52,3.4-2.27a314.7,314.7,0,0,1,100.44-43.61l-.94,0c-8.88,0-17.47-5.72-23.09-12.66h0c-1,3.6-2.73,10.38-6.06,15.16a28.46,28.46,0,0,1-12.06,10.28,30.7,30.7,0,0,1-13.08,2.86,28.57,28.57,0,0,1-8.14-1.1c-3.4-1.07-6.24-4.71-8.6-6.31-.48,3.79-1.65,10.81-4.47,15.87a26.59,26.59,0,0,1-16,12.85,19.58,19.58,0,0,1-5.45.76c-8.95,0-17-5.82-22-9.42A55.64,55.64,0,0,1,97.87,203a12.33,12.33,0,0,1-1.44.76A3.49,3.49,0,0,1,95,204c-3.47,0-7.8-4.61-10.71-9.12a3.67,3.67,0,0,1-.25-3.57,8.87,8.87,0,0,1-4.4-15.41,4.3,4.3,0,0,1-1.89-2.07L77,172c-1.44-5.23,1.66-11.3,6.93-13.57a10.33,10.33,0,0,1,4-.85,8.27,8.27,0,0,1,8.14,6.21c0,.13.06.26.09.39a7.6,7.6,0,0,1,2.35-.38c4.32,0,8.47,3.71,10.07,9.53s.19,11.75-3.12,15.1l2.27-1.36A15.68,15.68,0,0,0,123,198.87c8.66,0,17-7.57,17-14.07,0-3.52-.3-9.75-.54-13.36a17.73,17.73,0,1,1,6-3c5.95,4.22,16.13,8.77,22.42,8.77,11.8,0,21.37-8.6,21.37-19.21,0-2.7.08-5.27-.16-7.6a15.29,15.29,0,0,1-1.77.11c-4.73,0-8.83-2.32-10.17-6.2a11.63,11.63,0,0,1-3.79.63,13.68,13.68,0,0,1-12.6-9.54c-2.47-7.18.86-14.83,7.44-17.1h0a3.27,3.27,0,0,1-.14-.33c-1.8-5.22,2.08-11.29,8.66-13.56a15.42,15.42,0,0,1,5-.85c4.72,0,8.83,2.32,10.17,6.21,0,.13.07.26.1.39a11.41,11.41,0,0,1,2.94-.38,13.66,13.66,0,0,1,12.58,9.52c2.36,6.86-.58,14.14-6.58,16.76l0,0c1.31,3.82-.41,8.08-4,11,3.45,7.42,12.41,13.08,21.21,13.08,11.2,0,23.08-8.36,23.08-18.67,0-1,0-1.9,0-2.83a17.64,17.64,0,1,1,7.74-1.46c2.36,9.37,13,16.46,23.3,16.46,11.55,0,20.92-8.92,21.09-20v-9.22c-5.69-1.38-9.82-5.58-9.82-10.54v-.06a11.27,11.27,0,0,1-1.3-.17h0a10,10,0,0,1-1.23-.29l-.07,0c-.39-.12-.77-.25-1.15-.4l-.11,0c-.36-.15-.72-.31-1.06-.49l-.15-.08q-.49-.27-1-.57l-.2-.13c-.29-.2-.58-.41-.86-.63l-.23-.19c-.26-.21-.51-.44-.76-.67l-.25-.25c-.23-.23-.45-.46-.66-.7l-.28-.33c-.19-.24-.38-.47-.56-.72s-.18-.28-.28-.41-.32-.48-.46-.72-.19-.34-.28-.51-.26-.46-.38-.71-.17-.39-.26-.59-.2-.46-.29-.7-.16-.45-.23-.68-.15-.44-.22-.67-.13-.53-.19-.8-.1-.41-.14-.62-.09-.63-.13-1c0-.17-.05-.34-.07-.52,0-.5-.07-1-.07-1.51s0-1,.07-1.52c0-.17.05-.34.07-.52s.08-.64.13-1,.1-.41.15-.62.11-.53.18-.79.15-.45.22-.68.14-.46.23-.68.19-.47.29-.7.17-.4.26-.59.25-.48.38-.72.18-.33.28-.49.31-.49.47-.73.18-.27.28-.4a8.36,8.36,0,0,1,.57-.73c.09-.11.17-.22.26-.32s.44-.48.67-.71a2.83,2.83,0,0,1,.25-.24c.25-.24.51-.47.77-.69l.21-.17c.29-.23.58-.44.88-.64l.18-.12c.32-.21.64-.4,1-.58l.13-.07c.35-.18.71-.35,1.08-.5l.1,0a12.3,12.3,0,0,1,1.16-.41l.06,0c.41-.11.82-.21,1.24-.29h0c.43-.07.87-.13,1.32-.17,0-.14,0-.29,0-.43,0-6.09,6.22-11,13.89-11l.51,0,.51,0m-.27,161.51a254.15,254.15,0,0,1,200.3,97.43h25.78V318h34.49v57.35H526.38a253.52,253.52,0,0,1,26.4,113c0,136.68-107.7,248.18-242.86,254.32l-11.73,27.12-11.74-27.12C151.29,736.51,43.6,625,43.6,488.33A253.65,253.65,0,0,1,70,375.35H37.62V318H72.11v13.17H97.89a254.14,254.14,0,0,1,200.3-97.43m.27-165.61h-1c-8.7,0-16,5.21-17.64,12.11h0c-.51.15-1,.33-1.52.53l-.12,0c-.49.2-1,.42-1.42.66l-.18.09c-.44.24-.87.49-1.28.76l-.23.15c-.39.27-.78.55-1.13.83l-.24.19c-.4.33-.73.62-1,.92l-.25.25-.05,0c-.33.33-.62.63-.87.92l-.27.33-.06.07c-.22.26-.48.58-.73.94-.1.13-.2.27-.29.41l-.06.09c-.21.31-.41.61-.6.93-.1.17-.2.34-.29.51l-.06.11,0,.06c-.16.28-.31.56-.45.86a6.28,6.28,0,0,0-.27.59l-.06.14-.06.13c-.11.25-.21.5-.31.76s-.17.47-.24.7l0,.15-.05.16c-.08.23-.16.46-.22.7s-.14.55-.2.83l0,.16,0,.15c-.05.21-.1.42-.14.63s-.11.72-.16,1.08v.11l0,.11c0,.18-.05.36-.06.54q-.09,1-.09,1.89t.09,1.89c0,.18,0,.36.06.54l0,.1v.12c.05.36.09.72.16,1.07s.09.42.13.63l0,.15,0,.16c.06.28.12.56.2.84s.14.46.21.69l.06.15,0,.15c.08.24.16.48.25.72s.2.5.31.75l.05.12.06.14c.09.2.18.41.28.61s.28.56.43.83l0,.07.06.11c.1.18.19.35.3.53s.38.6.58.9l.07.1c.1.15.19.29.3.43.25.36.51.67.71.91l.06.08c.1.12.19.24.29.35.25.28.52.57.84.89l.05.05.28.28c.3.29.62.57,1,.87l.3.24c.34.27.72.55,1.11.81l.25.17c.4.26.82.51,1.25.74l.2.1c.46.24.92.46,1.38.65l.14.06c.52.2,1,.38,1.52.53h0l.08,0h0a15.66,15.66,0,0,0,9.37,10.07v6.23c-.15,8.78-7.76,15.92-17,15.92-7.48,0-15.11-4.58-18.21-10.5a21.78,21.78,0,1,0-16.95,3.2c-.62,7.07-9.7,13.79-18.94,13.79a20.65,20.65,0,0,1-16.08-8.31,14.23,14.23,0,0,0,3.39-9.59c6-4.3,8.55-12.55,5.92-20.19A17.69,17.69,0,0,0,195,105.7h-.52c-2.54-3.86-7.23-6.23-12.69-6.23a19.54,19.54,0,0,0-6.34,1.07c-7.43,2.56-12.18,9-11.85,15.47a16.32,16.32,0,0,0-6.25,7.37,18.45,18.45,0,0,0-.44,13.37,17.71,17.71,0,0,0,16.48,12.3c.55,0,1.11,0,1.66-.08a14.57,14.57,0,0,0,10.14,5.52c0,.6,0,1.22,0,1.84s0,1.12,0,1.68c0,8.33-7.74,15.11-17.26,15.11-4.06,0-10.6-2.49-15.87-5.42a21.77,21.77,0,0,0-17.24-35.07,21.78,21.78,0,1,0,0,43.55c.28,0,.57,0,.86,0,.16,3.14.28,6.48.28,8.63,0,3.76-6,10-12.94,10a11.58,11.58,0,0,1-11.16-8.53,21.37,21.37,0,0,0,.79-14c-2-7.39-7.54-12.39-13.76-12.54A12.41,12.41,0,0,0,88,153.5a14.33,14.33,0,0,0-5.63,1.18c-7.19,3.1-11.26,11.19-9.27,18.42a15.91,15.91,0,0,0,1,2.34c.09.21.19.41.29.61a13,13,0,0,0,5.43,18.11,7.72,7.72,0,0,0,1.15,2.94c2.13,3.3,7.78,11,14.15,11a7.63,7.63,0,0,0,1.91-.24,47.9,47.9,0,0,0,5.2,4.54c4.2,3,10.64,7.65,18.24,9.45l-2.07,1.39a11.14,11.14,0,0,0,10.07,19.67l-6.53,14-2.71,5.84h24.76a10.62,10.62,0,0,0,.51,17.55A261.37,261.37,0,0,0,95.9,327.06H76.21V313.9H33.51v65.56h30A258.75,258.75,0,0,0,283.7,746.62l10.72,24.78,3.77,8.7,3.76-8.7,10.73-24.78A258.78,258.78,0,0,0,532.9,379.46h30V313.9h-42.7v13.16H500.47A261.62,261.62,0,0,0,452,280.32a10.64,10.64,0,0,0,.5-17.55h24.76l-2.71-5.84-6.52-14a11.13,11.13,0,0,0,10.06-19.67l-2-1.33c7.71-1.76,14.24-6.45,18.49-9.51a45.46,45.46,0,0,0,5.06-4.4,7.24,7.24,0,0,0,1.24.1c6.36,0,12-7.69,14.15-11a7.7,7.7,0,0,0,1.14-2.94,13,13,0,0,0,5.43-18.11c.1-.2.2-.4.29-.61a19.57,19.57,0,0,0,1-2.33c2-7.24-2.08-15.33-9.27-18.43a14.28,14.28,0,0,0-5.62-1.18,12.41,12.41,0,0,0-10.86,6.22c-6.21.15-11.72,5.15-13.76,12.54a21.31,21.31,0,0,0,1.28,15,11.58,11.58,0,0,1-10.82,7.5c-6.9,0-12.94-6.21-12.94-10,0-2.12.11-5.47.27-8.61h0a21.81,21.81,0,1,0-17-8.16c-5.49,3-11.68,5.1-15.31,5.1-9.53,0-17.27-6.78-17.27-15.11,0-.57,0-1.14,0-1.7s0-1.3,0-1.93a14.41,14.41,0,0,0,9.32-5.41c.55.05,1.11.08,1.67.08A17.71,17.71,0,0,0,439,136.76a18.4,18.4,0,0,0-.44-13.37,16.32,16.32,0,0,0-6.25-7.37,13.81,13.81,0,0,0-2.25-8.13,18.49,18.49,0,0,0-9.6-7.34,19.48,19.48,0,0,0-6.33-1.07c-5.46,0-10.15,2.37-12.7,6.23H401A17.71,17.71,0,0,0,384.48,118c-2.63,7.64,0,15.89,5.93,20.2a14.43,14.43,0,0,0,3.82,10.08,20.86,20.86,0,0,1-15.69,7.81c-9.34,0-18.5-6.84-19-14a21.79,21.79,0,1,0-17.11-2.6c-3.21,5.78-10.61,10.1-18,10.1-9.22,0-16.84-7.14-17-15.92V127a15.65,15.65,0,0,0,8.53-9.67l.08,0,.08,0q.78-.24,1.53-.54l.14-.05c.47-.2.94-.42,1.39-.66l.2-.1c.43-.23.85-.48,1.26-.74l.24-.17c.39-.26.77-.54,1.12-.82.09-.06.17-.14.26-.21.39-.32.71-.6,1-.89l.28-.28.05-.05c.32-.32.59-.61.84-.9.1-.11.2-.22.29-.34l.06-.07c.2-.25.46-.57.72-.92l.3-.43.06-.09c.2-.3.4-.61.59-.92s.2-.34.29-.52l.06-.11,0-.07c.15-.27.3-.55.44-.83l.27-.61.06-.13.05-.13c.11-.25.22-.5.32-.76l.24-.71.05-.15.05-.15q.12-.35.21-.69c.08-.28.15-.56.21-.85l0-.15,0-.15c.05-.21.1-.42.13-.63s.12-.71.16-1.07v-.12l0-.1c0-.18,0-.36.07-.54.06-.64.08-1.27.08-1.89s0-1.25-.08-1.89c0-.19,0-.37-.07-.55l0-.1v-.12c0-.36-.09-.71-.16-1.07a6.19,6.19,0,0,0-.13-.62l0-.16,0-.16c-.07-.28-.13-.56-.21-.83s-.14-.47-.21-.7l-.05-.15-.05-.16c-.08-.23-.16-.47-.25-.7s-.2-.51-.31-.76l-.06-.13-.05-.14-.27-.6c-.14-.28-.3-.57-.45-.85l0-.06-.07-.11c-.09-.17-.18-.34-.28-.51-.19-.32-.39-.62-.6-.93l-.07-.09-.29-.42c-.25-.36-.52-.68-.72-.92l-.06-.08-.28-.33c-.25-.29-.53-.59-.86-.91l-.05-.06c-.09-.09-.18-.17-.26-.26-.31-.29-.64-.58-1-.88l-.27-.22c-.36-.28-.74-.56-1.14-.83l-.23-.15c-.41-.27-.84-.52-1.27-.76l-.16-.08c-.48-.25-1-.47-1.43-.67l-.12,0c-.52-.21-1-.39-1.54-.54h0c-1.67-6.9-8.94-12.11-17.63-12.11Zm89.36,112.58a39.9,39.9,0,0,0,6.54-4.68,44.66,44.66,0,0,0,3.46,7.77q-5-1.62-10-3.09Zm-188.85,3a44.12,44.12,0,0,0,3.38-7.64,39.89,39.89,0,0,0,6.43,4.62q-4.93,1.42-9.81,3Zm237.55,15.66.33-.11a15.34,15.34,0,0,0,4.58-2.48,48,48,0,0,0,1.75,5.87q-3.31-1.68-6.66-3.28ZM153.61,202.4a48.68,48.68,0,0,0,1.67-5.66,15.34,15.34,0,0,0,4.58,2.48l.12,0c-2.13,1-4.25,2.07-6.37,3.14Z" transform="translate(-33.51 -68.13)"/><path class="cls-2" d="M298.36,160.6l.65.85a40,40,0,0,0,5.66,6.48l.15.12q-3.31-.06-6.63-.06-3.15,0-6.29.06l.14-.12a40,40,0,0,0,5.66-6.48l.66-.85m-47.76,5.58a32.12,32.12,0,0,0,4.86,4.65c-2.89.38-5.77.81-8.64,1.27a39.93,39.93,0,0,0,3.78-5.92m95.51,0a40.59,40.59,0,0,0,3.81,6q-4.35-.71-8.72-1.29a32.21,32.21,0,0,0,4.91-4.68m-47.75-12.11c-3.3,3.73-6.42,8.66-8.9,10.66-5.37,4.35-8.48,6.87-13.39,7.71a18.77,18.77,0,0,1-3.2.27c-5.44,0-9.89-2.3-12.76-3.79-4.66-2.41-8.14-7.68-10.71-10.69-2.6,8.86-9.31,17.43-17.87,20.91a318.22,318.22,0,0,1,134.06.16c-8.75-3.37-15.63-12.07-18.28-21.07-2.56,3-6.05,8.28-10.71,10.69-2.87,1.49-7.32,3.79-12.75,3.79a18.8,18.8,0,0,1-3.21-.27c-4.91-.84-8-3.36-13.39-7.71-2.47-2-5.6-6.93-8.89-10.66Z" transform="translate(-33.51 -68.13)"/><path class="cls-1" d="M522.21,363.06q-2.31-4.14-4.79-8.2h4.79Z" transform="translate(-33.51 -68.13)"/><path class="cls-2" d="M524.27,352.81H513.73q5.64,8.94,10.54,18.37V352.81Z" transform="translate(-33.51 -68.13)"/><circle class="cls-1" cx="298.19" cy="488.33" r="172.87" transform="translate(-291.48 285.75) rotate(-45)"/><path class="cls-3" d="M298.19,744.29a255.95,255.95,0,1,1,181-75A254.28,254.28,0,0,1,298.19,744.29Zm0-427.46c-94.57,0-171.51,76.94-171.51,171.5s76.94,171.51,171.51,171.51,171.5-76.94,171.5-171.51S392.76,316.83,298.19,316.83Z" transform="translate(-33.51 -68.13)"/><path class="cls-2" d="M298.19,233.74c140.6,0,254.59,114,254.59,254.59s-114,254.6-254.59,254.6S43.6,628.94,43.6,488.33s114-254.59,254.59-254.59m0,427.47A172.88,172.88,0,1,0,125.31,488.33,172.88,172.88,0,0,0,298.19,661.21m0-430.2a256.48,256.48,0,1,0,100.16,20.22A255.73,255.73,0,0,0,298.19,231Zm0,427.46c-93.82,0-170.14-76.32-170.14-170.14S204.37,318.2,298.19,318.2s170.14,76.32,170.14,170.13S392,658.47,298.19,658.47Z" transform="translate(-33.51 -68.13)"/><text class="cls-4" transform="matrix(0.85, -0.53, 0.53, 0.85, 144.05, 262)">S</text><text class="cls-4" transform="translate(171.28 244.5) rotate(-22.76)">P</text><text class="cls-4" transform="translate(200.57 231.48) rotate(-12.58)">O</text><text class="cls-4" transform="translate(237.57 222.95) rotate(-2.09)">R</text><text class="cls-4" transform="translate(272.97 221.57) rotate(7.14)">T</text><text class="cls-4" transform="translate(303.29 225.71) rotate(13.38)">I</text><text class="cls-4" transform="translate(315.29 227.6) rotate(20.43)">N</text><text class="cls-4" transform="translate(348.22 239.27) rotate(30.98)">G</text><text class="cls-4" transform="matrix(0.27, 1.13, -0.97, 0.23, 443.77, 358.04)">T</text><text class="cls-4" transform="matrix(0.09, 1.16, -1, 0.08, 451.98, 396.85)">I</text><text class="cls-4" transform="matrix(-0.11, 1.16, -1, -0.09, 454.51, 414.9)">A</text><text class="cls-4" transform="matrix(-0.36, 1.1, -0.95, -0.31, 450.42, 459.06)">S</text><text class="cls-4" transform="matrix(-0.28, -1.13, 0.97, -0.24, 87.13, 487.82)">C</text><text class="cls-4" transform="matrix(-0.08, -1.16, 1, -0.07, 77.26, 442.74)">.</text><text class="cls-4" transform="translate(75.2 424.15) rotate(-85.39) scale(1.16 1)">F</text><text class="cls-4" transform="translate(78.25 390.55) rotate(-78.34) scale(1.16 1)">.</text><polygon class="cls-5" points="24.2 249.87 38.59 249.87 38.59 261.19 38.59 263.04 43.12 263.04 65.35 263.04 65.36 263.04 87.58 263.04 109.81 263.04 132.04 263.04 154.27 263.04 176.5 263.04 198.72 263.04 220.95 263.04 243.18 263.04 264.67 263.04 264.67 284.68 246.79 284.68 224.56 284.68 202.33 284.68 180.1 284.68 157.88 284.68 135.65 284.68 113.41 284.68 91.19 284.68 68.96 284.68 68.96 284.68 46.73 284.68 38.59 284.68 38.59 299.85 38.59 307.23 23.34 307.23 4.1 307.23 4.1 292.09 4.1 272.71 4.1 253.43 4.1 249.87 24.2 249.87"/><polygon class="cls-6" points="176.5 263.04 180.1 284.68 157.88 284.68 154.27 263.04 176.5 263.04"/><polygon class="cls-6" points="154.27 263.04 157.88 284.68 135.65 284.68 132.04 263.04 154.27 263.04"/><polygon class="cls-6" points="243.18 263.04 246.79 284.68 224.56 284.68 220.95 263.04 243.18 263.04"/><polygon class="cls-6" points="264.67 263.04 264.67 284.68 246.79 284.68 243.18 263.04 264.67 263.04"/><polygon class="cls-6" points="220.95 263.04 224.56 284.68 202.33 284.68 198.72 263.04 220.95 263.04"/><polygon class="cls-6" points="198.72 263.04 202.33 284.68 180.1 284.68 176.5 263.04 198.72 263.04"/><polygon class="cls-6" points="132.04 263.04 135.65 284.68 113.41 284.68 109.81 263.04 132.04 263.04"/><polygon class="cls-6" points="38.59 263.04 43.12 263.04 46.73 284.68 38.59 284.68 38.59 263.04"/><polygon class="cls-6" points="65.35 263.04 68.96 284.68 46.73 284.68 43.12 263.04 65.35 263.04"/><polygon class="cls-6" points="87.58 263.04 91.19 284.68 68.96 284.68 65.36 263.04 87.58 263.04"/><polygon class="cls-6" points="109.81 263.04 113.41 284.68 91.19 284.68 87.58 263.04 109.81 263.04"/><polygon class="cls-6" points="38.59 249.87 38.59 261.19 24.2 249.87 38.59 249.87"/><polygon class="cls-6" points="4.1 249.87 24.2 249.87 38.59 261.19 38.59 280.57 4.1 253.43 4.1 249.87"/><polygon class="cls-6" points="4.1 307.23 4.1 292.09 23.34 307.23 4.1 307.23"/><polygon class="cls-6" points="4.1 253.43 38.59 280.57 38.59 299.85 4.1 272.71 4.1 253.43"/><polygon class="cls-6" points="38.59 299.85 38.59 307.23 23.34 307.23 4.1 292.09 4.1 272.71 38.59 299.85"/><polygon class="cls-5" points="505.14 249.87 490.75 249.87 490.75 261.19 490.75 263.04 486.22 263.04 463.99 263.04 463.99 263.04 441.76 263.04 419.54 263.04 397.31 263.04 375.08 263.04 352.85 263.04 330.62 263.04 308.39 263.04 286.16 263.04 264.67 263.04 264.67 284.68 282.56 284.68 304.78 284.68 327.02 284.68 349.24 284.68 371.47 284.68 393.7 284.68 415.93 284.68 438.15 284.68 460.38 284.68 460.39 284.68 482.61 284.68 490.75 284.68 490.75 299.85 490.75 307.23 506 307.23 525.24 307.23 525.24 292.09 525.24 272.71 525.24 253.43 525.24 249.87 505.14 249.87"/><polygon class="cls-6" points="352.85 263.04 349.24 284.68 371.47 284.68 375.08 263.04 352.85 263.04"/><polygon class="cls-6" points="375.08 263.04 371.47 284.68 393.7 284.68 397.31 263.04 375.08 263.04"/><polygon class="cls-6" points="286.16 263.04 282.56 284.68 304.78 284.68 308.39 263.04 286.16 263.04"/><polygon class="cls-6" points="264.67 263.04 264.67 284.68 282.56 284.68 286.16 263.04 264.67 263.04"/><polygon class="cls-6" points="308.39 263.04 304.78 284.68 327.02 284.68 330.62 263.04 308.39 263.04"/><polygon class="cls-6" points="330.62 263.04 327.02 284.68 349.24 284.68 352.85 263.04 330.62 263.04"/><polygon class="cls-6" points="397.31 263.04 393.7 284.68 415.93 284.68 419.54 263.04 397.31 263.04"/><polygon class="cls-6" points="490.75 263.04 486.22 263.04 482.61 284.68 490.75 284.68 490.75 263.04"/><polygon class="cls-6" points="463.99 263.04 460.39 284.68 482.61 284.68 486.22 263.04 463.99 263.04"/><polygon class="cls-6" points="441.76 263.04 438.15 284.68 460.38 284.68 463.99 263.04 441.76 263.04"/><polygon class="cls-6" points="419.54 263.04 415.93 284.68 438.15 284.68 441.76 263.04 419.54 263.04"/><polygon class="cls-6" points="490.75 249.87 490.75 261.19 505.14 249.87 490.75 249.87"/><polygon class="cls-6" points="525.24 249.87 505.14 249.87 490.75 261.19 490.75 280.57 525.24 253.43 525.24 249.87"/><polygon class="cls-6" points="525.24 307.23 525.24 292.09 506 307.23 525.24 307.23"/><polygon class="cls-6" points="525.24 253.43 490.75 280.57 490.75 299.85 525.24 272.71 525.24 253.43"/><polygon class="cls-6" points="490.75 299.85 490.75 307.23 506 307.23 525.24 292.09 525.24 272.71 490.75 299.85"/><polygon class="cls-7" points="264.67 297.13 264.67 701.64 439.71 297.13 264.67 297.13"/><polygon class="cls-8" points="264.67 297.13 264.67 701.64 89.63 297.13 264.67 297.13"/><polygon class="cls-9" points="264.67 297.13 89.63 297.13 264.67 701.64 439.71 297.13 264.67 297.13"/><rect class="cls-10" x="264.67" y="256.37" width="22.73" height="40.76"/><rect class="cls-10" x="395.97" y="256.37" width="22.73" height="40.76"/><rect class="cls-11" x="275.46" y="324.49" width="22.73" height="40.76" transform="translate(540.13 621.62) rotate(-180)"/><rect class="cls-11" x="144.16" y="324.49" width="22.73" height="40.76" transform="translate(277.53 621.62) rotate(-180)"/><circle class="cls-12" cx="264.67" cy="458.69" r="68.53"/><path class="cls-13" d="M298.19,595.35a68.53,68.53,0,1,0-68.54-68.53A68.6,68.6,0,0,0,298.19,595.35ZM276,589.94A67.11,67.11,0,0,1,245.51,568l8.2-6.93L271,566l10.4,14.78Zm-32.63-60.88,11.55-15.55,14.09,5,11.71,32.27-9.49,13.58-17.6-5Zm39.31,50.65-10.14-14.4L282,551.72l32,.08,11.46,11.41-10.82,16Zm38,10.13-4.24-10.34L327,563.8l17.29-5.28,7.45,8.35A67.15,67.15,0,0,1,320.69,589.84Zm32.14-101.6a66.49,66.49,0,0,1,12.23,36.06l-10.36.89-11-12.9-.65-19.62Zm.65,38-9.16,30.61-17.57,5.36-11.6-11.55,11-31.46,16.55-5.66ZM342.09,512l-16.58,5.67-26-20.31.12-16.7L315,474.76l26.47,17.89Zm-43.9-52.14a67.09,67.09,0,0,1,18,2.48L313.8,473.5l-15,5.79-17.6-5.51-.74-11.5A66.68,66.68,0,0,1,298.19,459.89Zm-18,15.24,17.9,5.59-.12,16.59-28.16,19.81L255.38,512l-.8-18.75ZM253,494l.78,18.34-11.72,15.79-10.78-2.48a66.53,66.53,0,0,1,12.49-37.7Z" transform="translate(-33.51 -68.13)"/><circle class="cls-2" cx="266.02" cy="458.69" r="34.15"/><polygon class="cls-14" points="281.64 482.53 293.23 494.08 310.81 488.71 319.97 458.1 309.14 445.41 292.58 451.07 281.64 482.53"/><polygon class="cls-14" points="308.57 443.9 307.93 424.52 281.45 406.64 266.14 412.56 266.02 429.26 292 449.57 308.57 443.9"/><polygon class="cls-14" points="248.49 483.59 239 497.18 249.13 511.58 281.15 511.14 291.97 495.08 280.51 483.67 248.49 483.59"/><polygon class="cls-14" points="235.46 450.41 221.38 445.38 209.82 460.94 220.08 491.26 237.69 496.25 247.17 482.67 235.46 450.41"/><polygon class="cls-14" points="236.27 448.99 264.42 429.18 264.54 412.6 246.65 407 221.07 425.1 221.87 443.85 236.27 448.99"/><path class="cls-15" d="M354.7,525.19l10.36-.89a66.49,66.49,0,0,0-12.23-36.06l-9.78,4.43.65,19.62Z" transform="translate(-33.51 -68.13)"/><path class="cls-15" d="M327,563.8l-10.58,15.7,4.24,10.34a67.15,67.15,0,0,0,31.08-23l-7.45-8.35Z" transform="translate(-33.51 -68.13)"/><path class="cls-15" d="M253.71,561.09l-8.2,6.93A67.11,67.11,0,0,0,276,589.94l5.47-9.16L271,566Z" transform="translate(-33.51 -68.13)"/><path class="cls-15" d="M298.83,479.29l15-5.79,2.42-11.13a66.76,66.76,0,0,0-35.73-.09l.74,11.5Z" transform="translate(-33.51 -68.13)"/><path class="cls-15" d="M242.07,528.09l11.72-15.79L253,494l-9.23-6a66.53,66.53,0,0,0-12.49,37.7Z" transform="translate(-33.51 -68.13)"/><text class="cls-16" transform="translate(167.91 378.62)">TIAS</text><path class="cls-17" d="M298.19,186.16A300.78,300.78,0,0,1,464.51,236l3.3,2.21a7,7,0,0,0,9.81-1.88h0a7,7,0,0,0-1.87-9.73c-1.13-.77-2.26-1.52-3.39-2.27a314.69,314.69,0,0,0-174.17-52.27" transform="translate(-33.51 -68.13)"/><path class="cls-17" d="M298.19,172.09A314.69,314.69,0,0,0,124,224.36c-1.14.75-2.27,1.5-3.4,2.27a7,7,0,0,0-1.87,9.73h0a7,7,0,0,0,9.81,1.88c1.1-.74,2.2-1.48,3.31-2.21a300.73,300.73,0,0,1,166.32-49.87" transform="translate(-33.51 -68.13)"/><path class="cls-18" d="M298.19,186.16A300.73,300.73,0,0,0,131.87,236l18.41,27.4a267.91,267.91,0,0,1,147.91-44.27" transform="translate(-33.51 -68.13)"/><path class="cls-18" d="M298.19,219.16a267.91,267.91,0,0,1,147.9,44.27L464.51,236a300.78,300.78,0,0,0-166.32-49.87" transform="translate(-33.51 -68.13)"/><path class="cls-17" d="M298.19,233.23A259.46,259.46,0,0,1,438.78,274.3q1.92,1.23,3.82,2.49A6.52,6.52,0,0,0,449.92,266q-1.91-1.31-3.83-2.57a267.91,267.91,0,0,0-147.9-44.27" transform="translate(-33.51 -68.13)"/><path class="cls-17" d="M298.19,219.16a267.91,267.91,0,0,0-147.91,44.27q-1.92,1.26-3.83,2.57a6.52,6.52,0,0,0,7.33,10.79q1.89-1.26,3.81-2.49a259.47,259.47,0,0,1,140.6-41.07" transform="translate(-33.51 -68.13)"/><circle class="cls-19" cx="303.9" cy="135.89" r="11.72"/><circle class="cls-19" cx="383.98" cy="159.15" r="11.36"/><circle class="cls-19" cx="225.44" cy="135.89" r="11.72"/><circle class="cls-19" cx="145.36" cy="159.15" r="11.36"/><polygon class="cls-20" points="437.28 190.53 416.44 190.53 407.52 171.34 428.35 171.34 437.28 190.53"/><polygon class="cls-20" points="92.07 190.53 112.9 190.53 121.83 171.34 101 171.34 92.07 190.53"/><rect class="cls-21" x="356.83" y="207.15" width="43.42" height="13.83" rx="6.92" transform="translate(45.51 -169.35) rotate(16.98)"/><rect class="cls-21" x="196.13" y="207.15" width="43.42" height="13.83" rx="6.92" transform="translate(455.18 287.05) rotate(163.02)"/><polygon class="cls-20" points="263.92 149.95 241.53 134.28 263.92 118.61 286.31 134.28 263.92 149.95"/><path class="cls-22" d="M488.94,187.09a15.67,15.67,0,0,1-15.17,11.78c-8.67,0-17-7.57-17-14.07,0-4.21.43-12.28.68-15.15-2.58-1.46-2.07-.83-4.65-2.29-5.59,4.49-17.06,9.87-23.89,9.87-11.81,0-21.38-8.6-21.38-19.21,0-4.27-.21-8.21,1-11.39-1.15-.65-2.3-1.3-3.44-2-1.32-.42-2.69-.84-4.08-1.26-1.78,9.15-12.22,16.78-22.43,16.78-11.21,0-23.09-8.36-23.09-18.67a49,49,0,0,1,.36-7.38c-1.49-.17-3-.32-4.51-.47l-3.08-.26c0,11.2-12.14,20.28-23.79,20.28s-20.92-8.92-21.09-20V123.6h-10v10.1c-.17,11.07-9.54,20-21.09,20s-23.78-9.08-23.79-20.28l-3.08.26c-1.52.15-3,.3-4.5.47a50.38,50.38,0,0,1,.35,7.38c0,10.31-11.88,18.67-23.08,18.67-10.22,0-20.66-7.63-22.44-16.78-1.39.42-2.76.84-4.08,1.26l-3.43,2c1.21,3.18,1,7.12,1,11.39,0,10.61-9.57,19.21-21.37,19.21-6.84,0-18.3-5.38-23.9-9.87-2.57,1.46-2.07.83-4.65,2.29.25,2.87.68,10.94.68,15.15,0,6.5-8.38,14.07-17,14.07a15.68,15.68,0,0,1-15.18-11.78L92,196.55q1.36,1.56,2.82,3.15l3,3.19a55.82,55.82,0,0,0,6.74,6.17c6,4.32,16.46,11.83,27.5,8.66a26.59,26.59,0,0,0,16-12.85c2.82-5.06,4-12.08,4.47-15.87,2.36,1.6,5.2,5.24,8.6,6.31a31.14,31.14,0,0,0,21.22-1.76,28.46,28.46,0,0,0,12.06-10.28c3.33-4.78,5.09-11.56,6.06-15.16h0c6.23,7.7,16.11,13.89,26,12.46,10.94-1.59,19.87-11.78,23-22.33,2.57,3,6,8.28,10.71,10.69,3.42,1.77,9.08,4.7,16,3.52,4.91-.84,8-3.36,13.39-7.71,2.48-2,5.6-6.93,8.9-10.66,3.29,3.73,6.42,8.66,8.89,10.66,5.38,4.35,8.48,6.87,13.39,7.71,6.88,1.18,12.54-1.75,16-3.52,4.66-2.41,8.15-7.68,10.71-10.69,3.1,10.55,12,20.74,23,22.33,9.88,1.43,19.76-4.76,26-12.46h0c1,3.6,2.74,10.38,6.06,15.16a28.32,28.32,0,0,0,12,10.28,31.26,31.26,0,0,0,21.26,1.76c3.4-1.07,6.24-4.71,8.6-6.31.48,3.79,1.66,10.81,4.48,15.87a26.53,26.53,0,0,0,16,12.85c11,3.17,21.49-4.34,27.5-8.66a55.82,55.82,0,0,0,6.74-6.17l3-3.19q1.45-1.59,2.82-3.15Z" transform="translate(-33.51 -68.13)"/><circle class="cls-23" cx="320.49" cy="52.92" r="17.68"/><circle class="cls-23" cx="427.63" cy="86.29" r="17.68"/><circle class="cls-23" cx="208.37" cy="52.92" r="17.68"/><circle class="cls-23" cx="101.23" cy="86.29" r="17.68"/><path class="cls-23" d="M507.11,180.24c1.27-4.52,3.31-4.83,5.15-4.11a4.48,4.48,0,0,0,5.84-2.31c.43-1,.76-1.77.77-1.8,1.44-5.23-1.67-11.3-6.94-13.57s-10.71.14-12.15,5.36c0,.13,0,.26-.08.39-5.08-1.65-10.54,2.28-12.43,9.15s.47,14.14,5.27,16.75c0,0,0,0,0,.05-1.44,5.22,1.66,11.29,6.93,13.56,3.64,1.56,8.78-3.71,12.1-8.84a3.69,3.69,0,0,0-2.63-5.67C506.76,188.92,505.2,187,507.11,180.24Z" transform="translate(-33.51 -68.13)"/><circle class="cls-19" cx="476.81" cy="114.41" r="8.89"/><path class="cls-23" d="M88.78,180.24c-1.27-4.52-3.3-4.83-5.15-4.11a4.49,4.49,0,0,1-5.84-2.31L77,172c-1.44-5.23,1.66-11.3,6.93-13.57s10.71.14,12.15,5.36c0,.13.06.26.09.39,5.08-1.65,10.53,2.28,12.42,9.15s-.46,14.14-5.27,16.75c0,0,0,0,0,.05,1.43,5.22-1.67,11.29-6.94,13.56-3.64,1.56-8.78-3.71-12.1-8.84A3.69,3.69,0,0,1,87,189.2C89.14,188.92,90.69,187,88.78,180.24Z" transform="translate(-33.51 -68.13)"/><circle class="cls-19" cx="52.05" cy="114.41" r="8.89"/><path class="cls-23" d="M311.32,83.64h0c0-.13,0-.25,0-.38,0-6.09-6.21-11-13.88-11s-13.89,4.94-13.89,11c0,.14,0,.29,0,.43-7.21.56-12.9,7.1-12.9,15.1s5.68,14.52,12.87,15.09v.06c0,6.09,6.22,11,13.89,11s13.88-4.93,13.88-11c7.67,0,13.89-6.78,13.89-15.15S319,83.64,311.32,83.64Z" transform="translate(-33.51 -68.13)"/><circle class="cls-19" cx="264.43" cy="30.47" r="10.01"/><path class="cls-23" d="M284.57,83.64h0c0-.13,0-.25,0-.38,0-6.09,6.22-11,13.89-11s13.88,4.94,13.88,11c0,.14,0,.29,0,.43,7.2.56,12.89,7.1,12.89,15.1s-5.68,14.52-12.87,15.09v.06c0,6.09-6.21,11-13.88,11s-13.89-4.93-13.89-11c-7.67,0-13.89-6.78-13.89-15.15S276.9,83.64,284.57,83.64Z" transform="translate(-33.51 -68.13)"/><circle class="cls-19" cx="264.43" cy="30.47" r="10.01"/><path class="cls-23" d="M427.71,118.32h0c0-.11.09-.21.13-.33,1.8-5.22-2.08-11.29-8.66-13.56s-13.38.14-15.17,5.36c-.05.13-.07.26-.11.39-6.35-1.65-13.16,2.28-15.52,9.14s.58,14.14,6.59,16.76a.08.08,0,0,0,0,0c-1.8,5.23,2.08,11.3,8.66,13.57s13.38-.14,15.17-5.36c6.59,2.26,13.92-1.73,16.39-8.91S434.29,120.59,427.71,118.32Z" transform="translate(-33.51 -68.13)"/><circle class="cls-19" cx="378.3" cy="59.08" r="9.08"/><path class="cls-23" d="M168.18,118.32h0a3.27,3.27,0,0,1-.14-.33c-1.8-5.22,2.08-11.29,8.66-13.56s13.38.14,15.18,5.36c0,.13.07.26.1.39,6.35-1.65,13.16,2.28,15.52,9.14S207,133.46,201,136.08l0,0c1.79,5.23-2.08,11.3-8.67,13.57s-13.37-.14-15.17-5.36c-6.58,2.26-13.92-1.73-16.39-8.91S161.6,120.59,168.18,118.32Z" transform="translate(-33.51 -68.13)"/><circle class="cls-19" cx="150.57" cy="59.08" r="9.08"/></svg>