<svg id="Capa_1" data-name="Capa 1" xmlns="http://www.w3.org/2000/svg" viewBox="0 0 576.53 787.15"><defs><style>.cls-1,.cls-7{fill:#fcbf0a;}.cls-1,.cls-20,.cls-9{stroke:#fab311;}.cls-1{stroke-width:10.71px;}.cls-1,.cls-11,.cls-12,.cls-17,.cls-18,.cls-2,.cls-3,.cls-4,.cls-5,.cls-8,.cls-9{fill-rule:evenodd;}.cls-2{fill:#fff;}.cls-3{fill:#e52521;}.cls-4{fill:#2d2e83;}.cls-5{fill:#fcbf05;stroke:#fcbf06;stroke-width:2.31px;}.cls-13,.cls-6,.cls-7{isolation:isolate;}.cls-7{font-size:46.66px;font-family:ArialMT, Arial;}.cls-8,.cls-9{fill:#fcbf06;}.cls-17,.cls-20,.cls-9{stroke-width:5.35px;}.cls-10,.cls-19,.cls-20{fill:none;}.cls-11,.cls-13{fill:#e42013;}.cls-12{fill:#67b32e;}.cls-13{font-size:41.16px;font-family:Arial-BoldMT, Arial;font-weight:700;}.cls-14{letter-spacing:-0.02em;}.cls-15{letter-spacing:-0.04em;}.cls-16{letter-spacing:0em;}.cls-17{fill:#e09604;}.cls-17,.cls-18,.cls-19{stroke:#010101;}.cls-18{fill:#098838;}.cls-18,.cls-19{stroke-miterlimit:10;stroke-width:0.54px;}</style></defs><g id="Layer1000"><path id="path2" class="cls-1" d="M297.6,809l-19.3-10.55c-32.7,2.51-73.89-42.94-77.57-42.22l-18.24,3.61c-9.94,2-37.71-16.16-46.05-31.75l7.76-19c.29-13.1-26.53-36.91-35.42-29l-13.36,12c-16.61-20.94-30.13-41.4-30-65.81q2.79-12,25.09-27.33L52.21,273.19c-10.75-13.43-23-18.72-37.3-12.1q-2.5-28.57,29.33-35.66C39.3,211.94,38.66,197,52,186.83c6.88-4.67,15.08-4.79,24.77-.74,6.38,2.71,14,12.18,22.66,24.84A55.73,55.73,0,0,0,125.14,191c51,19.43,108.76,28.19,172.49,27.23h0c63.73,1,121.52-7.8,172.51-27.23a55.75,55.75,0,0,0,25.73,19.94c8.62-12.66,16.28-22.13,22.66-24.84,9.69-4.05,17.9-3.93,24.77.74C556.61,197,556,211.94,551,225.43q31.85,7.09,29.34,35.66c-14.34-6.62-26.55-1.33-37.31,12.1L504.81,599q22.32,15.36,25.09,27.33c.09,24.41-13.43,44.87-30,65.81l-13.35-12c-8.89-8-35.71,15.85-35.42,29l7.76,19c-8.34,15.59-36.12,33.71-46,31.75l-18.24-3.61c-3.68-.72-44.88,44.73-77.57,42.22L297.62,809Z" transform="translate(-9.37 -27.21)"/><path id="path4" class="cls-2" d="M297.6,240.62H109.47V633.94c8.16,42.71,51.72,70.51,147,76.5,15.78,1.43,32.76,6.26,41.18,22.54,8.42-16.28,25.34-21.11,41.12-22.54,95.29-6,138.85-33.79,147-76.5V240.62Z" transform="translate(-9.37 -27.21)"/><path id="path6" class="cls-3" d="M297.6,283.6H126.54V623.89c7.43,37,47,61,133.68,66.19,14.35,1.23,29.79,5.41,37.44,19.49,7.66-14.08,23-18.26,37.4-19.49,86.64-5.19,126.25-29.24,133.67-66.19V283.6Z" transform="translate(-9.37 -27.21)"/><path id="path8" class="cls-4" d="M296.14,324.05h-130V608.26c5.64,30.86,35.75,50.94,101.61,55.27,10.91,1,22.64,4.53,28.46,16.29,5.82-11.76,17.51-15.25,28.42-16.29,65.86-4.33,96-24.41,101.61-55.27V324.05Z" transform="translate(-9.37 -27.21)"/><g id="Layer1001"><path id="path10" class="cls-5" d="M219.78,525.17c13.54,0,24.51,12.7,24.51,28.37s-11,28.37-24.51,28.37-24.5-12.7-24.5-28.37,11-28.37,24.5-28.37Z" transform="translate(-9.37 -27.21)"/><path id="path12" class="cls-4" d="M185.54,536.63v18.63h69.07V536.63Z" transform="translate(-9.37 -27.21)"/><path id="path14" class="cls-5" d="M295.79,534.14c13.53,0,24.5,12.7,24.5,28.37s-11,28.37-24.5,28.37-24.51-12.7-24.51-28.37,11-28.37,24.51-28.37Z" transform="translate(-9.37 -27.21)"/><path id="path16" class="cls-4" d="M261.54,545.6v18.63h69.07V545.6Z" transform="translate(-9.37 -27.21)"/><path id="path18" class="cls-5" d="M374.62,525.17c13.53,0,24.5,12.7,24.5,28.37h0c0,15.67-11,28.37-24.5,28.37s-24.5-12.7-24.5-28.37S361.09,525.17,374.62,525.17Z" transform="translate(-9.37 -27.21)"/><path id="path20" class="cls-4" d="M340.37,536.63v18.63h69.08V536.63Z" transform="translate(-9.37 -27.21)"/><path id="path22" class="cls-5" d="M375.09,467.11c13.53,0,24.5,12.7,24.5,28.37s-11,28.37-24.5,28.37-24.5-12.7-24.5-28.37,11-28.37,24.5-28.37Z" transform="translate(-9.37 -27.21)"/><path id="path24" class="cls-4" d="M340.85,478.57V497.2h69.07V478.57Z" transform="translate(-9.37 -27.21)"/><path id="path26" class="cls-5" d="M296.73,426.51c13.53,0,24.5,12.7,24.5,28.37s-11,28.37-24.5,28.37-24.5-12.7-24.5-28.37,11-28.37,24.5-28.37Z" transform="translate(-9.37 -27.21)"/><path id="path28" class="cls-4" d="M262.48,438V456.6h69.08V438Z" transform="translate(-9.37 -27.21)"/><path id="path30" class="cls-5" d="M216,467.11c13.53,0,24.5,12.7,24.5,28.37s-11,28.37-24.5,28.37-24.5-12.7-24.5-28.37,11-28.37,24.5-28.37Z" transform="translate(-9.37 -27.21)"/><path id="path32" class="cls-4" d="M181.76,478.57V497.2h69.08V478.57Z" transform="translate(-9.37 -27.21)"/><path id="path34" class="cls-5" d="M374.62,586.54c13.53,0,24.5,12.7,24.5,28.37h0c0,15.67-11,28.37-24.5,28.37s-24.5-12.7-24.5-28.37S361.09,586.54,374.62,586.54Z" transform="translate(-9.37 -27.21)"/><path id="path36" class="cls-4" d="M340.37,598v18.63h69.08V598Z" transform="translate(-9.37 -27.21)"/><path id="path38" class="cls-5" d="M297.61,596c13.53,0,24.51,12.7,24.51,28.37h0c0,15.67-11,28.37-24.51,28.37s-24.5-12.7-24.5-28.37S284.08,596,297.61,596Z" transform="translate(-9.37 -27.21)"/><path id="path40" class="cls-4" d="M263.37,607.44v18.63h69.07V607.44Z" transform="translate(-9.37 -27.21)"/><path id="path42" class="cls-5" d="M220.24,586.91c13.53,0,24.5,12.7,24.5,28.37h0c0,15.67-11,28.37-24.5,28.37s-24.51-12.7-24.51-28.37,11-28.37,24.51-28.37Z" transform="translate(-9.37 -27.21)"/><path id="path44" class="cls-4" d="M186,598.37V617h69.07V598.37Z" transform="translate(-9.37 -27.21)"/><path id="path46" class="cls-5" d="M375.09,406.21c13.53,0,24.5,12.7,24.5,28.37s-11,28.37-24.5,28.37-24.5-12.7-24.5-28.37,11-28.37,24.5-28.37Z" transform="translate(-9.37 -27.21)"/><path id="path48" class="cls-4" d="M340.85,417.67V436.3h69.07V417.67Z" transform="translate(-9.37 -27.21)"/><path id="path50" class="cls-5" d="M219.78,406.68c13.54,0,24.51,12.71,24.51,28.37s-11,28.38-24.51,28.38-24.5-12.71-24.5-28.38,11-28.37,24.5-28.37Z" transform="translate(-9.37 -27.21)"/><path id="path52" class="cls-4" d="M185.54,418.15v18.62h69.07V418.15Z" transform="translate(-9.37 -27.21)"/><path id="path54" class="cls-5" d="M374.62,343c13.53,0,24.5,12.71,24.5,28.38s-11,28.37-24.5,28.37-24.5-12.7-24.5-28.37,11-28.38,24.5-28.38Z" transform="translate(-9.37 -27.21)"/><path id="path56" class="cls-4" d="M340.37,354.42v18.63h69.08V354.42Z" transform="translate(-9.37 -27.21)"/><path id="path58" class="cls-5" d="M296.73,360c13.53,0,24.5,12.7,24.5,28.37s-11,28.37-24.5,28.37-24.5-12.7-24.5-28.37,11-28.37,24.5-28.37Z" transform="translate(-9.37 -27.21)"/><path id="path60" class="cls-4" d="M262.48,371.41V390h69.08V371.41Z" transform="translate(-9.37 -27.21)"/><path id="path62" class="cls-5" d="M220.26,342.48c13.53,0,24.5,12.71,24.5,28.37s-11,28.38-24.5,28.38-24.51-12.71-24.51-28.38,11-28.37,24.51-28.37Z" transform="translate(-9.37 -27.21)"/><path id="path64" class="cls-4" d="M186,354v18.62h69.07V354Z" transform="translate(-9.37 -27.21)"/></g><path id="path67" class="cls-3" d="M422.78,510.19,296.45,583.63,167.27,510.19l128.9-79.66Z" transform="translate(-9.37 -27.21)"/><g id="text71" class="cls-6"><text class="cls-7" transform="translate(354.34 499.18)">D</text></g><path id="path73" class="cls-8" d="M289,206.37l20.8,0h0c56.12,0,107.57-16.91,131-41.49-2.12-3.4-10.18-11.69-6.23-12.09,8.7-.9,24-3.45,27.84-14.12,2.2-5.75,5-5.29,8.12-2,4.1,4.68,7.78,4.15,12.73-.44l6.43-2.38,10.39.64c8.37-4.45,9-9.53-1.41-12.15l-9.41.36c-2.32-4.93-6.79-17.45-9.48-14.5-4,4.36-9.89,14.59-10.82,14.26-3.21-1.15-3.26-7.71-4.35-11-3.46-1.18-6.21,3.34-11.73,11.28l-5.51-11.56c-4.33.9-6.58,5.31-6.11,17.16l-8.77,6.46q-6.8-4.08-6.12-14.23c-23.11,8.93-37.08,2-44.78-15.74-16.91,15-30.79,14.69-40.24-8.05-14.94,8.23-29.48,7.65-43.43-5.77h0c-13.94,13.42-28.49,14-43.43,5.77-9.45,22.74-23.33,23.06-40.24,8-7.7,17.76-21.66,24.68-44.78,15.75q.67,10.14-6.11,14.23l-8.78-6.46c.48-11.85-1.77-16.26-6.11-17.16L143,122.78c-5.52-7.94-8.26-12.46-11.72-11.28-1.1,3.27-1.15,9.83-4.36,11-.92.33-6.86-9.9-10.82-14.26-2.68-3-7.15,9.57-9.47,14.5l-9.41-.36c-10.43,2.62-9.79,7.7-1.42,12.15l10.39-.64,6.43,2.38c5,4.59,8.64,5.12,12.74.44,3.09-3.29,5.91-3.75,8.11,2,3.88,10.67,19.15,13.22,27.84,14.12,3.95.4-4.11,8.68-6.23,12.09,23.83,25,76.71,42.1,134,41.47Z" transform="translate(-9.37 -27.21)"/><path id="path75" class="cls-3" d="M296.64,151.3c-59.62-2-116,19.56-116,23.44s51.76,25.82,116,25.82,117.63-21.84,117.72-25.82S356.27,153.32,296.64,151.3Z" transform="translate(-9.37 -27.21)"/><path id="path77" class="cls-9" d="M299.11,76.31,329.39,96V84.72l13.84-7.19-13.84-7.38v-11l-23,10.38,13.39-21.43H307.6l-8.49-15.17-7.72,15.17H281.05l10.09,21.43L271,59.11v11l-13.21,7.38L271,84.72V96Z" transform="translate(-9.37 -27.21)"/><path id="path79" class="cls-9" d="M386.44,95.28l23.82,27.18,3.06-10.9,15.27-3.18L417.25,97.54l3-10.64-24.91,3.79,18.68-17-11.76-3.3-4.08-16.9L386.64,66l-10-2.79,3.93,23.35L364,71.12l-3,10.64L346.31,85.3l10.78,10.48L354,106.69Z" transform="translate(-9.37 -27.21)"/><path id="path81" class="cls-9" d="M209.08,95.28l-23.83,27.18-3.06-10.9-15.26-3.18,11.33-10.84-3-10.64,24.92,3.79-18.68-17,11.76-3.3,4.07-16.9L208.88,66l10-2.79-3.93,23.35,16.6-15.44,3,10.64L249.2,85.3,238.43,95.78l3,10.91Z" transform="translate(-9.37 -27.21)"/><path id="path83" class="cls-10" d="M162.12,153.16c89-47.73,179.59-48.6,271.74-.12" transform="translate(-9.37 -27.21)"/><path id="path85" class="cls-4" d="M215.39,141.74l1.9,8.4L256.83,142l-1.13-9.9Z" transform="translate(-9.37 -27.21)"/><path id="path87" class="cls-11" d="M440.8,164.9c-4.83-6-8.42-11.28-6.94-11.86l-4-2.06-11,11.31,7.89,14.26A96.39,96.39,0,0,0,440.8,164.9Z" transform="translate(-9.37 -27.21)"/><path id="path89" class="cls-4" d="M385.79,143.6l-1.9,8.4-39.54-8.11,1.14-9.91Z" transform="translate(-9.37 -27.21)"/><path id="path91" class="cls-12" d="M273.33,125.1a2.55,2.55,0,0,1,2.55,2.55h0a2.55,2.55,0,1,1-2.55-2.55Z" transform="translate(-9.37 -27.21)"/><path id="path93" class="cls-12" d="M275.6,141a2.55,2.55,0,0,1,2.55,2.54h0A2.55,2.55,0,1,1,275.6,141Z" transform="translate(-9.37 -27.21)"/><path id="path95" class="cls-12" d="M329,126.26a2.55,2.55,0,0,1,2.54,2.55h0a2.55,2.55,0,1,1-2.54-2.55Z" transform="translate(-9.37 -27.21)"/><path id="path97" class="cls-12" d="M326.87,143.37a2.55,2.55,0,1,1-2.55,2.55,2.55,2.55,0,0,1,2.55-2.55Z" transform="translate(-9.37 -27.21)"/><path id="path99" class="cls-12" d="M410.11,145.62a2.55,2.55,0,0,1,2.55,2.55h0a2.55,2.55,0,1,1-2.55-2.55Z" transform="translate(-9.37 -27.21)"/><path id="path101" class="cls-12" d="M402.7,158.21a2.55,2.55,0,0,1,2.55,2.55h0a2.55,2.55,0,1,1-2.55-2.55Z" transform="translate(-9.37 -27.21)"/><path id="path103" class="cls-12" d="M186.64,148a2.55,2.55,0,1,1-2.55,2.55,2.56,2.56,0,0,1,2.55-2.55Z" transform="translate(-9.37 -27.21)"/><path id="path105" class="cls-12" d="M192.68,160.33a2.55,2.55,0,1,1-2.55,2.55,2.55,2.55,0,0,1,2.55-2.55Z" transform="translate(-9.37 -27.21)"/><path id="path107" class="cls-11" d="M298.23,147.55l-13.14-12.5,13.14-12.49,13.13,12.49Z" transform="translate(-9.37 -27.21)"/><path id="path109" class="cls-11" d="M155,164.9c4.83-6.05,8.57-11.15,7.08-11.74l5-2.6L177.63,161l-8.56,15.54A97.31,97.31,0,0,1,155,164.9Z" transform="translate(-9.37 -27.21)"/><g id="text113" class="cls-6"><text class="cls-13" transform="translate(119.62 250.36)"><tspan class="cls-14">L</tspan><tspan class="cls-15" x="24.4" y="0" xml:space="preserve"> A</tspan><tspan x="62.51" y="0" xml:space="preserve"> N Z</tspan><tspan class="cls-15" x="140.26" y="0" xml:space="preserve"> A</tspan><tspan class="cls-16" x="178.37" y="0" xml:space="preserve"> R O T E</tspan></text></g><g id="text117" class="cls-6"><text class="cls-7" transform="translate(194.51 499.14)">U</text></g><g id="Layer1002"><path id="path119" class="cls-17" d="M296.17,469.59a37.19,37.19,0,0,1,37.19,37.19h0a37.19,37.19,0,1,1-37.19-37.19Z" transform="translate(-9.37 -27.21)"/><path id="path121" class="cls-17" d="M300.33,469.82c-8.69,5.69-4.1,18.22,6.1,18.22,9.52,0,26.64,15.19,26.64,23.41" transform="translate(-9.37 -27.21)"/><path id="path123" class="cls-17" d="M328,526c-.74-2.91-3.22-4-5.58-5.33-3.14-1.75-6.24-1.37-9-1.22-.75-.52-.46-10.87-17.38-12.37-12.44-1.1-4.55-19.27,5.17-20.33" transform="translate(-9.37 -27.21)"/><path id="path125" class="cls-17" d="M262.4,522.38c8.39,3.57,13.48-5.5,11.19-13.73-3.65-13.09,4.48-29,11.69-37.44" transform="translate(-9.37 -27.21)"/><path id="path127" class="cls-17" d="M274.11,513.51c6,9.09,19.92,2.19,21.91-6.39" transform="translate(-9.37 -27.21)"/><path id="path129" class="cls-17" d="M313.38,519.49c-5.56,10.91-27.16,17.62-38.74,17.62" transform="translate(-9.37 -27.21)"/></g><g id="Layer1003"><path id="path132" class="cls-18" d="M331.39,460.23c-1.72-3.09.52,7.08,3.54,11.63s6.74,7.54,9.18,7.59c.82-2.38-.53-7.07-3.54-11.62s-7.35-4.3-9.18-7.6Z" transform="translate(-9.37 -27.21)"/><path id="path134" class="cls-19" d="M344.13,479.44a70,70,0,0,1-5.9-7.58l-3.17-5.19" transform="translate(-9.37 -27.21)"/><path id="path136" class="cls-18" d="M345.3,472c-.4-3.5-2.22,6.75-1.18,12.09s3.34,9.51,5.58,10.49c1.67-1.9,2.23-6.75,1.18-12.09s-5.15-6.74-5.58-10.49Z" transform="translate(-9.37 -27.21)"/><path id="path138" class="cls-19" d="M349.72,494.55a68.05,68.05,0,0,1-2.54-9.24l-.95-6" transform="translate(-9.37 -27.21)"/><path id="path140" class="cls-18" d="M339,477c1.93,2.51,0,6.55,2.58,10.71s6.07,6.87,8.47,6.88c1-2.23,0-6.55-2.58-10.72S337,474.52,339,477Z" transform="translate(-9.37 -27.21)"/><path id="path142" class="cls-19" d="M350,494.63a48.13,48.13,0,0,0-3.33-7.35c-1.63-2.6-4.29-6.09-4.29-6.09" transform="translate(-9.37 -27.21)"/><path id="path144" class="cls-18" d="M353.66,481.06c.61-3.47-4.06,5.85-4.58,11.27s.51,10.06,2.38,11.62c2.15-1.35,4.05-5.85,4.57-11.27s-3-7.9-2.37-11.62Z" transform="translate(-9.37 -27.21)"/><path id="path146" class="cls-19" d="M351.48,504a70.09,70.09,0,0,1,.18-9.58l.8-6" transform="translate(-9.37 -27.21)"/><path id="path148" class="cls-18" d="M341.89,489.22c1.76,2.64-.49,6.53,1.83,10.87s5.56,7.26,8,7.44c1.15-2.16.5-6.53-1.82-10.87s-9.72-10.09-8-7.44Z" transform="translate(-9.37 -27.21)"/><path id="path150" class="cls-19" d="M351.68,507.53a48.12,48.12,0,0,0-2.81-7.57c-1.44-2.7-3.85-6.36-3.85-6.36" transform="translate(-9.37 -27.21)"/><path id="path152" class="cls-18" d="M357.84,494.43c1.35-3.26-5.23,4.84-6.92,10s-1.7,9.94-.22,11.86c2.39-.87,5.23-4.84,6.92-10s-1.23-8.37.22-11.86Z" transform="translate(-9.37 -27.21)"/><path id="path154" class="cls-19" d="M350.72,516.32A69.73,69.73,0,0,1,353,507c1.25-3.42,2.09-5.69,2.09-5.69" transform="translate(-9.37 -27.21)"/><path id="path156" class="cls-18" d="M347.22,504c.52,3.12-3.12,5.78-2.76,10.67s2.13,8.88,4.26,10c1.93-1.51,3.11-5.78,2.76-10.68s-4.79-13.11-4.26-10Z" transform="translate(-9.37 -27.21)"/><path id="path158" class="cls-19" d="M348.72,524.64a48.5,48.5,0,0,0,.51-8c-.22-3.05-.93-7.36-.93-7.36" transform="translate(-9.37 -27.21)"/><path id="path160" class="cls-18" d="M355.8,512.88c1.91-3-6,3.86-8.58,8.67s-3.42,9.49-2.3,11.64c2.51-.44,6-3.87,8.58-8.67s.26-8.46,2.3-11.64Z" transform="translate(-9.37 -27.21)"/><path id="path162" class="cls-19" d="M344.94,533.2a69,69,0,0,1,3.88-8.78l3.05-5.25" transform="translate(-9.37 -27.21)"/><path id="path164" class="cls-18" d="M344.66,517.57c-.16,3.16-4.28,5-5,9.86s.19,9.12,2,10.66c2.21-1.07,4.27-5,5-9.85s-1.88-13.83-2-10.67Z" transform="translate(-9.37 -27.21)"/><path id="path166" class="cls-19" d="M341.72,538.09a48.17,48.17,0,0,0,2.21-7.75c.44-3,.66-7.4.66-7.4" transform="translate(-9.37 -27.21)"/><path id="path168" class="cls-18" d="M353.3,529.81c2.82-2.16-7,1.61-11,5.26s-6.47,7.77-6.15,10.17c2.51.43,7-1.61,11-5.27S350.3,532.11,353.3,529.81Z" transform="translate(-9.37 -27.21)"/><path id="path170" class="cls-19" d="M336.13,545.26a68.85,68.85,0,0,1,6.65-7l4.67-3.91" transform="translate(-9.37 -27.21)"/><path id="path172" class="cls-18" d="M339,526.44c-.39,3.14-4.64,4.67-5.7,9.46s-.48,9.11,1.23,10.78c2.29-.9,4.64-4.67,5.7-9.46S339.42,523.3,339,526.44Z" transform="translate(-9.37 -27.21)"/><path id="path174" class="cls-19" d="M334.57,546.68a48.25,48.25,0,0,0,2.79-7.57c.66-3,1.21-7.33,1.21-7.33" transform="translate(-9.37 -27.21)"/><path id="path176" class="cls-18" d="M347.46,541.23c3.23-1.49-7.16.06-11.94,2.73s-8,6.18-8.25,8.59c2.35,1,7.16-.06,11.94-2.74s4.81-7,8.25-8.58Z" transform="translate(-9.37 -27.21)"/><path id="path178" class="cls-19" d="M327.28,552.57a71.25,71.25,0,0,1,8-5.34l5.43-2.79" transform="translate(-9.37 -27.21)"/><path id="path180" class="cls-18" d="M334.29,534.84c-1.07,3-5.56,3.55-7.65,8s-2.49,8.78-1.18,10.78c2.42-.39,5.55-3.55,7.65-8S335.36,531.86,334.29,534.84Z" transform="translate(-9.37 -27.21)"/><path id="path182" class="cls-19" d="M325.46,553.62a48.42,48.42,0,0,0,4.39-6.78c1.3-2.77,2.8-6.88,2.8-6.88" transform="translate(-9.37 -27.21)"/><path id="path184" class="cls-18" d="M338.42,551.69c3.14-.6-6.27-1.5-11-.2s-8.37,3.65-9.1,5.71c1.84,1.35,6.27,1.5,11,.2s5.74-5.06,9.1-5.71Z" transform="translate(-9.37 -27.21)"/><path id="path186" class="cls-19" d="M318.3,557.22a63.73,63.73,0,0,1,8.18-2.92l5.36-1.27" transform="translate(-9.37 -27.21)"/><path id="path188" class="cls-18" d="M328.33,543.26c-1.6,2.37-5.64,1.89-8.45,5.32s-4.11,7.13-3.41,9.16c2.21.19,5.64-1.89,8.44-5.32S329.92,540.89,328.33,543.26Z" transform="translate(-9.37 -27.21)"/><path id="path190" class="cls-19" d="M316.47,557.74a43.93,43.93,0,0,0,5.33-5c1.75-2.13,4-5.4,4-5.4" transform="translate(-9.37 -27.21)"/><path id="path192" class="cls-18" d="M329.46,557.19c2.87-.2-5.43-2-9.83-1.36s-7.88,2.36-8.75,4.11c1.49,1.41,5.43,2,9.83,1.37S326.39,557.41,329.46,557.19Z" transform="translate(-9.37 -27.21)"/><path id="path194" class="cls-19" d="M310.88,560a57.47,57.47,0,0,1,7.63-1.72l4.92-.56" transform="translate(-9.37 -27.21)"/><path id="path196" class="cls-18" d="M321.37,548.57c-1.69,1.95-5.24,1.09-8.13,3.85s-4.45,5.92-4.05,7.81c1.95.41,5.24-1.08,8.12-3.84S323.05,546.63,321.37,548.57Z" transform="translate(-9.37 -27.21)"/><path id="path198" class="cls-19" d="M309.19,560.23a39.8,39.8,0,0,0,5.31-3.86c1.79-1.72,4.13-4.4,4.13-4.4" transform="translate(-9.37 -27.21)"/><path id="path200" class="cls-18" d="M318.78,561.52c2.59.19-4.58-2.48-8.58-2.46s-7.32,1.1-8.33,2.56c1.15,1.45,4.58,2.49,8.58,2.46s5.57-2.75,8.33-2.56Z" transform="translate(-9.37 -27.21)"/><path id="path202" class="cls-19" d="M301.87,561.64a51.49,51.49,0,0,1,7-.57l4.46.13" transform="translate(-9.37 -27.21)"/><path id="path204" class="cls-18" d="M312.68,552.82c-1.75,1.52-4.81.3-7.73,2.4s-4.73,4.71-4.62,6.45c1.69.6,4.81-.31,7.73-2.4S314.43,551.3,312.68,552.82Z" transform="translate(-9.37 -27.21)"/><path id="path206" class="cls-19" d="M300.33,561.67a36.28,36.28,0,0,0,5.23-2.77c1.82-1.31,4.25-3.4,4.25-3.4" transform="translate(-9.37 -27.21)"/><path id="path208" class="cls-18" d="M262.6,460.23c1.71-3.09-.53,7.08-3.54,11.63s-6.75,7.54-9.19,7.59c-.82-2.38.53-7.07,3.54-11.62s7.35-4.3,9.19-7.6Z" transform="translate(-9.37 -27.21)"/><path id="path210" class="cls-19" d="M249.85,479.44a70,70,0,0,0,5.9-7.58l3.18-5.19" transform="translate(-9.37 -27.21)"/><path id="path212" class="cls-18" d="M248.68,472c.4-3.5,2.23,6.75,1.19,12.09s-3.35,9.51-5.58,10.49c-1.68-1.9-2.23-6.75-1.19-12.09s5.15-6.74,5.58-10.49Z" transform="translate(-9.37 -27.21)"/><path id="path214" class="cls-19" d="M244.26,494.55a69.09,69.09,0,0,0,2.55-9.24c.57-3.59.94-6,.94-6" transform="translate(-9.37 -27.21)"/><path id="path216" class="cls-18" d="M255,477c-1.94,2.51,0,6.55-2.59,10.71s-6.06,6.87-8.47,6.88c-1-2.23,0-6.55,2.58-10.72S256.94,474.52,255,477Z" transform="translate(-9.37 -27.21)"/><path id="path218" class="cls-19" d="M244,494.63a48.13,48.13,0,0,1,3.33-7.35c1.64-2.6,4.3-6.09,4.3-6.09" transform="translate(-9.37 -27.21)"/><path id="path220" class="cls-18" d="M240.33,481.06c-.61-3.47,4,5.85,4.57,11.27s-.51,10.06-2.38,11.62c-2.14-1.35-4.05-5.85-4.57-11.27s3-7.9,2.38-11.62Z" transform="translate(-9.37 -27.21)"/><path id="path222" class="cls-19" d="M242.5,504a70.09,70.09,0,0,0-.18-9.58l-.8-6" transform="translate(-9.37 -27.21)"/><path id="path224" class="cls-18" d="M252.09,489.22c-1.75,2.64.5,6.53-1.82,10.87s-5.57,7.26-8,7.44c-1.15-2.16-.5-6.53,1.82-10.87s9.72-10.09,8-7.44Z" transform="translate(-9.37 -27.21)"/><path id="path226" class="cls-19" d="M242.3,507.53a48.12,48.12,0,0,1,2.81-7.57c1.44-2.7,3.85-6.36,3.85-6.36" transform="translate(-9.37 -27.21)"/><path id="path228" class="cls-18" d="M236.14,494.43c-1.35-3.26,5.24,4.84,6.93,10s1.7,9.94.21,11.86c-2.39-.87-5.23-4.84-6.92-10s1.23-8.37-.22-11.86Z" transform="translate(-9.37 -27.21)"/><path id="path230" class="cls-19" d="M243.26,516.32A68.09,68.09,0,0,0,241,507l-2.08-5.69" transform="translate(-9.37 -27.21)"/><path id="path232" class="cls-18" d="M246.77,504c-.53,3.12,3.11,5.78,2.75,10.67s-2.13,8.88-4.25,10c-1.94-1.51-3.12-5.78-2.76-10.68s4.78-13.11,4.26-10Z" transform="translate(-9.37 -27.21)"/><path id="path234" class="cls-19" d="M245.27,524.64a48.08,48.08,0,0,1-.52-8c.23-3.05.94-7.36.94-7.36" transform="translate(-9.37 -27.21)"/><path id="path236" class="cls-18" d="M238.18,512.88c-1.9-3,6,3.86,8.58,8.67s3.42,9.49,2.3,11.64c-2.51-.44-6-3.87-8.58-8.67s-.26-8.46-2.3-11.64Z" transform="translate(-9.37 -27.21)"/><path id="path238" class="cls-19" d="M249,533.2a70,70,0,0,0-3.87-8.78l-3.06-5.25" transform="translate(-9.37 -27.21)"/><path id="path240" class="cls-18" d="M249.33,517.57c.15,3.16,4.27,5,5,9.86s-.2,9.12-2,10.66c-2.21-1.07-4.27-5-5-9.85s1.89-13.83,2-10.67Z" transform="translate(-9.37 -27.21)"/><path id="path242" class="cls-19" d="M252.26,538.09a48.17,48.17,0,0,1-2.21-7.75c-.43-3-.66-7.4-.66-7.4" transform="translate(-9.37 -27.21)"/><path id="path244" class="cls-18" d="M240.68,529.81c-2.81-2.16,7,1.61,11,5.26s6.47,7.77,6.15,10.17c-2.51.43-7-1.61-11-5.27s-3.14-7.86-6.15-10.16Z" transform="translate(-9.37 -27.21)"/><path id="path246" class="cls-19" d="M257.86,545.26a70.09,70.09,0,0,0-6.65-7l-4.68-3.91" transform="translate(-9.37 -27.21)"/><path id="path248" class="cls-18" d="M255,526.44c.38,3.14,4.63,4.67,5.69,9.46s.49,9.11-1.23,10.78c-2.29-.9-4.64-4.67-5.69-9.46S254.56,523.3,255,526.44Z" transform="translate(-9.37 -27.21)"/><path id="path250" class="cls-19" d="M259.41,546.68a48.25,48.25,0,0,1-2.79-7.57c-.66-3-1.21-7.33-1.21-7.33" transform="translate(-9.37 -27.21)"/><path id="path252" class="cls-18" d="M246.52,541.23c-3.22-1.49,7.16.06,11.94,2.73s8,6.18,8.25,8.59c-2.35,1-7.16-.06-11.94-2.74s-4.81-7-8.25-8.58Z" transform="translate(-9.37 -27.21)"/><path id="path254" class="cls-19" d="M266.7,552.57a70.26,70.26,0,0,0-8-5.34l-5.42-2.79" transform="translate(-9.37 -27.21)"/><path id="path256" class="cls-18" d="M259.69,534.84c1.08,3,5.56,3.55,7.65,8s2.49,8.78,1.19,10.78c-2.43-.39-5.56-3.55-7.65-8S258.62,531.86,259.69,534.84Z" transform="translate(-9.37 -27.21)"/><path id="path258" class="cls-19" d="M268.53,553.62a49.1,49.1,0,0,1-4.4-6.78c-1.3-2.77-2.8-6.88-2.8-6.88" transform="translate(-9.37 -27.21)"/><path id="path260" class="cls-18" d="M255.57,551.69c-3.15-.6,6.26-1.5,11-.2s8.38,3.65,9.1,5.71c-1.84,1.35-6.26,1.5-11,.2s-5.73-5.06-9.09-5.71Z" transform="translate(-9.37 -27.21)"/><path id="path262" class="cls-19" d="M275.68,557.22a63.73,63.73,0,0,0-8.18-2.92L262.15,553" transform="translate(-9.37 -27.21)"/><path id="path264" class="cls-18" d="M265.66,543.26c1.59,2.37,5.63,1.89,8.44,5.32s4.11,7.13,3.41,9.16c-2.2.19-5.63-1.89-8.44-5.32S264.07,540.89,265.66,543.26Z" transform="translate(-9.37 -27.21)"/><path id="path266" class="cls-19" d="M277.51,557.74a43.93,43.93,0,0,1-5.33-5c-1.75-2.13-4-5.4-4-5.4" transform="translate(-9.37 -27.21)"/><path id="path268" class="cls-18" d="M264.52,557.19c-2.87-.2,5.43-2,9.83-1.36s7.88,2.36,8.76,4.11c-1.5,1.41-5.43,2-9.83,1.37S267.6,557.41,264.52,557.19Z" transform="translate(-9.37 -27.21)"/><path id="path270" class="cls-19" d="M283.1,560a57.47,57.47,0,0,0-7.63-1.72l-4.92-.56" transform="translate(-9.37 -27.21)"/><path id="path272" class="cls-18" d="M272.62,548.57c1.68,1.95,5.24,1.09,8.12,3.85s4.46,5.92,4.06,7.81c-2,.41-5.25-1.08-8.13-3.84s-5.74-9.76-4.05-7.82Z" transform="translate(-9.37 -27.21)"/><path id="path274" class="cls-19" d="M284.8,560.23a39.13,39.13,0,0,1-5.31-3.86c-1.8-1.72-4.14-4.4-4.14-4.4" transform="translate(-9.37 -27.21)"/><path id="path276" class="cls-18" d="M275.2,561.52c-2.58.19,4.58-2.48,8.58-2.46s7.33,1.1,8.33,2.56c-1.15,1.45-4.58,2.49-8.58,2.46s-5.56-2.75-8.33-2.56Z" transform="translate(-9.37 -27.21)"/><path id="path278" class="cls-19" d="M292.11,561.64a51.49,51.49,0,0,0-7-.57l-4.46.13" transform="translate(-9.37 -27.21)"/><path id="path280" class="cls-18" d="M281.3,552.82c1.75,1.52,4.81.3,7.73,2.4s4.74,4.71,4.62,6.45c-1.68.6-4.81-.31-7.73-2.4S279.55,551.3,281.3,552.82Z" transform="translate(-9.37 -27.21)"/><path id="path282" class="cls-19" d="M293.65,561.67a36.37,36.37,0,0,1-5.22-2.77c-1.83-1.31-4.25-3.4-4.25-3.4" transform="translate(-9.37 -27.21)"/></g><g id="Layer1004"><path id="path285" class="cls-20" d="M289,206.37l20.8,0h0c56.12,0,107.57-16.91,131-41.49-2.12-3.4-10.18-11.69-6.23-12.09,8.7-.9,24-3.45,27.84-14.12,2.2-5.75,5-5.29,8.12-2,4.1,4.68,7.78,4.15,12.73-.44l6.43-2.38,10.39.64c8.37-4.45,9-9.53-1.41-12.15l-9.41.36c-2.32-4.93-6.79-17.45-9.48-14.5-4,4.36-9.89,14.59-10.82,14.26-3.21-1.15-3.26-7.71-4.35-11-3.46-1.18-6.21,3.34-11.73,11.28l-5.51-11.56c-4.33.9-6.58,5.31-6.11,17.16l-8.77,6.46q-6.8-4.08-6.12-14.23c-23.11,8.93-37.08,2-44.78-15.74-16.91,15-30.79,14.69-40.24-8.05-14.94,8.23-29.48,7.65-43.43-5.77h0c-13.94,13.42-28.49,14-43.43,5.77-9.45,22.74-23.33,23.06-40.24,8-7.7,17.76-21.66,24.68-44.78,15.75q.67,10.14-6.11,14.23l-8.78-6.46c.48-11.85-1.77-16.26-6.11-17.16L143,122.78c-5.52-7.94-8.26-12.46-11.72-11.28-1.1,3.27-1.15,9.83-4.36,11-.92.33-6.86-9.9-10.82-14.26-2.68-3-7.15,9.57-9.47,14.5l-9.41-.36c-10.43,2.62-9.79,7.7-1.42,12.15l10.39-.64,6.43,2.38c5,4.59,8.64,5.12,12.74.44,3.09-3.29,5.91-3.75,8.11,2,3.88,10.67,19.15,13.22,27.84,14.12,3.95.4-4.11,8.68-6.23,12.09,23.83,25,76.71,42.1,134,41.47Z" transform="translate(-9.37 -27.21)"/><path id="path287" class="cls-20" d="M162.12,153.16c89-47.73,179.59-48.6,271.74-.12" transform="translate(-9.37 -27.21)"/></g></g></svg>