<svg id="Capa_1" data-name="Capa 1" xmlns="http://www.w3.org/2000/svg" viewBox="0 0 569.68 714.67"><defs><style>.cls-1{fill:#069139;stroke:#fff;stroke-width:1px;}.cls-1,.cls-10,.cls-11,.cls-15,.cls-16,.cls-18,.cls-4,.cls-5,.cls-7,.cls-9{fill-rule:evenodd;}.cls-17,.cls-2,.cls-5{fill:#fff;}.cls-11,.cls-2,.cls-3,.cls-4,.cls-5,.cls-6{stroke:#e67919;}.cls-2,.cls-4,.cls-5,.cls-6{stroke-width:9.24px;}.cls-14,.cls-19,.cls-3,.cls-6,.cls-8{fill:none;}.cls-3{stroke-width:9.23px;}.cls-4,.cls-7{fill:#049339;}.cls-7{stroke:#049339;}.cls-11,.cls-7,.cls-9{stroke-width:4.62px;}.cls-10,.cls-14,.cls-8,.cls-9{stroke:#1c1a19;}.cls-8{stroke-width:3.73px;}.cls-10,.cls-13,.cls-16,.cls-9{fill:#1c1a19;}.cls-10{stroke-width:4.62px;}.cls-11{fill:#e67919;}.cls-12,.cls-13{isolation:isolate;}.cls-13{font-size:64.19px;font-family:CenturyGothic, Century Gothic;}.cls-14{stroke-width:1.04px;}.cls-15,.cls-18{fill:#010101;}.cls-15{fill-opacity:0;}.cls-17,.cls-18,.cls-19{stroke:#010101;stroke-miterlimit:10;}.cls-17{stroke-linecap:round;stroke-width:2.1px;}.cls-18,.cls-19{stroke-width:2.59px;}</style></defs><g id="Layer1000"><path id="path2" class="cls-1" d="M14.68,292.42c4.43,11.69,11.39,10.49,16.85,18.33.41-6,.28-11.82-1.19-14C12.11,288.05,11.72,266.73,14.68,252c6.08,16,16.92,7.82,22.09,31.92,5.38-23.18,4.53-18.74,24.77-27-5.71,14,1.44,31.44-17.24,41-2.57.46-2.95,4.62-2.54,9.63,2.84-4.87,7.31-5.13,19.78-10.2-5.71,14,1.44,31.44-17.24,41-2.25.4-2.82,3.63-2.66,7.79,2.47-6.3,6.6-6.41,19.73-12.68-4.86,14.34,3.31,31.3-14.77,41.91-2.41.58-2.65,4.4-2.06,9.07,2.42-7.65,6.19-7.34,20.17-14.05C59.88,384.72,68.08,401.66,50,412.3c-3.16.78-2.58,7.06-1.3,13.53,1.72-13.43,4-11.64,20.06-20.75-3.82,14.65,5.53,31-11.74,42.85-2.46.79-2.33,4.89-1.29,9.74,1.61-8.2,5.31-8.14,18.75-16.32C71.12,456.11,81,472.16,64,484.53c-2.68,1-2.11,5.78-.65,11.2.8-10.94,3.88-10.18,18.08-20-2.56,14.93,8.16,30.4-8,43.7-2.49,1-1.86,5.43-.27,10.44,0-10.72,3.21-10.28,16.57-21C88.26,524,100.08,538.65,84.9,553.1c-2.82,1.43-1,7.12,1.58,13-1.43-14.27,1.07-12.76,15-25.38-.52,15.13,12.19,29-2.07,44.39-3.14,1.83.18,8.94,3.75,15.39-4.52-16.86-2.26-14.64,10.36-30.05,1.69,15.05,16.3,26.92,4.45,44.21-2.72,2.19,1.16,8.3,5.44,14-6.86-17.26-4.47-14.92,6.53-32,3.38,14.76,19.23,24.91,9.41,43.43-1.78,1.79.1,5.23,3.13,9-3.24-8.45.35-10.13,9-24.59,4.87,14.82,23.26,23.91,13.71,43.64-3.57,3.83,8.6,12.88,15.42,18.41h0c-16.07-20.56-12.85-16.77-4.23-39.48,7.8,14.5,28.61,20.54,22.34,42.83-2.31,3.57,5.63,8.63,13.12,12.81-10.84-13.78-7.43-13.11-.15-33.41,8.07,14.36,29,20,23.12,42.41-3.49,5.62,17.83,14.36,23.64,18.12v-3.1L275.8,729l16.55,15.35,7.76,0v.26l2.81,0,16.56-15.35L336.85,727l0,3.1c5.8-3.76,27.12-12.5,23.63-18.11-5.86-22.4,15.05-28.06,23.12-42.42,7.28,20.3,10.7,19.63-.14,33.41,7.48-4.18,15.43-9.24,13.12-12.81-6.27-22.29,14.53-28.32,22.34-42.83,8.61,22.71,11.84,18.92-4.24,39.48h0c6.83-5.52,19-14.58,15.42-18.4-9.55-19.74,8.84-28.83,13.71-43.64,8.65,14.45,12.24,16.13,9,24.58,3-3.72,4.92-7.17,3.14-9-9.82-18.52,6-28.67,9.41-43.43,11,17.05,13.39,14.71,6.53,32,4.28-5.68,8.15-11.79,5.43-14-11.85-17.29,2.76-29.16,4.46-44.21,12.61,15.42,14.88,13.2,10.35,30,3.57-6.45,6.89-13.56,3.75-15.39-14.25-15.38-1.54-29.26-2.07-44.39,13.88,12.62,16.39,11.11,15,25.38,2.59-5.85,4.39-11.54,1.57-13-15.18-14.45-3.36-29.1-4.82-44.17,13.35,10.7,16.53,10.26,16.57,21,1.58-5,2.22-9.4-.27-10.44-16.2-13.3-5.49-28.77-8.05-43.7,14.21,9.78,17.28,9,18.08,20,1.47-5.41,2-10.25-.64-11.19-16.92-12.38-7.08-28.43-10.47-43.19,13.44,8.18,17.14,8.12,18.75,16.32,1-4.85,1.17-8.95-1.29-9.74-17.28-11.87-7.92-28.2-11.74-42.85,16,9.11,18.34,7.32,20,20.75,1.29-6.47,1.87-12.75-1.29-13.52-18-10.65-9.85-27.59-14.68-41.94,14,6.71,17.75,6.4,20.16,14,.6-4.67.36-8.49-2.06-9.07-18.07-10.61-9.91-27.57-14.77-41.91,13.14,6.28,17.26,6.38,19.73,12.68.17-4.15-.41-7.39-2.66-7.79-18.67-9.52-11.53-26.93-17.23-41,12.47,5.07,16.93,5.33,19.78,10.2.41-5,0-9.17-2.55-9.63-18.67-9.52-11.53-26.93-17.23-41,20.23,8.22,19.39,3.78,24.76,27,5.18-24.1,16-15.88,22.09-31.92,3,14.7,2.58,36-15.65,44.76-1.48,2.15-1.6,7.95-1.19,14,5.45-7.84,12.41-6.64,16.84-18.33,3,14.69,2.58,36-15.65,44.76-1.21,1.76-1.51,6-1.35,10.76,5.79-6.78,12.41-5.58,17.38-16.66,2.09,14.85.43,36.11-18.29,43.75-1.19,1.53-1.75,5.11-1.94,9.32,5.68-6.13,12.06-5.3,16.9-16.05,2.06,14.86.35,36.11-18.38,43.72-1,1.31-1.59,4.15-1.86,7.6,5.53-4.09,11.16-4,16.19-13.34,1,15-2.15,36.05-21.37,42.34-1.33,1.47-2.15,5.15-2.64,9.47,6.2-5.36,12.41-4,18.23-14.15.58,15-3.21,36-22.6,41.69-1.2,1.25-2.07,4.21-2.67,7.81,6.15-4.22,12-3.13,18.09-12.45-.26,15-5.22,35.73-24.9,40.36-1.24,1.16-2.25,4-3.05,7.44,6.54-3.93,12.35-2.26,19.19-11.22-1.36,14.93-7.82,35.25-27.79,38.42-1.11.89-2.14,2.94-3.06,5.57,6.21-2.66,11.63-1.42,18.52-9.38-2.28,14.82-10,34.7-30.13,36.63-1.28.91-2.56,3.25-3.75,6.24,6.52-1.71,11.7.29,19.67-6.56-4.43,14.32-15,32.86-35.17,31.81A10.34,10.34,0,0,0,486.9,624c6.38-.75,11.26,1.51,19.69-4.22-6,13.73-18.58,31-38.52,27.65-1.88.69-4.36,3.64-6.82,7.31,9.76-2.2,15,2.9,26.74-3.29-7.72,13.55-23,30.14-44.93,25.13-1.82.48-4.24,2.58-6.78,5.39,7.47,1.07,12.45,4.85,23.59,1.29-10.53,12.66-29.48,27.08-51.37,17.81-1.78.14-4.32,1.56-7.11,3.63,6.88,1.37,11.83,4.73,22.5,1.53-10.76,12.47-30,26.54-51.68,16.87-5.6.35-28.17,22.75-35.22,30.52L337.1,778,319,775.81,303.2,759.5l-8-.21v-.16l-3.14.08-15.82,16.31-18.09,2.19.12-24.37c-7.05-7.77-29.62-30.18-35.22-30.52-21.72,9.67-40.93-4.4-51.69-16.87,10.67,3.2,15.63-.16,22.51-1.53-2.8-2.07-5.33-3.49-7.12-3.63-21.88,9.27-40.83-5.15-51.37-17.81,11.15,3.56,16.13-.22,23.59-1.29-2.53-2.81-5-4.91-6.77-5.39-21.95,5-37.21-11.58-44.93-25.13,11.75,6.19,17,1.09,26.73,3.29-2.46-3.67-4.93-6.62-6.81-7.31-19.95,3.31-32.51-13.92-38.53-27.65,8.43,5.73,13.32,3.47,19.69,4.22a10.43,10.43,0,0,0-3.25-3.42C84.93,621.35,74.38,602.81,70,588.49c8,6.85,13.15,4.84,19.67,6.56-1.19-3-2.47-5.33-3.76-6.24C65.73,586.88,58,567,55.74,552.18c6.89,8,12.31,6.72,18.52,9.38-.93-2.63-2-4.68-3.06-5.57-20-3.17-26.44-23.49-27.79-38.42,6.83,9,12.64,7.29,19.19,11.22-.8-3.47-1.81-6.28-3.06-7.44C39.86,516.72,34.9,496,34.65,481c6.08,9.32,11.93,8.23,18.09,12.45-.61-3.6-1.47-6.56-2.67-7.81-19.39-5.72-23.19-26.7-22.6-41.69,5.82,10.12,12,8.79,18.23,14.15-.49-4.32-1.31-8-2.64-9.47-19.22-6.29-22.39-27.38-21.37-42.34,5,9.37,10.66,9.25,16.18,13.34-.26-3.45-.82-6.29-1.85-7.6-18.74-7.61-20.44-28.87-18.38-43.72,4.84,10.75,11.22,9.92,16.9,16-.19-4.2-.75-7.79-1.94-9.31-18.72-7.64-20.38-28.9-18.29-43.75,5,11.08,11.59,9.88,17.38,16.66.16-4.78-.14-9-1.35-10.76-18.23-8.74-18.62-30.07-15.66-44.76Zm544,31.46-.17.75-.19-.85Zm-522.06-.29.16.75.2-.85Z" transform="translate(-12.8 -63.89)"/><path id="path4" class="cls-2" d="M515.86,236.43c2.62,270.68-70,421.56-211.25,463.26l-4.14,1.19-2.74.56-2.29-.56q-3.37-.95-6.69-2C149.2,656.16,77.45,505.47,80.05,236.43Z" transform="translate(-12.8 -63.89)"/><path id="path6" class="cls-3" d="M482.23,266.3C484.44,502.2,423,633.7,303.58,670c-1.16.36-2.33.7-3.5,1l-2.31.49-1.94-.49q-2.85-.83-5.66-1.71c-118-37.27-178.69-168.59-176.49-403.07Z" transform="translate(-12.8 -63.89)"/><path id="path8" class="cls-4" d="M454.32,335.16C442.53,509.91,392,609.92,301.56,640.87c-1,.36-2.07.7-3.11,1l-2.05.49-1.72-.49q-2.54-.81-5-1.7C200,608.36,152.75,507.82,141.91,333l.14,2.21Z" transform="translate(-12.8 -63.89)"/><path id="path10" class="cls-5" d="M454.32,335.16q-3.76,55.74-12.8,101.39L202.85,569.86q-27.18-41.49-42.45-104.6l196.54-130.1Z" transform="translate(-12.8 -63.89)"/><path id="path12" class="cls-6" d="M139.56,266.3H456.93q-.4,36.19-2.61,68.86H142.05q-2.1-32.68-2.49-68.86Z" transform="translate(-12.8 -63.89)"/><path id="path14" class="cls-7" d="M297.12,403.59c-6.36,16.45-20.76,29.17-42.06,42.63,16.42,1,34.86,5.06,43.75-4.49,21.93,17.49,40.16,14.08,60.58,13.46-11.5-12.85-22.31-25.06-24.68-51.6Z" transform="translate(-12.8 -63.89)"/><path id="path16" class="cls-8" d="M315.53,203l-17.78,24.25-16.6-12.16,17.78-24.26Z" transform="translate(-12.8 -63.89)"/><path id="path18" class="cls-9" d="M265,205.64c-2.39-2.57-4.51-5.19-10.12-4.57-3.85.75-7.35,2-9.61,5.11-3.77,5.23-4.09,13.23,3.13,14.55,3,.28,4.74.44,6.68-1.24s3.1-4.13-.87-7.58c-1-1.11-.52-1.8,2.47-1,4.48,1.34,7.71,7.51,4.42,11.86-4.29,5.67-13.23,6.5-19.43,2.5-4.54-2.93-6.09-8.22-5.39-13.86,1.95-15.65,19.81-26.2,33.11-14.43,2.29,1.15,3,4.32,1.81,6.6a4.63,4.63,0,0,1-6.2,2.07Z" transform="translate(-12.8 -63.89)"/><path id="path20" class="cls-10" d="M333.35,205.86c2.37-2.54,4.46-5.14,10-4.52,3.81.74,7.28,1.95,9.51,5.06,3.73,5.17,4.06,13.1-3.1,14.4-3,.29-4.69.44-6.61-1.22s-3.07-4.1.86-7.51c1-1.1.52-1.79-2.44-1-4.44,1.33-7.64,7.44-4.38,11.75,4.25,5.61,13.09,6.44,19.24,2.47,4.49-2.9,6-8.13,5.33-13.73-1.92-15.49-19.61-25.94-32.79-14.28-2.26,1.13-2.92,4.27-1.79,6.53a4.58,4.58,0,0,0,6.15,2.05Z" transform="translate(-12.8 -63.89)"/><path id="path22" class="cls-11" d="M49.76,175.85c9,17.58,21.31,37.4,30.29,55,79.56-32.1,155.84-50.64,219.26-50.1s134.14,21.46,218.26,50.1q12.9-29.18,25.8-58.34c-93.26-36.52-174.26-56.63-242.81-56.2-70.73.44-166,23.39-250.8,59.56Z" transform="translate(-12.8 -63.89)"/><g id="text26" class="cls-12"><text class="cls-13" transform="translate(132.75 133.27)">1</text></g><g id="text30" class="cls-12"><text class="cls-13" transform="translate(189.27 119.9)">9</text></g><g id="text34" class="cls-12"><text class="cls-13" transform="translate(355.59 117.3)">8</text></g><g id="text38" class="cls-12"><text class="cls-13" transform="translate(415.86 135.65)">3</text></g><path id="path40" class="cls-14" d="M259.35,91.83A46.06,46.06,0,0,1,321.23,71.5h0a46.06,46.06,0,1,1-61.88,20.33Z" transform="translate(-12.8 -63.89)"/><path id="path42" class="cls-15" d="M257,90.5a48.47,48.47,0,0,1,65.11-21.39h0A48.46,48.46,0,1,1,257,90.5Z" transform="translate(-12.8 -63.89)"/><path id="path44" class="cls-16" d="M156.38,284.46h10.19v5.33h-1a1.28,1.28,0,0,0-1,.3,1.87,1.87,0,0,0-.43.87,12.54,12.54,0,0,0-.13,2.31v14a28.91,28.91,0,0,0,.43,5.85,6.7,6.7,0,0,0,1.28,2.94,2.65,2.65,0,0,0,2.09,1A2.83,2.83,0,0,0,170,316a6.5,6.5,0,0,0,1.37-2.81,26.07,26.07,0,0,0,.42-5.61V292.11a4.92,4.92,0,0,0-.14-1.39,1.55,1.55,0,0,0-.48-.77,2,2,0,0,0-1.06-.16h-.81v-5.33H178v5.33h-.68A2.11,2.11,0,0,0,176,290a1.88,1.88,0,0,0-.52,1,12.17,12.17,0,0,0-.12,2.3v15.17a31.66,31.66,0,0,1-.66,7,13,13,0,0,1-2.91,6,6.26,6.26,0,0,1-4.74,2.14,5.79,5.79,0,0,1-3.46-1.09A9.68,9.68,0,0,1,161,319.4a14.72,14.72,0,0,1-1.6-4.29,36.88,36.88,0,0,1-.45-6.67V293.57a16.91,16.91,0,0,0-.13-2.64,1.72,1.72,0,0,0-.38-.87,1.51,1.51,0,0,0-1-.27h-1Zm23.29,0h8.49l6.12,22.46V293.18a13.12,13.12,0,0,0-.11-2.21,2.08,2.08,0,0,0-.4-.93,1.48,1.48,0,0,0-1-.25h-1v-5.33h8.61v5.33h-.95a1.41,1.41,0,0,0-1,.3,1.68,1.68,0,0,0-.42.83,12.94,12.94,0,0,0-.12,2.26v29.76h-4.3l-7.75-28.35v19.84a12,12,0,0,0,.11,2.17,1.44,1.44,0,0,0,.4.74,1.45,1.45,0,0,0,1,.28h1v5.32h-8.67v-5.32h.9a1.68,1.68,0,0,0,1-.23,1.55,1.55,0,0,0,.44-.82,6.67,6.67,0,0,0,.17-1.73V292.77a8.41,8.41,0,0,0-.15-1.87,2,2,0,0,0-.41-.86,1.21,1.21,0,0,0-.85-.25h-1.12Zm22.55,0h10.19v5.33h-.93a1.7,1.7,0,0,0-1.08.25,1.74,1.74,0,0,0-.38.83,11.45,11.45,0,0,0-.13,2.17v21.3a12.73,12.73,0,0,0,.11,2.23,1.2,1.2,0,0,0,1.3,1.05h1.11v5.32H202.22v-5.32h.83a2,2,0,0,0,1.15-.23,1.42,1.42,0,0,0,.4-.74,11,11,0,0,0,.12-2V293.24a14.47,14.47,0,0,0-.12-2.37,1.66,1.66,0,0,0-.43-.86,1.5,1.5,0,0,0-1-.22h-.94Zm23.57-.66q5,0,8,5.58t3.08,14.31a35.17,35.17,0,0,1-1.41,10.42,16.69,16.69,0,0,1-3.88,7,8.21,8.21,0,0,1-6,2.47q-4.63,0-7.58-4.69-3.57-5.66-3.56-15.12,0-8.79,3.12-14.41t8.17-5.59Zm.06,6.12c-1.59,0-2.85,1.09-3.79,3.29a27.42,27.42,0,0,0-1.77,10.68,26.56,26.56,0,0,0,1.65,10.34q1.42,3.25,3.75,3.25c1.57,0,2.83-1.08,3.76-3.25a26.88,26.88,0,0,0,1.66-10.4,34.91,34.91,0,0,0-.71-7.7,11.87,11.87,0,0,0-1.92-4.66A3.41,3.41,0,0,0,225.85,289.92Zm13.28-5.46h8.49l6.12,22.46V293.18a13.12,13.12,0,0,0-.11-2.21,2.2,2.2,0,0,0-.4-.93,1.48,1.48,0,0,0-1-.25h-1v-5.33h8.62v5.33h-.95a1.4,1.4,0,0,0-1,.3,1.61,1.61,0,0,0-.43.83,12.94,12.94,0,0,0-.12,2.26v29.76H253l-7.76-28.35v19.84a11.61,11.61,0,0,0,.12,2.17,1.37,1.37,0,0,0,.4.74,1.42,1.42,0,0,0,1,.28h1v5.32h-8.66v-5.32H240a1.71,1.71,0,0,0,1-.23,1.7,1.7,0,0,0,.44-.82,6.67,6.67,0,0,0,.17-1.73V292.77a7.72,7.72,0,0,0-.16-1.87,1.86,1.86,0,0,0-.4-.86,1.24,1.24,0,0,0-.86-.25h-1.11Zm48.82,0,1.8,12.91L287,298.83a19.63,19.63,0,0,0-3.16-6.74,4.94,4.94,0,0,0-3.75-2.14,2.4,2.4,0,0,0-2,1,3.4,3.4,0,0,0-.74,2.15,4.89,4.89,0,0,0,.67,2.51,5.62,5.62,0,0,0,2.43,2.06l4,2.16a10.59,10.59,0,0,1,4.76,4.69,15.79,15.79,0,0,1,1.4,6.87,15.59,15.59,0,0,1-2.15,8.44c-1.61,2.54-3.6,3.81-6,3.81a6.13,6.13,0,0,1-3.05-.79,10.65,10.65,0,0,1-2.9-2.63l-.66,2.75h-2.24L272.08,308l2.8-1.24a21.3,21.3,0,0,0,3.08,7.59q2.09,3.06,4.59,3.06a3.06,3.06,0,0,0,1.86-.53,3.19,3.19,0,0,0,1.12-1.46,5.13,5.13,0,0,0,.37-1.93,4.67,4.67,0,0,0-.87-2.84,9,9,0,0,0-3.08-2.35l-3.49-1.87a12.62,12.62,0,0,1-2.15-1.56,9.43,9.43,0,0,1-2.08-2.39,12.31,12.31,0,0,1-1.2-3.18,17.12,17.12,0,0,1-.48-4.1,16.52,16.52,0,0,1,.92-5.64,9.63,9.63,0,0,1,2.77-4.17,6,6,0,0,1,4.09-1.61,6.34,6.34,0,0,1,4.89,2.59l.59-1.93Zm3.89,0H302v5.33h-1a1.31,1.31,0,0,0-1,.3,1.86,1.86,0,0,0-.42.87,12.24,12.24,0,0,0-.14,2.31v14a29.67,29.67,0,0,0,.43,5.85,6.82,6.82,0,0,0,1.29,2.94,2.64,2.64,0,0,0,2.09,1,2.84,2.84,0,0,0,2.18-1.1,6.5,6.5,0,0,0,1.37-2.81,26.23,26.23,0,0,0,.41-5.61V292.11a4.89,4.89,0,0,0-.13-1.38,1.54,1.54,0,0,0-.48-.78,2.1,2.1,0,0,0-1.06-.16h-.81v-5.33h8.63v5.33h-.67a2.11,2.11,0,0,0-1.24.22,1.81,1.81,0,0,0-.52,1,12.17,12.17,0,0,0-.12,2.3v15.17a31.66,31.66,0,0,1-.66,7,12.94,12.94,0,0,1-2.92,6,6.22,6.22,0,0,1-4.73,2.14,5.79,5.79,0,0,1-3.46-1.09,9.58,9.58,0,0,1-2.68-3.12,14.42,14.42,0,0,1-1.59-4.29,35.8,35.8,0,0,1-.46-6.67V293.57a17.4,17.4,0,0,0-.12-2.64,1.72,1.72,0,0,0-.39-.87,1.51,1.51,0,0,0-1.05-.27h-1Zm23.23,0H328a10.08,10.08,0,0,1,2.72.42,5.4,5.4,0,0,1,2.66,1.81,10.08,10.08,0,0,1,1.85,3.56,16.66,16.66,0,0,1,.66,4.86,13.25,13.25,0,0,1-1.7,7.1,8.07,8.07,0,0,1-4,3.55l4.29,9.21.19.41a7.08,7.08,0,0,0,.76,1.4,2.28,2.28,0,0,0,.68.65,2,2,0,0,0,1,.19h.91v5.32h-6.7l-6.7-16.58h-1.74V314a14.42,14.42,0,0,0,.12,2.52,1.66,1.66,0,0,0,.38.8,1.55,1.55,0,0,0,1.05.26h1v5.32H315.07v-5.32H316a1.5,1.5,0,0,0,1-.29,1.72,1.72,0,0,0,.46-.86,15.8,15.8,0,0,0,.07-2.08V292.74a9.62,9.62,0,0,0-.11-1.81,1.08,1.08,0,0,0-.37-.71,1.29,1.29,0,0,0-.82-.3l-.42,0h-.78Zm7.7,6.32v10h3.1a4.82,4.82,0,0,0,2.73-.62,3.74,3.74,0,0,0,1.36-1.78,7.57,7.57,0,0,0,.46-2.82,7,7,0,0,0-.43-2.6,3.29,3.29,0,0,0-1.21-1.61,4.78,4.78,0,0,0-2.57-.53Zm25.54-6.32h10.37v5.33h-.78a1.52,1.52,0,0,0-1,.23,1.13,1.13,0,0,0-.21.76,7.5,7.5,0,0,0,.48,2.15l2.74,8.36,3.05-8.72.45-1.26a3.26,3.26,0,0,0,.06-.62,1.07,1.07,0,0,0-.17-.68c-.12-.15-.39-.22-.8-.22H361.4v-5.33h8.33v5.33a2.22,2.22,0,0,0-1.54.46,7,7,0,0,0-1.05,2.13l-5.57,14.95v6.87a12.68,12.68,0,0,0,.13,2.36,1.41,1.41,0,0,0,.43.8,2,2,0,0,0,1.2.26h.74v5.32H353.89v-5.32h.55a2.34,2.34,0,0,0,1.38-.26,1.77,1.77,0,0,0,.46-.89,12.69,12.69,0,0,0,.16-2.49v-6l-5.56-15.58a6.78,6.78,0,0,0-1.15-2.29,2.27,2.27,0,0,0-1.42-.3Zm30.17,0h4.69l6.28,29.71a10,10,0,0,0,.9,2.93,1.65,1.65,0,0,0,1.46.52v5.32h-9.88v-5.32l.6,0a1.42,1.42,0,0,0,1.15-.41,1.47,1.47,0,0,0,.33-1,13.27,13.27,0,0,0-.29-2l-.61-3.5h-6.36l-.78,3.88a11.25,11.25,0,0,0-.24,1.64,1.73,1.73,0,0,0,.18.79,1,1,0,0,0,.56.53,4.74,4.74,0,0,0,1.4.11v5.32h-8.08v-5.32a2,2,0,0,0,1.14-.25,1.88,1.88,0,0,0,.59-.74,9.57,9.57,0,0,0,.51-1.85Zm-.64,20.72H382l-2-10.59Zm15-20.72h10.18v5.33h-.92a1.7,1.7,0,0,0-1.08.25,1.74,1.74,0,0,0-.38.83,11.45,11.45,0,0,0-.13,2.17v21.3a12.73,12.73,0,0,0,.11,2.23,1.16,1.16,0,0,0,.35.71,1.22,1.22,0,0,0,.94.34h1.11v5.32H392.88v-5.32h.83a2,2,0,0,0,1.15-.23,1.41,1.41,0,0,0,.39-.74,9.92,9.92,0,0,0,.13-2V293.24a13,13,0,0,0-.13-2.37,1.66,1.66,0,0,0-.42-.86,1.52,1.52,0,0,0-1-.22h-.93Zm29.41,0v5.33L411.23,317h1.31a7,7,0,0,0,4-.93,8.24,8.24,0,0,0,2.47-3.26,23.18,23.18,0,0,0,1.76-5.77l2.74,1.71-2.74,14.23h-16v-5.32l11.09-27.08H414.2a4.73,4.73,0,0,0-2.84.77,6.07,6.07,0,0,0-1.87,2.29,43.25,43.25,0,0,0-2.28,6.37l-2.64-2.16,3.18-13.35Zm10.16,0h4.68l6.28,29.71a10.36,10.36,0,0,0,.9,2.93,1.65,1.65,0,0,0,1.46.52v5.32h-9.88v-5.32l.6,0a1.43,1.43,0,0,0,1.16-.41,1.52,1.52,0,0,0,.32-1,14.17,14.17,0,0,0-.28-2l-.62-3.5h-6.36l-.78,3.88a12.94,12.94,0,0,0-.24,1.64,1.73,1.73,0,0,0,.18.79,1,1,0,0,0,.56.53,4.78,4.78,0,0,0,1.41.11v5.32h-8.09v-5.32a2,2,0,0,0,1.14-.25,1.8,1.8,0,0,0,.59-.74,8.88,8.88,0,0,0,.51-1.85Zm-.65,20.72H436l-2-10.59Z" transform="translate(-12.8 -63.89)"/><path class="cls-17" d="M300.29,68.35a44,44,0,1,1-44,44A44,44,0,0,1,300.29,68.35Z" transform="translate(-12.8 -63.89)"/><path class="cls-18" d="M333,93.92c5.06,4.2,8.37,9.57,11.18,15.27-1.25-10.67-4.93-20.31-12.94-28.11C332.88,85.21,334.29,90.51,333,93.92Z" transform="translate(-12.8 -63.89)"/><path class="cls-18" d="M285.47,70.91c8.4-.1,15,.73,17.69,3.61q3.76-4.15,12.38-3.46C304.81,67.41,294.83,67.57,285.47,70.91Z" transform="translate(-12.8 -63.89)"/><path class="cls-18" d="M265.72,110.15a29.53,29.53,0,0,1,11-15.87,31.37,31.37,0,0,1-3-11.57l-7.17,1.38a40.93,40.93,0,0,0-8.78,16.82l.34,6.83A19.44,19.44,0,0,1,265.72,110.15Z" transform="translate(-12.8 -63.89)"/><path class="cls-18" d="M304.36,84.69a44.39,44.39,0,0,0-12.61,10.12l8.12,17.5,18.72.7a57.93,57.93,0,0,0,3.64-17.56A43.38,43.38,0,0,0,304.36,84.69Z" transform="translate(-12.8 -63.89)"/><path class="cls-18" d="M272.14,126.21q-3.83,8.33.93,17.4c5.08,3.33,10.3,5.94,15.88,6.54a29.93,29.93,0,0,0,9.43-6.63c-3.81-5.27-6.76-10.54-7.83-15.8A78.44,78.44,0,0,1,272.14,126.21Z" transform="translate(-12.8 -63.89)"/><path class="cls-18" d="M325.45,126.79a26.78,26.78,0,0,1-10.37,16.34l6.84,7.57A46.29,46.29,0,0,0,338.63,134L338,125.3A16.81,16.81,0,0,1,325.45,126.79Z" transform="translate(-12.8 -63.89)"/><path class="cls-19" d="M265.72,110.15c0,5.36,2.65,10.71,6.42,16.06" transform="translate(-12.8 -63.89)"/><path class="cls-19" d="M276.77,94.28q9.66-1.29,15,.53" transform="translate(-12.8 -63.89)"/><path class="cls-19" d="M299.87,112.31c-2,3-5.22,8.42-9.29,15.55" transform="translate(-12.8 -63.89)"/><path class="cls-19" d="M318.59,113c4.79,4.8,6.52,9.35,6.86,13.78" transform="translate(-12.8 -63.89)"/><path class="cls-19" d="M344.19,109.19A44.17,44.17,0,0,1,338,125.3" transform="translate(-12.8 -63.89)"/><path class="cls-19" d="M322.23,95.45A19.71,19.71,0,0,1,333,93.92" transform="translate(-12.8 -63.89)"/><path class="cls-19" d="M273.73,82.71a32.71,32.71,0,0,1,11.74-11.8" transform="translate(-12.8 -63.89)"/><path class="cls-19" d="M303.16,74.52a29.38,29.38,0,0,1,1.2,10.17" transform="translate(-12.8 -63.89)"/><path class="cls-19" d="M273.07,143.61l-2.87.87" transform="translate(-12.8 -63.89)"/><path class="cls-19" d="M289,150.15a14.52,14.52,0,0,1,.1,4.77" transform="translate(-12.8 -63.89)"/><path class="cls-19" d="M315.08,143.13c-4.73,1.74-10.61,3-16.7.39" transform="translate(-12.8 -63.89)"/><path class="cls-19" d="M256.34,110a3.15,3.15,0,0,1,1.78-2.21" transform="translate(-12.8 -63.89)"/></g></svg>