<svg id="Capa_1" data-name="Capa 1" xmlns="http://www.w3.org/2000/svg" viewBox="0 0 553.54 677.98"><defs><style>.cls-1,.cls-5,.cls-6{fill:#2c59a4;}.cls-2{fill:#f8e82e;}.cls-3{fill:#fafbfe;}.cls-4,.cls-8{fill:#fff;}.cls-4,.cls-5,.cls-6{stroke:#2c59a4;stroke-miterlimit:10;}.cls-4{stroke-width:11.64px;}.cls-5,.cls-6{stroke-width:5.82px;}.cls-5{fill-rule:evenodd;}.cls-7{fill:#3a5faa;}.cls-8{font-size:69.82px;font-family:Rubik-Medium, Rubik;font-weight:500;}</style></defs><path class="cls-1" d="M237.12,191.73c-117.83,0-213.34,95.52-213.34,213.35s95.51,213.34,213.34,213.34S450.47,522.9,450.47,405.08,355,191.73,237.12,191.73Zm0,412.57c-110,0-199.23-89.2-199.23-199.22s89.2-199.23,199.23-199.23,199.23,89.2,199.23,199.23S347.15,604.3,237.12,604.3Z" transform="translate(-23.78 -81.96)"/><circle class="cls-2" cx="213.35" cy="323.12" r="199.23"/><path class="cls-3" d="M321.63,93.08h-4.36a11.82,11.82,0,0,0-11.82,11.82v25.39h28V104.9A11.82,11.82,0,0,0,321.63,93.08Z" transform="translate(-23.78 -81.96)"/><path class="cls-1" d="M355.89,567.53l-8.35-418.41h5.32a5.24,5.24,0,0,0,0-10.47h-5.32l-2.16-8.36v-30A18.33,18.33,0,0,0,327.05,82h-15.2a18.32,18.32,0,0,0-18.33,18.33v30l-2.42,8.36h-5.91a5.24,5.24,0,0,0,0,10.47h5.42L277,605.14h-8.39V559.75H195.36v87.51H437V567.53ZM305.45,104.9a11.82,11.82,0,0,1,11.82-11.82h4.36a11.82,11.82,0,0,1,11.81,11.82v25.39h-28Z" transform="translate(-23.78 -81.96)"/><path class="cls-4" d="M467.07,400.66A104.43,104.43,0,1,1,362.64,505.09,104.44,104.44,0,0,1,467.07,400.66Z" transform="translate(-23.78 -81.96)"/><path class="cls-5" d="M544.71,461.34c12,10,19.85,22.71,26.52,36.23-3-25.33-11.68-48.2-30.7-66.7C544.39,440.68,547.75,453.25,544.71,461.34Z" transform="translate(-23.78 -81.96)"/><path class="cls-5" d="M431.89,406.73c19.95-.24,35.64,1.73,42,8.58q8.91-9.87,29.36-8.21C477.79,398.43,454.11,398.82,431.89,406.73Z" transform="translate(-23.78 -81.96)"/><path class="cls-5" d="M385.05,499.85q6.46-22.82,26.21-37.66A74.16,74.16,0,0,1,404,434.73L387,438a96.82,96.82,0,0,0-20.82,39.9l.8,16.2Q378.25,495.65,385.05,499.85Z" transform="translate(-23.78 -81.96)"/><path class="cls-5" d="M476.72,439.44a105.32,105.32,0,0,0-29.92,24L466.07,505l44.42,1.67A137.62,137.62,0,0,0,519.13,465Q502,447.61,476.72,439.44Z" transform="translate(-23.78 -81.96)"/><path class="cls-5" d="M400.27,538q-9.07,19.75,2.22,41.28c12.06,7.91,24.43,14.1,37.66,15.51A70.23,70.23,0,0,0,462.53,579c-9-12.5-16-25-18.56-37.49A187.28,187.28,0,0,1,400.27,538Z" transform="translate(-23.78 -81.96)"/><path class="cls-5" d="M526.76,539.33c-3.8,17.32-12.51,29.73-24.59,38.77l16.22,18c15.74-9.51,29.47-22,39.64-39.64l-1.58-20.64A39.78,39.78,0,0,1,526.76,539.33Z" transform="translate(-23.78 -81.96)"/><path class="cls-6" d="M385.05,499.85c.09,12.71,6.27,25.41,15.22,38.11" transform="translate(-23.78 -81.96)"/><path class="cls-6" d="M411.26,462.19q22.94-3.06,35.54,1.26" transform="translate(-23.78 -81.96)"/><path class="cls-6" d="M466.07,505c-4.73,7.07-12.38,20-22,36.91" transform="translate(-23.78 -81.96)"/><path class="cls-6" d="M510.49,506.64c11.38,11.39,15.48,22.18,16.27,32.7" transform="translate(-23.78 -81.96)"/><path class="cls-6" d="M571.23,497.57c-3.76,19.47-10,30.56-14.78,38.21" transform="translate(-23.78 -81.96)"/><path class="cls-6" d="M519.13,465q11.48-5.29,25.58-3.62" transform="translate(-23.78 -81.96)"/><path class="cls-6" d="M404,434.73q9.22-16.49,27.85-28" transform="translate(-23.78 -81.96)"/><path class="cls-6" d="M473.89,415.31a70.2,70.2,0,0,1,2.83,24.13" transform="translate(-23.78 -81.96)"/><path class="cls-6" d="M402.49,579.24l-6.82,2" transform="translate(-23.78 -81.96)"/><path class="cls-6" d="M440.15,594.75a34.88,34.88,0,0,1,.26,11.33" transform="translate(-23.78 -81.96)"/><path class="cls-6" d="M502.17,578.1c-11.22,4.14-25.19,7.19-39.64.92" transform="translate(-23.78 -81.96)"/><path class="cls-6" d="M362.79,499.37a7.47,7.47,0,0,1,4.22-5.25" transform="translate(-23.78 -81.96)"/><path class="cls-7" d="M211.5,703.29a58,58,0,0,1-5.19-8.93c-3.16-6.69-4.91-9.44-8.75-18.12-2.11-4.76-2.56-9.66,2.74-12.3,5.91-3,8.15,1.85,10.54,6.15,21.1,37.91,21.52,38.18,49.65,2.75,9.95-12.55,16.74-13.6,23.8.61a76.06,76.06,0,0,0,8.36,13.09c13.8,17.54,25.13,17.87,40.26,2.93,8.51-8.4,10.33-25.83,23.19-25.91,11.69-.06,14.22,16.47,22.25,24.49,14,14,23.67,11.79,36.92-7.52,4.38-6.38,5.5-22,16.21-15.92,11.42,6.51-.26,16.89-4.57,24-17.67,29.33-38,31.46-61.49,6.35-7-7.5-10.3-9.31-18.32-.57C320,724,305,723.84,279.87,693.24c-8.95-10.88-12.17-5-17.7,1.59-13.9,16.71-30.92,29.32-48,12.28Z" transform="translate(-23.78 -81.96)"/><path class="cls-7" d="M211.46,746.84a58.8,58.8,0,0,1-5.18-8.93c-3.16-6.69-4.91-9.44-8.75-18.12-2.11-4.76-2.56-9.65,2.73-12.3,5.92-3,8.15,1.85,10.55,6.15,21.09,37.91,21.52,38.18,49.64,2.75,10-12.54,16.75-13.6,23.81.61a75.68,75.68,0,0,0,8.36,13.09c13.8,17.55,25.13,17.87,40.26,2.93,8.51-8.4,10.33-25.83,23.19-25.9,11.69-.07,14.22,16.46,22.25,24.48,14,14,23.67,11.79,36.92-7.52,4.37-6.38,5.49-22,16.21-15.92,11.42,6.51-.26,16.89-4.57,24-17.67,29.33-38,31.46-61.49,6.35-7-7.5-10.3-9.31-18.32-.57C320,767.5,305,767.39,279.83,736.79c-8.94-10.87-12.16-5-17.69,1.6-13.9,16.7-30.92,29.31-48,12.27Z" transform="translate(-23.78 -81.96)"/><text class="cls-8" transform="translate(268.53 266.47)">C<tspan x="-0.7" y="83.78">D</tspan><tspan x="-4.47" y="167.56">M</tspan></text></svg>