<svg id="Capa_1" data-name="Capa 1" xmlns="http://www.w3.org/2000/svg" viewBox="0 0 585.33 585.33"><defs><style>.cls-1,.cls-5{fill:#fff;}.cls-2{fill:#a38942;}.cls-3{fill:#f39200;}.cls-4{fill:#1d71b8;}.cls-5{font-size:54px;}.cls-5,.cls-6{font-family:Arial-BoldMT, Arial;font-weight:700;}.cls-6{font-size:56px;fill:#1d1d1b;}.cls-7{fill:#95c11f;}.cls-10,.cls-8{font-size:81.08px;fill:#009640;font-family:FranklinGothic-DemiCond, Franklin Gothic Demi Cond;font-weight:300;}.cls-8{letter-spacing:-0.01em;}.cls-9{letter-spacing:0em;}</style></defs><path class="cls-1" d="M297.64,709.3a288.35,288.35,0,1,1,203.9-84.45A286.46,286.46,0,0,1,297.64,709.3Z" transform="translate(-4.97 -128.28)"/><path class="cls-2" d="M297.64,136.89c156.88,0,284.05,127.18,284.05,284.05S454.52,705,297.64,705,13.58,577.82,13.58,420.94s127.18-284,284.06-284m0-8.61a291.72,291.72,0,1,0,113.92,23,290.85,290.85,0,0,0-113.92-23Z" transform="translate(-4.97 -128.28)"/><circle class="cls-1" cx="292.66" cy="292.66" r="178.31"/><path class="cls-3" d="M297.64,242.63c87.73,0,160.6,63.37,175.48,146.83l104.15-18.69C553.58,237.82,437.39,136.89,297.64,136.89S41.7,237.82,18,370.77l104.15,18.69C137,306,209.91,242.63,297.64,242.63Z" transform="translate(-4.97 -128.28)"/><path class="cls-4" d="M297.64,599.26a177.83,177.83,0,0,1-131.13-57.52l-77.65,71.8a284,284,0,0,0,417.07.51l-77.66-71.79A177.81,177.81,0,0,1,297.64,599.26Z" transform="translate(-4.97 -128.28)"/><text class="cls-5" transform="translate(117.94 475.69) rotate(39.62) scale(1 1.1)">S</text><text class="cls-5" transform="matrix(0.87, 0.49, -0.54, 0.96, 152.75, 503.66)">A</text><text class="cls-5" transform="translate(195.13 526.34) rotate(18.23) scale(1 1.1)">N</text><text class="cls-5" transform="translate(238.41 539.32) rotate(10.64) scale(1 1.1)"> </text><text class="cls-5" transform="translate(259.89 543.95) rotate(2.3) scale(1 1.1)">M</text><text class="cls-5" transform="matrix(0.99, -0.16, 0.18, 1.09, 314.42, 544.89)">A</text><text class="cls-5" transform="translate(356.2 537.55) rotate(-18.28) scale(1 1.1)">T</text><text class="cls-5" transform="translate(394.96 524.17) rotate(-27.96) scale(1 1.1)">E</text><text class="cls-5" transform="matrix(0.78, -0.63, 0.69, 0.86, 434.44, 502.56)">O</text><text class="cls-6" transform="translate(86.34 246.51) rotate(-71.91) scale(1 1.1)">C</text><text class="cls-6" transform="translate(97.28 212.6) rotate(-63.02) scale(1 1.1)">F</text><text class="cls-6" transform="translate(111.6 185.16) rotate(-57.13) scale(1 1.1)"> </text><text class="cls-6" transform="matrix(0.63, -0.78, 0.85, 0.69, 117.56, 174.51)">P</text><text class="cls-6" transform="translate(135.15 151.73) rotate(-42.71) scale(1 1.1)">A</text><text class="cls-6" transform="translate(160.81 127.46) rotate(-33.17) scale(1 1.1)">N</text><text class="cls-6" transform="translate(190.09 107.8) rotate(-23.57) scale(1 1.1)">A</text><text class="cls-6" transform="translate(222.21 93.31) rotate(-13.93) scale(1 1.1)">D</text><text class="cls-6" transform="translate(256.55 84.52) rotate(-4.7) scale(1 1.1)">E</text><text class="cls-6" transform="translate(288.86 81.35) rotate(4.39) scale(1 1.1)">R</text><text class="cls-6" transform="translate(325.48 84.66) rotate(11.02) scale(1 1.1)">I</text><text class="cls-6" transform="translate(337.42 86.03) rotate(17.69) scale(1 1.1)">A</text><text class="cls-6" transform="translate(370.59 97.01) rotate(23.87) scale(1 1.1)"> </text><text class="cls-6" transform="matrix(0.86, 0.5, -0.55, 0.95, 382.05, 101.23)">P</text><text class="cls-6" transform="translate(410.31 117.05) rotate(39.34) scale(1 1.1)">U</text><text class="cls-6" transform="translate(437.98 139.57) rotate(48.13) scale(1 1.1)">L</text><text class="cls-6" transform="translate(458.42 162.84) rotate(54) scale(1 1.1)">I</text><text class="cls-6" transform="matrix(0.49, 0.87, -0.96, 0.54, 466.22, 171.99)">D</text><text class="cls-6" transform="translate(483.96 202.26) rotate(70.61) scale(1 1.1)">O</text><path class="cls-1" d="M210.11,358.23l37.79-10.12a46.75,46.75,0,0,1,12.15-1.62c16.44,0,30.36,9.13,33.87,22.2,4.53,16.93-8.73,35.24-29.57,40.83L234,417.66l11,41-7.39,2Z" transform="translate(-4.97 -128.28)"/><path class="cls-2" d="M260.05,363.71c8.52,0,15.77,4,17.23,9.43,1,3.68-.68,7.24-2.26,9.58-3.19,4.74-8.71,8.44-15.12,10.16l-13.78,3.7-7.38,2-7.54-28.14,7.38-2,13.77-3.69a29.71,29.71,0,0,1,7.7-1m0-34.44a64.05,64.05,0,0,0-16.61,2.21l-13.77,3.69-20.33,5.44L189,346.06l18.17,67.81,18.17,67.81L266,470.79l-11-41,13.77-3.69c30.06-8.06,48.74-35.78,41.74-61.92-5.71-21.28-26.68-35-50.5-35Z" transform="translate(-4.97 -128.28)"/><path class="cls-1" d="M300.51,420.05l37.79-10.12a46.82,46.82,0,0,1,12.15-1.63c16.44,0,30.36,9.13,33.87,22.2,4.53,16.93-8.73,35.25-29.57,40.83l-30.4,8.15,11,40.95-7.38,2Z" transform="translate(-4.97 -128.28)"/><path class="cls-2" d="M350.45,425.52c8.52,0,15.77,4,17.24,9.44,1,3.68-.69,7.24-2.27,9.58-3.19,4.74-8.7,8.44-15.12,10.16l-13.78,3.69-7.38,2-7.54-28.14,7.38-2,13.78-3.69a29.6,29.6,0,0,1,7.69-1m0-34.43a64.47,64.47,0,0,0-16.61,2.2L320.07,397l-20.33,5.44-20.32,5.45,18.17,67.81,18.17,67.81,40.65-10.89-11-40.95L359.21,488c30.06-8.06,48.74-35.78,41.74-61.92-5.7-21.29-26.68-35-50.5-35Z" transform="translate(-4.97 -128.28)"/><path class="cls-3" d="M239.06,327.09l-13.77,3.69L205,336.23l-20.32,5.45,18.17,67.81L221,477.3l40.65-10.89-11-41,13.78-3.69c30.05-8.06,48.74-35.78,41.74-61.92S269.12,319,239.06,327.09Z" transform="translate(-4.97 -128.28)"/><path class="cls-7" d="M329.46,388.91l-13.77,3.69-20.33,5.45L275,403.49l18.17,67.82,18.17,67.81L352,528.23l-11-41,13.78-3.69c30.05-8.05,48.74-35.77,41.74-61.91S359.52,380.86,329.46,388.91Z" transform="translate(-4.97 -128.28)"/><text class="cls-8" transform="translate(34.27 366.12)">1<tspan class="cls-9" x="40.74" y="0">9</tspan></text><text class="cls-10" transform="translate(467.8 370.49)">95</text></svg>