<svg id="Capa_1" data-name="Capa 1" xmlns="http://www.w3.org/2000/svg" viewBox="0 0 585.33 585.33"><defs><style>.cls-1,.cls-5{fill:#fff;}.cls-2{fill:#a38942;}.cls-3{fill:#f39200;}.cls-4{fill:#1d71b8;}.cls-5,.cls-6{font-size:72.31px;}.cls-10,.cls-5,.cls-6,.cls-8{font-family:FranklinGothic-DemiCond, Franklin Gothic Demi Cond;font-weight:300;}.cls-6{fill:#1d1d1b;}.cls-7{fill:#95c11f;}.cls-10,.cls-8{font-size:81.08px;fill:#009640;}.cls-8{letter-spacing:-0.01em;}.cls-9{letter-spacing:0em;}</style></defs><path class="cls-1" d="M297.64,709.3a288.35,288.35,0,1,1,203.9-84.45A286.46,286.46,0,0,1,297.64,709.3Z" transform="translate(-4.97 -128.28)"/><path class="cls-2" d="M297.64,136.89c156.88,0,284.05,127.18,284.05,284.05S454.52,705,297.64,705,13.58,577.82,13.58,420.94s127.18-284,284.06-284m0-8.61a291.72,291.72,0,1,0,113.92,23,290.85,290.85,0,0,0-113.92-23Z" transform="translate(-4.97 -128.28)"/><circle class="cls-1" cx="292.66" cy="292.66" r="178.31"/><path class="cls-3" d="M297.64,242.63c87.73,0,160.6,63.37,175.48,146.83l104.15-18.69C553.58,237.82,437.39,136.89,297.64,136.89S41.7,237.82,18,370.77l104.15,18.69C137,306,209.91,242.63,297.64,242.63Z" transform="translate(-4.97 -128.28)"/><path class="cls-4" d="M297.64,599.26a177.83,177.83,0,0,1-131.13-57.52l-77.65,71.8a284,284,0,0,0,417.07.51l-77.66-71.79A177.81,177.81,0,0,1,297.64,599.26Z" transform="translate(-4.97 -128.28)"/><text class="cls-5" transform="matrix(0.79, 0.62, -0.62, 0.79, 122.15, 480.9)">S</text><text class="cls-5" transform="translate(157.33 507.62) rotate(28.07)">A</text><text class="cls-5" transform="translate(196.13 527.81) rotate(17.72)">N</text><text class="cls-5" transform="translate(238.55 540.27) rotate(10.75)"> </text><text class="cls-5" transform="translate(256.92 544.91) rotate(1.93)">M</text><text class="cls-5" transform="translate(319.43 545.25) rotate(-10.16)">A</text><text class="cls-5" transform="translate(359.11 537.57) rotate(-18.37)">T</text><text class="cls-5" transform="translate(390.47 527.03) rotate(-26.59)">E</text><text class="cls-5" transform="translate(426.89 508.48) rotate(-36.51)">O</text><text class="cls-6" transform="translate(96.21 223.43) rotate(-65.11)">C</text><text class="cls-6" transform="translate(110.5 192.37) rotate(-56.69)">F</text><text class="cls-6" transform="matrix(0.62, -0.78, 0.78, 0.62, 126.48, 168.56)"> </text><text class="cls-6" transform="matrix(0.7, -0.71, 0.71, 0.7, 131.99, 160.39)">P</text><text class="cls-6" transform="matrix(0.8, -0.6, 0.6, 0.8, 153.14, 138.25)">A</text><text class="cls-6" transform="matrix(0.88, -0.47, 0.47, 0.88, 177.78, 118.9)">N</text><text class="cls-6" transform="matrix(0.95, -0.32, 0.32, 0.95, 209.6, 101.78)">A</text><text class="cls-6" transform="translate(239.1 91.32) rotate(-9.22)">D</text><text class="cls-6" transform="translate(274.03 85.66) rotate(-0.93)">E</text><text class="cls-6" transform="translate(302.95 84.69) rotate(8.18)">R</text><text class="cls-6" transform="translate(337.57 90) rotate(15.18)">I</text><text class="cls-6" transform="translate(352.76 93.35) rotate(21.89)">A</text><text class="cls-6" transform="matrix(0.88, 0.47, -0.47, 0.88, 383.42, 106.12)"> </text><text class="cls-6" transform="translate(392.47 110) rotate(33.81)">P</text><text class="cls-6" transform="matrix(0.73, 0.68, -0.68, 0.73, 418.82, 126.85)">U</text><text class="cls-6" transform="matrix(0.62, 0.78, -0.78, 0.62, 445.53, 151.82)">L</text><text class="cls-6" transform="translate(462.29 173.08) rotate(57.48)">I</text><text class="cls-6" transform="matrix(0.43, 0.9, -0.9, 0.43, 471.3, 185.48)">D</text><text class="cls-6" transform="translate(486.64 216.62) rotate(74.22)">O</text><path class="cls-1" d="M210.11,358.23l37.79-10.12a46.75,46.75,0,0,1,12.15-1.62c16.44,0,30.36,9.13,33.87,22.2,4.53,16.93-8.73,35.24-29.57,40.83L234,417.66l11,41-7.39,2Z" transform="translate(-4.97 -128.28)"/><path class="cls-2" d="M260.05,363.71c8.52,0,15.77,4,17.23,9.43,1,3.68-.68,7.24-2.26,9.58-3.19,4.74-8.71,8.44-15.12,10.16l-13.78,3.7-7.38,2-7.54-28.14,7.38-2,13.77-3.69a29.71,29.71,0,0,1,7.7-1m0-34.44a64.05,64.05,0,0,0-16.61,2.21l-13.77,3.69-20.33,5.44L189,346.06l18.17,67.81,18.17,67.81L266,470.79l-11-41,13.77-3.69c30.06-8.06,48.74-35.78,41.74-61.92-5.71-21.28-26.68-35-50.5-35Z" transform="translate(-4.97 -128.28)"/><path class="cls-1" d="M300.51,420.05l37.79-10.12a46.82,46.82,0,0,1,12.15-1.63c16.44,0,30.36,9.13,33.87,22.2,4.53,16.93-8.73,35.25-29.57,40.83l-30.4,8.15,11,40.95-7.38,2Z" transform="translate(-4.97 -128.28)"/><path class="cls-2" d="M350.45,425.52c8.52,0,15.77,4,17.24,9.44,1,3.68-.69,7.24-2.27,9.58-3.19,4.74-8.7,8.44-15.12,10.16l-13.78,3.69-7.38,2-7.54-28.14,7.38-2,13.78-3.69a29.6,29.6,0,0,1,7.69-1m0-34.43a64.47,64.47,0,0,0-16.61,2.2L320.07,397l-20.33,5.44-20.32,5.45,18.17,67.81,18.17,67.81,40.65-10.89-11-40.95L359.21,488c30.06-8.06,48.74-35.78,41.74-61.92-5.7-21.29-26.68-35-50.5-35Z" transform="translate(-4.97 -128.28)"/><path class="cls-3" d="M239.06,327.09l-13.77,3.69L205,336.23l-20.32,5.45,18.17,67.81L221,477.3l40.65-10.89-11-41,13.78-3.69c30.05-8.06,48.74-35.78,41.74-61.92S269.12,319,239.06,327.09Z" transform="translate(-4.97 -128.28)"/><path class="cls-7" d="M329.46,388.91l-13.77,3.69-20.33,5.45L275,403.49l18.17,67.82,18.17,67.81L352,528.23l-11-41,13.78-3.69c30.05-8.05,48.74-35.77,41.74-61.91S359.52,380.86,329.46,388.91Z" transform="translate(-4.97 -128.28)"/><text class="cls-8" transform="translate(34.27 366.12)">1<tspan class="cls-9" x="40.74" y="0">9</tspan></text><text class="cls-10" transform="translate(467.8 370.49)">95</text></svg>