<svg id="Capa_1" data-name="Capa 1" xmlns="http://www.w3.org/2000/svg" viewBox="0 0 550.16 806.12"><defs><style>.cls-1,.cls-14{fill:none;}.cls-1,.cls-14,.cls-4,.cls-5,.cls-7,.cls-8{stroke:#1d1d1b;}.cls-1,.cls-8{stroke-linejoin:round;stroke-width:14.51px;}.cls-2{fill:#fec906;}.cls-3{font-size:61.83px;font-family:Rubik-Bold, Rubik;font-weight:700;}.cls-3,.cls-4,.cls-6{fill:#1d1d1b;}.cls-14,.cls-4,.cls-5,.cls-7{stroke-miterlimit:10;}.cls-14,.cls-4{stroke-width:12.09px;}.cls-12,.cls-5,.cls-7,.cls-8{fill:#fff;}.cls-5{stroke-width:9.41px;}.cls-7{stroke-width:4.84px;}.cls-9{fill:#9e1b18;}.cls-10{fill:#fec904;}.cls-11{fill:#e94737;}.cls-13{fill:#1e3d8c;}</style></defs><path class="cls-1" d="M910.75,816.75a356.65,356.65,0,0,0,187.52-53.61l-22.34-37.93-22.32-37.9a273.75,273.75,0,0,1-103.79,37.92,270.16,270.16,0,0,1-78.14,0,273.74,273.74,0,0,1-103.8-37.92l-22.32,37.9-22.34,37.93a356.65,356.65,0,0,0,187.52,53.61h0Z" transform="translate(-637.84 -17.89)"/><path class="cls-2" d="M910.75,816.75a356.36,356.36,0,0,0,180-49.11,8.83,8.83,0,0,0,3-12l-17.91-30.4-22.32-37.9a273.75,273.75,0,0,1-103.79,37.92,270.16,270.16,0,0,1-78.14,0,273.74,273.74,0,0,1-103.8-37.92l-22.32,37.9-17.9,30.4a8.83,8.83,0,0,0,3,12,356.36,356.36,0,0,0,180,49.11h0Z" transform="translate(-637.84 -17.89)"/><text class="cls-3" transform="translate(114.63 737.86) rotate(24.59) scale(0.96 1)">U</text><text class="cls-3" transform="translate(154.15 755.31) rotate(19.54) scale(0.96 1)">.</text><text class="cls-3" transform="translate(170.64 761.75) rotate(14.33) scale(0.96 1)">D</text><text class="cls-3" transform="translate(212.13 771.76) rotate(9.18) scale(0.96 1)">.</text><text class="cls-3" transform="matrix(0.95, 0.12, -0.12, 0.99, 227.08, 774.17)"> </text><text class="cls-3" transform="translate(237.75 775.97) rotate(2.88) scale(0.96 1)">T</text><text class="cls-3" transform="translate(277.26 777.84) rotate(-4.07) scale(0.96 1)">E</text><text class="cls-3" transform="matrix(0.94, -0.18, 0.19, 0.98, 317.23, 774.81)">L</text><text class="cls-3" transform="translate(354.62 767.71) rotate(-17.98) scale(0.96 1)">D</text><text class="cls-3" transform="translate(397.51 753.47) rotate(-25.2) scale(0.96 1)">E</text><ellipse class="cls-4" cx="275.08" cy="426.15" rx="269.03" ry="281.26"/><path class="cls-5" d="M912.92,725.29c148.34,0,269-126.16,269-281.25s-120.69-281.26-269-281.26-269,126.16-269,281.26S764.57,725.29,912.92,725.29Zm-87.2-22.18c-47.65-17.58-89-49.14-119.61-90l32.22-28.46,68,20.18,40.82,60.65ZM697.6,453.26,743,389.43,798.25,410l46,132.43L807,598.21l-69.12-20.5ZM851.91,661.13,812.13,602l37.24-55.77,125.73.32,45,46.85-42.47,65.88Zm149.35,41.57-16.67-42.46,41.54-64.44L1094,574.14l29.26,34.3C1092.6,651.22,1050.27,684.35,1001.26,702.7Zm126.16-417a281.25,281.25,0,0,1,48,148l-40.67,3.62-43.15-52.93L1089,303.88ZM1130,441.64l-36,125.62-69,22-45.51-47.4,43-129.12,65-23.23Zm-44.72-58.28-65.07,23.26-102-83.35.48-68.55,60.1-24.31,103.93,73.41Zm-172.33-214a251.38,251.38,0,0,1,70.78,10.21l-9.51,45.66L915.45,249l-69.1-22.61-2.89-47.19A251.08,251.08,0,0,1,912.92,169.35Zm-70.77,62.54,70.25,23-.47,68.07L801.42,404.25l-56.54-21.1-3.14-77ZM735.57,309.17l3.07,75.3-46,64.78L650.3,439.1a281.35,281.35,0,0,1,49-154.73Z" transform="translate(-637.84 -17.89)"/><ellipse class="cls-6" cx="280.38" cy="426.15" rx="134.04" ry="140.14"/><polygon class="cls-7" points="341.68 523.98 387.2 571.39 456.18 549.38 492.13 423.75 449.63 371.63 384.65 394.87 341.68 523.98"/><polygon class="cls-7" points="447.42 365.47 444.88 285.94 340.95 212.52 280.86 236.84 280.38 305.38 382.35 388.73 447.42 365.47"/><polygon class="cls-7" points="211.54 528.35 174.29 584.12 214.07 643.24 339.78 641.4 382.25 575.52 337.26 528.67 211.54 528.35"/><polygon class="cls-7" points="160.42 392.16 105.13 371.54 59.76 435.37 100.03 559.82 169.15 580.33 206.38 524.58 160.42 392.16"/><polygon class="cls-7" points="163.59 386.36 274.09 305.05 274.56 236.98 204.31 214 103.9 288.31 107.04 365.26 163.59 386.36"/><path d="M1134.74,437.35l40.67-3.62a281.25,281.25,0,0,0-48-148L1089,303.88l2.57,80.54Z" transform="translate(-637.84 -17.89)"/><path d="M1026.13,595.8l-41.54,64.44,16.67,42.46c49-18.35,91.34-51.48,122-94.26L1094,574.14Z" transform="translate(-637.84 -17.89)"/><path d="M738.33,584.69l-32.22,28.46c30.6,40.82,72,72.38,119.61,90l21.46-37.59-40.82-60.65Z" transform="translate(-637.84 -17.89)"/><path d="M915.45,249l58.74-23.75,9.51-45.66a250.5,250.5,0,0,0-140.24-.39l2.89,47.19Z" transform="translate(-637.84 -17.89)"/><path d="M692.61,449.25l46-64.78-3.07-75.3-36.25-24.8a281.35,281.35,0,0,0-49,154.73Z" transform="translate(-637.84 -17.89)"/><path class="cls-8" d="M772,150.87,779.18,182h0a486.7,486.7,0,0,1,267.93,0h0l7.22-31.16h0a513.33,513.33,0,0,0-282.39,0Z" transform="translate(-637.84 -17.89)"/><path class="cls-8" d="M1112,60c-4.17,20.18-19.74,35.19-38.37,35.19-21.82,0-39.51-20.58-39.51-46a52.71,52.71,0,0,1,1.21-11.06l-1.45-.31c-8.84-1.87-18-3.6-27.39-5.13-1.73,23.53-18.67,42-39.34,42-21.82,0-39.5-20.58-39.5-46,0-1.16.07-2.3.15-3.44l-1.32,0q-4.51-.11-9.09-.15-8.79-.07-17.36.13l-1.31,0c.07,1.15.15,2.3.15,3.48,0,25.39-17.69,46-39.51,46-20.72,0-37.69-18.58-39.34-42.19l-1.66.27q-13.26,2.17-25.76,4.8l-1.68.35a53.19,53.19,0,0,1,1.24,11.25c0,25.39-17.69,46-39.5,46-18.72,0-34.36-15.16-38.44-35.49-9.51,3.38-18.33,6.79-26.4,10.09,7.76,33.2,33.84,57.62,64.84,57.62,26.1,0,48.7-17.32,59.83-42.62,0,0,0,0,0,0C824.63,98.52,841.15,107,859.38,107c22.06,0,41.64-12.37,53.89-31.48,0,0,0,0,0,0C925.53,94.61,945.11,107,967.17,107c18.16,0,34.62-8.39,46.71-22,0,0,0,0,0,0,11.15,25.2,33.72,42.45,59.76,42.45,30.89,0,56.89-24.26,64.75-57.29C1130.32,66.82,1121.5,63.41,1112,60Z" transform="translate(-637.84 -17.89)"/><path class="cls-9" d="M913.58,131.06A516,516,0,0,0,772,150.86L779.19,182h267.94l7.23-31.18A515.79,515.79,0,0,0,913.58,131.06Z" transform="translate(-637.84 -17.89)"/><path class="cls-10" d="M771.92,150.86,779.15,182a486.49,486.49,0,0,1,267.94,0l7.23-31.18a513.37,513.37,0,0,0-282.4,0Z" transform="translate(-637.84 -17.89)"/><path class="cls-10" d="M1112,60c-4.17,20.18-19.75,35.19-38.37,35.19-21.82,0-39.51-20.58-39.51-46a53.39,53.39,0,0,1,1.2-11.06l-1.44-.31c-8.84-1.87-18-3.6-27.4-5.13-1.72,23.53-18.66,42-39.33,42-21.82,0-39.51-20.58-39.51-46,0-1.16.08-2.3.15-3.44l-1.31,0q-4.51-.11-9.09-.15-8.79-.07-17.36.13l-1.32,0c.08,1.15.15,2.3.15,3.48,0,25.39-17.69,46-39.5,46-20.73,0-37.69-18.58-39.35-42.19l-1.65.27q-13.27,2.17-25.76,4.8l-1.68.35a53.19,53.19,0,0,1,1.24,11.25c0,25.39-17.69,46-39.51,46-18.72,0-34.36-15.16-38.44-35.49-9.51,3.38-18.32,6.79-26.39,10.09,7.76,33.2,33.84,57.62,64.83,57.62,26.1,0,48.71-17.32,59.84-42.62,0,0,0,0,0,0C824.6,98.52,841.12,107,859.35,107c22.06,0,41.64-12.37,53.89-31.48,0,0,0,0,0,0C925.5,94.61,945.08,107,967.14,107c18.15,0,34.61-8.39,46.7-22,0,0,0,0,0,0,11.16,25.2,33.72,42.45,59.77,42.45,30.89,0,56.89-24.26,64.75-57.29C1130.28,66.82,1121.47,63.41,1112,60Z" transform="translate(-637.84 -17.89)"/><path class="cls-11" d="M1090.58,465.3c.07,102.79-80.22,186.84-176.59,187.4-93.81.54-173.69-78.23-178.36-178.14V410.19h354.95Z" transform="translate(-637.84 -17.89)"/><path class="cls-12" d="M970.51,532.6a92.68,92.68,0,0,1-7.11-31.8h8l-.29-18.21H964V463.75h3.25v-8.27h-2.7v-2.73h-5.82v2.67h-5v-2.67h-5.88v2.61h-5.38v-2.95h-4.38v2.89h-2.61v7.53h2.22v30.56h-8.47v-34h3.7v-5.86h-3.11v-9.11h-2.51V442h-3.85v2.47h-7.33V442H911v2.47h-7.33V442h-3.85v2.47h-2.52v9.11h-3.1v5.86h3.7v34H889.4V462.83h2.22V455.3H889v-2.89h-4.38v2.95h-5.39v-2.61h-5.88v2.67h-5v-2.67h-5.82v2.73h-2.7v8.27h3.25v18.84H856l-.3,18.21h8a92.38,92.38,0,0,1-7.1,31.8,89.68,89.68,0,0,1-17.16,26.55V595h59.18V565.63c.69-8.86,7.6-15.26,14.94-15.52,7.34.26,14.25,6.66,14.94,15.52V595h59.18V559.15A89.28,89.28,0,0,1,970.51,532.6Z" transform="translate(-637.84 -17.89)"/><rect class="cls-13" x="97.8" y="170.02" width="354.94" height="222.29"/><path class="cls-10" d="M821.1,247.12l0,6.26-5.75,0-.06,2.83,5.78.07,0,5.19h-5.79v2.87l5.77,0,0,6.46-2.78,0c-1.39,0-2.79-.08-4.18,0-.86.05-1.29-.24-1.42-1.12a8.16,8.16,0,0,0-.26-.84c-1-.31-1.6,0-1.78,1.08a.91.91,0,0,1-1.13.86c-.85-.08-1.7,0-2.67-.05v-7.34l-2,0q-.11,30.58-.2,61c1.83.44,2.65,1.25,2.7,2.62s-.69,2.23-2.38,2.79a1.94,1.94,0,0,0,.3.49c1.52,1.22,1.29,2.53.29,3.95a9.26,9.26,0,0,0-.65,1.43c5-3.51,8.94-3.66,13-.58,2.95,2.28,4.36,6.94,3.26,10.83-1.33,4.71-4.5,6.84-10.86,7.26a9.08,9.08,0,0,1-2.36,8.26,8,8,0,0,1-6.12,2.45c-4.18-.08-9-4-8-10.82-5.38.23-9.17-2.13-10.83-7.62a10,10,0,0,1,3.48-10.61c4.23-3.15,8.47-2.7,12.66.48a27.1,27.1,0,0,0-1.19-2.49,1.15,1.15,0,0,1,.21-1.63,16.93,16.93,0,0,0,1.1-1.35c-2-.92-2.54-1.7-2.38-3.12.14-1.25,1-2,2.69-2.34q0-38.61-.06-77.28l1.29-.21c-1.44-1.41-2-2.93-1.26-4.78l1-1.17a1.72,1.72,0,0,0,.34-.06,3,3,0,0,1,3.92,1.23,3.4,3.4,0,0,1-.51,4c-.18.21-.34.44-.58.77l1.18.3.06,6.93,1.92,0,0-7.33h1.3c.7,0,1.54-.24,2,.09s.59,1.22.86,1.87c.89.21,1.55,0,1.7-1.06.1-.73.52-.9,1.2-.89,2.27,0,4.54,0,6.81,0Zm-22.59,95.17c-1-5-5.26-6.53-8.37-5.3a6.52,6.52,0,0,0-3.42,8.59,6,6,0,0,0,3.34,3.35c2.52,1,4.76.34,6.79-1.49l2.83,3.48a5.5,5.5,0,0,0-2.25,3.8A4.82,4.82,0,0,0,799,358.8a4.32,4.32,0,0,0,6.11,0,6.2,6.2,0,0,0,1.48-2.89c.42-2.07-.56-3.7-2.21-5l3-3.36a6.4,6.4,0,0,0,5.49,1.81,6,6,0,0,0,4.59-3.72,6.59,6.59,0,0,0-3.29-8.54c-2.83-1.21-7.34-.23-8.58,5.39l-1.42-.27-.17.23c1.27,1.39,2.4,2.83.48,4.41a4,4,0,0,1-4.88-.13c-1.71-1.58-.69-3,.62-4.36Z" transform="translate(-637.84 -17.89)"/><path class="cls-10" d="M981,300.21c-9.28,9.9-20.79,4.23-31.94,7.29,9.88,8.25,10.82,22.05,23.31,27.71-7.22,4.73-11.58-.31-16.24-1.93-4.85-1.69-8.21-7.06-15-6.55,2.87,5.65,2.23,11.37,1.75,17-.5,5.94,1.15,11.38,3.33,17.72-12.6-3.28-12.89-16.83-20.75-24.58-2.91,12-12.63,20.17-12,33.59-9.44-9.66-4.17-21.67-6.88-33.23-8.66,9.51-21.29,11.09-26.94,23.52-2.77-13.84,7.28-21.86,10.69-33.94-11.56,6.95-24.32-1.43-35.78,9.83,4.65-15.05,17-17.1,25.36-25.78-13-.64-20.94-13.23-34.7-10.29,9.14-11.84,22.24-4.5,32.78-9.58-9.15-7.69-9.92-21.64-23.61-26.81,14.11-2.86,22.09,6,32.32,10.53-2.58-11.5,2.94-23.62-6-35,13.57,2.41,14.54,16.13,22.38,24,1.17-13.18,14.33-20.51,11.28-35.74,9.32,10.25,5.71,21.66,6.41,33.75,9-8.83,21.22-10.65,26.35-24,3.39,14.28-6.39,22.69-9.94,34.54,11.88-5.71,24.45,1.8,35.82-7.91-4.17,13.64-15.55,15.8-24.26,22.9C960.18,291.12,968.22,300.62,981,300.21Z" transform="translate(-637.84 -17.89)"/><path class="cls-10" d="M1035.55,253.57l-2.89-4.21-2.71-3.61-3.71-3s-2.2-.85-2.7-1a18.12,18.12,0,0,0-5.72-.74,22.85,22.85,0,0,0-4.67.93l-4.2,2.52-2.22,2.17-2.08,2.56-1.74,3-1,4.05-.38,3.2v2.17l1.18,3.7,1.84,2.51,3.11,2.62,3.59,1.63,4.81-.1,2.55-.89,2.5-2.32s1.84-2.17,2.17-2.76,1.32-4,1.32-4a21.86,21.86,0,0,0,0-2.32c-.09-.45-1.27-3.36-1.27-3.36s-1.65-.64-1.89-.69-2-.14-2-.14l-.19,1.43a4.13,4.13,0,0,1,1.1,2.07,34.21,34.21,0,0,1,0,3.74l-1.1,1.58-2.36,1.78-2.45.49s-2.93-.29-3.21-.79a30.94,30.94,0,0,0-2.17-2.46l-.94-3.36.38-3.05,1.88-3.85,3.46-3.26,3.21-1.15H1020l2.27.37,1.73,1.24,3.11,3,1,2.17.72,3.22.44,3.06s-1,2.69-1,2.79-6.69,7.1-6.69,7.1l-4.16,4.48v2h-2V286h2V348.1h-2V356h2v8h5.92v-8h2.39V348.1h-2.39V286h2.39V278.1h-2.39v-2l5.34-3.42,3.27-3.75,2.71-3a12.51,12.51,0,0,0,1.26-2.5c0-.46.44-4.67.44-4.67Z" transform="translate(-637.84 -17.89)"/><path class="cls-14" d="M735.63,187.9V474.56C740.3,574.47,820.18,653.24,914,652.7c96.37-.56,176.66-84.61,176.59-187.4V187.9Z" transform="translate(-637.84 -17.89)"/></svg>