<svg id="Capa_1" data-name="Capa 1" xmlns="http://www.w3.org/2000/svg" viewBox="0 0 547.95 546.43"><defs><style>.cls-1{fill:none;stroke:#f9b114;stroke-miterlimit:10;stroke-width:6.98px;}.cls-2{fill:#f9b114;}.cls-3{fill:#fff;}.cls-4{fill:#179739;}.cls-5{font-size:62.84px;}.cls-5,.cls-6,.cls-7{fill:#098d39;}.cls-5,.cls-6{font-family:Arial-BoldMT, Arial;font-weight:700;}.cls-6{font-size:60.04px;}</style></defs><ellipse class="cls-1" cx="273.97" cy="273.22" rx="270.48" ry="269.73"/><path class="cls-2" d="M912.91,251a170.16,170.16,0,1,1-120.5,49.77A169.53,169.53,0,0,1,912.91,251m0-4.19c-96.43,0-174.6,77.95-174.6,174.11s78.17,174.12,174.6,174.12,174.61-77.95,174.61-174.12-78.17-174.11-174.61-174.11Z" transform="translate(-638.94 -147.73)"/><path class="cls-3" d="M912.91,688.79a268.24,268.24,0,1,1,189.93-78.46A267.24,267.24,0,0,1,912.91,688.79Zm0-443.85c-97.31,0-176.49,79-176.49,176S815.6,597,912.91,597s176.49-79,176.49-176S1010.23,244.94,912.91,244.94Z" transform="translate(-638.94 -147.73)"/><path class="cls-4" d="M912.91,155a266.25,266.25,0,1,1-103.82,20.9A265.66,265.66,0,0,1,912.91,155m0,443.84c98.36,0,178.38-79.8,178.38-177.89s-80-177.88-178.38-177.88-178.37,79.8-178.37,177.88,80,177.89,178.37,177.89m0-447.61c-149.38,0-270.48,120.76-270.48,269.72s121.1,269.73,270.48,269.73S1183.4,569.91,1183.4,420.94,1062.3,151.22,912.91,151.22Zm0,443.84c-96.43,0-174.6-77.95-174.6-174.12s78.17-174.11,174.6-174.11,174.61,77.95,174.61,174.11-78.17,174.12-174.61,174.12Z" transform="translate(-638.94 -147.73)"/><text class="cls-5" transform="translate(31.01 297.7) rotate(79.55)">V</text><text class="cls-5" transform="matrix(0.3, 0.95, -0.95, 0.3, 39.48, 339.2)">I</text><text class="cls-5" transform="translate(44.25 356.21) rotate(65.75)">L</text><text class="cls-5" transform="matrix(0.56, 0.83, -0.83, 0.56, 61.14, 393.24)">L</text><text class="cls-5" transform="translate(84.16 427.65) rotate(45.66)">A</text><text class="cls-5" transform="translate(114.94 458.12) rotate(38.78)"> </text><text class="cls-5" transform="translate(128.48 469.94) rotate(31.71)">S</text><text class="cls-5" transform="translate(167.2 493.66) rotate(20.6)">A</text><text class="cls-5" transform="matrix(0.99, 0.16, -0.16, 0.99, 213.41, 510.6)">N</text><text class="cls-5" transform="translate(261.28 517.53) rotate(-1.5)">T</text><text class="cls-5" transform="translate(297 517.1) rotate(-10.68)">A</text><text class="cls-5" transform="translate(339.51 508.34) rotate(-17.66)"> </text><text class="cls-5" transform="translate(357.3 503.59) rotate(-25.31)">B</text><text class="cls-5" transform="translate(401.6 482.21) rotate(-36.87)">R</text><text class="cls-5" transform="translate(437.89 453.79) rotate(-44.4)">Í</text><text class="cls-5" transform="matrix(0.61, -0.79, 0.79, 0.61, 451.97, 441.42)">G</text><text class="cls-5" transform="translate(481.51 401.06) rotate(-60.51)">I</text><text class="cls-5" transform="translate(491.31 385.51) rotate(-68.13)">D</text><text class="cls-5" transform="translate(509.28 339.65) rotate(-79.78)">A</text><text class="cls-6" transform="translate(73.03 257.76) rotate(-82.5)">•</text><text class="cls-6" transform="translate(75.43 239.4) rotate(-77.83)"> </text><text class="cls-6" transform="translate(78.41 225.21) rotate(-73.67)"> </text><text class="cls-6" transform="translate(82.41 211.27) rotate(-69.51)"> </text><text class="cls-6" transform="translate(85.72 199.19) rotate(-62.15)">U</text><text class="cls-6" transform="translate(102.55 166.13) rotate(-51.65)">N</text><text class="cls-6" transform="translate(127.25 135.83) rotate(-44.37)">I</text><text class="cls-6" transform="translate(135.12 126.31) rotate(-36.68)">Ó</text><text class="cls-6" transform="translate(167.05 101.94) rotate(-25.77)">N</text><text class="cls-6" transform="matrix(0.95, -0.32, 0.32, 0.95, 202.44, 85.49)"> </text><text class="cls-6" transform="translate(213.9 80.49) rotate(-11.04)">D</text><text class="cls-6" transform="translate(250.53 72.97) rotate(-0.95)">E</text><text class="cls-6" transform="matrix(0.99, 0.15, -0.15, 0.99, 284.81, 71.9)">P</text><text class="cls-6" transform="translate(318.32 76.1) rotate(19.25)">O</text><text class="cls-6" transform="matrix(0.86, 0.5, -0.5, 0.86, 356.37, 88.9)">R</text><text class="cls-6" transform="translate(388.95 107.63) rotate(39.9)">T</text><text class="cls-6" transform="matrix(0.69, 0.72, -0.72, 0.69, 414, 129.04)">I</text><text class="cls-6" transform="translate(423.46 137.62) rotate(53.27)">V</text><text class="cls-6" transform="translate(442.31 161.36) rotate(62.32)">A</text><text class="cls-6" transform="translate(459.19 194.46) rotate(69.14)"> </text><text class="cls-6" transform="translate(464.43 207.99) rotate(73.31)"> </text><text class="cls-6" transform="matrix(0.22, 0.98, -0.98, 0.22, 468.68, 221.88)"> </text><text class="cls-6" transform="translate(471.94 235.67) rotate(82.14)">•</text><text class="cls-6" transform="matrix(0.06, 1, -1, 0.06, 474.49, 254.04)"> </text><path class="cls-3" d="M1024,301.07c-11-1.24-22-2.89-33-4.18-26.15-3.06-52.35-5.64-81.14-5.8-35.45.55-72.94,5.16-110.4,10.24-3.19.43-4,2.1-4.5,4.88a542.1,542.1,0,0,0-7.16,66.05c-1.34,29.41-.44,58.67,5.67,87.6,6,28.55,17.85,53.83,40.46,73.35,23.33,20.16,48.83,36.07,76.1,50.17,1.94,1,3.33.35,4.91-.47,22.26-11.36,44.2-24.07,64.06-39.3,18-13.81,33.65-29.58,42.75-50.91,10.59-24.82,14.61-51,15.9-77.65,1.75-36.25-1.18-72.21-7.22-108C1029.73,302.84,1027.91,301.51,1024,301.07Z" transform="translate(-638.94 -147.73)"/><path class="cls-7" d="M976.64,344.43a2.58,2.58,0,0,0,.23.51l.27-.27-.27-.49C976.79,344.26,976.62,344.37,976.64,344.43Z" transform="translate(-638.94 -147.73)"/><path class="cls-7" d="M977.14,344.67l-.27-.49c-.08.08-.25.19-.23.25a2.58,2.58,0,0,0,.23.51Z" transform="translate(-638.94 -147.73)"/><path class="cls-7" d="M992.8,358.23c8-.27,15.11,2.33,21.77,6.87.11-5.51-.17-7.68-1.54-8.05C1006.22,355.2,999.42,354.6,992.8,358.23Z" transform="translate(-638.94 -147.73)"/><path class="cls-7" d="M944.81,358.21c-7.89-4.18-15.8-2.5-23.7-.4a1.58,1.58,0,0,0-1.1,1.77c.07,2.43-.36,4.91.43,7.82A34.41,34.41,0,0,1,944.81,358.21Z" transform="translate(-638.94 -147.73)"/><path class="cls-7" d="M850.54,341.91c0-7.16,0-14.33,0-21.5,0-1.63,0-3-2.34-2.65q-13.8,2.1-27.62,4c-2.09.3-2.93,1.36-3.36,3.35-2.69,12.54-4.7,25.19-6.44,37.9-.33,2.41.47,3,2.79,3,11.32-.09,22.64-.12,34,0,2.68,0,3.07-1.1,3-3.38C850.47,355.75,850.54,348.83,850.54,341.91Z" transform="translate(-638.94 -147.73)"/><path class="cls-7" d="M905.5,339.06h0c0-7.67-.13-15.35.06-23,.07-2.9-.57-4-3.71-3.72-9.64,1-19.3,1.69-29,2.46-2.2.18-3.22.89-3.2,3.44q.21,22.27,0,44.55c0,2.47.68,3.29,3.16,3.26,9.82-.1,19.64-.13,29.45,0,2.83,0,3.3-1.14,3.26-3.58C905.43,354.67,905.5,346.86,905.5,339.06Z" transform="translate(-638.94 -147.73)"/><path class="cls-7" d="M1013.3,351.07c-1.76-9.16-3.44-17.14-4.77-25.18-.48-3-2-4-4.65-4.34-6.62-.86-13.2-1.92-19.81-2.82-20-2.73-40-5.08-60.08-6.4-2.81-.18-3.94.3-3.89,3.54.2,11.33.09,22.67,0,34,0,2.84.55,3.17,3.11,1.84a30.21,30.21,0,0,1,25.57-1.48c1.82.69,3.67,1.3,6.54,2.3a26,26,0,0,0-15.37-10.64c-3.26-.9-6.64-1.42-9.95-2.17a2.35,2.35,0,0,1-1.5-.91c-.38-.88.53-1.32,1.12-1.69a13.86,13.86,0,0,1,7.23-1.83,32.8,32.8,0,0,1,23.82,9.36c-2.22-8.2-9.55-11-16.48-14.67a8.34,8.34,0,0,1,5.57-1.57c7.45.33,13.2,3.8,17.49,9.73,1.26,1.74,1.82,1.87,3.11,0a22.1,22.1,0,0,1,14.47-9.46c2.78-.52,5.67-.8,8.83,1.47-7.14,3-13.57,6.21-17,13.59,2.25.13,3-1.26,4-2a31.5,31.5,0,0,1,20.48-6.43,14.74,14.74,0,0,1,6.21,1.43c.8.4,1.74.89,1.69,1.85s-1.23,1.12-2,1.3c-3.2.71-6.45,1.19-9.59,2.08-5.79,1.63-10.87,4.42-14.26,10C992.8,347.93,1002.51,346.39,1013.3,351.07Z" transform="translate(-638.94 -147.73)"/><path class="cls-7" d="M850.1,524a.26.26,0,0,0,.44-.17c0-8.12,0-93.17.07-135.56,0-3-1.11-3.47-3.73-3.44-10.08.14-20.16.06-30.24.06-7.94,0-7.94,0-8.4,7.71-.07,1.26-.18,2.51-.23,3.77-.93,25.16.2,50.09,7.24,74.5C821.29,491.84,834.21,508.37,850.1,524Z" transform="translate(-638.94 -147.73)"/><path class="cls-7" d="M905.51,471.14q0-41.19,0-82.38c0-2.33.12-4-3.21-3.93-9.83.23-19.66.16-29.48,0-2.51,0-3.16.76-3.16,3.21q.11,74.43,0,148.88a4.66,4.66,0,0,0,2.49,4.55,195.35,195.35,0,0,0,29.67,14.87c3,1.22,3.73.85,3.71-2.48C905.46,526.31,905.5,498.72,905.51,471.14Z" transform="translate(-638.94 -147.73)"/><path class="cls-7" d="M945.88,387.45c-6.33,5.31-8.2,12.7-9.66,20.34-.3,1.56.18,4.29-1.87,4.3s-2.24-2.7-2.78-4.46a9.41,9.41,0,0,1-.34-2.24,30.9,30.9,0,0,1,8.41-23.85c.75-.8,2-1.37,2-3.11a25,25,0,0,0-12,9.21c-2,2.72-3.7,5.69-5.59,8.52-.45.69-.89,1.76-1.95,1.42s-.88-1.44-.94-2.28a16.83,16.83,0,0,1,.93-7.06A31.31,31.31,0,0,1,939.57,370c1.46-.65,3.28-.89,4.49-2.55-7-1.26-13.58.64-21.21,5.61a5.77,5.77,0,0,0-2.94,5.53c.13,15.87.06,31.74.06,47.61q0,63.86-.05,127.71c0,3.13.48,3.92,3.68,2.6A195.7,195.7,0,0,0,955.81,540a6.62,6.62,0,0,0,3.49-6.34q-.19-56.3,0-112.6c0-3.57-.29-6.86-2.14-10.1-2.14-3.76-2.74-8.07-2.81-12.41,0-1,.28-2.12-.87-3.26a21.68,21.68,0,0,0-2.25,9.76c-.18,5.11,1.15,10,2.35,14.86.21.85.56,2-.15,2.52-1,.71-1.92-.21-2.65-.84-3-2.54-4.58-6-5.73-9.59-2.55-8.08-1.35-15.92,1.63-23.63.4-.43.77-1,.24-1.43S946.12,387.09,945.88,387.45Z" transform="translate(-638.94 -147.73)"/><path class="cls-7" d="M997.09,379.1c-.32-.07-.81-.32-.92-.2-.51.54,0,.83.41,1.11a32.39,32.39,0,0,1,9.73,19.95,20.1,20.1,0,0,1-1.23,10.38c-.4.89-.88,2.08-2,2s-1.24-1.45-1.39-2.37a68.05,68.05,0,0,0-2.52-11,24.65,24.65,0,0,0-8.81-12.49c1.16,3.95,2.36,7,2.92,10.1,1.58,8.94.31,17.32-5.85,24.43-.76.87-1.89,2.16-3.17,1.36-1.1-.68-.3-2.12,0-3.16,1.2-5,2.56-10,2.16-15.25-.23-3.14-.81-6.19-2.8-8.8,0,6.13-.84,12-3.8,17.28a11.9,11.9,0,0,0-1.53,6.08c0,30.75.11,95.16.12,102.46a.25.25,0,0,0,.45.16c3.38-4,25.19-30.28,30.37-46.78,10.14-32.25,10-65.22,6.91-98.4-.08-.86,0-1.8-.85-2.39-6.47-4.57-13.37-7.58-21.6-6a38.46,38.46,0,0,0,5.85,3.15,30.48,30.48,0,0,1,14.41,13.91,19.18,19.18,0,0,1,2.67,9.71c-.05,1.2.27,2.84-1.21,3.23-1.3.35-1.71-1.23-2.31-2.12-1.77-2.6-3.3-5.37-5.21-7.86C1005,383.85,1001.8,380.48,997.09,379.1Z" transform="translate(-638.94 -147.73)"/><path class="cls-2" d="M1037.67,415.05c-1.29,26.67-5.31,52.83-15.9,77.65C1012.67,514,997,529.8,979,543.61c-19.86,15.23-41.8,27.94-64,39.3a8.33,8.33,0,0,1-2.26.9v19a5,5,0,0,0,1-.42c27.29-13.73,54.13-29.24,78.08-48.3,16.39-13.05,31-27.66,40.55-46.7,10.75-21.47,16-44.45,18.93-68.06,3.52-28.37,3.31-56.82,1.32-85.26h0a585.2,585.2,0,0,0-7.78-62.57c-.51-2.86-1.7-4.09-4.54-4.45-6.87-.86-13.7-2-20.56-3-31.08-4.34-62.22-8.23-93.61-9.18q-6.72-.21-13.43-.2v16.42c27.68.31,53,2.82,78.32,5.78,11,1.29,22,2.95,33,4.18,3.91.44,5.73,1.77,6.45,6C1036.5,342.84,1039.42,378.8,1037.67,415.05Zm-125,168.76a3.93,3.93,0,0,1-2.66-.43c-27.27-14.1-52.77-30-76.1-50.17-22.61-19.52-34.43-44.8-40.46-73.35-6.11-28.93-7-58.19-5.67-87.6A544.3,544.3,0,0,1,795,306.21c.47-2.78,1.31-4.45,4.5-4.89,37.46-5.07,74.95-9.68,110.4-10.23l2.83,0V274.69c-43,0-85.46,6.28-127.94,12.44-2.92.42-3.61,2.08-4,4.51a614.46,614.46,0,0,0-9,98.06c-.1,22.51,1.53,49.35,7.34,75.84,6.8,31,20,58.4,44.49,79.67,26.63,23.15,55.83,41.26,87.08,57.29a2.64,2.64,0,0,0,2,.3Z" transform="translate(-638.94 -147.73)"/></svg>