<svg id="Capa_1" data-name="Capa 1" xmlns="http://www.w3.org/2000/svg" viewBox="0 0 595.34 717.64"><defs><style>.cls-1{fill:none;stroke:#ffe200;stroke-miterlimit:10;stroke-width:20.06px;}.cls-2{fill:#fff;}.cls-3{fill:#005390;}.cls-4{fill:#ffe200;}.cls-5,.cls-6{fill:#1f140f;}.cls-6{font-size:71.11px;font-family:Rubik-Bold, Rubik;font-weight:700;}</style></defs><path class="cls-1" d="M483.16,188.85A100.52,100.52,0,0,1,489.09,146l6.38-21.42L452.62,74a299.77,299.77,0,0,1-68.83,22.79c-37.07,7.45-48.15,10.3-86.91,9.59-38.76.71-48.33-2.14-85.39-9.59A299.77,299.77,0,0,1,142.66,74l-42.85,50.6L106.19,146a100.49,100.49,0,0,1,5.92,42.85c-6.22,73-80,110.77-102.11,110.77v13c0,41.77,2.16,76.48,11.06,113.16C30,460.23,45.84,498.56,74,553.36,139.08,672.51,249,742.08,297.64,767.91c48.6-25.83,158.55-95.4,223.66-214.55,28.13-54.8,44-93.13,52.9-127.59,8.91-36.68,11.07-71.39,11.07-113.16v-13C563.16,299.62,489.39,261.85,483.16,188.85ZM398.53,414.79A373.19,373.19,0,0,1,297.64,538.28a372.38,372.38,0,0,1-141-282.12l.61-73.92A249.27,249.27,0,0,0,216,207.77a250,250,0,0,0,77.5,9.57h8.2a250,250,0,0,0,77.49-9.57A249.09,249.09,0,0,0,438,182.24l.61,73.92A373.3,373.3,0,0,1,398.53,414.79Z" transform="translate(0.03 -61.63)"/><path class="cls-2" d="M433.33,309.64H10v3c0,41.77,2.16,76.48,11.06,113.16C30,460.23,45.84,498.56,74,553.36,139.08,672.51,249,742.08,297.64,767.91c48.6-25.83,158.55-95.4,223.66-214.55,28.13-54.8,44-93.13,52.9-127.59,8.91-36.68,11.07-71.39,11.07-113.16v-3Z" transform="translate(0.03 -61.63)"/><path class="cls-3" d="M483.16,188.85A100.52,100.52,0,0,1,489.09,146l6.38-21.42L452.62,74a299.77,299.77,0,0,1-68.83,22.79c-37.07,7.45-48.15,10.3-86.91,9.59-38.76.71-48.33-2.14-85.39-9.59A299.77,299.77,0,0,1,142.66,74l-42.85,50.6L106.19,146a100.49,100.49,0,0,1,5.92,42.85c-6.22,73-80,110.77-102.11,110.77v10H585.27v-10C563.16,299.62,489.39,261.85,483.16,188.85Z" transform="translate(0.03 -61.63)"/><path class="cls-1" d="M438,182.24a249.09,249.09,0,0,1-58.8,25.53,250,250,0,0,1-77.49,9.57h-8.2a250,250,0,0,1-77.5-9.57,249.27,249.27,0,0,1-58.8-25.53l-.61,73.92a372.38,372.38,0,0,0,141,282.12,372.33,372.33,0,0,0,141-282.12Z" transform="translate(0.03 -61.63)"/><path class="cls-3" d="M398.53,414.79a373.3,373.3,0,0,0,40.11-158.63L438,182.24a249.09,249.09,0,0,1-58.8,25.53,250,250,0,0,1-77.49,9.57h-4.1V538.28A373.19,373.19,0,0,0,398.53,414.79Z" transform="translate(0.03 -61.63)"/><path class="cls-4" d="M196.75,414.79a373.19,373.19,0,0,1-40.12-158.63l.61-73.92A249.27,249.27,0,0,0,216,207.77a250,250,0,0,0,77.5,9.57h4.1V538.28A373.19,373.19,0,0,1,196.75,414.79Z" transform="translate(0.03 -61.63)"/><polygon class="cls-5" points="260.06 248.32 260.06 252.57 270.77 258.96 270.77 434.11 261.66 432.7 261.75 437.66 284.66 460.57 292.43 460.55 292.43 450.25 286.35 450.25 286.35 337.59 350.43 337.59 350.43 316.96 348.12 316.96 340.6 325.39 286.35 325.39 286.35 260.78 352.82 260.78 360.27 274.57 367.18 274.57 367.18 248.32 260.06 248.32"/><path class="cls-5" d="M255.6,359.14c8-3.13,20.81-6.5,54.39-3.35a382.15,382.15,0,0,1,38.19,5.57l5.11,1.23,2.77,11.92,7.22.11V349.33l-53.51-6.68c-24.38-2.23-36.88-3.26-52.17.44-10.6,2.57-20.78,4.68-30.42,13.15-12.92,11.36-16.49,26.45-17.61,32.83l-.59,6.61.59,6.61c1.12,6.39,4.69,21.47,17.61,32.84,9.64,8.46,19.82,10.58,30.42,13.14,15.29,3.71,27.79,2.67,52.17.45L363.28,442V416.74l-7.22.11-2.77,11.92L348.18,430A376.34,376.34,0,0,1,310,435.57c-33.58,3.16-46.34-.22-54.39-3.34-10.41-4-15.11-8.52-17.32-10.92-8.61-9.36-10.25-20.65-10.65-25.63.4-5,2-16.27,10.65-25.62C240.49,367.66,245.19,363.18,255.6,359.14Z" transform="translate(0.03 -61.63)"/><text class="cls-6" transform="translate(161.17 227.05) scale(0.96 1)">MARINO</text></svg>