<svg id="Capa_1" data-name="Capa 1" xmlns="http://www.w3.org/2000/svg" viewBox="0 0 557.42 806.11"><defs><style>.cls-1,.cls-6{fill:#dfac48;}.cls-2{fill:#010101;}.cls-3{fill:#fff;}.cls-4{fill:#1d1d1b;}.cls-5{fill:none;}.cls-6,.cls-7{fill-rule:evenodd;}.cls-7{fill:#af8755;}</style></defs><path class="cls-1" d="M560.84,205H438.14C389,186.38,340,162.34,297.64,124.65c-42.41,37.69-91.33,61.73-140.51,80.37H34.43V188.94l27.75-9c86.69-27.67,175.72-56.9,235.46-136.1C357.36,123.05,446.4,152.28,533.09,180l27.75,9V205Zm-362.92,0c34.7-15.41,68.64-34.45,99.72-60,31.08,25.59,65,44.62,99.72,60Zm362.92,39.33h-44l-.42-.61-.86.61H34.44V220.53h526.4v23.82Zm0,398.4c0,31.49-70.86,63.55-133.36,91.85-47,21.26-95.24,43.23-129.84,69.63-34.6-26.4-82.86-48.37-129.83-69.63-62.52-28.3-133.37-60.36-133.37-91.85V603.27l486-343.41h40.39V642.75Zm-526.4-137V259.86h348l-348,245.89Zm0,19L409.32,259.86h84.25L34.44,584.28V524.73ZM297.64,17.89C233.61,118.75,124,142.56,18.93,177.66V642.75c0,70.11,197.49,111.15,278.71,181.25,81.22-70.1,278.71-111.14,278.71-181.25V177.66c-105.11-35.1-214.69-58.91-278.71-159.77Z" transform="translate(-18.93 -17.89)"/><path class="cls-2" d="M130.07,535.7,34.44,603.27v39.48c0,25.22,45.43,50.8,95.63,74.51V535.7Z" transform="translate(-18.93 -17.89)"/><path class="cls-3" d="M246.34,453.54,130.07,535.7V717.26c12.49,5.91,25.28,11.7,37.73,17.34,26.71,12.09,53.75,24.44,78.54,37.67V453.54Z" transform="translate(-18.93 -17.89)"/><path class="cls-2" d="M246.34,772.27c18.81,10,36.37,20.57,51.3,32,14.93-11.39,32.48-21.93,51.29-32V381.05L246.34,453.54V772.27Z" transform="translate(-18.93 -17.89)"/><path class="cls-3" d="M348.93,381.05V772.27c24.8-13.23,51.83-25.58,78.55-37.67,12.45-5.64,25.24-11.43,37.73-17.34V298.89L348.93,381.05Z" transform="translate(-18.93 -17.89)"/><path class="cls-2" d="M465.21,298.89V717.26c50.2-23.71,95.63-49.29,95.63-74.51V259.86H520.45l-55.24,39Z" transform="translate(-18.93 -17.89)"/><path class="cls-3" d="M409.32,259.86,34.44,524.73v59.55L493.57,259.86Z" transform="translate(-18.93 -17.89)"/><path class="cls-3" d="M34.44,505.75l348-245.89h-348V505.75Z" transform="translate(-18.93 -17.89)"/><path class="cls-3" d="M560.84,220.53H34.44v23.82h526.4V220.53Z" transform="translate(-18.93 -17.89)"/><path class="cls-3" d="M197.92,205H397.36c-34.71-15.42-68.64-34.45-99.72-60-31.08,25.59-65,44.63-99.72,60Z" transform="translate(-18.93 -17.89)"/><path class="cls-2" d="M116.39,162c-18,6.35-36.14,12.21-54.21,18l-27.75,9V205h82V162Z" transform="translate(-18.93 -17.89)"/><path class="cls-3" d="M198.47,126.71C172.28,140.82,144.58,152,116.39,162V205h40.74q20.77-7.87,41.34-17.29v-61Z" transform="translate(-18.93 -17.89)"/><path class="cls-2" d="M198.47,187.73a424.7,424.7,0,0,0,74.38-43.23V72.33c-22.37,22.42-47.57,39.91-74.38,54.37v61Z" transform="translate(-18.93 -17.89)"/><path class="cls-3" d="M297.64,43.85a273.06,273.06,0,0,1-24.8,28.42V144.5c8.45-6.21,16.78-12.72,24.8-19.85,8,7.13,16.34,13.64,24.79,19.85V72.28a270.92,270.92,0,0,1-24.79-28.43Z" transform="translate(-18.93 -17.89)"/><path class="cls-2" d="M322.43,144.5c23.63,17.36,48.7,31.41,74.38,43.23v-61c-26.81-14.46-52-31.95-74.38-54.37V144.5Z" transform="translate(-18.93 -17.89)"/><path class="cls-3" d="M396.81,126.71v61c13.66,6.29,27.48,12,41.33,17.29h40.75V162C450.7,152,423,140.82,396.81,126.71Z" transform="translate(-18.93 -17.89)"/><path class="cls-2" d="M478.89,162v43h82V188.94l-27.75-9c-18.06-5.77-36.22-11.63-54.2-18Z" transform="translate(-18.93 -17.89)"/><polygon class="cls-2" points="53.69 531.18 22.63 509.37 29.02 504.85 51.67 521.23 43.56 494.58 49.81 490.16 59.98 526.73 53.69 531.18"/><polygon class="cls-4" points="53.69 531.18 22.63 509.37 29.02 504.85 51.67 521.23 43.56 494.58 49.81 490.16 59.98 526.73 53.69 531.18"/><polygon class="cls-2" points="87.12 507.56 66.5 478.37 88.14 463.09 91.63 468.02 75.88 479.15 80.45 485.61 95.1 475.26 98.57 480.17 83.93 490.53 89.53 498.48 105.84 486.96 109.32 491.87 87.12 507.56"/><polygon class="cls-4" points="87.12 507.56 66.5 478.37 88.14 463.09 91.63 468.02 75.88 479.15 80.45 485.61 95.1 475.26 98.57 480.17 83.93 490.53 89.53 498.48 105.84 486.96 109.32 491.87 87.12 507.56"/><path class="cls-2" d="M158.11,472.56l7-2.22q2.05,5.71.65,10.19a16.87,16.87,0,0,1-18.48,10.58q-6.56-1.35-11.42-8.22-5.15-7.29-4.23-14a15.75,15.75,0,0,1,7-11,14.89,14.89,0,0,1,10.94-3,14.06,14.06,0,0,1,6.78,3.26l-4.85,5.52a7.37,7.37,0,0,0-9.61-.55,8.13,8.13,0,0,0-3.62,6q-.37,3.76,3.31,9,3.91,5.54,7.56,6.48a8,8,0,0,0,6.84-1.31,7.24,7.24,0,0,0,3-4.35,10.59,10.59,0,0,0-.89-6.42Z" transform="translate(-18.93 -17.89)"/><path class="cls-4" d="M158.11,472.56l7-2.22q2.05,5.71.65,10.19a16.87,16.87,0,0,1-18.48,10.58q-6.56-1.35-11.42-8.22-5.15-7.29-4.23-14a15.75,15.75,0,0,1,7-11,14.89,14.89,0,0,1,10.94-3,14.06,14.06,0,0,1,6.78,3.26l-4.85,5.52a7.37,7.37,0,0,0-9.61-.55,8.13,8.13,0,0,0-3.62,6q-.37,3.76,3.31,9,3.91,5.54,7.56,6.48a8,8,0,0,0,6.84-1.31,7.24,7.24,0,0,0,3-4.35,10.59,10.59,0,0,0-.89-6.42Z" transform="translate(-18.93 -17.89)"/><polygon class="cls-2" points="171.1 448.21 150.48 419.03 156.37 414.87 176.99 444.05 171.1 448.21"/><polygon class="cls-5" points="171.1 448.21 150.48 419.03 156.37 414.87 176.99 444.05 171.1 448.21"/><polygon class="cls-2" points="196.6 430.2 175.98 401.02 181.72 396.97 207.43 408.01 193.66 388.53 199.13 384.66 219.75 413.85 213.84 418.02 188.63 407.31 202.08 426.33 196.6 430.2"/><polygon class="cls-4" points="196.6 430.2 175.98 401.02 181.72 396.97 207.43 408.01 193.66 388.53 199.13 384.66 219.75 413.85 213.84 418.02 188.63 407.31 202.08 426.33 196.6 430.2"/><path class="cls-2" d="M247.43,389.19l13.66,19.33,4.4-3.11a19.58,19.58,0,0,0,3.37-2.79,6.68,6.68,0,0,0,1.52-2.9,7.61,7.61,0,0,0-.45-3.91,23.5,23.5,0,0,0-3.18-5.77,21.23,21.23,0,0,0-4.27-4.77,8.34,8.34,0,0,0-3.67-1.65,6.93,6.93,0,0,0-3.69.56,32.94,32.94,0,0,0-5,3.14l-2.65,1.87Zm-9.38-.77,10.77-7.61a25.65,25.65,0,0,1,6-3.37,12.05,12.05,0,0,1,6.3-.42,15.7,15.7,0,0,1,6.13,2.75A26.67,26.67,0,0,1,273,386a23.84,23.84,0,0,1,3.49,6.84,15.72,15.72,0,0,1,.51,7.37,12.61,12.61,0,0,1-2.49,5.25,21.57,21.57,0,0,1-4.78,4.3l-11.09,7.84-20.62-29.18Z" transform="translate(-18.93 -17.89)"/><path class="cls-4" d="M247.43,389.19l13.66,19.33,4.4-3.11a19.58,19.58,0,0,0,3.37-2.79,6.68,6.68,0,0,0,1.52-2.9,7.61,7.61,0,0,0-.45-3.91,23.5,23.5,0,0,0-3.18-5.77,21.23,21.23,0,0,0-4.27-4.77,8.34,8.34,0,0,0-3.67-1.65,6.93,6.93,0,0,0-3.69.56,32.94,32.94,0,0,0-5,3.14l-2.65,1.87Zm-9.38-.77,10.77-7.61a25.65,25.65,0,0,1,6-3.37,12.05,12.05,0,0,1,6.3-.42,15.7,15.7,0,0,1,6.13,2.75A26.67,26.67,0,0,1,273,386a23.84,23.84,0,0,1,3.49,6.84,15.72,15.72,0,0,1,.51,7.37,12.61,12.61,0,0,1-2.49,5.25,21.57,21.57,0,0,1-4.78,4.3l-11.09,7.84-20.62-29.18Z" transform="translate(-18.93 -17.89)"/><path class="cls-2" d="M309.16,364.62l-11.67-8,3.7,13.62,8-5.63Zm19,3.88L321.75,373l-7.22-4.83-11.68,8.24,2.28,8.34-6.25,4.41L289.62,352l6.24-4.4,32.3,20.93Z" transform="translate(-18.93 -17.89)"/><path class="cls-4" d="M309.16,364.62l-11.67-8,3.7,13.62,8-5.63Zm19,3.88L321.75,373l-7.22-4.83-11.68,8.24,2.28,8.34-6.25,4.41L289.62,352l6.24-4.4,32.3,20.93Z" transform="translate(-18.93 -17.89)"/><path class="cls-2" d="M339.09,335.53l4.36-3.08a28.21,28.21,0,0,0,5.05-4.1,4,4,0,0,0,.78-2.4,4.71,4.71,0,0,0-.95-2.62,4.34,4.34,0,0,0-2.47-1.82,4.43,4.43,0,0,0-3,.43c-.53.27-2,1.25-4.37,2.93l-4.6,3.25,5.23,7.41Zm6,21-20.62-29.18,12.41-8.76a25.77,25.77,0,0,1,7.34-4,8.17,8.17,0,0,1,5.37.4,10.21,10.21,0,0,1,4.53,3.7,9.52,9.52,0,0,1,1.9,6.79,11.31,11.31,0,0,1-3.86,6.77,16.78,16.78,0,0,1,4.88.22,41.28,41.28,0,0,1,6.71,2.37l7.58,3.18-7,5-8.74-3.33a51.32,51.32,0,0,0-6.14-2.1,5.52,5.52,0,0,0-2.63,0,11.84,11.84,0,0,0-3.2,1.77l-1.2.84L351,352.38l-5.89,4.15Z" transform="translate(-18.93 -17.89)"/><path class="cls-4" d="M339.09,335.53l4.36-3.08a28.21,28.21,0,0,0,5.05-4.1,4,4,0,0,0,.78-2.4,4.71,4.71,0,0,0-.95-2.62,4.34,4.34,0,0,0-2.47-1.82,4.43,4.43,0,0,0-3,.43c-.53.27-2,1.25-4.37,2.93l-4.6,3.25,5.23,7.41Zm6,21-20.62-29.18,12.41-8.76a25.77,25.77,0,0,1,7.34-4,8.17,8.17,0,0,1,5.37.4,10.21,10.21,0,0,1,4.53,3.7,9.52,9.52,0,0,1,1.9,6.79,11.31,11.31,0,0,1-3.86,6.77,16.78,16.78,0,0,1,4.88.22,41.28,41.28,0,0,1,6.71,2.37l7.58,3.18-7,5-8.74-3.33a51.32,51.32,0,0,0-6.14-2.1,5.52,5.52,0,0,0-2.63,0,11.84,11.84,0,0,0-3.2,1.77l-1.2.84L351,352.38l-5.89,4.15Z" transform="translate(-18.93 -17.89)"/><polygon class="cls-2" points="369.15 308.28 348.53 279.09 354.42 274.93 375.04 304.11 369.15 308.28"/><polygon class="cls-4" points="369.15 308.28 348.53 279.09 354.42 274.93 375.04 304.11 369.15 308.28"/><path class="cls-2" d="M407.93,290.24c2.34,3.31,4.86,5.27,7.6,5.9a9.09,9.09,0,0,0,7.61-1.55,9,9,0,0,0,4-6.63c.32-2.76-.72-5.82-3.12-9.21s-4.85-5.32-7.48-5.93a10,10,0,0,0-11.7,8.31q-.45,4.08,3.1,9.11ZM402,294.73a22.77,22.77,0,0,1-4-8.43,16.82,16.82,0,0,1-.11-5.92,13.88,13.88,0,0,1,1.92-5.29,19.57,19.57,0,0,1,5.47-5.6q6.45-4.56,13.15-3.29t11.74,8.38q5,7.08,4,13.78t-7.45,11.25q-6.53,4.59-13.16,3.34T402,294.73Z" transform="translate(-18.93 -17.89)"/><path class="cls-4" d="M407.93,290.24c2.34,3.31,4.86,5.27,7.6,5.9a9.09,9.09,0,0,0,7.61-1.55,9,9,0,0,0,4-6.63c.32-2.76-.72-5.82-3.12-9.21s-4.85-5.32-7.48-5.93a10,10,0,0,0-11.7,8.31q-.45,4.08,3.1,9.11ZM402,294.73a22.77,22.77,0,0,1-4-8.43,16.82,16.82,0,0,1-.11-5.92,13.88,13.88,0,0,1,1.92-5.29,19.57,19.57,0,0,1,5.47-5.6q6.45-4.56,13.15-3.29t11.74,8.38q5,7.08,4,13.78t-7.45,11.25q-6.53,4.59-13.16,3.34T402,294.73Z" transform="translate(-18.93 -17.89)"/><path class="cls-2" d="M72,405.58l4.89-3.46,15.31,21.67q3.56,5.06,4.83,6.45a9.32,9.32,0,0,0,4.43,3,5,5,0,0,0,4.25-.83,4.69,4.69,0,0,0,2-3,6.61,6.61,0,0,0-.54-3.87,56.24,56.24,0,0,0-5.11-8.07L86.5,395.36l4.91-3.47,14.85,21A92.46,92.46,0,0,1,113.85,425a13,13,0,0,1,1.24,7.84,9.76,9.76,0,0,1-4.32,6.38,10.75,10.75,0,0,1-7.22,2.35,12.8,12.8,0,0,1-6.76-3q-3.32-2.67-9.67-11.64L72,405.58Z" transform="translate(-18.93 -17.89)"/><path class="cls-4" d="M72,405.58l4.89-3.46,15.31,21.67q3.56,5.06,4.83,6.45a9.32,9.32,0,0,0,4.43,3,5,5,0,0,0,4.25-.83,4.69,4.69,0,0,0,2-3,6.61,6.61,0,0,0-.54-3.87,56.24,56.24,0,0,0-5.11-8.07L86.5,395.36l4.91-3.47,14.85,21A92.46,92.46,0,0,1,113.85,425a13,13,0,0,1,1.24,7.84,9.76,9.76,0,0,1-4.32,6.38,10.75,10.75,0,0,1-7.22,2.35,12.8,12.8,0,0,1-6.76-3q-3.32-2.67-9.67-11.64L72,405.58Z" transform="translate(-18.93 -17.89)"/><polygon class="cls-2" points="113.08 405.3 107.66 397.62 112.33 394.33 117.74 402 113.08 405.3"/><polygon class="cls-4" points="113.08 405.3 107.66 397.62 112.33 394.33 117.74 402 113.08 405.3"/><path class="cls-2" d="M234.54,300.89l18.73,26.51,3.67-2.6a8.82,8.82,0,0,0,3-3,5.55,5.55,0,0,0,.46-3,15.94,15.94,0,0,0-1.59-4.62A66.14,66.14,0,0,0,249,300.2a13.64,13.64,0,0,0-4.26-3,5.59,5.59,0,0,0-3.7-.28,17.05,17.05,0,0,0-4.23,2.45l-2.23,1.56Zm-9.67-3.31,8.95-6.32a12.54,12.54,0,0,1,5.84-2.59,11.84,11.84,0,0,1,5.62,1.2,25.58,25.58,0,0,1,6.74,4.7,57.63,57.63,0,0,1,7.64,9,50.88,50.88,0,0,1,5.49,9.63,25.71,25.71,0,0,1,2.09,7.63,11.48,11.48,0,0,1-.84,5.65,11.33,11.33,0,0,1-4,4.56l-9.21,6.51-28.27-40Z" transform="translate(-18.93 -17.89)"/><path class="cls-4" d="M234.54,300.89l18.73,26.51,3.67-2.6a8.82,8.82,0,0,0,3-3,5.55,5.55,0,0,0,.46-3,15.94,15.94,0,0,0-1.59-4.62A66.14,66.14,0,0,0,249,300.2a13.64,13.64,0,0,0-4.26-3,5.59,5.59,0,0,0-3.7-.28,17.05,17.05,0,0,0-4.23,2.45l-2.23,1.56Zm-9.67-3.31,8.95-6.32a12.54,12.54,0,0,1,5.84-2.59,11.84,11.84,0,0,1,5.62,1.2,25.58,25.58,0,0,1,6.74,4.7,57.63,57.63,0,0,1,7.64,9,50.88,50.88,0,0,1,5.49,9.63,25.71,25.71,0,0,1,2.09,7.63,11.48,11.48,0,0,1-.84,5.65,11.33,11.33,0,0,1-4,4.56l-9.21,6.51-28.27-40Z" transform="translate(-18.93 -17.89)"/><polygon class="cls-2" points="265.96 297.27 260.54 289.6 265.21 286.31 270.63 293.98 265.96 297.27"/><polygon class="cls-4" points="265.96 297.27 260.54 289.6 265.21 286.31 270.63 293.98 265.96 297.27"/><path class="cls-2" d="M268.31,191.72l4.82,1.49a10.78,10.78,0,0,1-3.68,6,10.4,10.4,0,0,1-6.52,2,10.52,10.52,0,0,1-8-3.34q-3.15-3.33-3.15-9.13,0-6.12,3.17-9.52a10.85,10.85,0,0,1,8.32-3.39,10.23,10.23,0,0,1,7.32,2.66,9.65,9.65,0,0,1,2.51,4.5l-4.92,1.18a5.14,5.14,0,0,0-1.82-3A5.19,5.19,0,0,0,263,180a5.59,5.59,0,0,0-4.44,2c-1.14,1.3-1.71,3.43-1.71,6.35q0,4.66,1.68,6.64a5.45,5.45,0,0,0,4.36,2,4.94,4.94,0,0,0,3.4-1.26,7.23,7.23,0,0,0,2.05-4Z" transform="translate(-18.93 -17.89)"/><polygon class="cls-2" points="258.54 182.86 258.54 158.6 263.51 158.6 263.51 178.69 275.8 178.69 275.8 182.86 258.54 182.86"/><path class="cls-2" d="M298.25,176.28h5v13.29a30.23,30.23,0,0,0,.17,4.1,4,4,0,0,0,1.5,2.43,5.11,5.11,0,0,0,3.22.91,4.89,4.89,0,0,0,3.13-.86,3.46,3.46,0,0,0,1.27-2.12,28.67,28.67,0,0,0,.21-4.17V176.28h5v12.88a32.82,32.82,0,0,1-.41,6.25,6.86,6.86,0,0,1-1.47,3.08,7.49,7.49,0,0,1-2.87,2,12.32,12.32,0,0,1-4.69.74,13.49,13.49,0,0,1-5.3-.81,7.46,7.46,0,0,1-2.85-2.11,6.78,6.78,0,0,1-1.39-2.72,30.16,30.16,0,0,1-.48-6.23V176.28Z" transform="translate(-18.93 -17.89)"/><path class="cls-2" d="M327.91,190.22v6.36h4.56a22.17,22.17,0,0,0,3.38-.15,3,3,0,0,0,1.79-1,2.85,2.85,0,0,0,.69-2,3.08,3.08,0,0,0-.53-1.82,3,3,0,0,0-1.54-1.09,17.47,17.47,0,0,0-4.37-.34Zm0-9.78v5.61h3.21c1.9,0,3.1,0,3.55-.08a3.25,3.25,0,0,0,2-.87,2.56,2.56,0,0,0,.72-1.89,2.69,2.69,0,0,0-.62-1.83,2.78,2.78,0,0,0-1.84-.85c-.49-.06-1.89-.09-4.18-.09Zm-5-4.16h9.75a28.18,28.18,0,0,1,4.32.24,6.15,6.15,0,0,1,4.42,3.08,5.62,5.62,0,0,1,.74,2.88,5.91,5.91,0,0,1-.9,3.18,5.74,5.74,0,0,1-2.48,2.17,6.5,6.5,0,0,1,3.43,2.2,5.9,5.9,0,0,1,1.18,3.67,7.2,7.2,0,0,1-.77,3.23,6.53,6.53,0,0,1-2.11,2.5,7.05,7.05,0,0,1-3.31,1.15c-.82.09-2.81.15-5.95.17h-8.32V176.28Z" transform="translate(-18.93 -17.89)"/><path class="cls-6" d="M171.13,283a57.26,57.26,0,0,1,46,66.49c-5.58,30.75-35.39,51.41-66.45,45.77A57.05,57.05,0,1,1,171.13,283Z" transform="translate(-18.93 -17.89)"/><path class="cls-7" d="M171.48,281h0A56.15,56.15,0,0,1,182,283.86l.34.14a59.42,59.42,0,0,1,27.28,21.58A58.58,58.58,0,0,1,219.86,343l-4-1.51a56,56,0,0,0-9.84-33.72,54.76,54.76,0,0,0-35.34-22.74h0c-1.34-.23-2.73-.49-3.93-.67-4.36,3-7,6.61-7.62,10.54-1,3.88-.11,8.36,2.34,13.37,16.25,1.53,27.43,6.91,35.77,15.12A62.16,62.16,0,0,1,208,338.49l-6.07-2.32a51.52,51.52,0,0,0-7.56-9.68c-7.72-7.64-18.06-12.64-33.29-14.22a20.17,20.17,0,0,0-3.24,7l-3.9-1.49a21.09,21.09,0,0,1,3.72-7.85c-2.77-5.75-3.77-10.93-2.64-15.74.64-3.73,2.72-7,5.64-10a55.17,55.17,0,0,0-29.32,8.55l0,.2-.07.48a14.82,14.82,0,0,0-.8,2.95q-1.46,6-2.35,11.51l-4-1.55c.53-3.11,1.21-6.32,2-9.55a57.81,57.81,0,0,0-7.59,7.42l-4.14-1.58a59.84,59.84,0,0,1,12.89-12.07,58.8,58.8,0,0,1,44.3-9.65Zm-42.77,53.11L124,332.24a41.82,41.82,0,0,1-.85-6,72.31,72.31,0,0,1,.91-19.85l4,1.55a71.43,71.43,0,0,0-.81,17.84,39.35,39.35,0,0,0,1.46,8.29Zm53,20.25-4.43-1.7a20.14,20.14,0,0,0-4-8.91,21.49,21.49,0,0,0-11.4-7.12,31.27,31.27,0,0,1-2.33,9.26l-4-1.51a26.68,26.68,0,0,0,2.31-9.65c-3-4.15-4.47-8.22-4.45-12.3a16.27,16.27,0,0,1,.48-4.56l3.9,1.49a12.3,12.3,0,0,0-.28,2.87,19.39,19.39,0,0,0,3.49,9.94c6.88,1.48,11.82,4.58,15.39,8.82a26.06,26.06,0,0,1,5.26,13.37Zm-78.18-29.9a59.09,59.09,0,0,1,10.8-21.75l4.14,1.58a54.08,54.08,0,0,0-10.94,21.7l-4-1.53ZM219.86,343a56.12,56.12,0,0,1-.84,6.8h0a59.11,59.11,0,0,1-5.63,16.61l-3.95-1.51a50.52,50.52,0,0,0,2.67-5.83h0c-3-8.82-6.21-16.49-10.21-22.93l6.07,2.32a132.59,132.59,0,0,1,6.22,14.3c.26-1.39.69-2.5.9-3.64h0a47.69,47.69,0,0,0,.82-7.62l4,1.5ZM134,344.69l-6.45-2.46a38.52,38.52,0,0,1-3.62-10l4.76,1.82A34.21,34.21,0,0,0,134,344.69Zm19.74,7.56-6.4-2.45a9.28,9.28,0,0,0,4.72-1.39,10.12,10.12,0,0,0,3.49-4.08l4,1.51a13.38,13.38,0,0,1-5.19,6.08,5.87,5.87,0,0,1-.57.33Zm43.13,16.49L189.72,366a22.41,22.41,0,0,0-8.61-4.89,15.27,15.27,0,0,1-.92,1.24l-4.14-1.58c.57-.78,1.16-1.59,1.75-2.42a33.14,33.14,0,0,0-.56-5.74l4.44,1.7c.12.82.16,1.72.2,2.62,5.88,1.8,10.12,4.7,13.22,8.86a17.83,17.83,0,0,1,1.79,2.95ZM102,332.46c.11-1.29.31-2.53.53-3.83h0c.27-1.44.59-2.87.95-4.22l4,1.53c-.31,1.09-.53,2.28-.77,3.46h0c-.26,1.55-.46,3.08-.61,4.62L102,332.46Zm111.38,34a60.77,60.77,0,0,1-4.27,7L205,371.85a50,50,0,0,0,4.42-6.92l3.94,1.51Zm-78.18-11L131.3,354a38.3,38.3,0,0,0,1.81-4,35.32,35.32,0,0,1-5.54-7.75l6.45,2.46c.59.78,1.19,1.51,1.82,2.19l.69.37c4.27,1.8,7.86,2.68,10.84,2.55l6.39,2.44c-4.25,2.46-9.8,2.27-16.9-.39-.54,1.28-1.07,2.52-1.65,3.61Zm38.36,14.68-4.33-1.65a62.4,62.4,0,0,0,6.81-7.72l4.14,1.58a69.91,69.91,0,0,1-6.62,7.79Zm-71.82-27.47a56.28,56.28,0,0,1,.26-10.21L106.1,334a56.38,56.38,0,0,0,0,10.31l-4.32-1.66Zm107.37,30.74a56.6,56.6,0,0,1-6.57,7.81l-7.36-2.81a19.3,19.3,0,0,0-3.4-10.13,18.83,18.83,0,0,0-2.07-2.28l7.18,2.74a25,25,0,0,1,2.33,9.78,53.22,53.22,0,0,0,5.8-6.67l4.09,1.56Zm-6.57,7.82a62.71,62.71,0,0,1-7.83,6.49,59,59,0,0,1-44.36,9.63h0a55.4,55.4,0,0,1-10.52-2.92l-.34-.13a59.69,59.69,0,0,1-37.75-51.63l4.33,1.66a54.69,54.69,0,0,0,3.59,15c5.59,3.4,10.22,4.29,14.13,2.58,2.8-1.13,5.32-3.81,7.5-7.95l3.9,1.5c-2.68,5.27-5.86,8.69-9.75,10.34s-8.18,1.62-12.8-.42a32,32,0,0,0,3.12,5.11,53.39,53.39,0,0,0,9.14,10.29,47.24,47.24,0,0,0,8.21.76,40.48,40.48,0,0,0,8.18-.19,46,46,0,0,0,27.93-12.87l4.33,1.66a51.8,51.8,0,0,1-31.81,15.36,54.56,54.56,0,0,1-8.88.3,2.72,2.72,0,0,0-1.23,0,59.08,59.08,0,0,0,19.47,7.39h0a55,55,0,0,0,41.06-8.84c1.11-.74,2.28-1.74,3.33-2.49l-.21,0c0-1.21,0-2.39-.11-3.47l7.37,2.82Z" transform="translate(-18.93 -17.89)"/></svg>