<svg id="Capa_1" data-name="Capa 1" xmlns="http://www.w3.org/2000/svg" viewBox="0 0 418.14 517.04"><defs><style>.cls-1{fill:#3a7c2f;}.cls-2,.cls-6,.cls-8{fill:#1d1d1b;}.cls-3{fill:#e63b24;}.cls-4{fill:#44a1da;}.cls-5{fill:#fefefe;}.cls-6,.cls-8{font-size:94.79px;stroke-width:3.39px;font-family:GillSansMT, Gill Sans MT;}.cls-11,.cls-6,.cls-8,.cls-9{stroke:#1d1d1b;stroke-miterlimit:10;}.cls-6{letter-spacing:-0.14em;}.cls-7{letter-spacing:-0.1em;}.cls-8{letter-spacing:0.02em;}.cls-9{fill:none;stroke-width:4px;}.cls-10,.cls-11{fill:#fff;}.cls-11{font-size:36.39px;stroke-width:0.85px;font-family:Arial-BoldMT, Arial;font-weight:700;}</style></defs><path class="cls-1" d="M250,504.29a4.26,4.26,0,0,1-3.14-1.39c-18-19.83-37.88-33.75-59.22-41.36-5.84-2.08-11-3.43-16.93-5a283.51,283.51,0,0,1-39.09-12.84C83.57,424.23,67,406,58.63,394c-5.86-8.48-16.76-24.25-12.48-42.32,3.27-13.82,13.83-22.54,15-23.49,2.65-2.1,6.58-4.56,17.33-8.3a186.8,186.8,0,0,1,20.85-5.92V156.45l-2.92-1.53c-26.81-14.23-43.73-28.61-47.65-40.5-4.58-13.91-1-24.32-.81-24.75,1.9-5.31,5.18-9.73,11.31-15.26C71.06,63.78,83.53,58.24,91.89,55c11.24-4.37,26.33-8.15,44.85-11.24A184.81,184.81,0,0,1,158,41.18a78.1,78.1,0,0,0,12.48-1.63c9.35-1.88,34.19-6.88,58.34-25.45a124.77,124.77,0,0,0,18-16.94A4.25,4.25,0,0,1,250-4.29a4.25,4.25,0,0,1,3.19,1.45,125.4,125.4,0,0,0,18,17c24.15,18.56,49,23.56,58.34,25.44A78.1,78.1,0,0,0,342,41.18a184.81,184.81,0,0,1,21.24,2.57c18.52,3.09,33.61,6.87,44.85,11.24,8.36,3.25,20.83,8.79,32.61,19.42,6.13,5.53,9.41,10,11.31,15.26.15.43,3.77,10.84-.81,24.75-3.92,11.89-20.84,26.27-47.66,40.5-.95.51-1.93,1-2.91,1.53V313.92a186.8,186.8,0,0,1,20.85,5.92c10.75,3.74,14.68,6.2,17.33,8.3,1.19.95,11.75,9.67,15,23.49,4.28,18.07-6.62,33.84-12.48,42.32-8.32,12-24.94,30.28-73,49.75a283.07,283.07,0,0,1-39.09,12.84c-6,1.57-11.09,2.92-16.93,5-21.34,7.61-41.26,21.53-59.22,41.36A4.26,4.26,0,0,1,250,504.29Z" transform="translate(-40.93 8.52)"/><path class="cls-2" d="M250,0a129.17,129.17,0,0,0,18.62,17.51c24.43,18.78,49.66,24.14,60.09,26.24,13.45,2.7,11.7.54,33.85,4.23,26.53,4.42,39.6,9.29,44,11,9.08,3.53,20.5,8.86,31.32,18.62C444,83,446.56,86.94,448,91.09c0,0,3.33,9.31-.84,22-3.54,10.73-20,24.5-45.62,38.08-1.68.89-3.4,1.79-5.16,2.68V317.34a185.35,185.35,0,0,1,23.69,6.49c10.81,3.76,14.13,6.07,16.08,7.62.61.48,10.57,8.6,13.55,21.16,3.76,15.91-5.76,30.12-11.85,38.93-7.6,11-23.28,28.86-71.1,48.24-28.5,11.55-39.93,12.09-55.85,17.78-17.59,6.27-38.94,18.2-60.94,42.5-22-24.3-43.35-36.23-60.94-42.5-15.92-5.69-27.35-6.23-55.85-17.78-47.82-19.38-63.5-37.25-71.1-48.24-6.09-8.81-15.61-23-11.85-38.93,3-12.56,12.94-20.68,13.55-21.16,2-1.55,5.27-3.86,16.08-7.62a185.35,185.35,0,0,1,23.69-6.49V153.86c-1.76-.89-3.48-1.79-5.16-2.68C72.81,137.6,56.34,123.83,52.8,113.1c-4.17-12.7-.84-22-.84-22,1.48-4.15,4.07-8,10.15-13.54,10.82-9.76,22.24-15.09,31.32-18.62,4.41-1.71,17.48-6.58,44-11,22.15-3.69,20.4-1.53,33.85-4.23,10.43-2.1,35.66-7.46,60.09-26.24A129.17,129.17,0,0,0,250,0m0-8.47a8.49,8.49,0,0,0-6.38,2.9,120.69,120.69,0,0,1-17.4,16.37c-23.37,18-47.51,22.82-56.6,24.65A73.94,73.94,0,0,1,157.71,37a186.08,186.08,0,0,0-21.66,2.62c-18.81,3.13-34.18,7-45.69,11.46-8.67,3.37-21.62,9.13-33.92,20.23-6.6,6-10.33,11-12.45,17h0a29.9,29.9,0,0,0-1.63,8.41,49.19,49.19,0,0,0,2.38,19.08c5.46,16.58,30,32.49,49.69,42.92l.67.35V310.56c-6.15,1.48-12.18,3.25-18,5.28-11.34,4-15.63,6.65-18.57,9-1.31,1-12.9,10.61-16.51,25.84-4.71,19.9,6.89,36.68,13.12,45.69,8.63,12.48,25.78,31.38,74.88,51.28a288.19,288.19,0,0,0,39.6,13c5.86,1.54,10.92,2.87,16.59,4.9,20.67,7.37,40,20.9,57.51,40.21a8.46,8.46,0,0,0,12.54,0c17.49-19.31,36.84-32.84,57.51-40.21,5.67-2,10.73-3.36,16.59-4.9a288.19,288.19,0,0,0,39.6-13c49.1-19.9,66.25-38.8,74.88-51.28,6.23-9,17.83-25.79,13.12-45.69-3.61-15.23-15.2-24.8-16.51-25.84-2.94-2.33-7.22-5-18.57-9-5.83-2-11.86-3.8-18-5.28V159l.67-.35c19.65-10.43,44.23-26.34,49.69-42.92,4.93-15,1.22-26.25.78-27.49-2.13-6-5.86-11-12.46-17-12.3-11.1-25.25-16.86-33.92-20.23-11.51-4.47-26.88-8.33-45.69-11.46A185.84,185.84,0,0,0,342.29,37a73.94,73.94,0,0,1-11.91-1.56c-9.09-1.83-33.23-6.69-56.6-24.65a120.69,120.69,0,0,1-17.4-16.37A8.49,8.49,0,0,0,250-8.52Z" transform="translate(-40.93 8.52)"/><path class="cls-3" d="M250,251.9H139.13v63.58a40,40,0,0,0,1.21,9.93,100.4,100.4,0,0,0,3.87,12c3.37,8.56,11.27,27.9,30.47,41.47,9.95,7,20.58,10.84,30.46,14.38,14.13,5.07,17.61,4.29,25.39,7.62A56.78,56.78,0,0,1,250,415a56.78,56.78,0,0,1,19.47-14.12c7.78-3.33,11.26-2.55,25.39-7.62,9.88-3.54,20.51-7.35,30.46-14.38,19.2-13.57,27.1-32.91,30.47-41.47a100.4,100.4,0,0,0,3.87-12,40,40,0,0,0,1.21-9.93V251.9Z" transform="translate(-40.93 8.52)"/><rect class="cls-4" x="209.07" y="158.85" width="110.87" height="50.78"/><rect class="cls-5" x="209.07" y="209.63" width="110.87" height="50.78"/><polygon class="cls-5" points="209.07 167.17 104.07 260.41 209.07 260.41 209.07 167.17"/><polygon class="cls-5" points="98.2 158.85 98.2 251.44 202.46 158.85 98.2 158.85"/><polygon class="cls-3" points="209.07 158.85 202.46 158.85 98.2 251.44 98.2 260.41 104.07 260.41 209.07 167.17 209.07 158.85"/><text class="cls-6" transform="translate(235.7 349.6)">F<tspan class="cls-7" x="31.2" y="0">.</tspan></text><text class="cls-8" transform="translate(121.08 349.6)">C<tspan class="cls-7" x="69.47" y="0">.</tspan></text><path class="cls-9" d="M250,251.9H139.13v63.58a40,40,0,0,0,1.21,9.93,100.4,100.4,0,0,0,3.87,12c3.37,8.56,11.27,27.9,30.47,41.47,9.95,7,20.58,10.84,30.46,14.38,14.13,5.07,17.61,4.29,25.39,7.62A56.78,56.78,0,0,1,250,415a56.78,56.78,0,0,1,19.47-14.12c7.78-3.33,11.26-2.55,25.39-7.62,9.88-3.54,20.51-7.35,30.46-14.38,19.2-13.57,27.1-32.91,30.47-41.47a100.4,100.4,0,0,0,3.87-12,40,40,0,0,0,1.21-9.93V251.9Z" transform="translate(-40.93 8.52)"/><rect class="cls-9" x="209.07" y="158.85" width="110.87" height="50.78"/><rect class="cls-9" x="209.07" y="209.63" width="110.87" height="50.78"/><polygon class="cls-9" points="202.46 158.85 98.2 158.85 98.2 251.44 98.2 260.41 104.07 260.41 209.07 260.41 209.07 167.17 209.07 158.85 202.46 158.85"/><path class="cls-2" d="M355.87,155.34V315.48a35.12,35.12,0,0,1-1.05,8.69,97.25,97.25,0,0,1-3.68,11.37c-2.83,7.18-10.33,26.24-28.7,39.22-9.4,6.65-19.5,10.27-29.27,13.77a125.07,125.07,0,0,1-14.92,4.39,58.11,58.11,0,0,0-10.75,3.34A60.44,60.44,0,0,0,250,407.87a60.44,60.44,0,0,0-17.5-11.61,58.11,58.11,0,0,0-10.75-3.34,125.07,125.07,0,0,1-14.92-4.39c-9.77-3.5-19.87-7.13-29.27-13.77-18.37-13-25.87-32-28.7-39.22a97.25,97.25,0,0,1-3.68-11.37,35.12,35.12,0,0,1-1.05-8.69V155.34H355.87m5-5H139.13V315.48a40,40,0,0,0,1.21,9.93,100.4,100.4,0,0,0,3.87,12c3.37,8.56,11.27,27.9,30.47,41.47,9.95,7,20.58,10.84,30.46,14.38,14.13,5.07,17.61,4.29,25.39,7.62A56.78,56.78,0,0,1,250,415a56.78,56.78,0,0,1,19.47-14.12c7.78-3.33,11.26-2.55,25.39-7.62,9.88-3.54,20.51-7.35,30.46-14.38,19.2-13.57,27.1-32.91,30.47-41.47a100.4,100.4,0,0,0,3.87-12,40,40,0,0,0,1.21-9.93V150.34Z" transform="translate(-40.93 8.52)"/><path class="cls-10" d="M292.2,139.33a32.26,32.26,0,0,1-30.68-22,32.36,32.36,0,0,1-23,0,32.38,32.38,0,0,1-61.17.54,32.37,32.37,0,1,1,20.52-41.68,32.4,32.4,0,0,1,21.49.55,32.37,32.37,0,0,1,61.36,0,32.4,32.4,0,0,1,21.49-.55,32.39,32.39,0,1,1,20.52,41.68A32.38,32.38,0,0,1,292.2,139.33Zm-25.11-24.78a26.23,26.23,0,0,0,50,.85,32.35,32.35,0,0,1-16.75-28.35,32.71,32.71,0,0,1,.38-4.92,26.2,26.2,0,0,0-18.59.62,31.38,31.38,0,0,1,.29,4.3A32.18,32.18,0,0,1,267.09,114.55ZM183,115.4a26.24,26.24,0,0,0,50-.85,32.17,32.17,0,0,1-15.29-27.5,31.38,31.38,0,0,1,.29-4.3,26.2,26.2,0,0,0-18.59-.62,32.71,32.71,0,0,1,.38,4.92A32.35,32.35,0,0,1,183,115.4Zm141.23-3.52A26.24,26.24,0,1,0,307.82,78.6,32.36,32.36,0,0,1,324.57,107,31.55,31.55,0,0,1,324.19,111.88Zm-84.31-.62a26.36,26.36,0,0,0,20.24,0,31.38,31.38,0,0,1-.29-4.3,32.16,32.16,0,0,1,15.29-27.5,26.24,26.24,0,0,0-50.24,0A32.16,32.16,0,0,1,240.17,107,31.38,31.38,0,0,1,239.88,111.26ZM167.34,60.81a26.24,26.24,0,1,0,8.47,51.07,31.55,31.55,0,0,1-.38-4.92A32.36,32.36,0,0,1,192.18,78.6,26.17,26.17,0,0,0,167.34,60.81ZM306.51,85c-.06.69-.09,1.39-.09,2.08a26.08,26.08,0,0,0,11.93,22c.06-.7.09-1.39.09-2.08A26.08,26.08,0,0,0,306.51,85Zm-113,0a26.08,26.08,0,0,0-11.93,22c0,.69,0,1.38.09,2.08a26.08,26.08,0,0,0,11.93-22C193.58,86.36,193.55,85.66,193.49,85Zm30.29,1.19c0,.29,0,.59,0,.89A26.33,26.33,0,0,0,234,107.85c0-.3,0-.59,0-.89A26.33,26.33,0,0,0,223.78,86.16Zm52.44,0A26.33,26.33,0,0,0,266,107c0,.3,0,.59,0,.89a26.33,26.33,0,0,0,10.26-20.8C276.24,86.75,276.23,86.45,276.22,86.16Z" transform="translate(-40.93 8.52)"/><path class="cls-2" d="M332.66,55.1a32,32,0,1,1-10.23,62.21,32,32,0,0,1-60.65-.57,31.83,31.83,0,0,1-23.56,0,32,32,0,0,1-60.65.57,31.95,31.95,0,1,1,20-40.61,31.92,31.92,0,0,1,22,.56,32,32,0,0,1,60.84,0,31.92,31.92,0,0,1,22-.56,31.94,31.94,0,0,1,30.22-21.6m0,58.61A26.66,26.66,0,1,0,307.31,78.8a31.93,31.93,0,0,1,16.41,33.36,26.49,26.49,0,0,0,8.94,1.55m-82.66,0a26.63,26.63,0,0,0,10.58-2.19,32.63,32.63,0,0,1-.33-4.56,31.93,31.93,0,0,1,15.36-27.31,26.66,26.66,0,0,0-51.22,0A31.93,31.93,0,0,1,239.75,107a32.63,32.63,0,0,1-.33,4.56A26.63,26.63,0,0,0,250,113.71m-82.66,0a26.49,26.49,0,0,0,8.94-1.55A31.93,31.93,0,0,1,192.69,78.8a26.66,26.66,0,1,0-25.35,34.91M292.2,133.62a26.66,26.66,0,0,0,25.35-18.42,31.93,31.93,0,0,1-16.41-33.36,26.68,26.68,0,0,0-19.52.65,32.63,32.63,0,0,1,.33,4.56,31.93,31.93,0,0,1-15.36,27.31,26.65,26.65,0,0,0,25.61,19.26m-84.4,0a26.65,26.65,0,0,0,25.61-19.26,31.93,31.93,0,0,1-15.36-27.31,32.63,32.63,0,0,1,.33-4.56,26.68,26.68,0,0,0-19.52-.65,31.93,31.93,0,0,1-16.41,33.36,26.66,26.66,0,0,0,25.35,18.42m110.91-23.85a26.17,26.17,0,0,0,.15-2.81,26.65,26.65,0,0,0-12.71-22.72,26,26,0,0,0-.15,2.81,26.66,26.66,0,0,0,12.71,22.72m-137.42,0A26.66,26.66,0,0,0,194,87.05a26,26,0,0,0-.15-2.81A26.65,26.65,0,0,0,181.14,107a26.17,26.17,0,0,0,.15,2.81m84.31-1.11a26.61,26.61,0,0,0,11.06-21.61c0-.57,0-1.14-.06-1.7A26.6,26.6,0,0,0,265.54,107c0,.57,0,1.14.06,1.7m-31.2,0c0-.56.06-1.13.06-1.7A26.6,26.6,0,0,0,223.4,85.35c0,.56-.06,1.13-.06,1.7a26.61,26.61,0,0,0,11.06,21.61m98.26-54.41a32.8,32.8,0,0,0-30.75,21.39,32.65,32.65,0,0,0-21,.52,32.8,32.8,0,0,0-61.88,0,32.65,32.65,0,0,0-21-.52,32.8,32.8,0,1,0-21,42.73,32.8,32.8,0,0,0,61.69-.52,32.85,32.85,0,0,0,22.52,0,32.8,32.8,0,0,0,61.69.52,32.8,32.8,0,1,0,9.71-64.12ZM308.34,78.41a25.81,25.81,0,1,1,16.32,33.18,32.67,32.67,0,0,0-16.32-33.18Zm-82.95.86a25.81,25.81,0,0,1,49.22,0A32.66,32.66,0,0,0,259.66,111a25.89,25.89,0,0,1-19.32,0,32.66,32.66,0,0,0-15-31.72Zm-58,33.59a25.82,25.82,0,1,1,24.32-34.45,32.67,32.67,0,0,0-16.32,33.18,25.84,25.84,0,0,1-8,1.27ZM282.54,83a25.95,25.95,0,0,1,17.66-.61,33.12,33.12,0,0,0-.33,4.64,32.75,32.75,0,0,0,16.66,28.55,25.81,25.81,0,0,1-48.94-.87,32.64,32.64,0,0,0,15-31.71Zm-82.74-.61a25.95,25.95,0,0,1,17.66.61,32.64,32.64,0,0,0,14.95,31.71,25.81,25.81,0,0,1-48.94.87,32.75,32.75,0,0,0,16.66-28.55,33.12,33.12,0,0,0-.33-4.64ZM318,108.28a25.63,25.63,0,0,1-11.13-21.23q0-.66,0-1.32A25.63,25.63,0,0,1,318,107q0,.66,0,1.32Zm-136,0q0-.66,0-1.32a25.63,25.63,0,0,1,11.13-21.23q0,.66,0,1.32A25.63,25.63,0,0,1,182,108.28Zm84.37-1.3v0A25.92,25.92,0,0,1,275.81,87v0A25.88,25.88,0,0,1,266.39,107Zm-32.78,0a25.88,25.88,0,0,1-9.42-19.93v0A25.92,25.92,0,0,1,233.61,107v0Z" transform="translate(-40.93 8.52)"/><text class="cls-11" transform="matrix(0.83, 0.55, -0.55, 0.83, 58.47, 408.88)">U</text><text class="cls-11" transform="translate(81.39 423.92) rotate(27.28)">N</text><text class="cls-11" transform="matrix(0.92, 0.39, -0.39, 0.92, 104.93, 435.74)">I</text><text class="cls-11" transform="translate(114.34 440.15) rotate(18.94)">O</text><text class="cls-11" transform="translate(142.33 449.63) rotate(12.5)">N</text><text class="cls-11" transform="translate(168.23 455.06) rotate(8.29)"> </text><text class="cls-11" transform="matrix(1, 0.07, -0.07, 1, 178.4, 456.83)">C</text><text class="cls-11" transform="translate(205.84 458.74) rotate(-2.3)">A</text><text class="cls-11" transform="translate(233.25 457.55) rotate(-8.54)">R</text><text class="cls-11" transform="translate(260.29 453.44) rotate(-14.56)">R</text><text class="cls-11" transform="matrix(0.95, -0.32, 0.32, 0.95, 285.76, 446.52)">I</text><text class="cls-11" transform="translate(295.32 443.51) rotate(-22.25)">Z</text><text class="cls-11" transform="translate(316.76 434.79) rotate(-27.99)">A</text><text class="cls-11" transform="matrix(0.83, -0.56, 0.56, 0.83, 340.73, 421.88)">L</text></svg>