<svg id="Capa_1" data-name="Capa 1" xmlns="http://www.w3.org/2000/svg" viewBox="0 0 563.25 569.68"><defs><style>.cls-1,.cls-9{fill:#df0a14;}.cls-13,.cls-2,.cls-5{fill:#1d1d1b;}.cls-11,.cls-14,.cls-3{fill:none;}.cls-10,.cls-11,.cls-12,.cls-13,.cls-3,.cls-4,.cls-5,.cls-6,.cls-7,.cls-8,.cls-9{stroke:#1d1d1b;}.cls-10,.cls-11,.cls-12,.cls-14,.cls-3,.cls-4,.cls-9{stroke-linejoin:round;}.cls-3,.cls-4{stroke-width:16.01px;}.cls-12,.cls-4,.cls-6,.cls-7{fill:#fff;}.cls-13,.cls-5,.cls-6,.cls-7,.cls-8{stroke-miterlimit:10;}.cls-10,.cls-11,.cls-12,.cls-5,.cls-9{stroke-width:3.69px;}.cls-6{stroke-width:1.11px;}.cls-7{stroke-width:0.32px;}.cls-8{stroke-width:0.16px;}.cls-10{fill:#2e2d2c;}.cls-13{font-size:76.35px;stroke-width:1.23px;font-family:Arial-BoldMT, Arial;font-weight:700;}.cls-14{stroke:#fff;stroke-width:2.46px;}</style></defs><path class="cls-1" d="M260.61,675.87c13.24,8.43,25.71,15.7,37,21.91,11.32-6.21,23.78-13.48,37-21.91,19.83-12.6,54.77-35.1,91-68.53h-256C205.85,640.77,240.79,663.27,260.61,675.87Z" transform="translate(-16.01 -136.1)"/><path class="cls-1" d="M101.8,531.2q5.31,7.31,10.41,13.78H483.07q5.06-6.43,10.32-13.67a424.23,424.23,0,0,0,30.53-48.69H190.47Z" transform="translate(-16.01 -136.1)"/><path class="cls-2" d="M297.5,424l-107,58.63H523.92a400.34,400.34,0,0,0,25.44-58.1c.49-1.41,1-2.83,1.45-4.26H304.31Z" transform="translate(-16.01 -136.1)"/><path class="cls-1" d="M304.31,420.26h246.5c1.76-5.29,3.46-10.69,5-16.24a393.4,393.4,0,0,0,10.2-46.12H418.14Z" transform="translate(-16.01 -136.1)"/><path class="cls-2" d="M571,274.16l-39,21.38L423,355.27l-4.81,2.63H566.05a425.87,425.87,0,0,0,5.18-62.36C571.31,288.17,571.22,281,571,274.16Z" transform="translate(-16.01 -136.1)"/><path class="cls-2" d="M453.54,579.41c7.7-8.38,18.1-19.85,29.53-34.43H112.21c11.43,14.58,21.82,26,29.53,34.43,9.23,10.05,18.61,19.35,27.91,27.93h256C434.93,598.76,444.31,589.46,453.54,579.41Z" transform="translate(-16.01 -136.1)"/><path class="cls-3" d="M571,274.16l-39,21.38L423,355.27l-4.81,2.63L304.31,420.26,297.5,424l-107,58.63L101.8,531.2q5.31,7.31,10.41,13.78c11.43,14.58,21.82,26,29.53,34.43,9.23,10.05,18.61,19.35,27.91,27.93,36.2,33.43,71.14,55.93,91,68.53,13.24,8.43,25.71,15.7,37,21.91,11.32-6.21,23.78-13.48,37-21.91,19.83-12.6,54.77-35.1,91-68.53,9.3-8.58,18.68-17.88,27.91-27.93,7.7-8.38,18.1-19.85,29.53-34.43q5.06-6.43,10.32-13.67a424.23,424.23,0,0,0,30.53-48.69,400.34,400.34,0,0,0,25.44-58.1c.49-1.41,1-2.83,1.45-4.26,1.76-5.29,3.46-10.69,5-16.24a393.4,393.4,0,0,0,10.2-46.12,425.87,425.87,0,0,0,5.18-62.36C571.31,288.17,571.22,281,571,274.16Z" transform="translate(-16.01 -136.1)"/><path class="cls-4" d="M419.19,222q-7.54-2.33-14.9-5.22c-43.79-17.4-79.9-47.42-79.9-47.42a295,295,0,0,1-26.75-25.25,295.24,295.24,0,0,1-26.76,25.25s-36.1,30-79.9,47.42c-4.15,1.65-8.37,3.13-12.63,4.5L299.43,287.6Z" transform="translate(-16.01 -136.1)"/><circle class="cls-5" cx="280.32" cy="92.17" r="32.51"/><path class="cls-6" d="M296.34,260.79a32.51,32.51,0,1,0-32.51-32.51A32.55,32.55,0,0,0,296.34,260.79Zm-10.54-2.57a31.88,31.88,0,0,1-14.45-10.39l3.89-3.29,8.22,2.33,4.93,7Zm-15.48-28.87L275.8,222l6.68,2.38L288,239.66l-4.5,6.44-8.35-2.37Zm18.65,24-4.81-6.83,4.5-6.45,15.19,0,5.44,5.41-5.13,7.62Zm18,4.8-2-4.9,5-7.45,8.2-2.5,3.54,4A31.89,31.89,0,0,1,307,258.17ZM322.26,210a31.57,31.57,0,0,1,5.8,17.11l-4.92.42-5.21-6.12-.31-9.31Zm.31,18-4.35,14.52-8.33,2.55-5.5-5.48,5.19-14.93,7.85-2.68Zm-5.41-6.73L309.3,224,297,214.32l.06-7.92,7.26-2.81,12.56,8.48Zm-20.82-24.74a31.75,31.75,0,0,1,8.55,1.18L303.74,203l-7.1,2.74-8.35-2.61-.35-5.45A31.48,31.48,0,0,1,296.34,196.53Zm-8.55,7.23,8.48,2.66,0,7.86-13.36,9.4L276,221.24l-.38-8.89Zm-12.88,8.93.37,8.71-5.56,7.48-5.12-1.17a31.55,31.55,0,0,1,5.93-17.88Z" transform="translate(-16.01 -136.1)"/><circle class="cls-2" cx="280.96" cy="92.17" r="16.2"/><polygon class="cls-7" points="288.37 103.48 293.87 108.96 302.21 106.42 306.55 91.9 301.42 85.87 293.56 88.56 288.37 103.48"/><polygon class="cls-7" points="301.15 85.16 300.84 75.97 288.28 67.48 281.02 70.29 280.96 78.22 293.29 87.85 301.15 85.16"/><polygon class="cls-7" points="272.65 103.99 268.14 110.43 272.95 117.27 288.14 117.05 293.27 109.44 287.84 104.02 272.65 103.99"/><polygon class="cls-7" points="266.47 88.25 259.79 85.86 254.31 93.24 259.17 107.62 267.52 109.99 272.02 103.55 266.47 88.25"/><polygon class="cls-7" points="266.85 87.58 280.2 78.18 280.26 70.31 271.77 67.66 259.64 76.24 260.02 85.14 266.85 87.58"/><path class="cls-8" d="M323.14,227.51l4.92-.42a31.57,31.57,0,0,0-5.8-17.11l-4.64,2.1.31,9.31Z" transform="translate(-16.01 -136.1)"/><path class="cls-8" d="M310,245.82l-5,7.45,2,4.9a31.89,31.89,0,0,0,14.75-10.89l-3.54-4Z" transform="translate(-16.01 -136.1)"/><path class="cls-8" d="M275.24,244.54l-3.89,3.29a31.88,31.88,0,0,0,14.45,10.39l2.59-4.34-4.93-7Z" transform="translate(-16.01 -136.1)"/><path class="cls-8" d="M296.64,205.73l7.1-2.74,1.15-5.28a31.54,31.54,0,0,0-16.95,0l.35,5.45Z" transform="translate(-16.01 -136.1)"/><path class="cls-8" d="M269.72,228.88l5.56-7.48-.37-8.71-4.38-2.86a31.55,31.55,0,0,0-5.93,17.88Z" transform="translate(-16.01 -136.1)"/><path class="cls-4" d="M178.35,221.28c-52,16.67-110.31,12.52-151,5.8-1.24,13.95-2.55,29.78-3.08,47.23C23.14,311.15,25.48,355.19,39.43,404c2.17,7.62,4.54,15,7,22.15L174,356.33,299.43,287.6Z" transform="translate(-16.01 -136.1)"/><path class="cls-9" d="M194.35,315c-4,2.93-4.66,3.71-7.95,5.88-3.87,2.56-5.8,3.83-8.61,4.55a19.39,19.39,0,0,1-9.26,0,19.39,19.39,0,0,0,9.26,0c2.81-.72,4.74-2,8.61-4.55,3.29-2.17,3.9-2.95,7.95-5.88a35,35,0,0,1-5.84-3.7c-3.81-3-5.39-5.5-9.75-10.72,0,0-5.86-7-11.69-12.66a80.91,80.91,0,0,0-6.79-5.87,24.75,24.75,0,0,0-3.93,3.27c-4.33,4.08-6.64,6.94-8.6,9.09-8.4,9.2-12,7-15.11,13.48-1.47,3.06-1.68,5.64-4.54,8.12-.29.25-.59.48-.9.7a21.53,21.53,0,0,1,3.17,4.82c2,4,8.79,9.67,29.09,17.52-20.3-7.85-27.09-13.55-29.09-17.52a21.53,21.53,0,0,0-3.17-4.82,21.47,21.47,0,0,1-5.11,2.55,14.82,14.82,0,0,1-6,1.3,14.25,14.25,0,0,1-5.85-1.62c-2.45-1.14-3.41-2.12-6.82-4.55-.9-.65-2.11-1.48-3.54-2.42-.13.26-.22.49-.28.63-1.6,3.94-6.4,7.36-6.9,7.72-.24.17-5.81,4.05-10.88,3.57a7.55,7.55,0,0,0-4.22.57,6.75,6.75,0,0,0-2.11,1.62c-2.42,2.66-8,6.37-14,10.39a64.78,64.78,0,0,1-12.67,6.82,59.08,59.08,0,0,1-21.16,4A393.29,393.29,0,0,0,39.43,404c2.17,7.62,4.54,15,7,22.15L174,356.33l57-31.22a83,83,0,0,1-12.9-12.84c-1.7-2.12-3.2-4.23-4.56-6.29a10.16,10.16,0,0,0-1.93.12c-3.89.57-8.37,3.09-10.07,4.06a41.77,41.77,0,0,0-3.54,2.27" transform="translate(-16.01 -136.1)"/><path class="cls-10" d="M123.47,313.57A17.58,17.58,0,0,0,119,311.7c-2.47-.57-3.15,0-5.76-.65s-2.46-1.39-4.47-1.54-2.45.53-5.2.32a3.7,3.7,0,0,0-1.7.08,3.86,3.86,0,0,0-2,2c1.43.94,2.64,1.77,3.54,2.42,3.41,2.43,4.37,3.41,6.82,4.55a14.25,14.25,0,0,0,5.85,1.62,14.82,14.82,0,0,0,6-1.3,21.47,21.47,0,0,0,5.11-2.55A15.56,15.56,0,0,0,123.47,313.57Z" transform="translate(-16.01 -136.1)"/><path class="cls-10" d="M226.83,311.94c-6.31-4.4-10.14-5.88-13.33-6,1.36,2.06,2.86,4.17,4.56,6.29A83,83,0,0,0,231,325.11l7.15-3.92A95.24,95.24,0,0,0,226.83,311.94Z" transform="translate(-16.01 -136.1)"/><path class="cls-10" d="M189.16,300.9c-5.47-7.47-3.95-11.1-9.1-14.94a21.15,21.15,0,0,0-6-2.92c-3.69-1.37-8.64-3.2-13.15-1.3a5.71,5.71,0,0,0-.62.3,80.91,80.91,0,0,1,6.79,5.87c5.83,5.64,11.69,12.66,11.69,12.66,4.36,5.22,5.94,7.74,9.75,10.72a35,35,0,0,0,5.84,3.7l1.3-.94,2.31-1.62c-.45-.77-.93-1.57-1.5-2.44C193.28,305.1,191.89,304.63,189.16,300.9Z" transform="translate(-16.01 -136.1)"/><path class="cls-11" d="M160.28,282a5.71,5.71,0,0,1,.62-.3c4.51-1.9,9.46-.07,13.15,1.3a21.15,21.15,0,0,1,6,2.92c5.15,3.84,3.63,7.47,9.1,14.94,2.73,3.73,4.12,4.2,7.3,9.09.57.87,1,1.67,1.5,2.44a41.77,41.77,0,0,1,3.54-2.27c1.7-1,6.18-3.49,10.07-4.06a10.16,10.16,0,0,1,1.93-.12" transform="translate(-16.01 -136.1)"/><path class="cls-11" d="M198,312.43l-2.31,1.62-1.3.94" transform="translate(-16.01 -136.1)"/><path class="cls-12" d="M235.46,284.17c-.16-.49-.44-1-3.23-3.29-3.53-2.9-4-2.83-6-4.62-2.44-2.25-2.27-2.88-4.2-4.09a8.56,8.56,0,0,0-5.11-1.64,7.31,7.31,0,0,0-3.8,1.34,7.47,7.47,0,0,0-4.36-3.29,6.4,6.4,0,0,0-4.33.31c-1,.49-1.29,1.05-3,2.92-.67.71-1.28,1.32-1.8,1.83a6,6,0,0,0-2.28.3c-2,.66-3,2.16-4.27,4s-2.31,3.4-2.13,5.3c.22,2.29,1.95,3.78,2.93,4.63a8.15,8.15,0,0,0,4.2,2.13c2.91.4,4.15-1.46,5.66-.61s.65,2.61,2.44,4.14a5,5,0,0,0,4,1.16c1.78-.34,1.86-1.7,4.62-3.17a10.48,10.48,0,0,1,3.11-1.16c2.91-.52,4.11.82,5.72.19a3,3,0,0,0,1-.66,6.73,6.73,0,0,0,8.22.9C235,289.33,236.19,286.38,235.46,284.17Z" transform="translate(-16.01 -136.1)"/><path class="cls-12" d="M116.83,279.54c-.13-.29-.32-.59-2.5-2.37-1.45-1.19-2.17-1.78-3-2.32-1.77-1.16-2.65-1.74-3.6-1.82-1.7-.15-2.34.86-3.83.42-.33-.09-.59-.23-1.89-1.34-2.91-2.48-3.15-3.12-4.2-3.28a3.61,3.61,0,0,0-3,1c-1,1-.52,1.93-1.34,3.17-.92,1.4-2.33,1.4-3.89,2.19a8.24,8.24,0,0,0-2.75,2.32A5.54,5.54,0,0,1,90,280.82c.46,1.75-.64,2.87.12,3.72.57.62,1.35.24,4.75.42,2.45.14,3,.38,3.41.61.73.43.83.77,1.63,1.59a11.23,11.23,0,0,1,5.07-1.65c2.2-.12,3.76.53,7.25-.06,3.16-.53,4-1.41,4.32-1.95A4.2,4.2,0,0,0,116.83,279.54Z" transform="translate(-16.01 -136.1)"/><path class="cls-12" d="M86.86,277.54a10.86,10.86,0,0,0-2.25-.86,8.49,8.49,0,0,0-4.79.3,9.54,9.54,0,0,0-3.85-3,7,7,0,0,0-5.24-.43c-1.78.7-2.68,2.2-3.59,3.72a11.85,11.85,0,0,0-.82,1.63,7.28,7.28,0,0,0-5.09,1.54,10,10,0,0,0-2.13,3,13.15,13.15,0,0,0-1.22,3.53,6.14,6.14,0,0,0-.18,3.17A5,5,0,0,0,60.56,293a8.57,8.57,0,0,0,2.62.31c3,.22,4.46.35,5.48,1.15s.5,1.13,1.64,2.62c.5.65,2.47,3.21,5.06,3.05a4.87,4.87,0,0,0,2.74-1.22c1.59-1.34,1.25-2.68,2.55-3.59,1.14-.8,2.23-.38,3.84-.43a9.33,9.33,0,0,0,3.13-.67A38.76,38.76,0,0,0,91.49,296c3.14,1.25,4.71,1.87,5.91,1.76a6.86,6.86,0,0,0,5.12-3c.82-1.37,1.37-3.58.42-5.06-.49-.77-.9-.57-2.49-2-.23-.2-.41-.38-.57-.54" transform="translate(-16.01 -136.1)"/><path class="cls-12" d="M99.88,287.16c-.8-.82-.9-1.16-1.63-1.59-.39-.23-1-.47-3.41-.61-3.4-.18-4.18.2-4.75-.42-.76-.85.34-2-.12-3.72a5.54,5.54,0,0,0-3.11-3.28" transform="translate(-16.01 -136.1)"/><path class="cls-4" d="M567.93,227.08c-40.1,6.62-97.3,10.75-148.74-5.08L299.43,287.6,174,356.33,46.48,426.17a410.58,410.58,0,0,0,55.32,105L297.5,424,423,355.27,571,274.16C570.47,256.77,569.16,241,567.93,227.08Z" transform="translate(-16.01 -136.1)"/><text class="cls-13" transform="translate(108.85 348.81) rotate(-28.79)"> </text><text class="cls-13" transform="translate(127.43 338.6) rotate(-28.79)">U</text><text class="cls-13" transform="matrix(0.88, -0.48, 0.48, 0.88, 175.76, 312.04)">.</text><text class="cls-13" transform="translate(194.36 301.83) rotate(-28.79)">D</text><text class="cls-13" transform="translate(242.69 275.27) rotate(-28.79)">.</text><text class="cls-13" transform="translate(261.28 265.06) rotate(-28.79)"> </text><text class="cls-13" transform="translate(279.86 254.85) rotate(-28.79)">G</text><text class="cls-13" transform="translate(331.92 226.24) rotate(-28.79)">U</text><text class="cls-13" transform="matrix(0.88, -0.48, 0.48, 0.88, 380.24, 199.7)">I</text><text class="cls-13" transform="translate(398.84 189.48) rotate(-28.79)">A</text><path class="cls-2" d="M297.64,172q6.9,6.49,14.17,12.53c1.57,1.31,39.14,32.26,85.21,50.57,29.36,11.67,63.82,17.58,102.41,17.58A425.76,425.76,0,0,0,550,249.54c2.7,37.44,3.68,90.27-13.11,149.07a384,384,0,0,1-49.16,106.26c-19.26,29.15-38.42,50-48.71,61.21-44.33,48.26-92,78.59-114.94,93.17-8.64,5.49-17.5,10.83-26.45,16-9-5.12-17.82-10.46-26.45-16-22.92-14.58-70.61-44.91-114.94-93.17C146,554.88,126.8,534,107.53,504.87A384,384,0,0,1,58.37,398.61C41.58,339.81,42.57,287,45.27,249.54a425.76,425.76,0,0,0,50.58,3.13c38.59,0,73-5.91,102.41-17.58,46.07-18.31,83.63-49.26,85.22-50.58,4.83-4,9.56-8.2,14.16-12.52m0-27.88a295.24,295.24,0,0,1-26.76,25.25s-36.1,30-79.9,47.42C160.51,228.88,127.09,233,95.85,233a425.05,425.05,0,0,1-68.5-5.89c-3.85,43.39-8.47,105,12.08,176.94,25.92,90.77,77.76,148.67,102.31,175.39,45.16,49.16,94,80.62,118.87,96.46,13.24,8.43,25.71,15.7,37,21.91,11.32-6.21,23.78-13.48,37-21.91,24.92-15.84,73.72-47.3,118.88-96.46,24.55-26.72,76.39-84.62,102.31-175.39,20.55-72,15.92-133.55,12.08-176.94a425.16,425.16,0,0,1-68.5,5.89c-31.24,0-64.67-4.09-95.14-16.19-43.79-17.4-79.9-47.42-79.9-47.42a295,295,0,0,1-26.75-25.25Z" transform="translate(-16.01 -136.1)"/><path class="cls-14" d="M567.93,227.08c-44,7.27-108.64,11.55-163.64-10.3-43.79-17.4-79.9-47.42-79.9-47.42a295,295,0,0,1-26.75-25.25,295.24,295.24,0,0,1-26.76,25.25s-36.1,30-79.9,47.42c-55,21.85-119.61,17.57-163.63,10.3-3.85,43.39-8.47,105,12.08,176.94,25.92,90.77,77.76,148.67,102.31,175.39,45.16,49.16,94,80.62,118.87,96.46,13.24,8.43,25.71,15.7,37,21.91,11.32-6.21,23.78-13.48,37-21.91,24.92-15.84,73.72-47.3,118.88-96.46,24.55-26.72,76.39-84.62,102.31-175.39C576.4,332.06,571.77,270.47,567.93,227.08Z" transform="translate(-16.01 -136.1)"/></svg>