<svg id="Capa_1" data-name="Capa 1" xmlns="http://www.w3.org/2000/svg" viewBox="0 0 316.82 463.47"><defs><style>.cls-1,.cls-5{fill:#fff;}.cls-12,.cls-2,.cls-4{fill:#5a61a9;}.cls-10,.cls-11,.cls-15,.cls-21,.cls-3{fill:none;}.cls-11,.cls-3,.cls-4{stroke:#5961a9;}.cls-21,.cls-3{stroke-linejoin:round;}.cls-11,.cls-3{stroke-width:5px;}.cls-10,.cls-11,.cls-17,.cls-4,.cls-5,.cls-6,.cls-7,.cls-8{stroke-miterlimit:10;}.cls-4{stroke-width:3px;}.cls-5{stroke:#5a61a9;}.cls-6{fill:#70b62c;}.cls-10,.cls-6,.cls-7{stroke:#6f672a;}.cls-6,.cls-7{stroke-width:0.53px;}.cls-7{fill:#cad85f;}.cls-8{fill:#e73925;stroke:#9d1215;stroke-width:0.47px;}.cls-9{fill:#6f672a;}.cls-10{stroke-width:1.4px;}.cls-12{font-size:36px;font-family:TwCenMT-CondensedExtraBold, Tw Cen MT Condensed Extra Bold;font-weight:800;letter-spacing:0.07em;}.cls-13{letter-spacing:0.1em;}.cls-14{letter-spacing:0.06em;}.cls-16{fill:#e1243c;}.cls-17,.cls-19{fill:#f8aa06;}.cls-17{stroke:#f3ab21;stroke-width:0.75px;}.cls-18{fill:#faf7e3;}.cls-20{fill:#f3ab21;}.cls-21{stroke:#f8aa06;stroke-width:6px;}.cls-22{fill:#5961a9;}</style></defs><path class="cls-1" d="M249,32.35a2.51,2.51,0,0,0-.46.16l-.11.06a2.07,2.07,0,0,0-.32.19.27.27,0,0,0-.08.07,2.61,2.61,0,0,0-.31.27l0,0a1.82,1.82,0,0,0-.29.38h0a3.93,3.93,0,0,0-.67-.19,3.38,3.38,0,0,0-.72-.07,4,4,0,0,0-3.43,2,3.94,3.94,0,0,0-2.57-1,4,4,0,0,0-4,3.57,4,4,0,0,0-6,3.37A4.19,4.19,0,0,0,224,45a4.39,4.39,0,0,0,.21,1.27h-.1a3.86,3.86,0,0,0-.9-1.07l-.16-.13-.3-.21c-.12-.08-.25-.14-.38-.21l-.27-.12a4.64,4.64,0,0,0-.53-.16l-.2,0a4.17,4.17,0,0,0-.71-.07,4,4,0,0,0-3.95,3.44,4,4,0,0,0-7,2.13,3.94,3.94,0,0,0-2-.57,4,4,0,0,0-4,4,3.5,3.5,0,0,0,.07.65,4.69,4.69,0,0,0-1.19-.18,4.48,4.48,0,0,0-4,6.57,4.48,4.48,0,0,0-3.24,7A5,5,0,0,0,192,75.27a5,5,0,0,0-2,4,5.27,5.27,0,0,0,.09.89l0,.19a4.92,4.92,0,0,0,.24.77l.11.24c.09.18.18.35.28.52s.17.26.27.38.19.24.29.35a2.91,2.91,0,0,0,.3.31,4.22,4.22,0,0,0,.46.38h0a6.45,6.45,0,0,0-.82.54l-.1.07a8.06,8.06,0,0,0-1.41,1.39l-.07.09q-.25.33-.48.69l-.11.18a8.06,8.06,0,0,0-.42.83l0,0a8.88,8.88,0,0,0-.32.91l-.06.24c-.06.24-.11.48-.15.73a2.51,2.51,0,0,0,0,.27,8.26,8.26,0,0,0-.07,1,8,8,0,0,0,13.45,5.84,3.86,3.86,0,0,0,2.07,1,2.18,2.18,0,0,0,.62,1.26l1.32,1.32a2.07,2.07,0,0,0,1.7.59l.22,0c.41.49.83,1,1.25,1.55l.19.25c.37.48.73,1,1.1,1.47.19.25.37.52.55.78s.54.77.82,1.19c.4.61.8,1.25,1.2,1.91l.19.3.27.48c.25.43.5.85.73,1.27l.43.83c.16.3.33.61.48.91s.29.61.44.91.25.52.37.77.29.66.44,1l.27.64c.15.35.3.7.44,1l.19.49c.15.38.29.76.43,1.13l.12.31q.22.63.42,1.23l0,.11c.15.44.29.88.42,1.3l-.16.14c-1.25,1.15-2.25,2.19-3,3a103.11,103.11,0,0,0-10,13c-1.66,2.42-2.64,4-3.78,5.47a26.61,26.61,0,0,1-2.22,2.53,37.43,37.43,0,0,1-10,7,41.77,41.77,0,0,1-17,4,53.17,53.17,0,0,1-24-5,42.18,42.18,0,0,1-11.58-8.51L94.6,182.86v.43c0,.67,0,1.34,0,2v0c0,.68,0,1.37,0,2.07v.12c0,.67,0,1.35,0,2v.32c0,.63,0,1.26,0,1.9,0,.16,0,.33,0,.49,0,.59,0,1.19,0,1.79l0,.81c0,.51,0,1,.05,1.52s0,.85,0,1.28,0,.74,0,1.12q.06,1.22.12,2.46c0,.32,0,.66,0,1l0,.41,0,.67c0,.19,0,.39,0,.59l0,.54c0,.24,0,.49,0,.74v.12c.05.7.1,1.45.15,2.22v.08l.09,1.19V209c.32,4,.78,8.75,1.48,14.26h0c.36,2.83.78,5.85,1.28,9l0,.16c.15.94.31,1.91.47,2.89l.09.57c.15.88.3,1.77.46,2.67,0,.21.07.41.11.62.18,1,.36,2,.56,3.08,0,.07,0,.14,0,.21.22,1.16.44,2.33.68,3.51a1.42,1.42,0,0,0,0,.2c.21,1.05.43,2.12.65,3.2.07.31.14.63.2,1,.18.84.37,1.7.56,2.56.08.38.17.76.25,1.14.19.85.39,1.7.59,2.56.08.36.16.73.25,1.09.25,1,.5,2.1.76,3.16.05.18.09.35.13.53.31,1.23.62,2.48.95,3.74l.27,1c.24.92.49,1.85.74,2.78l.38,1.37c.23.85.47,1.69.71,2.55l.42,1.43c.25.89.52,1.79.79,2.69l.38,1.28c.4,1.32.81,2.65,1.24,4s.88,2.73,1.33,4.08c.12.39.25.77.38,1.15.34,1,.68,2,1,3l.36,1c.94,2.67,1.89,5.27,2.85,7.82.08.22.17.44.26.67.43,1.13.86,2.24,1.29,3.34l.19.48q1.55,3.9,3.12,7.61l0,.08c.53,1.24,1.06,2.48,1.6,3.69h0c4.9,11.11,10,20.87,14.79,29.55l0,0q1.59,2.85,3.15,5.56l.1.18,1.41,2.43.15.26q1.47,2.52,2.9,4.91c.1.18.2.35.31.52.36.62.73,1.23,1.09,1.84l.35.57,1.28,2.15c27.24,45.43,55.44,74.39,63,82a402.69,402.69,0,0,0,39,34.46h0a402.69,402.69,0,0,0,39-34.46c7.56-7.61,35.76-36.57,63-82l1.28-2.15.35-.57c.36-.61.73-1.22,1.09-1.84.11-.17.21-.34.31-.52q1.43-2.38,2.9-4.91l.15-.26,1.41-2.43.1-.18q1.56-2.71,3.15-5.56l0,0c4.84-8.68,9.89-18.44,14.79-29.55h0c.54-1.21,1.07-2.45,1.6-3.69l0-.08q1.57-3.71,3.12-7.61l.19-.48c.43-1.1.86-2.21,1.29-3.34.09-.23.18-.45.26-.67,1-2.55,1.91-5.15,2.85-7.82l.36-1c.35-1,.69-2,1-3,.13-.38.26-.76.38-1.15.45-1.35.89-2.7,1.33-4.08s.84-2.68,1.24-4l.38-1.28c.27-.9.54-1.8.79-2.69l.42-1.43c.24-.86.48-1.7.71-2.55l.38-1.37c.25-.93.5-1.86.74-2.78l.27-1c.33-1.26.64-2.51.95-3.74,0-.18.08-.35.13-.53.26-1.06.51-2.11.76-3.16.09-.36.17-.73.25-1.09.2-.86.4-1.71.59-2.56.08-.38.17-.76.25-1.14.19-.86.38-1.72.56-2.56.06-.32.13-.64.2-1,.22-1.08.44-2.15.65-3.2a1.42,1.42,0,0,0,0-.2c.24-1.18.46-2.35.68-3.51,0-.07,0-.14,0-.21.2-1,.38-2.07.56-3.08,0-.21.07-.41.11-.62.16-.9.31-1.79.46-2.67l.09-.57c.16-1,.32-2,.47-2.89l0-.16c.5-3.19.92-6.21,1.28-9h0c.7-5.51,1.16-10.3,1.48-14.26v-.16l.09-1.19v-.08c.05-.77.1-1.52.15-2.22v-.12c0-.25,0-.5.05-.74s0-.37,0-.54,0-.4,0-.59l0-.67,0-.41c0-.35,0-.69.05-1q.06-1.25.12-2.46c0-.38,0-.74,0-1.12s0-.86,0-1.28,0-1,.05-1.52l0-.81c0-.6,0-1.2,0-1.79,0-.16,0-.33,0-.49,0-.64,0-1.27,0-1.9v-.32c0-.68,0-1.36,0-2v-.12c0-.7,0-1.39,0-2.07v0c0-.69,0-1.36,0-2v-.43l-41.82-41.1A42.18,42.18,0,0,1,352,150.27a53.17,53.17,0,0,1-24,5,41.77,41.77,0,0,1-17-4,37.43,37.43,0,0,1-10-7,26.61,26.61,0,0,1-2.22-2.53c-1.14-1.48-2.12-3.05-3.78-5.47a103.11,103.11,0,0,0-10-13c-.76-.8-1.76-1.84-3-3l-.16-.14c.13-.42.27-.86.42-1.3l0-.11q.19-.6.42-1.23l.12-.31c.14-.37.28-.75.43-1.13l.19-.49c.14-.35.29-.7.44-1l.27-.64c.15-.32.29-.65.44-1s.25-.51.37-.77.29-.61.44-.91.32-.61.48-.91l.43-.83c.23-.42.48-.84.73-1.27l.27-.48.19-.3c.4-.66.8-1.3,1.2-1.91.28-.42.55-.8.82-1.19s.36-.53.55-.78c.37-.51.73-1,1.1-1.47l.19-.25c.42-.54.84-1.06,1.25-1.55l.22,0a2.07,2.07,0,0,0,1.7-.59l1.32-1.32a2.18,2.18,0,0,0,.62-1.26,3.86,3.86,0,0,0,2.07-1A8,8,0,0,0,312,90.27a8.26,8.26,0,0,0-.07-1,2.51,2.51,0,0,0,0-.27c0-.25-.09-.49-.15-.73l-.06-.24a8.88,8.88,0,0,0-.32-.91l0,0a8.06,8.06,0,0,0-.42-.83l-.11-.18q-.22-.36-.48-.69l-.07-.09a8.06,8.06,0,0,0-1.41-1.39l-.1-.07a6.45,6.45,0,0,0-.82-.54h0a4.22,4.22,0,0,0,.46-.38,2.91,2.91,0,0,0,.3-.31c.1-.11.2-.23.29-.35s.18-.25.27-.38.19-.34.28-.52l.11-.24a4.92,4.92,0,0,0,.24-.77l0-.19a5.27,5.27,0,0,0,.09-.89,5,5,0,0,0-2-4,5,5,0,0,0-3.29-7.93,4.48,4.48,0,0,0-3.24-7,4.48,4.48,0,0,0-4-6.57,4.69,4.69,0,0,0-1.19.18,3.5,3.5,0,0,0,.07-.65,4,4,0,0,0-4-4,3.94,3.94,0,0,0-2,.57,4,4,0,0,0-7-2.13,4,4,0,0,0-4-3.44,4.17,4.17,0,0,0-.71.07l-.2,0a4.64,4.64,0,0,0-.53.16l-.27.12c-.13.07-.26.13-.38.21l-.3.21-.16.13a3.86,3.86,0,0,0-.9,1.07h-.1A4.39,4.39,0,0,0,276,45a4.19,4.19,0,0,0-6-3.81,4,4,0,0,0-6-3.37,4,4,0,0,0-4-3.57,3.94,3.94,0,0,0-2.57,1,4,4,0,0,0-3.43-2,3.38,3.38,0,0,0-.72.07,3.93,3.93,0,0,0-.67.19h0a1.82,1.82,0,0,0-.29-.38l0,0a2.61,2.61,0,0,0-.31-.27.27.27,0,0,0-.08-.07,2.07,2.07,0,0,0-.32-.19l-.11-.06a2.51,2.51,0,0,0-.46-.16" transform="translate(-91.59 -19.27)"/><path class="cls-2" d="M228.67,315.27V462c7.26,6.47,14.41,12.39,21.33,17.75V315.27Z" transform="translate(-91.59 -19.27)"/><path class="cls-2" d="M207.33,441.52V315.27H186v102.1C195,428.39,202.54,436.54,207.33,441.52Z" transform="translate(-91.59 -19.27)"/><path class="cls-2" d="M148,363.27c5.58,9.3,11.19,17.9,16.67,25.78V315.27H143.33v40.16Q145.75,359.51,148,363.27Z" transform="translate(-91.59 -19.27)"/><path class="cls-3" d="M250,479.73a402.69,402.69,0,0,1-39-34.46c-7.56-7.61-35.76-36.57-63-82-7.64-12.75-16.83-28.23-25.55-48H250Z" transform="translate(-91.59 -19.27)"/><path class="cls-3" d="M97,223.27H250v92H122.45a325.75,325.75,0,0,1-12.45-33A337.32,337.32,0,0,1,97,223.27Z" transform="translate(-91.59 -19.27)"/><ellipse class="cls-4" cx="90.85" cy="249" rx="35.39" ry="37"/><path class="cls-5" d="M182.44,305.27c19.52,0,35.39-16.6,35.39-37s-15.87-37-35.39-37-35.39,16.59-35.39,37S162.93,305.27,182.44,305.27ZM171,302.35a34.88,34.88,0,0,1-15.74-11.84l4.24-3.74,8.95,2.65,5.37,8Zm-16.85-32.87,6-8.4,7.28,2.71,6,17.42-4.89,7.34-9.1-2.7Zm20.29,27.34-5.23-7.77,4.9-7.34,16.54,0,5.92,6.17L191,296.58Zm19.65,5.47-2.19-5.58,5.46-8.48,8.93-2.85,3.85,4.51A34.8,34.8,0,0,1,194.06,302.29Zm16.6-54.85A37,37,0,0,1,217,266.91l-5.35.48-5.67-7-.34-10.59ZM211,268l-4.73,16.53-9.07,2.89-6-6.23,5.65-17,8.55-3.06Zm-5.88-7.67-8.56,3.06-13.41-11,.06-9,7.91-3.2,13.67,9.66Zm-22.67-28.15a33.31,33.31,0,0,1,9.31,1.34l-1.25,6-7.73,3.12-9.09-3-.38-6.21A33.36,33.36,0,0,1,182.44,232.13Zm-9.31,8.23,9.24,3-.06,9L167.77,263l-7.44-2.77-.41-10.13Zm-14,10.16.4,9.91-6,8.52-5.57-1.33a37,37,0,0,1,6.45-20.36Z" transform="translate(-91.59 -19.27)"/><ellipse class="cls-2" cx="91.55" cy="249" rx="17.63" ry="18.44"/><polygon class="cls-5" points="99.61 261.87 105.6 268.11 114.67 265.21 119.4 248.68 113.81 241.83 105.27 244.88 99.61 261.87"/><polygon class="cls-5" points="113.52 241.02 113.19 230.56 99.52 220.9 91.61 224.1 91.55 233.11 104.96 244.08 113.52 241.02"/><polygon class="cls-5" points="82.49 262.44 77.59 269.78 82.83 277.56 99.36 277.32 104.95 268.65 99.03 262.49 82.49 262.44"/><polygon class="cls-5" points="75.77 244.53 68.49 241.82 62.52 250.21 67.82 266.58 76.92 269.28 81.81 261.95 75.77 244.53"/><polygon class="cls-5" points="76.18 243.77 90.72 233.07 90.78 224.11 81.54 221.09 68.33 230.87 68.75 240.99 76.18 243.77"/><path class="cls-2" d="M211.62,267.39l5.35-.48a37,37,0,0,0-6.31-19.47l-5,2.39.34,10.59Z" transform="translate(-91.59 -19.27)"/><path class="cls-2" d="M197.33,288.23l-5.46,8.48,2.19,5.58a34.8,34.8,0,0,0,16.05-12.4l-3.85-4.51Z" transform="translate(-91.59 -19.27)"/><path class="cls-2" d="M159.47,286.77l-4.24,3.74A34.88,34.88,0,0,0,171,302.35l2.82-5-5.37-8Z" transform="translate(-91.59 -19.27)"/><path class="cls-2" d="M182.77,242.6l7.73-3.12,1.25-6a33,33,0,0,0-18.45-.05l.38,6.21Z" transform="translate(-91.59 -19.27)"/><path class="cls-2" d="M153.46,269l6-8.52-.4-9.91-4.77-3.26a37,37,0,0,0-6.45,20.36Z" transform="translate(-91.59 -19.27)"/><path class="cls-3" d="M250,479.73a402.69,402.69,0,0,0,39-34.46c7.56-7.61,35.76-36.57,63-82,7.64-12.75,16.83-28.23,25.55-48H250Z" transform="translate(-91.59 -19.27)"/><path class="cls-6" d="M296.71,376.38a.35.35,0,0,1-.16.36,45.76,45.76,0,0,0-7.57,5.54,44.87,44.87,0,0,0-6,6.6.41.41,0,0,1-.7-.18,12.1,12.1,0,0,0-2.33-4,12.28,12.28,0,0,0-4.07-3.05.4.4,0,0,1-.1-.71,41.16,41.16,0,0,0,13.42-12.3.33.33,0,0,1,.38-.12,10,10,0,0,1,7.14,7.9Z" transform="translate(-91.59 -19.27)"/><path class="cls-6" d="M311.82,362.71a.36.36,0,0,1-.16.37,45.55,45.55,0,0,0-13.58,12.13.41.41,0,0,1-.7-.17A12.13,12.13,0,0,0,291,368a.41.41,0,0,1-.1-.71,41.46,41.46,0,0,0,13.42-12.3.32.32,0,0,1,.38-.12,9.95,9.95,0,0,1,7.14,7.89Z" transform="translate(-91.59 -19.27)"/><path class="cls-6" d="M281.7,389.94a.35.35,0,0,1-.15.37,45.24,45.24,0,0,0-7.57,5.53,46.63,46.63,0,0,0-6,6.6.4.4,0,0,1-.69-.17,12,12,0,0,0-2.33-4,12.14,12.14,0,0,0-4.07-3.05.41.41,0,0,1-.1-.72,41.26,41.26,0,0,0,7.08-5.11,40.7,40.7,0,0,0,6.33-7.18.36.36,0,0,1,.39-.13,9.92,9.92,0,0,1,4.74,3A9.76,9.76,0,0,1,281.7,389.94Z" transform="translate(-91.59 -19.27)"/><ellipse class="cls-7" cx="262.99" cy="399.69" rx="1.71" ry="5.41" transform="translate(-291.74 260.34) rotate(-42.12)"/><path class="cls-6" d="M304,384a.34.34,0,0,1-.16.36,45.72,45.72,0,0,0-13.58,12.14.41.41,0,0,1-.69-.18,12.19,12.19,0,0,0-6.41-7.09.4.4,0,0,1-.09-.71,41.27,41.27,0,0,0,13.41-12.3.34.34,0,0,1,.38-.12A9.94,9.94,0,0,1,304,384Z" transform="translate(-91.59 -19.27)"/><path class="cls-6" d="M319.08,370.36a.34.34,0,0,1-.16.37,45.88,45.88,0,0,0-13.58,12.13.4.4,0,0,1-.69-.18,12.27,12.27,0,0,0-6.41-7.09.4.4,0,0,1-.09-.71,40.84,40.84,0,0,0,7.07-5.11,41.58,41.58,0,0,0,6.34-7.18.34.34,0,0,1,.38-.13,10,10,0,0,1,7.14,7.9Z" transform="translate(-91.59 -19.27)"/><path class="cls-6" d="M289,397.59a.35.35,0,0,1-.16.36,46.78,46.78,0,0,0-7.57,5.54,46,46,0,0,0-6,6.6.41.41,0,0,1-.7-.18,12.21,12.21,0,0,0-6.4-7.09.41.41,0,0,1-.1-.71,41.42,41.42,0,0,0,7.08-5.11,42,42,0,0,0,6.34-7.18.34.34,0,0,1,.38-.13,10,10,0,0,1,7.14,7.9Z" transform="translate(-91.59 -19.27)"/><ellipse class="cls-7" cx="270.25" cy="407.33" rx="1.71" ry="5.41" transform="translate(-294.99 267.19) rotate(-42.12)"/><path class="cls-6" d="M311.63,392a.34.34,0,0,1-.16.36,45.76,45.76,0,0,0-13.58,12.14.42.42,0,0,1-.7-.18,12.13,12.13,0,0,0-6.4-7.09.41.41,0,0,1-.1-.71,41.42,41.42,0,0,0,7.08-5.11,42,42,0,0,0,6.34-7.18.33.33,0,0,1,.38-.13,10,10,0,0,1,7.14,7.9Z" transform="translate(-91.59 -19.27)"/><path class="cls-6" d="M326.74,378.32a.34.34,0,0,1-.16.37A45.72,45.72,0,0,0,313,390.83a.41.41,0,0,1-.69-.18,12.19,12.19,0,0,0-6.41-7.09.4.4,0,0,1-.09-.71,41.57,41.57,0,0,0,13.41-12.3.32.32,0,0,1,.38-.12,9.95,9.95,0,0,1,7.14,7.89Z" transform="translate(-91.59 -19.27)"/><path class="cls-6" d="M296.63,405.55a.36.36,0,0,1-.16.37,45.55,45.55,0,0,0-13.58,12.13.41.41,0,0,1-.7-.17,12,12,0,0,0-2.33-4,12.14,12.14,0,0,0-4.07-3,.41.41,0,0,1-.1-.72,41.27,41.27,0,0,0,13.42-12.29.32.32,0,0,1,.38-.12,10,10,0,0,1,7.14,7.89Z" transform="translate(-91.59 -19.27)"/><ellipse class="cls-7" cx="277.91" cy="415.3" rx="1.71" ry="5.41" transform="translate(-298.35 274.38) rotate(-42.12)"/><ellipse class="cls-8" cx="300.5" cy="352.69" rx="10.19" ry="12.12" transform="translate(-163.41 609.21) rotate(-86.1)"/><path class="cls-9" d="M299.66,346.44c-1.6.4-2.11,2.44-2.23,2.95s-.09.66-.12.66-.53-3.27.73-4c.49-.29,1-.08,1.07-.28s-1-.9-2.05-1.21c-.83-.25-1.34-.21-1.35-.31a2.67,2.67,0,0,1,2.15-.31c1.43.3,2.16,1.54,2.44,1.33s0-.83-.24-1.27c-.61-1.25-1.69-1.7-1.62-1.84a2.75,2.75,0,0,1,2.08.94c.63.62.78,1.25,1.1,1.21s.27-.64.76-1.28a2.44,2.44,0,0,1,1.93-1c.06.09-.43.34-1,1.09-.24.31-1.16,1.5-.79,2.23.11.24.26.23.49.44a3.11,3.11,0,0,1,.21,3.26c-.13,0-.06-.54-.46-1.18A3,3,0,0,0,299.66,346.44Z" transform="translate(-91.59 -19.27)"/><ellipse class="cls-8" cx="196.13" cy="342.27" rx="12.12" ry="9.99"/><path class="cls-9" d="M287,354.75a3.25,3.25,0,0,0-2.24,2.4c-.1.35-.09.53-.12.53s-.53-2.65.74-3.26c.48-.23,1-.07,1.07-.23s-1-.73-2.05-1c-.83-.2-1.34-.17-1.35-.25a3.13,3.13,0,0,1,2.14-.25c1.44.25,2.17,1.25,2.45,1.08s0-.67-.24-1c-.61-1-1.7-1.39-1.63-1.49a3.08,3.08,0,0,1,2.08.75c.64.51.79,1,1.11,1s.27-.52.76-1a2.64,2.64,0,0,1,1.93-.83c.05.07-.44.28-1,.88-.24.26-1.16,1.23-.8,1.82.12.19.27.19.49.35a2.14,2.14,0,0,1,.22,2.65c-.13,0-.07-.44-.46-.95A3.35,3.35,0,0,0,287,354.75Z" transform="translate(-91.59 -19.27)"/><ellipse class="cls-8" cx="275.12" cy="374.27" rx="10.12" ry="12.19" transform="translate(-279.69 320.37) rotate(-49.4)"/><path class="cls-9" d="M277.92,368.65c-1.54-.59-3.09.79-3.49,1.14s-.44.49-.46.47,1.39-3,2.85-2.87c.56,0,.88.52,1,.38s-.31-1.31-1-2.18c-.54-.67-1-.94-.93-1s1.17.16,1.94,1c1,1.08.91,2.52,1.26,2.51s.44-.69.51-1.19a7.87,7.87,0,0,0-.3-2.44,2.81,2.81,0,0,1,1.19,2c.17.88-.06,1.48.22,1.63s.59-.37,1.35-.61a2.45,2.45,0,0,1,2.16.27c0,.11-.55,0-1.44.31-.38.12-1.8.57-1.91,1.39,0,.26.09.34.16.64a3.08,3.08,0,0,1-1.65,2.81c-.11-.07.25-.49.28-1.24A3.12,3.12,0,0,0,277.92,368.65Z" transform="translate(-91.59 -19.27)"/><ellipse class="cls-8" cx="308.89" cy="365.52" rx="10.19" ry="12.12" transform="translate(-168.4 629.55) rotate(-86.1)"/><path class="cls-9" d="M308.06,359.28c-1.61.4-2.11,2.44-2.24,3s-.09.65-.12.65-.53-3.26.73-4c.49-.28,1-.08,1.08-.28s-1-.9-2.05-1.21c-.83-.24-1.35-.21-1.35-.31a2.67,2.67,0,0,1,2.14-.31c1.43.31,2.17,1.54,2.45,1.34s0-.83-.25-1.28c-.6-1.24-1.69-1.7-1.62-1.83a2.76,2.76,0,0,1,2.08.93c.64.62.78,1.25,1.1,1.21s.28-.64.77-1.27a2.42,2.42,0,0,1,1.93-1c.05.09-.44.35-1,1.09-.25.32-1.17,1.5-.8,2.24.12.23.27.23.49.43a3.1,3.1,0,0,1,.21,3.27c-.12,0-.06-.55-.45-1.18A3,3,0,0,0,308.06,359.28Z" transform="translate(-91.59 -19.27)"/><ellipse class="cls-8" cx="204.53" cy="354.04" rx="12.12" ry="9.99"/><path class="cls-9" d="M295.41,366.52a3.22,3.22,0,0,0-2.23,2.39c-.11.35-.09.54-.12.53s-.53-2.65.73-3.25c.49-.23,1-.07,1.07-.23s-1-.73-2.05-1c-.83-.2-1.34-.17-1.34-.26a3.18,3.18,0,0,1,2.14-.25c1.43.25,2.16,1.26,2.45,1.09s0-.67-.25-1c-.61-1-1.69-1.38-1.62-1.49a3.19,3.19,0,0,1,2.08.76c.63.51.78,1,1.1,1s.28-.51.77-1a2.63,2.63,0,0,1,1.92-.83c.06.07-.43.28-1,.88-.24.26-1.16,1.22-.79,1.82.11.19.27.18.49.35a2.12,2.12,0,0,1,.21,2.65c-.13,0-.06-.44-.46-1A3.33,3.33,0,0,0,295.41,366.52Z" transform="translate(-91.59 -19.27)"/><path class="cls-10" d="M297.19,344.61a6,6,0,0,1,3.16,2.93,18.78,18.78,0,0,0,3.54,6.2A28.81,28.81,0,0,0,307.1,357c.7.6,1.32,1.06,1.79,1.4" transform="translate(-91.59 -19.27)"/><path class="cls-10" d="M296.64,365.26a3.31,3.31,0,0,0-.55-2c-1-1.42-3-.83-3.86-2.23a2.45,2.45,0,0,1,.06-2,5.84,5.84,0,0,1,1.55-2.34c2.28-1.84,2-2,3.62-3.17a21.19,21.19,0,0,1,2.85-1.67l1.77-.59" transform="translate(-91.59 -19.27)"/><path class="cls-10" d="M280.76,368.06a16.32,16.32,0,0,1,3.81-4,56.9,56.9,0,0,0,5.14-3.73c1.21-1.05,1.5-1.45,1.6-2,.42-2.12-2.84-4.27-3.3-4.57" transform="translate(-91.59 -19.27)"/><line class="cls-10" x1="199.52" y1="339.61" x2="200.7" y2="339.7"/><rect class="cls-2" x="200.41" y="204" width="21" height="92"/><rect class="cls-2" x="242.41" y="204" width="21" height="92"/><rect class="cls-2" x="158.41" y="204" width="21" height="92"/><path class="cls-2" d="M376,223.27v92h1.55a325.75,325.75,0,0,0,12.45-33,337.32,337.32,0,0,0,13-59Z" transform="translate(-91.59 -19.27)"/><path class="cls-3" d="M403,223.27H250v92H377.55a325.75,325.75,0,0,0,12.45-33A337.32,337.32,0,0,0,403,223.27Z" transform="translate(-91.59 -19.27)"/><path class="cls-11" d="M405.4,183.27H94.6c0,5.41.06,11.45.4,18,.23,4.56.73,12.15,2,22H403c1.25-9.85,1.75-17.44,2-22C405.34,194.72,405.44,188.68,405.4,183.27Z" transform="translate(-91.59 -19.27)"/><text class="cls-12" transform="translate(41.35 196.38)">U<tspan class="cls-13" x="22.8" y="0">.</tspan><tspan class="cls-14" x="36.15" y="0">D</tspan><tspan class="cls-13" x="57.56" y="0">. JINAMAR</tspan></text><path class="cls-3" d="M405.4,182.86l-41.82-41.1A42.18,42.18,0,0,1,352,150.27a53.17,53.17,0,0,1-24,5,41.77,41.77,0,0,1-17-4,37.43,37.43,0,0,1-10-7,26.61,26.61,0,0,1-2.22-2.53c-14.63,9.07-27.25,14.57-35.78,16.53a83.76,83.76,0,0,1-13,1.85,83.76,83.76,0,0,1-13-1.85c-8.53-2-21.15-7.46-35.78-16.53a26.61,26.61,0,0,1-2.22,2.53,37.43,37.43,0,0,1-10,7,41.77,41.77,0,0,1-17,4,53.17,53.17,0,0,1-24-5,42.18,42.18,0,0,1-11.58-8.51L94.6,182.86v.41H405.4Z" transform="translate(-91.59 -19.27)"/><path class="cls-2" d="M232.34,148.32c-1.3-.28-2-.44-3.19-.78V132.46c-.75.09-1.11.14-1.83.25v-3.22c1.93-.46,2.94-.67,5-1Z" transform="translate(-91.59 -19.27)"/><path class="cls-2" d="M243.37,141.24a5.12,5.12,0,0,1-1.37.21,3.62,3.62,0,0,1-3.11-1.89,9.57,9.57,0,0,1-1.09-5,9.4,9.4,0,0,1,1.46-5.49,5.06,5.06,0,0,1,4-2.32,4,4,0,0,1,3.77,2.06,10.51,10.51,0,0,1,1.45,5.83,24.94,24.94,0,0,1-1.22,6.72,51.66,51.66,0,0,1-3.4,8.55c-1.62-.11-2.43-.18-4-.37A50.71,50.71,0,0,0,243.37,141.24Zm-.2-3.12c1,0,1.55-1.29,1.55-3.89,0-2.42-.52-3.61-1.55-3.57a1.38,1.38,0,0,0-1.31.93,8.79,8.79,0,0,0-.36,3,6.77,6.77,0,0,0,.39,2.68A1.35,1.35,0,0,0,243.17,138.12Z" transform="translate(-91.59 -19.27)"/><path class="cls-2" d="M261.89,129c-2.49,7.9-3.77,12.24-6.34,20.93-1.54.1-2.31.13-3.86.16,2.27-7.57,3.4-11.41,5.63-18.69-2.3-.09-3.48-.12-5.82-.13v-4.23a92.81,92.81,0,0,1,10.39.61Z" transform="translate(-91.59 -19.27)"/><path class="cls-2" d="M268,135.44a5.39,5.39,0,0,1,3.82,1.9,6,6,0,0,1,1.2,3.88,8,8,0,0,1-1.43,4.77,6.54,6.54,0,0,1-4,2.75,6.26,6.26,0,0,1-3.86-.41c.21-1.67.31-2.5.52-4.15a4.7,4.7,0,0,0,3.08,1,2.48,2.48,0,0,0,1.76-1.16,4.16,4.16,0,0,0,.65-2.4,2.74,2.74,0,0,0-.88-2.18,3.49,3.49,0,0,0-2.5-.76,10.78,10.78,0,0,0-1.6.17c.36-4.34.54-6.48.9-10.7a66.91,66.91,0,0,1,7,1.35v3.27c-1.69-.24-2.58-.34-4.4-.53C268.15,133.49,268.1,134.13,268,135.44Z" transform="translate(-91.59 -19.27)"/><path class="cls-15" d="M280,137.19c0,10.16-17.78,22.38-30,22.93-11.67.53-30-13.24-30-22.93s18.33-23.45,30-22.92C262.22,114.82,280,127.06,280,137.19Z" transform="translate(-91.59 -19.27)"/><path class="cls-11" d="M205,136.27c-1.66,2.42-2.64,4-3.78,5.47,14.63,9.07,27.25,14.57,35.78,16.53a83.76,83.76,0,0,0,13,1.85,83.76,83.76,0,0,0,13-1.85c8.53-2,21.15-7.46,35.78-16.53-1.14-1.48-2.12-3.05-3.78-5.47" transform="translate(-91.59 -19.27)"/><path class="cls-16" d="M277,66.27a4.92,4.92,0,0,1,.72-2.55,26.39,26.39,0,0,0-5.51-3.81,28.6,28.6,0,0,0-16-2.76,32.4,32.4,0,0,0-4.07.6,5,5,0,0,1,2.56,2.79,4.92,4.92,0,0,1-2.29,6.09,8,8,0,0,1,2.18,14.19,2.45,2.45,0,0,0,1.43.45c1.81-.11,3.5-2.81,4-5,.27-1.19.18-2.13,1-3a3.39,3.39,0,0,1,2-1,3.52,3.52,0,0,1,3,1c.52.54.72,1.14,1,3,.6,4,.09,5,1,6a3.4,3.4,0,0,0,3,1c1-.16,1.37-1.13,1.82-1.93a8,8,0,0,1,4.68-12.93c-.06-.13-.12-.27-.17-.4A4.85,4.85,0,0,1,277,66.27Z" transform="translate(-91.59 -19.27)"/><path class="cls-16" d="M301.39,82.71A5,5,0,0,1,300,79.27a4.85,4.85,0,0,1,.45-2,5.49,5.49,0,0,1,.57-1,5,5,0,0,1-2-3.55A19.54,19.54,0,0,0,296.64,71a20.13,20.13,0,0,0-10-2.78,5,5,0,0,1-2,2.32h0a8,8,0,0,1-2.71,13.19,7.44,7.44,0,0,1,.13,2.54,1.08,1.08,0,0,0,0,1c.41.63,1.94.54,3,0,1.48-.77,1.14-2,3-4,1.16-1.23,1.91-2,3-2,1.55,0,2.66,1.53,3,2a5.16,5.16,0,0,1,1,3,7.06,7.06,0,0,1-1,3c-.37.88-.19,1-.07,1.84s-.05.91.07,1.16c.26.56,1.29.34,2.39.44a7.89,7.89,0,0,1-.39-2.44A8,8,0,0,1,301.39,82.71Z" transform="translate(-91.59 -19.27)"/><path class="cls-16" d="M223,66.27a4.92,4.92,0,0,0-.72-2.55,26.39,26.39,0,0,1,5.51-3.81,28.6,28.6,0,0,1,16-2.76,32.4,32.4,0,0,1,4.07.6,5,5,0,0,0-2.56,2.79,4.92,4.92,0,0,0,2.29,6.09,8,8,0,0,0-2.18,14.19,2.45,2.45,0,0,1-1.43.45c-1.81-.11-3.5-2.81-4-5-.27-1.19-.18-2.13-1-3a3.39,3.39,0,0,0-2-1,3.52,3.52,0,0,0-3,1c-.52.54-.72,1.14-1,3-.6,4-.09,5-1,6a3.4,3.4,0,0,1-3,1c-1-.16-1.37-1.13-1.82-1.93a8,8,0,0,0-4.68-12.93c.06-.13.12-.27.17-.4A4.85,4.85,0,0,0,223,66.27Z" transform="translate(-91.59 -19.27)"/><path class="cls-16" d="M198.61,82.71A5,5,0,0,0,200,79.27a4.85,4.85,0,0,0-.45-2,5.49,5.49,0,0,0-.57-1,5,5,0,0,0,2-3.55A19.54,19.54,0,0,1,203.36,71a20.13,20.13,0,0,1,10-2.78,5,5,0,0,0,2,2.32h0a8,8,0,0,0,2.71,13.19,7.44,7.44,0,0,0-.13,2.54,1.08,1.08,0,0,1,0,1c-.41.63-1.94.54-3,0-1.48-.77-1.14-2-3-4-1.16-1.23-1.91-2-3-2-1.55,0-2.66,1.53-3,2a5.16,5.16,0,0,0-1,3,7.06,7.06,0,0,0,1,3c.37.88.19,1,.07,1.84s.05.91-.07,1.16c-.26.56-1.29.34-2.39.44a7.89,7.89,0,0,0,.39-2.44A8,8,0,0,0,198.61,82.71Z" transform="translate(-91.59 -19.27)"/><path class="cls-17" d="M254,26.27v-2h-3v-4h-2v4h-3v2h3v6.08a2.61,2.61,0,0,0-2,2.54v1.76a2.62,2.62,0,0,0,2.62,2.62h.76A2.62,2.62,0,0,0,253,36.65V34.89a2.61,2.61,0,0,0-2-2.54V26.27Z" transform="translate(-91.59 -19.27)"/><circle class="cls-18" cx="158.41" cy="55" r="4"/><path class="cls-16" d="M211,88.27a2,2,0,0,1,2,2,1.85,1.85,0,0,1-.15.74A2,2,0,0,1,211,92.27a2.14,2.14,0,0,1-.76-.15,2,2,0,0,1,.76-3.85Z" transform="translate(-91.59 -19.27)"/><path class="cls-16" d="M224,84.27a2,2,0,0,1,2,2,2,2,0,0,1-.13.68,2,2,0,0,1-3.21.79A2,2,0,0,1,224,84.27Z" transform="translate(-91.59 -19.27)"/><path class="cls-16" d="M238,82.27a2,2,0,0,1,2,2,1.74,1.74,0,0,1-.06.45,2,2,0,0,1-3.74.4,2,2,0,0,1-.2-.85A2,2,0,0,1,238,82.27Z" transform="translate(-91.59 -19.27)"/><circle class="cls-18" cx="129.41" cy="57" r="4"/><circle class="cls-18" cx="104.41" cy="71" r="4"/><path class="cls-16" d="M289,88.27a2,2,0,0,0-2,2,1.85,1.85,0,0,0,.15.74A2,2,0,0,0,289,92.27a2.14,2.14,0,0,0,.76-.15,2,2,0,0,0-.76-3.85Z" transform="translate(-91.59 -19.27)"/><path class="cls-16" d="M276,84.27a2,2,0,0,0-2,2,2,2,0,0,0,.13.68,2,2,0,0,0,3.21.79A2,2,0,0,0,276,84.27Z" transform="translate(-91.59 -19.27)"/><path class="cls-16" d="M262,82.27a2,2,0,0,0-2,2,1.74,1.74,0,0,0,.06.45,2,2,0,0,0,3.74.4,2,2,0,0,0,.2-.85A2,2,0,0,0,262,82.27Z" transform="translate(-91.59 -19.27)"/><circle class="cls-18" cx="187.41" cy="57" r="4"/><circle class="cls-18" cx="212.41" cy="71" r="4"/><path class="cls-19" d="M250,94.27c-16.44,0-31,3.64-39.87,9.21l5,8.4h0c5.12-5,18.78-8.61,34.83-8.61s29.71,3.59,34.83,8.61h0l5-8.4C281,97.91,266.44,94.27,250,94.27Z" transform="translate(-91.59 -19.27)"/><path class="cls-19" d="M304,82.27a8,8,0,0,0-8,8,7.89,7.89,0,0,0,.39,2.44c-1.1-.1-2.13.12-2.39-.44-.12-.25,0-.35-.07-1.16s-.3-1,.07-1.84a7.06,7.06,0,0,0,1-3,5.16,5.16,0,0,0-1-3c-.34-.47-1.45-2-3-2-1.09,0-1.84.77-3,2-1.86,2-1.52,3.23-3,4-1.06.54-2.59.63-3,0a1.08,1.08,0,0,1,0-1,7.44,7.44,0,0,0-.13-2.54,8,8,0,1,0-9.05-2.39c-.45.8-.84,1.77-1.82,1.93a3.4,3.4,0,0,1-3-1c-.91-1-.4-2-1-6-.28-1.86-.48-2.46-1-3a3.52,3.52,0,0,0-3-1,3.39,3.39,0,0,0-2,1c-.82.87-.73,1.81-1,3-.5,2.19-2.19,4.89-4,5a2.45,2.45,0,0,1-1.43-.45,8,8,0,1,0-9.14,0,2.45,2.45,0,0,1-1.43.45c-1.81-.11-3.5-2.81-4-5-.27-1.19-.18-2.13-1-3a3.39,3.39,0,0,0-2-1,3.52,3.52,0,0,0-3,1c-.52.54-.72,1.14-1,3-.6,4-.09,5-1,6a3.4,3.4,0,0,1-3,1c-1-.16-1.37-1.13-1.82-1.93a8,8,0,1,0-9.05,2.39,7.44,7.44,0,0,0-.13,2.54,1.08,1.08,0,0,1,0,1c-.41.63-1.94.54-3,0-1.48-.77-1.14-2-3-4-1.16-1.23-1.91-2-3-2-1.55,0-2.66,1.53-3,2a5.16,5.16,0,0,0-1,3,7.06,7.06,0,0,0,1,3c.37.88.19,1,.07,1.84s.05.91-.07,1.16c-.26.56-1.29.34-2.39.44a7.89,7.89,0,0,0,.39-2.44,8,8,0,1,0-2.55,5.84,3.86,3.86,0,0,0,2.07,1,2.25,2.25,0,0,0,.62,1.26l1.33,1.32a2,2,0,0,0,2.5.32c9.69-6,24.91-9.78,42-9.78s32.34,3.83,42,9.78a2,2,0,0,0,2.5-.32l1.33-1.32a2.25,2.25,0,0,0,.62-1.26,3.86,3.86,0,0,0,2.07-1A8,8,0,1,0,304,82.27Zm-108,12a4,4,0,1,1,4-4A4,4,0,0,1,196,94.27ZM212.85,91A2,2,0,0,1,211,92.27a2.14,2.14,0,0,1-.76-.15A2,2,0,1,1,213,90.27,1.85,1.85,0,0,1,212.85,91ZM217,76.27a4,4,0,1,1,4,4A4,4,0,0,1,217,76.27ZM225.87,87a2,2,0,0,1-3.21.79A2,2,0,1,1,226,86.27,2,2,0,0,1,225.87,87Zm14.07-2.23a2,2,0,0,1-3.74.4,2,2,0,0,1-.2-.85,2,2,0,1,1,4,0A1.74,1.74,0,0,1,239.94,84.72ZM250,78.27a4,4,0,1,1,4-4A4,4,0,0,1,250,78.27Zm13.8,6.85a2,2,0,0,1-3.74-.4,1.74,1.74,0,0,1-.06-.45,2,2,0,1,1,4,0A2,2,0,0,1,263.8,85.12Zm13.54,2.62a2,2,0,0,1-3.21-.79,2,2,0,0,1-.13-.68,2,2,0,1,1,3.34,1.47ZM279,80.27a4,4,0,1,1,4-4A4,4,0,0,1,279,80.27Zm10.76,11.85a2.14,2.14,0,0,1-.76.15A2,2,0,0,1,287.15,91a1.85,1.85,0,0,1-.15-.74,2,2,0,1,1,2.76,1.85ZM304,94.27a4,4,0,1,1,4-4A4,4,0,0,1,304,94.27Z" transform="translate(-91.59 -19.27)"/><path class="cls-19" d="M308,75.27a5,5,0,0,0-3.29-7.93,4.48,4.48,0,0,0-3.24-7,4.48,4.48,0,0,0-4-6.57,4.69,4.69,0,0,0-1.19.18,3.5,3.5,0,0,0,.07-.65,4,4,0,0,0-4-4,3.94,3.94,0,0,0-2,.57,4,4,0,0,0-7-2.13,4,4,0,1,0-.9,3.13,4,4,0,0,0,3.95,3.44,3.94,3.94,0,0,0,2-.58,4,4,0,0,0,4,3.58,3.94,3.94,0,0,0,.77-.08A4.41,4.41,0,0,0,297,62.7a4.39,4.39,0,0,0-.53,2.07,4.5,4.5,0,0,0,3.6,4.41,4.91,4.91,0,0,0-1.1,3.09,5,5,0,0,0,2,4,5,5,0,1,0,7-1Z" transform="translate(-91.59 -19.27)"/><circle class="cls-1" cx="213.41" cy="60" r="3"/><circle class="cls-1" cx="212.41" cy="53" r="3"/><circle class="cls-1" cx="209.41" cy="45.5" r="2.7"/><circle class="cls-1" cx="205.88" cy="38.98" r="2.7"/><circle class="cls-1" cx="200.75" cy="34.01" r="2.4"/><circle class="cls-1" cx="194.75" cy="31.01" r="2.4"/><circle class="cls-1" cx="187.75" cy="29.01" r="2.4"/><path class="cls-19" d="M283.71,61.59a5,5,0,0,0-3.16-8.27,5,5,0,0,0-4.55-7l-.21,0A4.39,4.39,0,0,0,276,45a4.22,4.22,0,0,0-4.22-4.22,4.31,4.31,0,0,0-1.79.41,4,4,0,0,0-4-3.94,4,4,0,0,0-2,.57,4,4,0,0,0-6.54-2.61,4,4,0,1,0-.84,5.07A3.93,3.93,0,0,0,262,41.69a4,4,0,0,0,4,3.58,4.08,4.08,0,0,0,1.57-.32s0,0,0,.07a4.21,4.21,0,0,0,3.89,4.19,5,5,0,0,0-.45,2.06,5,5,0,0,0,4.45,4.94A5,5,0,0,0,278.29,63a5,5,0,1,0,5.42-1.36Z" transform="translate(-91.59 -19.27)"/><circle class="cls-1" cx="190.41" cy="47" r="3"/><circle class="cls-1" cx="188.41" cy="39" r="3"/><circle class="cls-1" cx="184.41" cy="32" r="3"/><circle class="cls-1" cx="180.19" cy="25.76" r="2.53"/><path class="cls-1" d="M266,38.87a2.4,2.4,0,1,0,2.4,2.4A2.39,2.39,0,0,0,266,38.87Z" transform="translate(-91.59 -19.27)"/><path class="cls-1" d="M260,35.87a2.4,2.4,0,1,0,2.4,2.4A2.39,2.39,0,0,0,260,35.87Z" transform="translate(-91.59 -19.27)"/><path class="cls-1" d="M254,34.87a2.4,2.4,0,1,0,2.4,2.4A2.39,2.39,0,0,0,254,34.87Z" transform="translate(-91.59 -19.27)"/><path class="cls-19" d="M192,75.27a5,5,0,0,1,3.29-7.93,4.48,4.48,0,0,1,3.24-7,4.48,4.48,0,0,1,4-6.57,4.69,4.69,0,0,1,1.19.18,3.5,3.5,0,0,1-.07-.65,4,4,0,0,1,4-4,3.94,3.94,0,0,1,2,.57,4,4,0,0,1,7-2.13,4,4,0,1,1,.9,3.13,4,4,0,0,1-4,3.44,3.94,3.94,0,0,1-2-.58,4,4,0,0,1-4,3.58,3.94,3.94,0,0,1-.77-.08A4.41,4.41,0,0,1,203,62.7a4.39,4.39,0,0,1,.53,2.07,4.5,4.5,0,0,1-3.6,4.41,4.91,4.91,0,0,1,1.1,3.09,5,5,0,0,1-2,4,5,5,0,1,1-7-1Z" transform="translate(-91.59 -19.27)"/><circle class="cls-1" cx="103.41" cy="60" r="3"/><circle class="cls-1" cx="104.41" cy="53" r="3"/><circle class="cls-1" cx="107.41" cy="45.5" r="2.7"/><circle class="cls-1" cx="110.94" cy="38.98" r="2.7"/><circle class="cls-1" cx="116.07" cy="34.01" r="2.4"/><circle class="cls-1" cx="122.07" cy="31.01" r="2.4"/><circle class="cls-1" cx="129.07" cy="29.01" r="2.4"/><path class="cls-19" d="M216.29,61.59a5,5,0,0,1,3.16-8.27,5,5,0,0,1,4.55-7l.21,0A4.39,4.39,0,0,1,224,45a4.22,4.22,0,0,1,4.22-4.22,4.31,4.31,0,0,1,1.79.41,4,4,0,0,1,4-3.94,4,4,0,0,1,2,.57,4,4,0,0,1,6.54-2.61,4,4,0,1,1,.84,5.07A3.93,3.93,0,0,1,238,41.69a4,4,0,0,1-4,3.58,4.08,4.08,0,0,1-1.57-.32s0,0,0,.07a4.21,4.21,0,0,1-3.89,4.19,5,5,0,0,1,.45,2.06,5,5,0,0,1-4.45,4.94A5,5,0,0,1,221.71,63a5,5,0,1,1-5.42-1.36Z" transform="translate(-91.59 -19.27)"/><circle class="cls-1" cx="126.41" cy="47" r="3"/><circle class="cls-1" cx="128.41" cy="39" r="3"/><circle class="cls-1" cx="132.41" cy="32" r="3"/><circle class="cls-1" cx="136.63" cy="25.76" r="2.53"/><path class="cls-1" d="M234,38.87a2.4,2.4,0,1,1-2.4,2.4A2.39,2.39,0,0,1,234,38.87Z" transform="translate(-91.59 -19.27)"/><path class="cls-1" d="M240,35.87a2.4,2.4,0,1,1-2.4,2.4A2.39,2.39,0,0,1,240,35.87Z" transform="translate(-91.59 -19.27)"/><path class="cls-1" d="M246,34.87a2.4,2.4,0,1,1-2.4,2.4A2.39,2.39,0,0,1,246,34.87Z" transform="translate(-91.59 -19.27)"/><path class="cls-19" d="M252.05,57.71a4.17,4.17,0,0,0-.25-7.42,3.72,3.72,0,0,0,.09-6.49,3.75,3.75,0,1,0-3.78,0,3.72,3.72,0,0,0,.09,6.49,4.17,4.17,0,0,0-.25,7.42,5,5,0,1,0,4.1,0Z" transform="translate(-91.59 -19.27)"/><circle class="cls-1" cx="158.41" cy="43" r="3.33"/><circle class="cls-1" cx="158.41" cy="34.8" r="2.8"/><circle class="cls-1" cx="158.41" cy="27.75" r="2.5"/><circle class="cls-1" cx="158.41" cy="21.31" r="2.5"/><path class="cls-20" d="M218.1,52.55l.05,0-.08,0,0-.06m-5.79,2.53a4.74,4.74,0,0,0,1.35.2,5.14,5.14,0,0,0,1.24-.16,5.93,5.93,0,0,0-.11,6.1,6,6,0,0,0-2.79,5,6.63,6.63,0,0,0,.08,1,20.71,20.71,0,0,0-9.23,2.86c-.35.21-.69.44-1,.67a6.24,6.24,0,0,0-.41-1.09,5.52,5.52,0,0,0,3.09-4.94,5.11,5.11,0,0,0-.18-1.35A5.46,5.46,0,0,0,208,58.26a5,5,0,0,0,4.28-3.18m5.3-4.24a4,4,0,0,1-4,3.44,3.94,3.94,0,0,1-2-.58,4,4,0,0,1-4,3.58,3.94,3.94,0,0,1-.77-.08A4.41,4.41,0,0,1,203,62.7a4.39,4.39,0,0,1,.53,2.07,4.5,4.5,0,0,1-3.6,4.41,4.91,4.91,0,0,1,1.1,3.09,3.15,3.15,0,0,1,0,.44A19.54,19.54,0,0,1,203.36,71a20.12,20.12,0,0,1,10-2.78,5,5,0,0,1,2.9-6.62,5,5,0,0,1,3.16-8.27,5.12,5.12,0,0,1-.4-1.4,4.05,4.05,0,0,1-1.44-1.08ZM201,72.71Z" transform="translate(-91.59 -19.27)"/><path class="cls-20" d="M256.35,41.66A4.92,4.92,0,0,0,260,43.27a4.74,4.74,0,0,0,1.35-.2,5,5,0,0,0,4.65,3.2,5.36,5.36,0,0,0,.7-.05A5.28,5.28,0,0,0,270.15,50a5.79,5.79,0,0,0-.15,1.31A6,6,0,0,0,274.15,57a5.81,5.81,0,0,0-.15,1.32,5.89,5.89,0,0,0,.23,1.63q-.76-.46-1.56-.87a28,28,0,0,0-13-3.05c-1.54,0-2.85.11-3.56.17l-1.42.15a5,5,0,0,0,.52-2.23,5.11,5.11,0,0,0-1.71-3.84,4.73,4.73,0,0,0,0-6.44,4.75,4.75,0,0,0,1-1.54,5.06,5.06,0,0,0,1.91-.59m.23-1.36a3.94,3.94,0,0,1-2.58,1,2.91,2.91,0,0,1-.31,0,3.76,3.76,0,0,1-1.8,2.57,3.72,3.72,0,0,1-.09,6.49,4.17,4.17,0,0,1,.25,7.42l.07,0a32.4,32.4,0,0,1,4.07-.6c.87-.08,2.06-.17,3.47-.17a27.14,27.14,0,0,1,12.55,2.93,26.39,26.39,0,0,1,5.51,3.81,3.94,3.94,0,0,1,.57-.77,5,5,0,0,1-2.84-6.74A5,5,0,0,1,271,51.27a5,5,0,0,1,.45-2.06A4.21,4.21,0,0,1,267.56,45s0-.05,0-.07a4.08,4.08,0,0,1-1.57.32,4,4,0,0,1-4-3.58,3.93,3.93,0,0,1-5.46-1.39Zm21.14,23.42-.06.1.06-.1Zm-.06.1a3,3,0,0,0-.16.31,3,3,0,0,1,.16-.31Zm-.16.31a1.6,1.6,0,0,0-.1.23,1.6,1.6,0,0,1,.1-.23Z" transform="translate(-91.59 -19.27)"/><path class="cls-20" d="M243.65,41.66a5.06,5.06,0,0,0,1.91.59,4.75,4.75,0,0,0,1,1.54,4.73,4.73,0,0,0,0,6.44,5.11,5.11,0,0,0-1.71,3.84,5,5,0,0,0,.52,2.23l-1.42-.15c-.71-.06-2-.17-3.56-.17a28,28,0,0,0-13,3.05q-.79.4-1.56.87a5.89,5.89,0,0,0,.23-1.63,5.81,5.81,0,0,0-.15-1.32A6,6,0,0,0,230,51.27a5.79,5.79,0,0,0-.15-1.31,5.28,5.28,0,0,0,3.45-3.74,5.36,5.36,0,0,0,.7.05,5,5,0,0,0,4.65-3.2,4.74,4.74,0,0,0,1.35.2,4.92,4.92,0,0,0,3.65-1.61m-.23-1.36A3.93,3.93,0,0,1,238,41.69a4,4,0,0,1-4,3.58,4.08,4.08,0,0,1-1.57-.32s0,0,0,.07a4.21,4.21,0,0,1-3.89,4.19,5,5,0,0,1,.45,2.06,5,5,0,0,1-4.45,4.94A5,5,0,0,1,221.71,63a3.94,3.94,0,0,1,.57.77,26.39,26.39,0,0,1,5.51-3.81A27.14,27.14,0,0,1,240.34,57c1.41,0,2.6.09,3.47.17a32.4,32.4,0,0,1,4.07.6l.07,0a4.17,4.17,0,0,1,.25-7.42,3.72,3.72,0,0,1-.09-6.49,3.76,3.76,0,0,1-1.8-2.57,2.91,2.91,0,0,1-.31,0,3.94,3.94,0,0,1-2.58-1ZM222.28,63.72h0l.06.11-.06-.11Zm.06.11a1.91,1.91,0,0,1,.15.28,1.91,1.91,0,0,0-.15-.28Zm.15.28a2.72,2.72,0,0,1,.11.25,2.72,2.72,0,0,0-.11-.25Z" transform="translate(-91.59 -19.27)"/><path class="cls-20" d="M281.9,52.55l0,.06-.08,0,0,0m5.79,2.53A5,5,0,0,0,292,58.26a5.46,5.46,0,0,0,3.71,5.16,5.11,5.11,0,0,0-.18,1.35,5.52,5.52,0,0,0,3.09,4.94,6.24,6.24,0,0,0-.41,1.09c-.34-.23-.68-.46-1-.67a20.71,20.71,0,0,0-9.23-2.86,6.63,6.63,0,0,0,.08-1,6,6,0,0,0-2.79-5,5.93,5.93,0,0,0-.11-6.1,5.14,5.14,0,0,0,1.24.16,4.74,4.74,0,0,0,1.35-.2m-5.3-4.24A4.05,4.05,0,0,1,281,51.92a5.12,5.12,0,0,1-.4,1.4,5,5,0,0,1,3.16,8.27,5,5,0,0,1,2.9,6.62,20.12,20.12,0,0,1,10,2.78A19.54,19.54,0,0,1,299,72.71a3.15,3.15,0,0,1,0-.44,4.91,4.91,0,0,1,1.1-3.09,4.5,4.5,0,0,1-3.6-4.41A4.39,4.39,0,0,1,297,62.7a4.41,4.41,0,0,1-3.92-5.5,3.94,3.94,0,0,1-.77.08,4,4,0,0,1-4-3.58,3.94,3.94,0,0,1-2,.58,4,4,0,0,1-3.95-3.44ZM299,72.71Z" transform="translate(-91.59 -19.27)"/><path class="cls-20" d="M251,20.27v4h3v2h-3v6.08a2.61,2.61,0,0,1,1.61,1.18,3.93,3.93,0,0,1,4.81,1.7A4,4,0,0,1,264,37.84a4,4,0,0,1,2-.57,4,4,0,0,1,4,3.94,4.31,4.31,0,0,1,1.79-.41A4.22,4.22,0,0,1,276,45a4.39,4.39,0,0,1-.21,1.27h.1a4,4,0,0,1,7.4,1.43,4,4,0,0,1,7,2.13,3.94,3.94,0,0,1,2-.57,4,4,0,0,1,4,4,3.5,3.5,0,0,1-.07.65,4.69,4.69,0,0,1,1.19-.18,4.48,4.48,0,0,1,4,6.57,4.48,4.48,0,0,1,3.24,7A5,5,0,0,1,308,75.27a5,5,0,0,1-.05,8,8,8,0,1,1-9.38,12.81,3.86,3.86,0,0,1-2.07,1,2.25,2.25,0,0,1-.62,1.26l-1.33,1.32a2,2,0,0,1-2.5.32c-9.69-6-24.91-9.78-42-9.78s-32.34,3.83-42,9.78a2,2,0,0,1-2.5-.32l-1.33-1.32a2.25,2.25,0,0,1-.62-1.26,3.86,3.86,0,0,1-2.07-1,8,8,0,1,1-9.38-12.81,5,5,0,0,1,0-8,5,5,0,0,1,3.29-7.93,4.48,4.48,0,0,1,3.24-7,4.48,4.48,0,0,1,4-6.57,4.69,4.69,0,0,1,1.19.18,3.5,3.5,0,0,1-.07-.65,4,4,0,0,1,4-4,3.94,3.94,0,0,1,2,.57,4,4,0,0,1,7-2.13,4,4,0,0,1,7.4-1.43h.1A4.39,4.39,0,0,1,224,45a4.22,4.22,0,0,1,4.22-4.22,4.31,4.31,0,0,1,1.79.41,4,4,0,0,1,4-3.94,4,4,0,0,1,2,.57,4,4,0,0,1,6.54-2.61,3.93,3.93,0,0,1,4.81-1.7A2.61,2.61,0,0,1,249,32.35V26.27h-3v-2h3v-4h2m0-1h-2a1,1,0,0,0-1,1v3h-2a1,1,0,0,0-1,1v2a1,1,0,0,0,1,1h2v4.39a3.45,3.45,0,0,0-1,.72,4.43,4.43,0,0,0-1-.11,4.91,4.91,0,0,0-3.65,1.6,5,5,0,0,0-7,2.59,4.74,4.74,0,0,0-1.35-.19,5,5,0,0,0-4.8,3.63,5.43,5.43,0,0,0-1-.1,5.22,5.22,0,0,0-5.1,4.12,5,5,0,0,0-6.9,2.07,4.87,4.87,0,0,0-2.56-.72A5,5,0,0,0,209,48.46a4.79,4.79,0,0,0-1.35-.19,5,5,0,0,0-5,4.47h-.15a5.49,5.49,0,0,0-5.33,6.85,5.47,5.47,0,0,0-3.35,7.1A6,6,0,0,0,190,72.27a5.9,5.9,0,0,0,.72,2.81,5.95,5.95,0,0,0-.25,8.1,9,9,0,0,0,11,14.23,5.2,5.2,0,0,0,1.24.56,3.18,3.18,0,0,0,.73,1.14l1.33,1.33a3.09,3.09,0,0,0,2.17.9,3,3,0,0,0,1.56-.44c10-6.12,25.11-9.63,41.51-9.63s31.53,3.51,41.51,9.63a3,3,0,0,0,1.56.44,3.09,3.09,0,0,0,2.17-.9l1.33-1.33A3.18,3.18,0,0,0,297.3,98a5.2,5.2,0,0,0,1.24-.56,9,9,0,0,0,11-14.23,5.95,5.95,0,0,0-.25-8.1,5.9,5.9,0,0,0,.72-2.81,6,6,0,0,0-3.85-5.58,5.47,5.47,0,0,0-3.35-7.1,5.49,5.49,0,0,0-5.33-6.85h-.15a5,5,0,0,0-5-4.47,4.79,4.79,0,0,0-1.35.19,5,5,0,0,0-4.65-3.19,4.87,4.87,0,0,0-2.56.72,5,5,0,0,0-6.9-2.07,5.22,5.22,0,0,0-5.1-4.12,5.43,5.43,0,0,0-1,.1,5,5,0,0,0-4.8-3.63,4.74,4.74,0,0,0-1.35.19,5,5,0,0,0-7-2.59,4.91,4.91,0,0,0-3.65-1.6,4.43,4.43,0,0,0-1,.11,3.45,3.45,0,0,0-1-.72V27.27h2a1,1,0,0,0,1-1v-2a1,1,0,0,0-1-1h-2v-3a1,1,0,0,0-1-1Z" transform="translate(-91.59 -19.27)"/><path class="cls-21" d="M298.55,96.11a3.86,3.86,0,0,1-2.07,1,2.18,2.18,0,0,1-.62,1.26l-1.32,1.32a2.07,2.07,0,0,1-1.7.59l-.22,0c-.41.49-.83,1-1.25,1.55l-.19.25c-.37.48-.73,1-1.1,1.47-.19.25-.37.52-.55.78s-.54.77-.82,1.19c-.4.61-.8,1.25-1.2,1.91l-.19.3-.27.48c-.25.43-.5.85-.73,1.27l-.43.83c-.16.3-.33.61-.48.91s-.29.61-.44.91-.25.52-.37.77-.29.66-.44,1l-.27.64c-.15.35-.3.7-.44,1l-.19.49c-.15.38-.29.76-.43,1.13l-.12.31q-.22.63-.42,1.23l0,.11c-.15.44-.29.88-.42,1.3l.16.14c1.25,1.15,2.25,2.19,3,3a103.11,103.11,0,0,1,10,13c1.66,2.42,2.64,4,3.78,5.47a26.61,26.61,0,0,0,2.22,2.53,37.43,37.43,0,0,0,10,7,41.77,41.77,0,0,0,17,4,53.17,53.17,0,0,0,24-5,42.18,42.18,0,0,0,11.58-8.51l41.82,41.1v.43c0,.67,0,1.34,0,2v0c0,.68,0,1.37,0,2.07v.12c0,.67,0,1.35,0,2v.32c0,.63,0,1.26,0,1.9,0,.16,0,.33,0,.49,0,.59,0,1.19,0,1.79l0,.81c0,.51,0,1-.05,1.52s0,.85,0,1.28,0,.74,0,1.12q-.06,1.22-.12,2.46c0,.32,0,.66-.05,1l0,.41,0,.67c0,.19,0,.39,0,.59s0,.36,0,.54,0,.49-.05.74v.12c-.05.7-.1,1.45-.15,2.22v.08l-.09,1.19V209c-.32,4-.78,8.75-1.48,14.26h0c-.36,2.83-.78,5.85-1.28,9l0,.16c-.15.94-.31,1.91-.47,2.89l-.09.57c-.15.88-.3,1.77-.46,2.67,0,.21-.07.41-.11.62-.18,1-.36,2-.56,3.08,0,.07,0,.14,0,.21-.22,1.16-.44,2.33-.68,3.51a1.42,1.42,0,0,1,0,.2c-.21,1.05-.43,2.12-.65,3.2-.07.31-.14.63-.2,1-.18.84-.37,1.7-.56,2.56-.08.38-.17.76-.25,1.14-.19.85-.39,1.7-.59,2.56-.08.36-.16.73-.25,1.09-.25,1-.5,2.1-.76,3.16-.05.18-.09.35-.13.53-.31,1.23-.62,2.48-.95,3.74l-.27,1c-.24.92-.49,1.85-.74,2.78l-.38,1.37c-.23.85-.47,1.69-.71,2.55l-.42,1.43c-.25.89-.52,1.79-.79,2.69l-.38,1.28c-.4,1.32-.81,2.65-1.24,4s-.88,2.73-1.33,4.08c-.12.39-.25.77-.38,1.15-.34,1-.68,2-1,3l-.36,1c-.94,2.67-1.89,5.27-2.85,7.82-.08.22-.17.44-.26.67-.43,1.13-.86,2.24-1.29,3.34l-.19.48q-1.55,3.9-3.12,7.61l0,.08c-.53,1.24-1.06,2.48-1.6,3.69h0c-4.9,11.11-9.95,20.87-14.79,29.55l0,0q-1.59,2.85-3.15,5.56l-.1.18L358.08,353l-.15.26q-1.47,2.52-2.9,4.91c-.1.18-.2.35-.31.52-.36.62-.73,1.23-1.09,1.84l-.35.57L352,363.27c-27.24,45.43-55.44,74.39-63,82a402.69,402.69,0,0,1-39,34.46h0a402.69,402.69,0,0,1-39-34.46c-7.56-7.61-35.76-36.57-63-82l-1.28-2.15-.35-.57c-.36-.61-.73-1.22-1.09-1.84-.11-.17-.21-.34-.31-.52q-1.42-2.38-2.9-4.91l-.15-.26-1.41-2.43-.1-.18q-1.56-2.71-3.15-5.56l0,0c-4.84-8.68-9.89-18.44-14.79-29.55h0c-.54-1.21-1.07-2.45-1.6-3.69l0-.08q-1.57-3.71-3.12-7.61l-.19-.48c-.43-1.1-.86-2.21-1.29-3.34-.09-.23-.18-.45-.26-.67-1-2.55-1.91-5.15-2.85-7.82l-.36-1c-.35-1-.69-2-1-3-.13-.38-.26-.76-.38-1.15-.45-1.35-.89-2.7-1.33-4.08s-.84-2.68-1.24-4l-.38-1.28c-.27-.9-.54-1.8-.79-2.69l-.42-1.43c-.24-.86-.48-1.7-.71-2.55l-.38-1.37c-.25-.93-.5-1.86-.74-2.78l-.27-1c-.33-1.26-.64-2.51-.95-3.74,0-.18-.08-.35-.13-.53-.26-1.06-.51-2.11-.76-3.16-.09-.36-.17-.73-.25-1.09-.2-.86-.4-1.71-.59-2.56-.08-.38-.17-.76-.25-1.14-.19-.86-.38-1.72-.56-2.56-.06-.32-.13-.64-.2-1-.22-1.08-.44-2.15-.65-3.2a1.42,1.42,0,0,1,0-.2c-.24-1.18-.46-2.35-.68-3.51,0-.07,0-.14,0-.21-.2-1-.38-2.07-.56-3.08,0-.21-.07-.41-.11-.62-.16-.9-.31-1.79-.46-2.67l-.09-.57c-.16-1-.32-2-.47-2.89l0-.16c-.5-3.19-.92-6.21-1.28-9h0c-.7-5.51-1.16-10.3-1.48-14.26v-.16l-.09-1.19v-.08c0-.77-.1-1.52-.15-2.22v-.12c0-.25,0-.5,0-.74l0-.54c0-.2,0-.4,0-.59l0-.67,0-.41c0-.35,0-.69,0-1q-.06-1.25-.12-2.46c0-.38,0-.74,0-1.12s0-.86,0-1.28,0-1-.05-1.52l0-.81c0-.6,0-1.2,0-1.79,0-.16,0-.33,0-.49,0-.64,0-1.27,0-1.9v-.32c0-.68,0-1.36,0-2v-.12c0-.7,0-1.39,0-2.07v0c0-.69,0-1.36,0-2v-.43l41.82-41.1A42.18,42.18,0,0,0,148,150.27a53.17,53.17,0,0,0,24,5,41.77,41.77,0,0,0,17-4,37.43,37.43,0,0,0,10-7,26.61,26.61,0,0,0,2.22-2.53c1.14-1.48,2.12-3.05,3.78-5.47a103.11,103.11,0,0,1,10-13c.76-.8,1.76-1.84,3-3l.16-.14c-.13-.42-.27-.86-.42-1.3l0-.11q-.19-.6-.42-1.23l-.12-.31c-.14-.37-.28-.75-.43-1.13l-.19-.49c-.14-.35-.29-.7-.44-1l-.27-.64c-.15-.32-.29-.65-.44-1s-.25-.51-.37-.77-.29-.61-.44-.91-.32-.61-.48-.91l-.43-.83c-.23-.42-.48-.84-.73-1.27l-.27-.48-.19-.3c-.4-.66-.8-1.3-1.2-1.91-.28-.42-.55-.8-.82-1.19s-.36-.53-.55-.78c-.37-.51-.73-1-1.1-1.47l-.19-.25c-.42-.54-.84-1.06-1.25-1.55l-.22,0a2.07,2.07,0,0,1-1.7-.59l-1.32-1.32a2.18,2.18,0,0,1-.62-1.26,3.86,3.86,0,0,1-2.07-1" transform="translate(-91.59 -19.27)"/><path class="cls-22" d="M250,113.9c1.88,0,3.68.15,5.49.34a44.33,44.33,0,0,1,10,1.78c8.32,2.71,13.65,8.31,15.93,10.7a99.68,99.68,0,0,1,9.5,12.38l1.46,2.15c.87,1.31,1.62,2.43,2.48,3.54a30.52,30.52,0,0,0,2.63,3,42.41,42.41,0,0,0,11.37,8,46.76,46.76,0,0,0,19,4.49c.5,0,1.09,0,1.69,0a58.5,58.5,0,0,0,24.75-5.55,46.87,46.87,0,0,0,9.27-6.08L400.41,185c0,5.35-.13,10.74-.4,16a323,323,0,0,1-14.78,79.75c-11.67,36.82-26.61,61.74-37.52,79.93-24.22,40.41-49.4,68.12-62.26,81.05A399.37,399.37,0,0,1,250,473.38a399.37,399.37,0,0,1-35.45-31.64c-12.86-12.93-38-40.64-62.26-81.05-10.91-18.19-25.85-43.11-37.52-79.93A323,323,0,0,1,100,201c-.27-5.3-.4-10.69-.4-16l36.92-36.3a46.87,46.87,0,0,0,9.27,6.08,58.5,58.5,0,0,0,24.75,5.55c.6,0,1.19,0,1.69,0a46.76,46.76,0,0,0,19-4.49,42.41,42.41,0,0,0,11.37-8,30.52,30.52,0,0,0,2.63-3c.86-1.11,1.61-2.23,2.48-3.54l1.46-2.15a99.68,99.68,0,0,1,9.5-12.38c2.28-2.39,7.61-8,15.93-10.7a44.33,44.33,0,0,1,10-1.78c1.81-.19,3.61-.3,5.49-.34m0-5c-1.88,0-3.88.15-6,.37a48.24,48.24,0,0,0-11,2c-9.33,3-15.25,9.11-18,12a104.05,104.05,0,0,0-10,13c-1.66,2.42-2.64,4-3.78,5.47a26.61,26.61,0,0,1-2.22,2.53,37.43,37.43,0,0,1-10,7,41.77,41.77,0,0,1-17,4c-.22,0-.73,0-1.47,0a53.18,53.18,0,0,1-22.53-5,42.18,42.18,0,0,1-11.58-8.51L94.6,182.86c0,5.52.05,11.69.4,18.41a326.89,326.89,0,0,0,15,81c11.61,36.63,26.54,61.89,38,81,27.24,45.43,55.44,74.39,63,82a402.69,402.69,0,0,0,39,34.46,402.69,402.69,0,0,0,39-34.46c7.56-7.61,35.76-36.57,63-82,11.46-19.11,26.39-44.37,38-81a326.89,326.89,0,0,0,15-81c.35-6.72.44-12.89.4-18.41l-41.82-41.1A42.18,42.18,0,0,1,352,150.27a53.18,53.18,0,0,1-22.53,5c-.74,0-1.25,0-1.47,0a41.77,41.77,0,0,1-17-4,37.43,37.43,0,0,1-10-7,26.61,26.61,0,0,1-2.22-2.53c-1.14-1.48-2.12-3.05-3.78-5.47a104.05,104.05,0,0,0-10-13c-2.75-2.89-8.67-9-18-12a48.24,48.24,0,0,0-11-2c-2.12-.22-4.12-.33-6-.37Z" transform="translate(-91.59 -19.27)"/></svg>