<svg id="Capa_1" data-name="Capa 1" xmlns="http://www.w3.org/2000/svg" viewBox="0 0 331.43 553.45"><defs><style>.cls-1{fill:#e52521;}.cls-1,.cls-2,.cls-3,.cls-4,.cls-5{fill-rule:evenodd;}.cls-2{fill:#382d87;}.cls-3{fill:#482b16;}.cls-4{fill:#dd9b47;}.cls-5{fill:#fff;}</style></defs><g id="Layer1000"><path id="path2" class="cls-1" d="M166,507.13c0-5.16.06-10.36.09-15.55s.05-10.38.08-15.58c-2.86,1.55-5.73,3.08-8.56,4.62,0-2.1,0-4.22,0-6.33q11.44-6.18,23-12.37c0,2.1,0,4.2,0,6.31-2.87,1.54-5.73,3.09-8.57,4.6,0,5.19-.05,10.39-.08,15.57s-.06,10.37-.09,15.53l-5.87,3.2Zm41.4-22.59L201,488c-.84-2.37-1.65-4.73-2.49-7.1l-11.63,6.33c-.81,3.28-1.65,6.56-2.46,9.8-2.08,1.15-4.16,2.27-6.22,3.4q2.86-10.86,5.73-21.73T189.7,457c2-1.11,4.11-2.21,6.19-3.32,1.91,5.17,3.81,10.31,5.73,15.47s3.82,10.25,5.73,15.38Zm-10.68-8.89c-.69-1.91-1.35-3.84-2-5.77s-1.31-3.88-1.94-5.82c-.7,2.66-1.41,5.33-2.06,8s-1.33,5.3-2,7.94c2.63-1.42,5.29-2.88,7.95-4.33Zm13.71,7.24c0-6.18,0-12.35.06-18.52s.09-12.37.12-18.56l8.82-4.74c.84,3.75,1.71,7.5,2.55,11.22s1.67,7.46,2.51,11.19c.87-4.64,1.77-9.32,2.64-14s1.76-9.32,2.63-14c2.92-1.55,5.87-3.14,8.82-4.72,0,6.14,0,12.27-.08,18.43s-.06,12.29-.06,18.4c-1.82,1-3.65,2-5.44,3,0-4.81,0-9.67,0-14.5s.06-9.69.06-14.52c-1,5.34-1.94,10.71-2.93,16.07s-1.93,10.72-2.92,16.08l-5.64,3.08c-.93-4.33-1.91-8.64-2.81-13s-1.85-8.7-2.74-13.07c-.06,4.89-.09,9.75-.12,14.62s0,9.69-.06,14.56c-1.82,1-3.64,2-5.44,3Zm60-32.77-6.33,3.45c-.84-2.31-1.65-4.63-2.49-7L249.93,453c-.81,3.23-1.62,6.45-2.4,9.67l-6.22,3.4q2.82-10.74,5.7-21.45t5.73-21.41c2-1.11,4.1-2.24,6.19-3.36,1.94,5.08,3.82,10.14,5.73,15.2S268.5,445.09,270.41,450.12Zm-10.7-8.66c-.7-1.88-1.34-3.78-2-5.69s-1.3-3.82-1.94-5.7c-.69,2.62-1.38,5.24-2,7.86s-1.33,5.24-2,7.84c2.61-1.44,5.27-2.87,7.93-4.31Zm13.83,7c0-6.07,0-12.17.06-18.25s0-12.19.08-18.26c4.11-2.22,8.22-4.4,12.35-6.64,3.07-1.67,5.33-2.56,6.75-2.66a3.51,3.51,0,0,1,3.38,1.65,8.65,8.65,0,0,1,1.24,5,16.68,16.68,0,0,1-1.91,7.79,18.67,18.67,0,0,1-5.75,6.46,7.13,7.13,0,0,1,3.09,1.36,20.08,20.08,0,0,1,3.33,4.1c1.16,1.73,2.31,3.45,3.5,5.16-2.34,1.26-4.69,2.55-7,3.81-1.42-1.87-2.79-3.74-4.2-5.63a22.58,22.58,0,0,0-3.09-3.67,2.34,2.34,0,0,0-1.74-.54,9.46,9.46,0,0,0-2.95,1.2l-1.21.64c0,2.54,0,5.09,0,7.63s0,5.07,0,7.61l-5.87,3.2Zm6-24.25,4.34-2.34a29.84,29.84,0,0,0,5.29-3.3,7.1,7.1,0,0,0,1.62-2.43,7.82,7.82,0,0,0,.61-3.07,3.36,3.36,0,0,0-.75-2.54,2.07,2.07,0,0,0-2.2-.23,44.32,44.32,0,0,0-4.28,2.17l-4.6,2.47C279.53,418,279.53,421.08,279.5,424.16Zm49.5-6-6.34,3.45c-.84-2.27-1.68-4.54-2.49-6.83q-5.85,3.15-11.66,6.33l-2.43,9.55-6.22,3.4c1.91-7.07,3.77-14.14,5.67-21.18s3.82-14.12,5.73-21.18l6.22-3.34c1.91,5,3.82,10,5.73,14.95s3.85,9.9,5.79,14.85Zm-10.71-8.47c-.69-1.84-1.37-3.7-2-5.57l-2-5.63c-.67,2.6-1.35,5.18-2,7.77s-1.33,5.18-2,7.74l8-4.31Zm32.43-16.59c1.88-.3,3.76-.61,5.67-.94A30.23,30.23,0,0,1,352,403.32a21.84,21.84,0,0,1-7.72,7.06c-3.88,2.12-7,2.21-9.49.29a8.41,8.41,0,0,1-2.81-4.25,23.45,23.45,0,0,1-.89-7.12,37.94,37.94,0,0,1,.95-8.49,30.32,30.32,0,0,1,2.84-7.51A24.15,24.15,0,0,1,344.76,373c3.56-1.9,6.41-2.13,8.62-.74,1.32.84,2.32,2.51,3,5l-5.78,4.82a4.22,4.22,0,0,0-2.17-3.23c-1.08-.49-2.41-.31-4,.53a12.62,12.62,0,0,0-5.23,5.69c-1.35,2.64-2,6.09-2,10.38a26.9,26.9,0,0,0,.44,5.57,5.65,5.65,0,0,0,1.47,3.07c1.33,1.2,3.07,1.23,5.18.08a10.88,10.88,0,0,0,4-4,19.8,19.8,0,0,0,2.43-7.08Zm10.68,7.37c0-6,0-11.92,0-17.88s.05-11.94.05-17.9Q372.21,359,383,353.15v6l-15.59,8.41c0,2.64,0,5.28,0,7.94l14.52-7.85c0,2,0,4,0,6-4.86,2.62-9.69,5.22-14.52,7.84v9.69l16.17-8.81v6q-11.07,6-22.07,12Zm26.84-14.65c0-5.93,0-11.85,0-17.77s0-11.84,0-17.76l5.9-3.16c0,5.9,0,11.82,0,17.74s0,11.82,0,17.72c-2,1.09-3.93,2.16-5.9,3.23Zm18-9.83c0-4.89,0-9.8,0-14.69s0-9.81.05-14.7l-8.59,4.6v-6q11.5-6.16,23-12.34v5.94c-2.86,1.55-5.73,3.08-8.56,4.62,0,4.89,0,9.78,0,14.67s0,9.77,0,14.66L406.27,376Zm18.25-10c0-5.86,0-11.72,0-17.58s0-11.75,0-17.61c7.14-3.84,14.32-7.71,21.49-11.55v5.92l-15.62,8.43v7.8q7.24-3.93,14.52-7.86c0,2,0,4,0,5.92-4.86,2.62-9.7,5.26-14.53,7.88v9.51q8.07-4.37,16.2-8.81V354Q435.54,360,424.52,366Z" transform="translate(-132.39 -144.1)"/><path id="path4" class="cls-2" d="M312.88,243.65V688.17h-7.3V243.65ZM290.2,690.58V243.65h7.3V690.58Z" transform="translate(-132.39 -144.1)"/><path id="path6" class="cls-2" d="M343.34,248.07V670.12H336v-422ZM320.66,679.52V248.07H328V679.52Z" transform="translate(-132.39 -144.1)"/><path id="path8" class="cls-2" d="M373.74,253.24V650h-7.3V253.24ZM351.31,661V248.07h7.3V661Z" transform="translate(-132.39 -144.1)"/><path id="path10" class="cls-2" d="M381.87,635.54V256.93h7.3V635.54Z" transform="translate(-132.39 -144.1)"/><path id="path12" class="cls-2" d="M435.11,275.23V568.11H427.8V275.23Zm-22.69,326V267.61h7.3V601.28Z" transform="translate(-132.39 -144.1)"/><path id="path14" class="cls-2" d="M443.07,509.25V281.84h7.31V509.25Z" transform="translate(-132.39 -144.1)"/><path id="path16" class="cls-2" d="M397.24,620.73V262.27h7.3V620.73Z" transform="translate(-132.39 -144.1)"/><path id="path18" class="cls-3" d="M298.53,534.06c-1.15,0-2.3.05-3.43.14a77.27,77.27,0,0,0-16.58,11.49,53.39,53.39,0,0,0-11.93,16.22,36.12,36.12,0,0,0,10.24,9.26c4.85-8.49,9.17-15,14.72-20.61,5.32-5.37,11.75-9.81,20.79-14.21A42.65,42.65,0,0,0,298.53,534.06Zm-8.66.88a42.68,42.68,0,0,0-27.51,19.2,31.61,31.61,0,0,0,3,6,54.92,54.92,0,0,1,11.88-15.81A73.25,73.25,0,0,1,289.87,534.94Zm-28.74,21.3a42.39,42.39,0,0,0-5.21,20.43,41.14,41.14,0,0,0,.21,4.17,66.74,66.74,0,0,0,21.77,12.3,57.82,57.82,0,0,0,27.63,1.59c-.93-4.62-3.18-10.16-7.8-17.38-6,1.67-14.29,0-21.67-4.4a36.56,36.56,0,0,1-14.93-16.71Zm-4.65,27.34a42.31,42.31,0,0,0,6.72,16.9,34.61,34.61,0,0,0,17.62,10.25c7.1,1.73,15.1,1.63,23.76.18.11-.58.23-1.16.35-1.73.78-3.88,1.56-7.72.92-12.55A59.62,59.62,0,0,1,277.32,595a66.92,66.92,0,0,1-20.84-11.38Zm13.91,25.07a42.41,42.41,0,0,0,28.14,10.62,41.79,41.79,0,0,0,4.21-.21,15.83,15.83,0,0,0,1.16-3.88c.09-.77.19-1.52.32-2.26-8.64,1.38-16.66,1.43-23.85-.33A37.57,37.57,0,0,1,270.39,608.65ZM304.9,618.8A42.49,42.49,0,0,0,325,610.09c.36-9.92,0-18.5-2.16-26.71S316.73,567.45,310,559c-4.66,3.68-8.19,9.17-10.63,17.12l-.19-.06c11,17,9.31,25.19,7.62,33.49-.38,1.9-.77,3.8-1,5.84a13.89,13.89,0,0,1-.91,3.41Zm22-10.37c.59-.53,1.17-1.08,1.73-1.64a42.61,42.61,0,0,0,10.75-18l-.16,0a97.76,97.76,0,0,0-4.34-20.15,42.16,42.16,0,0,0-9.24-15.7,33.94,33.94,0,0,0-13.33,4.45l-.78.51c6.88,8.65,10.89,16.66,13.09,25C326.73,590.83,327.18,599.06,326.92,608.43Zm13.59-24.49a42.72,42.72,0,0,0-7-31.63c-1.9,0-3.72.15-5.47.32A45.07,45.07,0,0,1,336.71,568,89.32,89.32,0,0,1,340.51,583.94Zm-8.41-33.5a42.71,42.71,0,0,0-17.28-13.15c-9.71,4.55-16.43,9.09-21.91,14.62s-9.65,11.86-14.42,20.22c6.71,3.63,13.93,4.87,19.1,3.27,3-9.62,7.54-15.83,13.73-19.66,5.61-3.48,12.52-5,20.78-5.3Zm-65.74-5.94A45.5,45.5,0,1,1,253,576.67,45.38,45.38,0,0,1,266.36,544.5Z" transform="translate(-132.39 -144.1)"/><path id="path20" class="cls-4" d="M265.34,560.1a54.92,54.92,0,0,1,11.88-15.81,73.25,73.25,0,0,1,12.65-9.35,42.68,42.68,0,0,0-27.51,19.2A31.61,31.61,0,0,0,265.34,560.1Z" transform="translate(-132.39 -144.1)"/><path id="path22" class="cls-4" d="M278.52,545.69a53.39,53.39,0,0,0-11.93,16.22,36.12,36.12,0,0,0,10.24,9.26c4.85-8.49,9.17-15,14.72-20.61,5.32-5.37,11.75-9.81,20.79-14.21a42.65,42.65,0,0,0-13.81-2.29c-1.15,0-2.3.05-3.43.14A77.27,77.27,0,0,0,278.52,545.69Z" transform="translate(-132.39 -144.1)"/><path id="path24" class="cls-4" d="M292.91,551.91c-5.41,5.43-9.65,11.86-14.42,20.22,6.71,3.63,13.93,4.87,19.1,3.27,3-9.62,7.54-15.83,13.73-19.67,5.61-3.47,12.52-5,20.78-5.29a42.71,42.71,0,0,0-17.28-13.15c-9.71,4.55-16.43,9.09-21.91,14.62Z" transform="translate(-132.39 -144.1)"/><path id="path26" class="cls-4" d="M310,559c-4.66,3.68-8.19,9.17-10.63,17.12l-.19-.06c11,17,9.31,25.19,7.62,33.49-.38,1.9-.77,3.8-1,5.84a13.89,13.89,0,0,1-.91,3.41A42.49,42.49,0,0,0,325,610.09c.36-9.92,0-18.5-2.16-26.71S316.73,567.45,310,559Z" transform="translate(-132.39 -144.1)"/><path id="path28" class="cls-4" d="M311.55,557.87c6.88,8.65,10.89,16.66,13.09,25,2.09,7.94,2.54,16.17,2.28,25.54.59-.53,1.17-1.08,1.73-1.64a42.61,42.61,0,0,0,10.75-18l-.16,0a97.76,97.76,0,0,0-4.34-20.15,42.16,42.16,0,0,0-9.24-15.7,33.94,33.94,0,0,0-13.33,4.45Z" transform="translate(-132.39 -144.1)"/><path id="path30" class="cls-4" d="M328,552.63A45.07,45.07,0,0,1,336.71,568a89.32,89.32,0,0,1,3.8,16,42.72,42.72,0,0,0-7-31.63C331.59,552.35,329.77,552.46,328,552.63Z" transform="translate(-132.39 -144.1)"/><path id="path32" class="cls-4" d="M305.53,594.73c-.93-4.62-3.18-10.16-7.8-17.38-6,1.67-14.29,0-21.67-4.4a36.56,36.56,0,0,1-14.93-16.71,42.39,42.39,0,0,0-5.21,20.43,41.14,41.14,0,0,0,.21,4.17,66.74,66.74,0,0,0,21.77,12.3,57.82,57.82,0,0,0,27.63,1.59Z" transform="translate(-132.39 -144.1)"/><path id="path34" class="cls-4" d="M305.85,596.63A59.62,59.62,0,0,1,277.32,595a66.92,66.92,0,0,1-20.84-11.38,42.31,42.31,0,0,0,6.72,16.9,34.61,34.61,0,0,0,17.62,10.25c7.1,1.73,15.1,1.63,23.76.18l.35-1.73c.78-3.88,1.56-7.72.92-12.55Z" transform="translate(-132.39 -144.1)"/><path id="path36" class="cls-4" d="M304.22,612.92c-8.64,1.38-16.66,1.43-23.85-.33a37.57,37.57,0,0,1-10-3.94,42.41,42.41,0,0,0,28.14,10.62,41.79,41.79,0,0,0,4.21-.21,15.83,15.83,0,0,0,1.16-3.88C304,614.41,304.09,613.66,304.22,612.92Z" transform="translate(-132.39 -144.1)"/><path id="path38" class="cls-2" d="M376.56,232.58v-9.94h9.95v9.94Z" transform="translate(-132.39 -144.1)"/><path id="path40" class="cls-2" d="M334.43,189.39V223.8h7.8a28.39,28.39,0,0,0,6.32-.5,9.57,9.57,0,0,0,4.22-2.16,11,11,0,0,0,2.73-5,33.48,33.48,0,0,0,1.07-9.52,30.67,30.67,0,0,0-1.07-9.25,11.86,11.86,0,0,0-3-5,9.9,9.9,0,0,0-4.84-2.44,47.1,47.1,0,0,0-8.58-.5Zm-10.53-8.78H343a36.93,36.93,0,0,1,9.87,1,17.23,17.23,0,0,1,7.82,4.79,22.6,22.6,0,0,1,5,8.42,38.51,38.51,0,0,1,1.69,12.28,34.26,34.26,0,0,1-1.59,11.06,22.78,22.78,0,0,1-5.56,9.18,18.27,18.27,0,0,1-7.35,4.15,31.36,31.36,0,0,1-9.27,1.1H323.9Z" transform="translate(-132.39 -144.1)"/><path id="path42" class="cls-2" d="M262.65,232.58v-9.94h10v9.94Z" transform="translate(-132.39 -144.1)"/><path id="path44" class="cls-2" d="M210.37,180.61H220.9v28.16a58.3,58.3,0,0,0,.39,8.69,8.4,8.4,0,0,0,3.17,5.13,11,11,0,0,0,6.87,1.94c2.94,0,5.17-.61,6.67-1.83a7.18,7.18,0,0,0,2.69-4.49,58.26,58.26,0,0,0,.46-8.83V180.61h10.53v27.33c0,6.24-.28,10.66-.85,13.23a14.79,14.79,0,0,1-3.13,6.54,15.63,15.63,0,0,1-6.09,4.23,26.26,26.26,0,0,1-10,1.59q-7.42,0-11.25-1.72a16.17,16.17,0,0,1-6.06-4.48,14.26,14.26,0,0,1-2.93-5.77,62.82,62.82,0,0,1-1-13.2Z" transform="translate(-132.39 -144.1)"/><path id="path46" class="cls-2" d="M168.64,298.43V412.56L256.23,365V272.43h7.3v96.86l-1.91,1-94.89,51.54-5.39,2.93V298.43Z" transform="translate(-132.39 -144.1)"/><path id="path48" class="cls-2" d="M189.28,320.88l.2,50.85A73.69,73.69,0,0,0,213.87,364a45.85,45.85,0,0,0,19.66-19.74c2.65-5.06,3.57-9.86,2.71-13.9a16.53,16.53,0,0,0-7.48-10.46c-5.1-3.06-12-3.51-19-2.95A83.86,83.86,0,0,0,189.28,320.88Zm-6.51,53-.06-54.21v-2.73l2.63-.77a123.2,123.2,0,0,1,24.08-4.67c8.39-.67,16.65.38,22.57,3.84s9.12,7.9,10.3,13.66c1.13,5.45.12,11.67-3.33,18.28-5.09,9.72-14.36,17.6-22.68,22.12-9.07,4.92-18.15,7.2-29.41,8.41-1.36.14-2.77.19-4.1.21Z" transform="translate(-132.39 -144.1)"/><path id="path50" class="cls-2" d="M178.43,289.94l63.27-15,0,8.59-63.34,15.28Z" transform="translate(-132.39 -144.1)"/><path id="path52" class="cls-2" d="M208.74,340l.13-53.88,8.29-.57V340Z" transform="translate(-132.39 -144.1)"/><path id="path54" class="cls-2" d="M135,190.11c26.54-14.36,53.66-26.08,81.65-34.1a295.45,295.45,0,0,1,168,.57,343.43,343.43,0,0,1,77.19,34.18l2,1.18v2.29l-.38,148.28c-.1,36.81-1.53,86.58-7.69,134.7-6.21,48.42-17.23,95.23-36.53,125.74-14.43,22.83-32.84,40.57-53.4,55.48s-42.94,26.8-65.79,38.21l-1.82.91-1.83-1c-23.81-12.45-47-24.83-68-40.29-21.12-15.59-39.82-34.27-54.28-59.19C157.83,569,147.3,532.66,140.89,491c-6.35-41.39-8.65-88.17-8.49-137.39l.51-159.91v-2.41Zm5.64,92.9c22.6-12.18,45.88-22.49,70.05-29.92a276.86,276.86,0,0,1,82-12.7,334.74,334.74,0,0,1,86.66,11.08A349.67,349.67,0,0,1,455.55,282l.22-85.48a333.63,333.63,0,0,0-73.38-32.23,286.93,286.93,0,0,0-163.52-.54c-26.67,7.64-52.56,18.73-77.93,32.31Zm314.87,7.71a344.82,344.82,0,0,0-78.15-31.83,327.09,327.09,0,0,0-84.71-10.84A269.66,269.66,0,0,0,213,260.41c-25,7.68-49,18.52-72.32,31.34l-.2,61.82c-.15,48.75,2.12,95.12,8.43,136.19,6.26,40.76,16.48,76.18,32.22,103.31,13.84,23.85,31.8,41.77,52.1,56.77,19.95,14.73,42.22,26.7,65.07,38.67,21.91-11,43.42-22.53,62.83-36.6,19.82-14.37,37.51-31.41,51.32-53.25C431,569.27,441.7,523.6,447.77,476.2c6.11-47.72,7.53-97.14,7.63-133.69Z" transform="translate(-132.39 -144.1)"/><path id="path56" class="cls-2" d="M455.53,290.63,145,459.62q1.59,15.48,3.83,30.14c2.29,14.92,5.11,29.11,8.54,42.45L455.07,370.32c.21-9.85.31-19.19.33-27.81Zm-217,140.15c0,6.14,0,12.27-.08,18.43s-.06,12.29-.06,18.4c-1.82,1-3.65,2-5.44,3,0-4.81,0-9.67,0-14.5s.06-9.69.06-14.52c-1,5.34-1.94,10.71-2.93,16.07s-1.93,10.72-2.92,16.08l-5.64,3.08c-.93-4.33-1.91-8.64-2.81-13s-1.85-8.7-2.74-13.07c-.06,4.89-.09,9.75-.12,14.62s0,9.69-.06,14.56c-1.82,1-3.64,2-5.44,3,0-6.18,0-12.35.06-18.52s.09-12.37.12-18.56l8.82-4.74c.84,3.75,1.71,7.5,2.55,11.22l2.51,11.19c.87-4.64,1.77-9.32,2.64-14s1.76-9.32,2.63-14c2.92-1.55,5.87-3.14,8.82-4.72Zm-42.64,22.91c1.91,5.17,3.81,10.31,5.73,15.47s3.82,10.25,5.73,15.38L201,488c-.84-2.37-1.65-4.73-2.49-7.1l-11.63,6.33c-.81,3.28-1.65,6.56-2.46,9.8-2.08,1.15-4.16,2.27-6.22,3.4q2.86-10.86,5.73-21.73T189.7,457c2-1.11,4.11-2.21,6.19-3.32Zm-24,34.71-.09,15.53-5.87,3.2.09-15.55.08-15.58c-2.86,1.55-5.73,3.08-8.56,4.62,0-2.1,0-4.22,0-6.33q11.44-6.18,23-12.37c0,2.1,0,4.2,0,6.31-2.87,1.54-5.73,3.09-8.57,4.6ZM264.66,435c1.91,5.06,3.84,10.09,5.75,15.12l-6.33,3.45c-.84-2.31-1.65-4.63-2.49-7L249.93,453c-.81,3.23-1.62,6.45-2.4,9.67l-6.22,3.4q2.82-10.74,5.7-21.45l5.73-21.41c2-1.11,4.1-2.24,6.19-3.36,1.94,5.08,3.82,10.14,5.73,15.2Zm8.88,13.41c0-6.07,0-12.17.06-18.25s0-12.19.08-18.26c4.11-2.22,8.22-4.4,12.35-6.64,3.07-1.67,5.33-2.56,6.75-2.66a3.51,3.51,0,0,1,3.38,1.65,8.65,8.65,0,0,1,1.24,5,16.68,16.68,0,0,1-1.91,7.79,18.67,18.67,0,0,1-5.75,6.46,7.13,7.13,0,0,1,3.09,1.36,20.08,20.08,0,0,1,3.33,4.1c1.16,1.73,2.31,3.45,3.5,5.16-2.34,1.26-4.69,2.55-7,3.81-1.42-1.87-2.79-3.74-4.2-5.63a22.58,22.58,0,0,0-3.09-3.67,2.34,2.34,0,0,0-1.74-.54,9.46,9.46,0,0,0-2.95,1.2l-1.21.64c0,2.54,0,5.09,0,7.63s0,5.07,0,7.61l-5.87,3.2Zm26.32-14.36c1.91-7.07,3.77-14.14,5.67-21.18l5.73-21.18,6.22-3.34c1.91,5,3.82,10,5.73,14.95s3.85,9.9,5.79,14.85l-6.34,3.45c-.84-2.27-1.68-4.54-2.49-6.83q-5.85,3.15-11.66,6.33l-2.43,9.55-6.22,3.4Zm31.25-34.75a37.94,37.94,0,0,1,.95-8.49,30.32,30.32,0,0,1,2.84-7.51A24.15,24.15,0,0,1,344.76,373c3.56-1.9,6.41-2.13,8.62-.74,1.32.84,2.32,2.51,3,5l-5.78,4.82a4.22,4.22,0,0,0-2.17-3.23c-1.08-.49-2.41-.31-4,.53a12.62,12.62,0,0,0-5.23,5.69c-1.35,2.64-2,6.09-2,10.38a26.9,26.9,0,0,0,.44,5.57,5.65,5.65,0,0,0,1.47,3.07c1.33,1.2,3.07,1.23,5.18.08a10.88,10.88,0,0,0,4-4,19.8,19.8,0,0,0,2.43-7.08c1.88-.3,3.76-.61,5.67-.94A30.23,30.23,0,0,1,352,403.32a21.84,21.84,0,0,1-7.72,7.06c-3.88,2.12-7,2.21-9.49.29a8.41,8.41,0,0,1-2.81-4.25,23.45,23.45,0,0,1-.89-7.12Zm30.29,1.16c0-6,0-11.92,0-17.88s.05-11.94.05-17.9Q372.21,359,383,353.15v6l-15.59,8.41c0,2.64,0,5.28,0,7.94l14.52-7.85c0,2,0,4,0,6-4.86,2.62-9.69,5.22-14.52,7.84v9.69l16.17-8.81v6q-11.07,6-22.07,12Zm26.84-14.65c0-5.93,0-11.85,0-17.77s0-11.84,0-17.76l5.9-3.16c0,5.9,0,11.82,0,17.74s0,11.82,0,17.72c-2,1.09-3.93,2.16-5.9,3.23Zm18-9.83c0-4.89,0-9.8,0-14.69s0-9.81.05-14.7l-8.59,4.6v-6q11.5-6.16,23-12.34v5.94c-2.86,1.55-5.73,3.08-8.56,4.62,0,4.89,0,9.78,0,14.67s0,9.77,0,14.66L406.27,376Zm18.25-10c0-5.86,0-11.72,0-17.58s0-11.75,0-17.61c7.14-3.84,14.32-7.71,21.49-11.55v5.92l-15.62,8.43v7.8q7.24-3.93,14.52-7.86c0,2,0,4,0,5.92-4.86,2.62-9.7,5.26-14.53,7.88v9.51q8.07-4.37,16.2-8.81V354Q435.54,360,424.52,366Z" transform="translate(-132.39 -144.1)"/><path id="path58" class="cls-2" d="M196.67,475.65c-.69-1.91-1.35-3.84-2-5.77s-1.31-3.88-1.94-5.82c-.7,2.66-1.41,5.33-2.06,8s-1.33,5.3-2,7.94c2.63-1.42,5.29-2.88,7.95-4.33Z" transform="translate(-132.39 -144.1)"/><path id="path60" class="cls-2" d="M253.75,437.93c-.64,2.62-1.33,5.24-2,7.84,2.61-1.44,5.27-2.87,7.93-4.31-.7-1.88-1.34-3.78-2-5.69s-1.3-3.82-1.94-5.7c-.69,2.62-1.38,5.24-2,7.86Z" transform="translate(-132.39 -144.1)"/><path id="path62" class="cls-2" d="M279.53,414.89c0,3.1,0,6.19,0,9.27l4.34-2.34a29.84,29.84,0,0,0,5.29-3.3,7.1,7.1,0,0,0,1.62-2.43,7.82,7.82,0,0,0,.61-3.07,3.36,3.36,0,0,0-.75-2.54,2.07,2.07,0,0,0-2.2-.23,44.32,44.32,0,0,0-4.28,2.17Z" transform="translate(-132.39 -144.1)"/><path id="path64" class="cls-2" d="M312.3,406.25c-.65,2.58-1.33,5.18-2,7.74l8-4.31c-.69-1.84-1.37-3.7-2-5.57l-2-5.63c-.67,2.6-1.35,5.18-2,7.77Z" transform="translate(-132.39 -144.1)"/><path id="path66" class="cls-5" d="M171.91,488.4l.08-15.57c2.84-1.51,5.7-3.06,8.57-4.6,0-2.11,0-4.21,0-6.31q-11.55,6.21-23,12.37c0,2.11,0,4.23,0,6.33,2.83-1.54,5.7-3.07,8.56-4.62L166,491.59,166,507.13l5.87-3.2Z" transform="translate(-132.39 -144.1)"/><path id="path68" class="cls-5" d="M189.7,457q-2.87,10.86-5.76,21.7t-5.73,21.73c2.06-1.13,4.14-2.25,6.22-3.4.81-3.24,1.65-6.52,2.46-9.8l11.63-6.33c.84,2.37,1.65,4.73,2.49,7.1l6.34-3.47q-2.86-7.69-5.73-15.38c-1.92-5.16-3.82-10.3-5.73-15.47C193.81,454.8,191.72,455.9,189.7,457Zm-1,23c.63-2.64,1.31-5.31,2-7.94s1.36-5.32,2.06-8c.63,1.94,1.28,3.87,1.94,5.82s1.3,3.86,2,5.77c-2.66,1.45-5.32,2.91-7.95,4.33Z" transform="translate(-132.39 -144.1)"/><path id="path70" class="cls-5" d="M210.56,445.81c0,6.19-.09,12.37-.12,18.56s0,12.34-.06,18.52c1.8-1,3.62-2,5.44-3,0-4.87,0-9.71.06-14.56s.06-9.73.12-14.62c.89,4.37,1.85,8.72,2.74,13.07s1.88,8.65,2.81,13l5.64-3.08c1-5.36,1.94-10.72,2.92-16.08s2-10.73,2.93-16.07c0,4.83,0,9.69-.06,14.52s-.06,9.69,0,14.5c1.79-1,3.62-2,5.44-3,0-6.11,0-12.27.06-18.4s.05-12.29.08-18.43c-2.95,1.58-5.9,3.17-8.82,4.72-.87,4.68-1.77,9.36-2.63,14s-1.77,9.34-2.64,14l-2.51-11.19c-.84-3.72-1.71-7.47-2.55-11.22l-8.82,4.74Z" transform="translate(-132.39 -144.1)"/><path id="path72" class="cls-5" d="M252.74,423.16,247,444.57q-2.87,10.71-5.7,21.45l6.22-3.4c.78-3.22,1.59-6.44,2.4-9.67l11.66-6.34c.84,2.33,1.65,4.65,2.49,7l6.33-3.45c-1.91-5-3.84-10.06-5.75-15.12s-3.79-10.12-5.73-15.2c-2.09,1.12-4.17,2.25-6.19,3.36Zm-1,22.61c.64-2.6,1.33-5.22,2-7.84s1.33-5.24,2-7.86c.64,1.88,1.29,3.81,1.94,5.7s1.3,3.81,2,5.69c-2.66,1.44-5.32,2.87-7.93,4.31Z" transform="translate(-132.39 -144.1)"/><path id="path74" class="cls-5" d="M273.68,411.9c0,6.07,0,12.17-.08,18.26s0,12.18-.06,18.25l5.87-3.2c0-2.54,0-5.09,0-7.61s0-5.09,0-7.63l1.21-.64a9.46,9.46,0,0,1,2.95-1.2,2.34,2.34,0,0,1,1.74.54,22.58,22.58,0,0,1,3.09,3.67c1.41,1.89,2.78,3.76,4.2,5.63,2.31-1.26,4.66-2.55,7-3.81-1.19-1.71-2.34-3.43-3.5-5.16a20.08,20.08,0,0,0-3.33-4.1,7.13,7.13,0,0,0-3.09-1.36,18.67,18.67,0,0,0,5.75-6.46,16.68,16.68,0,0,0,1.91-7.79,8.65,8.65,0,0,0-1.24-5,3.51,3.51,0,0,0-3.38-1.65c-1.42.1-3.68,1-6.75,2.66-4.13,2.24-8.24,4.42-12.35,6.64Zm10.16,9.92-4.34,2.34c0-3.08,0-6.17,0-9.27l4.6-2.47a44.32,44.32,0,0,1,4.28-2.17,2.07,2.07,0,0,1,2.2.23,3.36,3.36,0,0,1,.75,2.54,7.82,7.82,0,0,1-.61,3.07,7.1,7.1,0,0,1-1.62,2.43A29.84,29.84,0,0,1,283.84,421.82Z" transform="translate(-132.39 -144.1)"/><path id="path76" class="cls-5" d="M314.3,398.48l2,5.63c.65,1.87,1.33,3.73,2,5.57l-8,4.31c.63-2.56,1.31-5.16,2-7.74s1.33-5.17,2-7.77Zm-3-6.79-5.73,21.18c-1.9,7-3.76,14.11-5.67,21.18l6.22-3.4,2.43-9.55q5.82-3.18,11.66-6.33c.81,2.29,1.65,4.56,2.49,6.83l6.34-3.45q-2.91-7.42-5.79-14.85c-1.91-5-3.82-10-5.73-14.95l-6.22,3.34Z" transform="translate(-132.39 -144.1)"/><path id="path78" class="cls-5" d="M332.06,390.81a37.94,37.94,0,0,0-.95,8.49,23.45,23.45,0,0,0,.89,7.12,8.41,8.41,0,0,0,2.81,4.25c2.49,1.92,5.61,1.83,9.49-.29a21.84,21.84,0,0,0,7.72-7.06,30.23,30.23,0,0,0,4.37-11.17c-1.91.33-3.79.64-5.67.94a19.8,19.8,0,0,1-2.43,7.08,10.88,10.88,0,0,1-4,4c-2.11,1.15-3.85,1.12-5.18-.08a5.65,5.65,0,0,1-1.47-3.07,26.9,26.9,0,0,1-.44-5.57c0-4.29.68-7.74,2-10.38a12.62,12.62,0,0,1,5.23-5.69c1.56-.84,2.89-1,4-.53a4.22,4.22,0,0,1,2.17,3.23l5.78-4.82c-.66-2.5-1.66-4.17-3-5-2.21-1.39-5.06-1.16-8.62.74a24.15,24.15,0,0,0-9.86,10.27,30.32,30.32,0,0,0-2.84,7.51Z" transform="translate(-132.39 -144.1)"/><path id="path80" class="cls-5" d="M361.48,364.68c0,6,0,11.92-.05,17.9s0,11.92,0,17.88q11-6,22.07-12v-6l-16.17,8.81v-9.69c4.83-2.62,9.66-5.22,14.52-7.84,0-2,0-4,0-6l-14.52,7.85c0-2.66,0-5.3,0-7.94L383,359.17v-6q-10.72,5.81-21.47,11.53Z" transform="translate(-132.39 -144.1)"/><path id="path82" class="cls-5" d="M388.27,368c0,5.92,0,11.84,0,17.77,2-1.07,3.94-2.14,5.9-3.23,0-5.9,0-11.82,0-17.72s0-11.84,0-17.74l-5.9,3.16q0,8.88,0,17.76Z" transform="translate(-132.39 -144.1)"/><path id="path84" class="cls-5" d="M406.27,361.29c0,4.89,0,9.8,0,14.69l5.87-3.22c0-4.89,0-9.76,0-14.66s0-9.78,0-14.67c2.83-1.54,5.7-3.07,8.56-4.62v-5.94q-11.5,6.19-23,12.34v6l8.59-4.6c0,4.89,0,9.81-.05,14.7Z" transform="translate(-132.39 -144.1)"/><path id="path86" class="cls-5" d="M424.52,348.42c0,5.86,0,11.72,0,17.58q11-6,22.07-12.05v-5.9q-8.11,4.43-16.2,8.81v-9.51c4.83-2.62,9.67-5.26,14.53-7.88,0-2,0-3.94,0-5.92q-7.29,3.93-14.52,7.86v-7.8c5.21-2.82,10.42-5.61,15.62-8.43v-5.92c-7.17,3.84-14.35,7.71-21.49,11.55,0,5.86,0,11.72,0,17.61Z" transform="translate(-132.39 -144.1)"/><path id="path88" class="cls-5" d="M210.71,253.09a276.86,276.86,0,0,1,82-12.7,334.74,334.74,0,0,1,86.66,11.08A349.67,349.67,0,0,1,455.55,282l.22-85.48a333.63,333.63,0,0,0-73.38-32.23,286.93,286.93,0,0,0-163.52-.54c-26.67,7.64-52.56,18.73-77.93,32.31L140.66,283c22.6-12.18,45.88-22.49,70.05-29.92Zm-.34-44.73V180.61H220.9v28.16a58.3,58.3,0,0,0,.39,8.69,8.4,8.4,0,0,0,3.17,5.13,11,11,0,0,0,6.87,1.94c2.94,0,5.17-.61,6.67-1.83a7.18,7.18,0,0,0,2.69-4.49,58.26,58.26,0,0,0,.46-8.83V180.61h10.53v27.33c0,6.24-.28,10.66-.85,13.23a14.79,14.79,0,0,1-3.13,6.54,15.63,15.63,0,0,1-6.09,4.23,26.26,26.26,0,0,1-10,1.59q-7.42,0-11.25-1.72a16.17,16.17,0,0,1-6.06-4.48,14.26,14.26,0,0,1-2.93-5.77,62.82,62.82,0,0,1-1-13.2Zm52.28,24.22v-9.94h10v9.94Zm61.25,0v-52H343a36.93,36.93,0,0,1,9.87,1,17.23,17.23,0,0,1,7.82,4.79,22.6,22.6,0,0,1,5,8.42,38.51,38.51,0,0,1,1.69,12.28,34.26,34.26,0,0,1-1.59,11.06,22.78,22.78,0,0,1-5.56,9.18,18.27,18.27,0,0,1-7.35,4.15,31.36,31.36,0,0,1-9.27,1.1Zm52.66,0v-9.94h9.95v9.94Z" transform="translate(-132.39 -144.1)"/><path id="path90" class="cls-5" d="M334.43,189.39V223.8h7.8a28.39,28.39,0,0,0,6.32-.5,9.57,9.57,0,0,0,4.22-2.16,11,11,0,0,0,2.73-5,33.48,33.48,0,0,0,1.07-9.52,30.67,30.67,0,0,0-1.07-9.25,11.86,11.86,0,0,0-3-5,9.9,9.9,0,0,0-4.84-2.44,47.1,47.1,0,0,0-8.58-.5Z" transform="translate(-132.39 -144.1)"/><path id="path92" class="cls-5" d="M290.2,460,157.41,532.21c5.94,23.12,13.7,43.65,23.68,60.86,13.84,23.85,31.8,41.77,52.1,56.77,17.6,13,37,23.83,57,34.43V621.39a45.49,45.49,0,0,1,0-89.45Z" transform="translate(-132.39 -144.1)"/><path id="path94" class="cls-5" d="M189.48,371.73A73.69,73.69,0,0,0,213.87,364a45.85,45.85,0,0,0,19.66-19.74c2.65-5.06,3.57-9.86,2.71-13.9a16.53,16.53,0,0,0-7.48-10.46,25.22,25.22,0,0,0-11.6-3.09V340h-8.42l0-23.06a83.34,83.34,0,0,0-19.51,3.9Z" transform="translate(-132.39 -144.1)"/><path id="path96" class="cls-5" d="M161.34,418.68V298.43h7.3V412.56L256.23,365V272.43h7.3v96.86l-1.91,1-94.89,51.54-5.39,2.93Zm21.43-44.81-.06-54.21v-2.73l2.63-.77a123.7,123.7,0,0,1,23.47-4.62l0-20.12-30.53,7.36.11-8.84,63.27-15,0,8.59-24.5,5.91v22c5.57.32,10.76,1.56,14.83,3.94,5.88,3.43,9.12,7.9,10.3,13.66,1.13,5.45.12,11.67-3.33,18.28-5.09,9.72-14.36,17.6-22.68,22.12-9.07,4.92-18.15,7.2-29.41,8.41-1.36.14-2.77.19-4.1.21ZM145,459.62l145.16-79V248.06A270.19,270.19,0,0,0,213,260.41c-25,7.68-49,18.52-72.32,31.34l-.2,61.82c-.12,37.16,1.18,72.94,4.6,106.05Z" transform="translate(-132.39 -144.1)"/><path id="path98" class="cls-5" d="M297.5,248.08V376.64l8.08-4.4v-124c-2.68-.1-5.38-.16-8.08-.2Z" transform="translate(-132.39 -144.1)"/><path id="path100" class="cls-5" d="M312.88,248.63V368.27l7.78-4.23V249.17q-3.89-.31-7.78-.54Z" transform="translate(-132.39 -144.1)"/><path id="path102" class="cls-5" d="M328,249.84V360.06l8.08-4.39V250.78q-4-.53-8.08-.94Z" transform="translate(-132.39 -144.1)"/><path id="path104" class="cls-5" d="M343.34,251.8v99.89l8-4.33V253.11C348.66,252.64,346,252.2,343.34,251.8Z" transform="translate(-132.39 -144.1)"/><path id="path106" class="cls-5" d="M358.61,254.5v88.88l7.83-4.26V256.18c-2.61-.59-5.21-1.15-7.83-1.68Z" transform="translate(-132.39 -144.1)"/><path id="path108" class="cls-5" d="M373.74,257.94v77.21l8.13-4.42V260.12c-1.5-.43-3-.84-4.49-1.23C376.17,258.56,375,258.25,373.74,257.94Z" transform="translate(-132.39 -144.1)"/><path id="path110" class="cls-5" d="M389.17,262.27v64.48l8.07-4.39V264.87C394.55,264,391.86,263.1,389.17,262.27Z" transform="translate(-132.39 -144.1)"/><path id="path112" class="cls-5" d="M404.54,267.42v51l7.88-4.29V270.39q-3.93-1.53-7.88-3Z" transform="translate(-132.39 -144.1)"/><path id="path114" class="cls-5" d="M419.72,273.35v36.77l8.08-4.39V276.85Q423.77,275,419.72,273.35Z" transform="translate(-132.39 -144.1)"/><path id="path116" class="cls-5" d="M435.11,280.23v21.52l8-4.33V284.13C440.42,282.79,437.76,281.49,435.11,280.23Z" transform="translate(-132.39 -144.1)"/><path id="path118" class="cls-5" d="M450.38,287.92v5.52l5.08-2.76Q452.91,289.27,450.38,287.92Z" transform="translate(-132.39 -144.1)"/><path id="path120" class="cls-5" d="M305.58,531.72V451.63L297.5,456v75.17h1a45.53,45.53,0,0,1,7.05.54Z" transform="translate(-132.39 -144.1)"/><path id="path122" class="cls-5" d="M312.88,447.65v85.84a44.39,44.39,0,0,1,7.78,3.43V443.43Z" transform="translate(-132.39 -144.1)"/><path id="path124" class="cls-5" d="M328,439.45V542q1.43,1.21,2.73,2.52a45.75,45.75,0,0,1,5.35,6.43V435.06Z" transform="translate(-132.39 -144.1)"/><path id="path126" class="cls-5" d="M343.34,431.09V568.83a46.15,46.15,0,0,1,0,15.67v79.29q4-2.5,8-5.11V426.75Z" transform="translate(-132.39 -144.1)"/><path id="path128" class="cls-5" d="M358.61,422.78v230.9l2.48-1.77q2.7-2,5.35-4V418.53Z" transform="translate(-132.39 -144.1)"/><path id="path130" class="cls-5" d="M373.74,414.56V642.1c2.76-2.3,5.48-4.67,8.13-7.11V410.14Z" transform="translate(-132.39 -144.1)"/><path id="path132" class="cls-5" d="M389.17,406.16V627.92q4.15-4.24,8.07-8.79V401.77Z" transform="translate(-132.39 -144.1)"/><path id="path134" class="cls-5" d="M404.54,397.8V610.06q4.13-5.47,7.87-11.4h0V393.52Z" transform="translate(-132.39 -144.1)"/><path id="path136" class="cls-5" d="M419.72,389.55V585.49a194.58,194.58,0,0,0,8.08-19.18V385.15Z" transform="translate(-132.39 -144.1)"/><path id="path138" class="cls-5" d="M435.11,381.18V543c3.09-11.45,5.72-23.56,8-36V376.85Z" transform="translate(-132.39 -144.1)"/><path id="path140" class="cls-5" d="M450.38,372.88V453c2.82-28.87,4.14-57.51,4.69-82.72Z" transform="translate(-132.39 -144.1)"/><path id="path142" class="cls-5" d="M336,668.22V602.4a45.19,45.19,0,0,1-5.35,6.43q-1.31,1.3-2.73,2.52v61.52q4.07-2.29,8.08-4.65Z" transform="translate(-132.39 -144.1)"/><path id="path144" class="cls-5" d="M320.66,676.9V616.41a44.39,44.39,0,0,1-7.78,3.43V681Q316.8,679,320.66,676.9Z" transform="translate(-132.39 -144.1)"/><path id="path146" class="cls-5" d="M305.58,684.81v-63.2a45.53,45.53,0,0,1-7.05.54h-1v66l.76.4q3.67-1.85,7.32-3.7Z" transform="translate(-132.39 -144.1)"/></g></svg>