<svg id="Capa_1" data-name="Capa 1" xmlns="http://www.w3.org/2000/svg" viewBox="0 0 553.06 551.55"><defs><style>.cls-1{fill:#fff;}.cls-2,.cls-3,.cls-4,.cls-5{fill:#1d1d1b;}.cls-3{font-size:57.35px;}.cls-3,.cls-4,.cls-5{font-family:Arial-Black, Arial;font-weight:800;}.cls-4{font-size:58.74px;}.cls-5{font-size:53.15px;}.cls-6,.cls-8{fill:#010101;}.cls-6,.cls-7{fill-rule:evenodd;}.cls-7{fill:#eeae13;}.cls-9{fill:#e1b206;}.cls-10{fill:#039239;}.cls-11{fill:#1f7133;}.cls-12{fill:#185f2f;}.cls-13{fill:#078e38;}.cls-14{fill:#eac407;}.cls-15{fill:#f7a509;}.cls-16{fill:#aec80e;}.cls-17{fill:#edc10a;}.cls-18{fill:#079039;}.cls-19{fill:#543112;}.cls-20{fill:#f7a412;}.cls-21{fill:#efc209;}</style></defs><path class="cls-1" d="M298,693.47a273,273,0,1,1,193.55-466A273,273,0,0,1,298,693.47Z" transform="translate(-21.47 -144.73)"/><path class="cls-2" d="M298,150.33c149.63,0,270.93,121,270.93,270.17S447.63,690.67,298,690.67,27.07,569.71,27.07,420.5,148.37,150.33,298,150.33m0-5.6A275.51,275.51,0,1,0,552.8,527.85,276,276,0,0,0,298,144.73Z" transform="translate(-21.47 -144.73)"/><text class="cls-3" transform="translate(23.8 287.71) rotate(82.46)">V</text><text class="cls-3" transform="matrix(0.27, 0.96, -0.96, 0.27, 30.95, 334.26)">I</text><text class="cls-3" transform="matrix(0.39, 0.92, -0.92, 0.39, 37.12, 357.61)">L</text><text class="cls-3" transform="translate(53.84 396.04) rotate(57.38)">L</text><text class="cls-3" transform="matrix(0.68, 0.73, -0.73, 0.68, 76.9, 431.87)">A</text><text class="cls-3" transform="translate(109.4 465.32) rotate(39.37)"> </text><text class="cls-3" transform="translate(125.18 479.03) rotate(32.12)">S</text><text class="cls-3" transform="matrix(0.93, 0.36, -0.36, 0.93, 164.48, 503.35)">A</text><text class="cls-3" transform="translate(211.45 521.15) rotate(9.42)">N</text><text class="cls-3" transform="translate(263.64 528.98) rotate(-1.75)">T</text><text class="cls-3" transform="translate(304.98 527.87) rotate(-11.46)">A</text><text class="cls-3" transform="matrix(0.94, -0.33, 0.33, 0.94, 350.56, 517.6)"> </text><text class="cls-3" transform="translate(370.95 511.24) rotate(-27.01)">B</text><text class="cls-3" transform="matrix(0.78, -0.62, 0.62, 0.78, 415.02, 488.2)">R</text><text class="cls-3" transform="matrix(0.69, -0.72, 0.72, 0.69, 451.33, 458.33)">Í</text><text class="cls-3" transform="matrix(0.57, -0.82, 0.82, 0.57, 469.26, 440.56)">G</text><text class="cls-3" transform="translate(497.33 398.51) rotate(-63.56)">I</text><text class="cls-3" transform="translate(508.98 376.46) rotate(-71.79)">D</text><text class="cls-3" transform="translate(523.4 331.98) rotate(-82.45)">A</text><text class="cls-4" transform="translate(66.62 238.18) rotate(-75.76)">•</text><text class="cls-5" transform="translate(73.5 211.81) rotate(-69.94)"> </text><text class="cls-5" transform="matrix(0.46, -0.89, 0.89, 0.46, 77.58, 197.52)">U</text><text class="cls-5" transform="translate(95.75 161.94) rotate(-51.67)">N</text><text class="cls-5" transform="matrix(0.72, -0.69, 0.69, 0.72, 121.74, 130.04)">I</text><text class="cls-5" transform="translate(133.78 117.08) rotate(-35.96)">Ó</text><text class="cls-5" transform="translate(165.89 93.28) rotate(-25.24)">N</text><text class="cls-5" transform="translate(203.49 76.3) rotate(-17.65)"> </text><text class="cls-5" transform="matrix(0.98, -0.18, 0.18, 0.98, 217.47, 70.89)">D</text><text class="cls-5" transform="matrix(1, -0.02, 0.02, 1, 254.39, 63.97)">E</text><text class="cls-5" transform="translate(288.99 63.14) rotate(8.42)">P</text><text class="cls-5" transform="translate(323.07 67.55) rotate(18.49)">O</text><text class="cls-5" transform="matrix(0.88, 0.48, -0.48, 0.88, 361.14, 80.02)">R</text><text class="cls-5" transform="translate(393.71 97.74) rotate(38.44)">T</text><text class="cls-5" transform="translate(421.33 120.15) rotate(45.59)">I</text><text class="cls-5" transform="translate(434.41 132.26) rotate(53.09)">V</text><text class="cls-5" transform="translate(455.63 159.6) rotate(62.37)">A</text><text class="cls-5" transform="matrix(0.35, 0.94, -0.94, 0.35, 472.99, 193.98)"> </text><text class="cls-4" transform="matrix(0.25, 0.97, -0.97, 0.25, 478.8, 208.44)">•</text><text class="cls-5" transform="translate(485.49 234.87) rotate(81.2)"> </text><path class="cls-6" d="M265.77,243.13h0a59.47,59.47,0,1,0,82,18.58A59.06,59.06,0,0,0,265.77,243.13Z" transform="translate(-21.47 -144.73)"/><path class="cls-7" d="M321.51,345.17l.17.27a56.91,56.91,0,0,1-21.2,5.24,12.21,12.21,0,0,0,1.7-6.84c0-1-.06-2.09-.12-3.13l-.06-1.12c-.32-5.4-3-9.15-5.39-12.46l-.25-.35.44-.52a21.46,21.46,0,0,0,6.14-15.32c0-4.72-1.3-10.62-5-17.88a12,12,0,0,1-1.51-5.43,8.18,8.18,0,0,1,4.18-6.93c6.94-4.48,20.72-3.85,26.56,3.18a18.09,18.09,0,0,0,2.77,8C337.4,303.78,331.89,338.62,321.51,345.17Zm13.75-94.71c-18.87-2.73-45.16.93-58.27,15.41a24.54,24.54,0,0,1-5.91,4.76c-3.05,7.14.49,12.61,2.91,15.25,5.36,5.85,14.56,8.77,21.5,7-2.43-5.67-1-10.69,3.95-13.9,7.21-4.66,20.51-4.39,27.68,1.94a17.38,17.38,0,0,1,4.14-9.94,15.43,15.43,0,0,1,16.79-4.58c-.64-1.19-1.3-2.37-2-3.53a57.22,57.22,0,0,0-10.73-12.55ZM256.69,273a12.3,12.3,0,0,1-8.47-8.83,57.88,57.88,0,0,0-7.93,25.66l.1-.06c9.65,15.3,36,37.27,54.12,36a11.3,11.3,0,0,1,.74-.86c2.87-3.16,10.41-11.47,1.16-30.09-7.8,2.24-17.92-.86-24-7.46-4.19-4.58-5.58-9.95-4.06-15.35A17.79,17.79,0,0,1,256.69,273Zm-6.89-11.33c.8,4.89,3.38,8.11,7.48,9.32,5.72,1.69,13.18-1,18.15-6.48,12.94-14.29,38-18.46,57.11-16.44a57.47,57.47,0,0,0-65.65-3.11,56.73,56.73,0,0,0-17.1,16.71ZM349.37,269l-.05.1c-7.19-3.29-13.23-.48-16.48,3.24a15.41,15.41,0,0,0-1.15,18.48c7.2,11.41,3.8,39.8-4.81,51.88.41-.24.82-.47,1.21-.72A57.46,57.46,0,0,0,349.37,269ZM297.8,350.75c2.59-2.76,2.38-6.24,2.17-9.91l-.07-1.13c-.28-4.79-2.68-8.12-5-11.35l-.4-.56c-18.22,1.18-43.25-18.86-54.34-34.65a57.22,57.22,0,0,0,57.64,57.61Z" transform="translate(-21.47 -144.73)"/><path class="cls-8" d="M395.93,420.26c0-5.23-3.7-8-7.17-8-3.29,0-5.25,1.51-5.25,3,0,2.16,1.34,2.93,2.49,2.93l1.42-.16,1.25-.15c.94,0,1.66,1.75,1.66,2.62a3,3,0,0,1-3.15,2.89c-3.18,0-5.15-4.22-5.15-8.13,0-6.71,2.62-12.82,5.41-19.28,3.24-7.53,6.91-16.07,6.91-27,0-17.9-15.56-27.79-26.31-27.79-.74,0-1.45,0-2.15.09A16.23,16.23,0,0,0,369.41,331c0-4.94-4.11-9.44-8.63-9.44a4.73,4.73,0,0,0-4.66,4.67c0,3.41,1.69,4.13,3.11,4.13s3.42-1.44,3.42-3.09l0-.05a3.41,3.41,0,0,1,1.07,2.15c0,2.18-3.05,3.15-6.06,3.15-4.36,0-8.47-2.09-12.82-4.31-5.14-2.62-11-5.6-18.3-5.6-8.66,0-14.77,5.82-16,11.92-1.12-1.05-2.44-2-3.62-2a6.2,6.2,0,0,0-5.44,3.47,7.25,7.25,0,0,0-8,0,6.2,6.2,0,0,0-5.45-3.47c-1.17,0-2.49.93-3.61,2-1.21-6.1-7.31-11.92-16-11.92-7.33,0-13.16,3-18.31,5.6-4.35,2.22-8.45,4.31-12.81,4.31-2.92,0-6.06-1-6.06-3.15a3.45,3.45,0,0,1,1.06-2.15v.05c0,1.65,2.13,3.09,3.42,3.09s3.1-.72,3.1-4.13a4.73,4.73,0,0,0-4.66-4.67c-4.51,0-8.62,4.5-8.62,9.44a16.17,16.17,0,0,0,3.52,10.21c-.7-.06-1.42-.09-2.15-.09-10.76,0-26.32,9.89-26.32,27.79,0,10.9,3.68,19.44,6.92,27,2.78,6.46,5.41,12.57,5.41,19.28,0,3.91-2,8.13-5.16,8.13a3,3,0,0,1-3.14-2.89c0-.87.71-2.62,1.66-2.62l1.25.15,1.41.16c1.15,0,2.49-.77,2.49-2.93,0-1.46-2-3-5.24-3-3.48,0-7.17,2.81-7.17,8,0,4.83,3.71,10.05,9.7,10.05l.3,0a6.41,6.41,0,0,0-1.43,3.78c0,4.71,3,6.41,5.07,6.41a2.78,2.78,0,0,0,2.07-.66,2.64,2.64,0,0,0,.61-2.08v-1.06l-.76-.41a1.68,1.68,0,0,1-.87-1.32c0-.72,0-1.81,3.44-1.81,4.9,0,9.84,5.46,9.84,17.66,0,22,12.57,45.79,24.39,57,5.87,5.57,13.34,8.19,19.92,10.5,2.61.91,5.07,1.78,7.21,2.75,11.35,5.16,16.92,10.21,17.55,15.9h2.78c.63-5.69,6.21-10.74,17.55-15.9,2.14-1,4.61-1.84,7.21-2.75,6.59-2.31,14.05-4.93,19.92-10.5,11.83-11.23,24.39-35,24.39-57,0-12.13,5.1-17.66,9.85-17.66,3.44,0,3.44,1.09,3.44,1.81a1.66,1.66,0,0,1-.88,1.32l-.73.39,0,.85v.23a2.63,2.63,0,0,0,.6,2.08,2.8,2.8,0,0,0,2.08.66c2,0,5.07-1.7,5.07-6.41a6.41,6.41,0,0,0-1.43-3.78l.29,0C392.22,430.31,395.93,425.09,395.93,420.26Z" transform="translate(-21.47 -144.73)"/><path class="cls-9" d="M285.61,344.39l-2.19-1.26a17.27,17.27,0,0,0,1.12-4.35,10.81,10.81,0,0,1,3.08-.87c.78,0,2.18,1.64,2.62,3.35a6,6,0,0,0,.1,2.54c-.18,2-.72,2-1,2A10.14,10.14,0,0,1,285.61,344.39Zm20,1.39a10.25,10.25,0,0,0,3.76-1.39l2.19-1.26a16.46,16.46,0,0,1-1.12-4.35,11,11,0,0,0-3.08-.87c-.79,0-2.18,1.64-2.63,3.34a7.5,7.5,0,0,1,.1.94,7.71,7.71,0,0,1-.19,1.61C304.83,345.77,305.37,345.78,305.62,345.78Zm-8.13-.79a2.8,2.8,0,1,0-2.79-2.8A2.8,2.8,0,0,0,297.49,345Zm-51.75,15.74a12.51,12.51,0,0,1-2.77,8.14H352a12.57,12.57,0,0,1-2.77-8.14c0-6.87,2.48-12.33,6.75-15.72-3.76-.48-6.5-2.35-9.38-4.33-4.66-3.2-10.48-7.2-23.59-7.2a4.49,4.49,0,0,0-4.84,4.84c0,4.88,5.08,6.7,6.12,6.7a2.76,2.76,0,0,0,2.95-2.89,2.75,2.75,0,0,1-2.48-2.94,4.09,4.09,0,0,1,1.67-2.89,5.2,5.2,0,0,1,2.87-1.23,4.66,4.66,0,0,1,3.8,2.25,8.44,8.44,0,0,1,1.33,4.67,10.34,10.34,0,0,1-10.61,10,13.29,13.29,0,0,1-11.59-7.45l-.93,1.71c-.26.47-2.59,4.58-5.77,4.58a4.38,4.38,0,0,1-4-2.52,7.28,7.28,0,0,1-8,0,4.37,4.37,0,0,1-4,2.52c-3.19,0-5.52-4.11-5.77-4.58l-.94-1.71A13.28,13.28,0,0,1,271.15,352a10.34,10.34,0,0,1-10.61-10,8.45,8.45,0,0,1,1.34-4.67,4.64,4.64,0,0,1,3.79-2.25,5.13,5.13,0,0,1,2.87,1.23,4.07,4.07,0,0,1,1.68,2.89,2.75,2.75,0,0,1-2.49,2.94,2.76,2.76,0,0,0,2.95,2.89c1,0,6.12-1.82,6.12-6.7a4.49,4.49,0,0,0-4.83-4.84c-13.12,0-18.93,4-23.6,7.2-2.87,2-5.62,3.85-9.38,4.33C243.27,348.4,245.74,353.86,245.74,360.73Zm140.66,7.69c0-10.61-9.57-19.14-17.49-19.14-10.28,0-13.63,10.07-13.63,13.54,0,1.63,1.32,4.2,4.89,4.2,2.14,0,3.41-.95,3.41-2.53,0-.88-.73-1.55-1.76-2.39-.81-.67-1.65-1.35-1.65-2.42a2.82,2.82,0,0,1,2.8-2.62c2.94,0,5.42,4.51,5.42,7.34,0,4.92-4.31,7.87-8.48,7.87a10.76,10.76,0,0,1-5.51-1.4v76.95c0,30.34-18.32,38.72-34.48,46.11-8.39,3.84-16.32,7.46-21.33,13.74l-1.1,1.37-1.09-1.37c-5-6.28-12.95-9.9-21.34-13.74-16.16-7.39-34.48-15.77-34.48-46.11V370.87a10.72,10.72,0,0,1-5.5,1.4c-4.17,0-8.48-2.95-8.48-7.87,0-2.83,2.48-7.34,5.42-7.34a2.81,2.81,0,0,1,2.79,2.62c0,1.07-.84,1.75-1.65,2.42-1,.84-1.75,1.51-1.75,2.39,0,1.58,1.27,2.53,3.4,2.53,3.57,0,4.9-2.57,4.9-4.2,0-3.47-3.36-13.54-13.64-13.54-7.92,0-17.48,8.53-17.48,19.14,0,12.42,2.72,19.24,5.35,25.85,2.51,6.29,4.88,12.23,4.88,22.23a16.1,16.1,0,0,1-3.15,10,11.17,11.17,0,0,1,1.75-.14c9.45,0,16.32,11,16.32,26.11,0,14.12,12.1,38.19,24.44,48.58,4.9,4.13,12.45,6.49,18.51,8.39l6.28,2.1c8.15,3.19,12.17,5.91,14.52,10.1,2.36-4.19,6.38-6.91,14.53-10.1l6.28-2.1c6.06-1.9,13.6-4.26,18.5-8.39,12.34-10.39,24.45-34.46,24.45-48.58,0-15.13,6.86-26.11,16.32-26.11a11.27,11.27,0,0,1,1.75.14,16,16,0,0,1-3.15-10c0-10,2.37-15.94,4.87-22.23C383.68,387.66,386.4,380.84,386.4,368.42Z" transform="translate(-21.47 -144.73)"/><path class="cls-8" d="M335.61,359.8h-9.09v-1.12h9.09Zm3.84,6.57h-14v1.12h14Zm-22-14.33H305.89v1.12h11.53Zm-7.34,7.76h11.54v-1.12H310.08Zm44.06-13v-.68H342.6v1.12h11.16C353.88,347.06,354,346.91,354.14,346.77Zm-13.29-7.6v-1.12h-7.34a7.36,7.36,0,0,1,.47,1.12Zm.35,12.52h-14v1.12h14Zm-85.67,15.8h14v-1.12h-14Zm3.85-7.69h9.09v-1.12h-9.09Zm100.7-7.16-.15.17h.15Zm-75.17,6H273.37v1.12h11.54Zm-23.44-20.63h-7.34v1.12H261A8.53,8.53,0,0,1,261.47,338.05Zm27.63,14H277.56v1.12H289.1Zm14.34,6.64H291.9v1.12h11.54Zm-24.13,8.46h11.54V366H279.31ZM315.68,366H304.14v1.12h11.54Zm38.72,14.06h7.08V379H354.4Zm-120.11,6.84H219.43V388h14.86Zm-14.77,14.66h14.86v-1.11H219.52Zm21.06,5H232.8v1.11h7.78Zm0-13.29H232.8v1.12h7.78Zm134.54-21H363.58v1.12h11.54Zm-134.54,47.9h-5.33v1.12h5.33ZM377.17,352h-8.69v1.12h10.23C378.21,352.76,377.69,352.38,377.17,352Zm-2.05,7.76v-1.12H366a8.61,8.61,0,0,1,.84,1.12Zm-15.39,60.42H354.4v1.12h5.33Zm-5.33-25.8h7.78V393.3H354.4Zm21.16-7.5H360.7V388h14.86Zm-.09,13.55H360.61v1.11h14.86Zm-129-48.78H244c.15.36.28.74.41,1.12h2Zm102.11,0v1.12h2c.13-.38.26-.76.41-1.12Zm-80.78,0h-14v1.12h14Zm94.41,54.9H354.4v1.11h7.78Zm-22.73,82.52h-9.56l-2,1v.09h11.54Zm-9.09,8.46h10.12l1-1.12H330.36Zm12.95-18.18h5.93v-1.12h-4.9C344,478.65,343.66,479,343.31,479.39Zm-88.8,18.18h10.11v-1.12H253.48C253.82,496.83,254.17,497.21,254.51,497.57Zm53.47,6.3h11.54v-1.12H308Zm-32.52,0H287v-1.12H275.46Zm15,7h14.86v-1.12H290.5Zm-25.4-21.75h-9.57v1.12h11.54v-.09C266.41,489.8,265.75,489.46,265.1,489.11Zm88.71-32.45H359v-1.12H354C353.92,455.92,353.86,456.29,353.81,456.66Zm-1.07,12.94h4.71c.14-.38.27-.75.41-1.12h-5.12Zm15-88.65h14.86v-1.11H367.78ZM252.39,347.21v-1.12H240.85v.68c.13.14.25.29.38.44Zm115.94,18.11a6.73,6.73,0,0,1-.22,1.12h15.05v-1.12Zm-.47,43.52h8.84c.05-.38.11-.75.17-1.12h-9ZM354.4,445.47h7.39c.06-.37.11-.75.18-1.12H354.4Zm0-10.14h8.13v-1.12H354.4Zm8-19.93h13.83c0-.38,0-.76,0-1.12H362.36Zm5.42-21H381l.06-.15.39-1H367.78ZM219.87,359.8h8.25a8.67,8.67,0,0,1,.85-1.12h-9.1Zm6.64-7.76h-8.7c-.52.34-1,.72-1.53,1.12h10.23Zm.7,27.8H212.35V381h14.86Zm-.56-14.52H211.82v1.12h15.05A9.65,9.65,0,0,1,226.65,365.32Zm8.25-12.68v.17h.16ZM240.58,379H233.5v1.12h7.08Zm10.06,99.31h-4.9v1.12h5.94C251.33,479,251,478.65,250.64,478.27ZM219.87,373.44h11.54v-1.12H219.87ZM241,455.54H236v1.12h5.23C241.13,456.29,241.07,455.92,241,455.54ZM227.21,393.3H213.56c.13.32.25.64.38,1l.06.15h13.21Zm13.37,51.05H233c.06.37.11.75.17,1.12h7.39Zm-3,25.25h4.71v-1.12h-5.12C237.26,468.85,237.4,469.22,237.54,469.6Zm3-35.39h-8.13v1.12h8.13Zm-13.46-26.49h-9l.18,1.12h8.83Zm5.51,6.56H218.77c0,.36,0,.74,0,1.12h13.83Z" transform="translate(-21.47 -144.73)"/><path class="cls-8" d="M245.74,362.74a4.2,4.2,0,1,1,4.2,4.19A4.2,4.2,0,0,1,245.74,362.74Zm15-1.05h-4.2V364h4.2Zm6.47,0h-4.2V364h4.2Zm6.47,0h-4.2V364h4.2Zm6.46,0H276V364h4.19Zm6.47,0h-4.19V364h4.19Zm6.47,0h-4.19V364h4.19Zm56.12,1.05a4.2,4.2,0,1,0-4.19,4.19A4.19,4.19,0,0,0,349.24,362.74Zm-15,1.22h4.19v-2.27h-4.19Zm-6.47,0h4.2v-2.27h-4.2Zm-6.47,0h4.2v-2.27h-4.2Zm-6.47,0H319v-2.27h-4.2Zm-6.47,0h4.2v-2.27h-4.2Zm-6.47,0h4.2v-2.27h-4.2Zm-2.27-2.27H295.4V364h4.19Z" transform="translate(-21.47 -144.73)"/><path class="cls-8" d="M162.48,367.83c3,1,7.47,3.54,7.39,3.75-10.63-3.86-14.26-2.57-20.25-1.75a32.83,32.83,0,0,0-8,4.17,53,53,0,0,1,7.94,0c1.49.22,3,.52,4.48.87-8.08-.91-15.53,1.63-23.26,4.87,0,0-3.42,1.94-3.42,4.32,2.51-.89,4.54-.95,4.62-.69a31,31,0,0,0-11.75,7.43,8.89,8.89,0,0,0-2.13,4.69c2.13-1.06,4-2.53,4.25-2.22a33,33,0,0,0-9.91,14.24s-.21,3.64,1.88,5.73l1.88-3.91c3.48-5.89,8.39-9.84,12.51-10,.14,0,.27,0,.41,0a19.8,19.8,0,0,0-8.41,5.33c-4.53,4.88-6.95,11.95-6.95,20.16,0,1.07,0,2.16.13,3.26,0,0,.85,5.35,4.17,7.45a38,38,0,0,1,0-7.32,41.89,41.89,0,0,1,2.82-10.77A46.34,46.34,0,0,0,119.14,431c0,2.25.1,4.6.26,7,0,0,.66,3.92,2.9,6.15a16.37,16.37,0,0,1,1.29-6.07c0-.12,0-.45.11-.91,0,.17,0,.34,0,.5,0,5.9,1.19,11,3.3,14.06l3.83,5.59v-6.77c0-1.31,0-2.51,0-3.76a79.35,79.35,0,0,0,1.82,8.43,16.65,16.65,0,0,0,3.16,5.7,25.79,25.79,0,0,0,1-6.16c.64-14.24,2.06-25.92,5.9-35.29a103.81,103.81,0,0,0-3.56,24.22,26.07,26.07,0,0,0,2.12,9,48.19,48.19,0,0,0,2-8.43c2.36-9.67,4.83-17.24,8.56-23.63a87.15,87.15,0,0,0-3,12.33s-1.58,11.52-.43,11.52a94.91,94.91,0,0,0,4.5-10.52c2.71-8.73,6.71-15.55,11.77-20.43-5,6.4-8.09,13.31-8.71,20.09l-.65,7.3,6.63-8.78a82.65,82.65,0,0,1,10.15-11.88,38.11,38.11,0,0,0-5,8.79,29.33,29.33,0,0,0-1,8,63.87,63.87,0,0,1,4.56-5.89c4.06-5.17,9-10.23,16.77-11.07-4.67,2.13-8.28,6.06-12,11.47,0,0-2.42,3.39-2.42,6.57l5.33-3.65c4.9-3.33,10.52-6.1,16.9-5.31-5,1.23-9.56,4.2-13.44,7.2a16.87,16.87,0,0,0-5,5.63l6.75-1.92a87.4,87.4,0,0,1,17.55-1.95,26.8,26.8,0,0,0-4.44,3L193,444.14l4.71.64c9.95,1.35,18.3,5.39,23.86,11.3a45.18,45.18,0,0,0-12.27.58s-4.5,1.32-6.84,3.13c.91.35,7.2,1,7.2,1a47.57,47.57,0,0,1,12.38,1.39,29.13,29.13,0,0,0-3.9.36,40.74,40.74,0,0,0-8.27,2.28c.17.18,8.23,1.83,8.23,1.83,6.65,1.41,12.35,5.12,17.66,11.44a17.48,17.48,0,0,0-9.46,1.44l-5.46,2.75,6,1.18a33.54,33.54,0,0,1,14.76,7.14,35,35,0,0,0-10.62-1s-6.18.11-6.18.51a32.44,32.44,0,0,0,5.5,3.51c6.15,2.65,11.36,5,16.34,7.67-3.48,0-6.68.51-8.73,2.15l-3.59,2.88,4.53.82c9.78,1.76,16.81,3.79,22,8-3.74-.73-7.76-.83-10.89.68l-5.76,2.79,6.29,1.16a75.68,75.68,0,0,1,18,5.45,44.46,44.46,0,0,0-5.56.7l-7,2.24,7.13,1.9c12.15,1.68,21.33,5.43,30.62,12.47.38.69,5.91-14.78,5.91-14.78l-9.86-12.3c-1.14-4.74-2.57-8.06-4.38-10.06l-3.56-4s-.07,4.18-.09,4.9a91.21,91.21,0,0,0-6.16-10.23l-3.33-4.93s-.56,6.63-.58,6.82l-2.1-3.37a73.43,73.43,0,0,1-4.81-8.25l-2.85.86a69.93,69.93,0,0,1-7.26-17.3l-3.18.24a125.86,125.86,0,0,1-1.27-14.53l-4.17-.27s-.21,1.37-.26,1.75c-.21-2.13-.37-4.32-.44-6.61l-3.75-.13a71.46,71.46,0,0,0-5-16.56s-2.94-5-4.46-6.08c-.13,0,2.22,6.71,2.08,6.75-3.23-11.32-6.71-19.53-10.41-24.34l-5-6.46s.54,3.6.89,5.91a15.6,15.6,0,0,0-3.82-4.51l-2.28-1.63-.33,1c-1.75-7.65-5-11.92-8.28-16.09l-1.57-2.05s-1-1.55-7-4.94c3.72,5.29,4.79,6.37,4.59,6.5-8.66-12.38-19.31-17-29.8-19.89A28.23,28.23,0,0,0,162.48,367.83Z" transform="translate(-21.47 -144.73)"/><path class="cls-8" d="M432.5,367.83c-3,1-7.46,3.54-7.39,3.75,10.64-3.86,14.26-2.57,20.25-1.75a32.79,32.79,0,0,1,8,4.17,53.1,53.1,0,0,0-7.95,0c-1.48.22-3,.52-4.48.87,8.09-.91,15.54,1.63,23.27,4.87,0,0,3.41,1.94,3.41,4.32-2.51-.89-4.53-.95-4.62-.69a31.06,31.06,0,0,1,11.76,7.43,9,9,0,0,1,2.13,4.69c-2.13-1.06-4-2.53-4.26-2.22a33.06,33.06,0,0,1,9.92,14.24s.21,3.64-1.88,5.73l-1.89-3.91c-3.48-5.89-8.39-9.84-12.5-10-.14,0-.28,0-.42,0a19.8,19.8,0,0,1,8.41,5.33c4.53,4.88,6.95,11.95,6.95,20.16,0,1.07,0,2.16-.12,3.26,0,0-.85,5.35-4.18,7.45a37.53,37.53,0,0,0,0-7.32,41.87,41.87,0,0,0-2.83-10.77A46.34,46.34,0,0,1,475.84,431q0,3.38-.26,7s-.66,3.92-2.9,6.15a16.47,16.47,0,0,0-1.28-6.07c0-.12,0-.45-.11-.91,0,.17,0,.34,0,.5,0,5.9-1.19,11-3.3,14.06l-3.83,5.59v-6.77c0-1.31,0-2.51,0-3.76a77,77,0,0,1-1.82,8.43,16.55,16.55,0,0,1-3.15,5.7,25.52,25.52,0,0,1-1-6.16c-.64-14.24-2.06-25.92-5.9-35.29a103.81,103.81,0,0,1,3.56,24.22,25.94,25.94,0,0,1-2.11,9,47.2,47.2,0,0,1-2-8.43c-2.36-9.67-4.83-17.24-8.56-23.63a88.49,88.49,0,0,1,3,12.33s1.59,11.52.43,11.52a94.91,94.91,0,0,1-4.5-10.52c-2.7-8.73-6.71-15.55-11.76-20.43,5,6.4,8.09,13.31,8.7,20.09l.66,7.3-6.64-8.78c-3.33-4.44-6.47-8.56-10.15-11.88a38.51,38.51,0,0,1,5,8.79,29.61,29.61,0,0,1,1,8,63.87,63.87,0,0,0-4.56-5.89c-4.06-5.17-9-10.23-16.76-11.07,4.67,2.13,8.28,6.06,12,11.47,0,0,2.43,3.39,2.43,6.57l-5.34-3.65c-4.9-3.33-10.51-6.1-16.9-5.31,5,1.23,9.56,4.2,13.45,7.2a16.87,16.87,0,0,1,5,5.63l-6.75-1.92a87.57,87.57,0,0,0-17.55-1.95,27.66,27.66,0,0,1,4.44,3l3.64,3.05-4.71.64c-9.94,1.35-18.3,5.39-23.86,11.3a45.18,45.18,0,0,1,12.27.58s4.51,1.32,6.85,3.13c-.91.35-7.21,1-7.21,1a47.48,47.48,0,0,0-12.37,1.39,29.13,29.13,0,0,1,3.9.36,40.74,40.74,0,0,1,8.27,2.28c-.18.18-8.23,1.83-8.23,1.83-6.65,1.41-12.35,5.12-17.66,11.44a17.45,17.45,0,0,1,9.45,1.44l5.46,2.75-6,1.18a33.57,33.57,0,0,0-14.77,7.14,35,35,0,0,1,10.63-1s6.18.11,6.18.51a32.81,32.81,0,0,1-5.51,3.51c-6.14,2.65-11.35,5-16.33,7.67,3.48,0,6.67.51,8.72,2.15l3.6,2.88-4.54.82c-9.77,1.76-16.8,3.79-22,8,3.74-.73,7.77-.83,10.89.68l5.77,2.79-6.3,1.16a75.73,75.73,0,0,0-18,5.45,44.06,44.06,0,0,1,5.55.7l7,2.24-7.14,1.9c-12.14,1.68-21.32,5.43-30.62,12.47-.38.69-5.9-14.78-5.9-14.78s9.34-11.65,9.85-12.3c1.15-4.74,2.58-8.06,4.38-10.06l3.56-4s.08,4.18.09,4.9a92.72,92.72,0,0,1,6.17-10.23l3.33-4.93s.56,6.63.58,6.82c1-1.6,2.1-3.37,2.1-3.37a75,75,0,0,0,4.81-8.25l2.85.86a69.88,69.88,0,0,0,7.25-17.3l3.19.24a123.72,123.72,0,0,0,1.26-14.53l4.17-.27.27,1.75c.21-2.13.37-4.32.44-6.61l3.75-.13a72,72,0,0,1,5-16.56s2.94-5,4.46-6.08c.14,0-2.21,6.71-2.08,6.75,3.24-11.32,6.72-19.53,10.41-24.34l5-6.46s-.55,3.6-.9,5.91a15.91,15.91,0,0,1,3.82-4.51l2.29-1.63s.17.52.33,1c1.74-7.65,5-11.92,8.27-16.09l1.57-2.05s1-1.55,7-4.94c-3.72,5.29-4.79,6.37-4.58,6.5,8.65-12.38,19.3-17,29.8-19.89A28.15,28.15,0,0,1,432.5,367.83Z" transform="translate(-21.47 -144.73)"/><path class="cls-10" d="M295.28,541.07c-10.29-7.87-20-11.45-31.93-13.1,4.38-.83,9.93-1.58,15.09,1.09-5.15-4.76-14.34-8.92-27.53-11.36,4.42-2.14,12.08-.53,16.8,1.87-6.11-9.3-15.42-12.13-28.47-14.47,3.27-2.63,11.17-1.76,17.11-.47-7.59-5.11-14.66-8.37-25.21-12.91a37.15,37.15,0,0,1,19.14,4.35c-7.65-8.59-14.84-13-23-14.62,4.1-2.06,9.84-1.73,13.7,0-6-8.75-13-14.83-22.41-16.81a26.33,26.33,0,0,1,11.83.47c-1.29-3.35-8.2-6.38-20.7-6.38,5.46-1,13.11-1.45,17.43,1.09-5.45-9.21-16-15.34-29.1-17.12a26.7,26.7,0,0,1,18.21-6.07c-11-1.2-23.75-.81-33.14,1.4,7.39-5.7,16.22-10.56,25.67-4.66-12.39-10.44-22.94-6.49-31.59-.63,6.56-9.58,12.51-14.6,27.08-11.35-18.64-8.28-27.85-.95-35.25,8.47,4-9.77,10.8-15.89,19.06-19.06-15.24,1.66-21.85,12.33-30,23,.92-10.17,8-21.31,19.76-30-12.66,3.11-21.88,13.34-26.91,29.57,1.84-10.12,4.29-20,13.22-28.95-14.07,10-18.67,22.16-22.87,39.37.61-16,3.77-28,9.8-40.14-12.69,11.63-15.35,29.19-16.33,51-3.87-14.13-3.53-25.94,1.86-41.39-6.77,6.62-7.84,19.48-7.84,37.28-7.64-11.16-1.6-54.27,34.14-54.27,30,0,50.72,28.17,50.72,28.17l1.59-3.05S196.72,394,166.13,394c-40.25,0-44.63,43.9-44.63,43.9-.91-13.54.11-23.9,9.51-32.81-8.22,2.24-13.25,10.15-15,22.8-1.29-17.24,8.08-27.55,19.14-27.55-4.76-6.47-14.51-2.59-20.72,7.92,5-12.92,15.7-21.64,27.55-14.39-4.88-6.58-13-6.93-20.24-1.58,9.76-9.75,23.06-11.83,36.7-2.56-4.88-8.9-12.9-11.52-26.82-8.05,15.23-6.39,27.31-8.61,44.14,6.7-1.52-9-13-14.5-25.85-16.46,15-2.06,28.56,1.43,42,21.95.55-8.89-7-17.41-21.22-23.9,14.78,4.07,27.34,11.37,36,32.93,1.64-3.29-1.34-9-4.88-15.37,4.64,6.22,9.87,11.21,10.61,26l2.32-6.7c2.59,1.83,5.58,7.46,9.14,15.85l-1.7-11.22c5.53,7.21,10.31,21.88,14.38,41.34l-1.82-18.05c3.17,6.72,5.72,17.53,6.94,31.7l1.59-15.85A81.91,81.91,0,0,0,245.87,470l2.2-14.27a114.9,114.9,0,0,0,3.41,25.61l1.1-10.85c2,7.94,5.18,14.21,11.34,24.51l-1.1-7.68c2.21,4.64,4.62,7.66,10.37,17.19l.61-7.19a89.79,89.79,0,0,1,8.29,14.63c1.15-1.09,1.65-1.94,1.7-5.12,1.66,1.83,3,5.12,4,9.63l9.67,12.07v16.6Z" transform="translate(-21.47 -144.73)"/><path class="cls-10" d="M299.71,541.07c10.28-7.87,20-11.45,31.92-13.1-4.37-.83-9.93-1.58-15.09,1.09,5.15-4.76,14.34-8.92,27.54-11.36-4.42-2.14-12.09-.53-16.8,1.87,6.1-9.3,15.42-12.13,28.47-14.47-3.27-2.63-11.17-1.76-17.12-.47,7.6-5.11,14.66-8.37,25.21-12.91a37.17,37.17,0,0,0-19.14,4.35c7.66-8.59,14.84-13,23-14.62-4.09-2.06-9.84-1.73-13.69,0,6-8.75,13-14.83,22.4-16.81a26.3,26.3,0,0,0-11.82.47c1.28-3.35,8.19-6.38,20.69-6.38-5.45-1-13.1-1.45-17.42,1.09,5.45-9.21,16-15.34,29.09-17.12a26.66,26.66,0,0,0-18.2-6.07c11-1.2,23.74-.81,33.14,1.4-7.39-5.7-16.23-10.56-25.67-4.66,12.38-10.44,22.94-6.49,31.58-.63-6.56-9.58-12.5-14.6-27.07-11.35,18.63-8.28,27.84-.95,35.24,8.47-4-9.77-10.8-15.89-19.06-19.06,15.25,1.66,21.85,12.33,30,23-.92-10.17-8-21.31-19.76-30,12.67,3.11,21.88,13.34,26.92,29.57-1.85-10.12-4.29-20-13.23-28.95,14.08,10,18.67,22.16,22.87,39.37-.6-16-3.77-28-9.8-40.14,12.69,11.63,15.35,29.19,16.34,51,3.87-14.13,3.52-25.94-1.87-41.39,6.78,6.62,7.85,19.48,7.85,37.28,7.63-11.16,1.6-54.27-34.15-54.27-30,0-50.72,28.17-50.72,28.17l-1.58-3.05s18.42-27.43,49-27.43c40.26,0,44.64,43.9,44.64,43.9.91-13.54-.12-23.9-9.51-32.81,8.21,2.24,13.24,10.15,15,22.8,1.28-17.24-8.09-27.55-19.15-27.55,4.76-6.47,14.52-2.59,20.73,7.92-5-12.92-15.71-21.64-27.56-14.39,4.89-6.58,13-6.93,20.24-1.58-9.75-9.75-23.05-11.83-36.7-2.56,4.88-8.9,12.9-11.52,26.83-8.05-15.24-6.39-27.31-8.61-44.14,6.7,1.51-9,13-14.5,25.85-16.46-15-2.06-28.57,1.43-41.95,21.95-.55-8.89,7-17.41,21.22-23.9-14.78,4.07-27.35,11.37-36,32.93-1.63-3.29,1.35-9,4.88-15.37-4.64,6.22-9.87,11.21-10.61,26l-2.31-6.7c-2.59,1.83-5.58,7.46-9.15,15.85l1.71-11.22c-5.54,7.21-10.32,21.88-14.39,41.34l1.83-18.05c-3.17,6.72-5.73,17.53-6.95,31.7l-1.58-15.85A81.89,81.89,0,0,1,349.11,470l-2.19-14.27a115.46,115.46,0,0,1-3.42,25.61l-1.09-10.85c-2.05,7.94-5.19,14.21-11.35,24.51l1.1-7.68c-2.21,4.64-4.62,7.66-10.36,17.19l-.61-7.19a89.79,89.79,0,0,0-8.29,14.63c-1.16-1.09-1.65-1.94-1.71-5.12-1.65,1.83-3,5.12-4,9.63l-9.68,12.07v16.6Z" transform="translate(-21.47 -144.73)"/><path class="cls-8" d="M324,596.11a2.49,2.49,0,0,0-.73-1c-6.56-23.12-16.94-51.82-21.48-56.35-7.61-9-15.83-16.82-23.78-24.36-7-6.67-13.66-13-19.92-20-11.58-13.08-19.28-28-26.72-42.4-4.83-9.34-9.39-18.17-14.67-25.78l-1.94,1.11,4.13,9c11.62,25.43,19.3,42.23,39.86,66.3,3.06,3.58,7.61,8.4,12.42,13.51,9.33,9.88,19.9,21.09,24.69,28.47,10.77,16.58,16.06,38,20.16,58.76a6.51,6.51,0,0,0,.25,3.45,2.29,2.29,0,0,0,1.28,1.29c2.24.87,4.6-2.18,5.84-5.38C324.42,600.11,324.65,597.57,324,596.11Z" transform="translate(-21.47 -144.73)"/><path class="cls-11" d="M317.92,600.6c-1.2,3.1-1.18,6,.05,6.47s3.19-1.65,4.39-4.75,1.18-6,0-6.47S319.13,597.5,317.92,600.6Z" transform="translate(-21.47 -144.73)"/><path class="cls-12" d="M316.88,600.2c1.11-2.85,3.1-5.58,5.1-5.53-6.64-23.21-16.75-50.88-21-55.09-14.22-16.82-30.14-29.08-43.75-44.46C238,473.34,229.07,446,215.79,426.84c14,30.31,21,48.35,43.82,75.07,8.83,10.33,29.81,30.71,37.2,42.09,10.55,16.24,15.83,36.91,19.85,56.82C316.73,600.61,316.8,600.41,316.88,600.2Z" transform="translate(-21.47 -144.73)"/><path class="cls-13" d="M322,594.67c-6.64-23.21-16.75-50.88-21-55.09-14.22-16.82-30.14-29.08-43.75-44.46C238,473.34,229.07,446,215.79,426.84c10,18.18,19.57,42.06,34.53,61.81,14.61,19.3,35,34,48.41,53,6,8.51,8.91,18.12,12.23,27.89,3,9,6.48,18.08,8.36,26.61A3.71,3.71,0,0,1,322,594.67Z" transform="translate(-21.47 -144.73)"/><path class="cls-8" d="M271,596.11a2.4,2.4,0,0,1,.73-1c6.56-23.12,16.94-51.82,21.47-56.35,7.62-9,15.84-16.82,23.79-24.36,7-6.67,13.65-13,19.92-20,11.58-13.08,19.27-28,26.72-42.4,4.83-9.34,9.38-18.17,14.67-25.78l1.94,1.11-4.14,9c-11.62,25.43-19.29,42.23-39.86,66.3-3.05,3.58-7.6,8.4-12.42,13.51-9.32,9.88-19.9,21.09-24.69,28.47-10.76,16.58-16.05,38-20.16,58.76a6.63,6.63,0,0,1-.24,3.45,2.29,2.29,0,0,1-1.28,1.29c-2.24.87-4.6-2.18-5.85-5.38C270.57,600.11,270.34,597.57,271,596.11Z" transform="translate(-21.47 -144.73)"/><path class="cls-11" d="M277.06,600.6c1.2,3.1,1.19,6,0,6.47s-3.19-1.65-4.39-4.75-1.19-6,0-6.47S275.86,597.5,277.06,600.6Z" transform="translate(-21.47 -144.73)"/><path class="cls-12" d="M278.1,600.2c-1.1-2.85-3.09-5.58-5.09-5.53,6.63-23.21,16.75-50.88,21-55.09,14.23-16.82,30.15-29.08,43.76-44.46C357,473.34,365.91,446,379.2,426.84c-14,30.31-21,48.35-43.83,75.07-8.82,10.33-29.81,30.71-37.2,42.09-10.54,16.24-15.83,36.91-19.85,56.82C278.25,600.61,278.18,600.41,278.1,600.2Z" transform="translate(-21.47 -144.73)"/><path class="cls-13" d="M273,594.67c6.63-23.21,16.75-50.88,21-55.09,14.23-16.82,30.15-29.08,43.76-44.46C357,473.34,365.91,446,379.2,426.84c-10,18.18-19.58,42.06-34.54,61.81-14.61,19.3-35,34-48.41,53-6,8.51-8.91,18.12-12.22,27.89-3,9-6.48,18.08-8.36,26.61A3.71,3.71,0,0,0,273,594.67Z" transform="translate(-21.47 -144.73)"/><path class="cls-8" d="M200.63,368.94c0,10.9,3.68,19.44,6.92,27,2.78,6.46,5.41,12.57,5.41,19.28,0,3.91-2,8.13-5.16,8.13a3,3,0,0,1-3.14-2.89c0-.87.71-2.62,1.66-2.62l1.25.15,1.41.16c1.15,0,2.49-.77,2.49-2.93,0-1.46-2-3-5.24-3-3.48,0-7.17,2.81-7.17,8,0,4.83,3.71,10.05,9.7,10.05,4.84,0,10.06-5.28,10.06-13.81,0-10-2.37-15.94-4.88-22.23-2.63-6.61-5.35-13.43-5.35-25.85,0-10.61,9.56-19.14,17.48-19.14,10.28,0,13.64,10.07,13.64,13.54,0,1.63-1.33,4.2-4.9,4.2-2.13,0-3.4-.95-3.4-2.53,0-.88.72-1.55,1.75-2.39.81-.67,1.65-1.35,1.65-2.42a2.81,2.81,0,0,0-2.79-2.62c-2.94,0-5.42,4.51-5.42,7.34,0,4.92,4.31,7.87,8.48,7.87,7.36,0,10.66-5.8,10.66-11.54,0-11.9-7.38-19.58-18.79-19.58C216.19,341.15,200.63,351,200.63,368.94Z" transform="translate(-21.47 -144.73)"/><path class="cls-8" d="M349.24,360.73c0,5.74,3.3,11.54,10.67,11.54,4.17,0,8.48-2.95,8.48-7.87,0-2.83-2.48-7.34-5.42-7.34a2.82,2.82,0,0,0-2.8,2.62c0,1.07.84,1.75,1.65,2.42,1,.84,1.76,1.51,1.76,2.39,0,1.58-1.27,2.53-3.41,2.53-3.57,0-4.89-2.57-4.89-4.2,0-3.47,3.35-13.54,13.63-13.54,7.92,0,17.49,8.53,17.49,19.14,0,12.42-2.72,19.24-5.36,25.85-2.5,6.29-4.87,12.23-4.87,22.23,0,8.53,5.22,13.81,10.05,13.81,6,0,9.71-5.22,9.71-10.05,0-5.23-3.7-8-7.17-8-3.29,0-5.25,1.51-5.25,3,0,2.16,1.34,2.93,2.49,2.93l1.42-.16,1.25-.15c.94,0,1.66,1.75,1.66,2.62a3,3,0,0,1-3.15,2.89c-3.18,0-5.15-4.22-5.15-8.13,0-6.71,2.62-12.82,5.41-19.28,3.24-7.53,6.91-16.07,6.91-27,0-17.9-15.56-27.79-26.31-27.79C356.62,341.15,349.24,348.83,349.24,360.73Z" transform="translate(-21.47 -144.73)"/><path class="cls-8" d="M361.25,452.49c0,14.12-12.11,38.19-24.45,48.58-4.9,4.13-12.44,6.49-18.5,8.39l-6.28,2.1c-8.15,3.19-12.17,5.91-14.53,10.1-2.35-4.19-6.37-6.91-14.52-10.1l-6.28-2.1c-6.06-1.9-13.61-4.26-18.51-8.39-12.34-10.39-24.44-34.46-24.44-48.58,0-15.13-6.87-26.11-16.32-26.11a10.78,10.78,0,0,0-7,2.5,7.2,7.2,0,0,0-2.76,5.19c0,4.71,3,6.41,5.07,6.41a2.78,2.78,0,0,0,2.07-.66,2.64,2.64,0,0,0,.61-2.08v-1.06l-.76-.41a1.68,1.68,0,0,1-.87-1.32c0-.72,0-1.81,3.44-1.81,4.9,0,9.84,5.46,9.84,17.66,0,22,12.57,45.79,24.39,57,5.87,5.57,13.34,8.19,19.92,10.5,2.61.91,5.07,1.78,7.21,2.75,11.35,5.16,16.92,10.21,17.55,15.9l1.39,5,1.39-5c.63-5.69,6.21-10.74,17.55-15.9,2.14-1,4.61-1.84,7.21-2.75,6.59-2.31,14.05-4.93,19.92-10.5,11.83-11.23,24.39-35,24.39-57,0-12.13,5.1-17.66,9.85-17.66,3.44,0,3.44,1.09,3.44,1.81a1.66,1.66,0,0,1-.88,1.32l-.73.39,0,.85v.23a2.63,2.63,0,0,0,.6,2.08,2.8,2.8,0,0,0,2.08.66c2,0,5.07-1.7,5.07-6.41a7.2,7.2,0,0,0-2.76-5.19,10.8,10.8,0,0,0-7-2.5C368.11,426.38,361.25,437.36,361.25,452.49Z" transform="translate(-21.47 -144.73)"/><path class="cls-14" d="M234.2,325.91c0,.46-.46.69-.46,1.39s1.32,1.69,2,1.69c1.51,0,1.71-1.34,1.71-2.73A3.33,3.33,0,0,0,234.2,323c-3.84,0-7.22,4-7.22,8,0,5.7,3.46,12.71,10.14,12.71,10.68,0,12-11.66,34.85-11.66,1.26,0,6.23.48,6.23,6.24s-5.75,8.1-7.52,8.1a4.14,4.14,0,0,1-4.37-4.37c0-1.25.59-1.28,1.29-1.28s1.22-.63,1.22-1.58c0-1.19-2.05-2.72-3.15-2.72-2.05,0-3.73,2.52-3.73,5.52a9,9,0,0,0,9.21,8.63c6.94,0,12.12-6.42,12.12-13.88,0-5.74-5.53-12.7-14.8-12.7-13.11,0-21.07,9.91-31.12,9.91-4.11,0-7.46-1.59-7.46-4.55,0-1.51,1.4-3.85,3-3.85C234.09,325.55,234.2,325.44,234.2,325.91Z" transform="translate(-21.47 -144.73)"/><path class="cls-14" d="M360.78,325.91c0,.46.47.69.47,1.39s-1.32,1.69-2,1.69c-1.52,0-1.71-1.34-1.71-2.73a3.33,3.33,0,0,1,3.26-3.27c3.85,0,7.23,4,7.23,8,0,5.7-3.47,12.71-10.14,12.71-10.68,0-12-11.66-34.85-11.66-1.27,0-6.24.48-6.24,6.24s5.76,8.1,7.52,8.1a4.13,4.13,0,0,0,4.37-4.37c0-1.25-.58-1.28-1.28-1.28s-1.22-.63-1.22-1.58c0-1.19,2.05-2.72,3.14-2.72,2.06,0,3.73,2.52,3.73,5.52a9,9,0,0,1-9.21,8.63c-6.93,0-12.12-6.42-12.12-13.88,0-5.74,5.54-12.7,14.81-12.7,13.11,0,21.06,9.91,31.12,9.91,4.11,0,7.45-1.59,7.45-4.55,0-1.51-1.39-3.85-3-3.85C360.9,325.55,360.78,325.44,360.78,325.91Z" transform="translate(-21.47 -144.73)"/><path class="cls-14" d="M232,358.45c-1.84,0-4,3.5-4,5.95,0,4.37,3.93,6.47,7.08,6.47,6.64,0,9.26-5.25,9.26-10.14,0-10.84-6.55-18.19-17.39-18.19-10.23,0-24.92,9.45-24.92,26.4,0,19.85,12.33,31.21,12.33,46.25,0,4.46-2.36,9.53-6.56,9.53a4.35,4.35,0,0,1-4.54-4.29c0-1.39,1.05-4,3.06-4,.87,0,2,.31,2.66.31s1.1-.48,1.1-1.53c0-.44-1.14-1.58-3.85-1.58s-5.77,2.19-5.77,6.65c0,3.85,2.88,8.65,8.3,8.65,4.29,0,8.66-5.07,8.66-12.41,0-20.37-10.23-23.78-10.23-48.08,0-11.54,10.49-20.54,18.88-20.54,10.93,0,15,10.57,15,14.94,0,2.45-2,5.6-6.3,5.6-3.23,0-4.8-1.84-4.8-3.93,0-2.63,3.41-3.76,3.41-4.81A1.43,1.43,0,0,0,232,358.45Z" transform="translate(-21.47 -144.73)"/><path class="cls-14" d="M363,358.45c1.83,0,4,3.5,4,5.95,0,4.37-3.93,6.47-7.08,6.47-6.64,0-9.27-5.25-9.27-10.14,0-10.84,6.56-18.19,17.4-18.19,10.23,0,24.91,9.45,24.91,26.4,0,19.85-12.32,31.21-12.32,46.25,0,4.46,2.36,9.53,6.55,9.53a4.35,4.35,0,0,0,4.55-4.29c0-1.39-1.05-4-3.06-4-.87,0-2,.31-2.67.31s-1.09-.48-1.09-1.53c0-.44,1.14-1.58,3.85-1.58s5.77,2.19,5.77,6.65c0,3.85-2.89,8.65-8.31,8.65-4.28,0-8.65-5.07-8.65-12.41,0-20.37,10.23-23.78,10.23-48.08,0-11.54-10.49-20.54-18.89-20.54-10.92,0-15,10.57-15,14.94,0,2.45,2,5.6,6.29,5.6,3.24,0,4.81-1.84,4.81-3.93,0-2.63-3.41-3.76-3.41-4.81A1.42,1.42,0,0,1,363,358.45Z" transform="translate(-21.47 -144.73)"/><path class="cls-14" d="M297.49,536.82c.74-6.63,7.09-11.9,18.36-17,7.59-3.45,18.8-5.44,26.75-13,12.14-11.53,23.95-35.43,23.95-56,0-13.49,5.95-19.06,11.25-19.06,4,0,4.84,1.46,4.84,3.21a3.08,3.08,0,0,1-1.64,2.56c0,1.13-.11,1.57,1.29,1.57s3.67-1.07,3.67-5c0-2.62-3.26-6.29-8.39-6.29-9,0-14.92,11.1-14.92,24.71,0,14.78-12.44,39.11-24.94,49.65-7,5.9-18.7,8.19-25.18,10.72-9.69,3.79-13.12,6.75-15,12.13-1.91-5.38-5.34-8.34-15-12.13-6.49-2.53-18.18-4.82-25.18-10.72-12.51-10.54-24.94-34.87-24.94-49.65,0-13.61-5.92-24.71-14.92-24.71-5.13,0-8.39,3.67-8.39,6.29,0,3.94,2.36,5,3.67,5s1.28-.44,1.28-1.57a3.08,3.08,0,0,1-1.63-2.56c0-1.75.87-3.21,4.84-3.21,5.3,0,11.24,5.57,11.24,19.06,0,20.57,11.81,44.47,24,56,7.95,7.56,19.16,9.55,26.74,13C290.4,524.92,296.76,530.19,297.49,536.82Z" transform="translate(-21.47 -144.73)"/><path class="cls-14" d="M283.42,337.74s3-3.76,4.63-3.76c3.06,0,5.32,3.06,5.32,7.43,0,3.76-.68,8-3.92,8-2.45,0-4.54-3.85-4.54-3.85s2.71,1.58,4.45,1.58c2.19,0,2.44-2.54,2.44-4.9s-2.17-5.77-4.18-5.77A14.42,14.42,0,0,0,283.42,337.74Z" transform="translate(-21.47 -144.73)"/><path class="cls-14" d="M311.57,337.74s-3-3.76-4.64-3.76c-3.06,0-5.32,3.06-5.32,7.43,0,3.76.69,8,3.93,8,2.44,0,4.54-3.85,4.54-3.85s-2.71,1.58-4.46,1.58c-2.18,0-2.43-2.54-2.43-4.9s2.17-5.77,4.18-5.77A14.42,14.42,0,0,1,311.57,337.74Z" transform="translate(-21.47 -144.73)"/><path class="cls-14" d="M297.49,336.25a5.95,5.95,0,1,0,5.95,5.94A5.94,5.94,0,0,0,297.49,336.25Zm0,10.14a4.2,4.2,0,1,1,4.2-4.2A4.2,4.2,0,0,1,297.49,346.39Z" transform="translate(-21.47 -144.73)"/><path class="cls-15" d="M242,370.27v77.55c0,44.76,40.24,39.87,55.51,59,15.27-19.11,55.51-14.22,55.51-59V370.27Zm104.73,77.55c0,25.4-13.9,31.75-30,39.11-6.72,3.08-13.6,6.24-19.23,11-5.62-4.72-12.51-7.88-19.23-11-16.09-7.36-30-13.71-30-39.11V376.57h98.43Z" transform="translate(-21.47 -144.73)"/><path class="cls-16" d="M344.61,378.67v69.15c0,24.05-12.69,29.85-28.76,37.2-6,2.73-12,5.55-17.31,9.44V378.67Zm-48.17,0H250.38v69.15c0,24.05,12.69,29.85,28.76,37.21,5.95,2.72,12,5.54,17.3,9.43Z" transform="translate(-21.47 -144.73)"/><path class="cls-8" d="M267.89,396.66V407H256.52v12.24h11.37v44.58h12.24V419.21h11.36V407H280.13V396.66Z" transform="translate(-21.47 -144.73)"/><polygon class="cls-17" points="268.63 263.64 257.26 263.64 257.26 253.33 247.82 253.33 247.82 263.64 236.45 263.64 236.45 273.08 247.82 273.08 247.82 317.67 257.26 317.67 257.26 273.08 268.63 273.08 268.63 263.64"/><path class="cls-18" d="M314.76,409.19c-1.67.71-4.74,5.9-8.69,13.92.12-6.81,1.47-9.74,4.64-13.92-2,.45-6.29,6.38-10.46,14.22,2-9.88,3.34-13.12,9.18-19.65-3.46-.65-6.83,2.91-11.16,7.3,1.73-6.47,7.6-11.33,12.64-10.56-3.63-3.64-6-2.59-10.47,1.18,1.88-7.31,11.36-7.9,14.32-4.94.41-2.82,1.18-4.68,2.27-5.63.85.85,1.53,1.56,1.59,5.24,5-5,13.72-2.47,16.79,2.17-3.76-1.63-8.13-1.63-10.48.59,6.82,1.36,11.26,7.61,11.26,17.09-2.6-5.1-8.17-11.48-12.14-11,2.76,3.75,4.62,11.06,3.45,16.59-3.65-6.85-5.58-11.82-8.19-12.64,0,1.48.42,5.28-.6,8.49-1.59-3.45-2.36-4.86-2.76-9.38Z" transform="translate(-21.47 -144.73)"/><path class="cls-19" d="M302.62,463.91h29.82c0-1.52-3.26-2.35-8.39-2.77H308.54C305.38,461.63,303.6,462.62,302.62,463.91Z" transform="translate(-21.47 -144.73)"/><path class="cls-20" d="M321.86,461.14c-2-17.56-3.08-31.94-3.69-44.64a20.24,20.24,0,0,1-2.22-8.2l-1.19.89a2.77,2.77,0,0,0-.76.54,390.4,390.4,0,0,1-4.33,51.41Z" transform="translate(-21.47 -144.73)"/><path class="cls-8" d="M221,444.89l.45-.51.91-1.09a4.94,4.94,0,0,0,.73-2.65,4.23,4.23,0,0,0-.9-2.75,3,3,0,0,0-3.62-.68,9.21,9.21,0,0,0-4.59,5,2.51,2.51,0,0,0-1.89-.91l-.45-.07-.54-.27-1.59-.63-1.47,0h-.87l-.54-.25-1.17-.5-2.22-.15h-.58l-.93,0c-1.71-.05-3.65-.11-5.24,1.32-2.09,1.91-4.79,4.83-4.79,8.79,0,.29,0,.59.05.89a9.6,9.6,0,0,0,1.52,4.61l.16.28a8.14,8.14,0,0,0,2.06,2.53c.51.36,1,.34,1.56.63a16.61,16.61,0,0,1,1.52,1.28,10.58,10.58,0,0,1,1.65,1.49c.46.55.52,1.23.94,1.8a5.4,5.4,0,0,0,1.8,1.35,1.52,1.52,0,0,1,.63,1.54c0,.58-.14.55-.49,1a16.31,16.31,0,0,0-2.19,3.92l-1,2.34c-.87,1.32-.83,3.14-.79,4.63v1.47l-.39,2.32-.47,3.23-.25,2.84-.28,3.18c0,1.08-.45,1.5-1.43,2.45l-1,1-2.63,2.6a3.45,3.45,0,0,1-1.34.71,4.6,4.6,0,0,0-1.69,1,2.23,2.23,0,0,0-.62,1.84,13.24,13.24,0,0,1-.79,2.58,13.15,13.15,0,0,0-.64,3v.25a2.71,2.71,0,0,1-.24,1.29L187,508a3.81,3.81,0,0,0-.8,2.41l.07,1.19.08,1.4,0,.85a7,7,0,0,0,.47,3.65l.36.69.76.06a2.74,2.74,0,0,0,3.11-1.87l.29-.61.68-1.7a4.55,4.55,0,0,1,.6-1.51l.32-.54.8.35.31.1a9.14,9.14,0,0,0,3.3.63,5.38,5.38,0,0,0,3.44-.64c0,.44,0,.88,0,1.32l.06,1.6v5.24l0,.91c0,.26,0,.72,0,1.21a4.15,4.15,0,0,1-.31,2l-.34.21a2.4,2.4,0,0,0-1.4,2.09,26.29,26.29,0,0,0-.3,3.74,10.7,10.7,0,0,0,.25,2.53,5.08,5.08,0,0,0,1.85,2.45l.71.66,1.93,2.62.78,1.42a8.64,8.64,0,0,0,2.74,3.59,5.07,5.07,0,0,0,4.32.58c2-.78,2-2.09,2-3.25l0-.8-.06-2.19a6.43,6.43,0,0,0-1.21-2.36l-.25-.35a11.53,11.53,0,0,1-2.07-4.16l-.49-3.7-.08-.92-.13-1a11.49,11.49,0,0,1-.16-1.55,2.82,2.82,0,0,1,.16-1l.82-1.32.8-1.19,1.4-2.26a21.46,21.46,0,0,0,3.4-7.2,4.76,4.76,0,0,0,.09-.91,8.21,8.21,0,0,0-.38-2.19,5.91,5.91,0,0,1-.26-1.34,1.06,1.06,0,0,1,.08-.45,6.61,6.61,0,0,1,1.25-1.57L217.6,503l1.63-3.22.73-1.58a13.39,13.39,0,0,0,1.55-4.35,25.11,25.11,0,0,0,.21-3.22,14.59,14.59,0,0,0-1.08-5.93,9.35,9.35,0,0,1-.9-3.51,1.84,1.84,0,0,1,.35-1.24l.16-.17a4.93,4.93,0,0,0,1.73-3.3c0-.39.05-.78.05-1.18a13.32,13.32,0,0,0-.27-2.65,9.16,9.16,0,0,0-1.64-3.29,8.56,8.56,0,0,1-.86-1.71,4.53,4.53,0,0,1-.14-1.28,11.13,11.13,0,0,1,0-2,6,6,0,0,1,.59-1.45,8.37,8.37,0,0,0,.53-3.21c0-.56,0-1.11,0-1.64l-.05-1.41v-7.55L220,448a5.51,5.51,0,0,1-.1-.82,1.27,1.27,0,0,1,0-.34A5.22,5.22,0,0,1,221,444.89Z" transform="translate(-21.47 -144.73)"/><path class="cls-21" d="M200.13,511.11c-.65.69-1.83.63-2.8.59a8,8,0,0,1-2.81-.53,7.06,7.06,0,0,1-1.16-.43c-.28-.21-.32-.6-.66-.78-.57.32-.93,1.25-1.31,1.78a6.13,6.13,0,0,0-.81,2,12.48,12.48,0,0,1-.89,2.1,1.39,1.39,0,0,1-1.72,1c-.56-1.07-.27-2.66-.27-3.85,0-.89-.12-1.77-.15-2.64s.51-1.39,1-2.23a4.54,4.54,0,0,0,.41-2.12c.07-1.32.89-3.34,2.47-3.07s3.12,1.68,4.42,2.47c.74.46,1.51.89,2.22,1.38s1.32.93,2,1.36a1.23,1.23,0,0,1,.72,1.27A2.5,2.5,0,0,1,200.13,511.11Zm4.26-9.64a6.72,6.72,0,0,1,1.14-2c.91-1.2.43-3.61.44-5.07,0-1.18-.64-1.54-1.38-.52-.51.69-.92,1.34-1.44,2a19.66,19.66,0,0,0-2.93,4.87c-.39.94-1.07,1.15-1.71,1.88s-1.79,2-1,2.78c.38.37,1.56.53,2.07.81.72.39,1.39.86,2.08,1.31-.12-1.58.73-2.69,1.43-4A21.49,21.49,0,0,0,204.39,501.47Zm-11,1.42c.5.36.9.76,1.42,1.12s1.3.45,1.92.79c1-.67.37-1.68.44-2.63a3.87,3.87,0,0,1,1.07-2.34c.9-.95,1.77-2,2.69-3a21.24,21.24,0,0,0,2.1-2.35c.74-1.09.46-2.62.68-3.84s-.2-2.59-.14-3.89c.05-1-.44-2.54.18-3.29.86-1,2.24-1.69,3-2.79a6.7,6.7,0,0,0,.67-3.62,5.08,5.08,0,0,0-1.05-3.5l-5.16.09c-1.13,1.29-.56,4.09-.72,5.69-.18,1.83-.76,3.61-.85,5.48-.11,2.05-.44,4-.53,6s-1.44,2.84-2.79,4.32a27.61,27.61,0,0,1-2.78,2.74,5,5,0,0,1-1.77,1c-.48.16-1.41.64-1.49,1.2C190,501.4,192.46,502.24,193.36,502.89Zm25.21-56.42a9.45,9.45,0,0,0,.16,2.71c.07,2.51,0,5,0,7.52,0,2.18.53,4.71-.79,6.59-1,1.39-2.3,1.74-3.86,2.15-.73.19-4.24,1.55-2.91,2.64,1.14.93,2.94-1.38,4.49-1.05a5.3,5.3,0,0,1,2.82,2.42,11.65,11.65,0,0,1,1.91,3.53,11.39,11.39,0,0,1,.19,3.4,3.85,3.85,0,0,1-1.5,2.64c-1.43,1.51-.46,4.66.28,6.3,1.11,2.42,1.1,5.79.76,8.39a12,12,0,0,1-1.41,3.91c-.77,1.57-1.4,3.21-2.3,4.7-.79,1.31-2.2,2.2-2.84,3.56-.77,1.63.74,3.4.36,5.21-.72,3.45-2.94,6.08-4.64,9.05a19.85,19.85,0,0,0-1.73,2.73c-.49,1.38-.08,2.81.05,4.2a38.64,38.64,0,0,0,.61,4.8,12.79,12.79,0,0,0,2.28,4.65,7,7,0,0,1,1.24,2.18,15.44,15.44,0,0,1,0,2.72c0,1.08,0,1.51-1.14,2a3.68,3.68,0,0,1-3-.44c-1.62-1.08-2.15-3.14-3.14-4.62a29.48,29.48,0,0,0-2-2.75c-.68-.81-2-1.54-2.27-2.55a17.38,17.38,0,0,1,.07-5.71c.18-1.16.5-.83,1.24-1.44,1.16-.94.77-3.93.77-5.25v-5.24c0-1.84-.32-3.69.09-5.52a8.92,8.92,0,0,1,1.06-2.5c1.35-2.44,2.93-4.72,4.29-7.19a10,10,0,0,0,1-2.71c.18-.94.61-2.76.25-3.59-.43-1-1.59-1.61-2.31-2.36a7,7,0,0,1-1.94-4.54,6.42,6.42,0,0,1,.28-2.77c.29-.61.83-1.17,1.2-1.79a5.29,5.29,0,0,1,1.4-1.71c1.78-1.35,2.46-2.16,1.92-4.45-.37-1.57-1.3-3.25-1.16-4.9.06-.7,1.2-4.51-.74-3.48-.63.34-1.34,3.69-1.47,4.36a41.5,41.5,0,0,1-4.32,0,19.18,19.18,0,0,1,2.39-4.48c1-1.22,2.63-2,3.44-3.32-1.47-1.21-4.15-.61-5.34-2.24a2.33,2.33,0,0,1,0-2.75,21.55,21.55,0,0,1,2.19-1.59,3.9,3.9,0,0,0-.19-1.95c-1.48-.44-1.64.82-2.34,1.6-.87,1-1.27,1.2-2.88,1.07-.08-1.64-.32-4.14.92-5.38a12.92,12.92,0,0,1,6.16-2.79,14.15,14.15,0,0,0,3.41-.77c.62-.27,1.81-1.33,2.55-1,1.22.53.59,5.06.59,6.21,0,2-.72,3.36-1.28,5.24-.31,1-2.59,2.38-2.56,3.28.07,1.69,2.7-1,3.15-1.42a5.21,5.21,0,0,0,2.15-4.45c0-.42,0-.84,0-1.26,0-4.31-.62-8.95.93-13.09a8,8,0,0,1,4-4.62c2.54-1.1,3.12,2.39,2.05,4a17,17,0,0,1-1.29,1.5A6.67,6.67,0,0,0,218.57,446.47Zm-10.31,12c-.57-.51-1,.45-1.41.73-.28.17-.59,0-.86.27a.8.8,0,0,0,.32,1.38,1.48,1.48,0,0,0,2-.86C208.45,459.65,208.57,458.71,208.26,458.44Zm2.43-4.09c-1-1.61-4.62.29-2.32,1.25C209.28,456,211.64,455.82,210.69,454.35Zm-16.27-.1c.62,1,2,3.61,3.61,2.47.94-.65-.27-2.6-.76-3.22s-1-1.08-1.46-1.68-.86-1.09-.31-1.92a7.16,7.16,0,0,1,1.59-1.52c1.32-1,2.88-1.55,4-2.84s2-1.65,3.76-.65a6.25,6.25,0,0,1,1,.57c.21.18.38.65.56.76.6.37,1.88-.07,2.59,0s1.77.78,2.64.51c.59-.18,1.14-1.07,1.47-1.56a1.34,1.34,0,0,0-.06-1.83c-.58-.9-.93-.52-1.85-.79-.69-.2-1.18-.74-1.94-.85s-1.58.09-2.34,0-1.2-.63-1.84-.79a10.57,10.57,0,0,0-2.46-.09c-1.85,0-3.81-.34-5.23.94-2.44,2.21-4.65,5-4.29,8.5A8.4,8.4,0,0,0,194.42,454.25Z" transform="translate(-21.47 -144.73)"/><path class="cls-8" d="M392.08,456.31a4.42,4.42,0,0,0-1.65-1.39c-.55-.38-1.93-.9-2.24-1.51-.52-1-.14-2.51,0-3.57a18.08,18.08,0,0,0,0-3.29c-.11-1.37.45-2.66.13-4s-1.58-1.81-1.89-3c-.26-1,.11-2-.24-3a5.46,5.46,0,0,0-1.68-2.44,8.17,8.17,0,0,0-5.06-1.81,11.45,11.45,0,0,0-7.91,2.52l-.33.27c-2.06,1.72-3.95,3.43-4.31,5.35a33.49,33.49,0,0,0-.38,6.24v1a7.56,7.56,0,0,0,.24,3.07c.28.74.93,1.15,1.29,1.83a2.58,2.58,0,0,1,.21,2,5.05,5.05,0,0,1-.94,1.05,6.61,6.61,0,0,0-2.29-.24h-.5a4.4,4.4,0,0,0-3.42,1.37A5.28,5.28,0,0,0,360,461a5.7,5.7,0,0,0,3.29,4.65,7.57,7.57,0,0,0,2.49.46,3.24,3.24,0,0,1,1.95.46,9.22,9.22,0,0,1,1.52,2.29,10.71,10.71,0,0,0,2.62,3.45h-.21l-1.49.6-.33.21-.61.29-1.7,1a5.12,5.12,0,0,1-1.62.65l-1.06.32c-2,.74-4.75,2.15-4.75,6a19,19,0,0,0,1.74,7.89l.62,1.34a11.37,11.37,0,0,1,1.38,4.12v.13l-.21,1.06a30.8,30.8,0,0,0-.56,6.78c0,2.28,0,3.58-1.25,5.58l-1.12,1.83c-1.6,3.11-3.57,6.57-6.54,8.37l-1,.38a5.35,5.35,0,0,0-2.16,1.07,18,18,0,0,0-4.13,5.07c-.67,1.23-1.56,4-.18,5.42.47.5,1.57,1.2,3.6.25a12,12,0,0,0,4-3.25l1.32-1.4,1.28-1.08,1.91-1.69,1.63-2a13.26,13.26,0,0,1,2.24-2.49l1.18-.9a18.7,18.7,0,0,0,3.9-3.57l.71-1,1.32-1.72c2.89-3.09,4.46-6.07,4.93-9.38.31-2.13,2.4-3.28,4.82-4.61,1.94-1.06,3.94-2.17,5.2-4a19.68,19.68,0,0,0,2.1-4.2,15,15,0,0,1,2-3.4l1.91-2.95a7.38,7.38,0,0,0,.82-3.92l-.34-3.59L391,473.5l-.08-3.08c0-2.33-.27-4.94.78-7.09a10.54,10.54,0,0,0,.63-3.6,5.91,5.91,0,0,0-.07-3.15C392.17,456.48,392.12,456.39,392.08,456.31Z" transform="translate(-21.47 -144.73)"/><path class="cls-21" d="M367.89,447.38a36.8,36.8,0,0,1,.35-6.66c.32-1.72,2.82-3.68,4.17-4.81,2.1-1.76,4.23-2.18,7-2.19a6.84,6.84,0,0,1,4.18,1.49c1.68,1.37,1.51,3.12,1.41,5.14,0-.28-2.57-1.24-2.9-1.27-.82-.08-1.06.45-1.69.68a4,4,0,0,1-1.78.05c-1.8-.17-1.69,0-2.79,1.31a6.38,6.38,0,0,1-2.37,1.45,6.43,6.43,0,0,0-4,5c-.06.66.22,2.79-.55,3.14C367.51,451.4,367.89,448.05,367.89,447.38Zm17.48-.7c1.82,1.2,1.39,3.94,1.07,5.75s-1.08,2.46-2.14,3.76a33.89,33.89,0,0,1-2.62,3.44c-1.54,1.47-5,6.17-7.7,4.66-2.23-1.26-2-4.88-2-7.06a3.16,3.16,0,0,1,1.08-2.61c.88-1.06.59-1.85.67-3.18s1.92-3.4,3.29-4.06C378.84,446.5,383.57,445.51,385.37,446.68Zm-6.75,11.76c-.4-.59-2.34-.27-2.87,0a5,5,0,0,0-1.9,2.4C374.53,460.9,379.55,459.8,378.62,458.44Zm-1.9-9.09c-.94,1.2,1.2,2.53,2.25,1.75C380.3,450.1,377.59,448.24,376.72,449.35Zm4.8,6.74c-.17-.49-1.37-.22-1.72-.21-.15,0,.51,1.08,1.18.94C381.37,456.73,381.67,456.49,381.52,456.09Zm.49-4.9c.85.07,1.33.08,1.86-.7s.49-1.82-.7-1.48C382.7,449.15,381.55,451.15,382,451.19Zm8.85,5.82c-.62-1.08-2.84-1.36-3.94-1a5.78,5.78,0,0,0-2.69,2.13c-1.14,1.32-2.62,2.46-3.74,3.72-1.36,1.53-2.3,3.68-4.21,4.38-1.36.49-3.12.7-4.27-.35-2.31-2.08-.58-4.1-.85-6.61-.1-.86-.37-.88-1.08-1.06-.35-.09-.73.12-1.08,0a5.34,5.34,0,0,1-1.55-1,5,5,0,0,0-3-.46c-2.46,0-3.38,1.74-3.12,4.07a4.28,4.28,0,0,0,2.45,3.51c1.5.64,3.64,0,4.88,1.22,1.81,1.82,2.06,4.32,4.35,5.92a8.44,8.44,0,0,0,5.68.58,11.32,11.32,0,0,0,4.23-3c1.07-1.16,2.61-1.54,3.73-2.67,1.67-1.67,4.28-3.45,4.28-6C391,459.51,391.28,457.74,390.86,457ZM373,477.63a3.66,3.66,0,0,0,2.2,1.2c1.47.21,1.69-1.76,1.66-2.79-.08-2.31-1.66-2-3.64-2.22a5.22,5.22,0,0,0-1.39-.12c-.74.12-.78.36-1.4.67a13.24,13.24,0,0,0-2.13,1.16,11.08,11.08,0,0,1-3,1.17c-2.34.84-3.83,2.06-3.83,4.69a17.63,17.63,0,0,0,1.63,7.34c.77,1.82,2.2,4.21,2.1,6.21,0,1.15-1.68,5.69.7,3.68,1.95-1.65,1.47-3.39,2.07-5.6.52-1.87,2.55-3.26,1.52-5.54-.4-.87-1.21-1-1.37-2-.21-1.31.86-1.69,1.86-2.18,1.45-.71,6-.81,3.88-3.06a8.16,8.16,0,0,1-1.76-2.19C371.55,476.73,372.18,476.88,373,477.63Zm16.41-9.74c-2.73-.14-4.43,1.27-6.36,3-1.51,1.37-3.93,2-4.93,3.84-.32.58-.81,2.56.11,3,.64.31,2.27-.91,3.15-.91,1.7,0,1.44.86.12,1.31a6.58,6.58,0,0,0-2.35,1.25c-2.95,2.35-4.38,6.09-6.94,8.89a9.63,9.63,0,0,0-2.39,4.41c-.27,1.21-.6,3.86,0,5,.18.34,1,.59,1,.92.08,1.11-2,.34-2.68.47-2.19.42-3.32,4.29-3.49,6.15-.2,2.15-1.74,3.62-2.71,5.5-1.72,3.33-3.8,7-7.07,8.93-1,.6-2.06.51-3,1.3a16.69,16.69,0,0,0-3.81,4.69c-.95,1.75-1.47,5.17,1.6,3.74,2.23-1,3.27-2.86,4.92-4.41,1-.93,2.2-1.72,3.13-2.71,1.47-1.56,2.29-3.26,4-4.64a25.64,25.64,0,0,0,4.84-4.21,35,35,0,0,1,2.12-2.8,15.76,15.76,0,0,0,4.57-8.62c.69-4.83,7.66-5.51,10.26-9.18a18,18,0,0,0,1.93-3.88c.89-2.42,2.86-4.23,4-6.5a6.05,6.05,0,0,0,.68-3.29c0-1.87-.45-3.71-.6-5.56S389.54,469.8,389.44,467.89Z" transform="translate(-21.47 -144.73)"/></svg>