<svg id="Capa_1" data-name="Capa 1" xmlns="http://www.w3.org/2000/svg" viewBox="0 0 560.34 669.67"><defs><style>.cls-1{fill:#077f36;}.cls-11,.cls-2,.cls-8{fill:none;}.cls-11,.cls-12,.cls-2,.cls-8{stroke:#1d1d1b;}.cls-12,.cls-2{stroke-miterlimit:10;}.cls-2,.cls-8{stroke-width:3.63px;}.cls-3{fill:#fff;}.cls-4{fill:#010101;}.cls-5{fill:#3c3c3b;}.cls-13,.cls-14,.cls-6{fill:#1d1d1b;}.cls-7{fill:#33863f;}.cls-11,.cls-8{stroke-linejoin:round;}.cls-9{fill:#b17f4a;}.cls-10,.cls-9{fill-rule:evenodd;}.cls-10{fill:#683c11;}.cls-11{stroke-width:5.52px;}.cls-12{fill:#aabcbb;stroke-width:3.68px;}.cls-13{font-size:42.31px;}.cls-13,.cls-14{font-family:Arial-BoldMT, Arial;font-weight:700;}.cls-14{font-size:64.38px;}</style></defs><path d="M456.25,517.86c-25.06,14.56-58.94,25.6-97.79,31.34V679.76C394.37,642.2,434.55,586.72,456.25,517.86Z" transform="translate(-17.02 -86.32)"/><path d="M138.13,517.86c21.49,68.17,61.08,123.21,96.71,160.75V549C196.44,543.26,163,532.29,138.13,517.86Z" transform="translate(-17.02 -86.32)"/><path class="cls-1" d="M297.19,730.68c13.16-7.17,36.18-24.68,61.27-50.92V549.2A427.72,427.72,0,0,1,234.84,549V678.61C260.35,705.48,283.84,723.41,297.19,730.68Z" transform="translate(-17.02 -86.32)"/><path class="cls-2" d="M297.19,553.61c-64.21,0-121.51-13.94-159.06-35.75,36.86,117,127.06,195.39,159.06,212.82,32-17.43,122.2-95.86,159.06-212.82C418.71,539.67,361.41,553.61,297.19,553.61Z" transform="translate(-17.02 -86.32)"/><path class="cls-3" d="M124.76,457.07a346.07,346.07,0,0,0,13.37,60.79c37.55,21.81,94.85,35.75,159.06,35.75V457.07Z" transform="translate(-17.02 -86.32)"/><path class="cls-3" d="M469.63,457.07a346.08,346.08,0,0,1-13.38,60.79c-37.54,21.81-94.84,35.75-159.06,35.75V457.07Z" transform="translate(-17.02 -86.32)"/><path class="cls-3" d="M262.61,361.91c-21.88,18-46.15,26.44-72.44,26a255.93,255.93,0,0,1-30.85-2.25A168.1,168.1,0,0,1,123.44,377q-1,14.74-1.25,29.88c0,2.8-.07,5.61-.07,8.43a332.4,332.4,0,0,0,2.64,41.72H297.19V322.22C286.47,338.6,274.91,351.77,262.61,361.91Z" transform="translate(-17.02 -86.32)"/><path class="cls-3" d="M331.78,361.91c21.87,18,46.14,26.44,72.44,26a255.75,255.75,0,0,0,30.84-2.25A168,168,0,0,0,470.94,377q1,14.74,1.25,29.88.07,4.2.08,8.43a334.3,334.3,0,0,1-2.64,41.72H297.19V322.22C307.92,338.6,319.47,351.77,331.78,361.91Z" transform="translate(-17.02 -86.32)"/><path class="cls-4" d="M216.91,526.46c0-8.63,2.33-16.81,4.74-25-.07-7.16-.67-14.34.77-21.43,0-.45,0-.88,0-1.32-.31-.44-.91-.27-2.25,1.43-.32-3.36-1.13-6.82,1.84-9.55.3.36.61.72.91,1.09l.24-2c-3.75-7.56-5.53-8.09-14.57-4.33-3.11,2.78-5.28,6.35-5.27,10.34,0,19.39-12.71,34.62-16.81,52.62-.84,3.7-9.13,6.92-12.71,5.7a323.5,323.5,0,0,0,57.06,14.38C219.66,544.24,216.91,538.44,216.91,526.46Z" transform="translate(-17.02 -86.32)"/><path class="cls-5" d="M230.81,524.7l.33-6.18c5.13-6.23,2.46-12.49.08-18.75a10.84,10.84,0,0,0-2.11-7h0l-.21-5.11a5.17,5.17,0,0,1-.75-.36,2.83,2.83,0,0,1,.06-.42c-.05-4.36.79-8.92-2.93-12.41v0l-2.37-2.8a65.88,65.88,0,0,0-.5,7c.5.69.24,2.95,1,3l2.17,9.07a7.9,7.9,0,0,0,1.47,6h0a14.93,14.93,0,0,0,2.3,8.65l-.6,12.82h0c-1.8,2.56-2.47,5.1.09,7.61h0l3.57,9.5h0c0,3.63.07,9.23.11,13.3q2.82.45,5.69.86c-.51-5.1-.54-12.28-3.41-16.58C234.1,529.93,233.31,526.9,230.81,524.7Z" transform="translate(-17.02 -86.32)"/><path class="cls-2" d="M124.76,457.07a346.07,346.07,0,0,0,13.37,60.79c37.55,21.81,94.85,35.75,159.06,35.75V457.07Z" transform="translate(-17.02 -86.32)"/><rect class="cls-6" x="353.99" y="430.05" width="10.58" height="37.23"/><path class="cls-7" d="M410.54,498.28h0c-.27-1.27-1-1.91-2.28-1.5h0l-3.51-3.89c-4.65,0-4.75-3.9-5.66-7.08,1.21-1.59,3.3-2.82,2.07-5.4-.51-2.39-1.25-4.63-3.75-5.64l-.92-1.78c-3.16-5.21-7.52-6-12.62-4.13a5.37,5.37,0,0,0-3-3,1.77,1.77,0,0,1-1.31-.2c-2.4-1.87-5-1.92-7.76-1a7.12,7.12,0,0,0-4.87,1.88,5.29,5.29,0,0,0-2.27,4.52,5.34,5.34,0,0,0,.88,1.38c.32,3.52-2.9,4-5.52,4.94h0l-1.83-.69-3.51.15c-.17,2.59,0,5.12,1.55,7.33a12.92,12.92,0,0,0,5.24,2c-1.21,3.25-4,5.23-5.72,8.08-1.85-3.34-4.53-4.73-8.54-2.93l-1.48,1.39-.12-.13a4.26,4.26,0,0,0-2.47.23,6.45,6.45,0,0,0-2.76,4.24,7,7,0,0,0-.08,1.86c-1.3,1.55-2.51,3.12-.23,5.51l3.27-.05,1.08,1a24.85,24.85,0,0,1,1.55,4.28c0,.07,0,.14,0,.21-2.37.73-2.77,2.56-1.88,5.1,2.28.43,3.65,3.26,6.36,2.54,1,1.47,2.5,1.37,4,1.22a5.71,5.71,0,0,0,.09.77,6.24,6.24,0,0,0,3.36,1.5c3.56.43,7.21-.13,10.73.86a15.19,15.19,0,0,0,2.3.58c2.78-4.14,6.74-3.72,10.8-3l1.76-1.95h0c5.62-5.36,14.76-2.46,19.91-8.92h0l0,0C413.23,507.09,415.15,504.36,410.54,498.28ZM368,506.35v-.28c0-.18,0-.35-.06-.53l.43.28A5.49,5.49,0,0,0,368,506.35Zm22.42.53c-.26.09-.5.2-.75.31a4,4,0,0,0-1-.68,8.54,8.54,0,0,0-4.64-.4l-1.15.22-.59,0c-1-.52-2-1-2.95-1.62a15.68,15.68,0,0,0-1.65-.5c-1.12-2-4.23-2.65-4.41-5.36a19.31,19.31,0,0,0-3.94-5.86,2.23,2.23,0,0,0-.95-.32v-.08a17.41,17.41,0,0,0-1-6.49c0-.06-.07-.11-.11-.18l.08.08c5.72,1.32,4.73-3.09,5.15-6.29,2.06,1.93,2.54,6.3,6.21,5.74a8.39,8.39,0,0,1-.52,1.3c-.66,2.11-1.53,4.18-1.05,6.48,1.21,2.54,3.51,3.71,5.84,4.84a20.09,20.09,0,0,0,6.72,1.57,1.47,1.47,0,0,0,.13.92,1.26,1.26,0,0,0,1.83-.07l2.05.18.12,0c-.07.31-.16.65-.29,1.06a3.92,3.92,0,0,0,2.3,2.05c-1.27,1-2.52,2-2.63,3.71A3.27,3.27,0,0,0,390.43,506.88Z" transform="translate(-17.02 -86.32)"/><path class="cls-2" d="M469.63,457.07a346.08,346.08,0,0,1-13.38,60.79c-37.54,21.81-94.84,35.75-159.06,35.75V457.07Z" transform="translate(-17.02 -86.32)"/><polygon class="cls-6" points="197.57 320.2 180.17 320.2 180.17 307.46 164.54 307.46 164.54 320.2 147.84 320.2 147.84 334.75 164.54 334.75 164.54 370.04 180.17 370.04 180.17 334.75 197.57 334.75 197.57 320.2"/><path class="cls-8" d="M262.61,361.91c-21.88,18-46.15,26.44-72.44,26a255.93,255.93,0,0,1-30.85-2.25A168.1,168.1,0,0,1,123.44,377q-1,14.74-1.25,29.88c0,2.8-.07,5.61-.07,8.43a332.4,332.4,0,0,0,2.64,41.72H297.19V322.22C286.47,338.6,274.91,351.77,262.61,361.91Z" transform="translate(-17.02 -86.32)"/><path d="M472.27,415.35c0-2.31,0-4.61-.06-6.91a9.37,9.37,0,0,1-1.79.28c-5.83-1.75-11.28-2.27-16.28,2.69-2.88,2.87-6.64,3.22-10.63,1.23-7.7-3.84-14.89-2.79-21.43,3.05-5.19,4.64-11.47,6-18.2,6a30.15,30.15,0,0,0-9.65,1.1c-15.18,4.94-26.82,14.36-35.24,28.11a47.9,47.9,0,0,0-2.59,6.21H469.63A334.3,334.3,0,0,0,472.27,415.35Zm-62.78,33.88c-.51-.46-.95-.53-1.34-.24-.78-1.39-2.13-2.41-3.11-3.67-1-2.54,1.66-3.81,1.93-5.91a5.85,5.85,0,0,0-2.07-5.27c-.63-.87-2.35-.95-1.87-2.67,3.63.53,7.2,2.28,11.09,1.2,3.51-.55,2.61,2.39,3.2,4.16a18.2,18.2,0,0,1,.76,2.76C417.14,444.35,417.9,450.46,409.49,449.23ZM438,435.52a93.19,93.19,0,0,0-5.62,11.27,22.38,22.38,0,0,0-.69,2.29c-3-1.06-6.37-1.55-7.21-5.23a9.43,9.43,0,0,0,1.68-.91c2-1.59,3.08-3.91,4.67-5.81a12.41,12.41,0,0,1,5.74-3.9C439.19,432.37,438.48,434.11,438,435.52Z" transform="translate(-17.02 -86.32)"/><path class="cls-8" d="M331.78,361.91c21.87,18,46.14,26.44,72.44,26a255.75,255.75,0,0,0,30.84-2.25A168,168,0,0,0,470.94,377q1,14.74,1.25,29.88.07,4.2.08,8.43a334.3,334.3,0,0,1-2.64,41.72H297.19V322.22C307.92,338.6,319.47,351.77,331.78,361.91Z" transform="translate(-17.02 -86.32)"/><path class="cls-9" d="M306.89,394.29c29.16,5.42,48.57,34.17,43.28,64-5.25,29.62-33.27,49.52-62.48,44.08s-48.57-34.17-43.31-63.83c5.28-29.82,33.3-49.72,62.51-44.29Z" transform="translate(-17.02 -86.32)"/><path class="cls-10" d="M307.22,392.3h0a52.47,52.47,0,0,1,9.9,2.8l.31.13A56.07,56.07,0,0,1,343.09,416a57.48,57.48,0,0,1,9.62,36.08L349,450.64a55,55,0,0,0-9.25-32.47,51.39,51.39,0,0,0-33.23-21.9h0c-1.27-.23-2.58-.47-3.7-.65-4.1,2.91-6.54,6.37-7.17,10.16-.92,3.73-.1,8,2.2,12.87,15.28,1.47,25.79,6.65,33.64,14.56a60,60,0,0,1,10,14.51l-5.7-2.24a50,50,0,0,0-7.11-9.32c-7.27-7.36-17-12.18-31.31-13.69a19.68,19.68,0,0,0-3.05,6.77l-3.67-1.43a20.49,20.49,0,0,1,3.5-7.56c-2.6-5.54-3.54-10.53-2.48-15.16.61-3.59,2.56-6.71,5.3-9.62a51,51,0,0,0-27.56,8.23l0,.2s0,.25-.07.46a14.36,14.36,0,0,0-.75,2.84c-.91,3.84-1.66,7.53-2.21,11.09l-3.8-1.5c.49-3,1.13-6.09,1.88-9.2a56.08,56.08,0,0,0-7.14,7.15l-3.89-1.52a57,57,0,0,1,12.12-11.63,54.22,54.22,0,0,1,41.66-9.29ZM267,443.45l-4.48-1.75a43.39,43.39,0,0,1-.8-5.79,72.11,72.11,0,0,1,.86-19.12l3.81,1.49a71,71,0,0,0-.77,17.19,39.82,39.82,0,0,0,1.38,8ZM316.8,463l-4.17-1.63a19.76,19.76,0,0,0-3.74-8.59,20.23,20.23,0,0,0-10.73-6.85A30.71,30.71,0,0,1,296,454.8l-3.71-1.46a26.35,26.35,0,0,0,2.17-9.29,20,20,0,0,1-4.18-11.85,16.18,16.18,0,0,1,.44-4.39l3.67,1.43a12,12,0,0,0-.26,2.77,19,19,0,0,0,3.28,9.57,24.89,24.89,0,0,1,14.47,8.49A25.37,25.37,0,0,1,316.8,463Zm-73.51-28.79a57.34,57.34,0,0,1,10.15-21l3.89,1.53A52.7,52.7,0,0,0,247,435.63l-3.75-1.47Zm109.42,17.93a56.26,56.26,0,0,1-.79,6.55h0a57.4,57.4,0,0,1-5.3,16l-3.7-1.45a49.77,49.77,0,0,0,2.5-5.61h0c-2.84-8.5-5.84-15.89-9.6-22.09l5.71,2.24a127.53,127.53,0,0,1,5.85,13.77c.24-1.34.65-2.41.84-3.5h0a46.59,46.59,0,0,0,.78-7.35l3.71,1.45ZM272,453.69l-6.07-2.37a37.86,37.86,0,0,1-3.41-9.62l4.48,1.75a33,33,0,0,0,5,10.24ZM290.56,461l-6-2.36a8.54,8.54,0,0,0,4.44-1.34,9.7,9.7,0,0,0,3.28-3.92L296,454.8a12.81,12.81,0,0,1-4.89,5.85c-.21.13-.35.23-.53.32Zm40.56,15.88-6.75-2.64a21,21,0,0,0-8.1-4.71c-.26.42-.55.79-.86,1.2l-3.89-1.52,1.65-2.33a32.7,32.7,0,0,0-.54-5.53l4.18,1.63c.11.79.15,1.66.19,2.52A23.28,23.28,0,0,1,329.43,474a17.45,17.45,0,0,1,1.69,2.84ZM241.9,441.91c.1-1.24.29-2.44.49-3.69h0c.26-1.39.56-2.76.9-4.06l3.75,1.47c-.29,1.05-.5,2.19-.73,3.33h0c-.24,1.5-.43,3-.57,4.45l-3.84-1.5Zm104.72,32.72a58.41,58.41,0,0,1-4,6.72l-3.85-1.5a46.68,46.68,0,0,0,4.16-6.67l3.7,1.45Zm-73.51-10.56-3.67-1.44a39.71,39.71,0,0,0,1.7-3.84,34.29,34.29,0,0,1-5.21-7.47l6.07,2.37a26.16,26.16,0,0,0,1.71,2.11l.64.35c4,1.74,7.39,2.58,10.19,2.46l6,2.35c-4,2.37-9.22,2.19-15.89-.38-.51,1.24-1,2.43-1.56,3.49Zm36.07,14.13-4.07-1.59a61.59,61.59,0,0,0,6.41-7.43l3.89,1.52a67.74,67.74,0,0,1-6.23,7.5Zm-67.53-26.46a54.85,54.85,0,0,1,.25-9.83l3.84,1.5a54.91,54.91,0,0,0,0,9.93l-4.07-1.6Zm101,29.61a54,54,0,0,1-6.18,7.52l-6.92-2.71a19,19,0,0,0-3.2-9.76,18.5,18.5,0,0,0-1.94-2.19l6.75,2.64a24.49,24.49,0,0,1,2.19,9.42,51.24,51.24,0,0,0,5.45-6.42l3.85,1.5Zm-6.18,7.53a59.64,59.64,0,0,1-7.36,6.25,54.42,54.42,0,0,1-41.71,9.28h0a51,51,0,0,1-9.9-2.82l-.31-.12a55.88,55.88,0,0,1-25.62-20.76,58.38,58.38,0,0,1-9.88-29l4.07,1.6a53.91,53.91,0,0,0,3.37,14.44c5.26,3.29,9.61,4.14,13.29,2.5,2.64-1.1,5-3.67,7.06-7.66l3.67,1.44c-2.52,5.08-5.51,8.37-9.18,10s-7.68,1.56-12-.41a30.28,30.28,0,0,0,2.93,4.92,50.73,50.73,0,0,0,8.6,9.91,42.67,42.67,0,0,0,7.72.74,37.14,37.14,0,0,0,7.69-.18,42.84,42.84,0,0,0,26.27-12.4l4.07,1.6A48.27,48.27,0,0,1,279.27,493a49.42,49.42,0,0,1-8.36.29,2.51,2.51,0,0,0-1.15,0,54.68,54.68,0,0,0,18.3,7.12h0a50.75,50.75,0,0,0,38.62-8.52c1-.71,2.13-1.67,3.12-2.39l-.19,0c0-1.16,0-2.29-.11-3.34l6.93,2.72Z" transform="translate(-17.02 -86.32)"/><path class="cls-11" d="M297.19,89.08C144,89.08,19.78,221.19,19.78,380.42c0,113.35,63.36,285.79,155.14,372.81H286.63c-132.5-134.33-188.41-237.15-185-356C106,244.59,189.18,176.92,297.19,176.92S488.4,244.59,492.76,397.23c3.4,118.85-52.51,221.67-185,356H419.47c91.77-87,155.13-259.46,155.13-372.81C574.6,221.19,450.4,89.08,297.19,89.08Z" transform="translate(-17.02 -86.32)"/><polygon class="cls-12" points="373.87 652.84 413.89 631.36 413.89 586.38 373.87 607.86 373.87 652.84"/><polygon class="cls-12" points="422.87 579.67 461.78 557.89 459.37 512.98 420.46 534.76 422.87 579.67"/><polygon class="cls-12" points="465.79 500.46 501.15 475.53 496.81 430.06 461.13 455.13 465.79 500.46"/><polygon class="cls-12" points="186.47 652.84 146.45 631.36 146.45 586.38 186.47 607.86 186.47 652.84"/><polygon class="cls-12" points="137.47 579.67 98.56 557.89 100.97 512.98 139.88 534.76 137.47 579.67"/><polygon class="cls-12" points="94.55 500.46 59.19 475.53 63.54 430.06 99.21 455.13 94.55 500.46"/><text class="cls-13" transform="translate(160.93 190.02) rotate(-54.18) scale(0.78 0.84)">F</text><text class="cls-13" transform="matrix(0.56, -0.54, 0.58, 0.6, 170.72, 175.7)">U</text><text class="cls-13" transform="translate(185.45 161.09) rotate(-33.18) scale(0.78 0.84)">N</text><text class="cls-13" transform="matrix(0.72, -0.31, 0.33, 0.77, 203.04, 149.35)">D</text><text class="cls-13" transform="matrix(0.76, -0.2, 0.21, 0.81, 222.99, 140.64)">A</text><text class="cls-13" transform="translate(244.55 134.94) rotate(-7.19) scale(0.78 0.84)">D</text><text class="cls-13" transform="translate(266.99 132.01) rotate(-0.36) scale(0.78 0.84)">O</text><text class="cls-13" transform="translate(292.38 132.17) rotate(4.45) scale(0.78 0.84)"> </text><text class="cls-13" transform="translate(301.22 132.56) rotate(9.28) scale(0.78 0.84)">E</text><text class="cls-13" transform="matrix(0.75, 0.23, -0.25, 0.8, 321.29, 135.6)">N</text><text class="cls-13" transform="matrix(0.72, 0.31, -0.34, 0.77, 342.93, 142.6)"> </text><text class="cls-13" transform="matrix(0.68, 0.39, -0.41, 0.73, 350.64, 145.65)">1</text><text class="cls-13" transform="translate(365.09 153.67) rotate(37.6) scale(0.78 0.84)">9</text><text class="cls-13" transform="translate(378.25 163.65) rotate(45.67) scale(0.78 0.84)">5</text><text class="cls-13" transform="matrix(0.47, 0.63, -0.67, 0.5, 389.98, 175.51)">2</text><text class="cls-14" transform="translate(67.45 364.89) rotate(-98.56) scale(0.78 0.84)">C</text><text class="cls-14" transform="matrix(-0.04, -0.78, 0.84, -0.04, 62.09, 328.93)">L</text><text class="cls-14" transform="translate(60.23 299.14) rotate(-85.6) scale(0.78 0.84)">U</text><text class="cls-14" transform="translate(62.82 264.28) rotate(-77.27) scale(0.78 0.84)">B</text><text class="cls-14" transform="matrix(0.25, -0.74, 0.8, 0.27, 71.33, 229.22)"> </text><text class="cls-14" transform="translate(75.21 215.91) rotate(-65.26) scale(0.78 0.84)">D</text><text class="cls-14" transform="translate(89.88 184.1) rotate(-57.11) scale(0.78 0.84)">E</text><text class="cls-14" transform="translate(107.4 156.85) rotate(-49.17) scale(0.78 0.84)">P</text><text class="cls-14" transform="translate(128.08 132.41) rotate(-40.45) scale(0.78 0.84)">O</text><text class="cls-14" transform="translate(156.43 108.18) rotate(-31.17) scale(0.78 0.84)">R</text><text class="cls-14" transform="translate(186.27 90.23) rotate(-22.6) scale(0.78 0.84)">T</text><text class="cls-14" transform="matrix(0.75, -0.22, 0.24, 0.81, 214.57, 78.92)">I</text><text class="cls-14" transform="translate(227.43 74.5) rotate(-10.07) scale(0.78 0.84)">V</text><text class="cls-14" transform="translate(258.6 68.73) rotate(-0.99) scale(0.78 0.84)">O</text><text class="cls-14" transform="translate(296.84 68.93) rotate(6.52) scale(0.78 0.84)"> </text><text class="cls-14" transform="translate(308.64 69.54) rotate(12.88) scale(0.78 0.84)">A</text><text class="cls-14" transform="translate(339.34 76.42) rotate(20.77) scale(0.78 0.84)">T</text><text class="cls-14" transform="translate(366.99 86.83) rotate(28.74) scale(0.78 0.84)">L</text><text class="cls-14" transform="translate(392.95 100.87) rotate(36.83) scale(0.78 0.84)">É</text><text class="cls-14" transform="translate(418.85 120.31) rotate(44.7) scale(0.78 0.84)">T</text><text class="cls-14" transform="matrix(0.5, 0.6, -0.65, 0.54, 440.4, 142.21)">I</text><text class="cls-14" transform="matrix(0.43, 0.65, -0.7, 0.47, 449.68, 152.43)">C</text><text class="cls-14" transform="translate(469.11 181.25) rotate(65.13) scale(0.78 0.84)">O</text><text class="cls-14" transform="translate(484.78 216.66) rotate(71.44) scale(0.78 0.84)"> </text><text class="cls-14" transform="matrix(0.17, 0.76, -0.82, 0.19, 489.69, 229.77)">P</text><text class="cls-14" transform="translate(496.5 257.97) rotate(84.4) scale(0.78 0.84)">A</text><text class="cls-14" transform="translate(499.87 293.03) rotate(92.21) scale(0.78 0.84)">S</text><text class="cls-14" transform="translate(498.63 326.28) rotate(98.37) scale(0.78 0.84)">O</text></svg>