<svg id="Capa_1" data-name="Capa 1" xmlns="http://www.w3.org/2000/svg" viewBox="0 0 1247 2499.58"><defs><style>.cls-1{fill:#f5dc2f;}.cls-2{fill:#317fbc;}.cls-3{fill:#fff;}.cls-4{fill:#cd3529;}</style></defs><path class="cls-1" d="M623.5.21,0,674.7,623.5,2499.79,1247,674.7Z" transform="translate(0 -0.21)"/><path class="cls-2" d="M121.15,948.61,61.83,775,180,837.53ZM84.07,622.19l164,86.86L575.81,90.24ZM1125.84,948.61,1185.17,775,1067,837.53l58.83,111.08Zm37.08-326.42L999,709.05,671.18,90.24Z" transform="translate(0 -0.21)"/><path class="cls-3" d="M147.74,954.17l67.53-127.48L49.5,738.89,29.72,681l36-39,193.14,102.3L623.5,56,988.1,744.32,1181.25,642l36,39-19.79,57.9-165.75,87.8,67.52,127.48Z" transform="translate(0 -0.21)"/><path class="cls-4" d="M748.45,490.34,927.14,827.69H847l-108.59-205L623.5,777.87,508.59,622.69,400,827.69H319.85L498.54,490.34l125,147.11,125-147.11ZM132,980.27H610.45V2380.88L132.73,982.51Z" transform="translate(0 -0.21)"/><path d="M636.54,2380.88V980.27H1115Z" transform="translate(0 -0.21)"/><path class="cls-3" d="M257.08,1051.1H539.61v70.84H330.07l146.16,427.82h63.38v70.83H438.9A18.64,18.64,0,0,1,421.26,1608L239.44,1075.76a18.63,18.63,0,0,1,17.64-24.66Zm468.94,0H950.81a46.59,46.59,0,0,1,44.09,61.67L838.65,1570.13a74.54,74.54,0,0,1-70.55,50.46H726A18.63,18.63,0,0,1,707.38,1602h0V1069.74A18.64,18.64,0,0,1,726,1051.1ZM778.21,1528l138.71-406H778.21Z" transform="translate(0 -0.21)"/></svg>