<svg id="Capa_1" data-name="Capa 1" xmlns="http://www.w3.org/2000/svg" viewBox="0 0 479.39 504.04"><defs><style>.cls-1,.cls-7{fill:#c5d005;}.cls-1,.cls-10,.cls-2,.cls-6,.cls-7,.cls-9{stroke:#1c1a19;}.cls-1,.cls-10,.cls-2,.cls-6,.cls-9{stroke-width:2.91px;}.cls-1,.cls-10,.cls-2,.cls-6,.cls-7,.cls-8,.cls-9{fill-rule:evenodd;}.cls-2,.cls-5{fill:#fff;}.cls-3{fill:#de0a1a;}.cls-4{fill:#2d4c9a;}.cls-6{fill:none;}.cls-7{stroke-width:1.94px;}.cls-8{fill:#e64921;}.cls-9{fill:#038f39;}.cls-10{fill:#e52e1a;}</style></defs><path id="path2" class="cls-1" d="M250.28,108.8c108,0,195.63,87.58,195.63,195.63S358.32,500.06,250.28,500.06,54.65,412.47,54.65,304.43,142.23,108.8,250.28,108.8Z" transform="translate(-10.39 2.53)"/><path id="path4" class="cls-2" d="M250.28,124.3c99.47,0,180.12,80.65,180.12,180.13h0A180.13,180.13,0,0,1,250.28,484.55c-99.48,0-180.13-80.65-180.13-180.12A180.13,180.13,0,0,1,250.28,124.3Z" transform="translate(-10.39 2.53)"/><path class="cls-3" d="M262.45,284.25c-10.65-2.83-21.21-5.94-31.6-9.64,0-26.26-.06-52.52.1-78.78,0-3.69-1-4.75-4.68-4.72-21.07.18-42.13,0-63.2.17-3.37,0-4.26-.94-4.16-4.24.24-8,.19-16,0-24-.05-2.64.54-3.76,3.41-3.58,3.69.24,7.41,0,11.12,0q82.79,0,165.56-.08c3.88,0,5.45.74,5.22,5-.4,7.4-.33,14.84,0,22.24.16,3.85-1.18,4.61-4.76,4.59-23.88-.15-47.77,0-71.65-.18-4.39,0-5.33,1.29-5.31,5.48C262.64,225.8,262.5,255,262.45,284.25Z" transform="translate(-10.39 2.53)"/><path class="cls-3" d="M354.45,311.87c-10-1.79-19.38-5.39-29-8.44,0-19.69,0-39.38-.16-59.07,0-6.81-1.45-8.26-8-9.21-2.34-.34-4.73-.44-7.05-.89s-2.84.46-2.84,2.55c0,4.44-.17,8.88-.31,13.32-.48,15.67,0,31.37-1.2,47-10-2-19.68-5.37-29.36-8.59,0-27,.07-54-.12-81,0-3.86,1.09-4.65,4.74-4.43,13.62.83,27.29.91,40.88,2,18.09,1.51,31.42,12,32.16,31.5C355.15,261.72,354.61,286.8,354.45,311.87Z" transform="translate(-10.39 2.53)"/><path class="cls-3" d="M185,363.08a232.56,232.56,0,0,1,26.6,7.89c-.35,17.33.17,34.72-2.74,51.9-1.3,7.68-3.79,14.92-9.18,20.84-4.63,5.08-9.51,6.35-15.57,3.3-8.45-4.25-17-8.42-25-13.51-9.17-5.82-14.42-13.38-13.67-25,.72-11.08.32-22.24.08-33.35-.1-4.4,2.06-6.56,5.72-7.86a21.54,21.54,0,0,1,12.69-.41c7,1.79,9.52,5.05,9.56,12.36,0,7.86.06,15.72,0,23.57a16.1,16.1,0,0,0,1.57,7.31c.73,1.52,1.69,3,3.53,3a5.18,5.18,0,0,0,4.78-2.73c1.35-2.41,1.48-5.06,1.49-7.76Q184.93,382.88,185,363.08Z" transform="translate(-10.39 2.53)"/><path class="cls-3" d="M208.69,267.67c-10.86-2.05-21.12-6.17-31.72-9.12-4.09-1.14-8.11-2.58-12.16-3.88-5.35-13-5.62-26.1-1.51-39.5,2.61-8.5,8.09-13.42,16.65-15.4a57,57,0,0,1,30.7,1A30.83,30.83,0,0,1,219,205c7.39,5.22,8,7.82,3.51,15.5-3.33,5.75-6.63,11.52-10.16,17.66-2.22-1.85-4.05-3.74-6.44-4.83-4.05-1.86-9.6-1.45-11.62,1.19-2.73,3.58-1.18,7.1.74,10.36C199.48,252.49,204.11,260.06,208.69,267.67Z" transform="translate(-10.39 2.53)"/><path class="cls-3" d="M231.06,377c7.44,1,14.32,4.1,21.54,5.94,3.4.87,6.71,2.06,10.07,3.11,0,24-.16,48,0,72,0,3.93-1,5.06-4.92,4.89-7.84-.33-15.71-.18-23.56-.06-2.43,0-3.37-.62-3.35-3.22Q231,418.37,231.06,377Z" transform="translate(-10.39 2.53)"/><path class="cls-3" d="M314.46,401.9c9.21,2.38,18.42,4.78,27.26,8.38a50.26,50.26,0,0,1-18.61,15.43c-14.68,7.29-29.68,14-44.55,20.87a15.63,15.63,0,0,1-1.86.61V391.12c8.31.75,15.91,4.18,23.84,6.39,1.27.35,2.52.82,3.78,1.24V408Z" transform="translate(-10.39 2.53)"/><path class="cls-4" d="M85.68,231.66l-2.56-.72,2.29,1.34Z" transform="translate(-10.39 2.53)"/><path class="cls-4" d="M429.32,328.33l-.28-.07v.07Z" transform="translate(-10.39 2.53)"/><path class="cls-4" d="M386.81,422.16l.78.23-.65-.39Z" transform="translate(-10.39 2.53)"/><path class="cls-4" d="M244.51,324.73,429,328.33v-.07L85.68,231.66l-.27.62Z" transform="translate(-10.39 2.53)"/><path class="cls-4" d="M80.74,244.08a179.73,179.73,0,0,0-10.37,60.35c0,5.7.28,11.34.8,16.91l147.5,2.88Z" transform="translate(-10.39 2.53)"/><path class="cls-4" d="M241.31,337.38,73.8,334.11l313,88.05.13-.16Z" transform="translate(-10.39 2.53)"/><path class="cls-4" d="M394.89,412.11a179.26,179.26,0,0,0,32-71.11l-159.74-3.12Z" transform="translate(-10.39 2.53)"/><path class="cls-5" d="M244.51,324.73,85.41,232.28q-2.53,5.79-4.67,11.8l137.93,80.14Z" transform="translate(-10.39 2.53)"/><path class="cls-5" d="M241.31,337.38,386.94,422c2.76-3.2,5.42-6.5,7.95-9.89L267.15,337.88Z" transform="translate(-10.39 2.53)"/><path class="cls-5" d="M72.77,333.82c0,.09,0,.18,0,.27l1,0Z" transform="translate(-10.39 2.53)"/><path class="cls-5" d="M71.17,321.34q.58,6.32,1.6,12.48l1,.29,167.51,3.27-22.64-13.16Z" transform="translate(-10.39 2.53)"/><path class="cls-5" d="M244.51,324.73l22.64,13.15L426.89,341q1.29-6.25,2.14-12.67Z" transform="translate(-10.39 2.53)"/><polygon class="cls-5" points="234.12 327.26 208.27 326.75 230.91 339.91 256.76 340.41 234.12 327.26"/><path id="path4-2" data-name="path4" class="cls-6" d="M250.28,124.3c99.47,0,180.12,80.65,180.12,180.13h0A180.13,180.13,0,0,1,250.28,484.55c-99.48,0-180.13-80.65-180.13-180.12A180.13,180.13,0,0,1,250.28,124.3Z" transform="translate(-10.39 2.53)"/><path id="path6" class="cls-1" d="M398.79,156.47c-.84-.82-.42-.41-1.27-1.21l-.62-.59c-85.08-80.24-208.95-80.16-295.06.6l-1,.91-.21.2c-1.92,8.94,3.76,15,7.87,13.22,88.37-88.13,212.31-74.53,284.22.76C396.73,170.26,399.65,163.35,398.79,156.47Z" transform="translate(-10.39 2.53)"/><path id="path8" class="cls-1" d="M89.4,145.5c67.33-74.09,207.39-106.1,322.18.43-6.8,1.24-9.57,5.43-12,11.27-114.79-103.63-240.18-58.37-299.06,0a18.41,18.41,0,0,0-11.1-11.7Z" transform="translate(-10.39 2.53)"/><path id="path10" class="cls-1" d="M76,138.59a4,4,0,0,1,.55-.54c91.68-91.52,241-105.46,346.84.53.31.31.65.59.93.93,5.13,6.27-7,13.2-12.41,7.08-.21-.24-.45-.47-.67-.71C374.82,107.59,311,76.18,246.37,78.32c-58.78,1.93-113.12,23.36-159.74,68-.27.26-.51.54-.8.77-4,3.31-15.13-.09-9.81-8.47Z" transform="translate(-10.39 2.53)"/><path id="path12" class="cls-7" d="M452.79,117.79c13.95-8.9,33.54-9.42,35.77,13.43-7.35-7.12-22.72-7.23-40.9,6.76-4.06,3.13-13.33,4.46-18.26.77-2.52-1.88-3.85,1.67-5.06.76l-14-13.23c19.59,5.89,43.78-22.5,11.57-32.45C455.49,75.53,454.32,111.63,452.79,117.79Z" transform="translate(-10.39 2.53)"/><path id="path14" class="cls-8" d="M413,127.48c18.5,3.49,40.41-22.75,11.4-33.94C455.21,96.2,438.34,134,413,127.48Z" transform="translate(-10.39 2.53)"/><path id="path16" class="cls-7" d="M47.38,117.83c-14-8.9-33.54-9.42-35.77,13.43C19,124.14,34.34,124,52.51,138c4.06,3.13,13.33,4.45,18.26.76,2.53-1.88,3.85,1.67,5.06.77l14-13.23c-19.6,5.88-43.79-22.5-11.58-32.46C44.68,75.58,45.86,111.67,47.38,117.83Z" transform="translate(-10.39 2.53)"/><path id="path18" class="cls-8" d="M12.67,129.15c8.08-5.38,21.74-6.28,39.91,7.71C56.65,140,65.3,141.68,70.23,138q1-.76,2-1.53c1.57-1.3,3-2.65,2.56-2.46-5.54,2.75-11.51,3.9-16.7-.56C45.61,122.74,12.56,114.22,12.67,129.15Z" transform="translate(-10.39 2.53)"/><path id="path20" class="cls-7" d="M248.14-.93c-6.29,7.6-10.88,18.84-9.43,27.16-5.68-3.4-16.46-8.37-23.11,12.68,6.24-6.75,12.3-5.39,17.89-1.68.27.18.75.23.8.55,1.29,8.22,0,19.22-8.61,26.31,8.13,1.3,17.16,1.81,21.72-10.22C251.1,65.56,259.72,64,268.66,64c-8.11-7.64-9.6-19.43-7.88-26.2.2-.81-1,.39.53-.63,5.59-3.78,11.78-5.36,19.87,1.8C276.46,17.24,263,22.58,257.57,26.23c.49-8.81-3.86-19.07-9.43-27.16Z" transform="translate(-10.39 2.53)"/><path id="path22" class="cls-8" d="M254.1,50.53c1.87,8.83,4.42,12.71,12.53,12.78a30.54,30.54,0,0,1-6.93-25.18c.17-.81.88-2.23.23-1.52-5.35,5.88-6.42,15.48-5.83,13.92Z" transform="translate(-10.39 2.53)"/><path id="path24" class="cls-8" d="M234.07,36.33c-.23.22,1.19.41,1.06,1.16,0,0,3,0,11.86,13.56,0,0,0,.08,0,.12a.08.08,0,0,0-.06.07c-.4,2.42-8.53,11.53-12.69,12.43,0,0,5-.34,7.84-3a19.7,19.7,0,0,0,5.08-9c1.47,4-4.78-23.4-13.13-15.35Z" transform="translate(-10.39 2.53)"/><path id="path26" class="cls-8" d="M251.37,6.4c5.22,21.18-3.55,16.43-3.71,28.31,6.44-7.76,8.93-5.84,9.34-7.65C256.46,19,255.27,13.72,251.37,6.4Z" transform="translate(-10.39 2.53)"/><path id="path28" class="cls-7" d="M368.8,39.62c-7.8,2.8-15.34,8.81-16.81,15.19-3.71-4.62-11.22-12.33-23.69-.3,7.47-2.24,12.17,1.1,15.7,5.9l.5.69c3,4.61-5.21,13-15.84,14.93,6.27,1.42,16.41,9.66,24.5-2.82.59-.92.43-.72.13.14-4.82,14,4.36,16.15,11.79,19.61-4.95-9.62-2.84-18,2-21.52.13-.09.34,0,.53-.07,6-.42,11.71.92,16.24,9.11,3.07-17-10-18.62-15.84-18.23C371.24,56.31,370.89,47.44,368.8,39.62Z" transform="translate(-10.39 2.53)"/><path id="path30" class="cls-7" d="M131.38,39.66c7.79,2.81,15.33,8.81,16.8,15.19,3.71-4.62,11.23-12.33,23.7-.3-7.48-2.24-12.17,1.11-15.7,5.9-.17.23-.35.46-.5.7-3,4.6,5.21,13,15.83,14.92-6.26,1.42-16.41,9.66-24.49-2.82-.6-.92-.43-.71-.14.15,4.83,13.95-4.36,16.14-11.79,19.6,5-9.62,2.84-18-2-21.52-.13-.09-.35,0-.54-.06-6-.43-11.71.92-16.24,9.1-3.07-17,10-18.61,15.85-18.22-3.28-5.95-2.92-14.81-.83-22.64Z" transform="translate(-10.39 2.53)"/><path id="path32" class="cls-7" d="M306.85,42.24c-4.67,2.28-8.56,6.27-8.33,9.86-3.36-2.13-7.92-5.5-14,2.23,8.58-3.66,14.18,7.87,2.42,11.54,4.54.15,13,2.74,14.79-1.37,1.39,5.25,7.05,5.74,12.79,6.9-5.81-5.3-2.56-16.79,6.27-9.16-1.2-9.49-6.41-8.49-10.21-7.7C311.67,51,309.74,46.25,306.85,42.24Z" transform="translate(-10.39 2.53)"/><path id="path34" class="cls-8" d="M287.43,52.6c7.53-.1,9.76,8.55,3.24,12.65C302.5,60.94,294.55,45.63,287.43,52.6Z" transform="translate(-10.39 2.53)"/><path id="path36" class="cls-8" d="M302.5,60.94c4.48-2,5.22-4.17,10.3-5.76,0,0,0-.06,0-.06-2.78.46-3.06.61-3.51.68.13-.71,1-2.2.68-3-.05-.12-.05-.28-.13-.24a17.81,17.81,0,0,0-7.34,8.35Z" transform="translate(-10.39 2.53)"/><path id="path38" class="cls-7" d="M193.32,42.28c4.68,2.29,8.57,6.28,8.33,9.86,3.37-2.12,7.92-5.5,14,2.23-8.58-3.66-14.17,7.88-2.42,11.54-4.54.15-13,2.74-14.79-1.36-1.39,5.25-7,5.74-12.78,6.89,5.8-5.3,2.55-16.79-6.27-9.15,1.2-9.5,6.4-8.49,10.2-7.71-1.05-3.53.88-8.28,3.77-12.3Z" transform="translate(-10.39 2.53)"/><path id="path40" class="cls-7" d="M406.87,88.46c-5.2.07-10.42,2-11.75,5.35-2.13-3.36-4.8-8.36-13.57-4,9.32.37,9.45,13.19-2.75,11.47,4,2.08,10.59,8,14,5.09-1,5.34,3.91,8.21,8.6,11.71-3-7.28,4.87-16.27,9.59-5.6,3-9.09-2.16-10.41-5.93-11.33C407.48,98.45,407.77,93.33,406.87,88.46Z" transform="translate(-10.39 2.53)"/><path id="path42" class="cls-7" d="M93.3,88.5c5.2.07,10.43,2,11.75,5.36,2.13-3.36,4.8-8.37,13.57-4-9.32.36-9.44,13.18,2.75,11.46-4,2.08-10.58,8-14,5.1,1,5.34-3.91,8.2-8.6,11.7,3-7.27-4.87-16.27-9.58-5.59-3-9.1,2.15-10.42,5.93-11.34C92.69,98.49,92.41,93.37,93.3,88.5Z" transform="translate(-10.39 2.53)"/><path id="path44" class="cls-9" d="M247.42,78.64,265,85.87,247.42,93.1l-17.56-7.23Z" transform="translate(-10.39 2.53)"/><path id="path46" class="cls-9" d="M337.61,98.7l11.54,11.84-16.53-.28L321.08,98.42Z" transform="translate(-10.39 2.53)"/><path id="path48" class="cls-9" d="M162.57,97.92,151,109.77l16.53-.29L179.1,97.64Z" transform="translate(-10.39 2.53)"/><path id="path50" class="cls-9" d="M408.14,144.66,399.71,154l-7.14-14.91Z" transform="translate(-10.39 2.53)"/><path id="path52" class="cls-9" d="M92,143.88l8.43,9.35,7.14-14.9Z" transform="translate(-10.39 2.53)"/><path id="path54" class="cls-10" d="M294.73,85c-6.49-1.72-12.42-.56-13.25,2.58s3.75,7.1,10.23,8.81,12.42.56,13.26-2.58-3.75-7.09-10.24-8.81Z" transform="translate(-10.39 2.53)"/><path id="path56" class="cls-10" d="M205.45,84.21c6.49-1.72,12.42-.56,13.26,2.59s-3.75,7.09-10.24,8.8-12.42.56-13.25-2.58,3.75-7.09,10.23-8.81Z" transform="translate(-10.39 2.53)"/><path id="path58" class="cls-10" d="M373.83,119.52c-5.21-3.3-10.74-3.93-12.34-1.4s1.33,7.26,6.54,10.56,10.74,3.93,12.34,1.4-1.32-7.26-6.54-10.56Z" transform="translate(-10.39 2.53)"/><path id="path60" class="cls-10" d="M126.35,118.74c5.22-3.3,10.74-3.92,12.34-1.4s-1.33,7.26-6.54,10.56-10.74,3.93-12.34,1.4,1.33-7.26,6.54-10.56Z" transform="translate(-10.39 2.53)"/><path id="path62" class="cls-8" d="M394.86,102.63a6.24,6.24,0,0,0-.62,1.28c-1.46,5.26-.32,6.58,1.07,8.37a23.4,23.4,0,0,0,4.23,3.44c.16.08.43.2.4.13-1.45-3.2-6.6-8.17-5.08-13.22Z" transform="translate(-10.39 2.53)"/><path id="path64" class="cls-8" d="M105.27,102.63a6.24,6.24,0,0,1,.62,1.28c1.46,5.26.33,6.58-1.07,8.37a23.06,23.06,0,0,1-4.23,3.44c-.16.08-.43.2-.4.13C101.64,112.65,106.79,107.68,105.27,102.63Z" transform="translate(-10.39 2.53)"/><path id="path66" class="cls-8" d="M406.21,89.37c-1.52,2.08-5.86,3.57-7.41,6.58-.72,0-2.49.47-3.18,0-.11-.08-.23-.07-.2-.18,1.37-5.75,7.72-5.85,10.79-6.38Z" transform="translate(-10.39 2.53)"/><path id="path68" class="cls-8" d="M93.92,89.37c1.52,2.08,5.86,3.57,7.41,6.58.73,0,2.5.47,3.18,0,.11-.08.23-.07.2-.18C103.34,90,97,89.9,93.92,89.37Z" transform="translate(-10.39 2.53)"/><path id="path70" class="cls-8" d="M345.21,73.45c-4.9,4.51-7.68,5.76-13.07,2.79,6.91-2.39,11.47-6,13.66-10.93.24-.56.46-4,.55-3.3C347.05,67.83,347.26,71.05,345.21,73.45Z" transform="translate(-10.39 2.53)"/><path id="path72" class="cls-8" d="M154.92,73.45c4.9,4.51,7.68,5.76,13.07,2.79-6.9-2.39-11.47-6-13.65-10.93-.25-.56-.47-4-.55-3.3C153.08,67.83,152.87,71.05,154.92,73.45Z" transform="translate(-10.39 2.53)"/><path id="path74" class="cls-8" d="M365.93,70.91l-1.88,2.16a14.12,14.12,0,0,0-2.72,7.14,11.7,11.7,0,0,0,.41,5.29s-2.05-3.07-1.77-5.94a14.33,14.33,0,0,1,2.95-7C363.78,71.78,365.81,70.74,365.93,70.91Z" transform="translate(-10.39 2.53)"/><path id="path76" class="cls-8" d="M134.2,70.91l1.89,2.16a14.23,14.23,0,0,1,2.71,7.14,11.72,11.72,0,0,1-.4,5.29s2-3.07,1.76-5.94a14.23,14.23,0,0,0-2.95-7C136.35,71.78,134.33,70.74,134.2,70.91Z" transform="translate(-10.39 2.53)"/><path id="path78" class="cls-8" d="M365.57,42.2c-8.31,13.78-6.92,10.61-9.41,19-2.84-6.88-3.69-3.3-3.59-4.66C353.93,50.46,358.63,45.36,365.57,42.2Z" transform="translate(-10.39 2.53)"/><path id="path80" class="cls-8" d="M134.56,42.2c8.32,13.78,6.92,10.61,9.41,19,2.84-6.88,3.7-3.3,3.59-4.66C146.21,50.46,141.51,45.36,134.56,42.2Z" transform="translate(-10.39 2.53)"/><path id="path82" class="cls-8" d="M212.68,52.66c-7.52-.1-9.76,8.55-3.23,12.65C197.62,61,205.57,45.69,212.68,52.66Z" transform="translate(-10.39 2.53)"/><path id="path84" class="cls-8" d="M197.62,61c-4.48-2-5.22-4.18-10.31-5.76,0,0,0-.06,0-.06,2.78.46,3.05.61,3.51.68-.13-.71-1-2.2-.69-3,.06-.12.06-.28.14-.24A17.82,17.82,0,0,1,197.62,61Z" transform="translate(-10.39 2.53)"/></svg>