<svg id="Capa_1" data-name="Capa 1" xmlns="http://www.w3.org/2000/svg" viewBox="0 0 580.82 610.68"><defs><style>.cls-1,.cls-7{fill:#c5d005;}.cls-1,.cls-10,.cls-2,.cls-6,.cls-7,.cls-9{stroke:#1c1a19;}.cls-1,.cls-10,.cls-2,.cls-6,.cls-9{stroke-width:3.52px;}.cls-1,.cls-10,.cls-2,.cls-6,.cls-7,.cls-8,.cls-9{fill-rule:evenodd;}.cls-2,.cls-5{fill:#fff;}.cls-3{fill:#de0a1a;}.cls-4{fill:#2d4c9a;}.cls-6{fill:none;}.cls-7{stroke-width:2.35px;}.cls-8{fill:#e64921;}.cls-9{fill:#038f39;}.cls-10{fill:#e52e1a;}</style></defs><path id="path2" class="cls-1" d="M298.23,250c130.9,0,237,106.12,237,237s-106.12,237-237,237-237-106.12-237-237,106.12-237,237-237Z" transform="translate(-7.59 -115.08)"/><path id="path4" class="cls-2" d="M298.23,268.75c120.53,0,218.23,97.7,218.23,218.23h0c0,120.52-97.7,218.23-218.23,218.23S80,607.5,80,487,177.7,268.75,298.23,268.75Z" transform="translate(-7.59 -115.08)"/><path class="cls-3" d="M313,462.53c-12.9-3.42-25.7-7.19-38.28-11.68,0-31.81-.08-63.63.11-95.45,0-4.46-1.16-5.75-5.67-5.71-25.52.21-51,0-76.57.2-4.09,0-5.16-1.14-5-5.13.29-9.7.22-19.42,0-29.12-.06-3.19.66-4.55,4.12-4.33,4.48.28,9,.05,13.48.05q100.29,0,200.59-.09c4.7,0,6.6.9,6.33,6.1-.48,9-.41,18,0,26.95.2,4.66-1.43,5.58-5.76,5.56-28.94-.19-57.88,0-86.81-.22-5.32-.05-6.47,1.56-6.44,6.64C313.21,391.71,313,427.12,313,462.53Z" transform="translate(-7.59 -115.08)"/><path class="cls-3" d="M424.45,496c-12.07-2.17-23.49-6.54-35.11-10.23,0-23.85,0-47.71-.19-71.56,0-8.26-1.76-10-9.72-11.17-2.84-.41-5.72-.53-8.53-1.07s-3.44.56-3.45,3.09c0,5.37-.21,10.75-.37,16.13-.59,19,0,38-1.45,57-12.19-2.35-23.85-6.5-35.58-10.4,0-32.72.09-65.44-.14-98.16,0-4.68,1.31-5.63,5.73-5.37,16.51,1,33.07,1.1,49.54,2.47,21.91,1.83,38.07,14.53,39,38.17C425.3,435.24,424.64,465.63,424.45,496Z" transform="translate(-7.59 -115.08)"/><path class="cls-3" d="M219.18,558.05a277.66,277.66,0,0,1,32.22,9.56c-.41,21,.21,42-3.31,62.87-1.57,9.3-4.6,18.08-11.13,25.25-5.61,6.16-11.52,7.7-18.86,4-10.24-5.16-20.55-10.22-30.27-16.38-11.1-7.05-17.46-16.2-16.55-30.24.87-13.42.39-26.94.09-40.41-.12-5.33,2.5-8,6.92-9.51a26,26,0,0,1,15.38-.5c8.52,2.17,11.54,6.12,11.58,15,.05,9.52.07,19,0,28.56a19.66,19.66,0,0,0,1.89,8.86c.89,1.83,2.05,3.6,4.29,3.62a6.27,6.27,0,0,0,5.78-3.31c1.64-2.92,1.8-6.13,1.81-9.4Q219.05,582,219.18,558.05Z" transform="translate(-7.59 -115.08)"/><path class="cls-3" d="M247.84,442.45C234.69,440,222.26,435,209.42,431.4c-5-1.38-9.83-3.13-14.74-4.71-6.48-15.72-6.81-31.62-1.83-47.85,3.16-10.3,9.8-16.27,20.17-18.66a68.94,68.94,0,0,1,37.2,1.24,36.71,36.71,0,0,1,10.07,5c9,6.32,9.64,9.47,4.25,18.77-4,7-8,14-12.31,21.4-2.69-2.23-4.9-4.53-7.8-5.85-4.91-2.25-11.64-1.76-14.08,1.45-3.31,4.33-1.43,8.59.89,12.54C236.68,424.05,242.3,433.23,247.84,442.45Z" transform="translate(-7.59 -115.08)"/><path class="cls-3" d="M274.94,575c9,1.25,17.36,5,26.11,7.2,4.12,1,8.13,2.49,12.19,3.76,0,29.08-.19,58.16,0,87.24,0,4.77-1.18,6.14-6,5.93-9.5-.4-19-.21-28.54-.07-2.95.05-4.08-.75-4.06-3.9C274.84,641.73,274.87,608.34,274.94,575Z" transform="translate(-7.59 -115.08)"/><path class="cls-3" d="M376,605.07c11.17,2.89,22.32,5.79,33,10.16a61,61,0,0,1-22.54,18.7c-17.8,8.83-36,16.91-54,25.29a22.63,22.63,0,0,1-2.26.73V592c10.08.92,19.28,5.07,28.88,7.74,1.55.44,3.06,1,4.59,1.51v11.23Z" transform="translate(-7.59 -115.08)"/><path class="cls-4" d="M98.81,398.82l-3.1-.87,2.78,1.61Z" transform="translate(-7.59 -115.08)"/><path class="cls-4" d="M515.16,516l-.34-.1s0,.06,0,.09Z" transform="translate(-7.59 -115.08)"/><path class="cls-4" d="M463.65,629.63l1,.27-.79-.46A1.46,1.46,0,0,0,463.65,629.63Z" transform="translate(-7.59 -115.08)"/><path class="cls-4" d="M291.25,511.58l223.55,4.36s0-.06,0-.09l-416-117-.32.74Z" transform="translate(-7.59 -115.08)"/><path class="cls-4" d="M92.82,413.86A217.79,217.79,0,0,0,80.26,487q0,10.36,1,20.5L259.93,511Z" transform="translate(-7.59 -115.08)"/><path class="cls-4" d="M287.36,526.9l-203-4L463.65,629.63a1.46,1.46,0,0,1,.16-.19Z" transform="translate(-7.59 -115.08)"/><path class="cls-4" d="M473.44,617.45a217.1,217.1,0,0,0,38.77-86.16l-193.53-3.77Z" transform="translate(-7.59 -115.08)"/><path class="cls-5" d="M291.25,511.58l-192.76-112q-3.08,7-5.67,14.3L259.93,511Z" transform="translate(-7.59 -115.08)"/><path class="cls-5" d="M287.36,526.9,463.81,629.44q5-5.84,9.63-12L318.68,527.52Z" transform="translate(-7.59 -115.08)"/><path class="cls-5" d="M83.16,522.59l.06.33,1.19,0Z" transform="translate(-7.59 -115.08)"/><path class="cls-5" d="M81.22,507.48q.72,7.63,1.94,15.11l1.25.35,203,4L259.93,511Z" transform="translate(-7.59 -115.08)"/><path class="cls-5" d="M291.25,511.58l27.43,15.94,193.53,3.77q1.57-7.57,2.59-15.35Z" transform="translate(-7.59 -115.08)"/><polygon class="cls-5" points="283.66 396.5 252.34 395.89 279.77 411.83 311.09 412.44 283.66 396.5"/><path id="path4-2" data-name="path4" class="cls-6" d="M298.23,268.75c120.53,0,218.23,97.7,218.23,218.23h0c0,120.52-97.7,218.23-218.23,218.23S80,607.5,80,487,177.7,268.75,298.23,268.75Z" transform="translate(-7.59 -115.08)"/><path id="path6" class="cls-1" d="M478.17,307.72c-1-1-.52-.5-1.54-1.47l-.75-.71c-103.08-97.22-253.17-97.12-357.49.72l-1.17,1.1-.26.25c-2.32,10.83,4.56,18.13,9.53,16,107.07-106.77,257.23-90.3,344.36.93C475.67,324.42,479.21,316.06,478.17,307.72Z" transform="translate(-7.59 -115.08)"/><path id="path8" class="cls-1" d="M103.31,294.42c81.58-89.76,251.28-128.54,390.36.53-8.25,1.5-11.61,6.58-14.57,13.65-139.08-125.55-291-70.72-362.33,0a22.37,22.37,0,0,0-13.46-14.18Z" transform="translate(-7.59 -115.08)"/><path id="path10" class="cls-1" d="M87.11,286.06a4.57,4.57,0,0,1,.66-.66c111.08-110.89,292-127.77,420.22.64a15.06,15.06,0,0,1,1.13,1.13c6.22,7.6-8.51,16-15,8.58-.26-.3-.55-.58-.82-.86C449.13,248.5,371.85,210.44,293.5,213c-71.22,2.35-137,28.31-193.54,82.36-.32.3-.62.64-1,.93-4.89,4-18.33-.12-11.88-10.26Z" transform="translate(-7.59 -115.08)"/><path id="path12" class="cls-7" d="M543.59,260.86c16.91-10.8,40.64-11.42,43.34,16.27-8.9-8.64-27.53-8.77-49.55,8.19-4.92,3.79-16.15,5.4-22.13.93-3-2.28-4.66,2-6.13.92l-17-16c23.74,7.14,53-27.26,14-39.32C546.87,209.66,545.44,253.39,543.59,260.86Z" transform="translate(-7.59 -115.08)"/><path id="path14" class="cls-8" d="M495.36,272.59c22.42,4.23,49-27.56,13.81-41.12C546.53,234.69,526.09,280.5,495.36,272.59Z" transform="translate(-7.59 -115.08)"/><path id="path16" class="cls-7" d="M52.41,260.91C35.5,250.12,11.77,249.49,9.07,277.18c8.9-8.63,27.53-8.77,49.55,8.19,4.92,3.79,16.15,5.4,22.13.93,3-2.28,4.66,2,6.13.92l17-16c-23.74,7.14-53-27.25-14-39.32C49.13,209.71,50.56,253.44,52.41,260.91Z" transform="translate(-7.59 -115.08)"/><path id="path18" class="cls-8" d="M10.35,274.62C20.14,268.1,36.69,267,58.71,284c4.92,3.79,15.41,5.84,21.38,1.37.82-.61,1.61-1.23,2.36-1.85,1.9-1.57,3.59-3.21,3.11-3-6.72,3.32-14,4.72-20.24-.69C50.25,266.86,10.22,256.53,10.35,274.62Z" transform="translate(-7.59 -115.08)"/><path id="path20" class="cls-7" d="M295.65,117c-7.63,9.21-13.19,22.81-11.43,32.9-6.89-4.12-19.94-10.14-28,15.36,7.56-8.18,14.91-6.52,21.69-2,.32.22.9.28,1,.67,1.56,10-.06,23.28-10.44,31.88,9.85,1.56,20.79,2.19,26.32-12.39,4.47,14.16,14.92,12.32,25.76,12.32-9.83-9.25-11.64-23.54-9.56-31.74.25-1-1.18.47.65-.77,6.77-4.58,14.27-6.49,24.07,2.19-5.72-26.38-22-19.91-28.6-15.49.59-10.67-4.68-23.11-11.42-32.9Z" transform="translate(-7.59 -115.08)"/><path id="path22" class="cls-8" d="M302.87,179.36c2.26,10.7,5.34,15.4,15.17,15.49-8.15-9.43-10.2-21.78-8.39-30.51.21-1,1.06-2.7.28-1.84-6.49,7.12-7.78,18.75-7.06,16.86Z" transform="translate(-7.59 -115.08)"/><path id="path24" class="cls-8" d="M278.6,162.15c-.28.27,1.44.5,1.28,1.42,0,0,3.61,0,14.37,16.42,0,0,0,.1,0,.15a.1.1,0,0,0-.06.08c-.49,2.94-10.34,14-15.38,15.06,0,0,6-.41,9.49-3.66a24,24,0,0,0,6.17-10.86c1.78,4.88-5.79-28.36-15.91-18.61Z" transform="translate(-7.59 -115.08)"/><path id="path26" class="cls-8" d="M299.56,125.89c6.32,25.66-4.3,19.92-4.5,34.31,7.81-9.4,10.82-7.08,11.32-9.27C305.72,141.11,304.28,134.76,299.56,125.89Z" transform="translate(-7.59 -115.08)"/><path id="path28" class="cls-7" d="M441.83,166.14c-9.45,3.4-18.58,10.68-20.36,18.4-4.5-5.59-13.6-14.94-28.71-.36,9.06-2.71,14.74,1.34,19,7.15.21.28.42.55.61.84,3.62,5.58-6.32,15.74-19.19,18.08,7.59,1.73,19.88,11.71,29.68-3.41.72-1.12.52-.87.16.18-5.84,16.91,5.28,19.55,14.29,23.75-6-11.66-3.44-21.86,2.36-26.07a1.36,1.36,0,0,1,.65-.08c7.22-.52,14.19,1.11,19.68,11,3.72-20.63-12.17-22.55-19.2-22.07C444.79,186.37,444.36,175.62,441.83,166.14Z" transform="translate(-7.59 -115.08)"/><path id="path30" class="cls-7" d="M154.17,166.19c9.45,3.4,18.58,10.68,20.36,18.4,4.5-5.59,13.6-14.93,28.71-.36-9.06-2.71-14.74,1.34-19,7.15-.21.28-.42.56-.61.85C180,197.8,189.93,208,202.8,210.31c-7.59,1.72-19.88,11.7-29.68-3.42-.72-1.11-.52-.87-.16.18,5.84,16.91-5.28,19.55-14.29,23.75,6-11.66,3.44-21.85-2.36-26.07a1.36,1.36,0,0,0-.65-.08c-7.22-.52-14.19,1.11-19.68,11-3.72-20.63,12.17-22.56,19.2-22.08-4-7.2-3.54-18-1-27.43Z" transform="translate(-7.59 -115.08)"/><path id="path32" class="cls-7" d="M366.78,169.31c-5.67,2.78-10.38,7.61-10.1,11.95-4.07-2.57-9.59-6.66-16.91,2.7,10.39-4.43,17.17,9.54,2.93,14,5.5.18,15.76,3.32,17.92-1.66,1.68,6.36,8.54,7,15.49,8.36-7-6.42-3.1-20.35,7.6-11.1-1.46-11.5-7.76-10.28-12.37-9.33C372.62,179.94,370.28,174.18,366.78,169.31Z" transform="translate(-7.59 -115.08)"/><path id="path34" class="cls-8" d="M343.25,181.87c9.11-.12,11.82,10.36,3.92,15.33C361.5,192,351.87,173.43,343.25,181.87Z" transform="translate(-7.59 -115.08)"/><path id="path36" class="cls-8" d="M361.5,192c5.43-2.44,6.32-5.06,12.49-7,0,0,0-.08,0-.08-3.37.56-3.7.75-4.25.83.16-.86,1.24-2.66.83-3.6-.07-.15-.07-.34-.16-.29A21.54,21.54,0,0,0,361.5,192Z" transform="translate(-7.59 -115.08)"/><path id="path38" class="cls-7" d="M229.22,169.37c5.67,2.77,10.38,7.6,10.1,11.95,4.07-2.58,9.59-6.67,16.91,2.69-10.39-4.43-17.17,9.55-2.93,14-5.5.18-15.76,3.32-17.92-1.66-1.68,6.36-8.54,7-15.49,8.36,7-6.42,3.1-20.34-7.6-11.09,1.46-11.51,7.76-10.29,12.37-9.34-1.28-4.28,1.06-10,4.56-14.9Z" transform="translate(-7.59 -115.08)"/><path id="path40" class="cls-7" d="M488,225.32c-6.3.08-12.63,2.43-14.24,6.48-2.58-4.07-5.82-10.13-16.44-4.8,11.3.44,11.44,16-3.33,13.9,4.9,2.52,12.83,9.74,16.91,6.17-1.2,6.47,4.74,9.94,10.43,14.18-3.62-8.81,5.9-19.72,11.61-6.78,3.6-11-2.62-12.62-7.19-13.73C488.7,237.42,489,231.22,488,225.32Z" transform="translate(-7.59 -115.08)"/><path id="path42" class="cls-7" d="M108,225.37c6.3.08,12.63,2.43,14.24,6.48,2.58-4.07,5.82-10.13,16.43-4.79-11.29.44-11.43,16,3.34,13.89-4.9,2.52-12.83,9.75-16.91,6.17,1.2,6.47-4.74,9.94-10.43,14.18,3.62-8.81-5.9-19.71-11.61-6.78-3.6-11,2.62-12.62,7.19-13.73C107.3,237.47,107,231.27,108,225.37Z" transform="translate(-7.59 -115.08)"/><path id="path44" class="cls-9" d="M294.77,213.41l21.28,8.77-21.28,8.76-21.27-8.76Z" transform="translate(-7.59 -115.08)"/><path id="path46" class="cls-9" d="M404,237.73l14,14.34-20-.34-14-14.35Z" transform="translate(-7.59 -115.08)"/><path id="path48" class="cls-9" d="M192,236.78l-14,14.35,20-.34,14-14.35Z" transform="translate(-7.59 -115.08)"/><path id="path50" class="cls-9" d="M489.5,293.41l-10.22,11.33-8.64-18.06Z" transform="translate(-7.59 -115.08)"/><path id="path52" class="cls-9" d="M106.52,292.47l10.21,11.33,8.65-18.07Z" transform="translate(-7.59 -115.08)"/><path id="path54" class="cls-10" d="M352.09,221.11c-7.86-2.08-15-.68-16.06,3.13s4.54,8.6,12.4,10.68,15.05.68,16.06-3.14-4.54-8.59-12.4-10.67Z" transform="translate(-7.59 -115.08)"/><path id="path56" class="cls-10" d="M243.92,220.17c7.86-2.09,15.05-.68,16.06,3.13s-4.54,8.59-12.4,10.67-15.05.68-16.06-3.13,4.54-8.59,12.4-10.67Z" transform="translate(-7.59 -115.08)"/><path id="path58" class="cls-10" d="M447.93,263c-6.32-4-13-4.76-14.95-1.69s1.61,8.79,7.92,12.79,13,4.75,15,1.69-1.6-8.79-7.92-12.79Z" transform="translate(-7.59 -115.08)"/><path id="path60" class="cls-10" d="M148.08,262c6.32-4,13-4.76,15-1.7s-1.61,8.79-7.93,12.79-13,4.76-15,1.7,1.61-8.79,7.92-12.79Z" transform="translate(-7.59 -115.08)"/><path id="path62" class="cls-8" d="M473.41,242.48a8.19,8.19,0,0,0-.76,1.55c-1.76,6.38-.39,8,1.3,10.15a28.8,28.8,0,0,0,5.12,4.17c.2.1.53.23.49.15-1.76-3.87-8-9.9-6.15-16Z" transform="translate(-7.59 -115.08)"/><path id="path64" class="cls-8" d="M122.54,242.48a7.63,7.63,0,0,1,.76,1.55c1.76,6.38.39,8-1.3,10.15a28.8,28.8,0,0,1-5.12,4.17c-.2.1-.53.23-.49.15C118.15,254.63,124.38,248.6,122.54,242.48Z" transform="translate(-7.59 -115.08)"/><path id="path66" class="cls-8" d="M487.16,226.42c-1.84,2.52-7.1,4.33-9,8-.88,0-3,.57-3.85,0-.14-.1-.28-.09-.25-.22,1.67-7,9.35-7.08,13.08-7.73Z" transform="translate(-7.59 -115.08)"/><path id="path68" class="cls-8" d="M108.79,226.42c1.84,2.52,7.1,4.33,9,8,.88,0,3,.57,3.85,0,.14-.1.28-.09.25-.22C120.2,227.18,112.52,227.07,108.79,226.42Z" transform="translate(-7.59 -115.08)"/><path id="path70" class="cls-8" d="M413.25,207.13c-5.93,5.47-9.3,7-15.83,3.38,8.36-2.89,13.9-7.22,16.54-13.24.3-.68.56-4.85.67-4C415.48,200.33,415.73,204.22,413.25,207.13Z" transform="translate(-7.59 -115.08)"/><path id="path72" class="cls-8" d="M182.7,207.13c5.93,5.47,9.3,7,15.83,3.38-8.36-2.89-13.9-7.22-16.54-13.24-.29-.68-.56-4.85-.66-4C180.47,200.33,180.22,204.22,182.7,207.13Z" transform="translate(-7.59 -115.08)"/><path id="path74" class="cls-8" d="M438.36,204.06l-2.29,2.61a17.23,17.23,0,0,0-3.29,8.65c-.23,2.6-.15,5.06.49,6.41,0,0-2.48-3.72-2.13-7.2a17.13,17.13,0,0,1,3.57-8.49C435.75,205.1,438.21,203.85,438.36,204.06Z" transform="translate(-7.59 -115.08)"/><path id="path76" class="cls-8" d="M157.59,204.06l2.29,2.61a17.23,17.23,0,0,1,3.29,8.65c.23,2.6.15,5.06-.49,6.41,0,0,2.48-3.72,2.13-7.2a17.13,17.13,0,0,0-3.57-8.49C160.2,205.1,157.75,203.85,157.59,204.06Z" transform="translate(-7.59 -115.08)"/><path id="path78" class="cls-8" d="M437.92,169.28c-10.07,16.69-8.38,12.84-11.4,23-3.44-8.33-4.48-4-4.35-5.65C423.81,179.28,429.5,173.1,437.92,169.28Z" transform="translate(-7.59 -115.08)"/><path id="path80" class="cls-8" d="M158,169.28c10.08,16.69,8.39,12.84,11.4,23,3.44-8.33,4.48-4,4.35-5.65C172.14,179.28,166.45,173.1,158,169.28Z" transform="translate(-7.59 -115.08)"/><path id="path82" class="cls-8" d="M252.68,181.94c-9.11-.12-11.82,10.36-3.92,15.33C234.43,192.05,244.06,173.5,252.68,181.94Z" transform="translate(-7.59 -115.08)"/><path id="path84" class="cls-8" d="M234.43,192.05c-5.43-2.44-6.32-5.06-12.49-7,0,0,0-.08,0-.07,3.37.55,3.7.74,4.25.82-.16-.86-1.24-2.66-.83-3.6.07-.15.07-.34.16-.29a21.63,21.63,0,0,1,8.9,10.12Z" transform="translate(-7.59 -115.08)"/></svg>