<svg id="Capa_1" data-name="Capa 1" xmlns="http://www.w3.org/2000/svg" viewBox="0 0 561.98 817.93"><defs><style>.cls-1,.cls-10,.cls-12,.cls-13,.cls-14,.cls-15,.cls-16,.cls-17,.cls-21,.cls-9{fill:none;}.cls-1{stroke:#1d1d1b;stroke-width:12.93px;}.cls-1,.cls-4,.cls-6{stroke-linejoin:round;}.cls-2,.cls-3,.cls-4,.cls-6,.cls-7,.cls-8{fill:#eac108;}.cls-10,.cls-11,.cls-12,.cls-13,.cls-14,.cls-15,.cls-16,.cls-17,.cls-18,.cls-19,.cls-2,.cls-20,.cls-21,.cls-22,.cls-23,.cls-24,.cls-3,.cls-4,.cls-5,.cls-6,.cls-7,.cls-8,.cls-9{stroke:#010101;}.cls-17,.cls-19,.cls-2,.cls-22,.cls-3,.cls-5{stroke-miterlimit:21.38;}.cls-19,.cls-2,.cls-22{stroke-width:1.12px;}.cls-17,.cls-3,.cls-4,.cls-5{stroke-width:1.2px;}.cls-18,.cls-24,.cls-5{fill:#e52629;}.cls-6{stroke-width:1.12px;}.cls-18,.cls-20,.cls-21,.cls-23,.cls-24,.cls-7{stroke-miterlimit:4.28;}.cls-20,.cls-21,.cls-23,.cls-24,.cls-7{stroke-width:1.12px;}.cls-8{stroke-width:0.22px;}.cls-9{stroke-width:1.12px;}.cls-10{stroke-width:1.12px;}.cls-11,.cls-22,.cls-23{fill:#e3e3e4;}.cls-11{stroke-miterlimit:3.4;stroke-width:1.12px;}.cls-12{stroke-width:1.12px;}.cls-13{stroke-width:1.12px;}.cls-14{stroke-width:1.12px;}.cls-15{stroke-width:1.12px;}.cls-16{stroke-width:1.12px;}.cls-18{stroke-width:1.2px;}.cls-19,.cls-20{fill:#03904c;}.cls-25{fill:#fff;}.cls-26,.cls-30,.cls-31{fill:#1d1d1b;}.cls-27{fill:#009442;}.cls-28{fill:#463e92;}.cls-29{fill:#e87619;}.cls-30{font-size:59.87px;}.cls-30,.cls-31{font-family:Arial-BoldMT, Arial;font-weight:700;}.cls-31{font-size:64.63px;}</style></defs><path class="cls-1" d="M463.47,203.13c-2.87-1.55-3.11-5.22-.69-13.57l.77.64.2-.09.12.09L474,185.37l-6-9c4-6.58,8.39-7.32,9.66-7.39l.13,0a5.52,5.52,0,0,0,7.33-3.65c1-3.32-.66-7.14-3.74-8.22-27.71-9.7-62.53-17.22-101.68-21.76,1.11.11,2.22.22,3.35.22,11.22,0,20.79-5.21,27.67-13.66a36.09,36.09,0,0,0,33.68,23.41,33.86,33.86,0,0,0,18.94-5.84c2.83,8.13,8.33,15.19,16,16.61,7.29,1.36,16.46-2.84,22.5-6.86,10.66-7,20.46-23.91,21.13-25.07.1,0,.2.12.31.17a14.21,14.21,0,0,0,15.36-14.5,15.29,15.29,0,0,0,2.71-4.06,21.18,21.18,0,0,1,6.33-7.79c9.89-7.94,7.33-3.54,24.86-13.47-7.15-1.32-24.27-9.2-28.73-4.53,0,0-1.18-2.47-3.32-5.92-1.76-2.85-2.63-4-2.63-4s-1.57,3.73-2.35,5.61-3.52,7.94-4,12.29c-.1,1-.22,2-.35,3.14-.23-1.14-.46-2.26-.66-3.28-.83-4.28-4.09-10-5-11.76l-2.84-5.3s-.76,1.21-2.26,4.25c-1.82,3.69-2.77,6.28-2.77,6.28-4.85-4.12-12.2-4.48-19.19-2.33-1.11,8.11,0,16.3,4.09,21.44a56.41,56.41,0,0,0-5.19,3.78,44.27,44.27,0,0,0-3.45,3s3.25,1.8,4.88,2.72,7,4,10.8,4.46a44,44,0,0,0,9.39.07,17.41,17.41,0,0,0,0,2.39A168.16,168.16,0,0,1,503,133.16c-12.22,10.94-21.44,10.29-21.44,10.29-8-1.49-11.51-9.91-11.51-19.29v-.59c.32,0,.63.1.95.1a11.36,11.36,0,1,0-10.8-11.35,11.44,11.44,0,0,0,5,9.56l-.38.55a24.54,24.54,0,0,1-20.8,12c-13.81,0-25-12.06-25-27a28.74,28.74,0,0,1,2.45-12.35l-.12-.32A11,11,0,0,0,424.78,93a59.18,59.18,0,0,0,5.63,8.53c2.61,3.22,8,6.23,9.58,7.23l4.82,2.86s.12-1.51,0-4.94c-.08-4.26-.42-7-.42-7,6,.67,12.49-3.17,17.53-9-2.65-7.68-7.29-14.2-13.07-16.19,0,0,1.25-2.42,2.77-6.28,1.25-3.18,1.64-4.6,1.64-4.6l-5.42.55c-1.71.17-7.13.56-10.67,2.12l.21-.23c2.83-3,5.47-9.11,6.35-10.93s2.5-5.5,2.5-5.5a36.54,36.54,0,0,0-4.33-.05,50.34,50.34,0,0,0-6.15.48c.59-6.88-2.78-14.24-7.91-20-6.74,3-12.45,8.31-14.2,14.91a56.75,56.75,0,0,0-5.5-3.16,40.85,40.85,0,0,0-4-1.88l.48,6.19c.15,2.06.52,8.88,2.09,12.87.35.9.73,1.89,1.11,2.9-.72-.84-1.42-1.67-2-2.43-2.62-3.2-8-6.23-9.59-7.18l-4.81-2.91s-.12,1.48-.05,5c.08,4.23.42,7,.42,7-6-.72-12.5,3.24-17.55,9.15,2.66,7.63,7.3,14,13.09,16.07,0,0-1.25,2.39-2.77,6.27-1.24,3.14-1.64,4.58-1.64,4.58l5.42-.5c1.81-.22,7.79-.62,11.29-2.44A50.67,50.67,0,0,0,408,88.8a12.33,12.33,0,0,0,1.8,2.68l-.95,1.08a28,28,0,0,1,.2,3.45c0,15.63-11.71,28.26-26.15,28.26a26.2,26.2,0,0,1-25.4-20.72,11.3,11.3,0,1,0-12-11.23,11.38,11.38,0,0,0,5.73,10c-4,10-13.27,16.94-24,16.94-14.47,0-26.22-12.69-26.22-28.29a32.31,32.31,0,0,1,1-8.75,12,12,0,0,0,2.11-2.11,54.65,54.65,0,0,0,7.29,7.45c3.12,2.57,8.91,4.31,10.64,4.94l5.23,1.7s-.14-1.5-.82-4.85c-.81-4.15-1.63-6.77-1.63-6.77,6-.71,11.69-5.93,15.62-12.8-3.93-6.94-9.6-12.28-15.62-12.93,0,0,.82-2.65,1.63-6.78.68-3.4.82-4.88.82-4.88l-5.23,1.77c-1.73.57-7.52,2.33-10.64,4.88l-2.42,1.92,1.58-2.6c2.24-3.55,3.78-10.16,4.28-12.14l1.55-6a38.65,38.65,0,0,0-4.28.93,53.09,53.09,0,0,0-5.94,1.86C305.68,29,301,22.48,294.92,18c-6,4.48-10.61,10.93-11.23,17.82A50.73,50.73,0,0,0,277.76,34,36.85,36.85,0,0,0,273.5,33s1,4,1.5,6,2.07,8.59,4.32,12.14l.18.28c-3.21-2.33-8.45-3.94-10.09-4.48l-5.23-1.77s.14,1.48.82,4.88c.81,4.13,1.63,6.78,1.63,6.78-6,.65-11.69,6-15.62,12.93,3.93,6.87,9.58,12.09,15.62,12.8,0,0-.82,2.62-1.63,6.77-.68,3.35-.82,4.85-.82,4.85l5.23-1.7c1.73-.63,7.52-2.37,10.64-4.94a53.1,53.1,0,0,0,7-7.09,12,12,0,0,0,2.32,2.07,33.46,33.46,0,0,1,.86,8.43c0,15.6-11.72,28.29-26.17,28.29-10.45,0-19.46-6.6-23.67-16.14a11.21,11.21,0,0,0,7.52-10.77,10.83,10.83,0,1,0-21.63,0,11.27,11.27,0,0,0,7.62,10.8c-2.74,12.73-13.47,21.15-25.51,21.15-14.45,0-26.15-12.63-26.15-28.26a32.62,32.62,0,0,1,.2-3.45l-.05-.06a12.71,12.71,0,0,0,2.11-3.28,49.18,49.18,0,0,0,7.91,5.24c3.51,1.82,9.48,2.22,11.29,2.44l5.42.5s-.4-1.44-1.64-4.58c-1.52-3.88-2.77-6.27-2.77-6.27,5.79-2,10.43-8.44,13.1-16.07-5.06-5.91-11.54-9.87-17.56-9.15,0,0,.34-2.78.43-7,.07-3.49,0-5,0-5l-4.81,2.91c-1.61,1-7,4-9.59,7.18-.63.76-1.33,1.59-2.05,2.43.39-1,.76-2,1.11-2.9,1.57-4,1.94-10.81,2.09-12.87s.49-6.19.49-6.19a40.06,40.06,0,0,0-4,1.88,58.35,58.35,0,0,0-5.5,3.16c-1.75-6.6-7.46-11.89-14.2-14.91-5.13,5.75-8.5,13.11-7.91,20a50,50,0,0,0-6.14-.48,36.41,36.41,0,0,0-4.33.05l2.5,5.5c.88,1.82,3.51,7.95,6.34,10.93l.22.23c-3.55-1.56-9-2-10.67-2.12l-5.43-.55s.39,1.42,1.64,4.6c1.52,3.86,2.77,6.28,2.77,6.28-5.78,2-10.42,8.51-13.07,16.19,5.05,5.86,11.49,9.7,17.53,9,0,0-.34,2.75-.42,7-.08,3.43,0,4.94,0,4.94l4.83-2.86c1.59-1,7-4,9.58-7.23A57.55,57.55,0,0,0,167,93.48a11.58,11.58,0,0,0,2.93,1.87,28.83,28.83,0,0,1,2.36,12.1c0,14.92-11.18,27-25,27a24.57,24.57,0,0,1-20.8-12l-.33-.48a11.42,11.42,0,0,0,5.12-9.63,10.82,10.82,0,1,0-10.81,11.35c.27,0,.53-.06.8-.08v.57c0,9.38-3.47,17.8-11.51,19.29,0,0-9.21.67-21.43-10.29A173.09,173.09,0,0,1,75,119.85a15.76,15.76,0,0,0-.6-10,19.84,19.84,0,0,1,1.45,4.53l0,0a46.59,46.59,0,0,0,10.59,0c3.82-.47,9.14-3.6,10.8-4.46s4.88-2.72,4.88-2.72a44.27,44.27,0,0,0-3.45-3,56.41,56.41,0,0,0-5.19-3.78c4.07-5.14,5.2-13.33,4.09-21.44-7-2.15-14.34-1.79-19.19,2.33,0,0-.95-2.59-2.77-6.28-1.5-3-2.26-4.25-2.26-4.25l-2.84,5.3c-1,1.75-4.22,7.48-5,11.76-.21,1-.44,2.14-.67,3.28-.13-1.1-.25-2.17-.35-3.14-.43-4.35-3.16-10.44-4-12.29s-2.35-5.61-2.35-5.61-.87,1.11-2.63,4c-2.14,3.45-3.32,5.92-3.32,5.92-4.46-4.67-21.58,3.21-28.73,4.53,17.52,9.93,15,5.53,24.86,13.47a25.38,25.38,0,0,1,3.78,3.77l-.29-.07c.1,0,.21.06.32.11A17.32,17.32,0,0,1,55,106.77a15.85,15.85,0,0,0,.87,1.93,14.19,14.19,0,0,0,12.57,15.68c1.27,2.2,10.75,18.14,21,24.92,6,4,15.22,8.22,22.51,6.86,7.69-1.42,13.18-8.48,16-16.61A33.77,33.77,0,0,0,147,145.39,36.08,36.08,0,0,0,180.65,122c6.87,8.45,16.45,13.66,27.67,13.66.88,0,1.74-.1,2.61-.17-38.94,4.54-73.54,12-101.17,21.71-3.08,1.08-4.74,4.9-3.74,8.22a5.52,5.52,0,0,0,7.33,3.65l.14,0c.84,0,5.58.3,9.92,7.45l-6,8.91h0l.13.06v.08l1.9.83,8.06,3.86,1-.8c2.11,7.23,2.25,11,.44,12.9a7.08,7.08,0,0,0-4.26,7c0,.11,0,.21,0,.32s0,.06,0,.08a8.19,8.19,0,0,0,1.73,5.63H60.54V730.08A56.49,56.49,0,0,0,117,786.57H261.57A36.43,36.43,0,0,1,298,823a36.43,36.43,0,0,1,36.43-36.43H479a56.49,56.49,0,0,0,56.49-56.49V215.35h-72.3a8.28,8.28,0,0,0,1.72-5.63s0-.06,0-.09,0-.2,0-.31c.06-3.21-1.5-6.12-4.45-7.14M71.81,105.62l-.21-.23s.1.08.14.13A.61.61,0,0,0,71.81,105.62Zm-.25-.27c-.28-.28-.57-.55-.87-.8A5.07,5.07,0,0,1,71.56,105.35Zm102.18-35h0Zm-1.17,0-.07.1c-.22,0-.43,0-.65.08a10.52,10.52,0,0,0-1.74.6l-.06,0A8.22,8.22,0,0,1,172.57,70.39ZM293.21,59.72a8.06,8.06,0,0,1,4.19,0,11.18,11.18,0,0,0-1.93-.21A10.58,10.58,0,0,0,293.21,59.72Zm-.56.17.42-.14C292.93,59.78,292.79,59.85,292.65,59.89Zm3,53a37.41,37.41,0,0,0,28.21,18.28q-14-.54-28.45-.58-13.8,0-27.23.53A37.45,37.45,0,0,0,295.65,112.89ZM238,120.1a36,36,0,0,0,25,11.25c-16.9.74-33.27,2-48.95,3.76A37.44,37.44,0,0,0,238,120.1Zm90.14,11.26a36,36,0,0,0,25.12-11.26,37.5,37.5,0,0,0,24.53,15.11C361.91,133.41,345.31,132.11,328.17,131.36ZM422,71.14l-.06,0a10.21,10.21,0,0,0-1.74-.6c-.22,0-.43,0-.65-.08l-.07-.1A8.22,8.22,0,0,1,422,71.14Zm-3.69-.8h0Z" transform="translate(-17.01 -11.54)"/><g id="layer1"><g id="g7054"><g id="g6877"><path id="path831" class="cls-2" d="M162.6,83.78c0-6.91,5.17-12.5,11.55-12.5s11.54,5.59,11.54,12.5-5.18,12.47-11.54,12.47S162.6,90.66,162.6,83.78Z" transform="translate(-17.01 -11.54)"/><path id="path838" class="cls-3" d="M294.81,240.17c-65.34-.11-123.88-8.94-165.65-23.29-3.06-1.06-4.66-4.25-4.48-7.56-.06-3.21,1.52-6.12,4.48-7.14,41.77-14.33,100.31-23.16,165.65-23.27,65.34.11,123.83,8.94,165.61,23.27,3,1,4.51,3.93,4.45,7.14.16,3.31-1.41,6.5-4.45,7.56-41.78,14.35-100.27,23.18-165.61,23.29" transform="translate(-17.01 -11.54)"/><path id="path6682" class="cls-4" d="M295.41,230.39c-59-.09-112.28-7.85-152.85-19.81,40.57-12,93.87-19.3,152.85-19.43,59,.13,112.54,7.45,153.12,19.43-40.58,12-94.16,19.72-153.12,19.81Z" transform="translate(-17.01 -11.54)"/><path id="path840" class="cls-5" d="M295.41,230.39c-59-.09-112.28-7.85-152.85-19.81,40.57-12,93.87-19.3,152.85-19.43,59,.13,112.54,7.45,153.12,19.43-40.58,12-94.16,19.72-153.12,19.81" transform="translate(-17.01 -11.54)"/><path id="path834" class="cls-6" d="M295.11,178.85c-66.13.15-125.48,9.6-167.26,24.28,3.47-1.88,3.16-6.76-1.16-19.44C121.48,168.34,113.35,169,113.35,169c46.19-15.56,110.48-25.3,182-25.41C367,143.71,431.78,153.45,478,169c0,0-8.14-.67-13.35,14.68-4.31,12.68-4.64,17.56-1.16,19.44C421.7,188.45,361.23,179,295.11,178.85" transform="translate(-17.01 -11.54)"/><path id="path836" class="cls-2" d="M295.39,143.62c-71.56.13-135.85,9.84-182,25.43A5.52,5.52,0,0,1,106,165.4c-1-3.32.66-7.14,3.74-8.22,46.38-16.23,112.33-26.42,185.65-26.59,73.32.15,139.53,10.36,185.92,26.59,3.08,1.08,4.74,4.9,3.74,8.22a5.52,5.52,0,0,1-7.33,3.65c-46.2-15.59-110.76-25.3-182.35-25.43" transform="translate(-17.01 -11.54)"/><path id="path4094" class="cls-7" d="M294.81,179.3c-65.35.11-123.89,8.94-165.66,23.28-3,1-4.53,3.93-4.48,7.14-.18,3.31,1.42,6.49,4.48,7.55,41.77,14.35,100.31,23.17,165.66,23.28,65.33-.11,123.84-8.93,165.62-23.28,3-1.06,4.61-4.24,4.45-7.55.05-3.21-1.49-6.13-4.45-7.14C418.65,188.24,360.14,179.41,294.81,179.3Zm-.18,12.26c59,.13,112.56,7.43,153.13,19.4-40.57,12-94.16,19.72-153.13,19.81-59-.09-112.27-7.85-152.84-19.81C182.36,199,235.66,191.69,294.63,191.56Z" transform="translate(-17.01 -11.54)"/><path id="path910" class="cls-2" d="M295.79,79.69l6.6,1.39a29.61,29.61,0,0,0-1.29,9.86c0,15.6,11.75,28.29,26.22,28.29,11.61,0,21.49-8.2,24.89-19.52.38.3,2.5-10.24,3.6-10.11.91.11.82,10.94,1.15,10.75,1.68,14.26,13.11,23.92,26,23.92,14.44,0,26.15-12.63,26.15-28.26a28,28,0,0,0-.2-3.45l8.21-9.28,4.41,11.82a28.74,28.74,0,0,0-2.45,12.35c0,14.92,11.19,27,25,27a24.54,24.54,0,0,0,20.8-12l5.25-7.62,0,9.35c0,9.38,3.48,17.8,11.51,19.29,0,0,9.22.65,21.44-10.29a150.51,150.51,0,0,0,19-20l1,11S512.88,142,501.83,149.3c-6,4-15.21,8.22-22.5,6.86-7.71-1.42-13.21-8.48-16-16.61a33.86,33.86,0,0,1-18.94,5.84A36.09,36.09,0,0,1,410.67,122c-6.88,8.45-16.45,13.66-27.67,13.66a37,37,0,0,1-29.71-15.54,36,36,0,0,1-26,11.31c-13.21,0-25-7.38-31.67-18.52C289,124,277.21,131.41,264,131.41a36,36,0,0,1-26-11.31,37,37,0,0,1-29.71,15.54c-11.22,0-20.8-5.21-27.67-13.66A36.08,36.08,0,0,1,147,145.39a33.77,33.77,0,0,1-18.92-5.84c-2.86,8.13-8.35,15.19-16,16.61-7.29,1.36-16.46-2.84-22.51-6.86C78.44,142,68.31,124.11,68.31,124.11l1.06-11a151.62,151.62,0,0,0,18.95,20c12.22,11,21.43,10.29,21.43,10.29,8-1.49,11.51-9.91,11.51-19.29l0-9.35,5.25,7.62a24.57,24.57,0,0,0,20.8,12c13.81,0,25-12.06,25-27A28.59,28.59,0,0,0,169.8,95.1l4.41-11.82,8.22,9.28a32.62,32.62,0,0,0-.2,3.45c0,15.63,11.7,28.26,26.15,28.26,12.89,0,24.3-9.66,26-23.92.36.19.26-10.64,1.17-10.75,1.08-.13,3.22,10.41,3.58,10.11,3.42,11.32,13.29,19.52,24.94,19.52,14.45,0,26.17-12.69,26.17-28.29A29.61,29.61,0,0,0,289,81.08l6.83-1.39" transform="translate(-17.01 -11.54)"/><g id="g4615"><path id="path4619" class="cls-8" d="M75.83,114.39a20.85,20.85,0,0,0-4.09-8.87c-2.15-2.72-6.82-2.52-9.31-3.43,0,0,1.93-8.55,3-14.16.82-4.28,4.08-10,5-11.76l2.84-5.3s.76,1.21,2.26,4.25c1.82,3.69,2.77,6.28,2.77,6.28,4.85-4.12,12.2-4.48,19.19-2.33,1.11,8.11,0,16.3-4.09,21.44a56.41,56.41,0,0,1,5.19,3.78,44.27,44.27,0,0,1,3.45,3s-3.25,1.8-4.88,2.72-7,4-10.8,4.46a46.59,46.59,0,0,1-10.59,0" transform="translate(-17.01 -11.54)"/><path id="path4621" class="cls-8" d="M59.69,116c1.82-10,.41-12.68,6.5-13.45,0,0-1.15-8.73-1.74-14.44-.43-4.35-3.16-10.44-4-12.29s-2.35-5.61-2.35-5.61-.87,1.11-2.63,4c-2.14,3.45-3.32,5.92-3.32,5.92-4.46-4.67-21.58,3.21-28.73,4.53,17.53,9.93,15,5.53,24.86,13.47a20.24,20.24,0,0,1,6.7,8.72c1.64,4.51,6,8.83,4.66,9.19Z" transform="translate(-17.01 -11.54)"/></g><path id="path930" class="cls-8" d="M287.88,79.38a21.94,21.94,0,0,1-2.16-9.71c0-3.66,4.38-4.28,5.7-6.86,0,0-7.25-7.68-11.37-11-3.12-2.55-8.91-4.31-10.64-4.88l-5.23-1.77s.14,1.48.82,4.88c.81,4.13,1.63,6.78,1.63,6.78-6,.65-11.69,6-15.62,12.93,3.93,6.87,9.58,12.09,15.62,12.8,0,0-.82,2.62-1.63,6.77-.68,3.35-.82,4.85-.82,4.85l5.23-1.7c1.73-.63,7.52-2.37,10.64-4.94a56.49,56.49,0,0,0,7.83-8.12" transform="translate(-17.01 -11.54)"/><path id="path4585" class="cls-8" d="M303.65,79.38a21.94,21.94,0,0,0,2.16-9.71c0-3.66-3.58-7.09-4.9-9.66,0,0,6.45-4.88,10.57-8.2,3.12-2.55,8.91-4.31,10.64-4.88l5.23-1.77s-.14,1.48-.82,4.88c-.81,4.13-1.63,6.78-1.63,6.78,6,.65,11.69,6,15.62,12.93-3.93,6.87-9.58,12.09-15.62,12.8,0,0,.82,2.62,1.63,6.77.68,3.35.82,4.85.82,4.85l-5.23-1.7c-1.73-.63-7.52-2.37-10.64-4.94a56.49,56.49,0,0,1-7.83-8.12" transform="translate(-17.01 -11.54)"/><path id="path4587" class="cls-8" d="M287,63.26c7.21-6,11.46-4.15,16.43-.07,0,0,4.28-7.36,7.19-12.06,2.24-3.55,3.78-10.16,4.28-12.14l1.55-6a38.65,38.65,0,0,0-4.28.93,53.09,53.09,0,0,0-5.94,1.86C305.68,29,301,22.48,294.92,18c-6,4.48-10.61,10.93-11.23,17.82A50.73,50.73,0,0,0,277.76,34,36.85,36.85,0,0,0,273.5,33s1,4,1.5,6,2.07,8.59,4.32,12.14c2.92,4.7,7.7,12.13,7.7,12.13Z" transform="translate(-17.01 -11.54)"/><g id="g7783"><g id="g7764"><g id="g7745"><path id="path7739" class="cls-9" d="M294.77,35.83V62.11" transform="translate(-17.01 -11.54)"/><path id="path7741" class="cls-9" d="M285.68,44.3c1.77,15.5,9,15.78,8.73,14.4" transform="translate(-17.01 -11.54)"/><path id="path7758" class="cls-9" d="M283.45,52.25c.08.49,4.06,9.1,10.6,9.45" transform="translate(-17.01 -11.54)"/><path id="path7762" class="cls-9" d="M290.27,47.06c.08.5,1.42,8.14,4.74,12" transform="translate(-17.01 -11.54)"/></g></g><g id="g7771"><g id="g7773"><path id="path7777" class="cls-9" d="M303.78,44.3c-1.77,15.5-9,15.78-8.73,14.4" transform="translate(-17.01 -11.54)"/><path id="path7779" class="cls-9" d="M306,52.25c-.08.49-4.05,9.1-10.6,9.45" transform="translate(-17.01 -11.54)"/><path id="path7781" class="cls-9" d="M299.19,47.06c-.07.5-1.42,8.14-4.73,12" transform="translate(-17.01 -11.54)"/></g></g></g><g id="g7796"><g id="g7798"><g id="g7800"><path id="path7802" class="cls-10" d="M328.92,69.29h-23" transform="translate(-17.01 -11.54)"/><path id="path7804" class="cls-10" d="M321.5,58.93c-13.59,2-13.84,10.24-12.62,9.95" transform="translate(-17.01 -11.54)"/><path id="path7806" class="cls-10" d="M314.53,56.39c-.44.08-8,4.62-8.29,12.08" transform="translate(-17.01 -11.54)"/><path id="path7808" class="cls-10" d="M319.08,64.17c-.44.08-7.14,1.62-10.56,5.4" transform="translate(-17.01 -11.54)"/></g></g><g id="g7810"><g id="g7812"><path id="path7814" class="cls-10" d="M321.5,79.58c-13.59-2-13.84-10.24-12.62-10" transform="translate(-17.01 -11.54)"/><path id="path7816" class="cls-10" d="M314.53,82.12c-.44-.09-8-4.63-8.29-12.09" transform="translate(-17.01 -11.54)"/><path id="path7818" class="cls-10" d="M319.08,74.34c-.44-.09-7.14-1.62-10.56-5.4" transform="translate(-17.01 -11.54)"/></g></g></g><g id="g7820"><g id="g7822"><g id="g7824"><path id="path7826" class="cls-10" d="M262.4,69.29h23" transform="translate(-17.01 -11.54)"/><path id="path7828" class="cls-10" d="M269.82,58.93c13.59,2,13.84,10.24,12.62,9.95" transform="translate(-17.01 -11.54)"/><path id="path7830" class="cls-10" d="M276.79,56.39c.44.08,8,4.62,8.29,12.08" transform="translate(-17.01 -11.54)"/><path id="path7832" class="cls-10" d="M272.25,64.17c.43.08,7.13,1.62,10.55,5.4" transform="translate(-17.01 -11.54)"/></g></g><g id="g7834"><g id="g7836"><path id="path7838" class="cls-10" d="M269.82,79.58c13.59-2,13.84-10.24,12.62-10" transform="translate(-17.01 -11.54)"/><path id="path7840" class="cls-10" d="M276.79,82.12c.44-.09,8-4.63,8.29-12.09" transform="translate(-17.01 -11.54)"/><path id="path7842" class="cls-10" d="M272.25,74.34c.43-.09,7.13-1.62,10.55-5.4" transform="translate(-17.01 -11.54)"/></g></g></g><path id="path950" class="cls-11" d="M283.92,72c0-6.91,5.18-12.48,11.55-12.48S307,65,307,72s-5.17,12.49-11.57,12.49S283.92,78.85,283.92,72" transform="translate(-17.01 -11.54)"/><path id="path3085" class="cls-11" d="M109.64,112.32a10.82,10.82,0,1,1,10.81,11.35A11.05,11.05,0,0,1,109.64,112.32Z" transform="translate(-17.01 -11.54)"/><path id="path3980" class="cls-11" d="M226.27,92.32a10.83,10.83,0,1,1,10.81,11.36A11.06,11.06,0,0,1,226.27,92.32Z" transform="translate(-17.01 -11.54)"/><path id="path3982" class="cls-11" d="M345.56,92.32a10.82,10.82,0,1,1,10.81,11.36A11.05,11.05,0,0,1,345.56,92.32Z" transform="translate(-17.01 -11.54)"/><path id="path3984" class="cls-11" d="M460.21,112.32A10.82,10.82,0,1,1,471,123.67,11.05,11.05,0,0,1,460.21,112.32Z" transform="translate(-17.01 -11.54)"/><path id="path4597" class="cls-8" d="M167.86,91.79a21,21,0,0,1-3.8-9c-.64-3.59,3.55-5.19,4.4-8a150.61,150.61,0,0,0-13.05-8.22c-3.5-1.8-9.48-2.22-11.28-2.39l-5.43-.55s.39,1.42,1.64,4.6c1.52,3.86,2.77,6.28,2.77,6.28-5.78,2-10.42,8.51-13.07,16.19,5.05,5.86,11.49,9.7,17.53,9,0,0-.34,2.75-.42,7-.08,3.43,0,4.94,0,4.94l4.83-2.86c1.59-1,7-4,9.58-7.23a62.35,62.35,0,0,0,6.27-9.73" transform="translate(-17.01 -11.54)"/><path id="path4599" class="cls-8" d="M183.31,88.23a22.32,22.32,0,0,0,.44-10c-.63-3.59-4.74-6.14-6.48-8.37,0,0,5.49-6.23,8.95-10.42,2.61-3.2,8-6.23,9.59-7.18l4.81-2.91s.12,1.48,0,5c-.09,4.23-.43,7-.43,7,6-.72,12.5,3.24,17.56,9.15-2.67,7.63-7.31,14-13.1,16.07,0,0,1.25,2.39,2.77,6.27,1.24,3.14,1.64,4.58,1.64,4.58l-5.42-.5c-1.81-.22-7.78-.62-11.28-2.44a52.38,52.38,0,0,1-9.09-6.2" transform="translate(-17.01 -11.54)"/><path id="path6855" class="cls-8" d="M164.23,76.19c6-7.52,10.51-6.66,16.09-3.78,0,0,2.92-8.18,5-13.44,1.57-4,1.94-10.81,2.09-12.87s.49-6.19.49-6.19a40.06,40.06,0,0,0-4,1.88,58.35,58.35,0,0,0-5.5,3.16c-1.75-6.6-7.46-11.89-14.2-14.91-5.13,5.75-8.5,13.11-7.91,20a50,50,0,0,0-6.14-.48,36.54,36.54,0,0,0-4.33.05l2.5,5.5c.88,1.82,3.51,7.95,6.34,10.93,3.67,4,9.65,10.16,9.65,10.16Z" transform="translate(-17.01 -11.54)"/><g id="g7844"><g id="g7846"><g id="g7848"><path id="path7850" class="cls-12" d="M166.27,46.1l5.22,25.6" transform="translate(-17.01 -11.54)"/><path id="path7852" class="cls-12" d="M159.11,56.7c4.8,14.64,11.87,13.06,11.36,11.77" transform="translate(-17.01 -11.54)"/><path id="path7854" class="cls-12" d="M158.51,65c.18.46,5.76,7.81,12.2,6.47" transform="translate(-17.01 -11.54)"/><path id="path7856" class="cls-12" d="M164.13,58.21c.17.46,3,7.56,7,10.5" transform="translate(-17.01 -11.54)"/></g></g><g id="g7858"><g id="g7860"><path id="path7862" class="cls-12" d="M176.73,52c1.36,15.56-5.6,17.7-5.64,16.28" transform="translate(-17.01 -11.54)"/><path id="path7864" class="cls-12" d="M180.48,59.19c0,.5-2.14,9.91-8.44,11.94" transform="translate(-17.01 -11.54)"/><path id="path7866" class="cls-12" d="M172.81,55.9c0,.5.23,8.3-2.22,13" transform="translate(-17.01 -11.54)"/></g></g></g><g id="g7892"><g id="g7894"><g id="g7896"><path id="path7898" class="cls-13" d="M141,87.33l22.58-5.2" transform="translate(-17.01 -11.54)"/><path id="path7900" class="cls-13" d="M146.48,75.5c13.67-1.09,15.34,6.91,14.1,6.91" transform="translate(-17.01 -11.54)"/><path id="path7902" class="cls-13" d="M152.87,71.43c.44,0,8.62,2.73,10.22,10" transform="translate(-17.01 -11.54)"/><path id="path7904" class="cls-13" d="M149.77,80.08c.44,0,7.27,0,11.28,2.91" transform="translate(-17.01 -11.54)"/></g></g><g id="g7906"><g id="g7908"><path id="path7910" class="cls-13" d="M150.06,95.73c13-5,11.79-13.15,10.65-12.6" transform="translate(-17.01 -11.54)"/><path id="path7912" class="cls-13" d="M157.34,96.65c.41-.18,7-6.33,6-13.71" transform="translate(-17.01 -11.54)"/><path id="path7914" class="cls-13" d="M151.53,90.05c.41-.18,6.72-3.2,9.41-7.67" transform="translate(-17.01 -11.54)"/></g></g></g><g id="g7868"><g id="g7870"><g id="g7872"><path id="path7874" class="cls-14" d="M206.26,73.38l-22.7,4.52" transform="translate(-17.01 -11.54)"/><path id="path7876" class="cls-14" d="M197.38,64.63c-13.08,4.66-12.09,12.8-10.93,12.28" transform="translate(-17.01 -11.54)"/><path id="path7878" class="cls-14" d="M190.13,63.49c-.42.17-7.16,6.12-6.34,13.54" transform="translate(-17.01 -11.54)"/><path id="path7880" class="cls-14" d="M195.78,70.26c-.41.17-6.78,3-9.58,7.4" transform="translate(-17.01 -11.54)"/></g></g><g id="g7882"><g id="g7884"><path id="path7886" class="cls-14" d="M200.5,85c-13.69.68-15.18-7.37-13.94-7.33" transform="translate(-17.01 -11.54)"/><path id="path7888" class="cls-14" d="M194,88.84c-.44,0-8.55-3-10-10.28" transform="translate(-17.01 -11.54)"/><path id="path7890" class="cls-14" d="M197.32,80.28c-.44,0-7.28-.19-11.22-3.24" transform="translate(-17.01 -11.54)"/></g></g></g><path id="path6857" class="cls-11" d="M162.69,85.4c-1.19-6.77,2.91-13.4,9.16-14.83s12.3,2.85,13.5,9.62S182.45,93.6,176.18,95s-12.29-2.87-13.49-9.64" transform="translate(-17.01 -11.54)"/><path id="path6860" class="cls-8" d="M424.14,91.79a21,21,0,0,0,3.81-9c.63-3.59-3.56-5.19-4.41-8a151.33,151.33,0,0,1,13.06-8.22c3.49-1.8,9.48-2.22,11.28-2.39l5.42-.55s-.39,1.42-1.64,4.6c-1.52,3.86-2.77,6.28-2.77,6.28,5.79,2,10.42,8.51,13.07,16.19-5,5.86-11.49,9.7-17.53,9,0,0,.34,2.75.42,7,.08,3.43,0,4.94,0,4.94L440,108.78c-1.6-1-7-4-9.58-7.23a61.52,61.52,0,0,1-6.27-9.73" transform="translate(-17.01 -11.54)"/><path id="path6862" class="cls-8" d="M408.69,88.23a22.32,22.32,0,0,1-.44-10c.63-3.59,4.74-6.14,6.48-8.37,0,0-5.48-6.23-8.94-10.42-2.62-3.2-8-6.23-9.59-7.18l-4.81-2.91s-.12,1.48-.05,5c.08,4.23.42,7,.42,7-6-.72-12.5,3.24-17.55,9.15,2.66,7.63,7.3,14,13.09,16.07,0,0-1.25,2.39-2.77,6.27-1.24,3.14-1.64,4.58-1.64,4.58l5.42-.5c1.81-.22,7.79-.62,11.29-2.44a52.55,52.55,0,0,0,9.08-6.2" transform="translate(-17.01 -11.54)"/><path id="path6864" class="cls-8" d="M427.78,76.19c-6-7.52-10.52-6.66-16.1-3.78,0,0-2.92-8.18-5-13.44-1.57-4-1.94-10.81-2.09-12.87l-.48-6.19a40.85,40.85,0,0,1,4,1.88,56.75,56.75,0,0,1,5.5,3.16c1.75-6.6,7.46-11.89,14.2-14.91,5.13,5.75,8.5,13.11,7.91,20a50.34,50.34,0,0,1,6.15-.48,36.54,36.54,0,0,1,4.33.05s-1.67,3.66-2.5,5.5-3.52,7.95-6.35,10.93c-3.67,4-9.64,10.16-9.64,10.16Z" transform="translate(-17.01 -11.54)"/><g id="g8054"><g id="g8006"><g id="g8008"><g id="g8010"><path id="path8012" class="cls-15" d="M87.59,89,70.13,106.13" transform="translate(-17.01 -11.54)"/><path id="path8014" class="cls-15" d="M76,86.65c-9.14,11.65-4.63,18.06-3.86,16.94" transform="translate(-17.01 -11.54)"/><path id="path8016" class="cls-15" d="M69.3,89.92c-.28.38-3.4,9.44.64,15.32" transform="translate(-17.01 -11.54)"/><path id="path8018" class="cls-15" d="M77.19,92.43c-.28.38-4.48,6.54-4.91,11.95" transform="translate(-17.01 -11.54)"/></g></g><g id="g8020"><g id="g8022"><path id="path8024" class="cls-15" d="M87.85,102.3c-11.45,8.58-16.35,2.54-15.26,1.85" transform="translate(-17.01 -11.54)"/><path id="path8026" class="cls-15" d="M84,109.41c-.38.26-8.69,2.44-13.19-3" transform="translate(-17.01 -11.54)"/><path id="path8028" class="cls-15" d="M83,100.13c-.37.26-6.33,4.09-11.09,3.77" transform="translate(-17.01 -11.54)"/></g></g></g><g id="g8030"><g id="g8032"><g id="g8034"><path id="path8036" class="cls-16" d="M42.06,86.68l16.3,18.57" transform="translate(-17.01 -11.54)"/><path id="path8042" class="cls-16" d="M51.82,101.74a13.3,13.3,0,0,0,4.84,1.2" transform="translate(-17.01 -11.54)"/></g></g><g id="g8044"><g id="g8046"><path id="path8048" class="cls-16" d="M53.68,85.39c8.36,12.39,3.45,18.4,2.76,17.22" transform="translate(-17.01 -11.54)"/><path id="path8050" class="cls-16" d="M60.19,89.21c.25.41,2.78,9.71-1.63,15.23" transform="translate(-17.01 -11.54)"/><path id="path8052" class="cls-16" d="M52.15,91.05c.26.41,4.05,6.9,4.13,12.33" transform="translate(-17.01 -11.54)"/></g></g></g></g><path id="path4627" class="cls-8" d="M520.17,114.39a20.85,20.85,0,0,1,4.09-8.87c2.15-2.72,6.82-2.52,9.31-3.43,0,0-1.93-8.55-3-14.16-.83-4.28-4.09-10-5-11.76l-2.84-5.3s-.76,1.21-2.26,4.25c-1.82,3.69-2.77,6.28-2.77,6.28-4.85-4.12-12.2-4.48-19.19-2.33-1.11,8.11,0,16.3,4.09,21.44a56.41,56.41,0,0,0-5.19,3.78,44.27,44.27,0,0,0-3.45,3s3.25,1.8,4.88,2.72,7,4,10.8,4.46a46.59,46.59,0,0,0,10.59,0" transform="translate(-17.01 -11.54)"/><path id="path6873" class="cls-8" d="M535.75,113.55c-1.82-10,.15-10.27-5.94-11,0,0,1.15-8.73,1.74-14.44.43-4.35,3.16-10.44,4-12.29s2.35-5.61,2.35-5.61.87,1.11,2.63,4c2.14,3.45,3.32,5.92,3.32,5.92,4.46-4.67,21.58,3.21,28.73,4.53-17.52,9.93-15,5.53-24.86,13.47a21.18,21.18,0,0,0-6.33,7.79c-2.19,5-7,7.33-5.59,7.71Z" transform="translate(-17.01 -11.54)"/><path id="path7228" class="cls-11" d="M56.49,105.87c3-6.4,11.86-4.7,15.91.42s4.74,15.57-1.25,18.12A14.18,14.18,0,0,1,56.49,105.87Z" transform="translate(-17.01 -11.54)"/><g id="g8078"><g id="g8080"><g id="g8082"><g id="g8084"><path id="path8086" class="cls-15" d="M507.06,89l17.45,17.15" transform="translate(-17.01 -11.54)"/><path id="path8088" class="cls-15" d="M518.61,86.65c9.14,11.65,4.63,18.06,3.87,16.94" transform="translate(-17.01 -11.54)"/><path id="path8090" class="cls-15" d="M525.35,89.92c.28.38,3.4,9.44-.64,15.32" transform="translate(-17.01 -11.54)"/><path id="path8092" class="cls-15" d="M517.45,92.43c.28.38,4.48,6.54,4.91,11.95" transform="translate(-17.01 -11.54)"/></g></g><g id="g8094"><g id="g8096"><path id="path8098" class="cls-15" d="M506.8,102.3c11.45,8.58,16.34,2.54,15.26,1.85" transform="translate(-17.01 -11.54)"/><path id="path8100" class="cls-15" d="M510.63,109.41c.38.26,8.69,2.44,13.19-3" transform="translate(-17.01 -11.54)"/><path id="path8102" class="cls-15" d="M511.63,100.13c.38.26,6.34,4.09,11.09,3.77" transform="translate(-17.01 -11.54)"/></g></g></g><g id="g8104"><g id="g8106"><g id="g8108"><path id="path8110" class="cls-16" d="M552.59,86.68l-16.3,18.57" transform="translate(-17.01 -11.54)"/><path id="path8112" class="cls-16" d="M542.83,101.74a13.35,13.35,0,0,1-4.85,1.2" transform="translate(-17.01 -11.54)"/></g></g><g id="g8114"><g id="g8116"><path id="path8118" class="cls-16" d="M541,85.39c-8.36,12.39-3.44,18.4-2.76,17.22" transform="translate(-17.01 -11.54)"/><path id="path8120" class="cls-16" d="M534.46,89.21c-.26.41-2.78,9.71,1.63,15.23" transform="translate(-17.01 -11.54)"/><path id="path8122" class="cls-16" d="M542.49,91.05c-.25.41-4,6.9-4.12,12.33" transform="translate(-17.01 -11.54)"/></g></g></g></g><path id="path6875" class="cls-11" d="M537.93,105.85c-3-6.4-11.86-4.7-15.92.43s-4.73,15.56,1.26,18.12A14.18,14.18,0,0,0,537.93,105.85Z" transform="translate(-17.01 -11.54)"/><g id="g7928"><g id="g7930"><g id="g7932"><path id="path7934" class="cls-12" d="M425.73,46.1,420.5,71.7" transform="translate(-17.01 -11.54)"/><path id="path7936" class="cls-12" d="M432.89,56.7c-4.8,14.64-11.87,13.06-11.36,11.77" transform="translate(-17.01 -11.54)"/><path id="path7938" class="cls-12" d="M433.48,65c-.17.46-5.75,7.81-12.19,6.47" transform="translate(-17.01 -11.54)"/><path id="path7940" class="cls-12" d="M427.87,58.21c-.17.46-3,7.56-7,10.5" transform="translate(-17.01 -11.54)"/></g></g><g id="g7942"><g id="g7944"><path id="path7946" class="cls-12" d="M415.26,52c-1.35,15.56,5.61,17.7,5.64,16.28" transform="translate(-17.01 -11.54)"/><path id="path7948" class="cls-12" d="M411.51,59.19c0,.5,2.14,9.91,8.45,11.94" transform="translate(-17.01 -11.54)"/><path id="path7950" class="cls-12" d="M419.19,55.9c0,.5-.24,8.3,2.21,13" transform="translate(-17.01 -11.54)"/></g></g></g><g id="g7952"><g id="g7954"><g id="g7956"><path id="path7958" class="cls-13" d="M451,87.33l-22.59-5.2" transform="translate(-17.01 -11.54)"/><path id="path7960" class="cls-13" d="M445.51,75.5c-13.67-1.09-15.35,6.91-14.1,6.91" transform="translate(-17.01 -11.54)"/><path id="path7962" class="cls-13" d="M439.11,71.43c-.44,0-8.62,2.73-10.21,10" transform="translate(-17.01 -11.54)"/><path id="path7964" class="cls-13" d="M442.22,80.08c-.44,0-7.28,0-11.28,2.91" transform="translate(-17.01 -11.54)"/></g></g><g id="g7966"><g id="g7968"><path id="path7970" class="cls-13" d="M441.93,95.73c-13-5-11.8-13.15-10.65-12.6" transform="translate(-17.01 -11.54)"/><path id="path7972" class="cls-13" d="M434.65,96.65c-.41-.18-7-6.33-6-13.71" transform="translate(-17.01 -11.54)"/><path id="path7974" class="cls-13" d="M440.46,90.05c-.41-.18-6.72-3.2-9.42-7.67" transform="translate(-17.01 -11.54)"/></g></g></g><g id="g7976"><g id="g7978"><g id="g7980"><path id="path7982" class="cls-14" d="M385.74,73.38l22.69,4.52" transform="translate(-17.01 -11.54)"/><path id="path7984" class="cls-14" d="M394.62,64.63c13.08,4.66,12.09,12.8,10.93,12.28" transform="translate(-17.01 -11.54)"/><path id="path7986" class="cls-14" d="M401.87,63.49c.41.17,7.16,6.12,6.33,13.54" transform="translate(-17.01 -11.54)"/><path id="path7988" class="cls-14" d="M396.21,70.26c.42.17,6.79,3,9.59,7.4" transform="translate(-17.01 -11.54)"/></g></g><g id="g7990"><g id="g7992"><path id="path7994" class="cls-14" d="M391.5,85c13.69.68,15.18-7.37,13.94-7.33" transform="translate(-17.01 -11.54)"/><path id="path7996" class="cls-14" d="M398,88.84c.45,0,8.56-3,10-10.28" transform="translate(-17.01 -11.54)"/><path id="path7998" class="cls-14" d="M394.68,80.28c.44,0,7.28-.19,11.22-3.24" transform="translate(-17.01 -11.54)"/></g></g></g><path id="path4613" class="cls-11" d="M429.31,85.4c1.2-6.77-2.91-13.4-9.16-14.83s-12.3,2.85-13.5,9.62S409.56,93.6,415.83,95s12.28-2.87,13.48-9.64" transform="translate(-17.01 -11.54)"/><g id="g6416"><g id="g6324"><path id="path6269" class="cls-17" d="M126.7,183.34c-1.82-3.37-1.92-6.74-5.57-10.1l26.09,3.4-17.63,15.59-2.89-8.08" transform="translate(-17.01 -11.54)"/><path id="path868" class="cls-5" d="M117.44,185.37l6.5-9.7,17.94,2.59L127.53,190.2l-10.09-4.83" transform="translate(-17.01 -11.54)"/><path id="path6444" class="cls-5" d="M117.57,185.37l4.63-6.54,12.06,1.75-9.87,7.9-6.82-3" transform="translate(-17.01 -11.54)"/></g><path id="path6732" class="cls-17" d="M135.51,212.71c41.31-13.23,97.49-21.43,159.9-21.56,62.4.13,118.85,8.33,160.17,21.56" transform="translate(-17.01 -11.54)"/><g id="g6350"><path id="path6279" class="cls-18" d="M474,185.37l-6.49-9.7-17.94,2.59,14.34,11.94L474,185.37" transform="translate(-17.01 -11.54)"/></g><g id="g6448"><path id="path6450" class="cls-17" d="M464.38,183.34c1.82-3.37,1.93-6.74,5.58-10.1l-26.1,3.4,17.64,15.59,2.88-8.08" transform="translate(-17.01 -11.54)"/><path id="path6452" class="cls-5" d="M473.64,185.37l-6.5-9.7-17.94,2.59,14.35,11.94,10.09-4.83" transform="translate(-17.01 -11.54)"/><path id="path6454" class="cls-5" d="M473.52,185.37l-4.63-6.54-12.07,1.75,9.88,7.9,6.82-3" transform="translate(-17.01 -11.54)"/></g><path id="path6495" class="cls-9" d="M449.6,178.19l7.87,2.66" transform="translate(-17.01 -11.54)"/></g><g id="g6398"><g id="g6315"><path id="path864" class="cls-19" d="M206.64,172.63,194,174.3a6,6,0,0,1-6.59-5.47,6.22,6.22,0,0,1,5.1-7l12.67-1.68,12.88-1.69a5.93,5.93,0,0,1,6.52,5.46,6.29,6.29,0,0,1-5.16,7l-12.82,1.71" transform="translate(-17.01 -11.54)"/><path id="path6261" class="cls-20" d="M206.53,170.05,195,171.66a4.17,4.17,0,0,1-4.79-3.25,4,4,0,0,1,3.6-4.38l11.58-1.63L217.48,161a4.11,4.11,0,0,1,4.73,3.26,4,4,0,0,1-3.63,4.38l-12.05,1.45" transform="translate(-17.01 -11.54)"/><path id="path6263" class="cls-21" d="M206.88,175l-12.65,1.62A8.44,8.44,0,0,1,185,169c-.55-4.86,2.65-9.28,7.15-9.85l12.75-1.65,13.15-2c4.47-.6,8.56,2.79,9.13,7.66s-2.39,9.48-6.87,10L206.88,175" transform="translate(-17.01 -11.54)"/></g><g id="g6341"><path id="path6273" class="cls-20" d="M382.91,172.63l12.59,1.67a6,6,0,0,0,6.6-5.47,6.22,6.22,0,0,0-5.11-7l-12.66-1.68-12.89-1.69a5.93,5.93,0,0,0-6.51,5.46,6.29,6.29,0,0,0,5.15,7l12.83,1.71" transform="translate(-17.01 -11.54)"/><path id="path6281" class="cls-20" d="M383,170.05l11.53,1.61a4.18,4.18,0,0,0,4.79-3.25,4,4,0,0,0-3.6-4.38l-11.58-1.63L372.07,161a4.13,4.13,0,0,0-4.74,3.26A4,4,0,0,0,371,168.6l12,1.45" transform="translate(-17.01 -11.54)"/><path id="path6283" class="cls-21" d="M382.66,175l12.66,1.62a8.42,8.42,0,0,0,9.23-7.65c.55-4.86-2.64-9.28-7.14-9.85l-12.76-1.65-13.15-2c-4.47-.6-8.56,2.79-9.12,7.66s2.39,9.48,6.87,10L382.66,175" transform="translate(-17.01 -11.54)"/></g></g><g id="g6408"><g id="g6320"><path id="path866" class="cls-22" d="M155.45,173.89a5.86,5.86,0,1,1,5.83,6.32,6.09,6.09,0,0,1-5.83-6.32" transform="translate(-17.01 -11.54)"/><path id="path6267" class="cls-21" d="M153.06,173.88c0-4.9,3.69-8.88,8.22-8.88s8.25,4,8.25,8.88-3.68,8.91-8.25,8.91-8.22-4-8.22-8.91" transform="translate(-17.01 -11.54)"/></g><g id="g6346"><path id="path6275" class="cls-23" d="M434.09,173.89a5.86,5.86,0,1,0-5.83,6.32,6.09,6.09,0,0,0,5.83-6.32" transform="translate(-17.01 -11.54)"/><path id="path6287" class="cls-21" d="M436.48,173.88c0-4.9-3.68-8.88-8.21-8.88s-8.25,4-8.25,8.88,3.68,8.91,8.25,8.91,8.21-4,8.21-8.91" transform="translate(-17.01 -11.54)"/></g></g><g id="g6369"><g id="g6311"><path id="path860" class="cls-22" d="M243.42,162.17a5.86,5.86,0,1,1,5.83,6.32,6.09,6.09,0,0,1-5.83-6.32" transform="translate(-17.01 -11.54)"/><path id="path6265" class="cls-21" d="M241.37,162.16c0-4.69,3.53-8.51,7.87-8.51s7.92,3.82,7.92,8.51-3.54,8.54-7.92,8.54-7.87-3.85-7.87-8.54" transform="translate(-17.01 -11.54)"/></g><g id="g6337"><path id="path6271" class="cls-23" d="M346.13,162.17a5.86,5.86,0,1,0-5.83,6.32,6.09,6.09,0,0,0,5.83-6.32" transform="translate(-17.01 -11.54)"/><path id="path6285" class="cls-21" d="M348.18,162.16c0-4.69-3.53-8.51-7.88-8.51s-7.91,3.82-7.91,8.51,3.54,8.54,7.91,8.54,7.88-3.85,7.88-8.54" transform="translate(-17.01 -11.54)"/></g></g><g id="g6356"><g id="g6300"><g id="g4103"><path id="path4105" class="cls-24" d="M294.75,173.62l-24.86-12.2,24.86-10.94,24.91,10.94Z" transform="translate(-17.01 -11.54)"/><path id="path6259" class="cls-21" d="M294.75,176l-30.1-14.59,30.1-13.33,30.15,13.33Z" transform="translate(-17.01 -11.54)"/></g><g id="g6247"><path id="path6249" class="cls-24" d="M294.75,168.84l-14.38-7.42,14.38-6.16,14.43,6.16Z" transform="translate(-17.01 -11.54)"/></g><path id="path6251" class="cls-9" d="M294.5,150.39v5" transform="translate(-17.01 -11.54)"/><path id="path6253" class="cls-9" d="M294.76,168.35v5" transform="translate(-17.01 -11.54)"/><path id="path6255" class="cls-9" d="M280.31,161.31H270.07" transform="translate(-17.01 -11.54)"/><path id="path6257" class="cls-9" d="M318.31,161.31h-9.2" transform="translate(-17.01 -11.54)"/></g></g><path id="path6446" class="cls-9" d="M133.61,180.66l7.88-2.4" transform="translate(-17.01 -11.54)"/></g></g></g><path class="cls-25" d="M296.38,823a34.85,34.85,0,0,0-34.81-34.82H117a58.16,58.16,0,0,1-58.1-58.1V213.73H537.07V730.08a58.16,58.16,0,0,1-58.1,58.1H334.43A34.86,34.86,0,0,0,299.62,823Z" transform="translate(-17.01 -11.54)"/><path class="cls-26" d="M535.46,215.35V730.08A56.49,56.49,0,0,1,479,786.57H334.43A36.43,36.43,0,0,0,298,823a36.43,36.43,0,0,0-36.43-36.43H117a56.49,56.49,0,0,1-56.49-56.49V215.35H535.46m3.23-3.23H57.31v518A59.79,59.79,0,0,0,117,789.8H261.57a33.24,33.24,0,0,1,33.2,33.2h6.46a33.24,33.24,0,0,1,33.2-33.2H479a59.79,59.79,0,0,0,59.72-59.72v-518Z" transform="translate(-17.01 -11.54)"/><polygon class="cls-27" points="280.99 328.58 143.62 328.58 143.62 439.03 418.36 439.03 418.36 328.58 280.99 328.58"/><path class="cls-28" d="M160.63,631.12c0,17.64,2.09,31.94,20.14,31.94H415.23c18,0,20.14-14.3,20.14-31.94v-74H160.63Z" transform="translate(-17.01 -11.54)"/><rect class="cls-29" x="143.62" y="439.03" width="274.74" height="106.53"/><path class="cls-26" d="M428.91,346.58V631.12c0,21.8-4.22,25.48-13.68,25.48H180.77c-9.46,0-13.68-3.68-13.68-25.48V346.58H428.91m6.46-6.46H160.63v291c0,17.64,2.09,31.94,20.14,31.94H415.23c18,0,20.14-14.3,20.14-31.94v-291Z" transform="translate(-17.01 -11.54)"/><text class="cls-30" transform="translate(69.55 289)">U<tspan x="43.25" y="0">.</tspan><tspan x="59.88" y="0"> </tspan><tspan x="76.52" y="0">D</tspan><tspan x="119.76" y="0">E</tspan><tspan x="159.7" y="0">P</tspan><tspan x="199.64" y="0">O</tspan><tspan x="246.21" y="0">R</tspan><tspan x="289.46" y="0">T</tspan><tspan x="326" y="0">I</tspan><tspan x="342.65" y="0">V</tspan><tspan x="378.13" y="0">A</tspan></text><text class="cls-31" transform="translate(71.41 325.07) rotate(90)">L<tspan x="49.16" y="0">O</tspan><tspan x="109.12" y="0">S</tspan><tspan x="161.93" y="0"> </tspan><tspan x="189.59" y="0">L</tspan><tspan x="238.75" y="0">L</tspan><tspan x="287.93" y="0">A</tspan></text><text class="cls-31" transform="translate(108.27 731.21) rotate(2.95)">N</text><text class="cls-31" transform="translate(167.53 732.44)">O<tspan x="59.97" y="0">S</tspan><tspan x="112.78" y="0"> </tspan><tspan x="140.43" y="0">D</tspan><tspan x="196.8" y="0">E</tspan></text><text class="cls-31" transform="matrix(1, -0.03, 0.03, 1, 419.14, 732.73)"> </text><text class="cls-31" transform="translate(490.57 677.81) rotate(-90)">A<tspan x="56.37" y="0">R</tspan><tspan x="112.74" y="0">I</tspan><tspan x="140.4" y="0">D</tspan><tspan x="196.77" y="0">A</tspan><tspan x="253.16" y="0">N</tspan><tspan x="309.51" y="0">E</tspan></text></svg>