<svg id="Capa_1" data-name="Capa 1" xmlns="http://www.w3.org/2000/svg" viewBox="0 0 571 571"><defs><style>.cls-1,.cls-2,.cls-4,.cls-6,.cls-8{fill:#fadb26;}.cls-11,.cls-2,.cls-3,.cls-7,.cls-8{stroke:#4054a1;stroke-miterlimit:10;}.cls-2,.cls-3{stroke-width:5.5px;}.cls-10,.cls-3,.cls-5{fill:#4054a1;}.cls-4{font-size:58.25px;}.cls-4,.cls-5,.cls-6{font-family:Arial-BoldMT, Arial;font-weight:700;}.cls-5{font-size:75.84px;}.cls-6{font-size:46.16px;}.cls-11,.cls-7,.cls-9{fill:#fff;}.cls-7{stroke-width:4.4px;}.cls-8{stroke-width:2.2px;}.cls-11{stroke-width:3.3px;}</style></defs><circle class="cls-1" cx="285.5" cy="285.5" r="175.46"/><path class="cls-2" d="M297.93,248A175.46,175.46,0,0,1,473.39,423.4H580.68c0-156.16-126.59-282.75-282.75-282.75S15.18,267.24,15.18,423.4H122.47A175.46,175.46,0,0,1,297.93,248Z" transform="translate(-12.43 -137.9)"/><path class="cls-3" d="M473.39,423.4h0a175.46,175.46,0,0,1-350.92,0H15.18c0,156.16,126.59,282.75,282.75,282.75S580.68,579.56,580.68,423.4H473.39Z" transform="translate(-12.43 -137.9)"/><text class="cls-4" transform="matrix(0.48, 0.88, -0.88, 0.48, 55.72, 387.16)">C</text><text class="cls-4" transform="matrix(0.63, 0.78, -0.78, 0.63, 79.39, 428.45)">L</text><text class="cls-4" transform="matrix(0.76, 0.66, -0.66, 0.76, 105.42, 460.27)">U</text><text class="cls-4" transform="translate(142.34 491.51) rotate(29.94)">B</text><text class="cls-4" transform="translate(182.1 513.2) rotate(22.51)"> </text><text class="cls-4" transform="translate(199.91 521.26) rotate(15.06)">D</text><text class="cls-4" transform="translate(246.47 533.05) rotate(4.44)">E</text><text class="cls-4" transform="translate(287.99 535.43) rotate(-2.38)"> </text><text class="cls-4" transform="translate(306.65 535.07) rotate(-8.82)">F</text><text class="cls-4" transform="matrix(0.95, -0.33, 0.33, 0.95, 347.35, 528.54)">Ú</text><text class="cls-4" transform="translate(392.13 512.27) rotate(-29.21)">T</text><text class="cls-4" transform="translate(427.94 492) rotate(-39.31)">B</text><text class="cls-4" transform="matrix(0.63, -0.77, 0.77, 0.63, 465.33, 460.74)">O</text><text class="cls-4" transform="translate(496.98 420.46) rotate(-61.3)">L</text><text class="cls-5" transform="matrix(0.7, -0.71, 0.71, 0.7, 124.98, 165.57)">C</text><text class="cls-5" transform="translate(161.14 128.58) rotate(-30.47)">A</text><text class="cls-5" transform="translate(205.84 102.16) rotate(-16.12)">S</text><text class="cls-5" transform="translate(252.42 88.73) rotate(-2.81)">T</text><text class="cls-5" transform="translate(299.1 87.52) rotate(6.86)">I</text><text class="cls-5" transform="translate(320.57 89.04) rotate(16.69)">L</text><text class="cls-5" transform="translate(363.31 101.66) rotate(29.54)">L</text><text class="cls-5" transform="translate(401.87 122.24) rotate(43.78)">O</text><text class="cls-6" transform="translate(30.93 327.42)">1<tspan x="27.96" y="0">9</tspan></text><text class="cls-6" transform="translate(487.35 327.42)">5<tspan x="27.97" y="0">0</tspan></text><polygon class="cls-7" points="366.55 338.94 203.21 338.94 221.18 208.69 347.95 208.69 366.55 338.94"/><polygon class="cls-7" points="388.79 398.99 182.21 398.99 198.49 338.94 372.51 338.94 388.79 398.99"/><line class="cls-8" x1="230.43" y1="360.55" x2="259.52" y2="360.55"/><line class="cls-8" x1="214.95" y1="380.39" x2="259.52" y2="380.39"/><line class="cls-8" x1="349.42" y1="360.55" x2="377.22" y2="360.55"/><line class="cls-8" x1="336.43" y1="380.75" x2="382.03" y2="380.75"/><path class="cls-9" d="M273.06,536.52V449.63a24.4,24.4,0,0,1,48.8,0v86.89Z" transform="translate(-12.43 -137.9)"/><path class="cls-10" d="M297.46,427.16a22.62,22.62,0,0,1,22.76,22.47v85.24H274.71V449.63a22.61,22.61,0,0,1,22.75-22.47m0-3.3a25.94,25.94,0,0,0-26,25.77v88.54h52.1V449.63a25.94,25.94,0,0,0-26.05-25.77Z" transform="translate(-12.43 -137.9)"/><path class="cls-10" d="M300.44,436.27A20.75,20.75,0,0,0,279.69,457v78.72h41.5V457A20.75,20.75,0,0,0,300.44,436.27Z" transform="translate(-12.43 -137.9)"/><polygon class="cls-7" points="353.74 158.16 327.07 158.16 327.07 180.4 299.44 180.4 299.44 158.16 270.69 158.16 270.69 180.4 243.06 180.4 243.06 158.16 215.31 158.16 215.31 200.82 221.14 208.69 347.87 208.69 353.74 200.79 353.74 158.16"/><polygon class="cls-11" points="309.52 237.78 309.52 271.68 312.72 271.68 335.94 271.68 335.94 244.72 335.94 237.78 309.52 237.78"/><rect class="cls-10" x="313.88" y="246.07" width="20.9" height="24.26"/><polygon class="cls-11" points="233.99 237.78 233.99 271.68 237.19 271.68 260.41 271.68 260.41 244.72 260.41 237.78 233.99 237.78"/><rect class="cls-10" x="238.35" y="246.07" width="20.9" height="24.26"/></svg>