<svg id="Capa_1" data-name="Capa 1" xmlns="http://www.w3.org/2000/svg" viewBox="0 0 515.32 515.32"><defs><style>.cls-1,.cls-5{fill:#fff;}.cls-2{fill:#a38942;}.cls-3{fill:#f39200;}.cls-4{fill:#1d71b8;}.cls-5{font-size:47.54px;}.cls-5,.cls-6{font-family:Arial-BoldMT, Arial;font-weight:700;}.cls-6{font-size:49.3px;fill:#1d1d1b;}.cls-7{fill:#95c11f;}.cls-8{font-size:71.38px;fill:#009640;font-family:FranklinGothic-DemiCond, Franklin Gothic Demi Cond;font-weight:300;}.cls-9{letter-spacing:-0.01em;}</style></defs><path class="cls-1" d="M250,504A253.87,253.87,0,0,1,70.49,70.62a253.87,253.87,0,1,1,359,359A252.21,252.21,0,0,1,250,504Z" transform="translate(7.66 7.52)"/><path class="cls-2" d="M250,.06c138.12,0,250.08,112,250.08,250.08S388.12,500.22,250,500.22-.08,388.25-.08,250.14,111.88.06,250,.06m0-7.58A257.73,257.73,0,0,0,149.7,487.55,257.73,257.73,0,0,0,350.3,12.73,256,256,0,0,0,250-7.52Z" transform="translate(7.66 7.52)"/><circle class="cls-1" cx="257.66" cy="257.66" r="156.99"/><path class="cls-3" d="M250,93.15A157,157,0,0,1,404.5,222.41L496.19,206C475.33,88.91,373,.06,250,.06S24.67,88.91,3.81,206L95.5,222.41A157,157,0,0,1,250,93.15Z" transform="translate(7.66 7.52)"/><path class="cls-4" d="M250,407.12a156.54,156.54,0,0,1-115.44-50.63l-68.37,63.2a250,250,0,0,0,367.19.46L365,356.94A156.49,156.49,0,0,1,250,407.12Z" transform="translate(7.66 7.52)"/><text class="cls-5" transform="matrix(0.77, 0.64, -0.7, 0.85, 103.81, 418.77)">S</text><text class="cls-5" transform="translate(134.46 443.41) rotate(29.18) scale(1 1.1)">A</text><text class="cls-5" transform="translate(171.75 463.37) rotate(18.24) scale(1 1.1)">N</text><text class="cls-5" transform="translate(209.89 474.82) rotate(10.64) scale(1 1.1)"> </text><text class="cls-5" transform="translate(228.81 478.89) rotate(2.3) scale(1 1.1)">M</text><text class="cls-5" transform="translate(276.82 479.72) rotate(-9.28) scale(1 1.1)">A</text><text class="cls-5" transform="translate(313.6 473.26) rotate(-18.27) scale(1 1.1)">T</text><text class="cls-5" transform="translate(347.74 461.47) rotate(-27.97) scale(1 1.1)">E</text><text class="cls-5" transform="translate(382.51 442.43) rotate(-38.84) scale(1 1.1)">O</text><text class="cls-6" transform="matrix(0.31, -0.95, 1.05, 0.34, 76.03, 216.95)">C</text><text class="cls-6" transform="matrix(0.45, -0.89, 0.98, 0.5, 85.66, 187.12)">F</text><text class="cls-6" transform="translate(98.28 162.97) rotate(-57.11) scale(1 1.1)"> </text><text class="cls-6" transform="translate(103.53 153.59) rotate(-50.86) scale(1 1.1)">P</text><text class="cls-6" transform="translate(119.02 133.54) rotate(-42.69) scale(1 1.1)">A</text><text class="cls-6" transform="translate(141.6 112.2) rotate(-33.15) scale(1 1.1)">N</text><text class="cls-6" transform="translate(167.37 94.9) rotate(-23.56) scale(1 1.1)">A</text><text class="cls-6" transform="translate(195.65 82.14) rotate(-13.92) scale(1 1.1)">D</text><text class="cls-6" transform="translate(225.88 74.41) rotate(-4.7) scale(1 1.1)">E</text><text class="cls-6" transform="matrix(1, 0.08, -0.08, 1.1, 254.29, 71.62)">R</text><text class="cls-6" transform="translate(286.56 74.54) rotate(11.01) scale(1 1.1)">I</text><text class="cls-6" transform="matrix(0.95, 0.3, -0.33, 1.05, 297.04, 75.74)">A</text><text class="cls-6" transform="matrix(0.91, 0.4, -0.45, 1.01, 326.25, 85.4)"> </text><text class="cls-6" transform="matrix(0.86, 0.5, -0.55, 0.95, 336.33, 89.1)">P</text><text class="cls-6" transform="translate(361.2 103.02) rotate(39.33) scale(1 1.1)">U</text><text class="cls-6" transform="translate(385.56 122.84) rotate(48.12) scale(1 1.1)">L</text><text class="cls-6" transform="translate(403.56 143.32) rotate(53.98) scale(1 1.1)">I</text><text class="cls-6" transform="translate(410.42 151.36) rotate(60.6) scale(1 1.1)">D</text><text class="cls-6" transform="translate(426.04 177.99) rotate(70.59) scale(1 1.1)">O</text><path class="cls-1" d="M172.94,194.93,206.21,186a41.24,41.24,0,0,1,10.69-1.43c14.48,0,26.74,8,29.82,19.55,1.83,6.83.39,14.23-4.06,20.83a38.13,38.13,0,0,1-22,15.11l-26.77,7.18,9.66,36.05-6.5,1.75Z" transform="translate(7.66 7.52)"/><path class="cls-2" d="M216.9,199.74c7.51,0,13.89,3.5,15.18,8.31.87,3.24-.6,6.38-2,8.44a23.3,23.3,0,0,1-13.32,8.94l-12.12,3.25-6.51,1.74-6.64-24.77L198,203.9l12.12-3.25a26.44,26.44,0,0,1,6.77-.91m0-30.32a56.31,56.31,0,0,0-14.61,2l-12.13,3.25-17.89,4.79-17.9,4.8,16,59.7,16,59.7L222.15,294l-9.66-36,12.13-3.25c26.46-7.09,42.91-31.5,36.75-54.51-5-18.74-23.5-30.79-44.47-30.79Z" transform="translate(7.66 7.52)"/><path class="cls-1" d="M252.53,249.35l33.27-8.91A41.18,41.18,0,0,1,296.49,239c14.48,0,26.74,8,29.82,19.54,4,14.91-7.68,31-26,35.95l-26.76,7.17,9.66,36.06-6.51,1.74Z" transform="translate(7.66 7.52)"/><path class="cls-2" d="M296.49,254.17c7.51,0,13.89,3.49,15.18,8.31,1.57,5.84-4.65,14.52-15.31,17.38l-12.12,3.25-6.51,1.74-6.64-24.78,6.51-1.74,12.12-3.25a26,26,0,0,1,6.77-.91m0-30.32a56.86,56.86,0,0,0-14.62,1.94L269.75,229l-17.89,4.8L234,238.63l16,59.7L266,358l35.78-9.59-9.66-36.06,12.13-3.25c26.46-7.09,42.91-31.49,36.74-54.51-5-18.74-23.49-30.78-44.46-30.78Z" transform="translate(7.66 7.52)"/><path class="cls-3" d="M198.43,167.51l-12.13,3.25-17.89,4.79-17.9,4.8,16,59.7,16,59.7,35.79-9.59-9.67-36.05,12.13-3.25c26.46-7.09,42.91-31.5,36.75-54.51S224.89,160.42,198.43,167.51Z" transform="translate(7.66 7.52)"/><path class="cls-7" d="M278,221.94l-12.13,3.24L248,230l-17.9,4.79,16,59.71,16,59.7,35.78-9.59-9.66-36.06,12.13-3.25c26.46-7.09,42.91-31.49,36.75-54.51S304.48,214.84,278,221.94Z" transform="translate(7.66 7.52)"/><text class="cls-8" transform="translate(30.17 322.33)"><tspan class="cls-9">1</tspan><tspan x="35.87" y="0">9</tspan></text><text class="cls-8" transform="translate(411.85 326.18)">95</text></svg>