<svg id="Capa_1" data-name="Capa 1" xmlns="http://www.w3.org/2000/svg" viewBox="0 0 583.02 583.02"><defs><style>.cls-1,.cls-15,.cls-16,.cls-6{fill:none;}.cls-1{stroke:#3592d0;stroke-width:19.81px;}.cls-1,.cls-10,.cls-12,.cls-13,.cls-14,.cls-15,.cls-16,.cls-19,.cls-21,.cls-22,.cls-3,.cls-4,.cls-6,.cls-9{stroke-miterlimit:10;}.cls-10,.cls-12,.cls-2{fill:#fff;}.cls-18,.cls-21,.cls-3{fill:#f4e70b;}.cls-3,.cls-4{stroke:#e73632;}.cls-3{stroke-width:7.43px;}.cls-4{font-size:66.86px;fill:#df0a14;stroke-width:0.93px;font-family:Calibri-Bold, Calibri;font-weight:700;}.cls-5{fill:#3592d0;}.cls-10,.cls-12,.cls-13,.cls-14,.cls-15,.cls-16,.cls-17,.cls-19,.cls-20,.cls-21,.cls-22,.cls-6,.cls-9{stroke:#1d1d1b;}.cls-14,.cls-6{stroke-width:2.39px;}.cls-14,.cls-19,.cls-20,.cls-7{fill:#e73632;}.cls-17,.cls-8{fill:#f7e822;}.cls-11,.cls-9{fill:#1d1d1b;}.cls-9{stroke-width:2.5px;}.cls-10{stroke-width:1.37px;}.cls-12{stroke-width:0.4px;}.cls-13{stroke-width:0.2px;}.cls-15,.cls-17{stroke-width:1.59px;}.cls-16{stroke-width:3.19px;}.cls-17,.cls-20{stroke-linejoin:round;}.cls-19,.cls-20,.cls-21,.cls-22{stroke-width:0.8px;}.cls-22{fill:#28306b;}</style></defs><path class="cls-1" d="M912.91,139.86c-155.52,0-281.6,126.08-281.6,281.6s126.08,281.61,281.6,281.61S1194.52,577,1194.52,421.46,1068.44,139.86,912.91,139.86Zm0,468.24c-103.07,0-186.63-83.56-186.63-186.64s83.56-186.63,186.63-186.63,186.64,83.56,186.64,186.63S1016,608.1,912.91,608.1Z" transform="translate(-621.4 -129.95)"/><circle class="cls-2" cx="912.91" cy="420.43" r="186.63" transform="translate(-651.31 638.72) rotate(-45)"/><path class="cls-3" d="M912.91,138.82c-155.52,0-281.6,126.08-281.6,281.61S757.39,702,912.91,702,1194.52,576,1194.52,420.43,1068.44,138.82,912.91,138.82Zm0,468.24c-103.07,0-186.63-83.56-186.63-186.63s83.56-186.64,186.63-186.64,186.64,83.56,186.64,186.64S1016,607.06,912.91,607.06Z" transform="translate(-621.4 -129.95)"/><text class="cls-4" transform="translate(85.56 226.4) rotate(-67.99)">C</text><text class="cls-4" transform="matrix(0.52, -0.86, 0.86, 0.52, 96.53, 197.59)">D</text><text class="cls-4" transform="matrix(0.61, -0.79, 0.79, 0.61, 117.03, 164.79)"> </text><text class="cls-4" transform="translate(123.78 154.83) rotate(-46.02)">R</text><text class="cls-4" transform="matrix(0.8, -0.6, 0.6, 0.8, 146.38, 130.71)">A</text><text class="cls-4" transform="translate(173.64 109.31) rotate(-27.01)">Q</text><text class="cls-4" transform="translate(209.61 90.53) rotate(-16.45)">U</text><text class="cls-4" transform="translate(248.05 79.79) rotate(-9.21)">I</text><text class="cls-4" transform="translate(263.69 77.24) rotate(-5.35)"> </text><text class="cls-4" transform="translate(275.62 75.33) rotate(0.93)">S</text><text class="cls-4" transform="translate(302.6 74.92) rotate(8.25)">A</text><text class="cls-4" transform="matrix(0.95, 0.31, -0.31, 0.95, 337.84, 79.43)">N</text><text class="cls-4" transform="matrix(0.9, 0.43, -0.43, 0.9, 376.04, 92.7)"> </text><text class="cls-4" transform="matrix(0.87, 0.49, -0.49, 0.87, 387.97, 98.19)">I</text><text class="cls-4" transform="translate(401.21 104.98) rotate(34.86)">S</text><text class="cls-4" transform="matrix(0.76, 0.65, -0.65, 0.76, 424.6, 121.52)">I</text><text class="cls-4" transform="translate(436.07 130.1) rotate(47.62)">D</text><text class="cls-4" transform="matrix(0.55, 0.84, -0.84, 0.55, 461.46, 157.62)">R</text><text class="cls-4" transform="translate(479.69 184.19) rotate(66.51)">O</text><text class="cls-4" transform="translate(72.41 416.06) rotate(56.65)">F</text><text class="cls-4" transform="matrix(0.69, 0.72, -0.72, 0.69, 94.1, 448.68)">U</text><text class="cls-4" transform="translate(131.91 486.78) rotate(34.17)">N</text><text class="cls-4" transform="translate(177.16 516.12) rotate(22.11)">D</text><text class="cls-4" transform="matrix(0.98, 0.19, -0.19, 0.98, 223.59, 534.09)">A</text><text class="cls-4" transform="matrix(1, -0.02, 0.02, 1, 273, 542.84)">D</text><text class="cls-4" transform="matrix(0.98, -0.22, 0.22, 0.98, 324.87, 541.34)">O</text><text class="cls-4" transform="translate(375.33 528.35) rotate(-21.14)"> </text><text class="cls-4" transform="translate(394.79 521.06) rotate(-28.02)">1</text><text class="cls-4" transform="translate(431.24 500.94) rotate(-37.47)">9</text><text class="cls-4" transform="translate(463.85 475.15) rotate(-46.86)">7</text><text class="cls-4" transform="matrix(0.56, -0.83, 0.83, 0.56, 491.82, 444.39)">0</text><path class="cls-5" d="M813.85,349.33V488.38a99.14,99.14,0,1,0,198.28,0v-139Z" transform="translate(-621.4 -129.95)"/><path class="cls-6" d="M813.85,349.33V488.38a99.14,99.14,0,1,0,198.28,0v-139Z" transform="translate(-621.4 -129.95)"/><path class="cls-7" d="M829.13,473.2v16.88a83.49,83.49,0,0,0,14.39,47V473.2Z" transform="translate(-621.4 -129.95)"/><path class="cls-7" d="M996.85,473.2H979.16v68.4a83.54,83.54,0,0,0,17.69-51.52Z" transform="translate(-621.4 -129.95)"/><path class="cls-7" d="M901.65,473.2v100a84.8,84.8,0,0,0,11.34.77c2.71,0,5.39-.14,8-.39V473.2Z" transform="translate(-621.4 -129.95)"/><path class="cls-8" d="M921,473.2V573.55a83.41,83.41,0,0,0,19.38-4.2V473.2Z" transform="translate(-621.4 -129.95)"/><path class="cls-7" d="M940.4,569.35a83.8,83.8,0,0,0,19.38-9.67V473.2H940.4Z" transform="translate(-621.4 -129.95)"/><path class="cls-8" d="M959.78,473.2v86.48a84.33,84.33,0,0,0,19.38-18.08V473.2Z" transform="translate(-621.4 -129.95)"/><path class="cls-8" d="M882.27,473.2v94.93a83.06,83.06,0,0,0,19.38,5v-100Z" transform="translate(-621.4 -129.95)"/><path class="cls-7" d="M862.89,473.2v84.13a83.66,83.66,0,0,0,19.38,10.8V473.2Z" transform="translate(-621.4 -129.95)"/><path class="cls-8" d="M862.89,557.33V473.2H843.52v63.86A84.41,84.41,0,0,0,862.89,557.33Z" transform="translate(-621.4 -129.95)"/><path class="cls-6" d="M979.16,473.2h-150v16.88a83.49,83.49,0,0,0,14.39,47,84.12,84.12,0,0,0,38.75,31.07,83.06,83.06,0,0,0,19.38,5,84.8,84.8,0,0,0,11.34.77c2.71,0,5.39-.14,8-.39a83.39,83.39,0,0,0,38.76-13.87,83.88,83.88,0,0,0,37.07-69.6V473.2Z" transform="translate(-621.4 -129.95)"/><circle class="cls-9" cx="291.59" cy="393.62" r="39.98"/><path class="cls-10" d="M913,563.55a40,40,0,1,0-40-40A40,40,0,0,0,913,563.55Zm-13-3.15a39.17,39.17,0,0,1-17.77-12.79l4.78-4.05,10.12,2.87,6.06,8.62Zm-19-35.52,6.74-9.07,8.22,2.93,6.83,18.82-5.53,7.93L887,542.57Zm22.93,29.55L898,546l5.54-7.93,18.68,0,6.69,6.66-6.31,9.37Zm22.2,5.91-2.48-6,6.18-9.16,10.08-3.08,4.35,4.88A39.27,39.27,0,0,1,926.12,560.34Zm18.75-59.28a38.87,38.87,0,0,1,7.13,21l-6,.52-6.42-7.53-.38-11.44Zm.38,22.17-5.35,17.86-10.25,3.12-6.76-6.73,6.38-18.36,9.66-3.3Zm-6.65-8.29-9.67,3.31L913.78,506.4l.07-9.74,8.93-3.46,15.45,10.44ZM913,484.52A38.85,38.85,0,0,1,923.51,486l-1.41,6.49-8.73,3.37-10.27-3.21-.43-6.71A39.07,39.07,0,0,1,913,484.52Zm-10.52,8.89,10.44,3.27-.07,9.68-16.42,11.55-8.4-3L887.55,504Zm-15.84,11,.46,10.7-6.84,9.21L874,522.87a38.91,38.91,0,0,1,7.29-22Z" transform="translate(-621.4 -129.95)"/><circle class="cls-11" cx="292.37" cy="393.62" r="19.92"/><polygon class="cls-12" points="301.48 407.52 308.25 414.26 318.5 411.13 323.84 393.28 317.53 385.87 307.87 389.17 301.48 407.52"/><polygon class="cls-12" points="317.2 384.99 316.82 373.69 301.38 363.25 292.44 366.71 292.37 376.45 307.53 388.3 317.2 384.99"/><polygon class="cls-12" points="282.14 408.14 276.61 416.07 282.52 424.48 301.2 424.21 307.51 414.85 300.83 408.19 282.14 408.14"/><polygon class="cls-12" points="274.55 388.79 266.33 385.85 259.59 394.93 265.57 412.62 275.84 415.53 281.38 407.61 274.55 388.79"/><polygon class="cls-12" points="275.02 387.96 291.44 376.4 291.51 366.73 281.07 363.46 266.15 374.02 266.61 384.96 275.02 387.96"/><path class="cls-13" d="M946,522.62l6-.52a38.87,38.87,0,0,0-7.13-21l-5.71,2.59.38,11.44Z" transform="translate(-621.4 -129.95)"/><path class="cls-13" d="M929.82,545.14l-6.18,9.16,2.48,6a39.27,39.27,0,0,0,18.13-13.4l-4.35-4.88Z" transform="translate(-621.4 -129.95)"/><path class="cls-13" d="M887,543.56l-4.78,4.05A39.17,39.17,0,0,0,900,560.4l3.19-5.35-6.06-8.62Z" transform="translate(-621.4 -129.95)"/><path class="cls-13" d="M913.37,495.84l8.73-3.37,1.41-6.49a38.68,38.68,0,0,0-20.84-.06l.43,6.71Z" transform="translate(-621.4 -129.95)"/><path class="cls-13" d="M880.25,524.31l6.84-9.21-.46-10.7-5.38-3.53a38.91,38.91,0,0,0-7.29,22Z" transform="translate(-621.4 -129.95)"/><rect class="cls-14" x="207.73" y="244.69" width="77.51" height="77.51"/><path class="cls-5" d="M896.4,395a13.21,13.21,0,0,0-8.09-3.78c-9.27-.67-16.1,9.95-17.43,8.82-.84-.7,1.27-5.37,4.62-8.5s9.24-5.77,13.86-4.31c1,.31,1.9.8,2.1.53.41-.56-2.66-3.83-6.09-6-3-1.88-4.47-2.83-6.41-2.73-6.85.36-11.77,13.18-11.54,16.07,0,.05,0,.35-.08.39-.56.23-2.42-7.06-7.67-11.66-1.42-1.23-5-4.33-9.69-4.09,0,0-5.61.28-11.66,8.43-.25.33-.93,1.24-.71,1.49s.93-.15,1.1-.23c2.43-1.14,7.61.31,8.75.63a22,22,0,0,1,8.74,4.64c1.6,1.42,4.17,4.18,4.17,4.18a19,19,0,0,0-13.86.23c-8.38,3.71-11.2,13.14-10.71,17.57.11,1,.83,2.89,2.28,6.61.41,1.05.85,1.51.95,1.27,1.73-4.18,4.88-8,8.9-11.58a19.28,19.28,0,0,1,7-4.33c2.44-1,4.8-2,6.22-.95,1.93,1.38.46,12.58,0,20.22a98.34,98.34,0,0,1-1,11.29c-.28,1.45-.3,3.9-2,5.35a5.81,5.81,0,0,1-3.39,1.18c-4.79.54-7.41,3.83-9.52,6.38h39.33a35.61,35.61,0,0,0-7.36-5.51,13.4,13.4,0,0,1-3.15-2.2,11.81,11.81,0,0,1-3.31-5.83c-1.44-7.88-1.91-12.24-2.54-29-.07-1.75,2.8-1.41,3.67-1.57,11.16-2.09,20.87,12.83,21.47,13.8.65-1.23.73-1.53.9-4.14,0-.82.4-8.13-5.56-12.61a14.41,14.41,0,0,0-13.84-1.78,14.25,14.25,0,0,1-2,.94c-.13-.2,3.08-3.51,7.66-4.93a19.16,19.16,0,0,1,12.82.94c4,1.71,5.57,4,6.4,3.36C900.73,402.84,899.44,398.1,896.4,395Z" transform="translate(-621.4 -129.95)"/><path class="cls-15" d="M896.4,395a13.21,13.21,0,0,0-8.09-3.78c-9.27-.67-16.1,9.95-17.43,8.82-.84-.7,1.27-5.37,4.62-8.5s9.24-5.77,13.86-4.31c1,.31,1.9.8,2.1.53.41-.56-2.66-3.83-6.09-6-3-1.88-4.47-2.83-6.41-2.73-6.85.36-11.77,13.18-11.54,16.07,0,.05,0,.35-.08.39-.56.23-2.42-7.06-7.67-11.66-1.42-1.23-5-4.33-9.69-4.09,0,0-5.61.28-11.66,8.43-.25.33-.93,1.24-.71,1.49s.93-.15,1.1-.23c2.43-1.14,7.61.31,8.75.63a22,22,0,0,1,8.74,4.64c1.6,1.42,4.17,4.18,4.17,4.18a19,19,0,0,0-13.86.23c-8.38,3.71-11.2,13.14-10.71,17.57.11,1,.83,2.89,2.28,6.61.41,1.05.85,1.51.95,1.27,1.73-4.18,4.88-8,8.9-11.58a19.28,19.28,0,0,1,7-4.33c2.44-1,4.8-2,6.22-.95,1.93,1.38.46,12.58,0,20.22a98.34,98.34,0,0,1-1,11.29c-.28,1.45-.3,3.9-2,5.35a5.81,5.81,0,0,1-3.39,1.18c-4.79.54-7.41,3.83-9.52,6.38h39.33a35.61,35.61,0,0,0-7.36-5.51,13.4,13.4,0,0,1-3.15-2.2,11.81,11.81,0,0,1-3.31-5.83c-1.44-7.88-1.91-12.24-2.54-29-.07-1.75,2.8-1.41,3.67-1.57,11.16-2.09,20.87,12.83,21.47,13.8.65-1.23.73-1.53.9-4.14,0-.82.4-8.13-5.56-12.61a14.41,14.41,0,0,0-13.84-1.78,14.25,14.25,0,0,1-2,.94c-.13-.2,3.08-3.51,7.66-4.93a19.16,19.16,0,0,1,12.82.94c4,1.71,5.57,4,6.4,3.36C900.73,402.84,899.44,398.1,896.4,395Z" transform="translate(-621.4 -129.95)"/><rect class="cls-6" x="207.73" y="244.69" width="77.51" height="77.51"/><rect class="cls-14" x="297.94" y="244.69" width="77.51" height="77.51"/><line class="cls-16" x1="307.04" y1="254.2" x2="369.57" y2="311.5"/><polygon class="cls-17" points="310.93 268.49 304.33 261.9 304.33 251.72 321.47 267.27 310.93 268.49"/><polygon class="cls-17" points="329.06 274.83 329.64 274.69 337.98 282.25 327.23 284.8 319.56 277.13 329.06 274.83"/><polygon class="cls-17" points="332.48 264.09 339.83 271.44 337.98 282.25 329.64 274.69 329.23 274.31 332.48 264.09"/><polygon class="cls-17" points="339.83 271.44 348.19 279.8 345.86 289.4 337.98 282.25 339.83 271.44"/><polygon class="cls-17" points="345.86 289.4 353.47 296.31 341.86 299.42 334.31 291.88 345.86 289.4 345.86 289.4"/><polygon class="cls-17" points="337.98 282.25 345.86 289.4 345.86 289.4 334.31 291.88 327.23 284.8 337.98 282.25 337.98 282.25"/><polygon class="cls-17" points="353.47 296.31 363.25 305.18 347.61 305.18 341.86 299.42 353.47 296.31"/><polygon class="cls-17" points="356.48 288.1 363.25 294.86 363.25 305.18 353.47 296.31 356.48 288.1"/><polygon class="cls-17" points="348.19 279.8 356.29 287.91 356.48 288.1 353.47 296.31 345.86 289.4 348.19 279.8"/><polygon class="cls-17" points="321.47 267.27 329.23 274.31 329.64 274.69 329.06 274.83 319.56 277.13 310.93 268.49 321.47 267.27"/><polygon class="cls-17" points="322.71 254.32 332.48 264.09 329.23 274.31 321.47 267.27 322.71 254.32"/><polygon class="cls-17" points="320.11 251.72 322.71 254.32 321.47 267.27 321.08 266.92 304.33 251.72 320.11 251.72"/><line class="cls-16" x1="366.86" y1="254.2" x2="304.33" y2="311.5"/><polygon class="cls-17" points="362.97 268.49 369.57 261.9 369.57 251.72 352.43 267.27 362.97 268.49"/><polygon class="cls-17" points="344.84 274.83 344.25 274.69 335.91 282.25 346.67 284.8 354.34 277.13 344.84 274.83"/><polygon class="cls-17" points="341.42 264.09 334.07 271.44 335.91 282.25 344.25 274.69 344.67 274.31 341.42 264.09"/><polygon class="cls-17" points="334.07 271.44 325.71 279.8 328.04 289.4 335.91 282.25 334.07 271.44"/><polygon class="cls-17" points="328.04 289.4 320.42 296.31 332.04 299.42 339.58 291.88 328.04 289.4 328.04 289.4"/><polygon class="cls-17" points="335.91 282.25 328.04 289.4 328.04 289.4 339.58 291.88 346.67 284.8 335.91 282.25 335.91 282.25"/><polygon class="cls-17" points="320.42 296.31 310.65 305.18 326.28 305.18 332.04 299.42 320.42 296.31"/><polygon class="cls-17" points="317.41 288.1 310.65 294.86 310.65 305.18 320.42 296.31 317.41 288.1"/><polygon class="cls-17" points="325.71 279.8 317.61 287.91 317.41 288.1 320.42 296.31 328.04 289.4 325.71 279.8"/><polygon class="cls-17" points="352.43 267.27 344.67 274.31 344.25 274.69 344.84 274.83 354.34 277.13 362.97 268.49 352.43 267.27"/><polygon class="cls-17" points="351.19 254.32 341.42 264.09 344.67 274.31 352.43 267.27 351.19 254.32"/><polygon class="cls-17" points="353.79 251.72 351.19 254.32 352.43 267.27 352.81 266.92 369.57 251.72 353.79 251.72"/><path class="cls-18" d="M983.85,349.7a2,2,0,0,1-1.09-.32,130.09,130.09,0,0,0-139.69,0,2,2,0,0,1-2.79-.58l-4-6a2,2,0,0,1-.29-1.55,2,2,0,0,1,.89-1.29c1.71-1.09,3.49-2.18,5.31-3.23a28.68,28.68,0,0,1-8.67-3.28c-9.06-4.91-17.52-13.36-24.45-24.42a.75.75,0,0,1,0-.79.81.81,0,0,1,.67-.43c.71,0,1.45,0,2.22,0A54.41,54.41,0,0,1,824,309.11l1.32.33C833,290.51,846.6,278.08,860.9,277c.67-.05,1.36-.07,2-.07a29.93,29.93,0,0,1,5.61.54.12.12,0,0,0,.05-.05c6.19-5.79,15.34-6.45,22-6.93,1.31-.09,2.64-.14,4-.14a56.65,56.65,0,0,1,11.86,1.27c1.52-4.91,3.84-7.73,6.44-7.76H913c2.64.1,4.93,2.9,6.42,7.75a56.74,56.74,0,0,1,11.87-1.27c1.32,0,2.65.05,4,.14,6.68.48,15.82,1.14,22,6.93l.06.05a29.93,29.93,0,0,1,5.61-.54c.68,0,1.37,0,2,.07,14.3,1.07,27.92,13.5,35.57,32.43.43-.12.88-.22,1.32-.33a54.28,54.28,0,0,1,12.07-1.36c.76,0,1.51,0,2.22,0a.82.82,0,0,1,.67.43.8.8,0,0,1,0,.79c-6.93,11.06-15.39,19.51-24.45,24.42a28.87,28.87,0,0,1-8.67,3.28c1.81,1.05,3.59,2.13,5.31,3.23a2,2,0,0,1,.89,1.29,2,2,0,0,1-.3,1.55l-4,6A2,2,0,0,1,983.85,349.7ZM947.26,322a140.14,140.14,0,0,1,21,7l-.73-.79c-3.1-3.39-6.15-7-9.06-10.76A47.15,47.15,0,0,1,947.26,322Zm-79.91-4.5c-2.91,3.75-6,7.37-9.06,10.76l-.73.79a140.14,140.14,0,0,1,21-7A47.15,47.15,0,0,1,867.35,317.47Zm91.74-10.39a.76.76,0,0,1,.59.27c5.68,6.31,14,14.06,21.48,15.14a22.07,22.07,0,0,0,3.36.3,11.76,11.76,0,0,0,5.9-1.46,11,11,0,0,0,1.75-1.22,24.6,24.6,0,0,1-6.34-3.17.8.8,0,0,1,0-1.34,54.59,54.59,0,0,1,12.85-5.68,80.62,80.62,0,0,0-6.6-5.54c-4.61-3.45-7.16-5.36-10.45-6.27a15.4,15.4,0,0,0-4.15-.56c-5.38,0-10.41,2.58-13.78,4.82,0,.13-.13.75-.13.75a.79.79,0,0,1-.6.64l-.18,0a.82.82,0,0,1-.65-.32,53.7,53.7,0,0,0-4.19-5c-3.54-3.76-8.92-8.35-13-10.11a16.61,16.61,0,0,0-6.65-1.29c-4.93,0-10.53,1.75-16.23,5.08a47.75,47.75,0,0,0,13.16,10.17.81.81,0,0,1,.4.5.83.83,0,0,1-.1.63c-.33.52-.67,1-1,1.47a15.76,15.76,0,0,1-2.54,2.7,3.81,3.81,0,0,1-2.16.59c-2.44,0-5.47-1.61-7.9-3.24a15.68,15.68,0,0,0,.64,4.55,13.52,13.52,0,0,0,6.29,3.27,21.62,21.62,0,0,0,4.07.32c2.22,0,4.46-.19,6.1-.33A46.71,46.71,0,0,0,955.14,309c1.2-.54,2.4-1.14,3.56-1.8A.79.79,0,0,1,959.09,307.08Zm-125.43,13a11,11,0,0,0,1.75,1.22,11.76,11.76,0,0,0,5.9,1.46,22.2,22.2,0,0,0,3.36-.3c7.47-1.08,15.8-8.83,21.47-15.14a.78.78,0,0,1,1-.16c1.16.66,2.36,1.26,3.55,1.8a46.76,46.76,0,0,0,16.07,3.73c1.64.14,3.89.33,6.11.33a21.77,21.77,0,0,0,4.07-.32,13.56,13.56,0,0,0,6.29-3.27,15.34,15.34,0,0,0,.63-4.55c-2.42,1.63-5.45,3.24-7.89,3.24a3.79,3.79,0,0,1-2.16-.59,16.35,16.35,0,0,1-2.55-2.7c-.36-.47-.69-.95-1-1.47a.83.83,0,0,1-.1-.63.78.78,0,0,1,.4-.5,47.9,47.9,0,0,0,13.16-10.17c-5.71-3.33-11.3-5.08-16.23-5.08a16.61,16.61,0,0,0-6.65,1.29c-4,1.76-9.43,6.35-13,10.11a52.2,52.2,0,0,0-4.19,5,.84.84,0,0,1-.65.32l-.18,0a.79.79,0,0,1-.6-.64l-.13-.75c-3.37-2.24-8.4-4.82-13.78-4.82a15.4,15.4,0,0,0-4.15.56c-3.3.91-5.84,2.82-10.45,6.27a76.92,76.92,0,0,0-6.6,5.55A54.15,54.15,0,0,1,840,315.6a.8.8,0,0,1,0,1.34A24.6,24.6,0,0,1,833.66,320.11Zm79.25-2.35c2.74,0,5.51.08,8.29.24a34.67,34.67,0,0,1-4-2.77,36.28,36.28,0,0,1-4.3-4.2,32.37,32.37,0,0,1-8.28,7C907.41,317.84,910.18,317.76,912.91,317.76Z" transform="translate(-621.4 -129.95)"/><path class="cls-11" d="M912.92,264.67h0c2.42,0,4.57,3.12,5.91,7.9a55.84,55.84,0,0,1,12.42-1.42c1.26,0,2.56.05,3.9.14,6.51.47,15.54,1.12,21.53,6.73.11.1.21.22.32.33a29,29,0,0,1,5.89-.62c.7,0,1.36,0,2,.08,14.5,1.08,27.58,13.74,34.94,32.05a79.85,79.85,0,0,0-7.21-6.11c-4.61-3.46-7.28-5.46-10.71-6.41a16.27,16.27,0,0,0-4.37-.58c-6.15,0-11.68,3.22-14.51,5.14,0,.36-.12.72-.19,1.09a52.67,52.67,0,0,0-4.25-5.12c-3.66-3.9-9.05-8.48-13.23-10.3a17.56,17.56,0,0,0-7-1.36c-5.44,0-11.55,2.09-17.46,5.69a48.82,48.82,0,0,0,14,11.06c-.29.46-.62.94-1,1.42a14.49,14.49,0,0,1-2.36,2.52,3,3,0,0,1-1.71.46c-2.1,0-5.18-1.44-8.6-3.91,0,.4-.08.81-.09,1.24a16.38,16.38,0,0,0,.73,5.22,14.43,14.43,0,0,0,6.83,3.6,22.35,22.35,0,0,0,4.23.33c2.25,0,4.55-.19,6.17-.33a47.74,47.74,0,0,0,16.33-3.79c1-.47,2.27-1.07,3.62-1.84,5.5,6.11,14.14,14.27,22,15.4a23.16,23.16,0,0,0,3.47.31,12.68,12.68,0,0,0,6.29-1.57,12,12,0,0,0,2.9-2.28,24,24,0,0,1-7.43-3.46,53.17,53.17,0,0,1,27.61-7.74c.75,0,1.48,0,2.19,0-4.74,7.55-12.71,17.93-24.16,24.14-4.86,2.63-8.29,3.41-10.81,3.41H981c2.55,1.41,5.06,2.9,7.51,4.47a1.25,1.25,0,0,1,.36,1.73l-4,6a1.25,1.25,0,0,1-1,.55,1.24,1.24,0,0,1-.66-.2,130.92,130.92,0,0,0-140.55,0,1.27,1.27,0,0,1-.67.2,1.22,1.22,0,0,1-1-.55l-4-6a1.25,1.25,0,0,1,.36-1.73c2.45-1.57,5-3.06,7.51-4.47h-.11c-2.52,0-6-.78-10.81-3.41-11.46-6.21-19.42-16.59-24.16-24.14.7,0,1.43,0,2.19,0a53.11,53.11,0,0,1,27.6,7.74,23.88,23.88,0,0,1-7.42,3.46A12,12,0,0,0,835,322a12.55,12.55,0,0,0,6.29,1.57,23.42,23.42,0,0,0,3.47-.31c7.82-1.13,16.46-9.29,22-15.4a40.22,40.22,0,0,0,3.62,1.84,47.69,47.69,0,0,0,16.33,3.79c1.62.14,3.91.33,6.17.33a22.17,22.17,0,0,0,4.22-.33,14.42,14.42,0,0,0,6.84-3.6,16.38,16.38,0,0,0,.73-5.22c0-.43,0-.84-.09-1.24-3.42,2.47-6.5,3.91-8.61,3.91a3,3,0,0,1-1.7-.46,14.49,14.49,0,0,1-2.36-2.52,16,16,0,0,1-1-1.42,49,49,0,0,0,14-11.06c-5.91-3.6-12-5.69-17.47-5.69a17.51,17.51,0,0,0-7,1.36c-4.18,1.82-9.57,6.4-13.23,10.3A54.42,54.42,0,0,0,863,303c-.06-.37-.13-.73-.18-1.09-2.83-1.92-8.37-5.14-14.51-5.14a16.22,16.22,0,0,0-4.37.58c-3.43,1-6.1,3-10.71,6.41a79.85,79.85,0,0,0-7.21,6.11c7.36-18.31,20.44-31,34.94-32.05.62-.05,1.28-.08,2-.08a29,29,0,0,1,5.89.62c.11-.11.2-.23.32-.33,6-5.61,15-6.26,21.53-6.73,1.34-.09,2.64-.14,3.89-.14A55.94,55.94,0,0,1,907,272.57c1.34-4.78,3.49-7.89,5.91-7.9h0m-11.84,54.38q5.85-.48,11.83-.49t11.84.49a39.06,39.06,0,0,1-7-4.43,35.21,35.21,0,0,1-4.81-4.83,35.09,35.09,0,0,1-4.8,4.83,39.5,39.5,0,0,1-7,4.43m70.59,12.35c-1-1-2.16-2.2-3.54-3.71-2.56-2.79-5.83-6.56-9.44-11.25a45.16,45.16,0,0,1-15.13,5.47,139.23,139.23,0,0,1,28.11,9.49m-117.51,0a139.14,139.14,0,0,1,28.1-9.49,45.18,45.18,0,0,1-15.12-5.47c-3.61,4.69-6.88,8.46-9.44,11.25-1.38,1.51-2.54,2.73-3.54,3.71m58.76-68.32h-.09c-2.86.06-5.29,2.75-6.93,7.63a57,57,0,0,0-11.33-1.15c-1.33,0-2.68.05-4,.15-6.71.48-15.87,1.14-22.26,6.92a29.77,29.77,0,0,0-5.36-.49c-.7,0-1.41,0-2.1.08-14.44,1.08-28.17,13.42-36,32.28l-.67-.16A54.86,54.86,0,0,0,811.94,307c-.75,0-1.51,0-2.25.05a1.58,1.58,0,0,0-1.35.85,1.61,1.61,0,0,0,.06,1.59c7,11.17,15.57,19.71,24.75,24.69a33.2,33.2,0,0,0,6.91,2.91c-1.22.74-2.43,1.48-3.6,2.23a2.84,2.84,0,0,0-.83,4l4,6a2.82,2.82,0,0,0,3.88.81,129.31,129.31,0,0,1,138.83,0,2.76,2.76,0,0,0,1.52.45,2.83,2.83,0,0,0,2.36-1.26l4-6a2.84,2.84,0,0,0-.83-4c-1.18-.75-2.38-1.49-3.6-2.23a32.92,32.92,0,0,0,6.9-2.91c9.19-5,17.75-13.52,24.76-24.69a1.61,1.61,0,0,0,.06-1.59,1.58,1.58,0,0,0-1.35-.85c-.75,0-1.51-.05-2.25-.05a54.72,54.72,0,0,0-12.25,1.39l-.67.16c-7.81-18.86-21.54-31.2-36-32.28-.69-.05-1.4-.08-2.1-.08a30,30,0,0,0-5.37.49c-6.39-5.78-15.54-6.44-22.25-6.92-1.33-.1-2.68-.15-4-.15a57.09,57.09,0,0,0-11.33,1.15c-1.63-4.88-4.06-7.57-6.92-7.63Zm10.48,29.2c5.29-2.93,10.43-4.48,15-4.48A15.93,15.93,0,0,1,944.7,289c3.95,1.72,9.23,6.22,12.71,9.93a52.33,52.33,0,0,1,4.13,5,1.59,1.59,0,0,0,1.28.65,1.5,1.5,0,0,0,.37-.05,1.58,1.58,0,0,0,1.21-1.28l.06-.37v0c3.26-2.13,8-4.49,13-4.49a14.69,14.69,0,0,1,3.94.53c3.15.87,5.65,2.74,10.18,6.14,1.9,1.42,3.75,3,5.52,4.55a54.7,54.7,0,0,0-11.7,5.35,1.59,1.59,0,0,0-.09,2.67,24.87,24.87,0,0,0,5.14,2.76l-.48.28a10.9,10.9,0,0,1-5.51,1.36,23,23,0,0,1-3.24-.28c-5.65-.83-13.11-6.11-21-14.9a1.61,1.61,0,0,0-1.19-.52,1.54,1.54,0,0,0-.78.2c-1.14.65-2.32,1.25-3.49,1.77A46.07,46.07,0,0,1,939,311.93c-1.63.13-3.85.32-6,.32a21.09,21.09,0,0,1-3.92-.3,12.58,12.58,0,0,1-5.74-2.94,14.61,14.61,0,0,1-.48-2.61c2.26,1.37,4.84,2.55,7,2.55a4.53,4.53,0,0,0,2.61-.74,16.57,16.57,0,0,0,2.73-2.86c.37-.49.72-1,1.06-1.54a1.59,1.59,0,0,0-.6-2.25,47.32,47.32,0,0,1-12.27-9.28ZM863,304.58a1.62,1.62,0,0,0,1.29-.65,50.86,50.86,0,0,1,4.13-5c3.48-3.71,8.76-8.21,12.7-9.93a16,16,0,0,1,6.34-1.23c4.54,0,9.68,1.55,15,4.48a47.1,47.1,0,0,1-12.26,9.28,1.57,1.57,0,0,0-.6,2.25c.34.55.69,1.05,1.06,1.54a16.19,16.19,0,0,0,2.73,2.86,4.5,4.5,0,0,0,2.6.74c2.21,0,4.79-1.18,7-2.55a14.61,14.61,0,0,1-.48,2.61,12.67,12.67,0,0,1-5.74,2.94,21.09,21.09,0,0,1-3.92.3c-2.19,0-4.41-.19-6-.32A46,46,0,0,1,871,308.26c-1.17-.52-2.35-1.12-3.49-1.77a1.56,1.56,0,0,0-.78-.2,1.61,1.61,0,0,0-1.19.52c-7.9,8.79-15.35,14.07-21,14.9a23,23,0,0,1-3.24.28,10.88,10.88,0,0,1-5.51-1.36l-.48-.28a25.39,25.39,0,0,0,5.14-2.76,1.62,1.62,0,0,0,.68-1.36,1.6,1.6,0,0,0-.77-1.31,55.15,55.15,0,0,0-11.7-5.35c1.77-1.6,3.62-3.13,5.51-4.55,4.54-3.4,7-5.27,10.19-6.14a14.69,14.69,0,0,1,3.94-.53c5,0,9.78,2.36,13.05,4.49v0l.06.37a1.58,1.58,0,0,0,1.21,1.28,1.49,1.49,0,0,0,.36.05Zm44.51,12.49c.92-.66,1.48-1.12,1.61-1.22a35,35,0,0,0,3.79-3.62,37,37,0,0,0,3.79,3.62c.13.1.7.56,1.62,1.22-1.81-.07-3.62-.11-5.41-.11s-3.59,0-5.4.11Zm-47,9.87c2.4-2.7,4.76-5.53,7-8.45a48.85,48.85,0,0,0,8,3.44,141.77,141.77,0,0,0-15,5Zm89.75-5a48.85,48.85,0,0,0,8-3.44c2.28,2.92,4.64,5.75,7,8.45a142.53,142.53,0,0,0-15-5Z" transform="translate(-621.4 -129.95)"/><path class="cls-19" d="M868.83,278.35c.11-.11.2-.23.32-.33,6-5.61,15-6.26,21.53-6.73A55.64,55.64,0,0,1,907,272.57a44.09,44.09,0,0,0-1.45,11.63,47.2,47.2,0,0,0,.74,8.55c-9-5.87-18.63-8.29-25.8-5.18-4.18,1.82-9.57,6.4-13.23,10.3A54.42,54.42,0,0,0,863,303c-.06-.37-.13-.73-.18-1.09C861.47,292.41,863.42,283.68,868.83,278.35Z" transform="translate(-621.4 -129.95)"/><path class="cls-19" d="M861,277.81a28,28,0,0,1,7.87.54c-5.41,5.33-7.36,14.06-6,23.55-3.49-2.37-11.1-6.72-18.88-4.56-3.43,1-6.1,3-10.71,6.41a79.85,79.85,0,0,0-7.21,6.11C833.38,291.55,846.46,278.89,861,277.81Z" transform="translate(-621.4 -129.95)"/><line class="cls-15" x1="291.59" y1="136.3" x2="291.59" y2="123.38"/><line class="cls-15" x1="294.87" y1="127.48" x2="288.3" y2="127.48"/><path class="cls-20" d="M918.83,272.57c-1.34-4.78-3.49-7.89-5.91-7.9h0c-2.42,0-4.57,3.12-5.91,7.9a44.09,44.09,0,0,0-1.45,11.63,47.2,47.2,0,0,0,.74,8.55c1.19,6.5,3.71,11,6.62,11h0c2.91,0,5.42-4.49,6.62-11a48.11,48.11,0,0,0,.74-8.55A44.09,44.09,0,0,0,918.83,272.57Z" transform="translate(-621.4 -129.95)"/><path class="cls-19" d="M957,278.35c-.11-.11-.21-.23-.32-.33-6-5.61-15-6.26-21.53-6.73a55.64,55.64,0,0,0-16.32,1.28,44.09,44.09,0,0,1,1.45,11.63,48.11,48.11,0,0,1-.74,8.55c9-5.87,18.63-8.29,25.8-5.18,4.18,1.82,9.57,6.4,13.23,10.3a52.67,52.67,0,0,1,4.25,5.12c.07-.37.14-.73.19-1.09C964.36,292.41,962.41,283.68,957,278.35Z" transform="translate(-621.4 -129.95)"/><path class="cls-19" d="M964.87,277.81a28,28,0,0,0-7.87.54c5.41,5.33,7.36,14.06,6,23.55,3.49-2.37,11.09-6.72,18.88-4.56,3.43,1,6.1,3,10.71,6.41a79.85,79.85,0,0,1,7.21,6.11C992.45,291.55,979.37,278.89,964.87,277.81Z" transform="translate(-621.4 -129.95)"/><path class="cls-21" d="M1002,309.89a53.56,53.56,0,0,0-15.72,6.39,24,24,0,0,0,7.43,3.46,12,12,0,0,1-2.9,2.28c-3.78,2.13-7.63,1.57-9.76,1.26-7.82-1.13-16.46-9.29-22-15.4-1.35.77-2.57,1.37-3.62,1.84a47.74,47.74,0,0,1-16.33,3.79c-2.7.23-7.27.62-10.4,0a14.43,14.43,0,0,1-6.83-3.6,16.38,16.38,0,0,1-.73-5.22c0-.43.05-.84.09-1.24,4.53,3.27,8.45,4.72,10.31,3.45a14.49,14.49,0,0,0,2.36-2.52c.37-.48.7-1,1-1.42a48.51,48.51,0,0,1-17.53-15.6,47.49,47.49,0,0,1-4.49-8.28,46.74,46.74,0,0,1-4.48,8.28A48.51,48.51,0,0,1,890.9,303a16,16,0,0,0,1,1.42,14.49,14.49,0,0,0,2.36,2.52c1.86,1.27,5.78-.18,10.31-3.45,0,.4.07.81.09,1.24a16.38,16.38,0,0,1-.73,5.22,14.42,14.42,0,0,1-6.84,3.6c-3.12.62-7.7.23-10.39,0a47.69,47.69,0,0,1-16.33-3.79,40.22,40.22,0,0,1-3.62-1.84c-5.5,6.11-14.14,14.27-22,15.4-2.14.31-6,.87-9.76-1.26a12,12,0,0,1-2.9-2.28,23.88,23.88,0,0,0,7.42-3.46,53,53,0,0,0-29.79-7.69c4.74,7.55,12.7,17.93,24.16,24.14,7.17,3.89,11.24,3.72,13.87,3,2.42-.67,4.44-2,9.92-8,2.56-2.79,5.83-6.56,9.44-11.25,5.14,2.95,16.5,8.17,28.37,4.79a38.35,38.35,0,0,0,12.6-6.61,35.09,35.09,0,0,0,4.8-4.83,35.21,35.21,0,0,0,4.81,4.83,38.35,38.35,0,0,0,12.6,6.61c11.86,3.38,23.23-1.84,28.37-4.79,3.61,4.69,6.88,8.46,9.44,11.25,5.48,6,7.5,7.37,9.92,8,2.63.72,6.7.89,13.87-3,11.45-6.21,19.42-16.59,24.16-24.14A53.26,53.26,0,0,0,1002,309.89Z" transform="translate(-621.4 -129.95)"/><path class="cls-21" d="M988.51,340.61a140.61,140.61,0,0,0-151.19,0,1.25,1.25,0,0,0-.36,1.73l4,6a1.23,1.23,0,0,0,1.69.35,130.92,130.92,0,0,1,140.55,0,1.23,1.23,0,0,0,1.69-.35l4-6A1.25,1.25,0,0,0,988.51,340.61Z" transform="translate(-621.4 -129.95)"/><circle class="cls-19" cx="291.5" cy="173.79" r="5.92"/><circle class="cls-19" cx="339.06" cy="176.17" r="5.32"/><ellipse class="cls-19" cx="1003.03" cy="323.76" rx="5.07" ry="3.28" transform="translate(-556.56 674.12) rotate(-45)"/><circle class="cls-22" cx="335.63" cy="200.79" r="4.85"/><circle class="cls-19" cx="291.5" cy="173.79" r="5.92"/><circle class="cls-19" cx="243.95" cy="176.17" r="5.32"/><ellipse class="cls-19" cx="822.79" cy="323.76" rx="3.28" ry="5.07" transform="translate(-609.35 546.67) rotate(-45)"/><circle class="cls-22" cx="291.5" cy="193.45" r="4.85"/><circle class="cls-22" cx="247.38" cy="200.79" r="4.85"/></svg>